%TF.GenerationSoftware,KiCad,Pcbnew,9.0.7*%
%TF.CreationDate,2026-04-09T17:13:49-07:00*%
%TF.ProjectId,sensOrb_Baro_Unit,73656e73-4f72-4625-9f42-61726f5f556e,rev?*%
%TF.SameCoordinates,Original*%
%TF.FileFunction,Copper,L2,Bot*%
%TF.FilePolarity,Positive*%
%FSLAX46Y46*%
G04 Gerber Fmt 4.6, Leading zero omitted, Abs format (unit mm)*
G04 Created by KiCad (PCBNEW 9.0.7) date 2026-04-09 17:13:49*
%MOMM*%
%LPD*%
G01*
G04 APERTURE LIST*
G04 Aperture macros list*
%AMRoundRect*
0 Rectangle with rounded corners*
0 $1 Rounding radius*
0 $2 $3 $4 $5 $6 $7 $8 $9 X,Y pos of 4 corners*
0 Add a 4 corners polygon primitive as box body*
4,1,4,$2,$3,$4,$5,$6,$7,$8,$9,$2,$3,0*
0 Add four circle primitives for the rounded corners*
1,1,$1+$1,$2,$3*
1,1,$1+$1,$4,$5*
1,1,$1+$1,$6,$7*
1,1,$1+$1,$8,$9*
0 Add four rect primitives between the rounded corners*
20,1,$1+$1,$2,$3,$4,$5,0*
20,1,$1+$1,$4,$5,$6,$7,0*
20,1,$1+$1,$6,$7,$8,$9,0*
20,1,$1+$1,$8,$9,$2,$3,0*%
G04 Aperture macros list end*
%TA.AperFunction,ComponentPad*%
%ADD10C,4.400000*%
%TD*%
%TA.AperFunction,SMDPad,CuDef*%
%ADD11RoundRect,0.250000X-0.350000X-0.450000X0.350000X-0.450000X0.350000X0.450000X-0.350000X0.450000X0*%
%TD*%
%TA.AperFunction,SMDPad,CuDef*%
%ADD12RoundRect,0.250000X-0.337500X-0.475000X0.337500X-0.475000X0.337500X0.475000X-0.337500X0.475000X0*%
%TD*%
%TA.AperFunction,ComponentPad*%
%ADD13RoundRect,0.250000X-0.600000X-0.725000X0.600000X-0.725000X0.600000X0.725000X-0.600000X0.725000X0*%
%TD*%
%TA.AperFunction,ComponentPad*%
%ADD14O,1.700000X1.950000*%
%TD*%
%TA.AperFunction,ViaPad*%
%ADD15C,0.600000*%
%TD*%
%TA.AperFunction,Conductor*%
%ADD16C,0.300000*%
%TD*%
G04 APERTURE END LIST*
D10*
%TO.P,H2,1,1*%
%TO.N,GND*%
X156500000Y-102000000D03*
%TD*%
%TO.P,H1,1,1*%
%TO.N,GND*%
X138000000Y-102000000D03*
%TD*%
D11*
%TO.P,R1,1*%
%TO.N,+3.3V*%
X140500000Y-105000000D03*
%TO.P,R1,2*%
%TO.N,/SC0*%
X142500000Y-105000000D03*
%TD*%
D12*
%TO.P,C1,1*%
%TO.N,+3.3V*%
X151425000Y-105000000D03*
%TO.P,C1,2*%
%TO.N,GND*%
X153500000Y-105000000D03*
%TD*%
D13*
%TO.P,J11,1,Pin_1*%
%TO.N,GND*%
X143500000Y-99500000D03*
D14*
%TO.P,J11,2,Pin_2*%
%TO.N,+3.3V*%
X146000000Y-99500000D03*
%TO.P,J11,3,Pin_3*%
%TO.N,/SD0*%
X148500000Y-99500000D03*
%TO.P,J11,4,Pin_4*%
%TO.N,/SC0*%
X151000000Y-99500000D03*
%TD*%
D11*
%TO.P,R2,1*%
%TO.N,+3.3V*%
X140500000Y-108500000D03*
%TO.P,R2,2*%
%TO.N,/SD0*%
X142500000Y-108500000D03*
%TD*%
D15*
%TO.N,GND*%
X152500000Y-107000000D03*
X147000000Y-109500000D03*
%TO.N,+3.3V*%
X142500000Y-103500000D03*
X150000000Y-105000000D03*
%TO.N,/SC0*%
X146500000Y-104000000D03*
X144000000Y-105000000D03*
%TO.N,/SD0*%
X144000000Y-108000000D03*
X146500000Y-103000000D03*
%TD*%
D16*
%TO.N,GND*%
X153500000Y-106000000D02*
X153500000Y-105000000D01*
X152500000Y-107000000D02*
X153500000Y-106000000D01*
X146000000Y-97000000D02*
X143500000Y-99500000D01*
X146000000Y-109500000D02*
X145000000Y-108500000D01*
X156500000Y-102000000D02*
X151500000Y-97000000D01*
X143500000Y-102500000D02*
X143500000Y-99500000D01*
X145000000Y-104000000D02*
X143500000Y-102500000D01*
X145000000Y-108500000D02*
X145000000Y-104000000D01*
X147000000Y-109500000D02*
X146000000Y-109500000D01*
X151500000Y-97000000D02*
X146000000Y-97000000D01*
X153500000Y-105000000D02*
X156500000Y-102000000D01*
%TO.N,+3.3V*%
X140500000Y-105000000D02*
X142000000Y-103500000D01*
X150000000Y-105000000D02*
X151425000Y-105000000D01*
X140500000Y-108500000D02*
X140500000Y-105000000D01*
X142000000Y-103500000D02*
X142500000Y-103500000D01*
%TO.N,/SC0*%
X144000000Y-105000000D02*
X142500000Y-105000000D01*
X146500000Y-104000000D02*
X151000000Y-99500000D01*
%TO.N,/SD0*%
X143500000Y-108500000D02*
X142500000Y-108500000D01*
X144000000Y-108000000D02*
X143500000Y-108500000D01*
X146500000Y-103000000D02*
X148500000Y-101000000D01*
X148500000Y-101000000D02*
X148500000Y-99500000D01*
%TD*%
M02*
