%TF.GenerationSoftware,KiCad,Pcbnew,9.0.7*%
%TF.CreationDate,2026-04-09T17:13:49-07:00*%
%TF.ProjectId,sensOrb_Baro_Unit,73656e73-4f72-4625-9f42-61726f5f556e,rev?*%
%TF.SameCoordinates,Original*%
%TF.FileFunction,Copper,L1,Top*%
%TF.FilePolarity,Positive*%
%FSLAX46Y46*%
G04 Gerber Fmt 4.6, Leading zero omitted, Abs format (unit mm)*
G04 Created by KiCad (PCBNEW 9.0.7) date 2026-04-09 17:13:49*
%MOMM*%
%LPD*%
G01*
G04 APERTURE LIST*
G04 Aperture macros list*
%AMRoundRect*
0 Rectangle with rounded corners*
0 $1 Rounding radius*
0 $2 $3 $4 $5 $6 $7 $8 $9 X,Y pos of 4 corners*
0 Add a 4 corners polygon primitive as box body*
4,1,4,$2,$3,$4,$5,$6,$7,$8,$9,$2,$3,0*
0 Add four circle primitives for the rounded corners*
1,1,$1+$1,$2,$3*
1,1,$1+$1,$4,$5*
1,1,$1+$1,$6,$7*
1,1,$1+$1,$8,$9*
0 Add four rect primitives between the rounded corners*
20,1,$1+$1,$2,$3,$4,$5,0*
20,1,$1+$1,$4,$5,$6,$7,0*
20,1,$1+$1,$6,$7,$8,$9,0*
20,1,$1+$1,$8,$9,$2,$3,0*%
G04 Aperture macros list end*
%TA.AperFunction,ComponentPad*%
%ADD10C,4.400000*%
%TD*%
%TA.AperFunction,SMDPad,CuDef*%
%ADD11R,0.990600X0.990600*%
%TD*%
%TA.AperFunction,ComponentPad*%
%ADD12RoundRect,0.250000X-0.600000X-0.725000X0.600000X-0.725000X0.600000X0.725000X-0.600000X0.725000X0*%
%TD*%
%TA.AperFunction,ComponentPad*%
%ADD13O,1.700000X1.950000*%
%TD*%
%TA.AperFunction,ViaPad*%
%ADD14C,0.600000*%
%TD*%
%TA.AperFunction,Conductor*%
%ADD15C,0.300000*%
%TD*%
%TA.AperFunction,Conductor*%
%ADD16C,0.200000*%
%TD*%
G04 APERTURE END LIST*
D10*
%TO.P,H2,1,1*%
%TO.N,GND*%
X156500000Y-102000000D03*
%TD*%
%TO.P,H1,1,1*%
%TO.N,GND*%
X138000000Y-102000000D03*
%TD*%
D11*
%TO.P,U1,1,GND*%
%TO.N,GND*%
X148500001Y-107500001D03*
%TO.P,U1,2,VDD*%
%TO.N,+3.3V*%
X148500001Y-105499999D03*
%TO.P,U1,3,SCL*%
%TO.N,/SC0*%
X146499999Y-105499999D03*
%TO.P,U1,4,SDA*%
%TO.N,/SD0*%
X146499999Y-107500001D03*
%TD*%
D12*
%TO.P,J11,1,Pin_1*%
%TO.N,GND*%
X143500000Y-99500000D03*
D13*
%TO.P,J11,2,Pin_2*%
%TO.N,+3.3V*%
X146000000Y-99500000D03*
%TO.P,J11,3,Pin_3*%
%TO.N,/SD0*%
X148500000Y-99500000D03*
%TO.P,J11,4,Pin_4*%
%TO.N,/SC0*%
X151000000Y-99500000D03*
%TD*%
D14*
%TO.N,GND*%
X152500000Y-107000000D03*
X147000000Y-109500000D03*
%TO.N,+3.3V*%
X142500000Y-103500000D03*
X150000000Y-105000000D03*
%TO.N,/SC0*%
X146500000Y-104000000D03*
X144000000Y-105000000D03*
%TO.N,/SD0*%
X144000000Y-108000000D03*
X146500000Y-103000000D03*
%TD*%
D15*
%TO.N,GND*%
X147500000Y-109500000D02*
X148500001Y-108499999D01*
X138000000Y-101500000D02*
X138000000Y-102000000D01*
X148500001Y-108499999D02*
X148500001Y-107500001D01*
X147000000Y-109500000D02*
X147500000Y-109500000D01*
X156500000Y-102000000D02*
X156500000Y-102500000D01*
X148500000Y-107500002D02*
X149000002Y-107000000D01*
X149000002Y-107000000D02*
X152500000Y-107000000D01*
X140000000Y-99500000D02*
X138000000Y-101500000D01*
X143500000Y-99500000D02*
X140000000Y-99500000D01*
%TO.N,+3.3V*%
X143500000Y-103500000D02*
X146000000Y-101000000D01*
X142500000Y-103500000D02*
X143500000Y-103500000D01*
X148500001Y-102000001D02*
X146000000Y-99500000D01*
X149500000Y-105500000D02*
X150000000Y-105000000D01*
X148500000Y-105500000D02*
X149500000Y-105500000D01*
X148500001Y-105499999D02*
X148500001Y-102000001D01*
X146000000Y-101000000D02*
X146000000Y-99500000D01*
%TO.N,/SC0*%
X144000000Y-105000000D02*
X144500000Y-105500000D01*
D16*
X146499999Y-104000001D02*
X146500000Y-104000000D01*
D15*
X146499999Y-105499999D02*
X146499999Y-104000001D01*
X144500000Y-105500000D02*
X146499998Y-105500000D01*
%TO.N,/SD0*%
X147500000Y-104000000D02*
X146500000Y-103000000D01*
X147500000Y-106500000D02*
X147500000Y-104000000D01*
X146499999Y-107500001D02*
X147500000Y-106500000D01*
X144499998Y-107500002D02*
X146499998Y-107500002D01*
X144000000Y-108000000D02*
X144499998Y-107500002D01*
%TD*%
M02*
