%TF.GenerationSoftware,KiCad,Pcbnew,8.0.7*%
%TF.CreationDate,2025-05-01T01:05:52-07:00*%
%TF.ProjectId,salp_board,73616c70-5f62-46f6-9172-642e6b696361,rev?*%
%TF.SameCoordinates,Original*%
%TF.FileFunction,Drillmap*%
%TF.FilePolarity,Positive*%
%FSLAX45Y45*%
G04 Gerber Fmt 4.5, Leading zero omitted, Abs format (unit mm)*
G04 Created by KiCad (PCBNEW 8.0.7) date 2025-05-01 01:05:52*
%MOMM*%
%LPD*%
G01*
G04 APERTURE LIST*
%ADD10C,0.050000*%
%ADD11C,0.200000*%
%ADD12C,0.100000*%
G04 APERTURE END LIST*
D10*
X19637400Y-11480800D02*
X13560400Y-11480800D01*
X13360400Y-11280800D02*
X13360400Y-5813400D01*
X13560400Y-5613400D02*
X19637400Y-5613400D01*
X13560400Y-11480800D02*
G75*
G02*
X13360400Y-11280800I0J200000D01*
G01*
X19637400Y-5613400D02*
G75*
G02*
X19837400Y-5813400I0J-200000D01*
G01*
X19837400Y-5813400D02*
X19837400Y-11280800D01*
X19837400Y-11280800D02*
G75*
G02*
X19637400Y-11480800I-200000J0D01*
G01*
X13360400Y-5813400D02*
G75*
G02*
X13560400Y-5613400I200000J0D01*
G01*
D11*
D12*
X13860000Y-10485000D02*
X13890000Y-10515000D01*
X13890000Y-10485000D02*
X13860000Y-10515000D01*
X13862575Y-10112575D02*
X13892575Y-10142575D01*
X13892575Y-10112575D02*
X13862575Y-10142575D01*
X14660000Y-9335000D02*
X14690000Y-9365000D01*
X14690000Y-9335000D02*
X14660000Y-9365000D01*
X14710000Y-10385000D02*
X14740000Y-10415000D01*
X14740000Y-10385000D02*
X14710000Y-10415000D01*
X14935000Y-10135000D02*
X14965000Y-10165000D01*
X14965000Y-10135000D02*
X14935000Y-10165000D01*
X14960000Y-11285000D02*
X14990000Y-11315000D01*
X14990000Y-11285000D02*
X14960000Y-11315000D01*
X14985000Y-6085000D02*
X15015000Y-6115000D01*
X15015000Y-6085000D02*
X14985000Y-6115000D01*
X15235000Y-9110000D02*
X15265000Y-9140000D01*
X15265000Y-9110000D02*
X15235000Y-9140000D01*
X15250400Y-9764000D02*
X15280400Y-9794000D01*
X15280400Y-9764000D02*
X15250400Y-9794000D01*
X15260000Y-10210000D02*
X15290000Y-10240000D01*
X15290000Y-10210000D02*
X15260000Y-10240000D01*
X15263776Y-10463776D02*
X15293776Y-10493776D01*
X15293776Y-10463776D02*
X15263776Y-10493776D01*
X15484600Y-9360400D02*
X15514600Y-9390400D01*
X15514600Y-9360400D02*
X15484600Y-9390400D01*
X15485000Y-8860000D02*
X15515000Y-8890000D01*
X15515000Y-8860000D02*
X15485000Y-8890000D01*
X15576538Y-8501538D02*
X15606538Y-8531538D01*
X15606538Y-8501538D02*
X15576538Y-8531538D01*
X15635000Y-8635000D02*
X15665000Y-8665000D01*
X15665000Y-8635000D02*
X15635000Y-8665000D01*
X15655711Y-9764289D02*
X15685711Y-9794289D01*
X15685711Y-9764289D02*
X15655711Y-9794289D01*
X15660000Y-6635000D02*
X15690000Y-6665000D01*
X15690000Y-6635000D02*
X15660000Y-6665000D01*
X15660000Y-7485000D02*
X15690000Y-7515000D01*
X15690000Y-7485000D02*
X15660000Y-7515000D01*
X15760000Y-6635000D02*
X15790000Y-6665000D01*
X15790000Y-6635000D02*
X15760000Y-6665000D01*
X15778750Y-6893800D02*
X15808750Y-6923800D01*
X15808750Y-6893800D02*
X15778750Y-6923800D01*
X15835000Y-10085000D02*
X15865000Y-10115000D01*
X15865000Y-10085000D02*
X15835000Y-10115000D01*
X15885000Y-7485000D02*
X15915000Y-7515000D01*
X15915000Y-7485000D02*
X15885000Y-7515000D01*
X15988989Y-8231011D02*
X16018989Y-8261011D01*
X16018989Y-8231011D02*
X15988989Y-8261011D01*
X16035000Y-10582900D02*
X16065000Y-10612900D01*
X16065000Y-10582900D02*
X16035000Y-10612900D01*
X16085000Y-8335000D02*
X16115000Y-8365000D01*
X16115000Y-8335000D02*
X16085000Y-8365000D01*
X16285000Y-10435000D02*
X16315000Y-10465000D01*
X16315000Y-10435000D02*
X16285000Y-10465000D01*
X16360000Y-8835000D02*
X16390000Y-8865000D01*
X16390000Y-8835000D02*
X16360000Y-8865000D01*
X16382018Y-8002200D02*
X16412018Y-8032200D01*
X16412018Y-8002200D02*
X16382018Y-8032200D01*
X16382018Y-8222900D02*
X16412018Y-8252900D01*
X16412018Y-8222900D02*
X16382018Y-8252900D01*
X16385000Y-10935000D02*
X16415000Y-10965000D01*
X16415000Y-10935000D02*
X16385000Y-10965000D01*
X16560000Y-8410000D02*
X16590000Y-8440000D01*
X16590000Y-8410000D02*
X16560000Y-8440000D01*
X16619391Y-7954814D02*
X16649391Y-7984814D01*
X16649391Y-7954814D02*
X16619391Y-7984814D01*
X16647400Y-6487400D02*
X16677400Y-6517400D01*
X16677400Y-6487400D02*
X16647400Y-6517400D01*
X16698200Y-8002200D02*
X16728200Y-8032200D01*
X16728200Y-8002200D02*
X16698200Y-8032200D01*
X16885000Y-6685000D02*
X16915000Y-6715000D01*
X16915000Y-6685000D02*
X16885000Y-6715000D01*
X16891538Y-7518400D02*
X16921538Y-7548400D01*
X16921538Y-7518400D02*
X16891538Y-7548400D01*
X16893781Y-7226219D02*
X16923781Y-7256219D01*
X16923781Y-7226219D02*
X16893781Y-7256219D01*
X17127850Y-8416000D02*
X17157850Y-8446000D01*
X17157850Y-8416000D02*
X17127850Y-8446000D01*
X17127850Y-8670000D02*
X17157850Y-8700000D01*
X17157850Y-8670000D02*
X17127850Y-8700000D01*
X17215000Y-7695000D02*
X17245000Y-7725000D01*
X17245000Y-7695000D02*
X17215000Y-7725000D01*
X17260000Y-7960000D02*
X17290000Y-7990000D01*
X17290000Y-7960000D02*
X17260000Y-7990000D01*
X17485000Y-8290800D02*
X17515000Y-8320800D01*
X17515000Y-8290800D02*
X17485000Y-8320800D01*
X17876538Y-9901538D02*
X17906538Y-9931538D01*
X17906538Y-9901538D02*
X17876538Y-9931538D01*
X17935000Y-6860000D02*
X17965000Y-6890000D01*
X17965000Y-6860000D02*
X17935000Y-6890000D01*
X18765000Y-8020626D02*
X18795000Y-8050626D01*
X18795000Y-8020626D02*
X18765000Y-8050626D01*
X18831800Y-8113000D02*
X18861800Y-8143000D01*
X18861800Y-8113000D02*
X18831800Y-8143000D01*
X18871468Y-8429477D02*
X18901468Y-8459477D01*
X18901468Y-8429477D02*
X18871468Y-8459477D01*
X18885000Y-8585000D02*
X18915000Y-8615000D01*
X18915000Y-8585000D02*
X18885000Y-8615000D01*
X18891800Y-8169569D02*
X18921800Y-8199569D01*
X18921800Y-8169569D02*
X18891800Y-8199569D01*
X18894227Y-8020626D02*
X18924227Y-8050626D01*
X18924227Y-8020626D02*
X18894227Y-8050626D01*
X18948020Y-8406244D02*
X18978020Y-8436244D01*
X18978020Y-8406244D02*
X18948020Y-8436244D01*
X19035000Y-5954000D02*
X19065000Y-5984000D01*
X19065000Y-5954000D02*
X19035000Y-5984000D01*
X19670000Y-8298000D02*
X19700000Y-8328000D01*
X19700000Y-8298000D02*
X19670000Y-8328000D01*
X17379500Y-10220000D02*
G75*
G02*
X17289500Y-10220000I-45000J0D01*
G01*
X17289500Y-10220000D02*
G75*
G02*
X17379500Y-10220000I45000J0D01*
G01*
X17379500Y-10550000D02*
G75*
G02*
X17289500Y-10550000I-45000J0D01*
G01*
X17289500Y-10550000D02*
G75*
G02*
X17379500Y-10550000I45000J0D01*
G01*
X17629500Y-10220000D02*
G75*
G02*
X17539500Y-10220000I-45000J0D01*
G01*
X17539500Y-10220000D02*
G75*
G02*
X17629500Y-10220000I45000J0D01*
G01*
X17629500Y-10550000D02*
G75*
G02*
X17539500Y-10550000I-45000J0D01*
G01*
X17539500Y-10550000D02*
G75*
G02*
X17629500Y-10550000I45000J0D01*
G01*
X17879500Y-10220000D02*
G75*
G02*
X17789500Y-10220000I-45000J0D01*
G01*
X17789500Y-10220000D02*
G75*
G02*
X17879500Y-10220000I45000J0D01*
G01*
X17879500Y-10550000D02*
G75*
G02*
X17789500Y-10550000I-45000J0D01*
G01*
X17789500Y-10550000D02*
G75*
G02*
X17879500Y-10550000I45000J0D01*
G01*
X15896100Y-8646950D02*
X15896100Y-8746950D01*
X15846100Y-8696950D02*
X15946100Y-8696950D01*
X15896100Y-8900950D02*
X15896100Y-9000950D01*
X15846100Y-8950950D02*
X15946100Y-8950950D01*
X15896100Y-9154950D02*
X15896100Y-9254950D01*
X15846100Y-9204950D02*
X15946100Y-9204950D01*
X16149600Y-9539850D02*
X16149600Y-9639850D01*
X16099600Y-9589850D02*
X16199600Y-9589850D01*
X16149600Y-9793850D02*
X16149600Y-9893850D01*
X16099600Y-9843850D02*
X16199600Y-9843850D01*
X16149600Y-10047850D02*
X16149600Y-10147850D01*
X16099600Y-10097850D02*
X16199600Y-10097850D01*
X16150100Y-8646950D02*
X16150100Y-8746950D01*
X16100100Y-8696950D02*
X16200100Y-8696950D01*
X16150100Y-8900950D02*
X16150100Y-9000950D01*
X16100100Y-8950950D02*
X16200100Y-8950950D01*
X16150100Y-9154950D02*
X16150100Y-9254950D01*
X16100100Y-9204950D02*
X16200100Y-9204950D01*
X16560800Y-11176800D02*
X16560800Y-11276800D01*
X16510800Y-11226800D02*
X16610800Y-11226800D01*
X16586200Y-8636800D02*
X16586200Y-8736800D01*
X16536200Y-8686800D02*
X16636200Y-8686800D01*
X16586200Y-8890800D02*
X16586200Y-8990800D01*
X16536200Y-8940800D02*
X16636200Y-8940800D01*
X16586200Y-9144800D02*
X16586200Y-9244800D01*
X16536200Y-9194800D02*
X16636200Y-9194800D01*
X16586200Y-9398800D02*
X16586200Y-9498800D01*
X16536200Y-9448800D02*
X16636200Y-9448800D01*
X16586200Y-9652800D02*
X16586200Y-9752800D01*
X16536200Y-9702800D02*
X16636200Y-9702800D01*
X16586200Y-9906800D02*
X16586200Y-10006800D01*
X16536200Y-9956800D02*
X16636200Y-9956800D01*
X16586200Y-10160800D02*
X16586200Y-10260800D01*
X16536200Y-10210800D02*
X16636200Y-10210800D01*
X16586200Y-10414800D02*
X16586200Y-10514800D01*
X16536200Y-10464800D02*
X16636200Y-10464800D01*
X16586200Y-10668800D02*
X16586200Y-10768800D01*
X16536200Y-10718800D02*
X16636200Y-10718800D01*
X16814800Y-11176800D02*
X16814800Y-11276800D01*
X16764800Y-11226800D02*
X16864800Y-11226800D01*
X16840200Y-8636800D02*
X16840200Y-8736800D01*
X16790200Y-8686800D02*
X16890200Y-8686800D01*
X16840200Y-8890800D02*
X16840200Y-8990800D01*
X16790200Y-8940800D02*
X16890200Y-8940800D01*
X16840200Y-9144800D02*
X16840200Y-9244800D01*
X16790200Y-9194800D02*
X16890200Y-9194800D01*
X16840200Y-9398800D02*
X16840200Y-9498800D01*
X16790200Y-9448800D02*
X16890200Y-9448800D01*
X16840200Y-9652800D02*
X16840200Y-9752800D01*
X16790200Y-9702800D02*
X16890200Y-9702800D01*
X16840200Y-9906800D02*
X16840200Y-10006800D01*
X16790200Y-9956800D02*
X16890200Y-9956800D01*
X16840200Y-10160800D02*
X16840200Y-10260800D01*
X16790200Y-10210800D02*
X16890200Y-10210800D01*
X16840200Y-10414800D02*
X16840200Y-10514800D01*
X16790200Y-10464800D02*
X16890200Y-10464800D01*
X16840200Y-10668800D02*
X16840200Y-10768800D01*
X16790200Y-10718800D02*
X16890200Y-10718800D01*
X17068800Y-11176800D02*
X17068800Y-11276800D01*
X17018800Y-11226800D02*
X17118800Y-11226800D01*
X17322800Y-11176800D02*
X17322800Y-11276800D01*
X17272800Y-11226800D02*
X17372800Y-11226800D01*
X17576800Y-11176800D02*
X17576800Y-11276800D01*
X17526800Y-11226800D02*
X17626800Y-11226800D01*
X17830800Y-11176800D02*
X17830800Y-11276800D01*
X17780800Y-11226800D02*
X17880800Y-11226800D01*
X19202400Y-8636800D02*
X19202400Y-8736800D01*
X19152400Y-8686800D02*
X19252400Y-8686800D01*
X19202400Y-8890800D02*
X19202400Y-8990800D01*
X19152400Y-8940800D02*
X19252400Y-8940800D01*
X19202400Y-9144800D02*
X19202400Y-9244800D01*
X19152400Y-9194800D02*
X19252400Y-9194800D01*
X19202400Y-9398800D02*
X19202400Y-9498800D01*
X19152400Y-9448800D02*
X19252400Y-9448800D01*
X19202400Y-9652800D02*
X19202400Y-9752800D01*
X19152400Y-9702800D02*
X19252400Y-9702800D01*
X19202400Y-9906800D02*
X19202400Y-10006800D01*
X19152400Y-9956800D02*
X19252400Y-9956800D01*
X19202400Y-10160800D02*
X19202400Y-10260800D01*
X19152400Y-10210800D02*
X19252400Y-10210800D01*
X19202400Y-10414800D02*
X19202400Y-10514800D01*
X19152400Y-10464800D02*
X19252400Y-10464800D01*
X19202400Y-10668800D02*
X19202400Y-10768800D01*
X19152400Y-10718800D02*
X19252400Y-10718800D01*
X19456400Y-8636800D02*
X19456400Y-8736800D01*
X19406400Y-8686800D02*
X19506400Y-8686800D01*
X19456400Y-8890800D02*
X19456400Y-8990800D01*
X19406400Y-8940800D02*
X19506400Y-8940800D01*
X19456400Y-9144800D02*
X19456400Y-9244800D01*
X19406400Y-9194800D02*
X19506400Y-9194800D01*
X19456400Y-9398800D02*
X19456400Y-9498800D01*
X19406400Y-9448800D02*
X19506400Y-9448800D01*
X19456400Y-9652800D02*
X19456400Y-9752800D01*
X19406400Y-9702800D02*
X19506400Y-9702800D01*
X19456400Y-9906800D02*
X19456400Y-10006800D01*
X19406400Y-9956800D02*
X19506400Y-9956800D01*
X19456400Y-10160800D02*
X19456400Y-10260800D01*
X19406400Y-10210800D02*
X19506400Y-10210800D01*
X19456400Y-10414800D02*
X19456400Y-10514800D01*
X19406400Y-10464800D02*
X19506400Y-10464800D01*
X19456400Y-10668800D02*
X19456400Y-10768800D01*
X19406400Y-10718800D02*
X19506400Y-10718800D01*
X19472500Y-6877500D02*
X19472500Y-6977500D01*
X19422500Y-6927500D02*
X19522500Y-6927500D01*
X19472500Y-7131500D02*
X19472500Y-7231500D01*
X19422500Y-7181500D02*
X19522500Y-7181500D01*
X19472500Y-7385500D02*
X19472500Y-7485500D01*
X19422500Y-7435500D02*
X19522500Y-7435500D01*
D11*
X13618677Y-11794784D02*
X13618677Y-11594784D01*
X13618677Y-11594784D02*
X13666296Y-11594784D01*
X13666296Y-11594784D02*
X13694867Y-11604308D01*
X13694867Y-11604308D02*
X13713915Y-11623355D01*
X13713915Y-11623355D02*
X13723439Y-11642403D01*
X13723439Y-11642403D02*
X13732962Y-11680498D01*
X13732962Y-11680498D02*
X13732962Y-11709069D01*
X13732962Y-11709069D02*
X13723439Y-11747165D01*
X13723439Y-11747165D02*
X13713915Y-11766212D01*
X13713915Y-11766212D02*
X13694867Y-11785260D01*
X13694867Y-11785260D02*
X13666296Y-11794784D01*
X13666296Y-11794784D02*
X13618677Y-11794784D01*
X13818677Y-11794784D02*
X13818677Y-11661450D01*
X13818677Y-11699546D02*
X13828201Y-11680498D01*
X13828201Y-11680498D02*
X13837724Y-11670974D01*
X13837724Y-11670974D02*
X13856772Y-11661450D01*
X13856772Y-11661450D02*
X13875820Y-11661450D01*
X13942486Y-11794784D02*
X13942486Y-11661450D01*
X13942486Y-11594784D02*
X13932962Y-11604308D01*
X13932962Y-11604308D02*
X13942486Y-11613831D01*
X13942486Y-11613831D02*
X13952010Y-11604308D01*
X13952010Y-11604308D02*
X13942486Y-11594784D01*
X13942486Y-11594784D02*
X13942486Y-11613831D01*
X14066296Y-11794784D02*
X14047248Y-11785260D01*
X14047248Y-11785260D02*
X14037724Y-11766212D01*
X14037724Y-11766212D02*
X14037724Y-11594784D01*
X14171058Y-11794784D02*
X14152010Y-11785260D01*
X14152010Y-11785260D02*
X14142486Y-11766212D01*
X14142486Y-11766212D02*
X14142486Y-11594784D01*
X14399629Y-11794784D02*
X14399629Y-11594784D01*
X14399629Y-11594784D02*
X14466296Y-11737641D01*
X14466296Y-11737641D02*
X14532962Y-11594784D01*
X14532962Y-11594784D02*
X14532962Y-11794784D01*
X14713915Y-11794784D02*
X14713915Y-11690022D01*
X14713915Y-11690022D02*
X14704391Y-11670974D01*
X14704391Y-11670974D02*
X14685343Y-11661450D01*
X14685343Y-11661450D02*
X14647248Y-11661450D01*
X14647248Y-11661450D02*
X14628201Y-11670974D01*
X14713915Y-11785260D02*
X14694867Y-11794784D01*
X14694867Y-11794784D02*
X14647248Y-11794784D01*
X14647248Y-11794784D02*
X14628201Y-11785260D01*
X14628201Y-11785260D02*
X14618677Y-11766212D01*
X14618677Y-11766212D02*
X14618677Y-11747165D01*
X14618677Y-11747165D02*
X14628201Y-11728117D01*
X14628201Y-11728117D02*
X14647248Y-11718593D01*
X14647248Y-11718593D02*
X14694867Y-11718593D01*
X14694867Y-11718593D02*
X14713915Y-11709069D01*
X14809153Y-11661450D02*
X14809153Y-11861450D01*
X14809153Y-11670974D02*
X14828201Y-11661450D01*
X14828201Y-11661450D02*
X14866296Y-11661450D01*
X14866296Y-11661450D02*
X14885343Y-11670974D01*
X14885343Y-11670974D02*
X14894867Y-11680498D01*
X14894867Y-11680498D02*
X14904391Y-11699546D01*
X14904391Y-11699546D02*
X14904391Y-11756688D01*
X14904391Y-11756688D02*
X14894867Y-11775736D01*
X14894867Y-11775736D02*
X14885343Y-11785260D01*
X14885343Y-11785260D02*
X14866296Y-11794784D01*
X14866296Y-11794784D02*
X14828201Y-11794784D01*
X14828201Y-11794784D02*
X14809153Y-11785260D01*
X14990105Y-11775736D02*
X14999629Y-11785260D01*
X14999629Y-11785260D02*
X14990105Y-11794784D01*
X14990105Y-11794784D02*
X14980582Y-11785260D01*
X14980582Y-11785260D02*
X14990105Y-11775736D01*
X14990105Y-11775736D02*
X14990105Y-11794784D01*
X14990105Y-11670974D02*
X14999629Y-11680498D01*
X14999629Y-11680498D02*
X14990105Y-11690022D01*
X14990105Y-11690022D02*
X14980582Y-11680498D01*
X14980582Y-11680498D02*
X14990105Y-11670974D01*
X14990105Y-11670974D02*
X14990105Y-11690022D01*
D12*
X13327900Y-12108300D02*
X13357900Y-12138300D01*
X13357900Y-12108300D02*
X13327900Y-12138300D01*
D11*
X13656772Y-12014784D02*
X13675820Y-12014784D01*
X13675820Y-12014784D02*
X13694867Y-12024308D01*
X13694867Y-12024308D02*
X13704391Y-12033831D01*
X13704391Y-12033831D02*
X13713915Y-12052879D01*
X13713915Y-12052879D02*
X13723439Y-12090974D01*
X13723439Y-12090974D02*
X13723439Y-12138593D01*
X13723439Y-12138593D02*
X13713915Y-12176688D01*
X13713915Y-12176688D02*
X13704391Y-12195736D01*
X13704391Y-12195736D02*
X13694867Y-12205260D01*
X13694867Y-12205260D02*
X13675820Y-12214784D01*
X13675820Y-12214784D02*
X13656772Y-12214784D01*
X13656772Y-12214784D02*
X13637724Y-12205260D01*
X13637724Y-12205260D02*
X13628201Y-12195736D01*
X13628201Y-12195736D02*
X13618677Y-12176688D01*
X13618677Y-12176688D02*
X13609153Y-12138593D01*
X13609153Y-12138593D02*
X13609153Y-12090974D01*
X13609153Y-12090974D02*
X13618677Y-12052879D01*
X13618677Y-12052879D02*
X13628201Y-12033831D01*
X13628201Y-12033831D02*
X13637724Y-12024308D01*
X13637724Y-12024308D02*
X13656772Y-12014784D01*
X13809153Y-12195736D02*
X13818677Y-12205260D01*
X13818677Y-12205260D02*
X13809153Y-12214784D01*
X13809153Y-12214784D02*
X13799629Y-12205260D01*
X13799629Y-12205260D02*
X13809153Y-12195736D01*
X13809153Y-12195736D02*
X13809153Y-12214784D01*
X13885343Y-12014784D02*
X14009153Y-12014784D01*
X14009153Y-12014784D02*
X13942486Y-12090974D01*
X13942486Y-12090974D02*
X13971058Y-12090974D01*
X13971058Y-12090974D02*
X13990105Y-12100498D01*
X13990105Y-12100498D02*
X13999629Y-12110022D01*
X13999629Y-12110022D02*
X14009153Y-12129069D01*
X14009153Y-12129069D02*
X14009153Y-12176688D01*
X14009153Y-12176688D02*
X13999629Y-12195736D01*
X13999629Y-12195736D02*
X13990105Y-12205260D01*
X13990105Y-12205260D02*
X13971058Y-12214784D01*
X13971058Y-12214784D02*
X13913915Y-12214784D01*
X13913915Y-12214784D02*
X13894867Y-12205260D01*
X13894867Y-12205260D02*
X13885343Y-12195736D01*
X14132962Y-12014784D02*
X14152010Y-12014784D01*
X14152010Y-12014784D02*
X14171058Y-12024308D01*
X14171058Y-12024308D02*
X14180582Y-12033831D01*
X14180582Y-12033831D02*
X14190105Y-12052879D01*
X14190105Y-12052879D02*
X14199629Y-12090974D01*
X14199629Y-12090974D02*
X14199629Y-12138593D01*
X14199629Y-12138593D02*
X14190105Y-12176688D01*
X14190105Y-12176688D02*
X14180582Y-12195736D01*
X14180582Y-12195736D02*
X14171058Y-12205260D01*
X14171058Y-12205260D02*
X14152010Y-12214784D01*
X14152010Y-12214784D02*
X14132962Y-12214784D01*
X14132962Y-12214784D02*
X14113915Y-12205260D01*
X14113915Y-12205260D02*
X14104391Y-12195736D01*
X14104391Y-12195736D02*
X14094867Y-12176688D01*
X14094867Y-12176688D02*
X14085343Y-12138593D01*
X14085343Y-12138593D02*
X14085343Y-12090974D01*
X14085343Y-12090974D02*
X14094867Y-12052879D01*
X14094867Y-12052879D02*
X14104391Y-12033831D01*
X14104391Y-12033831D02*
X14113915Y-12024308D01*
X14113915Y-12024308D02*
X14132962Y-12014784D01*
X14323439Y-12014784D02*
X14342486Y-12014784D01*
X14342486Y-12014784D02*
X14361534Y-12024308D01*
X14361534Y-12024308D02*
X14371058Y-12033831D01*
X14371058Y-12033831D02*
X14380582Y-12052879D01*
X14380582Y-12052879D02*
X14390105Y-12090974D01*
X14390105Y-12090974D02*
X14390105Y-12138593D01*
X14390105Y-12138593D02*
X14380582Y-12176688D01*
X14380582Y-12176688D02*
X14371058Y-12195736D01*
X14371058Y-12195736D02*
X14361534Y-12205260D01*
X14361534Y-12205260D02*
X14342486Y-12214784D01*
X14342486Y-12214784D02*
X14323439Y-12214784D01*
X14323439Y-12214784D02*
X14304391Y-12205260D01*
X14304391Y-12205260D02*
X14294867Y-12195736D01*
X14294867Y-12195736D02*
X14285343Y-12176688D01*
X14285343Y-12176688D02*
X14275820Y-12138593D01*
X14275820Y-12138593D02*
X14275820Y-12090974D01*
X14275820Y-12090974D02*
X14285343Y-12052879D01*
X14285343Y-12052879D02*
X14294867Y-12033831D01*
X14294867Y-12033831D02*
X14304391Y-12024308D01*
X14304391Y-12024308D02*
X14323439Y-12014784D01*
X14475820Y-12214784D02*
X14475820Y-12081450D01*
X14475820Y-12100498D02*
X14485343Y-12090974D01*
X14485343Y-12090974D02*
X14504391Y-12081450D01*
X14504391Y-12081450D02*
X14532963Y-12081450D01*
X14532963Y-12081450D02*
X14552010Y-12090974D01*
X14552010Y-12090974D02*
X14561534Y-12110022D01*
X14561534Y-12110022D02*
X14561534Y-12214784D01*
X14561534Y-12110022D02*
X14571058Y-12090974D01*
X14571058Y-12090974D02*
X14590105Y-12081450D01*
X14590105Y-12081450D02*
X14618677Y-12081450D01*
X14618677Y-12081450D02*
X14637724Y-12090974D01*
X14637724Y-12090974D02*
X14647248Y-12110022D01*
X14647248Y-12110022D02*
X14647248Y-12214784D01*
X14742486Y-12214784D02*
X14742486Y-12081450D01*
X14742486Y-12100498D02*
X14752010Y-12090974D01*
X14752010Y-12090974D02*
X14771058Y-12081450D01*
X14771058Y-12081450D02*
X14799629Y-12081450D01*
X14799629Y-12081450D02*
X14818677Y-12090974D01*
X14818677Y-12090974D02*
X14828201Y-12110022D01*
X14828201Y-12110022D02*
X14828201Y-12214784D01*
X14828201Y-12110022D02*
X14837724Y-12090974D01*
X14837724Y-12090974D02*
X14856772Y-12081450D01*
X14856772Y-12081450D02*
X14885343Y-12081450D01*
X14885343Y-12081450D02*
X14904391Y-12090974D01*
X14904391Y-12090974D02*
X14913915Y-12110022D01*
X14913915Y-12110022D02*
X14913915Y-12214784D01*
X15304391Y-12005260D02*
X15132963Y-12262403D01*
X15561534Y-12014784D02*
X15580582Y-12014784D01*
X15580582Y-12014784D02*
X15599629Y-12024308D01*
X15599629Y-12024308D02*
X15609153Y-12033831D01*
X15609153Y-12033831D02*
X15618677Y-12052879D01*
X15618677Y-12052879D02*
X15628201Y-12090974D01*
X15628201Y-12090974D02*
X15628201Y-12138593D01*
X15628201Y-12138593D02*
X15618677Y-12176688D01*
X15618677Y-12176688D02*
X15609153Y-12195736D01*
X15609153Y-12195736D02*
X15599629Y-12205260D01*
X15599629Y-12205260D02*
X15580582Y-12214784D01*
X15580582Y-12214784D02*
X15561534Y-12214784D01*
X15561534Y-12214784D02*
X15542486Y-12205260D01*
X15542486Y-12205260D02*
X15532963Y-12195736D01*
X15532963Y-12195736D02*
X15523439Y-12176688D01*
X15523439Y-12176688D02*
X15513915Y-12138593D01*
X15513915Y-12138593D02*
X15513915Y-12090974D01*
X15513915Y-12090974D02*
X15523439Y-12052879D01*
X15523439Y-12052879D02*
X15532963Y-12033831D01*
X15532963Y-12033831D02*
X15542486Y-12024308D01*
X15542486Y-12024308D02*
X15561534Y-12014784D01*
X15713915Y-12195736D02*
X15723439Y-12205260D01*
X15723439Y-12205260D02*
X15713915Y-12214784D01*
X15713915Y-12214784D02*
X15704391Y-12205260D01*
X15704391Y-12205260D02*
X15713915Y-12195736D01*
X15713915Y-12195736D02*
X15713915Y-12214784D01*
X15847248Y-12014784D02*
X15866296Y-12014784D01*
X15866296Y-12014784D02*
X15885344Y-12024308D01*
X15885344Y-12024308D02*
X15894867Y-12033831D01*
X15894867Y-12033831D02*
X15904391Y-12052879D01*
X15904391Y-12052879D02*
X15913915Y-12090974D01*
X15913915Y-12090974D02*
X15913915Y-12138593D01*
X15913915Y-12138593D02*
X15904391Y-12176688D01*
X15904391Y-12176688D02*
X15894867Y-12195736D01*
X15894867Y-12195736D02*
X15885344Y-12205260D01*
X15885344Y-12205260D02*
X15866296Y-12214784D01*
X15866296Y-12214784D02*
X15847248Y-12214784D01*
X15847248Y-12214784D02*
X15828201Y-12205260D01*
X15828201Y-12205260D02*
X15818677Y-12195736D01*
X15818677Y-12195736D02*
X15809153Y-12176688D01*
X15809153Y-12176688D02*
X15799629Y-12138593D01*
X15799629Y-12138593D02*
X15799629Y-12090974D01*
X15799629Y-12090974D02*
X15809153Y-12052879D01*
X15809153Y-12052879D02*
X15818677Y-12033831D01*
X15818677Y-12033831D02*
X15828201Y-12024308D01*
X15828201Y-12024308D02*
X15847248Y-12014784D01*
X16104391Y-12214784D02*
X15990106Y-12214784D01*
X16047248Y-12214784D02*
X16047248Y-12014784D01*
X16047248Y-12014784D02*
X16028201Y-12043355D01*
X16028201Y-12043355D02*
X16009153Y-12062403D01*
X16009153Y-12062403D02*
X15990106Y-12071927D01*
X16294867Y-12214784D02*
X16180582Y-12214784D01*
X16237725Y-12214784D02*
X16237725Y-12014784D01*
X16237725Y-12014784D02*
X16218677Y-12043355D01*
X16218677Y-12043355D02*
X16199629Y-12062403D01*
X16199629Y-12062403D02*
X16180582Y-12071927D01*
X16409153Y-12100498D02*
X16390106Y-12090974D01*
X16390106Y-12090974D02*
X16380582Y-12081450D01*
X16380582Y-12081450D02*
X16371058Y-12062403D01*
X16371058Y-12062403D02*
X16371058Y-12052879D01*
X16371058Y-12052879D02*
X16380582Y-12033831D01*
X16380582Y-12033831D02*
X16390106Y-12024308D01*
X16390106Y-12024308D02*
X16409153Y-12014784D01*
X16409153Y-12014784D02*
X16447248Y-12014784D01*
X16447248Y-12014784D02*
X16466296Y-12024308D01*
X16466296Y-12024308D02*
X16475820Y-12033831D01*
X16475820Y-12033831D02*
X16485344Y-12052879D01*
X16485344Y-12052879D02*
X16485344Y-12062403D01*
X16485344Y-12062403D02*
X16475820Y-12081450D01*
X16475820Y-12081450D02*
X16466296Y-12090974D01*
X16466296Y-12090974D02*
X16447248Y-12100498D01*
X16447248Y-12100498D02*
X16409153Y-12100498D01*
X16409153Y-12100498D02*
X16390106Y-12110022D01*
X16390106Y-12110022D02*
X16380582Y-12119546D01*
X16380582Y-12119546D02*
X16371058Y-12138593D01*
X16371058Y-12138593D02*
X16371058Y-12176688D01*
X16371058Y-12176688D02*
X16380582Y-12195736D01*
X16380582Y-12195736D02*
X16390106Y-12205260D01*
X16390106Y-12205260D02*
X16409153Y-12214784D01*
X16409153Y-12214784D02*
X16447248Y-12214784D01*
X16447248Y-12214784D02*
X16466296Y-12205260D01*
X16466296Y-12205260D02*
X16475820Y-12195736D01*
X16475820Y-12195736D02*
X16485344Y-12176688D01*
X16485344Y-12176688D02*
X16485344Y-12138593D01*
X16485344Y-12138593D02*
X16475820Y-12119546D01*
X16475820Y-12119546D02*
X16466296Y-12110022D01*
X16466296Y-12110022D02*
X16447248Y-12100498D01*
X16561534Y-12014784D02*
X16561534Y-12052879D01*
X16637725Y-12014784D02*
X16637725Y-12052879D01*
X16932963Y-12290974D02*
X16923439Y-12281450D01*
X16923439Y-12281450D02*
X16904391Y-12252879D01*
X16904391Y-12252879D02*
X16894868Y-12233831D01*
X16894868Y-12233831D02*
X16885344Y-12205260D01*
X16885344Y-12205260D02*
X16875820Y-12157641D01*
X16875820Y-12157641D02*
X16875820Y-12119546D01*
X16875820Y-12119546D02*
X16885344Y-12071927D01*
X16885344Y-12071927D02*
X16894868Y-12043355D01*
X16894868Y-12043355D02*
X16904391Y-12024308D01*
X16904391Y-12024308D02*
X16923439Y-11995736D01*
X16923439Y-11995736D02*
X16932963Y-11986212D01*
X17104391Y-12014784D02*
X17009153Y-12014784D01*
X17009153Y-12014784D02*
X16999630Y-12110022D01*
X16999630Y-12110022D02*
X17009153Y-12100498D01*
X17009153Y-12100498D02*
X17028201Y-12090974D01*
X17028201Y-12090974D02*
X17075820Y-12090974D01*
X17075820Y-12090974D02*
X17094868Y-12100498D01*
X17094868Y-12100498D02*
X17104391Y-12110022D01*
X17104391Y-12110022D02*
X17113915Y-12129069D01*
X17113915Y-12129069D02*
X17113915Y-12176688D01*
X17113915Y-12176688D02*
X17104391Y-12195736D01*
X17104391Y-12195736D02*
X17094868Y-12205260D01*
X17094868Y-12205260D02*
X17075820Y-12214784D01*
X17075820Y-12214784D02*
X17028201Y-12214784D01*
X17028201Y-12214784D02*
X17009153Y-12205260D01*
X17009153Y-12205260D02*
X16999630Y-12195736D01*
X17180582Y-12014784D02*
X17304391Y-12014784D01*
X17304391Y-12014784D02*
X17237725Y-12090974D01*
X17237725Y-12090974D02*
X17266296Y-12090974D01*
X17266296Y-12090974D02*
X17285344Y-12100498D01*
X17285344Y-12100498D02*
X17294868Y-12110022D01*
X17294868Y-12110022D02*
X17304391Y-12129069D01*
X17304391Y-12129069D02*
X17304391Y-12176688D01*
X17304391Y-12176688D02*
X17294868Y-12195736D01*
X17294868Y-12195736D02*
X17285344Y-12205260D01*
X17285344Y-12205260D02*
X17266296Y-12214784D01*
X17266296Y-12214784D02*
X17209153Y-12214784D01*
X17209153Y-12214784D02*
X17190106Y-12205260D01*
X17190106Y-12205260D02*
X17180582Y-12195736D01*
X17542487Y-12214784D02*
X17542487Y-12014784D01*
X17628201Y-12214784D02*
X17628201Y-12110022D01*
X17628201Y-12110022D02*
X17618677Y-12090974D01*
X17618677Y-12090974D02*
X17599630Y-12081450D01*
X17599630Y-12081450D02*
X17571058Y-12081450D01*
X17571058Y-12081450D02*
X17552011Y-12090974D01*
X17552011Y-12090974D02*
X17542487Y-12100498D01*
X17752011Y-12214784D02*
X17732963Y-12205260D01*
X17732963Y-12205260D02*
X17723439Y-12195736D01*
X17723439Y-12195736D02*
X17713915Y-12176688D01*
X17713915Y-12176688D02*
X17713915Y-12119546D01*
X17713915Y-12119546D02*
X17723439Y-12100498D01*
X17723439Y-12100498D02*
X17732963Y-12090974D01*
X17732963Y-12090974D02*
X17752011Y-12081450D01*
X17752011Y-12081450D02*
X17780582Y-12081450D01*
X17780582Y-12081450D02*
X17799630Y-12090974D01*
X17799630Y-12090974D02*
X17809153Y-12100498D01*
X17809153Y-12100498D02*
X17818677Y-12119546D01*
X17818677Y-12119546D02*
X17818677Y-12176688D01*
X17818677Y-12176688D02*
X17809153Y-12195736D01*
X17809153Y-12195736D02*
X17799630Y-12205260D01*
X17799630Y-12205260D02*
X17780582Y-12214784D01*
X17780582Y-12214784D02*
X17752011Y-12214784D01*
X17932963Y-12214784D02*
X17913915Y-12205260D01*
X17913915Y-12205260D02*
X17904392Y-12186212D01*
X17904392Y-12186212D02*
X17904392Y-12014784D01*
X18085344Y-12205260D02*
X18066296Y-12214784D01*
X18066296Y-12214784D02*
X18028201Y-12214784D01*
X18028201Y-12214784D02*
X18009153Y-12205260D01*
X18009153Y-12205260D02*
X17999630Y-12186212D01*
X17999630Y-12186212D02*
X17999630Y-12110022D01*
X17999630Y-12110022D02*
X18009153Y-12090974D01*
X18009153Y-12090974D02*
X18028201Y-12081450D01*
X18028201Y-12081450D02*
X18066296Y-12081450D01*
X18066296Y-12081450D02*
X18085344Y-12090974D01*
X18085344Y-12090974D02*
X18094868Y-12110022D01*
X18094868Y-12110022D02*
X18094868Y-12129069D01*
X18094868Y-12129069D02*
X17999630Y-12148117D01*
X18171058Y-12205260D02*
X18190106Y-12214784D01*
X18190106Y-12214784D02*
X18228201Y-12214784D01*
X18228201Y-12214784D02*
X18247249Y-12205260D01*
X18247249Y-12205260D02*
X18256773Y-12186212D01*
X18256773Y-12186212D02*
X18256773Y-12176688D01*
X18256773Y-12176688D02*
X18247249Y-12157641D01*
X18247249Y-12157641D02*
X18228201Y-12148117D01*
X18228201Y-12148117D02*
X18199630Y-12148117D01*
X18199630Y-12148117D02*
X18180582Y-12138593D01*
X18180582Y-12138593D02*
X18171058Y-12119546D01*
X18171058Y-12119546D02*
X18171058Y-12110022D01*
X18171058Y-12110022D02*
X18180582Y-12090974D01*
X18180582Y-12090974D02*
X18199630Y-12081450D01*
X18199630Y-12081450D02*
X18228201Y-12081450D01*
X18228201Y-12081450D02*
X18247249Y-12090974D01*
X18323439Y-12290974D02*
X18332963Y-12281450D01*
X18332963Y-12281450D02*
X18352011Y-12252879D01*
X18352011Y-12252879D02*
X18361534Y-12233831D01*
X18361534Y-12233831D02*
X18371058Y-12205260D01*
X18371058Y-12205260D02*
X18380582Y-12157641D01*
X18380582Y-12157641D02*
X18380582Y-12119546D01*
X18380582Y-12119546D02*
X18371058Y-12071927D01*
X18371058Y-12071927D02*
X18361534Y-12043355D01*
X18361534Y-12043355D02*
X18352011Y-12024308D01*
X18352011Y-12024308D02*
X18332963Y-11995736D01*
X18332963Y-11995736D02*
X18323439Y-11986212D01*
D12*
X13357900Y-12387300D02*
G75*
G02*
X13267900Y-12387300I-45000J0D01*
G01*
X13267900Y-12387300D02*
G75*
G02*
X13357900Y-12387300I45000J0D01*
G01*
D11*
X13656772Y-12278784D02*
X13675820Y-12278784D01*
X13675820Y-12278784D02*
X13694867Y-12288308D01*
X13694867Y-12288308D02*
X13704391Y-12297831D01*
X13704391Y-12297831D02*
X13713915Y-12316879D01*
X13713915Y-12316879D02*
X13723439Y-12354974D01*
X13723439Y-12354974D02*
X13723439Y-12402593D01*
X13723439Y-12402593D02*
X13713915Y-12440688D01*
X13713915Y-12440688D02*
X13704391Y-12459736D01*
X13704391Y-12459736D02*
X13694867Y-12469260D01*
X13694867Y-12469260D02*
X13675820Y-12478784D01*
X13675820Y-12478784D02*
X13656772Y-12478784D01*
X13656772Y-12478784D02*
X13637724Y-12469260D01*
X13637724Y-12469260D02*
X13628201Y-12459736D01*
X13628201Y-12459736D02*
X13618677Y-12440688D01*
X13618677Y-12440688D02*
X13609153Y-12402593D01*
X13609153Y-12402593D02*
X13609153Y-12354974D01*
X13609153Y-12354974D02*
X13618677Y-12316879D01*
X13618677Y-12316879D02*
X13628201Y-12297831D01*
X13628201Y-12297831D02*
X13637724Y-12288308D01*
X13637724Y-12288308D02*
X13656772Y-12278784D01*
X13809153Y-12459736D02*
X13818677Y-12469260D01*
X13818677Y-12469260D02*
X13809153Y-12478784D01*
X13809153Y-12478784D02*
X13799629Y-12469260D01*
X13799629Y-12469260D02*
X13809153Y-12459736D01*
X13809153Y-12459736D02*
X13809153Y-12478784D01*
X13913915Y-12478784D02*
X13952010Y-12478784D01*
X13952010Y-12478784D02*
X13971058Y-12469260D01*
X13971058Y-12469260D02*
X13980582Y-12459736D01*
X13980582Y-12459736D02*
X13999629Y-12431165D01*
X13999629Y-12431165D02*
X14009153Y-12393069D01*
X14009153Y-12393069D02*
X14009153Y-12316879D01*
X14009153Y-12316879D02*
X13999629Y-12297831D01*
X13999629Y-12297831D02*
X13990105Y-12288308D01*
X13990105Y-12288308D02*
X13971058Y-12278784D01*
X13971058Y-12278784D02*
X13932962Y-12278784D01*
X13932962Y-12278784D02*
X13913915Y-12288308D01*
X13913915Y-12288308D02*
X13904391Y-12297831D01*
X13904391Y-12297831D02*
X13894867Y-12316879D01*
X13894867Y-12316879D02*
X13894867Y-12364498D01*
X13894867Y-12364498D02*
X13904391Y-12383546D01*
X13904391Y-12383546D02*
X13913915Y-12393069D01*
X13913915Y-12393069D02*
X13932962Y-12402593D01*
X13932962Y-12402593D02*
X13971058Y-12402593D01*
X13971058Y-12402593D02*
X13990105Y-12393069D01*
X13990105Y-12393069D02*
X13999629Y-12383546D01*
X13999629Y-12383546D02*
X14009153Y-12364498D01*
X14132962Y-12278784D02*
X14152010Y-12278784D01*
X14152010Y-12278784D02*
X14171058Y-12288308D01*
X14171058Y-12288308D02*
X14180582Y-12297831D01*
X14180582Y-12297831D02*
X14190105Y-12316879D01*
X14190105Y-12316879D02*
X14199629Y-12354974D01*
X14199629Y-12354974D02*
X14199629Y-12402593D01*
X14199629Y-12402593D02*
X14190105Y-12440688D01*
X14190105Y-12440688D02*
X14180582Y-12459736D01*
X14180582Y-12459736D02*
X14171058Y-12469260D01*
X14171058Y-12469260D02*
X14152010Y-12478784D01*
X14152010Y-12478784D02*
X14132962Y-12478784D01*
X14132962Y-12478784D02*
X14113915Y-12469260D01*
X14113915Y-12469260D02*
X14104391Y-12459736D01*
X14104391Y-12459736D02*
X14094867Y-12440688D01*
X14094867Y-12440688D02*
X14085343Y-12402593D01*
X14085343Y-12402593D02*
X14085343Y-12354974D01*
X14085343Y-12354974D02*
X14094867Y-12316879D01*
X14094867Y-12316879D02*
X14104391Y-12297831D01*
X14104391Y-12297831D02*
X14113915Y-12288308D01*
X14113915Y-12288308D02*
X14132962Y-12278784D01*
X14323439Y-12278784D02*
X14342486Y-12278784D01*
X14342486Y-12278784D02*
X14361534Y-12288308D01*
X14361534Y-12288308D02*
X14371058Y-12297831D01*
X14371058Y-12297831D02*
X14380582Y-12316879D01*
X14380582Y-12316879D02*
X14390105Y-12354974D01*
X14390105Y-12354974D02*
X14390105Y-12402593D01*
X14390105Y-12402593D02*
X14380582Y-12440688D01*
X14380582Y-12440688D02*
X14371058Y-12459736D01*
X14371058Y-12459736D02*
X14361534Y-12469260D01*
X14361534Y-12469260D02*
X14342486Y-12478784D01*
X14342486Y-12478784D02*
X14323439Y-12478784D01*
X14323439Y-12478784D02*
X14304391Y-12469260D01*
X14304391Y-12469260D02*
X14294867Y-12459736D01*
X14294867Y-12459736D02*
X14285343Y-12440688D01*
X14285343Y-12440688D02*
X14275820Y-12402593D01*
X14275820Y-12402593D02*
X14275820Y-12354974D01*
X14275820Y-12354974D02*
X14285343Y-12316879D01*
X14285343Y-12316879D02*
X14294867Y-12297831D01*
X14294867Y-12297831D02*
X14304391Y-12288308D01*
X14304391Y-12288308D02*
X14323439Y-12278784D01*
X14475820Y-12478784D02*
X14475820Y-12345450D01*
X14475820Y-12364498D02*
X14485343Y-12354974D01*
X14485343Y-12354974D02*
X14504391Y-12345450D01*
X14504391Y-12345450D02*
X14532963Y-12345450D01*
X14532963Y-12345450D02*
X14552010Y-12354974D01*
X14552010Y-12354974D02*
X14561534Y-12374022D01*
X14561534Y-12374022D02*
X14561534Y-12478784D01*
X14561534Y-12374022D02*
X14571058Y-12354974D01*
X14571058Y-12354974D02*
X14590105Y-12345450D01*
X14590105Y-12345450D02*
X14618677Y-12345450D01*
X14618677Y-12345450D02*
X14637724Y-12354974D01*
X14637724Y-12354974D02*
X14647248Y-12374022D01*
X14647248Y-12374022D02*
X14647248Y-12478784D01*
X14742486Y-12478784D02*
X14742486Y-12345450D01*
X14742486Y-12364498D02*
X14752010Y-12354974D01*
X14752010Y-12354974D02*
X14771058Y-12345450D01*
X14771058Y-12345450D02*
X14799629Y-12345450D01*
X14799629Y-12345450D02*
X14818677Y-12354974D01*
X14818677Y-12354974D02*
X14828201Y-12374022D01*
X14828201Y-12374022D02*
X14828201Y-12478784D01*
X14828201Y-12374022D02*
X14837724Y-12354974D01*
X14837724Y-12354974D02*
X14856772Y-12345450D01*
X14856772Y-12345450D02*
X14885343Y-12345450D01*
X14885343Y-12345450D02*
X14904391Y-12354974D01*
X14904391Y-12354974D02*
X14913915Y-12374022D01*
X14913915Y-12374022D02*
X14913915Y-12478784D01*
X15304391Y-12269260D02*
X15132963Y-12526403D01*
X15561534Y-12278784D02*
X15580582Y-12278784D01*
X15580582Y-12278784D02*
X15599629Y-12288308D01*
X15599629Y-12288308D02*
X15609153Y-12297831D01*
X15609153Y-12297831D02*
X15618677Y-12316879D01*
X15618677Y-12316879D02*
X15628201Y-12354974D01*
X15628201Y-12354974D02*
X15628201Y-12402593D01*
X15628201Y-12402593D02*
X15618677Y-12440688D01*
X15618677Y-12440688D02*
X15609153Y-12459736D01*
X15609153Y-12459736D02*
X15599629Y-12469260D01*
X15599629Y-12469260D02*
X15580582Y-12478784D01*
X15580582Y-12478784D02*
X15561534Y-12478784D01*
X15561534Y-12478784D02*
X15542486Y-12469260D01*
X15542486Y-12469260D02*
X15532963Y-12459736D01*
X15532963Y-12459736D02*
X15523439Y-12440688D01*
X15523439Y-12440688D02*
X15513915Y-12402593D01*
X15513915Y-12402593D02*
X15513915Y-12354974D01*
X15513915Y-12354974D02*
X15523439Y-12316879D01*
X15523439Y-12316879D02*
X15532963Y-12297831D01*
X15532963Y-12297831D02*
X15542486Y-12288308D01*
X15542486Y-12288308D02*
X15561534Y-12278784D01*
X15713915Y-12459736D02*
X15723439Y-12469260D01*
X15723439Y-12469260D02*
X15713915Y-12478784D01*
X15713915Y-12478784D02*
X15704391Y-12469260D01*
X15704391Y-12469260D02*
X15713915Y-12459736D01*
X15713915Y-12459736D02*
X15713915Y-12478784D01*
X15847248Y-12278784D02*
X15866296Y-12278784D01*
X15866296Y-12278784D02*
X15885344Y-12288308D01*
X15885344Y-12288308D02*
X15894867Y-12297831D01*
X15894867Y-12297831D02*
X15904391Y-12316879D01*
X15904391Y-12316879D02*
X15913915Y-12354974D01*
X15913915Y-12354974D02*
X15913915Y-12402593D01*
X15913915Y-12402593D02*
X15904391Y-12440688D01*
X15904391Y-12440688D02*
X15894867Y-12459736D01*
X15894867Y-12459736D02*
X15885344Y-12469260D01*
X15885344Y-12469260D02*
X15866296Y-12478784D01*
X15866296Y-12478784D02*
X15847248Y-12478784D01*
X15847248Y-12478784D02*
X15828201Y-12469260D01*
X15828201Y-12469260D02*
X15818677Y-12459736D01*
X15818677Y-12459736D02*
X15809153Y-12440688D01*
X15809153Y-12440688D02*
X15799629Y-12402593D01*
X15799629Y-12402593D02*
X15799629Y-12354974D01*
X15799629Y-12354974D02*
X15809153Y-12316879D01*
X15809153Y-12316879D02*
X15818677Y-12297831D01*
X15818677Y-12297831D02*
X15828201Y-12288308D01*
X15828201Y-12288308D02*
X15847248Y-12278784D01*
X15980582Y-12278784D02*
X16104391Y-12278784D01*
X16104391Y-12278784D02*
X16037725Y-12354974D01*
X16037725Y-12354974D02*
X16066296Y-12354974D01*
X16066296Y-12354974D02*
X16085344Y-12364498D01*
X16085344Y-12364498D02*
X16094867Y-12374022D01*
X16094867Y-12374022D02*
X16104391Y-12393069D01*
X16104391Y-12393069D02*
X16104391Y-12440688D01*
X16104391Y-12440688D02*
X16094867Y-12459736D01*
X16094867Y-12459736D02*
X16085344Y-12469260D01*
X16085344Y-12469260D02*
X16066296Y-12478784D01*
X16066296Y-12478784D02*
X16009153Y-12478784D01*
X16009153Y-12478784D02*
X15990106Y-12469260D01*
X15990106Y-12469260D02*
X15980582Y-12459736D01*
X16285344Y-12278784D02*
X16190106Y-12278784D01*
X16190106Y-12278784D02*
X16180582Y-12374022D01*
X16180582Y-12374022D02*
X16190106Y-12364498D01*
X16190106Y-12364498D02*
X16209153Y-12354974D01*
X16209153Y-12354974D02*
X16256772Y-12354974D01*
X16256772Y-12354974D02*
X16275820Y-12364498D01*
X16275820Y-12364498D02*
X16285344Y-12374022D01*
X16285344Y-12374022D02*
X16294867Y-12393069D01*
X16294867Y-12393069D02*
X16294867Y-12440688D01*
X16294867Y-12440688D02*
X16285344Y-12459736D01*
X16285344Y-12459736D02*
X16275820Y-12469260D01*
X16275820Y-12469260D02*
X16256772Y-12478784D01*
X16256772Y-12478784D02*
X16209153Y-12478784D01*
X16209153Y-12478784D02*
X16190106Y-12469260D01*
X16190106Y-12469260D02*
X16180582Y-12459736D01*
X16466296Y-12345450D02*
X16466296Y-12478784D01*
X16418677Y-12269260D02*
X16371058Y-12412117D01*
X16371058Y-12412117D02*
X16494867Y-12412117D01*
X16561534Y-12278784D02*
X16561534Y-12316879D01*
X16637725Y-12278784D02*
X16637725Y-12316879D01*
X16932963Y-12554974D02*
X16923439Y-12545450D01*
X16923439Y-12545450D02*
X16904391Y-12516879D01*
X16904391Y-12516879D02*
X16894868Y-12497831D01*
X16894868Y-12497831D02*
X16885344Y-12469260D01*
X16885344Y-12469260D02*
X16875820Y-12421641D01*
X16875820Y-12421641D02*
X16875820Y-12383546D01*
X16875820Y-12383546D02*
X16885344Y-12335927D01*
X16885344Y-12335927D02*
X16894868Y-12307355D01*
X16894868Y-12307355D02*
X16904391Y-12288308D01*
X16904391Y-12288308D02*
X16923439Y-12259736D01*
X16923439Y-12259736D02*
X16932963Y-12250212D01*
X17094868Y-12278784D02*
X17056772Y-12278784D01*
X17056772Y-12278784D02*
X17037725Y-12288308D01*
X17037725Y-12288308D02*
X17028201Y-12297831D01*
X17028201Y-12297831D02*
X17009153Y-12326403D01*
X17009153Y-12326403D02*
X16999630Y-12364498D01*
X16999630Y-12364498D02*
X16999630Y-12440688D01*
X16999630Y-12440688D02*
X17009153Y-12459736D01*
X17009153Y-12459736D02*
X17018677Y-12469260D01*
X17018677Y-12469260D02*
X17037725Y-12478784D01*
X17037725Y-12478784D02*
X17075820Y-12478784D01*
X17075820Y-12478784D02*
X17094868Y-12469260D01*
X17094868Y-12469260D02*
X17104391Y-12459736D01*
X17104391Y-12459736D02*
X17113915Y-12440688D01*
X17113915Y-12440688D02*
X17113915Y-12393069D01*
X17113915Y-12393069D02*
X17104391Y-12374022D01*
X17104391Y-12374022D02*
X17094868Y-12364498D01*
X17094868Y-12364498D02*
X17075820Y-12354974D01*
X17075820Y-12354974D02*
X17037725Y-12354974D01*
X17037725Y-12354974D02*
X17018677Y-12364498D01*
X17018677Y-12364498D02*
X17009153Y-12374022D01*
X17009153Y-12374022D02*
X16999630Y-12393069D01*
X17352011Y-12478784D02*
X17352011Y-12278784D01*
X17437725Y-12478784D02*
X17437725Y-12374022D01*
X17437725Y-12374022D02*
X17428201Y-12354974D01*
X17428201Y-12354974D02*
X17409153Y-12345450D01*
X17409153Y-12345450D02*
X17380582Y-12345450D01*
X17380582Y-12345450D02*
X17361534Y-12354974D01*
X17361534Y-12354974D02*
X17352011Y-12364498D01*
X17561534Y-12478784D02*
X17542487Y-12469260D01*
X17542487Y-12469260D02*
X17532963Y-12459736D01*
X17532963Y-12459736D02*
X17523439Y-12440688D01*
X17523439Y-12440688D02*
X17523439Y-12383546D01*
X17523439Y-12383546D02*
X17532963Y-12364498D01*
X17532963Y-12364498D02*
X17542487Y-12354974D01*
X17542487Y-12354974D02*
X17561534Y-12345450D01*
X17561534Y-12345450D02*
X17590106Y-12345450D01*
X17590106Y-12345450D02*
X17609153Y-12354974D01*
X17609153Y-12354974D02*
X17618677Y-12364498D01*
X17618677Y-12364498D02*
X17628201Y-12383546D01*
X17628201Y-12383546D02*
X17628201Y-12440688D01*
X17628201Y-12440688D02*
X17618677Y-12459736D01*
X17618677Y-12459736D02*
X17609153Y-12469260D01*
X17609153Y-12469260D02*
X17590106Y-12478784D01*
X17590106Y-12478784D02*
X17561534Y-12478784D01*
X17742487Y-12478784D02*
X17723439Y-12469260D01*
X17723439Y-12469260D02*
X17713915Y-12450212D01*
X17713915Y-12450212D02*
X17713915Y-12278784D01*
X17894868Y-12469260D02*
X17875820Y-12478784D01*
X17875820Y-12478784D02*
X17837725Y-12478784D01*
X17837725Y-12478784D02*
X17818677Y-12469260D01*
X17818677Y-12469260D02*
X17809153Y-12450212D01*
X17809153Y-12450212D02*
X17809153Y-12374022D01*
X17809153Y-12374022D02*
X17818677Y-12354974D01*
X17818677Y-12354974D02*
X17837725Y-12345450D01*
X17837725Y-12345450D02*
X17875820Y-12345450D01*
X17875820Y-12345450D02*
X17894868Y-12354974D01*
X17894868Y-12354974D02*
X17904392Y-12374022D01*
X17904392Y-12374022D02*
X17904392Y-12393069D01*
X17904392Y-12393069D02*
X17809153Y-12412117D01*
X17980582Y-12469260D02*
X17999630Y-12478784D01*
X17999630Y-12478784D02*
X18037725Y-12478784D01*
X18037725Y-12478784D02*
X18056773Y-12469260D01*
X18056773Y-12469260D02*
X18066296Y-12450212D01*
X18066296Y-12450212D02*
X18066296Y-12440688D01*
X18066296Y-12440688D02*
X18056773Y-12421641D01*
X18056773Y-12421641D02*
X18037725Y-12412117D01*
X18037725Y-12412117D02*
X18009153Y-12412117D01*
X18009153Y-12412117D02*
X17990106Y-12402593D01*
X17990106Y-12402593D02*
X17980582Y-12383546D01*
X17980582Y-12383546D02*
X17980582Y-12374022D01*
X17980582Y-12374022D02*
X17990106Y-12354974D01*
X17990106Y-12354974D02*
X18009153Y-12345450D01*
X18009153Y-12345450D02*
X18037725Y-12345450D01*
X18037725Y-12345450D02*
X18056773Y-12354974D01*
X18132963Y-12554974D02*
X18142487Y-12545450D01*
X18142487Y-12545450D02*
X18161534Y-12516879D01*
X18161534Y-12516879D02*
X18171058Y-12497831D01*
X18171058Y-12497831D02*
X18180582Y-12469260D01*
X18180582Y-12469260D02*
X18190106Y-12421641D01*
X18190106Y-12421641D02*
X18190106Y-12383546D01*
X18190106Y-12383546D02*
X18180582Y-12335927D01*
X18180582Y-12335927D02*
X18171058Y-12307355D01*
X18171058Y-12307355D02*
X18161534Y-12288308D01*
X18161534Y-12288308D02*
X18142487Y-12259736D01*
X18142487Y-12259736D02*
X18132963Y-12250212D01*
D12*
X13307900Y-12601300D02*
X13307900Y-12701300D01*
X13257900Y-12651300D02*
X13357900Y-12651300D01*
D11*
X13723439Y-12742784D02*
X13609153Y-12742784D01*
X13666296Y-12742784D02*
X13666296Y-12542784D01*
X13666296Y-12542784D02*
X13647248Y-12571355D01*
X13647248Y-12571355D02*
X13628201Y-12590403D01*
X13628201Y-12590403D02*
X13609153Y-12599927D01*
X13809153Y-12723736D02*
X13818677Y-12733260D01*
X13818677Y-12733260D02*
X13809153Y-12742784D01*
X13809153Y-12742784D02*
X13799629Y-12733260D01*
X13799629Y-12733260D02*
X13809153Y-12723736D01*
X13809153Y-12723736D02*
X13809153Y-12742784D01*
X13942486Y-12542784D02*
X13961534Y-12542784D01*
X13961534Y-12542784D02*
X13980582Y-12552308D01*
X13980582Y-12552308D02*
X13990105Y-12561831D01*
X13990105Y-12561831D02*
X13999629Y-12580879D01*
X13999629Y-12580879D02*
X14009153Y-12618974D01*
X14009153Y-12618974D02*
X14009153Y-12666593D01*
X14009153Y-12666593D02*
X13999629Y-12704688D01*
X13999629Y-12704688D02*
X13990105Y-12723736D01*
X13990105Y-12723736D02*
X13980582Y-12733260D01*
X13980582Y-12733260D02*
X13961534Y-12742784D01*
X13961534Y-12742784D02*
X13942486Y-12742784D01*
X13942486Y-12742784D02*
X13923439Y-12733260D01*
X13923439Y-12733260D02*
X13913915Y-12723736D01*
X13913915Y-12723736D02*
X13904391Y-12704688D01*
X13904391Y-12704688D02*
X13894867Y-12666593D01*
X13894867Y-12666593D02*
X13894867Y-12618974D01*
X13894867Y-12618974D02*
X13904391Y-12580879D01*
X13904391Y-12580879D02*
X13913915Y-12561831D01*
X13913915Y-12561831D02*
X13923439Y-12552308D01*
X13923439Y-12552308D02*
X13942486Y-12542784D01*
X14132962Y-12542784D02*
X14152010Y-12542784D01*
X14152010Y-12542784D02*
X14171058Y-12552308D01*
X14171058Y-12552308D02*
X14180582Y-12561831D01*
X14180582Y-12561831D02*
X14190105Y-12580879D01*
X14190105Y-12580879D02*
X14199629Y-12618974D01*
X14199629Y-12618974D02*
X14199629Y-12666593D01*
X14199629Y-12666593D02*
X14190105Y-12704688D01*
X14190105Y-12704688D02*
X14180582Y-12723736D01*
X14180582Y-12723736D02*
X14171058Y-12733260D01*
X14171058Y-12733260D02*
X14152010Y-12742784D01*
X14152010Y-12742784D02*
X14132962Y-12742784D01*
X14132962Y-12742784D02*
X14113915Y-12733260D01*
X14113915Y-12733260D02*
X14104391Y-12723736D01*
X14104391Y-12723736D02*
X14094867Y-12704688D01*
X14094867Y-12704688D02*
X14085343Y-12666593D01*
X14085343Y-12666593D02*
X14085343Y-12618974D01*
X14085343Y-12618974D02*
X14094867Y-12580879D01*
X14094867Y-12580879D02*
X14104391Y-12561831D01*
X14104391Y-12561831D02*
X14113915Y-12552308D01*
X14113915Y-12552308D02*
X14132962Y-12542784D01*
X14323439Y-12542784D02*
X14342486Y-12542784D01*
X14342486Y-12542784D02*
X14361534Y-12552308D01*
X14361534Y-12552308D02*
X14371058Y-12561831D01*
X14371058Y-12561831D02*
X14380582Y-12580879D01*
X14380582Y-12580879D02*
X14390105Y-12618974D01*
X14390105Y-12618974D02*
X14390105Y-12666593D01*
X14390105Y-12666593D02*
X14380582Y-12704688D01*
X14380582Y-12704688D02*
X14371058Y-12723736D01*
X14371058Y-12723736D02*
X14361534Y-12733260D01*
X14361534Y-12733260D02*
X14342486Y-12742784D01*
X14342486Y-12742784D02*
X14323439Y-12742784D01*
X14323439Y-12742784D02*
X14304391Y-12733260D01*
X14304391Y-12733260D02*
X14294867Y-12723736D01*
X14294867Y-12723736D02*
X14285343Y-12704688D01*
X14285343Y-12704688D02*
X14275820Y-12666593D01*
X14275820Y-12666593D02*
X14275820Y-12618974D01*
X14275820Y-12618974D02*
X14285343Y-12580879D01*
X14285343Y-12580879D02*
X14294867Y-12561831D01*
X14294867Y-12561831D02*
X14304391Y-12552308D01*
X14304391Y-12552308D02*
X14323439Y-12542784D01*
X14475820Y-12742784D02*
X14475820Y-12609450D01*
X14475820Y-12628498D02*
X14485343Y-12618974D01*
X14485343Y-12618974D02*
X14504391Y-12609450D01*
X14504391Y-12609450D02*
X14532963Y-12609450D01*
X14532963Y-12609450D02*
X14552010Y-12618974D01*
X14552010Y-12618974D02*
X14561534Y-12638022D01*
X14561534Y-12638022D02*
X14561534Y-12742784D01*
X14561534Y-12638022D02*
X14571058Y-12618974D01*
X14571058Y-12618974D02*
X14590105Y-12609450D01*
X14590105Y-12609450D02*
X14618677Y-12609450D01*
X14618677Y-12609450D02*
X14637724Y-12618974D01*
X14637724Y-12618974D02*
X14647248Y-12638022D01*
X14647248Y-12638022D02*
X14647248Y-12742784D01*
X14742486Y-12742784D02*
X14742486Y-12609450D01*
X14742486Y-12628498D02*
X14752010Y-12618974D01*
X14752010Y-12618974D02*
X14771058Y-12609450D01*
X14771058Y-12609450D02*
X14799629Y-12609450D01*
X14799629Y-12609450D02*
X14818677Y-12618974D01*
X14818677Y-12618974D02*
X14828201Y-12638022D01*
X14828201Y-12638022D02*
X14828201Y-12742784D01*
X14828201Y-12638022D02*
X14837724Y-12618974D01*
X14837724Y-12618974D02*
X14856772Y-12609450D01*
X14856772Y-12609450D02*
X14885343Y-12609450D01*
X14885343Y-12609450D02*
X14904391Y-12618974D01*
X14904391Y-12618974D02*
X14913915Y-12638022D01*
X14913915Y-12638022D02*
X14913915Y-12742784D01*
X15304391Y-12533260D02*
X15132963Y-12790403D01*
X15561534Y-12542784D02*
X15580582Y-12542784D01*
X15580582Y-12542784D02*
X15599629Y-12552308D01*
X15599629Y-12552308D02*
X15609153Y-12561831D01*
X15609153Y-12561831D02*
X15618677Y-12580879D01*
X15618677Y-12580879D02*
X15628201Y-12618974D01*
X15628201Y-12618974D02*
X15628201Y-12666593D01*
X15628201Y-12666593D02*
X15618677Y-12704688D01*
X15618677Y-12704688D02*
X15609153Y-12723736D01*
X15609153Y-12723736D02*
X15599629Y-12733260D01*
X15599629Y-12733260D02*
X15580582Y-12742784D01*
X15580582Y-12742784D02*
X15561534Y-12742784D01*
X15561534Y-12742784D02*
X15542486Y-12733260D01*
X15542486Y-12733260D02*
X15532963Y-12723736D01*
X15532963Y-12723736D02*
X15523439Y-12704688D01*
X15523439Y-12704688D02*
X15513915Y-12666593D01*
X15513915Y-12666593D02*
X15513915Y-12618974D01*
X15513915Y-12618974D02*
X15523439Y-12580879D01*
X15523439Y-12580879D02*
X15532963Y-12561831D01*
X15532963Y-12561831D02*
X15542486Y-12552308D01*
X15542486Y-12552308D02*
X15561534Y-12542784D01*
X15713915Y-12723736D02*
X15723439Y-12733260D01*
X15723439Y-12733260D02*
X15713915Y-12742784D01*
X15713915Y-12742784D02*
X15704391Y-12733260D01*
X15704391Y-12733260D02*
X15713915Y-12723736D01*
X15713915Y-12723736D02*
X15713915Y-12742784D01*
X15847248Y-12542784D02*
X15866296Y-12542784D01*
X15866296Y-12542784D02*
X15885344Y-12552308D01*
X15885344Y-12552308D02*
X15894867Y-12561831D01*
X15894867Y-12561831D02*
X15904391Y-12580879D01*
X15904391Y-12580879D02*
X15913915Y-12618974D01*
X15913915Y-12618974D02*
X15913915Y-12666593D01*
X15913915Y-12666593D02*
X15904391Y-12704688D01*
X15904391Y-12704688D02*
X15894867Y-12723736D01*
X15894867Y-12723736D02*
X15885344Y-12733260D01*
X15885344Y-12733260D02*
X15866296Y-12742784D01*
X15866296Y-12742784D02*
X15847248Y-12742784D01*
X15847248Y-12742784D02*
X15828201Y-12733260D01*
X15828201Y-12733260D02*
X15818677Y-12723736D01*
X15818677Y-12723736D02*
X15809153Y-12704688D01*
X15809153Y-12704688D02*
X15799629Y-12666593D01*
X15799629Y-12666593D02*
X15799629Y-12618974D01*
X15799629Y-12618974D02*
X15809153Y-12580879D01*
X15809153Y-12580879D02*
X15818677Y-12561831D01*
X15818677Y-12561831D02*
X15828201Y-12552308D01*
X15828201Y-12552308D02*
X15847248Y-12542784D01*
X15980582Y-12542784D02*
X16104391Y-12542784D01*
X16104391Y-12542784D02*
X16037725Y-12618974D01*
X16037725Y-12618974D02*
X16066296Y-12618974D01*
X16066296Y-12618974D02*
X16085344Y-12628498D01*
X16085344Y-12628498D02*
X16094867Y-12638022D01*
X16094867Y-12638022D02*
X16104391Y-12657069D01*
X16104391Y-12657069D02*
X16104391Y-12704688D01*
X16104391Y-12704688D02*
X16094867Y-12723736D01*
X16094867Y-12723736D02*
X16085344Y-12733260D01*
X16085344Y-12733260D02*
X16066296Y-12742784D01*
X16066296Y-12742784D02*
X16009153Y-12742784D01*
X16009153Y-12742784D02*
X15990106Y-12733260D01*
X15990106Y-12733260D02*
X15980582Y-12723736D01*
X16199629Y-12742784D02*
X16237725Y-12742784D01*
X16237725Y-12742784D02*
X16256772Y-12733260D01*
X16256772Y-12733260D02*
X16266296Y-12723736D01*
X16266296Y-12723736D02*
X16285344Y-12695165D01*
X16285344Y-12695165D02*
X16294867Y-12657069D01*
X16294867Y-12657069D02*
X16294867Y-12580879D01*
X16294867Y-12580879D02*
X16285344Y-12561831D01*
X16285344Y-12561831D02*
X16275820Y-12552308D01*
X16275820Y-12552308D02*
X16256772Y-12542784D01*
X16256772Y-12542784D02*
X16218677Y-12542784D01*
X16218677Y-12542784D02*
X16199629Y-12552308D01*
X16199629Y-12552308D02*
X16190106Y-12561831D01*
X16190106Y-12561831D02*
X16180582Y-12580879D01*
X16180582Y-12580879D02*
X16180582Y-12628498D01*
X16180582Y-12628498D02*
X16190106Y-12647546D01*
X16190106Y-12647546D02*
X16199629Y-12657069D01*
X16199629Y-12657069D02*
X16218677Y-12666593D01*
X16218677Y-12666593D02*
X16256772Y-12666593D01*
X16256772Y-12666593D02*
X16275820Y-12657069D01*
X16275820Y-12657069D02*
X16285344Y-12647546D01*
X16285344Y-12647546D02*
X16294867Y-12628498D01*
X16466296Y-12609450D02*
X16466296Y-12742784D01*
X16418677Y-12533260D02*
X16371058Y-12676117D01*
X16371058Y-12676117D02*
X16494867Y-12676117D01*
X16561534Y-12542784D02*
X16561534Y-12580879D01*
X16637725Y-12542784D02*
X16637725Y-12580879D01*
X16932963Y-12818974D02*
X16923439Y-12809450D01*
X16923439Y-12809450D02*
X16904391Y-12780879D01*
X16904391Y-12780879D02*
X16894868Y-12761831D01*
X16894868Y-12761831D02*
X16885344Y-12733260D01*
X16885344Y-12733260D02*
X16875820Y-12685641D01*
X16875820Y-12685641D02*
X16875820Y-12647546D01*
X16875820Y-12647546D02*
X16885344Y-12599927D01*
X16885344Y-12599927D02*
X16894868Y-12571355D01*
X16894868Y-12571355D02*
X16904391Y-12552308D01*
X16904391Y-12552308D02*
X16923439Y-12523736D01*
X16923439Y-12523736D02*
X16932963Y-12514212D01*
X17104391Y-12542784D02*
X17009153Y-12542784D01*
X17009153Y-12542784D02*
X16999630Y-12638022D01*
X16999630Y-12638022D02*
X17009153Y-12628498D01*
X17009153Y-12628498D02*
X17028201Y-12618974D01*
X17028201Y-12618974D02*
X17075820Y-12618974D01*
X17075820Y-12618974D02*
X17094868Y-12628498D01*
X17094868Y-12628498D02*
X17104391Y-12638022D01*
X17104391Y-12638022D02*
X17113915Y-12657069D01*
X17113915Y-12657069D02*
X17113915Y-12704688D01*
X17113915Y-12704688D02*
X17104391Y-12723736D01*
X17104391Y-12723736D02*
X17094868Y-12733260D01*
X17094868Y-12733260D02*
X17075820Y-12742784D01*
X17075820Y-12742784D02*
X17028201Y-12742784D01*
X17028201Y-12742784D02*
X17009153Y-12733260D01*
X17009153Y-12733260D02*
X16999630Y-12723736D01*
X17285344Y-12609450D02*
X17285344Y-12742784D01*
X17237725Y-12533260D02*
X17190106Y-12676117D01*
X17190106Y-12676117D02*
X17313915Y-12676117D01*
X17542487Y-12742784D02*
X17542487Y-12542784D01*
X17628201Y-12742784D02*
X17628201Y-12638022D01*
X17628201Y-12638022D02*
X17618677Y-12618974D01*
X17618677Y-12618974D02*
X17599630Y-12609450D01*
X17599630Y-12609450D02*
X17571058Y-12609450D01*
X17571058Y-12609450D02*
X17552011Y-12618974D01*
X17552011Y-12618974D02*
X17542487Y-12628498D01*
X17752011Y-12742784D02*
X17732963Y-12733260D01*
X17732963Y-12733260D02*
X17723439Y-12723736D01*
X17723439Y-12723736D02*
X17713915Y-12704688D01*
X17713915Y-12704688D02*
X17713915Y-12647546D01*
X17713915Y-12647546D02*
X17723439Y-12628498D01*
X17723439Y-12628498D02*
X17732963Y-12618974D01*
X17732963Y-12618974D02*
X17752011Y-12609450D01*
X17752011Y-12609450D02*
X17780582Y-12609450D01*
X17780582Y-12609450D02*
X17799630Y-12618974D01*
X17799630Y-12618974D02*
X17809153Y-12628498D01*
X17809153Y-12628498D02*
X17818677Y-12647546D01*
X17818677Y-12647546D02*
X17818677Y-12704688D01*
X17818677Y-12704688D02*
X17809153Y-12723736D01*
X17809153Y-12723736D02*
X17799630Y-12733260D01*
X17799630Y-12733260D02*
X17780582Y-12742784D01*
X17780582Y-12742784D02*
X17752011Y-12742784D01*
X17932963Y-12742784D02*
X17913915Y-12733260D01*
X17913915Y-12733260D02*
X17904392Y-12714212D01*
X17904392Y-12714212D02*
X17904392Y-12542784D01*
X18085344Y-12733260D02*
X18066296Y-12742784D01*
X18066296Y-12742784D02*
X18028201Y-12742784D01*
X18028201Y-12742784D02*
X18009153Y-12733260D01*
X18009153Y-12733260D02*
X17999630Y-12714212D01*
X17999630Y-12714212D02*
X17999630Y-12638022D01*
X17999630Y-12638022D02*
X18009153Y-12618974D01*
X18009153Y-12618974D02*
X18028201Y-12609450D01*
X18028201Y-12609450D02*
X18066296Y-12609450D01*
X18066296Y-12609450D02*
X18085344Y-12618974D01*
X18085344Y-12618974D02*
X18094868Y-12638022D01*
X18094868Y-12638022D02*
X18094868Y-12657069D01*
X18094868Y-12657069D02*
X17999630Y-12676117D01*
X18171058Y-12733260D02*
X18190106Y-12742784D01*
X18190106Y-12742784D02*
X18228201Y-12742784D01*
X18228201Y-12742784D02*
X18247249Y-12733260D01*
X18247249Y-12733260D02*
X18256773Y-12714212D01*
X18256773Y-12714212D02*
X18256773Y-12704688D01*
X18256773Y-12704688D02*
X18247249Y-12685641D01*
X18247249Y-12685641D02*
X18228201Y-12676117D01*
X18228201Y-12676117D02*
X18199630Y-12676117D01*
X18199630Y-12676117D02*
X18180582Y-12666593D01*
X18180582Y-12666593D02*
X18171058Y-12647546D01*
X18171058Y-12647546D02*
X18171058Y-12638022D01*
X18171058Y-12638022D02*
X18180582Y-12618974D01*
X18180582Y-12618974D02*
X18199630Y-12609450D01*
X18199630Y-12609450D02*
X18228201Y-12609450D01*
X18228201Y-12609450D02*
X18247249Y-12618974D01*
X18323439Y-12818974D02*
X18332963Y-12809450D01*
X18332963Y-12809450D02*
X18352011Y-12780879D01*
X18352011Y-12780879D02*
X18361534Y-12761831D01*
X18361534Y-12761831D02*
X18371058Y-12733260D01*
X18371058Y-12733260D02*
X18380582Y-12685641D01*
X18380582Y-12685641D02*
X18380582Y-12647546D01*
X18380582Y-12647546D02*
X18371058Y-12599927D01*
X18371058Y-12599927D02*
X18361534Y-12571355D01*
X18361534Y-12571355D02*
X18352011Y-12552308D01*
X18352011Y-12552308D02*
X18332963Y-12523736D01*
X18332963Y-12523736D02*
X18323439Y-12514212D01*
M02*
