M48
; DRILL file {KiCad 8.0.3} date 2025-07-08T12:51:28-0700
; FORMAT={-:-/ absolute / inch / decimal}
; #@! TF.CreationDate,2025-07-08T12:51:28-07:00
; #@! TF.GenerationSoftware,Kicad,Pcbnew,8.0.3
; #@! TF.FileFunction,Plated,1,4,PTH
FMAT,2
INCH
; #@! TA.AperFunction,Plated,PTH,ViaDrill
T1C0.0118
; #@! TA.AperFunction,Plated,PTH,ComponentDrill
T2C0.0394
; #@! TA.AperFunction,Plated,PTH,ComponentDrill
T3C0.0866
%
G90
G05
T1
X5.6614Y-3.8031
X5.8583Y-4.1654
X5.8898Y-4.189
X5.9606Y-3.3622
X5.9872Y-3.4301
X5.9882Y-2.9331
X5.9882Y-3.2559
X5.999Y-3.6624
X6.0059Y-3.3563
X6.0236Y-3.2244
X6.0354Y-3.2677
X6.063Y-3.1693
X6.0787Y-3.6496
X6.1063Y-2.7835
X6.1063Y-3.4685
X6.122Y-4.3346
X6.1417Y-3.6496
X6.1496Y-4.2835
X6.1575Y-4.3858
X6.1614Y-2.8937
X6.2638Y-3.4685
X6.2756Y-3.5039
X6.3031Y-4.0472
X6.311Y-4.2165
X6.3386Y-4.4606
X6.374Y-3.3858
X6.374Y-3.5827
X6.3976Y-3.126
X6.4055Y-4.3858
X6.437Y-2.8465
X6.4449Y-4.0236
X6.4488Y-3.7992
X6.4488Y-4.0827
X6.4567Y-2.9331
X6.4882Y-3.2677
X6.4882Y-3.4331
X6.592Y-3.6284
X6.6063Y-4.3228
X6.6181Y-4.0039
X6.7047Y-3.1417
X6.7323Y-3.3228
X6.7717Y-4.3819
X6.8366Y-3.4272
X6.9291Y-4.563
X7.1319Y-4.2933
X7.1969Y-3.5157
X7.2835Y-3.4016
X7.3213Y-4.3087
X7.4469Y-3.6949
X7.5236Y-3.4961
X7.7047Y-3.2559
T2
X5.7559Y-3.1693
X5.7559Y-3.2693
X5.7559Y-3.3693
X6.2992Y-2.6181
X6.2992Y-2.7181
X6.2992Y-2.8181
X6.5591Y-2.5974
X6.5591Y-2.6974
X6.5591Y-2.7974
X6.5945Y-2.9472
X6.5945Y-3.0472
X6.5945Y-3.1472
X6.5945Y-3.2472
X6.5945Y-3.3472
X6.5945Y-3.4472
X6.7945Y-3.0945
X6.7945Y-3.1945
X6.8134Y-3.8543
X6.8134Y-3.9543
X6.8843Y-2.937
X6.8945Y-3.0945
X6.8945Y-3.1945
X6.9134Y-3.8543
X6.9134Y-3.9543
X6.9843Y-2.937
X6.9945Y-3.0945
X6.9945Y-3.1945
X7.0134Y-3.8543
X7.0134Y-3.9543
X7.0843Y-2.937
X7.0945Y-3.0945
X7.0945Y-3.1945
X7.1134Y-3.8543
X7.1134Y-3.9543
X7.1945Y-3.0945
X7.1945Y-3.1945
X7.2134Y-3.8543
X7.2134Y-3.9543
X7.2213Y-4.1102
X7.2213Y-4.2102
X7.2628Y-2.937
X7.2945Y-3.0945
X7.2945Y-3.1945
X7.3134Y-3.8543
X7.3134Y-3.9543
X7.3213Y-4.1102
X7.3213Y-4.2102
X7.3628Y-2.937
X7.3945Y-3.0945
X7.3945Y-3.1945
X7.4134Y-3.8543
X7.4134Y-3.9543
X7.4213Y-4.1102
X7.4213Y-4.2102
X7.4628Y-2.937
X7.4945Y-3.0945
X7.4945Y-3.1945
X7.5134Y-3.8543
X7.5134Y-3.9543
X7.5945Y-3.0945
X7.5945Y-3.1945
X7.6134Y-3.8543
X7.6134Y-3.9543
T3
X5.7047Y-3.5433
X7.6811Y-3.5433
M30
