%TF.GenerationSoftware,KiCad,Pcbnew,8.0.7*%
%TF.CreationDate,2025-05-01T01:05:46-07:00*%
%TF.ProjectId,salp_board,73616c70-5f62-46f6-9172-642e6b696361,rev?*%
%TF.SameCoordinates,Original*%
%TF.FileFunction,Copper,L4,Bot*%
%TF.FilePolarity,Positive*%
%FSLAX46Y46*%
G04 Gerber Fmt 4.6, Leading zero omitted, Abs format (unit mm)*
G04 Created by KiCad (PCBNEW 8.0.7) date 2025-05-01 01:05:46*
%MOMM*%
%LPD*%
G01*
G04 APERTURE LIST*
G04 Aperture macros list*
%AMRoundRect*
0 Rectangle with rounded corners*
0 $1 Rounding radius*
0 $2 $3 $4 $5 $6 $7 $8 $9 X,Y pos of 4 corners*
0 Add a 4 corners polygon primitive as box body*
4,1,4,$2,$3,$4,$5,$6,$7,$8,$9,$2,$3,0*
0 Add four circle primitives for the rounded corners*
1,1,$1+$1,$2,$3*
1,1,$1+$1,$4,$5*
1,1,$1+$1,$6,$7*
1,1,$1+$1,$8,$9*
0 Add four rect primitives between the rounded corners*
20,1,$1+$1,$2,$3,$4,$5,0*
20,1,$1+$1,$4,$5,$6,$7,0*
20,1,$1+$1,$6,$7,$8,$9,0*
20,1,$1+$1,$8,$9,$2,$3,0*%
G04 Aperture macros list end*
%TA.AperFunction,ComponentPad*%
%ADD10R,1.700000X1.700000*%
%TD*%
%TA.AperFunction,ComponentPad*%
%ADD11O,1.700000X1.700000*%
%TD*%
%TA.AperFunction,ComponentPad*%
%ADD12RoundRect,0.250000X0.450000X0.450000X-0.450000X0.450000X-0.450000X-0.450000X0.450000X-0.450000X0*%
%TD*%
%TA.AperFunction,ComponentPad*%
%ADD13C,1.400000*%
%TD*%
%TA.AperFunction,ViaPad*%
%ADD14C,1.500000*%
%TD*%
%TA.AperFunction,ViaPad*%
%ADD15C,0.600000*%
%TD*%
%TA.AperFunction,Conductor*%
%ADD16C,0.300000*%
%TD*%
%TA.AperFunction,Conductor*%
%ADD17C,1.000000*%
%TD*%
%TA.AperFunction,Conductor*%
%ADD18C,0.200000*%
%TD*%
%TA.AperFunction,Conductor*%
%ADD19C,0.500000*%
%TD*%
G04 APERTURE END LIST*
D10*
%TO.P,J10,1,Pin_1*%
%TO.N,VCC*%
X161501000Y-86969500D03*
D11*
%TO.P,J10,2,Pin_2*%
%TO.N,GND*%
X158961000Y-86969500D03*
%TO.P,J10,3,Pin_3*%
X161501000Y-89509500D03*
%TO.P,J10,4,Pin_4*%
%TO.N,+3.3V*%
X158961000Y-89509500D03*
%TO.P,J10,5,Pin_5*%
%TO.N,GND*%
X161501000Y-92049500D03*
%TO.P,J10,6,Pin_6*%
X158961000Y-92049500D03*
%TD*%
D10*
%TO.P,J12,1,Pin_1*%
%TO.N,unconnected-(J12-Pin_1-Pad1)*%
X178308000Y-112268000D03*
D11*
%TO.P,J12,2,Pin_2*%
%TO.N,Net-(J12-Pin_2)*%
X175768000Y-112268000D03*
%TO.P,J12,3,Pin_3*%
%TO.N,Net-(J12-Pin_3)*%
X173228000Y-112268000D03*
%TO.P,J12,4,Pin_4*%
%TO.N,/V_USB*%
X170688000Y-112268000D03*
%TO.P,J12,5,Pin_5*%
%TO.N,unconnected-(J12-Pin_5-Pad5)*%
X168148000Y-112268000D03*
%TO.P,J12,6,Pin_6*%
%TO.N,GND*%
X165608000Y-112268000D03*
%TD*%
D12*
%TO.P,SW2,1,A*%
%TO.N,/PB2*%
X178345000Y-105500000D03*
D13*
%TO.P,SW2,2,B*%
%TO.N,Net-(J12-Pin_2)*%
X175845000Y-105500000D03*
%TO.P,SW2,3,C*%
%TO.N,/PA0*%
X173345000Y-105500000D03*
%TO.P,SW2,4,A*%
%TO.N,/PB3*%
X173345000Y-102200000D03*
%TO.P,SW2,5,B*%
%TO.N,Net-(J12-Pin_3)*%
X175845000Y-102200000D03*
%TO.P,SW2,6,C*%
%TO.N,Net-(SW2B-C)*%
X178345000Y-102200000D03*
%TD*%
D10*
%TO.P,J8,1,Pin_1*%
%TO.N,/M_SCL*%
X192024000Y-107188000D03*
D11*
%TO.P,J8,2,Pin_2*%
X194564000Y-107188000D03*
%TO.P,J8,3,Pin_3*%
%TO.N,/PC0*%
X192024000Y-104648000D03*
%TO.P,J8,4,Pin_4*%
X194564000Y-104648000D03*
%TO.P,J8,5,Pin_5*%
%TO.N,/PC1*%
X192024000Y-102108000D03*
%TO.P,J8,6,Pin_6*%
X194564000Y-102108000D03*
%TO.P,J8,7,Pin_7*%
%TO.N,/PC2*%
X192024000Y-99568000D03*
%TO.P,J8,8,Pin_8*%
X194564000Y-99568000D03*
%TO.P,J8,9,Pin_9*%
%TO.N,/PC3*%
X192024000Y-97028000D03*
%TO.P,J8,10,Pin_10*%
X194564000Y-97028000D03*
%TO.P,J8,11,Pin_11*%
%TO.N,/PA0*%
X192024000Y-94488000D03*
%TO.P,J8,12,Pin_12*%
X194564000Y-94488000D03*
%TO.P,J8,13,Pin_13*%
%TO.N,/PA1*%
X192024000Y-91948000D03*
%TO.P,J8,14,Pin_14*%
X194564000Y-91948000D03*
%TO.P,J8,15,Pin_15*%
%TO.N,/PA2*%
X192024000Y-89408000D03*
%TO.P,J8,16,Pin_16*%
X194564000Y-89408000D03*
%TO.P,J8,17,Pin_17*%
%TO.N,/PA3*%
X192024000Y-86868000D03*
%TO.P,J8,18,Pin_18*%
X194564000Y-86868000D03*
%TD*%
D10*
%TO.P,J4,1,Pin_1*%
%TO.N,Net-(J4-Pin_1)*%
X194725000Y-69275000D03*
D11*
%TO.P,J4,2,Pin_2*%
X194725000Y-71815000D03*
%TO.P,J4,3,Pin_3*%
X194725000Y-74355000D03*
%TD*%
D10*
%TO.P,J9,1,Pin_1*%
%TO.N,/VOR*%
X161496000Y-100978500D03*
D11*
%TO.P,J9,2,Pin_2*%
%TO.N,+3.3V*%
X161496000Y-98438500D03*
%TO.P,J9,3,Pin_3*%
%TO.N,/V_REG*%
X161496000Y-95898500D03*
%TD*%
D10*
%TO.P,J1,1,Pin_1*%
%TO.N,/PA4*%
X168402000Y-86868000D03*
D11*
%TO.P,J1,2,Pin_2*%
X165862000Y-86868000D03*
%TO.P,J1,3,Pin_3*%
%TO.N,/PA5*%
X168402000Y-89408000D03*
%TO.P,J1,4,Pin_4*%
X165862000Y-89408000D03*
%TO.P,J1,5,Pin_5*%
%TO.N,/PA6*%
X168402000Y-91948000D03*
%TO.P,J1,6,Pin_6*%
X165862000Y-91948000D03*
%TO.P,J1,7,Pin_7*%
%TO.N,/PA7*%
X168402000Y-94488000D03*
%TO.P,J1,8,Pin_8*%
X165862000Y-94488000D03*
%TO.P,J1,9,Pin_9*%
%TO.N,/PB5*%
X168402000Y-97028000D03*
%TO.P,J1,10,Pin_10*%
X165862000Y-97028000D03*
%TO.P,J1,11,Pin_11*%
%TO.N,/PB4*%
X168402000Y-99568000D03*
%TO.P,J1,12,Pin_12*%
X165862000Y-99568000D03*
%TO.P,J1,13,Pin_13*%
%TO.N,/PB3*%
X168402000Y-102108000D03*
%TO.P,J1,14,Pin_14*%
X165862000Y-102108000D03*
%TO.P,J1,15,Pin_15*%
%TO.N,/PB2*%
X168402000Y-104648000D03*
%TO.P,J1,16,Pin_16*%
X165862000Y-104648000D03*
%TO.P,J1,17,Pin_17*%
%TO.N,/M_SDA*%
X168402000Y-107188000D03*
%TO.P,J1,18,Pin_18*%
X165862000Y-107188000D03*
%TD*%
D14*
%TO.N,GND*%
X150000000Y-61000000D03*
D15*
X157750000Y-66500000D03*
X190500000Y-59690000D03*
X172750000Y-79750000D03*
X179500000Y-68750000D03*
X196850000Y-83130000D03*
X149750000Y-113000000D03*
X171428500Y-86850000D03*
X156750000Y-66500000D03*
X152654000Y-97790000D03*
X171428500Y-84310000D03*
X189000000Y-86000000D03*
X147250000Y-104000000D03*
X138750000Y-105000000D03*
X169000000Y-67000000D03*
X166624000Y-65024000D03*
X138775750Y-101275750D03*
X152500000Y-91250000D03*
%TO.N,+BAT*%
X167132000Y-80172000D03*
X161000000Y-83500000D03*
X158500000Y-101000000D03*
X146750000Y-93500000D03*
%TO.N,VCC*%
X164000000Y-109500000D03*
X175000000Y-83058000D03*
%TO.N,+3.3V*%
X156500000Y-86500000D03*
X172300000Y-77100000D03*
X169087806Y-72412193D03*
X166343906Y-79698145D03*
X157937500Y-69088000D03*
X169065380Y-75334000D03*
X155915380Y-85165380D03*
%TO.N,/V_REG*%
X163000000Y-104500000D03*
X160500000Y-105979000D03*
%TO.N,Net-(D2-K)*%
X155000000Y-88750000D03*
X156707107Y-97792893D03*
%TO.N,Net-(D3-K)*%
X152750000Y-102250000D03*
X154996000Y-93754000D03*
%TO.N,/PA5*%
X165750000Y-84250000D03*
X163970180Y-82379000D03*
X163970180Y-80172000D03*
%TO.N,/PA7*%
X159000000Y-75000000D03*
X163750000Y-88500000D03*
X156750000Y-75000000D03*
X160039892Y-82460108D03*
%TO.N,/PB2*%
X178915380Y-99165380D03*
%TO.N,/PC3*%
X188864675Y-84444771D03*
X188468000Y-81280000D03*
%TO.N,/PC2*%
X189630197Y-84212436D03*
X189068000Y-81845687D03*
X187800000Y-80356265D03*
X189092265Y-80356265D03*
%TO.N,/V_USB*%
X152787763Y-104787763D03*
X149500000Y-101500000D03*
%TD*%
D16*
%TO.N,+BAT*%
X163768418Y-83500000D02*
X161000000Y-83500000D01*
X167096418Y-80172000D02*
X163768418Y-83500000D01*
D17*
X151000000Y-93500000D02*
X146750000Y-93500000D01*
D16*
X167132000Y-80172000D02*
X167096418Y-80172000D01*
D17*
X158500000Y-101000000D02*
X151000000Y-93500000D01*
%TO.N,VCC*%
X174942000Y-83000000D02*
X170250000Y-83000000D01*
X170250000Y-83000000D02*
X165470500Y-83000000D01*
X175000000Y-83058000D02*
X174942000Y-83000000D01*
X165470500Y-83000000D02*
X161501000Y-86969500D01*
X168524899Y-109500000D02*
X170250000Y-107774899D01*
X164000000Y-109500000D02*
X168524899Y-109500000D01*
X170250000Y-107774899D02*
X170250000Y-83000000D01*
D16*
%TO.N,+3.3V*%
X157937500Y-69088000D02*
X159408500Y-70559000D01*
X165309000Y-70559000D02*
X167162193Y-72412193D01*
D18*
X166470051Y-79572000D02*
X167178000Y-79572000D01*
D16*
X170534000Y-75334000D02*
X172300000Y-77100000D01*
D19*
X155915380Y-85165380D02*
X155915380Y-85915380D01*
X155915380Y-85915380D02*
X156500000Y-86500000D01*
D16*
X169087806Y-75311574D02*
X169087806Y-72412193D01*
D18*
X169065380Y-77684620D02*
X169065380Y-75334000D01*
X166343906Y-79698145D02*
X166470051Y-79572000D01*
D16*
X169065380Y-75334000D02*
X170534000Y-75334000D01*
X169065380Y-75334000D02*
X169087806Y-75311574D01*
X159408500Y-70559000D02*
X165309000Y-70559000D01*
X167162193Y-72412193D02*
X169087806Y-72412193D01*
D18*
X167178000Y-79572000D02*
X169065380Y-77684620D01*
D17*
%TO.N,/V_REG*%
X161521000Y-105979000D02*
X163000000Y-104500000D01*
X160500000Y-105979000D02*
X161521000Y-105979000D01*
D19*
%TO.N,Net-(D2-K)*%
X154246000Y-94185339D02*
X156707107Y-96646446D01*
X154246000Y-89504000D02*
X154246000Y-94185339D01*
X155000000Y-88750000D02*
X154246000Y-89504000D01*
X156707107Y-96646446D02*
X156707107Y-97792893D01*
%TO.N,Net-(D3-K)*%
X158947056Y-102250000D02*
X152750000Y-102250000D01*
X159700000Y-98450000D02*
X159700000Y-101497056D01*
X159700000Y-101497056D02*
X158947056Y-102250000D01*
X154996000Y-93754000D02*
X155004000Y-93754000D01*
X155004000Y-93754000D02*
X159700000Y-98450000D01*
D18*
%TO.N,/PA5*%
X163970180Y-80172000D02*
X163970180Y-82379000D01*
X165750000Y-84250000D02*
X164712000Y-85288000D01*
X164712000Y-88258000D02*
X165862000Y-89408000D01*
X164712000Y-85288000D02*
X164712000Y-88258000D01*
%TO.N,/PA7*%
X163500000Y-88250000D02*
X163750000Y-88500000D01*
X160351000Y-84190130D02*
X160351000Y-88101000D01*
X159000000Y-75000000D02*
X156750000Y-75000000D01*
X160500000Y-88250000D02*
X163500000Y-88250000D01*
X160039892Y-82460108D02*
X160039892Y-83879022D01*
X160039892Y-83879022D02*
X160351000Y-84190130D01*
X160351000Y-88101000D02*
X160500000Y-88250000D01*
%TO.N,/PB2*%
X179345000Y-104500000D02*
X178345000Y-105500000D01*
X178915380Y-99165380D02*
X179345000Y-99595000D01*
X179345000Y-99595000D02*
X179345000Y-104500000D01*
%TO.N,/PC3*%
X188468000Y-84048096D02*
X188468000Y-81280000D01*
X188864675Y-84444771D02*
X188468000Y-84048096D01*
D16*
%TO.N,/PC2*%
X187800000Y-80356265D02*
X189092265Y-80356265D01*
D18*
X189630197Y-84212436D02*
X189068000Y-83650239D01*
X189068000Y-83650239D02*
X189068000Y-81845687D01*
D17*
%TO.N,/V_USB*%
X152787763Y-104787763D02*
X149500000Y-101500000D01*
%TD*%
%TA.AperFunction,Conductor*%
%TO.N,GND*%
G36*
X161035075Y-91856507D02*
G01*
X161001000Y-91983674D01*
X161001000Y-92115326D01*
X161035075Y-92242493D01*
X161067988Y-92299500D01*
X159394012Y-92299500D01*
X159426925Y-92242493D01*
X159461000Y-92115326D01*
X159461000Y-91983674D01*
X159426925Y-91856507D01*
X159394012Y-91799500D01*
X161067988Y-91799500D01*
X161035075Y-91856507D01*
G37*
%TD.AperFunction*%
%TA.AperFunction,Conductor*%
G36*
X161751000Y-91616488D02*
G01*
X161693993Y-91583575D01*
X161566826Y-91549500D01*
X161435174Y-91549500D01*
X161308007Y-91583575D01*
X161251000Y-91616488D01*
X161251000Y-89942512D01*
X161308007Y-89975425D01*
X161435174Y-90009500D01*
X161566826Y-90009500D01*
X161693993Y-89975425D01*
X161751000Y-89942512D01*
X161751000Y-91616488D01*
G37*
%TD.AperFunction*%
%TA.AperFunction,Conductor*%
G36*
X196378418Y-56634816D02*
G01*
X196578561Y-56649130D01*
X196596063Y-56651647D01*
X196787797Y-56693355D01*
X196804755Y-56698334D01*
X196988609Y-56766909D01*
X197004701Y-56774259D01*
X197176904Y-56868288D01*
X197191784Y-56877849D01*
X197348867Y-56995441D01*
X197362237Y-57007027D01*
X197500972Y-57145762D01*
X197512558Y-57159132D01*
X197630146Y-57316210D01*
X197639711Y-57331095D01*
X197733740Y-57503298D01*
X197741090Y-57519390D01*
X197809662Y-57703236D01*
X197814646Y-57720212D01*
X197856351Y-57911931D01*
X197858869Y-57929442D01*
X197862682Y-57982748D01*
X197872409Y-58118753D01*
X197873184Y-58129580D01*
X197873500Y-58138427D01*
X197873500Y-112803572D01*
X197873184Y-112812419D01*
X197858869Y-113012557D01*
X197856351Y-113030068D01*
X197814646Y-113221787D01*
X197809662Y-113238763D01*
X197741090Y-113422609D01*
X197733740Y-113438701D01*
X197639711Y-113610904D01*
X197630146Y-113625789D01*
X197512558Y-113782867D01*
X197500972Y-113796237D01*
X197362237Y-113934972D01*
X197348867Y-113946558D01*
X197191789Y-114064146D01*
X197176904Y-114073711D01*
X197004701Y-114167740D01*
X196988609Y-114175090D01*
X196804763Y-114243662D01*
X196787787Y-114248646D01*
X196596068Y-114290351D01*
X196578557Y-114292869D01*
X196397779Y-114305799D01*
X196378417Y-114307184D01*
X196369572Y-114307500D01*
X135608428Y-114307500D01*
X135599582Y-114307184D01*
X135577622Y-114305613D01*
X135399442Y-114292869D01*
X135381931Y-114290351D01*
X135190212Y-114248646D01*
X135173236Y-114243662D01*
X134989390Y-114175090D01*
X134973298Y-114167740D01*
X134801095Y-114073711D01*
X134786210Y-114064146D01*
X134629132Y-113946558D01*
X134615762Y-113934972D01*
X134477027Y-113796237D01*
X134465441Y-113782867D01*
X134347849Y-113625784D01*
X134338288Y-113610904D01*
X134244259Y-113438701D01*
X134236909Y-113422609D01*
X134213679Y-113360328D01*
X134168334Y-113238755D01*
X134163355Y-113221797D01*
X134121647Y-113030063D01*
X134119130Y-113012556D01*
X134119058Y-113011555D01*
X134104816Y-112812418D01*
X134104500Y-112803572D01*
X134104500Y-111653713D01*
X136952500Y-111653713D01*
X136952500Y-111866286D01*
X136985753Y-112076239D01*
X137051444Y-112278414D01*
X137147951Y-112467820D01*
X137272890Y-112639786D01*
X137423213Y-112790109D01*
X137595179Y-112915048D01*
X137595181Y-112915049D01*
X137595184Y-112915051D01*
X137784588Y-113011557D01*
X137986757Y-113077246D01*
X138196713Y-113110500D01*
X138196714Y-113110500D01*
X138409286Y-113110500D01*
X138409287Y-113110500D01*
X138619243Y-113077246D01*
X138821412Y-113011557D01*
X139010816Y-112915051D01*
X139052788Y-112884557D01*
X139182786Y-112790109D01*
X139182788Y-112790106D01*
X139182792Y-112790104D01*
X139333104Y-112639792D01*
X139333106Y-112639788D01*
X139333109Y-112639786D01*
X139458048Y-112467820D01*
X139458047Y-112467820D01*
X139458051Y-112467816D01*
X139554557Y-112278412D01*
X139620246Y-112076243D01*
X139629471Y-112017999D01*
X164277364Y-112017999D01*
X164277364Y-112018000D01*
X165174988Y-112018000D01*
X165142075Y-112075007D01*
X165108000Y-112202174D01*
X165108000Y-112333826D01*
X165142075Y-112460993D01*
X165174988Y-112518000D01*
X164277364Y-112518000D01*
X164334567Y-112731486D01*
X164334570Y-112731492D01*
X164434399Y-112945578D01*
X164569894Y-113139082D01*
X164736917Y-113306105D01*
X164930421Y-113441600D01*
X165144507Y-113541429D01*
X165144516Y-113541433D01*
X165358000Y-113598634D01*
X165358000Y-112701012D01*
X165415007Y-112733925D01*
X165542174Y-112768000D01*
X165673826Y-112768000D01*
X165800993Y-112733925D01*
X165858000Y-112701012D01*
X165858000Y-113598633D01*
X166071483Y-113541433D01*
X166071492Y-113541429D01*
X166285578Y-113441600D01*
X166479082Y-113306105D01*
X166646105Y-113139082D01*
X166776119Y-112953405D01*
X166830696Y-112909781D01*
X166900195Y-112902588D01*
X166962549Y-112934110D01*
X166979269Y-112953405D01*
X167109505Y-113139401D01*
X167276599Y-113306495D01*
X167373384Y-113374265D01*
X167470165Y-113442032D01*
X167470167Y-113442033D01*
X167470170Y-113442035D01*
X167684337Y-113541903D01*
X167912592Y-113603063D01*
X168089034Y-113618500D01*
X168147999Y-113623659D01*
X168148000Y-113623659D01*
X168148001Y-113623659D01*
X168206966Y-113618500D01*
X168383408Y-113603063D01*
X168611663Y-113541903D01*
X168825830Y-113442035D01*
X169019401Y-113306495D01*
X169186495Y-113139401D01*
X169316425Y-112953842D01*
X169371002Y-112910217D01*
X169440500Y-112903023D01*
X169502855Y-112934546D01*
X169519575Y-112953842D01*
X169649281Y-113139082D01*
X169649505Y-113139401D01*
X169816599Y-113306495D01*
X169913384Y-113374265D01*
X170010165Y-113442032D01*
X170010167Y-113442033D01*
X170010170Y-113442035D01*
X170224337Y-113541903D01*
X170452592Y-113603063D01*
X170629034Y-113618500D01*
X170687999Y-113623659D01*
X170688000Y-113623659D01*
X170688001Y-113623659D01*
X170746966Y-113618500D01*
X170923408Y-113603063D01*
X171151663Y-113541903D01*
X171365830Y-113442035D01*
X171559401Y-113306495D01*
X171726495Y-113139401D01*
X171856425Y-112953842D01*
X171911002Y-112910217D01*
X171980500Y-112903023D01*
X172042855Y-112934546D01*
X172059575Y-112953842D01*
X172189281Y-113139082D01*
X172189505Y-113139401D01*
X172356599Y-113306495D01*
X172453384Y-113374265D01*
X172550165Y-113442032D01*
X172550167Y-113442033D01*
X172550170Y-113442035D01*
X172764337Y-113541903D01*
X172992592Y-113603063D01*
X173169034Y-113618500D01*
X173227999Y-113623659D01*
X173228000Y-113623659D01*
X173228001Y-113623659D01*
X173286966Y-113618500D01*
X173463408Y-113603063D01*
X173691663Y-113541903D01*
X173905830Y-113442035D01*
X174099401Y-113306495D01*
X174266495Y-113139401D01*
X174396425Y-112953842D01*
X174451002Y-112910217D01*
X174520500Y-112903023D01*
X174582855Y-112934546D01*
X174599575Y-112953842D01*
X174729281Y-113139082D01*
X174729505Y-113139401D01*
X174896599Y-113306495D01*
X174993384Y-113374265D01*
X175090165Y-113442032D01*
X175090167Y-113442033D01*
X175090170Y-113442035D01*
X175304337Y-113541903D01*
X175532592Y-113603063D01*
X175709034Y-113618500D01*
X175767999Y-113623659D01*
X175768000Y-113623659D01*
X175768001Y-113623659D01*
X175826966Y-113618500D01*
X176003408Y-113603063D01*
X176231663Y-113541903D01*
X176445830Y-113442035D01*
X176639401Y-113306495D01*
X176761329Y-113184566D01*
X176822648Y-113151084D01*
X176892340Y-113156068D01*
X176948274Y-113197939D01*
X176965189Y-113228917D01*
X177014202Y-113360328D01*
X177014206Y-113360335D01*
X177100452Y-113475544D01*
X177100455Y-113475547D01*
X177215664Y-113561793D01*
X177215671Y-113561797D01*
X177350517Y-113612091D01*
X177350516Y-113612091D01*
X177357444Y-113612835D01*
X177410127Y-113618500D01*
X179205872Y-113618499D01*
X179265483Y-113612091D01*
X179400331Y-113561796D01*
X179515546Y-113475546D01*
X179601796Y-113360331D01*
X179652091Y-113225483D01*
X179658500Y-113165873D01*
X179658499Y-111526713D01*
X193213500Y-111526713D01*
X193213500Y-111739286D01*
X193233870Y-111867901D01*
X193246754Y-111949243D01*
X193287617Y-112075007D01*
X193312444Y-112151414D01*
X193408951Y-112340820D01*
X193533890Y-112512786D01*
X193684213Y-112663109D01*
X193856179Y-112788048D01*
X193856181Y-112788049D01*
X193856184Y-112788051D01*
X194045588Y-112884557D01*
X194247757Y-112950246D01*
X194457713Y-112983500D01*
X194457714Y-112983500D01*
X194670286Y-112983500D01*
X194670287Y-112983500D01*
X194880243Y-112950246D01*
X195082412Y-112884557D01*
X195271816Y-112788051D01*
X195349428Y-112731663D01*
X195443786Y-112663109D01*
X195443788Y-112663106D01*
X195443792Y-112663104D01*
X195594104Y-112512792D01*
X195594106Y-112512788D01*
X195594109Y-112512786D01*
X195719048Y-112340820D01*
X195719047Y-112340820D01*
X195719051Y-112340816D01*
X195815557Y-112151412D01*
X195881246Y-111949243D01*
X195914500Y-111739287D01*
X195914500Y-111526713D01*
X195881246Y-111316757D01*
X195815557Y-111114588D01*
X195719051Y-110925184D01*
X195719049Y-110925181D01*
X195719048Y-110925179D01*
X195594109Y-110753213D01*
X195443786Y-110602890D01*
X195271820Y-110477951D01*
X195082414Y-110381444D01*
X195082413Y-110381443D01*
X195082412Y-110381443D01*
X194880243Y-110315754D01*
X194880241Y-110315753D01*
X194880240Y-110315753D01*
X194718957Y-110290208D01*
X194670287Y-110282500D01*
X194457713Y-110282500D01*
X194409042Y-110290208D01*
X194247760Y-110315753D01*
X194045585Y-110381444D01*
X193856179Y-110477951D01*
X193684213Y-110602890D01*
X193533890Y-110753213D01*
X193408951Y-110925179D01*
X193312444Y-111114585D01*
X193246753Y-111316760D01*
X193213500Y-111526713D01*
X179658499Y-111526713D01*
X179658499Y-111370128D01*
X179652091Y-111310517D01*
X179650810Y-111307083D01*
X179601797Y-111175671D01*
X179601793Y-111175664D01*
X179515547Y-111060455D01*
X179515544Y-111060452D01*
X179400335Y-110974206D01*
X179400328Y-110974202D01*
X179265482Y-110923908D01*
X179265483Y-110923908D01*
X179205883Y-110917501D01*
X179205881Y-110917500D01*
X179205873Y-110917500D01*
X179205864Y-110917500D01*
X177410129Y-110917500D01*
X177410123Y-110917501D01*
X177350516Y-110923908D01*
X177215671Y-110974202D01*
X177215664Y-110974206D01*
X177100455Y-111060452D01*
X177100452Y-111060455D01*
X177014206Y-111175664D01*
X177014203Y-111175669D01*
X176965189Y-111307083D01*
X176923317Y-111363016D01*
X176857853Y-111387433D01*
X176789580Y-111372581D01*
X176761326Y-111351430D01*
X176639402Y-111229506D01*
X176639395Y-111229501D01*
X176445834Y-111093967D01*
X176445830Y-111093965D01*
X176445828Y-111093964D01*
X176231663Y-110994097D01*
X176231659Y-110994096D01*
X176231655Y-110994094D01*
X176003413Y-110932938D01*
X176003403Y-110932936D01*
X175768001Y-110912341D01*
X175767999Y-110912341D01*
X175532596Y-110932936D01*
X175532586Y-110932938D01*
X175304344Y-110994094D01*
X175304335Y-110994098D01*
X175090171Y-111093964D01*
X175090169Y-111093965D01*
X174896597Y-111229505D01*
X174729505Y-111396597D01*
X174599575Y-111582158D01*
X174544998Y-111625783D01*
X174475500Y-111632977D01*
X174413145Y-111601454D01*
X174396425Y-111582158D01*
X174266494Y-111396597D01*
X174099402Y-111229506D01*
X174099395Y-111229501D01*
X173905834Y-111093967D01*
X173905830Y-111093965D01*
X173905828Y-111093964D01*
X173691663Y-110994097D01*
X173691659Y-110994096D01*
X173691655Y-110994094D01*
X173463413Y-110932938D01*
X173463403Y-110932936D01*
X173228001Y-110912341D01*
X173227999Y-110912341D01*
X172992596Y-110932936D01*
X172992586Y-110932938D01*
X172764344Y-110994094D01*
X172764335Y-110994098D01*
X172550171Y-111093964D01*
X172550169Y-111093965D01*
X172356597Y-111229505D01*
X172189505Y-111396597D01*
X172059575Y-111582158D01*
X172004998Y-111625783D01*
X171935500Y-111632977D01*
X171873145Y-111601454D01*
X171856425Y-111582158D01*
X171726494Y-111396597D01*
X171559402Y-111229506D01*
X171559395Y-111229501D01*
X171365834Y-111093967D01*
X171365830Y-111093965D01*
X171365828Y-111093964D01*
X171151663Y-110994097D01*
X171151659Y-110994096D01*
X171151655Y-110994094D01*
X170923413Y-110932938D01*
X170923403Y-110932936D01*
X170688001Y-110912341D01*
X170687999Y-110912341D01*
X170452596Y-110932936D01*
X170452586Y-110932938D01*
X170224344Y-110994094D01*
X170224335Y-110994098D01*
X170010171Y-111093964D01*
X170010169Y-111093965D01*
X169816597Y-111229505D01*
X169649505Y-111396597D01*
X169519575Y-111582158D01*
X169464998Y-111625783D01*
X169395500Y-111632977D01*
X169333145Y-111601454D01*
X169316425Y-111582158D01*
X169186494Y-111396597D01*
X169019402Y-111229506D01*
X169019395Y-111229501D01*
X168825834Y-111093967D01*
X168825830Y-111093965D01*
X168825828Y-111093964D01*
X168611663Y-110994097D01*
X168611659Y-110994096D01*
X168611655Y-110994094D01*
X168383413Y-110932938D01*
X168383403Y-110932936D01*
X168148001Y-110912341D01*
X168147999Y-110912341D01*
X167912596Y-110932936D01*
X167912586Y-110932938D01*
X167684344Y-110994094D01*
X167684335Y-110994098D01*
X167470171Y-111093964D01*
X167470169Y-111093965D01*
X167276597Y-111229505D01*
X167109508Y-111396594D01*
X166979269Y-111582595D01*
X166924692Y-111626219D01*
X166855193Y-111633412D01*
X166792839Y-111601890D01*
X166776119Y-111582594D01*
X166646113Y-111396926D01*
X166646108Y-111396920D01*
X166479082Y-111229894D01*
X166285578Y-111094399D01*
X166071492Y-110994570D01*
X166071486Y-110994567D01*
X165858000Y-110937364D01*
X165858000Y-111834988D01*
X165800993Y-111802075D01*
X165673826Y-111768000D01*
X165542174Y-111768000D01*
X165415007Y-111802075D01*
X165358000Y-111834988D01*
X165358000Y-110937364D01*
X165357999Y-110937364D01*
X165144513Y-110994567D01*
X165144507Y-110994570D01*
X164930422Y-111094399D01*
X164930420Y-111094400D01*
X164736926Y-111229886D01*
X164736920Y-111229891D01*
X164569891Y-111396920D01*
X164569886Y-111396926D01*
X164434400Y-111590420D01*
X164434399Y-111590422D01*
X164334570Y-111804507D01*
X164334567Y-111804513D01*
X164277364Y-112017999D01*
X139629471Y-112017999D01*
X139653500Y-111866287D01*
X139653500Y-111653713D01*
X139620246Y-111443757D01*
X139554557Y-111241588D01*
X139458051Y-111052184D01*
X139458049Y-111052181D01*
X139458048Y-111052179D01*
X139333109Y-110880213D01*
X139182786Y-110729890D01*
X139010820Y-110604951D01*
X138821414Y-110508444D01*
X138821413Y-110508443D01*
X138821412Y-110508443D01*
X138619243Y-110442754D01*
X138619241Y-110442753D01*
X138619240Y-110442753D01*
X138457957Y-110417208D01*
X138409287Y-110409500D01*
X138196713Y-110409500D01*
X138148042Y-110417208D01*
X137986760Y-110442753D01*
X137784585Y-110508444D01*
X137595179Y-110604951D01*
X137423213Y-110729890D01*
X137272890Y-110880213D01*
X137147951Y-111052179D01*
X137051444Y-111241585D01*
X136985753Y-111443760D01*
X136952500Y-111653713D01*
X134104500Y-111653713D01*
X134104500Y-106077543D01*
X159499499Y-106077543D01*
X159537947Y-106270829D01*
X159537950Y-106270839D01*
X159613364Y-106452907D01*
X159613371Y-106452920D01*
X159722860Y-106616781D01*
X159722863Y-106616785D01*
X159862214Y-106756136D01*
X159862218Y-106756139D01*
X160026079Y-106865628D01*
X160026092Y-106865635D01*
X160208160Y-106941049D01*
X160208165Y-106941051D01*
X160208169Y-106941051D01*
X160208170Y-106941052D01*
X160401456Y-106979500D01*
X160401459Y-106979500D01*
X161619542Y-106979500D01*
X161638870Y-106975655D01*
X161716188Y-106960275D01*
X161812836Y-106941051D01*
X161866165Y-106918961D01*
X161994914Y-106865632D01*
X162158782Y-106756139D01*
X162298139Y-106616782D01*
X162298140Y-106616779D01*
X162305206Y-106609714D01*
X162305208Y-106609710D01*
X163777139Y-105137781D01*
X163886631Y-104973914D01*
X163962051Y-104791836D01*
X164000500Y-104598540D01*
X164000500Y-104401460D01*
X164000500Y-104401457D01*
X164000499Y-104401455D01*
X163988351Y-104340382D01*
X163962051Y-104208164D01*
X163886631Y-104026086D01*
X163886629Y-104026083D01*
X163886627Y-104026079D01*
X163777139Y-103862219D01*
X163777136Y-103862215D01*
X163637784Y-103722863D01*
X163637780Y-103722860D01*
X163473920Y-103613372D01*
X163473910Y-103613367D01*
X163291836Y-103537949D01*
X163291828Y-103537947D01*
X163098543Y-103499500D01*
X163098540Y-103499500D01*
X162901460Y-103499500D01*
X162901457Y-103499500D01*
X162708171Y-103537947D01*
X162708163Y-103537949D01*
X162526089Y-103613367D01*
X162526079Y-103613372D01*
X162362219Y-103722860D01*
X162362215Y-103722863D01*
X161142899Y-104942181D01*
X161081576Y-104975666D01*
X161055218Y-104978500D01*
X160401457Y-104978500D01*
X160208170Y-105016947D01*
X160208160Y-105016950D01*
X160026092Y-105092364D01*
X160026079Y-105092371D01*
X159862218Y-105201860D01*
X159862214Y-105201863D01*
X159722863Y-105341214D01*
X159722860Y-105341218D01*
X159613371Y-105505079D01*
X159613364Y-105505092D01*
X159537950Y-105687160D01*
X159537947Y-105687170D01*
X159499500Y-105880456D01*
X159499500Y-105880459D01*
X159499500Y-106077541D01*
X159499500Y-106077543D01*
X159499499Y-106077543D01*
X134104500Y-106077543D01*
X134104500Y-93598543D01*
X145749499Y-93598543D01*
X145787947Y-93791829D01*
X145787950Y-93791839D01*
X145863364Y-93973907D01*
X145863371Y-93973920D01*
X145972860Y-94137781D01*
X145972863Y-94137785D01*
X146112214Y-94277136D01*
X146112218Y-94277139D01*
X146276079Y-94386628D01*
X146276092Y-94386635D01*
X146458160Y-94462049D01*
X146458165Y-94462051D01*
X146458169Y-94462051D01*
X146458170Y-94462052D01*
X146651456Y-94500500D01*
X146651459Y-94500500D01*
X150534218Y-94500500D01*
X150601257Y-94520185D01*
X150621899Y-94536819D01*
X157372898Y-101287819D01*
X157406383Y-101349142D01*
X157401399Y-101418834D01*
X157359527Y-101474767D01*
X157294063Y-101499184D01*
X157285217Y-101499500D01*
X153049972Y-101499500D01*
X153009017Y-101492542D01*
X152929254Y-101464631D01*
X152929249Y-101464630D01*
X152750004Y-101444435D01*
X152749996Y-101444435D01*
X152570750Y-101464630D01*
X152570745Y-101464631D01*
X152400476Y-101524211D01*
X152247737Y-101620184D01*
X152120184Y-101747737D01*
X152024211Y-101900476D01*
X151964631Y-102070745D01*
X151964630Y-102070749D01*
X151944959Y-102245341D01*
X151917892Y-102309755D01*
X151860297Y-102349310D01*
X151790461Y-102351447D01*
X151734058Y-102319138D01*
X150137784Y-100722863D01*
X150137780Y-100722860D01*
X149973920Y-100613372D01*
X149973910Y-100613367D01*
X149791836Y-100537949D01*
X149791828Y-100537947D01*
X149598543Y-100499500D01*
X149598540Y-100499500D01*
X149401460Y-100499500D01*
X149401457Y-100499500D01*
X149208171Y-100537947D01*
X149208163Y-100537949D01*
X149026089Y-100613367D01*
X149026079Y-100613372D01*
X148862219Y-100722860D01*
X148862215Y-100722863D01*
X148722863Y-100862215D01*
X148722860Y-100862219D01*
X148613372Y-101026079D01*
X148613367Y-101026089D01*
X148537949Y-101208163D01*
X148537947Y-101208171D01*
X148499500Y-101401455D01*
X148499500Y-101598544D01*
X148537947Y-101791828D01*
X148537949Y-101791836D01*
X148613367Y-101973910D01*
X148613372Y-101973920D01*
X148722860Y-102137780D01*
X148722863Y-102137784D01*
X152149978Y-105564899D01*
X152149982Y-105564902D01*
X152313842Y-105674390D01*
X152313846Y-105674392D01*
X152313849Y-105674394D01*
X152495927Y-105749814D01*
X152689218Y-105788262D01*
X152689221Y-105788263D01*
X152689223Y-105788263D01*
X152886305Y-105788263D01*
X152886306Y-105788262D01*
X153079599Y-105749814D01*
X153261677Y-105674394D01*
X153425544Y-105564902D01*
X153564902Y-105425544D01*
X153674394Y-105261677D01*
X153749814Y-105079599D01*
X153788263Y-104886303D01*
X153788263Y-104689223D01*
X153788263Y-104689220D01*
X153788262Y-104689218D01*
X153770225Y-104598540D01*
X153749814Y-104495927D01*
X153674394Y-104313849D01*
X153674392Y-104313846D01*
X153674390Y-104313842D01*
X153564902Y-104149982D01*
X153564899Y-104149978D01*
X152680861Y-103265941D01*
X152647376Y-103204618D01*
X152652360Y-103134927D01*
X152694232Y-103078993D01*
X152754658Y-103055040D01*
X152782573Y-103051894D01*
X152929249Y-103035369D01*
X152929252Y-103035368D01*
X152929255Y-103035368D01*
X153009017Y-103007457D01*
X153049972Y-103000500D01*
X159020976Y-103000500D01*
X159127073Y-102979395D01*
X159165969Y-102971658D01*
X159302551Y-102915084D01*
X159355333Y-102879816D01*
X159425472Y-102832952D01*
X160094762Y-102163659D01*
X160156082Y-102130177D01*
X160225773Y-102135161D01*
X160281704Y-102177030D01*
X160281707Y-102177033D01*
X160288454Y-102186046D01*
X160288455Y-102186047D01*
X160403664Y-102272293D01*
X160403671Y-102272297D01*
X160538517Y-102322591D01*
X160538516Y-102322591D01*
X160545444Y-102323335D01*
X160598127Y-102329000D01*
X162393872Y-102328999D01*
X162453483Y-102322591D01*
X162588331Y-102272296D01*
X162703546Y-102186046D01*
X162789796Y-102070831D01*
X162840091Y-101935983D01*
X162846500Y-101876373D01*
X162846499Y-100080628D01*
X162840091Y-100021017D01*
X162813882Y-99950748D01*
X162789797Y-99886171D01*
X162789793Y-99886164D01*
X162703547Y-99770955D01*
X162703544Y-99770952D01*
X162588335Y-99684706D01*
X162588328Y-99684702D01*
X162456917Y-99635689D01*
X162400983Y-99593818D01*
X162376566Y-99528353D01*
X162391418Y-99460080D01*
X162412563Y-99431832D01*
X162534495Y-99309901D01*
X162670035Y-99116330D01*
X162769903Y-98902163D01*
X162831063Y-98673908D01*
X162851659Y-98438500D01*
X162831063Y-98203092D01*
X162769903Y-97974837D01*
X162670035Y-97760671D01*
X162637246Y-97713842D01*
X162534494Y-97567097D01*
X162367402Y-97400006D01*
X162367396Y-97400001D01*
X162181842Y-97270075D01*
X162138217Y-97215498D01*
X162131023Y-97146000D01*
X162162546Y-97083645D01*
X162181842Y-97066925D01*
X162217887Y-97041686D01*
X162367401Y-96936995D01*
X162534495Y-96769901D01*
X162670035Y-96576330D01*
X162769903Y-96362163D01*
X162831063Y-96133908D01*
X162851659Y-95898500D01*
X162831063Y-95663092D01*
X162769903Y-95434837D01*
X162670035Y-95220671D01*
X162637246Y-95173842D01*
X162534494Y-95027097D01*
X162367402Y-94860006D01*
X162367395Y-94860001D01*
X162173834Y-94724467D01*
X162173830Y-94724465D01*
X162043637Y-94663755D01*
X161959663Y-94624597D01*
X161959659Y-94624596D01*
X161959655Y-94624594D01*
X161731413Y-94563438D01*
X161731403Y-94563436D01*
X161496001Y-94542841D01*
X161495999Y-94542841D01*
X161260596Y-94563436D01*
X161260586Y-94563438D01*
X161032344Y-94624594D01*
X161032335Y-94624598D01*
X160818171Y-94724464D01*
X160818169Y-94724465D01*
X160624597Y-94860005D01*
X160457505Y-95027097D01*
X160321965Y-95220669D01*
X160321964Y-95220671D01*
X160222098Y-95434835D01*
X160222094Y-95434844D01*
X160160938Y-95663086D01*
X160160936Y-95663096D01*
X160140341Y-95898499D01*
X160140341Y-95898500D01*
X160160936Y-96133903D01*
X160160938Y-96133913D01*
X160222094Y-96362155D01*
X160222096Y-96362159D01*
X160222097Y-96362163D01*
X160236466Y-96392977D01*
X160321965Y-96576330D01*
X160321967Y-96576334D01*
X160457501Y-96769895D01*
X160457506Y-96769902D01*
X160624597Y-96936993D01*
X160624603Y-96936998D01*
X160810158Y-97066925D01*
X160853783Y-97121502D01*
X160860977Y-97191000D01*
X160829454Y-97253355D01*
X160810158Y-97270075D01*
X160624597Y-97400005D01*
X160457505Y-97567097D01*
X160321965Y-97760669D01*
X160321963Y-97760673D01*
X160317321Y-97770627D01*
X160271144Y-97823062D01*
X160203949Y-97842209D01*
X160137070Y-97821988D01*
X160117262Y-97805894D01*
X155741717Y-93430349D01*
X155724404Y-93408640D01*
X155719890Y-93401456D01*
X155625816Y-93251738D01*
X155498262Y-93124184D01*
X155440047Y-93087605D01*
X155345521Y-93028210D01*
X155175249Y-92968630D01*
X155106616Y-92960897D01*
X155042202Y-92933830D01*
X155002647Y-92876235D01*
X154996500Y-92837677D01*
X154996500Y-89866229D01*
X155016185Y-89799190D01*
X155032815Y-89778552D01*
X155308061Y-89503305D01*
X155344134Y-89480655D01*
X155343246Y-89478811D01*
X155349518Y-89475790D01*
X155349522Y-89475789D01*
X155502262Y-89379816D01*
X155629816Y-89252262D01*
X155725789Y-89099522D01*
X155785368Y-88929255D01*
X155785369Y-88929249D01*
X155805565Y-88750003D01*
X155805565Y-88749996D01*
X155785369Y-88570750D01*
X155785368Y-88570745D01*
X155773419Y-88536597D01*
X155725789Y-88400478D01*
X155629816Y-88247738D01*
X155502262Y-88120184D01*
X155349523Y-88024211D01*
X155179254Y-87964631D01*
X155179249Y-87964630D01*
X155000004Y-87944435D01*
X154999996Y-87944435D01*
X154820750Y-87964630D01*
X154820745Y-87964631D01*
X154650476Y-88024211D01*
X154497737Y-88120184D01*
X154370184Y-88247737D01*
X154274211Y-88400478D01*
X154271188Y-88406756D01*
X154269362Y-88405876D01*
X154246693Y-88441937D01*
X153663047Y-89025584D01*
X153655574Y-89036770D01*
X153640336Y-89059576D01*
X153610524Y-89104192D01*
X153580914Y-89148507D01*
X153524343Y-89285082D01*
X153524340Y-89285092D01*
X153495500Y-89430079D01*
X153495500Y-94259258D01*
X153495537Y-94259444D01*
X153495528Y-94259544D01*
X153496097Y-94265322D01*
X153495001Y-94265429D01*
X153489311Y-94329036D01*
X153446448Y-94384214D01*
X153380559Y-94407459D01*
X153312562Y-94391392D01*
X153286239Y-94371318D01*
X151784209Y-92869289D01*
X151784206Y-92869285D01*
X151784206Y-92869286D01*
X151777139Y-92862219D01*
X151777139Y-92862218D01*
X151637782Y-92722861D01*
X151637781Y-92722860D01*
X151637780Y-92722859D01*
X151473920Y-92613371D01*
X151473911Y-92613366D01*
X151400655Y-92583023D01*
X151345165Y-92560038D01*
X151291836Y-92537949D01*
X151291832Y-92537948D01*
X151291828Y-92537946D01*
X151195188Y-92518724D01*
X151098544Y-92499500D01*
X151098541Y-92499500D01*
X146651459Y-92499500D01*
X146651457Y-92499500D01*
X146458170Y-92537947D01*
X146458160Y-92537950D01*
X146276092Y-92613364D01*
X146276079Y-92613371D01*
X146112218Y-92722860D01*
X146112214Y-92722863D01*
X145972863Y-92862214D01*
X145972860Y-92862218D01*
X145863371Y-93026079D01*
X145863364Y-93026092D01*
X145787950Y-93208160D01*
X145787947Y-93208170D01*
X145749500Y-93401456D01*
X145749500Y-93401459D01*
X145749500Y-93598541D01*
X145749500Y-93598543D01*
X145749499Y-93598543D01*
X134104500Y-93598543D01*
X134104500Y-85165376D01*
X155109815Y-85165376D01*
X155109815Y-85165383D01*
X155130010Y-85344629D01*
X155130011Y-85344634D01*
X155157922Y-85424397D01*
X155164880Y-85465352D01*
X155164880Y-85989298D01*
X155164880Y-85989300D01*
X155164879Y-85989300D01*
X155193720Y-86134287D01*
X155193723Y-86134297D01*
X155250294Y-86270872D01*
X155283192Y-86320107D01*
X155283193Y-86320110D01*
X155332426Y-86393794D01*
X155332432Y-86393801D01*
X155746692Y-86808060D01*
X155769356Y-86844123D01*
X155771186Y-86843242D01*
X155774208Y-86849516D01*
X155774210Y-86849519D01*
X155774211Y-86849522D01*
X155870184Y-87002262D01*
X155997738Y-87129816D01*
X156150478Y-87225789D01*
X156295422Y-87276507D01*
X156320745Y-87285368D01*
X156320750Y-87285369D01*
X156499996Y-87305565D01*
X156500000Y-87305565D01*
X156500004Y-87305565D01*
X156679249Y-87285369D01*
X156679252Y-87285368D01*
X156679255Y-87285368D01*
X156849522Y-87225789D01*
X157002262Y-87129816D01*
X157129816Y-87002262D01*
X157225789Y-86849522D01*
X157285368Y-86679255D01*
X157290626Y-86632592D01*
X157305565Y-86500003D01*
X157305565Y-86499996D01*
X157285369Y-86320750D01*
X157285368Y-86320745D01*
X157267917Y-86270872D01*
X157225789Y-86150478D01*
X157129816Y-85997738D01*
X157002262Y-85870184D01*
X156849522Y-85774211D01*
X156849519Y-85774210D01*
X156849516Y-85774208D01*
X156843242Y-85771186D01*
X156844123Y-85769356D01*
X156808060Y-85746692D01*
X156702199Y-85640831D01*
X156668714Y-85579508D01*
X156665880Y-85553150D01*
X156665880Y-85465352D01*
X156672838Y-85424397D01*
X156700748Y-85344634D01*
X156700749Y-85344629D01*
X156720945Y-85165383D01*
X156720945Y-85165376D01*
X156700749Y-84986130D01*
X156700748Y-84986125D01*
X156663549Y-84879816D01*
X156641169Y-84815858D01*
X156545196Y-84663118D01*
X156417642Y-84535564D01*
X156264903Y-84439591D01*
X156094634Y-84380011D01*
X156094629Y-84380010D01*
X155915384Y-84359815D01*
X155915376Y-84359815D01*
X155736130Y-84380010D01*
X155736125Y-84380011D01*
X155565856Y-84439591D01*
X155413117Y-84535564D01*
X155285564Y-84663117D01*
X155189591Y-84815856D01*
X155130011Y-84986125D01*
X155130010Y-84986130D01*
X155109815Y-85165376D01*
X134104500Y-85165376D01*
X134104500Y-74999996D01*
X155944435Y-74999996D01*
X155944435Y-75000003D01*
X155964630Y-75179249D01*
X155964631Y-75179254D01*
X156024211Y-75349523D01*
X156051841Y-75393495D01*
X156120184Y-75502262D01*
X156247738Y-75629816D01*
X156400478Y-75725789D01*
X156570745Y-75785368D01*
X156570750Y-75785369D01*
X156749996Y-75805565D01*
X156750000Y-75805565D01*
X156750004Y-75805565D01*
X156929249Y-75785369D01*
X156929252Y-75785368D01*
X156929255Y-75785368D01*
X157099522Y-75725789D01*
X157252262Y-75629816D01*
X157252267Y-75629810D01*
X157255097Y-75627555D01*
X157257275Y-75626665D01*
X157258158Y-75626111D01*
X157258255Y-75626265D01*
X157319783Y-75601145D01*
X157332412Y-75600500D01*
X158417588Y-75600500D01*
X158484627Y-75620185D01*
X158494903Y-75627555D01*
X158497736Y-75629814D01*
X158497738Y-75629816D01*
X158650478Y-75725789D01*
X158820745Y-75785368D01*
X158820750Y-75785369D01*
X158999996Y-75805565D01*
X159000000Y-75805565D01*
X159000004Y-75805565D01*
X159179249Y-75785369D01*
X159179252Y-75785368D01*
X159179255Y-75785368D01*
X159349522Y-75725789D01*
X159502262Y-75629816D01*
X159629816Y-75502262D01*
X159725789Y-75349522D01*
X159785368Y-75179255D01*
X159805565Y-75000000D01*
X159803816Y-74984478D01*
X159785369Y-74820750D01*
X159785368Y-74820745D01*
X159763250Y-74757535D01*
X159725789Y-74650478D01*
X159629816Y-74497738D01*
X159502262Y-74370184D01*
X159478095Y-74354999D01*
X159349523Y-74274211D01*
X159179254Y-74214631D01*
X159179249Y-74214630D01*
X159000004Y-74194435D01*
X158999996Y-74194435D01*
X158820750Y-74214630D01*
X158820745Y-74214631D01*
X158650476Y-74274211D01*
X158497736Y-74370185D01*
X158494903Y-74372445D01*
X158492724Y-74373334D01*
X158491842Y-74373889D01*
X158491744Y-74373734D01*
X158430217Y-74398855D01*
X158417588Y-74399500D01*
X157332412Y-74399500D01*
X157265373Y-74379815D01*
X157255097Y-74372445D01*
X157252263Y-74370185D01*
X157252262Y-74370184D01*
X157195496Y-74334515D01*
X157099523Y-74274211D01*
X156929254Y-74214631D01*
X156929249Y-74214630D01*
X156750004Y-74194435D01*
X156749996Y-74194435D01*
X156570750Y-74214630D01*
X156570745Y-74214631D01*
X156400476Y-74274211D01*
X156247737Y-74370184D01*
X156120184Y-74497737D01*
X156024211Y-74650476D01*
X155964631Y-74820745D01*
X155964630Y-74820750D01*
X155944435Y-74999996D01*
X134104500Y-74999996D01*
X134104500Y-69087996D01*
X157131935Y-69087996D01*
X157131935Y-69088003D01*
X157152130Y-69267249D01*
X157152131Y-69267254D01*
X157211711Y-69437523D01*
X157307684Y-69590262D01*
X157435238Y-69717816D01*
X157587978Y-69813789D01*
X157758245Y-69873368D01*
X157765474Y-69874182D01*
X157829888Y-69901246D01*
X157839276Y-69909722D01*
X158903224Y-70973669D01*
X158993831Y-71064276D01*
X158993832Y-71064277D01*
X159100366Y-71135461D01*
X159100375Y-71135466D01*
X159127192Y-71146574D01*
X159218756Y-71184501D01*
X159218760Y-71184501D01*
X159218761Y-71184502D01*
X159344428Y-71209500D01*
X159344431Y-71209500D01*
X164988192Y-71209500D01*
X165055231Y-71229185D01*
X165075873Y-71245819D01*
X166747524Y-72917470D01*
X166747530Y-72917475D01*
X166798415Y-72951473D01*
X166798418Y-72951476D01*
X166798419Y-72951476D01*
X166854066Y-72988658D01*
X166972449Y-73037694D01*
X166972453Y-73037694D01*
X166972454Y-73037695D01*
X167098121Y-73062693D01*
X167098124Y-73062693D01*
X168313306Y-73062693D01*
X168380345Y-73082378D01*
X168426100Y-73135182D01*
X168437306Y-73186693D01*
X168437306Y-74793241D01*
X168418300Y-74859213D01*
X168339591Y-74984476D01*
X168280011Y-75154745D01*
X168280010Y-75154750D01*
X168259815Y-75333996D01*
X168259815Y-75334003D01*
X168280010Y-75513249D01*
X168280011Y-75513254D01*
X168339591Y-75683523D01*
X168435565Y-75836263D01*
X168437825Y-75839097D01*
X168438714Y-75841275D01*
X168439269Y-75842158D01*
X168439114Y-75842255D01*
X168464235Y-75903783D01*
X168464880Y-75916412D01*
X168464880Y-77384523D01*
X168445195Y-77451562D01*
X168428561Y-77472204D01*
X166965584Y-78935181D01*
X166904261Y-78968666D01*
X166877903Y-78971500D01*
X166712052Y-78971500D01*
X166671097Y-78964542D01*
X166523160Y-78912776D01*
X166523155Y-78912775D01*
X166343910Y-78892580D01*
X166343902Y-78892580D01*
X166164656Y-78912775D01*
X166164651Y-78912776D01*
X165994382Y-78972356D01*
X165841643Y-79068329D01*
X165714090Y-79195882D01*
X165618117Y-79348621D01*
X165558537Y-79518890D01*
X165558536Y-79518895D01*
X165538341Y-79698141D01*
X165538341Y-79698148D01*
X165558536Y-79877394D01*
X165558537Y-79877399D01*
X165618117Y-80047668D01*
X165714090Y-80200407D01*
X165843396Y-80329713D01*
X165876881Y-80391036D01*
X165871897Y-80460728D01*
X165843396Y-80505075D01*
X164782361Y-81566110D01*
X164721038Y-81599595D01*
X164651346Y-81594611D01*
X164595413Y-81552739D01*
X164570996Y-81487275D01*
X164570680Y-81478429D01*
X164570680Y-80754412D01*
X164590365Y-80687373D01*
X164597735Y-80677097D01*
X164599990Y-80674267D01*
X164599996Y-80674262D01*
X164695969Y-80521522D01*
X164755548Y-80351255D01*
X164755549Y-80351249D01*
X164775745Y-80172003D01*
X164775745Y-80171996D01*
X164755549Y-79992750D01*
X164755548Y-79992745D01*
X164715187Y-79877400D01*
X164695969Y-79822478D01*
X164599996Y-79669738D01*
X164472442Y-79542184D01*
X164435370Y-79518890D01*
X164319703Y-79446211D01*
X164149434Y-79386631D01*
X164149429Y-79386630D01*
X163970184Y-79366435D01*
X163970176Y-79366435D01*
X163790930Y-79386630D01*
X163790925Y-79386631D01*
X163620656Y-79446211D01*
X163467917Y-79542184D01*
X163340364Y-79669737D01*
X163244391Y-79822476D01*
X163184811Y-79992745D01*
X163184810Y-79992750D01*
X163164615Y-80171996D01*
X163164615Y-80172003D01*
X163184810Y-80351249D01*
X163184811Y-80351254D01*
X163244391Y-80521523D01*
X163340365Y-80674263D01*
X163342625Y-80677097D01*
X163343514Y-80679275D01*
X163344069Y-80680158D01*
X163343914Y-80680255D01*
X163369035Y-80741783D01*
X163369680Y-80754412D01*
X163369680Y-81796587D01*
X163349995Y-81863626D01*
X163342630Y-81873896D01*
X163340366Y-81876734D01*
X163244391Y-82029476D01*
X163184811Y-82199745D01*
X163184810Y-82199750D01*
X163164615Y-82378996D01*
X163164615Y-82379003D01*
X163184810Y-82558249D01*
X163184813Y-82558262D01*
X163229002Y-82684545D01*
X163232564Y-82754324D01*
X163197836Y-82814951D01*
X163135842Y-82847179D01*
X163111961Y-82849500D01*
X161505068Y-82849500D01*
X161439096Y-82830494D01*
X161349522Y-82774210D01*
X161349518Y-82774209D01*
X161179262Y-82714633D01*
X161179249Y-82714630D01*
X161000004Y-82694435D01*
X161000001Y-82694435D01*
X161000000Y-82694435D01*
X160995854Y-82694902D01*
X160971238Y-82697675D01*
X160902417Y-82685618D01*
X160851039Y-82638268D01*
X160833416Y-82570657D01*
X160834138Y-82560570D01*
X160845457Y-82460110D01*
X160845457Y-82460104D01*
X160825261Y-82280858D01*
X160825260Y-82280853D01*
X160795292Y-82195209D01*
X160765681Y-82110586D01*
X160669708Y-81957846D01*
X160542154Y-81830292D01*
X160488513Y-81796587D01*
X160389415Y-81734319D01*
X160219146Y-81674739D01*
X160219141Y-81674738D01*
X160039896Y-81654543D01*
X160039888Y-81654543D01*
X159860642Y-81674738D01*
X159860637Y-81674739D01*
X159690368Y-81734319D01*
X159537629Y-81830292D01*
X159410076Y-81957845D01*
X159314103Y-82110584D01*
X159254523Y-82280853D01*
X159254522Y-82280858D01*
X159234327Y-82460104D01*
X159234327Y-82460111D01*
X159254522Y-82639357D01*
X159254523Y-82639362D01*
X159314103Y-82809631D01*
X159410077Y-82962371D01*
X159412337Y-82965205D01*
X159413226Y-82967383D01*
X159413781Y-82968266D01*
X159413626Y-82968363D01*
X159438747Y-83029891D01*
X159439392Y-83042520D01*
X159439392Y-83792352D01*
X159439391Y-83792370D01*
X159439391Y-83958076D01*
X159439390Y-83958076D01*
X159480315Y-84110809D01*
X159480317Y-84110812D01*
X159503231Y-84150499D01*
X159503232Y-84150501D01*
X159559367Y-84247731D01*
X159559373Y-84247739D01*
X159678241Y-84366607D01*
X159678247Y-84366612D01*
X159714181Y-84402546D01*
X159747666Y-84463869D01*
X159750500Y-84490227D01*
X159750500Y-85653448D01*
X159730815Y-85720487D01*
X159678011Y-85766242D01*
X159608853Y-85776186D01*
X159574096Y-85765830D01*
X159424497Y-85696071D01*
X159424486Y-85696067D01*
X159211000Y-85638864D01*
X159211000Y-86536488D01*
X159153993Y-86503575D01*
X159026826Y-86469500D01*
X158895174Y-86469500D01*
X158768007Y-86503575D01*
X158711000Y-86536488D01*
X158711000Y-85638864D01*
X158710999Y-85638864D01*
X158497513Y-85696067D01*
X158497507Y-85696070D01*
X158283422Y-85795899D01*
X158283420Y-85795900D01*
X158089926Y-85931386D01*
X158089920Y-85931391D01*
X157922891Y-86098420D01*
X157922886Y-86098426D01*
X157787400Y-86291920D01*
X157787399Y-86291922D01*
X157687570Y-86506007D01*
X157687567Y-86506013D01*
X157630364Y-86719499D01*
X157630364Y-86719500D01*
X158527988Y-86719500D01*
X158495075Y-86776507D01*
X158461000Y-86903674D01*
X158461000Y-87035326D01*
X158495075Y-87162493D01*
X158527988Y-87219500D01*
X157630364Y-87219500D01*
X157687567Y-87432986D01*
X157687570Y-87432992D01*
X157787399Y-87647078D01*
X157922894Y-87840582D01*
X158089917Y-88007605D01*
X158275595Y-88137619D01*
X158319219Y-88192196D01*
X158326412Y-88261695D01*
X158294890Y-88324049D01*
X158275595Y-88340769D01*
X158089594Y-88471008D01*
X157922505Y-88638097D01*
X157786965Y-88831669D01*
X157786964Y-88831671D01*
X157687098Y-89045835D01*
X157687094Y-89045844D01*
X157625938Y-89274086D01*
X157625936Y-89274096D01*
X157605341Y-89509499D01*
X157605341Y-89509500D01*
X157625936Y-89744903D01*
X157625938Y-89744913D01*
X157687094Y-89973155D01*
X157687096Y-89973159D01*
X157687097Y-89973163D01*
X157770155Y-90151281D01*
X157786965Y-90187330D01*
X157786967Y-90187334D01*
X157895281Y-90342021D01*
X157922505Y-90380901D01*
X158089599Y-90547995D01*
X158275265Y-90678000D01*
X158275594Y-90678230D01*
X158319219Y-90732807D01*
X158326413Y-90802305D01*
X158294890Y-90864660D01*
X158275595Y-90881380D01*
X158089922Y-91011390D01*
X158089920Y-91011391D01*
X157922891Y-91178420D01*
X157922886Y-91178426D01*
X157787400Y-91371920D01*
X157787399Y-91371922D01*
X157687570Y-91586007D01*
X157687567Y-91586013D01*
X157630364Y-91799499D01*
X157630364Y-91799500D01*
X158527988Y-91799500D01*
X158495075Y-91856507D01*
X158461000Y-91983674D01*
X158461000Y-92115326D01*
X158495075Y-92242493D01*
X158527988Y-92299500D01*
X157630364Y-92299500D01*
X157687567Y-92512986D01*
X157687570Y-92512992D01*
X157787399Y-92727078D01*
X157922894Y-92920582D01*
X158089917Y-93087605D01*
X158283421Y-93223100D01*
X158497507Y-93322929D01*
X158497516Y-93322933D01*
X158711000Y-93380134D01*
X158711000Y-92482512D01*
X158768007Y-92515425D01*
X158895174Y-92549500D01*
X159026826Y-92549500D01*
X159153993Y-92515425D01*
X159211000Y-92482512D01*
X159211000Y-93380133D01*
X159424483Y-93322933D01*
X159424492Y-93322929D01*
X159638578Y-93223100D01*
X159832082Y-93087605D01*
X159999105Y-92920582D01*
X160129425Y-92734468D01*
X160184002Y-92690844D01*
X160253501Y-92683651D01*
X160315855Y-92715173D01*
X160332575Y-92734468D01*
X160462894Y-92920582D01*
X160629917Y-93087605D01*
X160823421Y-93223100D01*
X161037507Y-93322929D01*
X161037516Y-93322933D01*
X161251000Y-93380134D01*
X161251000Y-92482512D01*
X161308007Y-92515425D01*
X161435174Y-92549500D01*
X161566826Y-92549500D01*
X161693993Y-92515425D01*
X161751000Y-92482512D01*
X161751000Y-93380133D01*
X161964483Y-93322933D01*
X161964492Y-93322929D01*
X162178578Y-93223100D01*
X162372082Y-93087605D01*
X162539105Y-92920582D01*
X162674600Y-92727078D01*
X162774429Y-92512992D01*
X162774432Y-92512986D01*
X162831636Y-92299500D01*
X161934012Y-92299500D01*
X161966925Y-92242493D01*
X162001000Y-92115326D01*
X162001000Y-91983674D01*
X161966925Y-91856507D01*
X161934012Y-91799500D01*
X162831636Y-91799500D01*
X162831635Y-91799499D01*
X162774432Y-91586013D01*
X162774429Y-91586007D01*
X162674600Y-91371922D01*
X162674599Y-91371920D01*
X162539113Y-91178426D01*
X162539108Y-91178420D01*
X162372082Y-91011394D01*
X162185968Y-90881075D01*
X162142344Y-90826498D01*
X162135151Y-90756999D01*
X162166673Y-90694645D01*
X162185968Y-90677925D01*
X162372082Y-90547605D01*
X162539105Y-90380582D01*
X162674600Y-90187078D01*
X162774429Y-89972992D01*
X162774432Y-89972986D01*
X162831636Y-89759500D01*
X161934012Y-89759500D01*
X161966925Y-89702493D01*
X162001000Y-89575326D01*
X162001000Y-89443674D01*
X161966925Y-89316507D01*
X161934012Y-89259500D01*
X162831636Y-89259500D01*
X162831635Y-89259499D01*
X162774432Y-89046013D01*
X162774430Y-89046007D01*
X162765523Y-89026907D01*
X162755030Y-88957829D01*
X162783548Y-88894045D01*
X162842024Y-88855804D01*
X162877904Y-88850500D01*
X162956293Y-88850500D01*
X163023332Y-88870185D01*
X163061287Y-88908528D01*
X163120184Y-89002262D01*
X163247738Y-89129816D01*
X163400478Y-89225789D01*
X163569928Y-89285082D01*
X163570745Y-89285368D01*
X163570750Y-89285369D01*
X163749996Y-89305565D01*
X163750000Y-89305565D01*
X163750004Y-89305565D01*
X163929249Y-89285369D01*
X163929252Y-89285368D01*
X163929255Y-89285368D01*
X164099522Y-89225789D01*
X164252262Y-89129816D01*
X164316809Y-89065268D01*
X164378128Y-89031786D01*
X164447820Y-89036770D01*
X164503754Y-89078641D01*
X164528171Y-89144105D01*
X164526982Y-89167161D01*
X164527409Y-89167199D01*
X164526937Y-89172591D01*
X164526937Y-89172592D01*
X164519333Y-89259500D01*
X164506341Y-89407999D01*
X164506341Y-89408000D01*
X164526936Y-89643403D01*
X164526938Y-89643413D01*
X164588094Y-89871655D01*
X164588096Y-89871659D01*
X164588097Y-89871663D01*
X164635428Y-89973164D01*
X164687965Y-90085830D01*
X164687967Y-90085834D01*
X164759036Y-90187330D01*
X164823501Y-90279396D01*
X164823506Y-90279402D01*
X164990597Y-90446493D01*
X164990603Y-90446498D01*
X165176158Y-90576425D01*
X165219783Y-90631002D01*
X165226977Y-90700500D01*
X165195454Y-90762855D01*
X165176158Y-90779575D01*
X164990597Y-90909505D01*
X164823505Y-91076597D01*
X164687965Y-91270169D01*
X164687964Y-91270171D01*
X164588098Y-91484335D01*
X164588094Y-91484344D01*
X164526938Y-91712586D01*
X164526936Y-91712596D01*
X164506341Y-91947999D01*
X164506341Y-91948000D01*
X164526936Y-92183403D01*
X164526938Y-92183413D01*
X164588094Y-92411655D01*
X164588096Y-92411659D01*
X164588097Y-92411663D01*
X164646986Y-92537950D01*
X164687965Y-92625830D01*
X164687967Y-92625834D01*
X164764034Y-92734468D01*
X164823501Y-92819396D01*
X164823506Y-92819402D01*
X164990597Y-92986493D01*
X164990603Y-92986498D01*
X165176158Y-93116425D01*
X165219783Y-93171002D01*
X165226977Y-93240500D01*
X165195454Y-93302855D01*
X165176158Y-93319575D01*
X164990597Y-93449505D01*
X164823505Y-93616597D01*
X164687965Y-93810169D01*
X164687964Y-93810171D01*
X164588098Y-94024335D01*
X164588094Y-94024344D01*
X164526938Y-94252586D01*
X164526936Y-94252596D01*
X164506341Y-94487999D01*
X164506341Y-94488000D01*
X164526936Y-94723403D01*
X164526938Y-94723413D01*
X164588094Y-94951655D01*
X164588096Y-94951659D01*
X164588097Y-94951663D01*
X164668004Y-95123023D01*
X164687965Y-95165830D01*
X164687967Y-95165834D01*
X164726365Y-95220671D01*
X164823501Y-95359396D01*
X164823506Y-95359402D01*
X164990597Y-95526493D01*
X164990603Y-95526498D01*
X165176158Y-95656425D01*
X165219783Y-95711002D01*
X165226977Y-95780500D01*
X165195454Y-95842855D01*
X165176158Y-95859575D01*
X164990597Y-95989505D01*
X164823505Y-96156597D01*
X164687965Y-96350169D01*
X164687964Y-96350171D01*
X164588098Y-96564335D01*
X164588094Y-96564344D01*
X164526938Y-96792586D01*
X164526936Y-96792596D01*
X164506341Y-97027999D01*
X164506341Y-97028000D01*
X164526936Y-97263403D01*
X164526938Y-97263413D01*
X164588094Y-97491655D01*
X164588096Y-97491659D01*
X164588097Y-97491663D01*
X164644975Y-97613638D01*
X164687965Y-97705830D01*
X164687967Y-97705834D01*
X164769300Y-97821988D01*
X164823501Y-97899396D01*
X164823506Y-97899402D01*
X164990597Y-98066493D01*
X164990603Y-98066498D01*
X165176158Y-98196425D01*
X165219783Y-98251002D01*
X165226977Y-98320500D01*
X165195454Y-98382855D01*
X165176158Y-98399575D01*
X164990597Y-98529505D01*
X164823505Y-98696597D01*
X164687965Y-98890169D01*
X164687964Y-98890171D01*
X164588098Y-99104335D01*
X164588094Y-99104344D01*
X164526938Y-99332586D01*
X164526936Y-99332596D01*
X164506341Y-99567999D01*
X164506341Y-99568000D01*
X164526936Y-99803403D01*
X164526938Y-99803413D01*
X164588094Y-100031655D01*
X164588096Y-100031659D01*
X164588097Y-100031663D01*
X164668004Y-100203023D01*
X164687965Y-100245830D01*
X164687967Y-100245834D01*
X164796281Y-100400521D01*
X164823501Y-100439396D01*
X164823506Y-100439402D01*
X164990597Y-100606493D01*
X164990603Y-100606498D01*
X165176158Y-100736425D01*
X165219783Y-100791002D01*
X165226977Y-100860500D01*
X165195454Y-100922855D01*
X165176158Y-100939575D01*
X164990597Y-101069505D01*
X164823505Y-101236597D01*
X164687965Y-101430169D01*
X164687964Y-101430171D01*
X164588098Y-101644335D01*
X164588094Y-101644344D01*
X164526938Y-101872586D01*
X164526936Y-101872596D01*
X164506341Y-102107999D01*
X164506341Y-102108000D01*
X164526936Y-102343403D01*
X164526938Y-102343413D01*
X164588094Y-102571655D01*
X164588096Y-102571659D01*
X164588097Y-102571663D01*
X164668004Y-102743023D01*
X164687965Y-102785830D01*
X164687967Y-102785834D01*
X164753788Y-102879835D01*
X164823501Y-102979396D01*
X164823506Y-102979402D01*
X164990597Y-103146493D01*
X164990603Y-103146498D01*
X165176158Y-103276425D01*
X165219783Y-103331002D01*
X165226977Y-103400500D01*
X165195454Y-103462855D01*
X165176158Y-103479575D01*
X164990597Y-103609505D01*
X164823505Y-103776597D01*
X164687965Y-103970169D01*
X164687964Y-103970171D01*
X164588098Y-104184335D01*
X164588094Y-104184344D01*
X164526938Y-104412586D01*
X164526936Y-104412596D01*
X164506341Y-104647999D01*
X164506341Y-104648000D01*
X164526936Y-104883403D01*
X164526938Y-104883413D01*
X164588094Y-105111655D01*
X164588096Y-105111659D01*
X164588097Y-105111663D01*
X164629335Y-105200098D01*
X164687965Y-105325830D01*
X164687967Y-105325834D01*
X164796281Y-105480521D01*
X164823501Y-105519396D01*
X164823506Y-105519402D01*
X164990597Y-105686493D01*
X164990603Y-105686498D01*
X165176158Y-105816425D01*
X165219783Y-105871002D01*
X165226977Y-105940500D01*
X165195454Y-106002855D01*
X165176158Y-106019575D01*
X164990597Y-106149505D01*
X164823505Y-106316597D01*
X164687965Y-106510169D01*
X164687964Y-106510171D01*
X164588098Y-106724335D01*
X164588094Y-106724344D01*
X164526938Y-106952586D01*
X164526936Y-106952596D01*
X164506341Y-107187999D01*
X164506341Y-107188000D01*
X164526936Y-107423403D01*
X164526938Y-107423413D01*
X164588094Y-107651655D01*
X164588096Y-107651659D01*
X164588097Y-107651663D01*
X164592000Y-107660032D01*
X164687965Y-107865830D01*
X164687967Y-107865834D01*
X164796281Y-108020521D01*
X164823505Y-108059401D01*
X164990599Y-108226495D01*
X165022480Y-108248818D01*
X165058336Y-108273925D01*
X165101961Y-108328502D01*
X165109153Y-108398001D01*
X165077631Y-108460355D01*
X165017401Y-108495769D01*
X164987212Y-108499500D01*
X163901457Y-108499500D01*
X163708170Y-108537947D01*
X163708160Y-108537950D01*
X163526092Y-108613364D01*
X163526079Y-108613371D01*
X163362218Y-108722860D01*
X163362214Y-108722863D01*
X163222863Y-108862214D01*
X163222860Y-108862218D01*
X163113371Y-109026079D01*
X163113364Y-109026092D01*
X163037950Y-109208160D01*
X163037947Y-109208170D01*
X162999500Y-109401456D01*
X162999500Y-109401459D01*
X162999500Y-109598541D01*
X162999500Y-109598543D01*
X162999499Y-109598543D01*
X163037947Y-109791829D01*
X163037950Y-109791839D01*
X163113364Y-109973907D01*
X163113371Y-109973920D01*
X163222860Y-110137781D01*
X163222863Y-110137785D01*
X163362214Y-110277136D01*
X163362218Y-110277139D01*
X163526079Y-110386628D01*
X163526092Y-110386635D01*
X163708160Y-110462049D01*
X163708165Y-110462051D01*
X163708169Y-110462051D01*
X163708170Y-110462052D01*
X163901456Y-110500500D01*
X163901459Y-110500500D01*
X168623442Y-110500500D01*
X168655831Y-110494056D01*
X168736810Y-110477949D01*
X168816735Y-110462051D01*
X168870064Y-110439961D01*
X168998813Y-110386632D01*
X169162681Y-110277139D01*
X169302038Y-110137782D01*
X169302039Y-110137779D01*
X169309105Y-110130714D01*
X169309108Y-110130710D01*
X170887778Y-108552040D01*
X170887782Y-108552038D01*
X171027139Y-108412681D01*
X171136632Y-108248813D01*
X171189961Y-108120064D01*
X171212051Y-108066735D01*
X171250500Y-107873439D01*
X171250500Y-107676359D01*
X171250500Y-102199999D01*
X172139357Y-102199999D01*
X172139357Y-102200000D01*
X172159884Y-102421535D01*
X172159885Y-102421537D01*
X172220769Y-102635523D01*
X172220775Y-102635538D01*
X172319938Y-102834683D01*
X172319943Y-102834691D01*
X172454020Y-103012238D01*
X172618437Y-103162123D01*
X172618439Y-103162125D01*
X172807595Y-103279245D01*
X172807596Y-103279245D01*
X172807599Y-103279247D01*
X173015060Y-103359618D01*
X173233757Y-103400500D01*
X173233759Y-103400500D01*
X173456241Y-103400500D01*
X173456243Y-103400500D01*
X173674940Y-103359618D01*
X173882401Y-103279247D01*
X174071562Y-103162124D01*
X174235981Y-103012236D01*
X174370058Y-102834689D01*
X174469229Y-102635528D01*
X174475734Y-102612661D01*
X174513012Y-102553571D01*
X174576322Y-102524013D01*
X174645561Y-102533375D01*
X174698748Y-102578684D01*
X174714264Y-102612658D01*
X174720770Y-102635523D01*
X174720772Y-102635530D01*
X174720775Y-102635538D01*
X174819938Y-102834683D01*
X174819943Y-102834691D01*
X174954020Y-103012238D01*
X175118437Y-103162123D01*
X175118439Y-103162125D01*
X175307595Y-103279245D01*
X175307596Y-103279245D01*
X175307599Y-103279247D01*
X175515060Y-103359618D01*
X175733757Y-103400500D01*
X175733759Y-103400500D01*
X175956241Y-103400500D01*
X175956243Y-103400500D01*
X176174940Y-103359618D01*
X176382401Y-103279247D01*
X176571562Y-103162124D01*
X176735981Y-103012236D01*
X176870058Y-102834689D01*
X176969229Y-102635528D01*
X176975734Y-102612661D01*
X177013012Y-102553571D01*
X177076322Y-102524013D01*
X177145561Y-102533375D01*
X177198748Y-102578684D01*
X177214264Y-102612658D01*
X177220770Y-102635523D01*
X177220772Y-102635530D01*
X177220775Y-102635538D01*
X177319938Y-102834683D01*
X177319943Y-102834691D01*
X177454020Y-103012238D01*
X177618437Y-103162123D01*
X177618439Y-103162125D01*
X177807595Y-103279245D01*
X177807596Y-103279245D01*
X177807599Y-103279247D01*
X178015060Y-103359618D01*
X178233757Y-103400500D01*
X178233759Y-103400500D01*
X178456240Y-103400500D01*
X178456243Y-103400500D01*
X178597718Y-103374053D01*
X178667229Y-103381084D01*
X178721908Y-103424581D01*
X178744391Y-103490735D01*
X178744500Y-103495942D01*
X178744500Y-104175500D01*
X178724815Y-104242539D01*
X178672011Y-104288294D01*
X178620500Y-104299500D01*
X177844998Y-104299500D01*
X177844980Y-104299501D01*
X177742203Y-104310000D01*
X177742200Y-104310001D01*
X177575668Y-104365185D01*
X177575663Y-104365187D01*
X177426342Y-104457289D01*
X177302289Y-104581342D01*
X177210187Y-104730663D01*
X177210185Y-104730668D01*
X177189919Y-104791828D01*
X177158613Y-104886305D01*
X177155001Y-104897204D01*
X177155000Y-104897205D01*
X177152710Y-104919627D01*
X177126313Y-104984319D01*
X177069132Y-105024470D01*
X176999321Y-105027333D01*
X176939045Y-104991998D01*
X176918352Y-104962296D01*
X176870061Y-104865316D01*
X176870056Y-104865308D01*
X176735979Y-104687761D01*
X176571562Y-104537876D01*
X176571560Y-104537874D01*
X176382404Y-104420754D01*
X176382398Y-104420752D01*
X176174940Y-104340382D01*
X175956243Y-104299500D01*
X175733757Y-104299500D01*
X175515060Y-104340382D01*
X175383864Y-104391207D01*
X175307601Y-104420752D01*
X175307595Y-104420754D01*
X175118439Y-104537874D01*
X175118437Y-104537876D01*
X174954020Y-104687761D01*
X174819943Y-104865308D01*
X174819938Y-104865316D01*
X174720775Y-105064461D01*
X174720769Y-105064476D01*
X174714266Y-105087335D01*
X174676987Y-105146429D01*
X174613677Y-105175986D01*
X174544438Y-105166624D01*
X174491251Y-105121314D01*
X174475734Y-105087335D01*
X174469230Y-105064476D01*
X174469229Y-105064472D01*
X174450736Y-105027333D01*
X174370061Y-104865316D01*
X174370056Y-104865308D01*
X174235979Y-104687761D01*
X174071562Y-104537876D01*
X174071560Y-104537874D01*
X173882404Y-104420754D01*
X173882398Y-104420752D01*
X173674940Y-104340382D01*
X173456243Y-104299500D01*
X173233757Y-104299500D01*
X173015060Y-104340382D01*
X172883864Y-104391207D01*
X172807601Y-104420752D01*
X172807595Y-104420754D01*
X172618439Y-104537874D01*
X172618437Y-104537876D01*
X172454020Y-104687761D01*
X172319943Y-104865308D01*
X172319938Y-104865316D01*
X172220775Y-105064461D01*
X172220769Y-105064476D01*
X172159885Y-105278462D01*
X172159884Y-105278464D01*
X172139357Y-105499999D01*
X172139357Y-105500000D01*
X172159884Y-105721535D01*
X172159885Y-105721537D01*
X172220769Y-105935523D01*
X172220775Y-105935538D01*
X172319938Y-106134683D01*
X172319943Y-106134691D01*
X172454020Y-106312238D01*
X172618437Y-106462123D01*
X172618439Y-106462125D01*
X172807595Y-106579245D01*
X172807596Y-106579245D01*
X172807599Y-106579247D01*
X173015060Y-106659618D01*
X173233757Y-106700500D01*
X173233759Y-106700500D01*
X173456241Y-106700500D01*
X173456243Y-106700500D01*
X173674940Y-106659618D01*
X173882401Y-106579247D01*
X174071562Y-106462124D01*
X174235981Y-106312236D01*
X174370058Y-106134689D01*
X174469229Y-105935528D01*
X174475734Y-105912661D01*
X174513012Y-105853571D01*
X174576322Y-105824013D01*
X174645561Y-105833375D01*
X174698748Y-105878684D01*
X174714264Y-105912658D01*
X174720770Y-105935523D01*
X174720772Y-105935530D01*
X174720775Y-105935538D01*
X174819938Y-106134683D01*
X174819943Y-106134691D01*
X174954020Y-106312238D01*
X175118437Y-106462123D01*
X175118439Y-106462125D01*
X175307595Y-106579245D01*
X175307596Y-106579245D01*
X175307599Y-106579247D01*
X175515060Y-106659618D01*
X175733757Y-106700500D01*
X175733759Y-106700500D01*
X175956241Y-106700500D01*
X175956243Y-106700500D01*
X176174940Y-106659618D01*
X176382401Y-106579247D01*
X176571562Y-106462124D01*
X176735981Y-106312236D01*
X176870058Y-106134689D01*
X176871014Y-106132769D01*
X176918352Y-106037703D01*
X176965855Y-105986465D01*
X177033517Y-105969044D01*
X177099858Y-105990969D01*
X177143813Y-106045281D01*
X177152710Y-106080371D01*
X177155001Y-106102797D01*
X177155001Y-106102799D01*
X177196185Y-106227081D01*
X177210186Y-106269334D01*
X177302288Y-106418656D01*
X177426344Y-106542712D01*
X177575666Y-106634814D01*
X177742203Y-106689999D01*
X177844991Y-106700500D01*
X178845008Y-106700499D01*
X178845016Y-106700498D01*
X178845019Y-106700498D01*
X178901302Y-106694748D01*
X178947797Y-106689999D01*
X179114334Y-106634814D01*
X179263656Y-106542712D01*
X179387712Y-106418656D01*
X179479814Y-106269334D01*
X179534999Y-106102797D01*
X179545500Y-106000009D01*
X179545499Y-105200097D01*
X179565183Y-105133059D01*
X179581818Y-105112417D01*
X179677288Y-105016947D01*
X179825520Y-104868716D01*
X179904577Y-104731784D01*
X179945501Y-104579057D01*
X179945501Y-104420942D01*
X179945501Y-104413347D01*
X179945500Y-104413329D01*
X179945500Y-99515945D01*
X179945500Y-99515943D01*
X179904577Y-99363216D01*
X179886899Y-99332596D01*
X179825524Y-99226290D01*
X179825518Y-99226282D01*
X179746080Y-99146844D01*
X179712595Y-99085521D01*
X179710543Y-99073064D01*
X179700748Y-98986125D01*
X179641169Y-98815858D01*
X179638889Y-98812230D01*
X179583796Y-98724549D01*
X179545196Y-98663118D01*
X179417642Y-98535564D01*
X179381364Y-98512769D01*
X179264903Y-98439591D01*
X179094634Y-98380011D01*
X179094629Y-98380010D01*
X178915384Y-98359815D01*
X178915376Y-98359815D01*
X178736130Y-98380010D01*
X178736125Y-98380011D01*
X178565856Y-98439591D01*
X178413117Y-98535564D01*
X178285564Y-98663117D01*
X178189591Y-98815856D01*
X178130011Y-98986125D01*
X178130010Y-98986130D01*
X178109815Y-99165376D01*
X178109815Y-99165383D01*
X178130010Y-99344629D01*
X178130011Y-99344634D01*
X178189591Y-99514903D01*
X178285310Y-99667237D01*
X178285564Y-99667642D01*
X178413118Y-99795196D01*
X178565858Y-99891169D01*
X178661455Y-99924619D01*
X178718230Y-99965340D01*
X178743978Y-100030293D01*
X178744500Y-100041661D01*
X178744500Y-100904057D01*
X178724815Y-100971096D01*
X178672011Y-101016851D01*
X178602853Y-101026795D01*
X178597715Y-101025946D01*
X178456243Y-100999500D01*
X178233757Y-100999500D01*
X178015060Y-101040382D01*
X177883864Y-101091207D01*
X177807601Y-101120752D01*
X177807595Y-101120754D01*
X177618439Y-101237874D01*
X177618437Y-101237876D01*
X177454020Y-101387761D01*
X177319943Y-101565308D01*
X177319938Y-101565316D01*
X177220775Y-101764461D01*
X177220769Y-101764476D01*
X177214266Y-101787335D01*
X177176987Y-101846429D01*
X177113677Y-101875986D01*
X177044438Y-101866624D01*
X176991251Y-101821314D01*
X176975734Y-101787335D01*
X176969230Y-101764476D01*
X176969229Y-101764472D01*
X176969224Y-101764461D01*
X176870061Y-101565316D01*
X176870056Y-101565308D01*
X176735979Y-101387761D01*
X176571562Y-101237876D01*
X176571560Y-101237874D01*
X176382404Y-101120754D01*
X176382398Y-101120752D01*
X176174940Y-101040382D01*
X175956243Y-100999500D01*
X175733757Y-100999500D01*
X175515060Y-101040382D01*
X175383864Y-101091207D01*
X175307601Y-101120752D01*
X175307595Y-101120754D01*
X175118439Y-101237874D01*
X175118437Y-101237876D01*
X174954020Y-101387761D01*
X174819943Y-101565308D01*
X174819938Y-101565316D01*
X174720775Y-101764461D01*
X174720769Y-101764476D01*
X174714266Y-101787335D01*
X174676987Y-101846429D01*
X174613677Y-101875986D01*
X174544438Y-101866624D01*
X174491251Y-101821314D01*
X174475734Y-101787335D01*
X174469230Y-101764476D01*
X174469229Y-101764472D01*
X174469224Y-101764461D01*
X174370061Y-101565316D01*
X174370056Y-101565308D01*
X174235979Y-101387761D01*
X174071562Y-101237876D01*
X174071560Y-101237874D01*
X173882404Y-101120754D01*
X173882398Y-101120752D01*
X173674940Y-101040382D01*
X173456243Y-100999500D01*
X173233757Y-100999500D01*
X173015060Y-101040382D01*
X172883864Y-101091207D01*
X172807601Y-101120752D01*
X172807595Y-101120754D01*
X172618439Y-101237874D01*
X172618437Y-101237876D01*
X172454020Y-101387761D01*
X172319943Y-101565308D01*
X172319938Y-101565316D01*
X172220775Y-101764461D01*
X172220769Y-101764476D01*
X172159885Y-101978462D01*
X172159884Y-101978464D01*
X172139357Y-102199999D01*
X171250500Y-102199999D01*
X171250500Y-86867999D01*
X190668341Y-86867999D01*
X190668341Y-86868000D01*
X190688936Y-87103403D01*
X190688938Y-87103413D01*
X190750094Y-87331655D01*
X190750096Y-87331659D01*
X190750097Y-87331663D01*
X190754000Y-87340032D01*
X190849965Y-87545830D01*
X190849967Y-87545834D01*
X190937385Y-87670679D01*
X190985501Y-87739396D01*
X190985506Y-87739402D01*
X191152597Y-87906493D01*
X191152603Y-87906498D01*
X191338158Y-88036425D01*
X191381783Y-88091002D01*
X191388977Y-88160500D01*
X191357454Y-88222855D01*
X191338158Y-88239575D01*
X191152597Y-88369505D01*
X190985505Y-88536597D01*
X190849965Y-88730169D01*
X190849964Y-88730171D01*
X190750098Y-88944335D01*
X190750094Y-88944344D01*
X190688938Y-89172586D01*
X190688936Y-89172596D01*
X190668341Y-89407999D01*
X190668341Y-89408000D01*
X190688936Y-89643403D01*
X190688938Y-89643413D01*
X190750094Y-89871655D01*
X190750096Y-89871659D01*
X190750097Y-89871663D01*
X190797428Y-89973164D01*
X190849965Y-90085830D01*
X190849967Y-90085834D01*
X190921036Y-90187330D01*
X190985501Y-90279396D01*
X190985506Y-90279402D01*
X191152597Y-90446493D01*
X191152603Y-90446498D01*
X191338158Y-90576425D01*
X191381783Y-90631002D01*
X191388977Y-90700500D01*
X191357454Y-90762855D01*
X191338158Y-90779575D01*
X191152597Y-90909505D01*
X190985505Y-91076597D01*
X190849965Y-91270169D01*
X190849964Y-91270171D01*
X190750098Y-91484335D01*
X190750094Y-91484344D01*
X190688938Y-91712586D01*
X190688936Y-91712596D01*
X190668341Y-91947999D01*
X190668341Y-91948000D01*
X190688936Y-92183403D01*
X190688938Y-92183413D01*
X190750094Y-92411655D01*
X190750096Y-92411659D01*
X190750097Y-92411663D01*
X190808986Y-92537950D01*
X190849965Y-92625830D01*
X190849967Y-92625834D01*
X190926034Y-92734468D01*
X190985501Y-92819396D01*
X190985506Y-92819402D01*
X191152597Y-92986493D01*
X191152603Y-92986498D01*
X191338158Y-93116425D01*
X191381783Y-93171002D01*
X191388977Y-93240500D01*
X191357454Y-93302855D01*
X191338158Y-93319575D01*
X191152597Y-93449505D01*
X190985505Y-93616597D01*
X190849965Y-93810169D01*
X190849964Y-93810171D01*
X190750098Y-94024335D01*
X190750094Y-94024344D01*
X190688938Y-94252586D01*
X190688936Y-94252596D01*
X190668341Y-94487999D01*
X190668341Y-94488000D01*
X190688936Y-94723403D01*
X190688938Y-94723413D01*
X190750094Y-94951655D01*
X190750096Y-94951659D01*
X190750097Y-94951663D01*
X190830004Y-95123023D01*
X190849965Y-95165830D01*
X190849967Y-95165834D01*
X190888365Y-95220671D01*
X190985501Y-95359396D01*
X190985506Y-95359402D01*
X191152597Y-95526493D01*
X191152603Y-95526498D01*
X191338158Y-95656425D01*
X191381783Y-95711002D01*
X191388977Y-95780500D01*
X191357454Y-95842855D01*
X191338158Y-95859575D01*
X191152597Y-95989505D01*
X190985505Y-96156597D01*
X190849965Y-96350169D01*
X190849964Y-96350171D01*
X190750098Y-96564335D01*
X190750094Y-96564344D01*
X190688938Y-96792586D01*
X190688936Y-96792596D01*
X190668341Y-97027999D01*
X190668341Y-97028000D01*
X190688936Y-97263403D01*
X190688938Y-97263413D01*
X190750094Y-97491655D01*
X190750096Y-97491659D01*
X190750097Y-97491663D01*
X190806975Y-97613638D01*
X190849965Y-97705830D01*
X190849967Y-97705834D01*
X190931300Y-97821988D01*
X190985501Y-97899396D01*
X190985506Y-97899402D01*
X191152597Y-98066493D01*
X191152603Y-98066498D01*
X191338158Y-98196425D01*
X191381783Y-98251002D01*
X191388977Y-98320500D01*
X191357454Y-98382855D01*
X191338158Y-98399575D01*
X191152597Y-98529505D01*
X190985505Y-98696597D01*
X190849965Y-98890169D01*
X190849964Y-98890171D01*
X190750098Y-99104335D01*
X190750094Y-99104344D01*
X190688938Y-99332586D01*
X190688936Y-99332596D01*
X190668341Y-99567999D01*
X190668341Y-99568000D01*
X190688936Y-99803403D01*
X190688938Y-99803413D01*
X190750094Y-100031655D01*
X190750096Y-100031659D01*
X190750097Y-100031663D01*
X190830004Y-100203023D01*
X190849965Y-100245830D01*
X190849967Y-100245834D01*
X190958281Y-100400521D01*
X190985501Y-100439396D01*
X190985506Y-100439402D01*
X191152597Y-100606493D01*
X191152603Y-100606498D01*
X191338158Y-100736425D01*
X191381783Y-100791002D01*
X191388977Y-100860500D01*
X191357454Y-100922855D01*
X191338158Y-100939575D01*
X191152597Y-101069505D01*
X190985505Y-101236597D01*
X190849965Y-101430169D01*
X190849964Y-101430171D01*
X190750098Y-101644335D01*
X190750094Y-101644344D01*
X190688938Y-101872586D01*
X190688936Y-101872596D01*
X190668341Y-102107999D01*
X190668341Y-102108000D01*
X190688936Y-102343403D01*
X190688938Y-102343413D01*
X190750094Y-102571655D01*
X190750096Y-102571659D01*
X190750097Y-102571663D01*
X190830004Y-102743023D01*
X190849965Y-102785830D01*
X190849967Y-102785834D01*
X190915788Y-102879835D01*
X190985501Y-102979396D01*
X190985506Y-102979402D01*
X191152597Y-103146493D01*
X191152603Y-103146498D01*
X191338158Y-103276425D01*
X191381783Y-103331002D01*
X191388977Y-103400500D01*
X191357454Y-103462855D01*
X191338158Y-103479575D01*
X191152597Y-103609505D01*
X190985505Y-103776597D01*
X190849965Y-103970169D01*
X190849964Y-103970171D01*
X190750098Y-104184335D01*
X190750094Y-104184344D01*
X190688938Y-104412586D01*
X190688936Y-104412596D01*
X190668341Y-104647999D01*
X190668341Y-104648000D01*
X190688936Y-104883403D01*
X190688938Y-104883413D01*
X190750094Y-105111655D01*
X190750096Y-105111659D01*
X190750097Y-105111663D01*
X190791335Y-105200098D01*
X190849965Y-105325830D01*
X190849967Y-105325834D01*
X190958281Y-105480521D01*
X190985501Y-105519396D01*
X190985506Y-105519402D01*
X191107430Y-105641326D01*
X191140915Y-105702649D01*
X191135931Y-105772341D01*
X191094059Y-105828274D01*
X191063083Y-105845189D01*
X190931669Y-105894203D01*
X190931664Y-105894206D01*
X190816455Y-105980452D01*
X190816452Y-105980455D01*
X190730206Y-106095664D01*
X190730202Y-106095671D01*
X190679908Y-106230517D01*
X190673501Y-106290116D01*
X190673500Y-106290135D01*
X190673500Y-108085870D01*
X190673501Y-108085876D01*
X190679908Y-108145483D01*
X190730202Y-108280328D01*
X190730206Y-108280335D01*
X190816452Y-108395544D01*
X190816455Y-108395547D01*
X190931664Y-108481793D01*
X190931671Y-108481797D01*
X191066517Y-108532091D01*
X191066516Y-108532091D01*
X191073444Y-108532835D01*
X191126127Y-108538500D01*
X192921872Y-108538499D01*
X192981483Y-108532091D01*
X193116331Y-108481796D01*
X193231546Y-108395546D01*
X193317796Y-108280331D01*
X193366810Y-108148916D01*
X193408681Y-108092984D01*
X193474145Y-108068566D01*
X193542418Y-108083417D01*
X193570673Y-108104569D01*
X193692599Y-108226495D01*
X193789384Y-108294265D01*
X193886165Y-108362032D01*
X193886167Y-108362033D01*
X193886170Y-108362035D01*
X194100337Y-108461903D01*
X194328592Y-108523063D01*
X194505034Y-108538500D01*
X194563999Y-108543659D01*
X194564000Y-108543659D01*
X194564001Y-108543659D01*
X194622966Y-108538500D01*
X194799408Y-108523063D01*
X195027663Y-108461903D01*
X195241830Y-108362035D01*
X195435401Y-108226495D01*
X195602495Y-108059401D01*
X195738035Y-107865830D01*
X195837903Y-107651663D01*
X195899063Y-107423408D01*
X195919659Y-107188000D01*
X195899063Y-106952592D01*
X195837903Y-106724337D01*
X195738035Y-106510171D01*
X195732425Y-106502158D01*
X195602494Y-106316597D01*
X195435402Y-106149506D01*
X195435396Y-106149501D01*
X195249842Y-106019575D01*
X195206217Y-105964998D01*
X195199023Y-105895500D01*
X195230546Y-105833145D01*
X195249842Y-105816425D01*
X195312800Y-105772341D01*
X195435401Y-105686495D01*
X195602495Y-105519401D01*
X195738035Y-105325830D01*
X195837903Y-105111663D01*
X195899063Y-104883408D01*
X195919659Y-104648000D01*
X195899063Y-104412592D01*
X195837903Y-104184337D01*
X195738035Y-103970171D01*
X195732425Y-103962158D01*
X195602494Y-103776597D01*
X195435402Y-103609506D01*
X195435396Y-103609501D01*
X195249842Y-103479575D01*
X195206217Y-103424998D01*
X195199023Y-103355500D01*
X195230546Y-103293145D01*
X195249842Y-103276425D01*
X195272026Y-103260891D01*
X195435401Y-103146495D01*
X195602495Y-102979401D01*
X195738035Y-102785830D01*
X195837903Y-102571663D01*
X195899063Y-102343408D01*
X195919659Y-102108000D01*
X195899063Y-101872592D01*
X195837903Y-101644337D01*
X195738035Y-101430171D01*
X195732425Y-101422158D01*
X195602494Y-101236597D01*
X195435402Y-101069506D01*
X195435396Y-101069501D01*
X195249842Y-100939575D01*
X195206217Y-100884998D01*
X195199023Y-100815500D01*
X195230546Y-100753145D01*
X195249842Y-100736425D01*
X195272026Y-100720891D01*
X195435401Y-100606495D01*
X195602495Y-100439401D01*
X195738035Y-100245830D01*
X195837903Y-100031663D01*
X195899063Y-99803408D01*
X195919659Y-99568000D01*
X195899063Y-99332592D01*
X195841118Y-99116334D01*
X195837905Y-99104344D01*
X195837904Y-99104343D01*
X195837903Y-99104337D01*
X195738035Y-98890171D01*
X195732425Y-98882158D01*
X195602494Y-98696597D01*
X195435402Y-98529506D01*
X195435396Y-98529501D01*
X195249842Y-98399575D01*
X195206217Y-98344998D01*
X195199023Y-98275500D01*
X195230546Y-98213145D01*
X195249842Y-98196425D01*
X195272026Y-98180891D01*
X195435401Y-98066495D01*
X195602495Y-97899401D01*
X195738035Y-97705830D01*
X195837903Y-97491663D01*
X195899063Y-97263408D01*
X195919659Y-97028000D01*
X195899063Y-96792592D01*
X195841118Y-96576334D01*
X195837905Y-96564344D01*
X195837904Y-96564343D01*
X195837903Y-96564337D01*
X195738035Y-96350171D01*
X195732425Y-96342158D01*
X195602494Y-96156597D01*
X195435402Y-95989506D01*
X195435396Y-95989501D01*
X195249842Y-95859575D01*
X195206217Y-95804998D01*
X195199023Y-95735500D01*
X195230546Y-95673145D01*
X195249842Y-95656425D01*
X195272026Y-95640891D01*
X195435401Y-95526495D01*
X195602495Y-95359401D01*
X195738035Y-95165830D01*
X195837903Y-94951663D01*
X195899063Y-94723408D01*
X195919659Y-94488000D01*
X195899063Y-94252592D01*
X195837903Y-94024337D01*
X195738035Y-93810171D01*
X195732425Y-93802158D01*
X195602494Y-93616597D01*
X195435402Y-93449506D01*
X195435396Y-93449501D01*
X195249842Y-93319575D01*
X195206217Y-93264998D01*
X195199023Y-93195500D01*
X195230546Y-93133145D01*
X195249842Y-93116425D01*
X195375824Y-93028211D01*
X195435401Y-92986495D01*
X195602495Y-92819401D01*
X195738035Y-92625830D01*
X195837903Y-92411663D01*
X195899063Y-92183408D01*
X195919659Y-91948000D01*
X195899063Y-91712592D01*
X195837903Y-91484337D01*
X195738035Y-91270171D01*
X195732425Y-91262158D01*
X195602494Y-91076597D01*
X195435402Y-90909506D01*
X195435396Y-90909501D01*
X195249842Y-90779575D01*
X195206217Y-90724998D01*
X195199023Y-90655500D01*
X195230546Y-90593145D01*
X195249842Y-90576425D01*
X195291001Y-90547605D01*
X195435401Y-90446495D01*
X195602495Y-90279401D01*
X195738035Y-90085830D01*
X195837903Y-89871663D01*
X195899063Y-89643408D01*
X195919659Y-89408000D01*
X195917515Y-89383500D01*
X195908905Y-89285082D01*
X195899063Y-89172592D01*
X195837903Y-88944337D01*
X195738035Y-88730171D01*
X195732425Y-88722158D01*
X195602494Y-88536597D01*
X195435402Y-88369506D01*
X195435396Y-88369501D01*
X195249842Y-88239575D01*
X195206217Y-88184998D01*
X195199023Y-88115500D01*
X195230546Y-88053145D01*
X195249842Y-88036425D01*
X195291001Y-88007605D01*
X195435401Y-87906495D01*
X195602495Y-87739401D01*
X195738035Y-87545830D01*
X195837903Y-87331663D01*
X195899063Y-87103408D01*
X195919659Y-86868000D01*
X195917690Y-86845500D01*
X195911654Y-86776507D01*
X195899063Y-86632592D01*
X195837903Y-86404337D01*
X195738035Y-86190171D01*
X195732425Y-86182158D01*
X195602494Y-85996597D01*
X195435402Y-85829506D01*
X195435395Y-85829501D01*
X195241834Y-85693967D01*
X195241830Y-85693965D01*
X195241828Y-85693964D01*
X195027663Y-85594097D01*
X195027659Y-85594096D01*
X195027655Y-85594094D01*
X194799413Y-85532938D01*
X194799403Y-85532936D01*
X194564001Y-85512341D01*
X194563999Y-85512341D01*
X194328596Y-85532936D01*
X194328586Y-85532938D01*
X194100344Y-85594094D01*
X194100335Y-85594098D01*
X193886171Y-85693964D01*
X193886169Y-85693965D01*
X193692597Y-85829505D01*
X193525505Y-85996597D01*
X193395575Y-86182158D01*
X193340998Y-86225783D01*
X193271500Y-86232977D01*
X193209145Y-86201454D01*
X193192425Y-86182158D01*
X193062494Y-85996597D01*
X192895402Y-85829506D01*
X192895395Y-85829501D01*
X192701834Y-85693967D01*
X192701830Y-85693965D01*
X192701828Y-85693964D01*
X192487663Y-85594097D01*
X192487659Y-85594096D01*
X192487655Y-85594094D01*
X192259413Y-85532938D01*
X192259403Y-85532936D01*
X192024001Y-85512341D01*
X192023999Y-85512341D01*
X191788596Y-85532936D01*
X191788586Y-85532938D01*
X191560344Y-85594094D01*
X191560335Y-85594098D01*
X191346171Y-85693964D01*
X191346169Y-85693965D01*
X191152597Y-85829505D01*
X190985505Y-85996597D01*
X190849965Y-86190169D01*
X190849964Y-86190171D01*
X190750098Y-86404335D01*
X190750094Y-86404344D01*
X190688938Y-86632586D01*
X190688936Y-86632596D01*
X190668341Y-86867999D01*
X171250500Y-86867999D01*
X171250500Y-84124500D01*
X171270185Y-84057461D01*
X171322989Y-84011706D01*
X171374500Y-84000500D01*
X174636299Y-84000500D01*
X174683751Y-84009938D01*
X174708164Y-84020051D01*
X174896236Y-84057461D01*
X174901454Y-84058499D01*
X174901457Y-84058500D01*
X174901459Y-84058500D01*
X175098542Y-84058500D01*
X175098543Y-84058499D01*
X175291835Y-84020051D01*
X175473914Y-83944631D01*
X175637781Y-83835139D01*
X175777139Y-83695781D01*
X175886631Y-83531914D01*
X175962051Y-83349835D01*
X176000500Y-83156540D01*
X176000500Y-82959459D01*
X176000500Y-82959456D01*
X176000499Y-82959454D01*
X175962051Y-82766164D01*
X175886631Y-82584085D01*
X175886630Y-82584084D01*
X175886627Y-82584078D01*
X175777140Y-82420219D01*
X175734186Y-82377265D01*
X175689132Y-82332211D01*
X175579782Y-82222861D01*
X175579781Y-82222860D01*
X175579780Y-82222859D01*
X175415920Y-82113371D01*
X175415911Y-82113366D01*
X175343315Y-82083296D01*
X175287165Y-82060038D01*
X175233836Y-82037949D01*
X175233832Y-82037948D01*
X175233828Y-82037946D01*
X175137188Y-82018724D01*
X175040544Y-81999500D01*
X175040541Y-81999500D01*
X170348541Y-81999500D01*
X166488226Y-81999500D01*
X166421187Y-81979815D01*
X166375432Y-81927011D01*
X166365488Y-81857853D01*
X166394513Y-81794297D01*
X166400545Y-81787819D01*
X166593753Y-81594611D01*
X167190124Y-80998238D01*
X167251445Y-80964755D01*
X167263903Y-80962703D01*
X167311255Y-80957368D01*
X167481522Y-80897789D01*
X167634262Y-80801816D01*
X167761816Y-80674262D01*
X167857789Y-80521522D01*
X167915616Y-80356261D01*
X186994435Y-80356261D01*
X186994435Y-80356268D01*
X187014630Y-80535514D01*
X187014631Y-80535519D01*
X187074211Y-80705788D01*
X187104764Y-80754412D01*
X187170184Y-80858527D01*
X187297738Y-80986081D01*
X187450478Y-81082054D01*
X187582515Y-81128255D01*
X187639290Y-81168977D01*
X187665038Y-81233929D01*
X187664781Y-81259179D01*
X187662435Y-81280003D01*
X187682630Y-81459249D01*
X187682631Y-81459254D01*
X187742211Y-81629523D01*
X187770623Y-81674740D01*
X187835375Y-81777792D01*
X187838185Y-81782263D01*
X187840445Y-81785097D01*
X187841334Y-81787275D01*
X187841889Y-81788158D01*
X187841734Y-81788255D01*
X187866855Y-81849783D01*
X187867500Y-81862412D01*
X187867500Y-83961426D01*
X187867499Y-83961444D01*
X187867499Y-84127150D01*
X187867498Y-84127150D01*
X187867499Y-84127153D01*
X187908423Y-84279881D01*
X187908424Y-84279883D01*
X187908423Y-84279883D01*
X187915128Y-84291495D01*
X187915129Y-84291496D01*
X187987477Y-84416808D01*
X187987481Y-84416813D01*
X188033973Y-84463305D01*
X188067458Y-84524628D01*
X188069512Y-84537102D01*
X188079305Y-84624020D01*
X188138885Y-84794292D01*
X188192623Y-84879815D01*
X188234859Y-84947033D01*
X188362413Y-85074587D01*
X188372142Y-85080700D01*
X188506902Y-85165376D01*
X188515153Y-85170560D01*
X188685420Y-85230139D01*
X188685425Y-85230140D01*
X188864671Y-85250336D01*
X188864675Y-85250336D01*
X188864679Y-85250336D01*
X189043924Y-85230140D01*
X189043927Y-85230139D01*
X189043930Y-85230139D01*
X189214197Y-85170560D01*
X189366937Y-85074587D01*
X189402225Y-85039298D01*
X189463546Y-85005812D01*
X189503787Y-85003758D01*
X189595549Y-85014097D01*
X189630195Y-85018001D01*
X189630197Y-85018001D01*
X189630201Y-85018001D01*
X189809446Y-84997805D01*
X189809449Y-84997804D01*
X189809452Y-84997804D01*
X189979719Y-84938225D01*
X190132459Y-84842252D01*
X190260013Y-84714698D01*
X190355986Y-84561958D01*
X190415565Y-84391691D01*
X190418391Y-84366612D01*
X190435762Y-84212439D01*
X190435762Y-84212432D01*
X190415566Y-84033186D01*
X190415565Y-84033181D01*
X190355986Y-83862914D01*
X190260013Y-83710174D01*
X190132459Y-83582620D01*
X189979718Y-83486646D01*
X189809446Y-83427066D01*
X189778617Y-83423593D01*
X189714203Y-83396527D01*
X189674647Y-83338932D01*
X189668500Y-83300373D01*
X189668500Y-82428099D01*
X189688185Y-82361060D01*
X189695555Y-82350784D01*
X189697810Y-82347954D01*
X189697816Y-82347949D01*
X189793789Y-82195209D01*
X189853368Y-82024942D01*
X189864402Y-81927011D01*
X189873565Y-81845690D01*
X189873565Y-81845683D01*
X189853369Y-81666437D01*
X189853368Y-81666432D01*
X189793788Y-81496163D01*
X189697815Y-81343424D01*
X189570259Y-81215868D01*
X189566637Y-81213593D01*
X189520345Y-81161259D01*
X189509696Y-81092205D01*
X189538071Y-81028357D01*
X189566634Y-81003607D01*
X189594527Y-80986081D01*
X189722081Y-80858527D01*
X189818054Y-80705787D01*
X189877633Y-80535520D01*
X189879210Y-80521523D01*
X189897830Y-80356268D01*
X189897830Y-80356261D01*
X189877634Y-80177015D01*
X189877633Y-80177010D01*
X189818053Y-80006741D01*
X189736782Y-79877400D01*
X189722081Y-79854003D01*
X189594527Y-79726449D01*
X189561609Y-79705765D01*
X189441788Y-79630476D01*
X189271519Y-79570896D01*
X189271514Y-79570895D01*
X189092269Y-79550700D01*
X189092261Y-79550700D01*
X188913015Y-79570895D01*
X188913002Y-79570898D01*
X188742746Y-79630474D01*
X188742742Y-79630475D01*
X188653169Y-79686759D01*
X188587197Y-79705765D01*
X188305068Y-79705765D01*
X188239096Y-79686759D01*
X188149522Y-79630475D01*
X188149518Y-79630474D01*
X187979262Y-79570898D01*
X187979249Y-79570895D01*
X187800004Y-79550700D01*
X187799996Y-79550700D01*
X187620750Y-79570895D01*
X187620745Y-79570896D01*
X187450476Y-79630476D01*
X187297737Y-79726449D01*
X187170184Y-79854002D01*
X187074211Y-80006741D01*
X187014631Y-80177010D01*
X187014630Y-80177015D01*
X186994435Y-80356261D01*
X167915616Y-80356261D01*
X167917368Y-80351255D01*
X167917369Y-80351249D01*
X167937565Y-80172003D01*
X167937565Y-80171996D01*
X167917369Y-79992750D01*
X167917366Y-79992737D01*
X167862518Y-79835991D01*
X167858956Y-79766212D01*
X167891876Y-79707357D01*
X169423886Y-78175348D01*
X169423891Y-78175344D01*
X169434094Y-78165140D01*
X169434096Y-78165140D01*
X169545900Y-78053336D01*
X169624957Y-77916404D01*
X169665880Y-77763677D01*
X169665880Y-76108500D01*
X169685565Y-76041461D01*
X169738369Y-75995706D01*
X169789880Y-75984500D01*
X170213192Y-75984500D01*
X170280231Y-76004185D01*
X170300873Y-76020819D01*
X171478277Y-77198223D01*
X171511762Y-77259546D01*
X171513815Y-77272012D01*
X171514630Y-77279246D01*
X171514632Y-77279255D01*
X171574210Y-77449521D01*
X171588463Y-77472204D01*
X171670184Y-77602262D01*
X171797738Y-77729816D01*
X171950478Y-77825789D01*
X172120745Y-77885368D01*
X172120750Y-77885369D01*
X172299996Y-77905565D01*
X172300000Y-77905565D01*
X172300004Y-77905565D01*
X172479249Y-77885369D01*
X172479252Y-77885368D01*
X172479255Y-77885368D01*
X172649522Y-77825789D01*
X172802262Y-77729816D01*
X172929816Y-77602262D01*
X173025789Y-77449522D01*
X173085368Y-77279255D01*
X173105565Y-77100000D01*
X173085368Y-76920745D01*
X173025789Y-76750478D01*
X172929816Y-76597738D01*
X172802262Y-76470184D01*
X172649521Y-76374210D01*
X172479255Y-76314632D01*
X172479246Y-76314630D01*
X172472012Y-76313815D01*
X172407600Y-76286744D01*
X172398223Y-76278277D01*
X170948674Y-74828727D01*
X170948673Y-74828726D01*
X170936736Y-74820750D01*
X170842127Y-74757535D01*
X170723744Y-74708499D01*
X170723738Y-74708497D01*
X170598071Y-74683500D01*
X170598069Y-74683500D01*
X169862306Y-74683500D01*
X169795267Y-74663815D01*
X169749512Y-74611011D01*
X169738306Y-74559500D01*
X169738306Y-72917260D01*
X169757313Y-72851287D01*
X169813594Y-72761717D01*
X169839948Y-72686402D01*
X169873174Y-72591448D01*
X169884285Y-72492834D01*
X169893371Y-72412196D01*
X169893371Y-72412189D01*
X169873175Y-72232943D01*
X169873174Y-72232938D01*
X169813594Y-72062669D01*
X169717621Y-71909930D01*
X169622690Y-71814999D01*
X193369341Y-71814999D01*
X193369341Y-71815000D01*
X193389936Y-72050403D01*
X193389938Y-72050413D01*
X193451094Y-72278655D01*
X193451096Y-72278659D01*
X193451097Y-72278663D01*
X193513363Y-72412193D01*
X193550965Y-72492830D01*
X193550967Y-72492834D01*
X193686501Y-72686395D01*
X193686506Y-72686402D01*
X193853597Y-72853493D01*
X193853603Y-72853498D01*
X194039158Y-72983425D01*
X194082783Y-73038002D01*
X194089977Y-73107500D01*
X194058454Y-73169855D01*
X194039158Y-73186575D01*
X193853597Y-73316505D01*
X193686505Y-73483597D01*
X193550965Y-73677169D01*
X193550964Y-73677171D01*
X193451098Y-73891335D01*
X193451094Y-73891344D01*
X193389938Y-74119586D01*
X193389936Y-74119596D01*
X193376409Y-74274211D01*
X193369341Y-74355000D01*
X193389937Y-74590408D01*
X193389937Y-74590411D01*
X193389938Y-74590413D01*
X193451094Y-74818655D01*
X193451096Y-74818659D01*
X193451097Y-74818663D01*
X193550965Y-75032830D01*
X193550967Y-75032834D01*
X193636331Y-75154745D01*
X193686505Y-75226401D01*
X193853599Y-75393495D01*
X193950384Y-75461265D01*
X194047165Y-75529032D01*
X194047167Y-75529033D01*
X194047170Y-75529035D01*
X194261337Y-75628903D01*
X194261343Y-75628904D01*
X194261344Y-75628905D01*
X194264744Y-75629816D01*
X194489592Y-75690063D01*
X194677918Y-75706539D01*
X194724999Y-75710659D01*
X194725000Y-75710659D01*
X194725001Y-75710659D01*
X194764234Y-75707226D01*
X194960408Y-75690063D01*
X195188663Y-75628903D01*
X195402830Y-75529035D01*
X195596401Y-75393495D01*
X195763495Y-75226401D01*
X195899035Y-75032830D01*
X195998903Y-74818663D01*
X196060063Y-74590408D01*
X196080659Y-74355000D01*
X196060063Y-74119592D01*
X195998903Y-73891337D01*
X195899035Y-73677171D01*
X195763495Y-73483599D01*
X195763494Y-73483597D01*
X195596402Y-73316506D01*
X195596396Y-73316501D01*
X195410842Y-73186575D01*
X195367217Y-73131998D01*
X195360023Y-73062500D01*
X195391546Y-73000145D01*
X195410842Y-72983425D01*
X195556354Y-72881536D01*
X195596401Y-72853495D01*
X195763495Y-72686401D01*
X195899035Y-72492830D01*
X195998903Y-72278663D01*
X196060063Y-72050408D01*
X196080659Y-71815000D01*
X196060063Y-71579592D01*
X195998903Y-71351337D01*
X195899035Y-71137171D01*
X195897841Y-71135466D01*
X195763496Y-70943600D01*
X195763495Y-70943599D01*
X195641567Y-70821671D01*
X195608084Y-70760351D01*
X195613068Y-70690659D01*
X195654939Y-70634725D01*
X195685915Y-70617810D01*
X195817331Y-70568796D01*
X195932546Y-70482546D01*
X196018796Y-70367331D01*
X196069091Y-70232483D01*
X196075500Y-70172873D01*
X196075499Y-68377128D01*
X196069091Y-68317517D01*
X196063539Y-68302632D01*
X196018797Y-68182671D01*
X196018793Y-68182664D01*
X195932547Y-68067455D01*
X195932544Y-68067452D01*
X195817335Y-67981206D01*
X195817328Y-67981202D01*
X195682482Y-67930908D01*
X195682483Y-67930908D01*
X195622883Y-67924501D01*
X195622881Y-67924500D01*
X195622873Y-67924500D01*
X195622864Y-67924500D01*
X193827129Y-67924500D01*
X193827123Y-67924501D01*
X193767516Y-67930908D01*
X193632671Y-67981202D01*
X193632664Y-67981206D01*
X193517455Y-68067452D01*
X193517452Y-68067455D01*
X193431206Y-68182664D01*
X193431202Y-68182671D01*
X193380908Y-68317517D01*
X193374501Y-68377116D01*
X193374501Y-68377123D01*
X193374500Y-68377135D01*
X193374500Y-70172870D01*
X193374501Y-70172876D01*
X193380908Y-70232483D01*
X193431202Y-70367328D01*
X193431206Y-70367335D01*
X193517452Y-70482544D01*
X193517455Y-70482547D01*
X193632664Y-70568793D01*
X193632671Y-70568797D01*
X193764081Y-70617810D01*
X193820015Y-70659681D01*
X193844432Y-70725145D01*
X193829580Y-70793418D01*
X193808430Y-70821673D01*
X193686503Y-70943600D01*
X193550965Y-71137169D01*
X193550964Y-71137171D01*
X193451098Y-71351335D01*
X193451094Y-71351344D01*
X193389938Y-71579586D01*
X193389936Y-71579596D01*
X193369341Y-71814999D01*
X169622690Y-71814999D01*
X169590068Y-71782377D01*
X169437329Y-71686404D01*
X169267060Y-71626824D01*
X169267055Y-71626823D01*
X169087810Y-71606628D01*
X169087802Y-71606628D01*
X168908556Y-71626823D01*
X168908543Y-71626826D01*
X168738287Y-71686402D01*
X168738283Y-71686403D01*
X168648710Y-71742687D01*
X168582738Y-71761693D01*
X167483001Y-71761693D01*
X167415962Y-71742008D01*
X167395320Y-71725374D01*
X165723674Y-70053727D01*
X165723673Y-70053726D01*
X165723669Y-70053723D01*
X165617127Y-69982535D01*
X165498744Y-69933499D01*
X165498738Y-69933497D01*
X165373071Y-69908500D01*
X165373069Y-69908500D01*
X159729307Y-69908500D01*
X159662268Y-69888815D01*
X159641626Y-69872181D01*
X158759222Y-68989776D01*
X158725737Y-68928453D01*
X158723682Y-68915973D01*
X158722868Y-68908745D01*
X158663289Y-68738478D01*
X158567316Y-68585738D01*
X158439762Y-68458184D01*
X158287023Y-68362211D01*
X158116754Y-68302631D01*
X158116749Y-68302630D01*
X157937504Y-68282435D01*
X157937496Y-68282435D01*
X157758250Y-68302630D01*
X157758245Y-68302631D01*
X157587976Y-68362211D01*
X157435237Y-68458184D01*
X157307684Y-68585737D01*
X157211711Y-68738476D01*
X157152131Y-68908745D01*
X157152130Y-68908750D01*
X157131935Y-69087996D01*
X134104500Y-69087996D01*
X134104500Y-59456713D01*
X136952500Y-59456713D01*
X136952500Y-59669286D01*
X136985753Y-59879239D01*
X137051444Y-60081414D01*
X137147951Y-60270820D01*
X137272890Y-60442786D01*
X137423213Y-60593109D01*
X137595179Y-60718048D01*
X137595181Y-60718049D01*
X137595184Y-60718051D01*
X137784588Y-60814557D01*
X137986757Y-60880246D01*
X138196713Y-60913500D01*
X138196714Y-60913500D01*
X138409286Y-60913500D01*
X138409287Y-60913500D01*
X138619243Y-60880246D01*
X138821412Y-60814557D01*
X139010816Y-60718051D01*
X139052788Y-60687557D01*
X139182786Y-60593109D01*
X139182788Y-60593106D01*
X139182792Y-60593104D01*
X139333104Y-60442792D01*
X139333106Y-60442788D01*
X139333109Y-60442786D01*
X139458048Y-60270820D01*
X139458047Y-60270820D01*
X139458051Y-60270816D01*
X139554557Y-60081412D01*
X139620246Y-59879243D01*
X139653500Y-59669287D01*
X139653500Y-59456713D01*
X139633385Y-59329713D01*
X193213500Y-59329713D01*
X193213500Y-59542286D01*
X193246753Y-59752239D01*
X193312444Y-59954414D01*
X193408951Y-60143820D01*
X193533890Y-60315786D01*
X193684213Y-60466109D01*
X193856179Y-60591048D01*
X193856181Y-60591049D01*
X193856184Y-60591051D01*
X194045588Y-60687557D01*
X194247757Y-60753246D01*
X194457713Y-60786500D01*
X194457714Y-60786500D01*
X194670286Y-60786500D01*
X194670287Y-60786500D01*
X194880243Y-60753246D01*
X195082412Y-60687557D01*
X195271816Y-60591051D01*
X195293789Y-60575086D01*
X195443786Y-60466109D01*
X195443788Y-60466106D01*
X195443792Y-60466104D01*
X195594104Y-60315792D01*
X195594106Y-60315788D01*
X195594109Y-60315786D01*
X195719048Y-60143820D01*
X195719047Y-60143820D01*
X195719051Y-60143816D01*
X195815557Y-59954412D01*
X195881246Y-59752243D01*
X195914500Y-59542287D01*
X195914500Y-59329713D01*
X195881246Y-59119757D01*
X195815557Y-58917588D01*
X195719051Y-58728184D01*
X195719049Y-58728181D01*
X195719048Y-58728179D01*
X195594109Y-58556213D01*
X195443786Y-58405890D01*
X195271820Y-58280951D01*
X195082414Y-58184444D01*
X195082413Y-58184443D01*
X195082412Y-58184443D01*
X194880243Y-58118754D01*
X194880241Y-58118753D01*
X194880240Y-58118753D01*
X194718957Y-58093208D01*
X194670287Y-58085500D01*
X194457713Y-58085500D01*
X194409042Y-58093208D01*
X194247760Y-58118753D01*
X194045585Y-58184444D01*
X193856179Y-58280951D01*
X193684213Y-58405890D01*
X193533890Y-58556213D01*
X193408951Y-58728179D01*
X193312444Y-58917585D01*
X193246753Y-59119760D01*
X193213500Y-59329713D01*
X139633385Y-59329713D01*
X139620246Y-59246757D01*
X139554557Y-59044588D01*
X139458051Y-58855184D01*
X139458049Y-58855181D01*
X139458048Y-58855179D01*
X139333109Y-58683213D01*
X139182786Y-58532890D01*
X139010820Y-58407951D01*
X138821414Y-58311444D01*
X138821413Y-58311443D01*
X138821412Y-58311443D01*
X138619243Y-58245754D01*
X138619241Y-58245753D01*
X138619240Y-58245753D01*
X138457957Y-58220208D01*
X138409287Y-58212500D01*
X138196713Y-58212500D01*
X138148042Y-58220208D01*
X137986760Y-58245753D01*
X137784585Y-58311444D01*
X137595179Y-58407951D01*
X137423213Y-58532890D01*
X137272890Y-58683213D01*
X137147951Y-58855179D01*
X137051444Y-59044585D01*
X136985753Y-59246760D01*
X136952500Y-59456713D01*
X134104500Y-59456713D01*
X134104500Y-58138427D01*
X134104816Y-58129581D01*
X134105590Y-58118754D01*
X134119130Y-57929436D01*
X134121646Y-57911938D01*
X134163356Y-57720199D01*
X134168333Y-57703248D01*
X134236911Y-57519385D01*
X134244259Y-57503298D01*
X134306815Y-57388734D01*
X134338291Y-57331089D01*
X134347845Y-57316221D01*
X134465448Y-57159123D01*
X134477020Y-57145769D01*
X134615769Y-57007020D01*
X134629123Y-56995448D01*
X134786221Y-56877845D01*
X134801089Y-56868291D01*
X134973298Y-56774258D01*
X134989385Y-56766911D01*
X135173248Y-56698333D01*
X135190199Y-56693356D01*
X135381938Y-56651646D01*
X135399436Y-56649130D01*
X135599582Y-56634816D01*
X135608428Y-56634500D01*
X135669892Y-56634500D01*
X196308108Y-56634500D01*
X196369572Y-56634500D01*
X196378418Y-56634816D01*
G37*
%TD.AperFunction*%
%TD*%
M02*
