%TF.GenerationSoftware,KiCad,Pcbnew,8.0.3*%
%TF.CreationDate,2025-07-08T12:48:35-07:00*%
%TF.ProjectId,salp_board_round,73616c70-5f62-46f6-9172-645f726f756e,rev?*%
%TF.SameCoordinates,Original*%
%TF.FileFunction,Copper,L1,Top*%
%TF.FilePolarity,Positive*%
%FSLAX46Y46*%
G04 Gerber Fmt 4.6, Leading zero omitted, Abs format (unit mm)*
G04 Created by KiCad (PCBNEW 8.0.3) date 2025-07-08 12:48:35*
%MOMM*%
%LPD*%
G01*
G04 APERTURE LIST*
G04 Aperture macros list*
%AMRoundRect*
0 Rectangle with rounded corners*
0 $1 Rounding radius*
0 $2 $3 $4 $5 $6 $7 $8 $9 X,Y pos of 4 corners*
0 Add a 4 corners polygon primitive as box body*
4,1,4,$2,$3,$4,$5,$6,$7,$8,$9,$2,$3,0*
0 Add four circle primitives for the rounded corners*
1,1,$1+$1,$2,$3*
1,1,$1+$1,$4,$5*
1,1,$1+$1,$6,$7*
1,1,$1+$1,$8,$9*
0 Add four rect primitives between the rounded corners*
20,1,$1+$1,$2,$3,$4,$5,0*
20,1,$1+$1,$4,$5,$6,$7,0*
20,1,$1+$1,$6,$7,$8,$9,0*
20,1,$1+$1,$8,$9,$2,$3,0*%
G04 Aperture macros list end*
%TA.AperFunction,ComponentPad*%
%ADD10R,1.700000X1.700000*%
%TD*%
%TA.AperFunction,ComponentPad*%
%ADD11O,1.700000X1.700000*%
%TD*%
%TA.AperFunction,SMDPad,CuDef*%
%ADD12R,2.100000X1.725000*%
%TD*%
%TA.AperFunction,SMDPad,CuDef*%
%ADD13RoundRect,0.375000X0.625000X0.375000X-0.625000X0.375000X-0.625000X-0.375000X0.625000X-0.375000X0*%
%TD*%
%TA.AperFunction,SMDPad,CuDef*%
%ADD14RoundRect,0.500000X0.500000X1.400000X-0.500000X1.400000X-0.500000X-1.400000X0.500000X-1.400000X0*%
%TD*%
%TA.AperFunction,SMDPad,CuDef*%
%ADD15RoundRect,0.150000X-0.150000X0.875000X-0.150000X-0.875000X0.150000X-0.875000X0.150000X0.875000X0*%
%TD*%
%TA.AperFunction,SMDPad,CuDef*%
%ADD16RoundRect,0.250000X-0.350000X-0.450000X0.350000X-0.450000X0.350000X0.450000X-0.350000X0.450000X0*%
%TD*%
%TA.AperFunction,SMDPad,CuDef*%
%ADD17RoundRect,0.250000X-0.450000X0.350000X-0.450000X-0.350000X0.450000X-0.350000X0.450000X0.350000X0*%
%TD*%
%TA.AperFunction,SMDPad,CuDef*%
%ADD18RoundRect,0.250000X0.350000X0.450000X-0.350000X0.450000X-0.350000X-0.450000X0.350000X-0.450000X0*%
%TD*%
%TA.AperFunction,SMDPad,CuDef*%
%ADD19RoundRect,0.250000X0.450000X-0.325000X0.450000X0.325000X-0.450000X0.325000X-0.450000X-0.325000X0*%
%TD*%
%TA.AperFunction,ComponentPad*%
%ADD20C,4.400000*%
%TD*%
%TA.AperFunction,SMDPad,CuDef*%
%ADD21RoundRect,0.237500X-0.287500X-0.237500X0.287500X-0.237500X0.287500X0.237500X-0.287500X0.237500X0*%
%TD*%
%TA.AperFunction,SMDPad,CuDef*%
%ADD22RoundRect,0.250001X0.462499X0.624999X-0.462499X0.624999X-0.462499X-0.624999X0.462499X-0.624999X0*%
%TD*%
%TA.AperFunction,SMDPad,CuDef*%
%ADD23RoundRect,0.250000X0.337500X0.475000X-0.337500X0.475000X-0.337500X-0.475000X0.337500X-0.475000X0*%
%TD*%
%TA.AperFunction,SMDPad,CuDef*%
%ADD24RoundRect,0.250000X-0.337500X-0.475000X0.337500X-0.475000X0.337500X0.475000X-0.337500X0.475000X0*%
%TD*%
%TA.AperFunction,SMDPad,CuDef*%
%ADD25RoundRect,0.250000X0.475000X-0.337500X0.475000X0.337500X-0.475000X0.337500X-0.475000X-0.337500X0*%
%TD*%
%TA.AperFunction,SMDPad,CuDef*%
%ADD26RoundRect,0.250000X-0.475000X0.337500X-0.475000X-0.337500X0.475000X-0.337500X0.475000X0.337500X0*%
%TD*%
%TA.AperFunction,SMDPad,CuDef*%
%ADD27RoundRect,0.075000X-0.325000X-0.075000X0.325000X-0.075000X0.325000X0.075000X-0.325000X0.075000X0*%
%TD*%
%TA.AperFunction,SMDPad,CuDef*%
%ADD28RoundRect,0.075000X-0.075000X-0.325000X0.075000X-0.325000X0.075000X0.325000X-0.075000X0.325000X0*%
%TD*%
%TA.AperFunction,SMDPad,CuDef*%
%ADD29RoundRect,0.210000X-1.890000X-1.890000X1.890000X-1.890000X1.890000X1.890000X-1.890000X1.890000X0*%
%TD*%
%TA.AperFunction,ViaPad*%
%ADD30C,0.600000*%
%TD*%
%TA.AperFunction,Conductor*%
%ADD31C,0.200000*%
%TD*%
%TA.AperFunction,Conductor*%
%ADD32C,0.250000*%
%TD*%
%TA.AperFunction,Conductor*%
%ADD33C,0.500000*%
%TD*%
%TA.AperFunction,Conductor*%
%ADD34C,0.300000*%
%TD*%
%TA.AperFunction,Conductor*%
%ADD35C,0.400000*%
%TD*%
G04 APERTURE END LIST*
D10*
%TO.P,J6,1,Pin_1*%
%TO.N,unconnected-(J6-Pin_1-Pad1)*%
X167500000Y-74860000D03*
D11*
%TO.P,J6,2,Pin_2*%
%TO.N,Net-(J6-Pin_2)*%
X167500000Y-77400000D03*
%TO.P,J6,3,Pin_3*%
%TO.N,Net-(J6-Pin_3)*%
X167500000Y-79940000D03*
%TO.P,J6,4,Pin_4*%
%TO.N,/V_USB*%
X167500000Y-82480000D03*
%TO.P,J6,5,Pin_5*%
%TO.N,unconnected-(J6-Pin_5-Pad5)*%
X167500000Y-85020000D03*
%TO.P,J6,6,Pin_6*%
%TO.N,GND*%
X167500000Y-87560000D03*
%TD*%
D12*
%TO.P,Y1,4,4*%
%TO.N,GND*%
X163800000Y-98112500D03*
%TO.P,Y1,3,3*%
%TO.N,/OSCOUT*%
X166700000Y-98112500D03*
%TO.P,Y1,2,2*%
%TO.N,GND*%
X166700000Y-100287500D03*
%TO.P,Y1,1,1*%
%TO.N,/OSCIN*%
X163800000Y-100287500D03*
%TD*%
D13*
%TO.P,U4,1,GND*%
%TO.N,GND*%
X179450000Y-108600000D03*
%TO.P,U4,2,VO*%
%TO.N,+3.3V*%
X179450000Y-106300000D03*
D14*
X173150000Y-106300000D03*
D13*
%TO.P,U4,3,VI*%
%TO.N,VCC*%
X179450000Y-104000000D03*
%TD*%
D15*
%TO.P,U2,1,VCC*%
%TO.N,+3.3V*%
X186315000Y-84550000D03*
%TO.P,U2,2,PA4*%
%TO.N,/M_SCL*%
X185045000Y-84550000D03*
%TO.P,U2,3,PA5*%
%TO.N,/PA5*%
X183775000Y-84550000D03*
%TO.P,U2,4,PA6*%
%TO.N,/PA6*%
X182505000Y-84550000D03*
%TO.P,U2,5,PA7*%
%TO.N,/PA7*%
X181235000Y-84550000D03*
%TO.P,U2,6,PB5*%
%TO.N,/PB5*%
X179965000Y-84550000D03*
%TO.P,U2,7,PB4*%
%TO.N,/PB4*%
X178695000Y-84550000D03*
%TO.P,U2,8,PB3*%
%TO.N,/PB3*%
X177425000Y-84550000D03*
%TO.P,U2,9,PB2*%
%TO.N,/PB2*%
X176155000Y-84550000D03*
%TO.P,U2,10,PB1*%
%TO.N,/M_SCL*%
X174885000Y-84550000D03*
%TO.P,U2,11,PB0*%
X174885000Y-93850000D03*
%TO.P,U2,12,PC0*%
%TO.N,/PC0*%
X176155000Y-93850000D03*
%TO.P,U2,13,PC1*%
%TO.N,/PC1*%
X177425000Y-93850000D03*
%TO.P,U2,14,PC2*%
%TO.N,/PC2*%
X178695000Y-93850000D03*
%TO.P,U2,15,PC3*%
%TO.N,/PC3*%
X179965000Y-93850000D03*
%TO.P,U2,16,~{RESET}/PA0*%
%TO.N,/PA0*%
X181235000Y-93850000D03*
%TO.P,U2,17,PA1*%
%TO.N,/M_SCL*%
X182505000Y-93850000D03*
%TO.P,U2,18,PA2*%
X183775000Y-93850000D03*
%TO.P,U2,19,PA3*%
%TO.N,/PA3*%
X185045000Y-93850000D03*
%TO.P,U2,20,GND*%
%TO.N,GND*%
X186315000Y-93850000D03*
%TD*%
D16*
%TO.P,R12,2*%
%TO.N,Net-(D6-A)*%
X181600000Y-111700000D03*
%TO.P,R12,1*%
%TO.N,VCC*%
X179600000Y-111700000D03*
%TD*%
D17*
%TO.P,R11,2*%
%TO.N,/I0*%
X163500000Y-70500000D03*
%TO.P,R11,1*%
%TO.N,Net-(J10-Pin_2)*%
X163500000Y-68500000D03*
%TD*%
D16*
%TO.P,R3,2*%
%TO.N,/RX*%
X157000000Y-90300000D03*
%TO.P,R3,1*%
%TO.N,/VMID*%
X155000000Y-90300000D03*
%TD*%
D18*
%TO.P,R2,1*%
%TO.N,Net-(C10-Pad2)*%
X150800000Y-92200000D03*
%TO.P,R2,2*%
%TO.N,Net-(C17-Pad1)*%
X148800000Y-92200000D03*
%TD*%
D17*
%TO.P,R1,2*%
%TO.N,/I1*%
X156900000Y-70600000D03*
%TO.P,R1,1*%
%TO.N,Net-(J9-Pin_2)*%
X156900000Y-68600000D03*
%TD*%
D19*
%TO.P,L2,2,2*%
%TO.N,/TX2*%
X153800000Y-97275000D03*
%TO.P,L2,1,1*%
%TO.N,Net-(C10-Pad2)*%
X153800000Y-99325000D03*
%TD*%
%TO.P,L1,1,1*%
%TO.N,Net-(C12-Pad1)*%
X156000000Y-103925000D03*
%TO.P,L1,2,2*%
%TO.N,/TX1*%
X156000000Y-101875000D03*
%TD*%
D11*
%TO.P,SEL0,3,Pin_3*%
%TO.N,/AVDD*%
X166600000Y-71055000D03*
%TO.P,SEL0,2,Pin_2*%
%TO.N,Net-(J10-Pin_2)*%
X166600000Y-68515000D03*
D10*
%TO.P,SEL0,1,Pin_1*%
%TO.N,GND*%
X166600000Y-65975000D03*
%TD*%
D11*
%TO.P,SEL1,3,Pin_3*%
%TO.N,/AVDD*%
X160000000Y-71580000D03*
%TO.P,SEL1,2,Pin_2*%
%TO.N,Net-(J9-Pin_2)*%
X160000000Y-69040000D03*
D10*
%TO.P,SEL1,1,Pin_1*%
%TO.N,GND*%
X160000000Y-66500000D03*
%TD*%
%TO.P,J8,1,Pin_1*%
%TO.N,/PB3*%
X184475000Y-74600000D03*
D11*
%TO.P,J8,2,Pin_2*%
%TO.N,Net-(J6-Pin_3)*%
X187015000Y-74600000D03*
%TO.P,J8,3,Pin_3*%
%TO.N,Net-(D2-K)*%
X189555000Y-74600000D03*
%TD*%
D10*
%TO.P,J7,1,Pin_1*%
%TO.N,/PB2*%
X174860000Y-74600000D03*
D11*
%TO.P,J7,2,Pin_2*%
%TO.N,Net-(J6-Pin_2)*%
X177400000Y-74600000D03*
%TO.P,J7,3,Pin_3*%
%TO.N,/PA0*%
X179940000Y-74600000D03*
%TD*%
%TO.P,J5,18,Pin_18*%
%TO.N,/PA3*%
X193380000Y-100440000D03*
%TO.P,J5,17,Pin_17*%
X193380000Y-97900000D03*
%TO.P,J5,16,Pin_16*%
%TO.N,/M_SCL*%
X190840000Y-100440000D03*
%TO.P,J5,15,Pin_15*%
X190840000Y-97900000D03*
%TO.P,J5,14,Pin_14*%
X188300000Y-100440000D03*
%TO.P,J5,13,Pin_13*%
X188300000Y-97900000D03*
%TO.P,J5,12,Pin_12*%
%TO.N,/PA0*%
X185760000Y-100440000D03*
%TO.P,J5,11,Pin_11*%
X185760000Y-97900000D03*
%TO.P,J5,10,Pin_10*%
%TO.N,/PC3*%
X183220000Y-100440000D03*
%TO.P,J5,9,Pin_9*%
X183220000Y-97900000D03*
%TO.P,J5,8,Pin_8*%
%TO.N,/PC2*%
X180680000Y-100440000D03*
%TO.P,J5,7,Pin_7*%
X180680000Y-97900000D03*
%TO.P,J5,6,Pin_6*%
%TO.N,/PC1*%
X178140000Y-100440000D03*
%TO.P,J5,5,Pin_5*%
X178140000Y-97900000D03*
%TO.P,J5,4,Pin_4*%
%TO.N,/PC0*%
X175600000Y-100440000D03*
%TO.P,J5,3,Pin_3*%
X175600000Y-97900000D03*
%TO.P,J5,2,Pin_2*%
%TO.N,/M_SCL*%
X173060000Y-100440000D03*
D10*
%TO.P,J5,1,Pin_1*%
X173060000Y-97900000D03*
%TD*%
%TO.P,J4,1,Pin_1*%
%TO.N,VCC*%
X183420000Y-104400000D03*
D11*
%TO.P,J4,2,Pin_2*%
%TO.N,GND*%
X183420000Y-106940000D03*
%TO.P,J4,3,Pin_3*%
X185960000Y-104400000D03*
%TO.P,J4,4,Pin_4*%
%TO.N,+3.3V*%
X185960000Y-106940000D03*
%TO.P,J4,5,Pin_5*%
%TO.N,GND*%
X188500000Y-104400000D03*
%TO.P,J4,6,Pin_6*%
X188500000Y-106940000D03*
%TD*%
%TO.P,J3,18,Pin_18*%
%TO.N,/M_SCL*%
X172580000Y-78600000D03*
%TO.P,J3,17,Pin_17*%
X172580000Y-81140000D03*
%TO.P,J3,16,Pin_16*%
%TO.N,/PB2*%
X175120000Y-78600000D03*
%TO.P,J3,15,Pin_15*%
X175120000Y-81140000D03*
%TO.P,J3,14,Pin_14*%
%TO.N,/PB3*%
X177660000Y-78600000D03*
%TO.P,J3,13,Pin_13*%
X177660000Y-81140000D03*
%TO.P,J3,12,Pin_12*%
%TO.N,/PB4*%
X180200000Y-78600000D03*
%TO.P,J3,11,Pin_11*%
X180200000Y-81140000D03*
%TO.P,J3,10,Pin_10*%
%TO.N,/PB5*%
X182740000Y-78600000D03*
%TO.P,J3,9,Pin_9*%
X182740000Y-81140000D03*
%TO.P,J3,8,Pin_8*%
%TO.N,/PA7*%
X185280000Y-78600000D03*
%TO.P,J3,7,Pin_7*%
X185280000Y-81140000D03*
%TO.P,J3,6,Pin_6*%
%TO.N,/PA6*%
X187820000Y-78600000D03*
%TO.P,J3,5,Pin_5*%
X187820000Y-81140000D03*
%TO.P,J3,4,Pin_4*%
%TO.N,/PA5*%
X190360000Y-78600000D03*
%TO.P,J3,3,Pin_3*%
X190360000Y-81140000D03*
%TO.P,J3,2,Pin_2*%
%TO.N,/M_SCL*%
X192900000Y-78600000D03*
D10*
%TO.P,J3,1,Pin_1*%
X192900000Y-81140000D03*
%TD*%
%TO.P,Antenna,1,Pin_1*%
%TO.N,Net-(J1-Pin_1)*%
X146200000Y-80500000D03*
D11*
%TO.P,Antenna,2,Pin_2*%
%TO.N,Net-(J1-Pin_2)*%
X146200000Y-83040000D03*
%TO.P,Antenna,3,Pin_3*%
%TO.N,Net-(J1-Pin_3)*%
X146200000Y-85580000D03*
%TD*%
D20*
%TO.P,H2,1,1*%
%TO.N,GND*%
X195100000Y-90000000D03*
%TD*%
%TO.P,H1,1,1*%
%TO.N,GND*%
X144900000Y-90000000D03*
%TD*%
D21*
%TO.P,D6,2,A*%
%TO.N,Net-(D6-A)*%
X181500000Y-113900000D03*
%TO.P,D6,1,K*%
%TO.N,GND*%
X179750000Y-113900000D03*
%TD*%
D22*
%TO.P,D2,2,A*%
%TO.N,/PA0*%
X184725000Y-71500000D03*
%TO.P,D2,1,K*%
%TO.N,Net-(D2-K)*%
X187700000Y-71500000D03*
%TD*%
D23*
%TO.P,C22,2*%
%TO.N,GND*%
X174025986Y-111800000D03*
%TO.P,C22,1*%
%TO.N,VCC*%
X176100986Y-111800000D03*
%TD*%
D24*
%TO.P,C20,2*%
%TO.N,GND*%
X174737500Y-114400000D03*
%TO.P,C20,1*%
%TO.N,+3.3V*%
X172662500Y-114400000D03*
%TD*%
D25*
%TO.P,C19,1*%
%TO.N,GND*%
X161900000Y-89675000D03*
%TO.P,C19,2*%
%TO.N,+3.3V*%
X161900000Y-87600000D03*
%TD*%
D24*
%TO.P,C18,2*%
%TO.N,GND*%
X167437500Y-94400000D03*
%TO.P,C18,1*%
%TO.N,/OSCOUT*%
X165362500Y-94400000D03*
%TD*%
%TO.P,C17,1*%
%TO.N,Net-(C17-Pad1)*%
X148862500Y-89700000D03*
%TO.P,C17,2*%
%TO.N,/RX*%
X150937500Y-89700000D03*
%TD*%
D26*
%TO.P,C16,1*%
%TO.N,/VMID*%
X153100000Y-88462500D03*
%TO.P,C16,2*%
%TO.N,GND*%
X153100000Y-90537500D03*
%TD*%
%TO.P,C15,2*%
%TO.N,GND*%
X161300000Y-100137500D03*
%TO.P,C15,1*%
%TO.N,/OSCIN*%
X161300000Y-98062500D03*
%TD*%
%TO.P,C14,1*%
%TO.N,+3.3V*%
X195300000Y-84262500D03*
%TO.P,C14,2*%
%TO.N,GND*%
X195300000Y-86337500D03*
%TD*%
D24*
%TO.P,C13,2*%
%TO.N,Net-(C10-Pad2)*%
X152937500Y-102500000D03*
%TO.P,C13,1*%
%TO.N,Net-(J1-Pin_2)*%
X150862500Y-102500000D03*
%TD*%
%TO.P,C12,2*%
%TO.N,Net-(J1-Pin_2)*%
X148437500Y-102500000D03*
%TO.P,C12,1*%
%TO.N,Net-(C12-Pad1)*%
X146362500Y-102500000D03*
%TD*%
%TO.P,C11,2*%
%TO.N,GND*%
X164700000Y-77900000D03*
%TO.P,C11,1*%
%TO.N,/AVDD*%
X162625000Y-77900000D03*
%TD*%
D26*
%TO.P,C10,1*%
%TO.N,Net-(J1-Pin_1)*%
X150800000Y-97362500D03*
%TO.P,C10,2*%
%TO.N,Net-(C10-Pad2)*%
X150800000Y-99437500D03*
%TD*%
%TO.P,C9,1*%
%TO.N,Net-(J1-Pin_3)*%
X147300000Y-97462500D03*
%TO.P,C9,2*%
%TO.N,Net-(C12-Pad1)*%
X147300000Y-99537500D03*
%TD*%
%TO.P,C8,1*%
%TO.N,+3.3V*%
X192300000Y-84225000D03*
%TO.P,C8,2*%
%TO.N,GND*%
X192300000Y-86300000D03*
%TD*%
D24*
%TO.P,C7,2*%
%TO.N,GND*%
X162537500Y-75700000D03*
%TO.P,C7,1*%
%TO.N,/AVDD*%
X160462500Y-75700000D03*
%TD*%
%TO.P,C6,2*%
%TO.N,Net-(J1-Pin_1)*%
X151775000Y-94600000D03*
%TO.P,C6,1*%
%TO.N,Net-(J1-Pin_2)*%
X149700000Y-94600000D03*
%TD*%
%TO.P,C5,1*%
%TO.N,Net-(J1-Pin_3)*%
X145462500Y-94600000D03*
%TO.P,C5,2*%
%TO.N,Net-(J1-Pin_2)*%
X147537500Y-94600000D03*
%TD*%
D26*
%TO.P,C4,1*%
%TO.N,+3.3V*%
X189000000Y-84262500D03*
%TO.P,C4,2*%
%TO.N,GND*%
X189000000Y-86337500D03*
%TD*%
D24*
%TO.P,C3,2*%
%TO.N,GND*%
X160637500Y-77900000D03*
%TO.P,C3,1*%
%TO.N,/AVDD*%
X158562500Y-77900000D03*
%TD*%
D25*
%TO.P,C2,2*%
%TO.N,GND*%
X154700000Y-75962500D03*
%TO.P,C2,1*%
%TO.N,/AVDD*%
X154700000Y-78037500D03*
%TD*%
%TO.P,C1,2*%
%TO.N,GND*%
X152100000Y-75962500D03*
%TO.P,C1,1*%
%TO.N,/AVDD*%
X152100000Y-78037500D03*
%TD*%
D27*
%TO.P,U1,1,DVSS*%
%TO.N,GND*%
X154400000Y-81900000D03*
%TO.P,U1,2,LOADMOD*%
%TO.N,unconnected-(U1-LOADMOD-Pad2)*%
X154400000Y-82400000D03*
%TO.P,U1,3,TVSS1*%
%TO.N,GND*%
X154400000Y-82900000D03*
%TO.P,U1,4,TX1*%
%TO.N,/TX1*%
X154400000Y-83400000D03*
%TO.P,U1,5,TVDD*%
%TO.N,/AVDD*%
X154400000Y-83900000D03*
%TO.P,U1,6,TX2*%
%TO.N,/TX2*%
X154400000Y-84400000D03*
%TO.P,U1,7,TVSS2*%
%TO.N,GND*%
X154400000Y-84900000D03*
%TO.P,U1,8,AVDD*%
%TO.N,/AVDD*%
X154400000Y-85400000D03*
%TO.P,U1,9,VMID*%
%TO.N,/VMID*%
X154400000Y-85900000D03*
%TO.P,U1,10,RX*%
%TO.N,/RX*%
X154400000Y-86400000D03*
D28*
%TO.P,U1,11,AVSS*%
%TO.N,GND*%
X155100000Y-87100000D03*
%TO.P,U1,12,AUX1*%
%TO.N,unconnected-(U1-AUX1-Pad12)*%
X155600000Y-87100000D03*
%TO.P,U1,13,AUX2*%
%TO.N,unconnected-(U1-AUX2-Pad13)*%
X156100000Y-87100000D03*
%TO.P,U1,14,OSCIN*%
%TO.N,/OSCIN*%
X156600000Y-87100000D03*
%TO.P,U1,15,OSCOUT*%
%TO.N,/OSCOUT*%
X157100000Y-87100000D03*
%TO.P,U1,16,I0*%
%TO.N,/I0*%
X157600000Y-87100000D03*
%TO.P,U1,17,I1*%
%TO.N,/I1*%
X158100000Y-87100000D03*
%TO.P,U1,18,TESTEN*%
%TO.N,GND*%
X158600000Y-87100000D03*
%TO.P,U1,19,P35*%
%TO.N,unconnected-(U1-P35-Pad19)*%
X159100000Y-87100000D03*
%TO.P,U1,20,N.C.*%
%TO.N,unconnected-(U1-N.C.-Pad20)*%
X159600000Y-87100000D03*
D27*
%TO.P,U1,21,N.C.*%
%TO.N,unconnected-(U1-N.C.-Pad21)*%
X160300000Y-86400000D03*
%TO.P,U1,22,N.C.*%
%TO.N,unconnected-(U1-N.C.-Pad22)*%
X160300000Y-85900000D03*
%TO.P,U1,23,PVDD*%
%TO.N,+3.3V*%
X160300000Y-85400000D03*
%TO.P,U1,24,P30/UART_RX*%
%TO.N,unconnected-(U1-P30{slash}UART_RX-Pad24)*%
X160300000Y-84900000D03*
%TO.P,U1,25,P70_IRQ*%
%TO.N,/PA7*%
X160300000Y-84400000D03*
%TO.P,U1,26,RSTOUT_N*%
%TO.N,unconnected-(U1-RSTOUT_N-Pad26)*%
X160300000Y-83900000D03*
%TO.P,U1,27,NSS/P50_SCL/HSU_RX*%
%TO.N,/M_SCL*%
X160300000Y-83400000D03*
%TO.P,U1,28,MOSI/SDA/HSU_TX*%
X160300000Y-82900000D03*
%TO.P,U1,29,MISO_/_P71*%
X160300000Y-82400000D03*
%TO.P,U1,30,SCK/P72*%
%TO.N,/PA3*%
X160300000Y-81900000D03*
D28*
%TO.P,U1,31,P31/UART_TX*%
%TO.N,unconnected-(U1-P31{slash}UART_TX-Pad31)*%
X159600000Y-81200000D03*
%TO.P,U1,32,P32_INT0*%
%TO.N,unconnected-(U1-P32_INT0-Pad32)*%
X159100000Y-81200000D03*
%TO.P,U1,33,P33_INT1*%
%TO.N,unconnected-(U1-P33_INT1-Pad33)*%
X158600000Y-81200000D03*
%TO.P,U1,34,P34/SIC_CLK*%
%TO.N,unconnected-(U1-P34{slash}SIC_CLK-Pad34)*%
X158100000Y-81200000D03*
%TO.P,U1,35,SIGOUT*%
%TO.N,unconnected-(U1-SIGOUT-Pad35)*%
X157600000Y-81200000D03*
%TO.P,U1,36,SIGIN*%
%TO.N,unconnected-(U1-SIGIN-Pad36)*%
X157100000Y-81200000D03*
%TO.P,U1,37,SVDD*%
%TO.N,unconnected-(U1-SVDD-Pad37)*%
X156600000Y-81200000D03*
%TO.P,U1,38,RSTPD_N*%
%TO.N,/PA5*%
X156100000Y-81200000D03*
%TO.P,U1,39,DVDD*%
%TO.N,/AVDD*%
X155600000Y-81200000D03*
%TO.P,U1,40,VBAT*%
%TO.N,+3.3V*%
X155100000Y-81200000D03*
D29*
%TO.P,U1,41,41*%
%TO.N,GND*%
X157350000Y-84150000D03*
%TD*%
D30*
%TO.N,GND*%
X155100000Y-88100000D03*
%TO.N,Net-(Q2-G)*%
X148800000Y-105800000D03*
X155500000Y-110100000D03*
%TO.N,+3.3V*%
X185960000Y-109440000D03*
X161900000Y-86000000D03*
%TO.N,/M_SCL*%
X185000000Y-86400000D03*
X182800000Y-89300000D03*
X164800000Y-83000000D03*
X164800000Y-87200000D03*
%TO.N,/PA3*%
X171000000Y-84400000D03*
X173650000Y-87050000D03*
%TO.N,/PA5*%
X170300000Y-79800000D03*
%TO.N,GND*%
X161900000Y-91000000D03*
%TO.N,/AVDD*%
X152100000Y-82700000D03*
X152550000Y-85250000D03*
%TO.N,+BAT*%
X168100000Y-101700000D03*
X163700000Y-102200000D03*
X160100000Y-102800000D03*
X156200000Y-108800000D03*
X156400000Y-111400000D03*
%TO.N,GND*%
X149600000Y-106400000D03*
X143800000Y-96600000D03*
X156500000Y-73500000D03*
X152100000Y-74500000D03*
X162500000Y-79400000D03*
X164000000Y-74500000D03*
%TO.N,/I0*%
X163500000Y-72300000D03*
%TO.N,/I1*%
X155100000Y-70700000D03*
X159100000Y-88100000D03*
%TO.N,/I0*%
X159400000Y-89000000D03*
%TO.N,GND*%
X152075000Y-87125000D03*
%TO.N,/TX2*%
X151400000Y-85400000D03*
%TO.N,/TX1*%
X153300000Y-83000000D03*
%TO.N,/TX2*%
X154400000Y-92700000D03*
%TO.N,/TX1*%
X156000000Y-92700000D03*
%TO.N,GND*%
X161000000Y-113300000D03*
%TO.N,+3.3V*%
X162700000Y-111400000D03*
%TO.N,GND*%
X160300000Y-107100000D03*
X167800000Y-109800000D03*
X163800000Y-103700000D03*
%TO.N,+3.3V*%
X154000000Y-80500000D03*
%TO.N,GND*%
X153000000Y-81900000D03*
X163800000Y-96500000D03*
X167437500Y-92162500D03*
%TO.N,+3.3V*%
X195700000Y-82700000D03*
%TO.N,GND*%
X181150000Y-109050000D03*
X176000000Y-115900000D03*
%TO.N,+3.3V*%
X172000000Y-111300000D03*
%TO.N,GND*%
X189150000Y-93850000D03*
X191100000Y-88800000D03*
%TO.N,Net-(J1-Pin_1)*%
X152375735Y-93024265D03*
%TD*%
D31*
%TO.N,/OSCOUT*%
X157500000Y-88600000D02*
X157100000Y-88200000D01*
X162200000Y-93900000D02*
X162200000Y-92900000D01*
X162200000Y-92900000D02*
X157900000Y-88600000D01*
X162700000Y-94400000D02*
X162200000Y-93900000D01*
X157900000Y-88600000D02*
X157500000Y-88600000D01*
X157100000Y-88200000D02*
X157100000Y-87100000D01*
X165362500Y-94400000D02*
X162700000Y-94400000D01*
D32*
%TO.N,/M_SCL*%
X166000000Y-89300000D02*
X182800000Y-89300000D01*
X164800000Y-88100000D02*
X166000000Y-89300000D01*
X164800000Y-87200000D02*
X164800000Y-88100000D01*
%TO.N,/PA7*%
X181235000Y-86165000D02*
X181235000Y-84550000D01*
X165083884Y-86300000D02*
X181100000Y-86300000D01*
X164541116Y-86275000D02*
X165058884Y-86275000D01*
X164516116Y-86300000D02*
X164541116Y-86275000D01*
X161700000Y-84400000D02*
X163600000Y-86300000D01*
X181100000Y-86300000D02*
X181235000Y-86165000D01*
X165058884Y-86275000D02*
X165083884Y-86300000D01*
X163600000Y-86300000D02*
X164516116Y-86300000D01*
X160300000Y-84400000D02*
X161700000Y-84400000D01*
%TO.N,/PA3*%
X174200000Y-87600000D02*
X184700000Y-87600000D01*
X184700000Y-87600000D02*
X185045000Y-87945000D01*
X173650000Y-87050000D02*
X174200000Y-87600000D01*
X185045000Y-87945000D02*
X185045000Y-93850000D01*
D31*
%TO.N,/AVDD*%
X152550000Y-85250000D02*
X152700000Y-85400000D01*
X152700000Y-85400000D02*
X154400000Y-85400000D01*
D32*
%TO.N,/RX*%
X155500000Y-91800000D02*
X157000000Y-90300000D01*
X150937500Y-90237500D02*
X152500000Y-91800000D01*
X150937500Y-89700000D02*
X150937500Y-90237500D01*
X152500000Y-91800000D02*
X155500000Y-91800000D01*
D31*
%TO.N,/OSCIN*%
X157800000Y-89200000D02*
X157300000Y-89200000D01*
X156600000Y-88500000D02*
X156600000Y-87100000D01*
X159100000Y-90500000D02*
X157800000Y-89200000D01*
X159100000Y-95862500D02*
X159100000Y-90500000D01*
X157300000Y-89200000D02*
X156600000Y-88500000D01*
X161300000Y-98062500D02*
X159100000Y-95862500D01*
D33*
%TO.N,GND*%
X181150000Y-109050000D02*
X180700000Y-108600000D01*
X180700000Y-108600000D02*
X179450000Y-108600000D01*
D31*
X165387500Y-101600000D02*
X166700000Y-100287500D01*
X162762500Y-101600000D02*
X165387500Y-101600000D01*
X161300000Y-100137500D02*
X162762500Y-101600000D01*
D34*
%TO.N,/TX2*%
X152400000Y-84400000D02*
X154400000Y-84400000D01*
X151400000Y-85400000D02*
X152400000Y-84400000D01*
D32*
%TO.N,/M_SCL*%
X160300000Y-83400000D02*
X162800000Y-83400000D01*
X162800000Y-83400000D02*
X163300000Y-82900000D01*
X163300000Y-82900000D02*
X163800000Y-82400000D01*
X160300000Y-82900000D02*
X163300000Y-82900000D01*
X163800000Y-82400000D02*
X160300000Y-82400000D01*
X164200000Y-82400000D02*
X163800000Y-82400000D01*
%TO.N,GND*%
X156600000Y-84900000D02*
X157350000Y-84150000D01*
X154400000Y-84900000D02*
X156600000Y-84900000D01*
X155100000Y-87100000D02*
X155100000Y-86623935D01*
X155100000Y-86623935D02*
X157350000Y-84373935D01*
X158600000Y-85400000D02*
X157350000Y-84150000D01*
X158600000Y-87100000D02*
X158600000Y-85400000D01*
D34*
X155100000Y-88100000D02*
X155100000Y-87900000D01*
D32*
%TO.N,/RX*%
X153600000Y-86400000D02*
X154400000Y-86400000D01*
X154300000Y-87500000D02*
X153600000Y-86800000D01*
X154300000Y-88200000D02*
X154300000Y-87500000D01*
X154900000Y-88800000D02*
X154300000Y-88200000D01*
X157000000Y-90300000D02*
X155500000Y-88800000D01*
X155500000Y-88800000D02*
X154900000Y-88800000D01*
X153600000Y-86800000D02*
X153600000Y-86400000D01*
D31*
%TO.N,/VMID*%
X153400000Y-85900000D02*
X154400000Y-85900000D01*
X153100000Y-86200000D02*
X153400000Y-85900000D01*
X153100000Y-88462500D02*
X153100000Y-86200000D01*
D34*
%TO.N,GND*%
X155100000Y-87100000D02*
X155100000Y-88100000D01*
%TO.N,Net-(J1-Pin_1)*%
X152375735Y-93024265D02*
X152100000Y-93300000D01*
%TO.N,Net-(J1-Pin_2)*%
X149900000Y-91444544D02*
X149800000Y-91544544D01*
X149900000Y-86415000D02*
X149900000Y-91444544D01*
X146525000Y-83040000D02*
X149900000Y-86415000D01*
X146200000Y-83040000D02*
X146525000Y-83040000D01*
X149800000Y-91544544D02*
X149800000Y-94500000D01*
D31*
X149800000Y-94500000D02*
X149700000Y-94600000D01*
%TO.N,Net-(C10-Pad2)*%
X152400000Y-92200000D02*
X150800000Y-92200000D01*
X152400000Y-96600000D02*
X153500000Y-95500000D01*
X152400000Y-98100000D02*
X152400000Y-96600000D01*
X153500000Y-93300000D02*
X152400000Y-92200000D01*
X151062500Y-99437500D02*
X152400000Y-98100000D01*
X150800000Y-99437500D02*
X151062500Y-99437500D01*
X153500000Y-95500000D02*
X153500000Y-93300000D01*
%TO.N,Net-(J1-Pin_2)*%
X147537500Y-95037500D02*
X147537500Y-94600000D01*
X148700000Y-102237500D02*
X148700000Y-96200000D01*
X148700000Y-96200000D02*
X147537500Y-95037500D01*
X148437500Y-102500000D02*
X148700000Y-102237500D01*
D32*
%TO.N,/M_SCL*%
X174885000Y-92000000D02*
X182505000Y-92000000D01*
X174885000Y-93850000D02*
X174885000Y-92000000D01*
X182505000Y-92000000D02*
X183775000Y-92000000D01*
X182505000Y-92825001D02*
X182505000Y-92000000D01*
X183775000Y-94874999D02*
X183775000Y-93850000D01*
X184600001Y-95700000D02*
X183775000Y-94874999D01*
X188700000Y-95700000D02*
X184600001Y-95700000D01*
X190840000Y-97840000D02*
X188700000Y-95700000D01*
X190840000Y-97900000D02*
X190840000Y-97840000D01*
X182505000Y-94955000D02*
X182505000Y-93850000D01*
X187534315Y-97900000D02*
X185834315Y-96200000D01*
X188300000Y-97900000D02*
X187534315Y-97900000D01*
X185834315Y-96200000D02*
X183750000Y-96200000D01*
X183750000Y-96200000D02*
X182505000Y-94955000D01*
D34*
%TO.N,/PA0*%
X183800000Y-96700000D02*
X185000000Y-97900000D01*
X185000000Y-97900000D02*
X185760000Y-97900000D01*
X182900000Y-96700000D02*
X183800000Y-96700000D01*
X181235000Y-95035000D02*
X182900000Y-96700000D01*
X181235000Y-94435000D02*
X181235000Y-95035000D01*
D32*
%TO.N,/PA3*%
X185500000Y-95300000D02*
X185045000Y-94845000D01*
X185045000Y-94845000D02*
X185045000Y-93850000D01*
X190780000Y-95300000D02*
X185500000Y-95300000D01*
X193380000Y-97900000D02*
X190780000Y-95300000D01*
D31*
%TO.N,/PC0*%
X176100000Y-93905000D02*
X176155000Y-93850000D01*
D32*
X175600000Y-96700000D02*
X176100000Y-96200000D01*
X176100000Y-96200000D02*
X176100000Y-93905000D01*
X175600000Y-97900000D02*
X175600000Y-96700000D01*
%TO.N,/M_SCL*%
X174885000Y-95215000D02*
X174885000Y-93850000D01*
X173060000Y-97040000D02*
X174885000Y-95215000D01*
X173060000Y-97900000D02*
X173060000Y-97040000D01*
X191000000Y-83200000D02*
X192680000Y-81520000D01*
X185370001Y-83200000D02*
X191000000Y-83200000D01*
X185045000Y-83525001D02*
X185370001Y-83200000D01*
X185045000Y-84550000D02*
X185045000Y-83525001D01*
D34*
%TO.N,/PA6*%
X187700000Y-81600000D02*
X187700000Y-78500000D01*
D32*
X183300000Y-83100000D02*
X184000000Y-82400000D01*
X182700000Y-83100000D02*
X183300000Y-83100000D01*
X184000000Y-82400000D02*
X186900000Y-82400000D01*
X182505000Y-83295000D02*
X182700000Y-83100000D01*
X186900000Y-82400000D02*
X187700000Y-81600000D01*
X182505000Y-84550000D02*
X182505000Y-83295000D01*
%TO.N,GND*%
X154425000Y-81925000D02*
X154400000Y-81900000D01*
X157350000Y-84150000D02*
X155125000Y-81925000D01*
X155125000Y-81925000D02*
X154425000Y-81925000D01*
D34*
X153000000Y-81900000D02*
X154400000Y-81900000D01*
D32*
%TO.N,/PA5*%
X184500000Y-82800000D02*
X190100000Y-82800000D01*
X183775000Y-83525000D02*
X184500000Y-82800000D01*
X190100000Y-82800000D02*
X190300000Y-82600000D01*
X183775000Y-84550000D02*
X183775000Y-83525000D01*
D34*
%TO.N,/PB4*%
X178695000Y-82645000D02*
X180200000Y-81140000D01*
X178695000Y-84550000D02*
X178695000Y-82645000D01*
D31*
%TO.N,GND*%
X163200000Y-79400000D02*
X164700000Y-77900000D01*
X162500000Y-79400000D02*
X163200000Y-79400000D01*
X162500000Y-79400000D02*
X162000000Y-79400000D01*
X162000000Y-79400000D02*
X160637500Y-78037500D01*
X160637500Y-78037500D02*
X160637500Y-77900000D01*
%TO.N,/PA5*%
X165400000Y-80200000D02*
X167000000Y-78600000D01*
X156100000Y-80300000D02*
X156200000Y-80200000D01*
X156200000Y-80200000D02*
X165400000Y-80200000D01*
X156100000Y-81200000D02*
X156100000Y-80300000D01*
X167000000Y-78600000D02*
X169200000Y-78600000D01*
X169200000Y-78600000D02*
X170300000Y-79700000D01*
D34*
%TO.N,+3.3V*%
X155100000Y-80600000D02*
X155100000Y-81200000D01*
X155000000Y-80500000D02*
X155100000Y-80600000D01*
X154000000Y-80500000D02*
X155000000Y-80500000D01*
D31*
%TO.N,Net-(J1-Pin_3)*%
X147300000Y-96900000D02*
X147300000Y-97462500D01*
X145462500Y-95062500D02*
X147300000Y-96900000D01*
X145462500Y-94600000D02*
X145462500Y-95062500D01*
D34*
X147600000Y-91600000D02*
X145462500Y-93737500D01*
X147600000Y-86980000D02*
X147600000Y-91600000D01*
X145462500Y-93737500D02*
X145462500Y-94600000D01*
X146200000Y-85580000D02*
X147600000Y-86980000D01*
D31*
%TO.N,Net-(J1-Pin_1)*%
X150800000Y-96800000D02*
X151775000Y-95825000D01*
X150800000Y-97362500D02*
X150800000Y-96800000D01*
X151775000Y-95825000D02*
X151775000Y-94600000D01*
%TO.N,/AVDD*%
X165900000Y-71755000D02*
X166600000Y-71055000D01*
X165900000Y-74625000D02*
X165900000Y-71755000D01*
X162625000Y-77900000D02*
X165900000Y-74625000D01*
D32*
%TO.N,/PA3*%
X170400000Y-83800000D02*
X171000000Y-84400000D01*
X167000000Y-83800000D02*
X170400000Y-83800000D01*
X165100000Y-81900000D02*
X167000000Y-83800000D01*
X160300000Y-81900000D02*
X165100000Y-81900000D01*
D31*
%TO.N,GND*%
X164700000Y-77900000D02*
X165037500Y-77900000D01*
%TO.N,/AVDD*%
X160462500Y-75737500D02*
X162625000Y-77900000D01*
X160462500Y-75700000D02*
X160462500Y-75737500D01*
%TO.N,/PA5*%
X190300000Y-78560000D02*
X190140000Y-78400000D01*
D32*
X190300000Y-82600000D02*
X190300000Y-78560000D01*
D31*
%TO.N,/PA6*%
X187700000Y-78500000D02*
X187600000Y-78400000D01*
D34*
%TO.N,/PA7*%
X185300000Y-81120000D02*
X185300000Y-78640000D01*
D31*
X185280000Y-81140000D02*
X185300000Y-81120000D01*
X185300000Y-78640000D02*
X185060000Y-78400000D01*
D34*
X182300000Y-82400000D02*
X183300000Y-82400000D01*
X183300000Y-82400000D02*
X184560000Y-81140000D01*
X181235000Y-83465000D02*
X182300000Y-82400000D01*
D31*
X184560000Y-81140000D02*
X185280000Y-81140000D01*
D34*
X181235000Y-84550000D02*
X181235000Y-83465000D01*
D31*
%TO.N,/PB5*%
X182600000Y-78480000D02*
X182520000Y-78400000D01*
D34*
X182600000Y-80680000D02*
X182600000Y-78480000D01*
X179965000Y-83315000D02*
X182600000Y-80680000D01*
X179965000Y-84550000D02*
X179965000Y-83315000D01*
%TO.N,/PB4*%
X180200000Y-80720000D02*
X180200000Y-78620000D01*
D31*
X180200000Y-78620000D02*
X179980000Y-78400000D01*
D34*
%TO.N,/PB3*%
X177440000Y-80940000D02*
X177440000Y-78400000D01*
%TO.N,/PB2*%
X174860000Y-74600000D02*
X174860000Y-78360000D01*
X175120000Y-78620000D02*
X174900000Y-78400000D01*
X176155000Y-82855000D02*
X175120000Y-81820000D01*
X176155000Y-84550000D02*
X176155000Y-82855000D01*
X175120000Y-81820000D02*
X175120000Y-78620000D01*
%TO.N,/M_SCL*%
X172600000Y-81120000D02*
X172600000Y-78640000D01*
D31*
X172580000Y-81140000D02*
X172600000Y-81120000D01*
X172740000Y-81140000D02*
X172580000Y-81140000D01*
D34*
X174885000Y-84550000D02*
X174885000Y-83285000D01*
X174885000Y-83285000D02*
X172740000Y-81140000D01*
D32*
%TO.N,/PC3*%
X182700000Y-97900000D02*
X183220000Y-97900000D01*
X179965000Y-95165000D02*
X182700000Y-97900000D01*
X179965000Y-93850000D02*
X179965000Y-95165000D01*
%TO.N,/M_SCL*%
X183775000Y-92200000D02*
X183775000Y-90175000D01*
D31*
X182555000Y-93900000D02*
X182505000Y-93850000D01*
X183775000Y-93850000D02*
X183725000Y-93900000D01*
D34*
%TO.N,/PA0*%
X179940000Y-74060000D02*
X182500000Y-71500000D01*
X182500000Y-71500000D02*
X184725000Y-71500000D01*
X179940000Y-74600000D02*
X179940000Y-74060000D01*
X184725000Y-71500000D02*
X184725000Y-71385000D01*
%TO.N,Net-(D2-K)*%
X188187500Y-71500000D02*
X187700000Y-71500000D01*
X189555000Y-72867500D02*
X188187500Y-71500000D01*
X189555000Y-74600000D02*
X189555000Y-72867500D01*
D32*
%TO.N,/M_SCL*%
X182505000Y-92825001D02*
X182505000Y-93850000D01*
D31*
%TO.N,GND*%
X152075000Y-87125000D02*
X152075000Y-89512500D01*
X152075000Y-89512500D02*
X153100000Y-90537500D01*
D32*
%TO.N,/M_SCL*%
X164800000Y-83000000D02*
X164200000Y-82400000D01*
D35*
%TO.N,GND*%
X189150000Y-93850000D02*
X186315000Y-93850000D01*
D31*
%TO.N,/PB3*%
X178000000Y-78400000D02*
X177440000Y-78400000D01*
D34*
X181800000Y-74600000D02*
X178000000Y-78400000D01*
X184475000Y-74600000D02*
X181800000Y-74600000D01*
%TO.N,+3.3V*%
X161900000Y-86000000D02*
X161900000Y-87600000D01*
X161300000Y-85400000D02*
X160300000Y-85400000D01*
X161900000Y-86000000D02*
X161300000Y-85400000D01*
D33*
%TO.N,+BAT*%
X167600000Y-102200000D02*
X163700000Y-102200000D01*
X168100000Y-101700000D02*
X167600000Y-102200000D01*
D34*
%TO.N,Net-(Q2-G)*%
X148800000Y-107300000D02*
X151600000Y-110100000D01*
X151600000Y-110100000D02*
X155500000Y-110100000D01*
X148800000Y-105800000D02*
X148800000Y-107300000D01*
D31*
%TO.N,GND*%
X153000000Y-81900000D02*
X153000000Y-81700000D01*
D34*
X161900000Y-91000000D02*
X161900000Y-89675000D01*
D31*
%TO.N,/AVDD*%
X157200000Y-77900000D02*
X158562500Y-77900000D01*
X155600000Y-79500000D02*
X157200000Y-77900000D01*
D34*
%TO.N,/TX1*%
X156000000Y-92700000D02*
X156000000Y-101875000D01*
%TO.N,/M_SCL*%
X192680000Y-81520000D02*
X192680000Y-80940000D01*
D33*
%TO.N,VCC*%
X182073081Y-105746919D02*
X183420000Y-104400000D01*
X179600000Y-110100000D02*
X182073081Y-110100000D01*
X182073081Y-110100000D02*
X182073081Y-105746919D01*
X179600000Y-111700000D02*
X179600000Y-110100000D01*
D35*
%TO.N,GND*%
X167437500Y-92162500D02*
X167437500Y-94400000D01*
D33*
%TO.N,+3.3V*%
X185960000Y-106940000D02*
X185960000Y-109440000D01*
D31*
%TO.N,/M_SCL*%
X185000000Y-84595000D02*
X185045000Y-84550000D01*
D32*
X185000000Y-86400000D02*
X185000000Y-84595000D01*
D31*
X182900000Y-89300000D02*
X182800000Y-89300000D01*
D32*
X183200000Y-89600000D02*
X182900000Y-89300000D01*
X183775000Y-90175000D02*
X183200000Y-89600000D01*
D31*
%TO.N,/PA3*%
X171000000Y-84400000D02*
X171100000Y-84500000D01*
%TO.N,/PA5*%
X170400000Y-79800000D02*
X170300000Y-79700000D01*
X170300000Y-79800000D02*
X170400000Y-79800000D01*
X170300000Y-79700000D02*
X170300000Y-79800000D01*
%TO.N,/AVDD*%
X155600000Y-80100000D02*
X155600000Y-79500000D01*
%TO.N,Net-(D6-A)*%
X181500000Y-111800000D02*
X181600000Y-111700000D01*
D33*
X181500000Y-113900000D02*
X181500000Y-111800000D01*
D31*
%TO.N,/AVDD*%
X152100000Y-82648529D02*
X152100000Y-82648529D01*
X152100000Y-82700000D02*
X152100000Y-82648529D01*
X152151471Y-82700000D02*
X152100000Y-82700000D01*
X154700000Y-78037500D02*
X152100000Y-78037500D01*
D33*
%TO.N,+BAT*%
X156400000Y-109000000D02*
X156200000Y-108800000D01*
X156400000Y-111400000D02*
X156400000Y-109000000D01*
D31*
%TO.N,GND*%
X152100000Y-75962500D02*
X154700000Y-75962500D01*
X152100000Y-75962500D02*
X152100000Y-74500000D01*
X162800000Y-75700000D02*
X164000000Y-74500000D01*
X162537500Y-75700000D02*
X162800000Y-75700000D01*
%TO.N,/AVDD*%
X160462500Y-76000000D02*
X158562500Y-77900000D01*
X160462500Y-75700000D02*
X160462500Y-76000000D01*
X160462500Y-74162500D02*
X160462500Y-75700000D01*
X160000000Y-73700000D02*
X160462500Y-74162500D01*
X160000000Y-71580000D02*
X160000000Y-73700000D01*
%TO.N,Net-(J10-Pin_2)*%
X166585000Y-68500000D02*
X166600000Y-68515000D01*
X163500000Y-68500000D02*
X166585000Y-68500000D01*
%TO.N,Net-(J9-Pin_2)*%
X159560000Y-68600000D02*
X160000000Y-69040000D01*
X156900000Y-68600000D02*
X159560000Y-68600000D01*
%TO.N,/I1*%
X156800000Y-70700000D02*
X156900000Y-70600000D01*
X155100000Y-70700000D02*
X156800000Y-70700000D01*
%TO.N,/I0*%
X163500000Y-72300000D02*
X163500000Y-70500000D01*
X157600000Y-87598096D02*
X157600000Y-87100000D01*
X159001904Y-89000000D02*
X157600000Y-87598096D01*
X159400000Y-89000000D02*
X159001904Y-89000000D01*
%TO.N,/I1*%
X159100000Y-88100000D02*
X159000000Y-88100000D01*
X158667590Y-88100000D02*
X159100000Y-88100000D01*
X158100000Y-87532410D02*
X158667590Y-88100000D01*
X158100000Y-87100000D02*
X158100000Y-87532410D01*
%TO.N,/AVDD*%
X152100000Y-82648529D02*
X152100000Y-78037500D01*
X153351471Y-83900000D02*
X152151471Y-82700000D01*
X154400000Y-83900000D02*
X153351471Y-83900000D01*
D34*
%TO.N,/TX1*%
X153700000Y-83400000D02*
X154400000Y-83400000D01*
X153300000Y-83000000D02*
X153700000Y-83400000D01*
D31*
%TO.N,/AVDD*%
X155600000Y-81200000D02*
X155600000Y-80100000D01*
D34*
%TO.N,/TX2*%
X154400000Y-96675000D02*
X154400000Y-92700000D01*
X153800000Y-97275000D02*
X154400000Y-96675000D01*
D32*
%TO.N,GND*%
X154400000Y-82900000D02*
X156100000Y-82900000D01*
D31*
X168100000Y-99075000D02*
X168100000Y-95062500D01*
X166887500Y-100287500D02*
X168100000Y-99075000D01*
X166700000Y-100287500D02*
X166887500Y-100287500D01*
X168100000Y-95062500D02*
X167437500Y-94400000D01*
X163800000Y-96500000D02*
X163800000Y-96600000D01*
D35*
X163800000Y-98112500D02*
X163800000Y-96500000D01*
X166312500Y-100287500D02*
X164137500Y-98112500D01*
D31*
X166700000Y-100287500D02*
X166312500Y-100287500D01*
X164137500Y-98112500D02*
X163800000Y-98112500D01*
%TO.N,/OSCOUT*%
X166700000Y-95737500D02*
X165362500Y-94400000D01*
X166700000Y-98112500D02*
X166700000Y-95737500D01*
%TO.N,/OSCIN*%
X163525000Y-100287500D02*
X163800000Y-100287500D01*
X161300000Y-98062500D02*
X163525000Y-100287500D01*
%TO.N,+3.3V*%
X195700000Y-82600000D02*
X195600000Y-82700000D01*
X195700000Y-82700000D02*
X195700000Y-82600000D01*
X195600000Y-82700000D02*
X195700000Y-82700000D01*
D35*
X195300000Y-83000000D02*
X195600000Y-82700000D01*
X195300000Y-84262500D02*
X195300000Y-83000000D01*
D31*
%TO.N,VCC*%
X176200986Y-111700000D02*
X176100986Y-111800000D01*
D33*
X179600000Y-111700000D02*
X176200986Y-111700000D01*
%TO.N,GND*%
X174737500Y-114637500D02*
X176000000Y-115900000D01*
X174737500Y-114400000D02*
X174737500Y-114637500D01*
X179250000Y-114400000D02*
X179750000Y-113900000D01*
X174737500Y-114400000D02*
X179250000Y-114400000D01*
X174737500Y-112511514D02*
X174025986Y-111800000D01*
X174737500Y-114400000D02*
X174737500Y-112511514D01*
%TO.N,+3.3V*%
X172000000Y-109600000D02*
X173150000Y-108450000D01*
X172000000Y-111300000D02*
X172000000Y-109600000D01*
X173150000Y-108450000D02*
X173150000Y-106300000D01*
X172662500Y-111962500D02*
X172000000Y-111300000D01*
X172662500Y-114400000D02*
X172662500Y-111962500D01*
X179450000Y-106300000D02*
X173150000Y-106300000D01*
%TO.N,VCC*%
X181600000Y-104400000D02*
X181200000Y-104000000D01*
X183420000Y-104400000D02*
X181600000Y-104400000D01*
X181200000Y-104000000D02*
X179450000Y-104000000D01*
D35*
%TO.N,GND*%
X192300000Y-87600000D02*
X191100000Y-88800000D01*
X192300000Y-86300000D02*
X192300000Y-87600000D01*
D31*
%TO.N,/PA0*%
X181235000Y-93850000D02*
X181235000Y-94435000D01*
D32*
%TO.N,/PC2*%
X178695000Y-95895000D02*
X178695000Y-93850000D01*
X180680000Y-97880000D02*
X178695000Y-95895000D01*
D31*
X180680000Y-97900000D02*
X180680000Y-97880000D01*
D32*
%TO.N,/PC1*%
X177425000Y-97185000D02*
X177425000Y-93850000D01*
X178140000Y-97900000D02*
X177425000Y-97185000D01*
D34*
%TO.N,/PA3*%
X193380000Y-100440000D02*
X193380000Y-97900000D01*
%TO.N,/M_SCL*%
X190840000Y-100440000D02*
X190840000Y-97900000D01*
X188300000Y-100440000D02*
X188300000Y-97900000D01*
%TO.N,/PA0*%
X185760000Y-100440000D02*
X185760000Y-97900000D01*
%TO.N,/PC3*%
X183220000Y-100440000D02*
X183220000Y-97900000D01*
%TO.N,/PC2*%
X180680000Y-100440000D02*
X180680000Y-97900000D01*
%TO.N,/PC1*%
X178140000Y-100440000D02*
X178140000Y-97900000D01*
%TO.N,/PC0*%
X175600000Y-100440000D02*
X175600000Y-97900000D01*
%TO.N,/M_SCL*%
X173060000Y-100440000D02*
X173060000Y-97900000D01*
X192680000Y-80940000D02*
X192680000Y-78400000D01*
D31*
%TO.N,/PB3*%
X177425000Y-80955000D02*
X177440000Y-80940000D01*
D34*
X177425000Y-84550000D02*
X177425000Y-80955000D01*
D31*
%TO.N,GND*%
X192400000Y-86300000D02*
X192437500Y-86337500D01*
D35*
X192437500Y-86337500D02*
X195300000Y-86337500D01*
D31*
X192300000Y-86300000D02*
X192400000Y-86300000D01*
X192262500Y-86337500D02*
X192300000Y-86300000D01*
D35*
X189000000Y-86337500D02*
X192262500Y-86337500D01*
D31*
%TO.N,+3.3V*%
X195262500Y-84225000D02*
X195300000Y-84262500D01*
D35*
X192300000Y-84225000D02*
X195262500Y-84225000D01*
D31*
X192262500Y-84262500D02*
X192300000Y-84225000D01*
D35*
X189000000Y-84262500D02*
X192262500Y-84262500D01*
D31*
X188712500Y-84550000D02*
X189000000Y-84262500D01*
D35*
X186315000Y-84550000D02*
X188712500Y-84550000D01*
D34*
%TO.N,Net-(J1-Pin_1)*%
X151775000Y-93625000D02*
X152100000Y-93300000D01*
X151775000Y-94600000D02*
X151775000Y-93625000D01*
D31*
%TO.N,Net-(C12-Pad1)*%
X147787500Y-103925000D02*
X156000000Y-103925000D01*
X146362500Y-102500000D02*
X147787500Y-103925000D01*
%TO.N,Net-(C10-Pad2)*%
X152937500Y-100187500D02*
X153800000Y-99325000D01*
X152937500Y-102500000D02*
X152937500Y-100187500D01*
%TO.N,Net-(C12-Pad1)*%
X146362500Y-100475000D02*
X147300000Y-99537500D01*
X146362500Y-102500000D02*
X146362500Y-100475000D01*
%TO.N,Net-(J1-Pin_2)*%
X148437500Y-102500000D02*
X150862500Y-102500000D01*
%TO.N,Net-(C10-Pad2)*%
X153687500Y-99437500D02*
X153800000Y-99325000D01*
X150800000Y-99437500D02*
X153687500Y-99437500D01*
%TO.N,Net-(J1-Pin_1)*%
X151775000Y-94600000D02*
X151615256Y-94600000D01*
%TO.N,Net-(J1-Pin_2)*%
X149700000Y-94600000D02*
X147537500Y-94600000D01*
%TO.N,/VMID*%
X154937500Y-90300000D02*
X153100000Y-88462500D01*
X155000000Y-90300000D02*
X154937500Y-90300000D01*
%TO.N,Net-(C17-Pad1)*%
X148800000Y-89762500D02*
X148862500Y-89700000D01*
X148800000Y-92200000D02*
X148800000Y-89762500D01*
D32*
%TO.N,/M_SCL*%
X183775000Y-93850000D02*
X183775000Y-92200000D01*
D31*
%TO.N,/PB2*%
X174860000Y-78360000D02*
X174900000Y-78400000D01*
D33*
%TO.N,+BAT*%
X160100000Y-102800000D02*
X160650000Y-102250000D01*
X160650000Y-102250000D02*
X163700000Y-102250000D01*
D31*
%TO.N,/AVDD*%
X155600000Y-79500000D02*
X154700000Y-78600000D01*
X154700000Y-78600000D02*
X154700000Y-78037500D01*
%TD*%
M02*
