%TF.GenerationSoftware,KiCad,Pcbnew,8.0.3*%
%TF.CreationDate,2025-07-10T12:51:06-07:00*%
%TF.ProjectId,salp_board_round,73616c70-5f62-46f6-9172-645f726f756e,rev?*%
%TF.SameCoordinates,Original*%
%TF.FileFunction,Copper,L4,Bot*%
%TF.FilePolarity,Positive*%
%FSLAX46Y46*%
G04 Gerber Fmt 4.6, Leading zero omitted, Abs format (unit mm)*
G04 Created by KiCad (PCBNEW 8.0.3) date 2025-07-10 12:51:06*
%MOMM*%
%LPD*%
G01*
G04 APERTURE LIST*
G04 Aperture macros list*
%AMRoundRect*
0 Rectangle with rounded corners*
0 $1 Rounding radius*
0 $2 $3 $4 $5 $6 $7 $8 $9 X,Y pos of 4 corners*
0 Add a 4 corners polygon primitive as box body*
4,1,4,$2,$3,$4,$5,$6,$7,$8,$9,$2,$3,0*
0 Add four circle primitives for the rounded corners*
1,1,$1+$1,$2,$3*
1,1,$1+$1,$4,$5*
1,1,$1+$1,$6,$7*
1,1,$1+$1,$8,$9*
0 Add four rect primitives between the rounded corners*
20,1,$1+$1,$2,$3,$4,$5,0*
20,1,$1+$1,$4,$5,$6,$7,0*
20,1,$1+$1,$6,$7,$8,$9,0*
20,1,$1+$1,$8,$9,$2,$3,0*%
G04 Aperture macros list end*
%TA.AperFunction,SMDPad,CuDef*%
%ADD10RoundRect,0.250000X-0.450000X0.350000X-0.450000X-0.350000X0.450000X-0.350000X0.450000X0.350000X0*%
%TD*%
%TA.AperFunction,SMDPad,CuDef*%
%ADD11RoundRect,0.150000X-0.150000X0.587500X-0.150000X-0.587500X0.150000X-0.587500X0.150000X0.587500X0*%
%TD*%
%TA.AperFunction,ComponentPad*%
%ADD12R,1.700000X1.700000*%
%TD*%
%TA.AperFunction,ComponentPad*%
%ADD13O,1.700000X1.700000*%
%TD*%
%TA.AperFunction,ComponentPad*%
%ADD14C,4.400000*%
%TD*%
%TA.AperFunction,SMDPad,CuDef*%
%ADD15RoundRect,0.250000X0.450000X-0.350000X0.450000X0.350000X-0.450000X0.350000X-0.450000X-0.350000X0*%
%TD*%
%TA.AperFunction,SMDPad,CuDef*%
%ADD16R,3.600000X2.600000*%
%TD*%
%TA.AperFunction,SMDPad,CuDef*%
%ADD17RoundRect,0.243750X-0.243750X-0.456250X0.243750X-0.456250X0.243750X0.456250X-0.243750X0.456250X0*%
%TD*%
%TA.AperFunction,SMDPad,CuDef*%
%ADD18RoundRect,0.243750X-0.456250X0.243750X-0.456250X-0.243750X0.456250X-0.243750X0.456250X0.243750X0*%
%TD*%
%TA.AperFunction,SMDPad,CuDef*%
%ADD19R,1.000000X0.900000*%
%TD*%
%TA.AperFunction,SMDPad,CuDef*%
%ADD20R,0.400000X0.800000*%
%TD*%
%TA.AperFunction,SMDPad,CuDef*%
%ADD21RoundRect,0.112500X0.112500X0.237500X-0.112500X0.237500X-0.112500X-0.237500X0.112500X-0.237500X0*%
%TD*%
%TA.AperFunction,SMDPad,CuDef*%
%ADD22RoundRect,0.150000X-0.512500X-0.150000X0.512500X-0.150000X0.512500X0.150000X-0.512500X0.150000X0*%
%TD*%
%TA.AperFunction,SMDPad,CuDef*%
%ADD23RoundRect,0.250000X0.337500X0.475000X-0.337500X0.475000X-0.337500X-0.475000X0.337500X-0.475000X0*%
%TD*%
%TA.AperFunction,SMDPad,CuDef*%
%ADD24RoundRect,0.250000X-0.475000X0.337500X-0.475000X-0.337500X0.475000X-0.337500X0.475000X0.337500X0*%
%TD*%
%TA.AperFunction,SMDPad,CuDef*%
%ADD25RoundRect,0.250000X0.350000X0.450000X-0.350000X0.450000X-0.350000X-0.450000X0.350000X-0.450000X0*%
%TD*%
%TA.AperFunction,ViaPad*%
%ADD26C,0.600000*%
%TD*%
%TA.AperFunction,Conductor*%
%ADD27C,0.300000*%
%TD*%
%TA.AperFunction,Conductor*%
%ADD28C,0.200000*%
%TD*%
%TA.AperFunction,Conductor*%
%ADD29C,0.400000*%
%TD*%
%TA.AperFunction,Conductor*%
%ADD30C,1.000000*%
%TD*%
%TA.AperFunction,Conductor*%
%ADD31C,0.500000*%
%TD*%
%TA.AperFunction,Conductor*%
%ADD32C,0.250000*%
%TD*%
G04 APERTURE END LIST*
D10*
%TO.P,R8,1*%
%TO.N,GND*%
X147000000Y-98100000D03*
%TO.P,R8,2*%
%TO.N,Net-(U5-CS)*%
X147000000Y-100100000D03*
%TD*%
D11*
%TO.P,Q2,1,G*%
%TO.N,Net-(Q2-G)*%
X152650000Y-107925000D03*
%TO.P,Q2,2,S*%
%TO.N,GND*%
X154550000Y-107925000D03*
%TO.P,Q2,3,D*%
%TO.N,Net-(Q1-D)*%
X153600000Y-109800000D03*
%TD*%
%TO.P,Q1,1,G*%
%TO.N,Net-(Q1-G)*%
X158600000Y-109500000D03*
%TO.P,Q1,2,S*%
%TO.N,GND*%
X160500000Y-109500000D03*
%TO.P,Q1,3,D*%
%TO.N,Net-(Q1-D)*%
X159550000Y-111375000D03*
%TD*%
D12*
%TO.P,J3,1,Pin_1*%
%TO.N,/M_SCL*%
X192900000Y-81140000D03*
D13*
%TO.P,J3,2,Pin_2*%
X192900000Y-78600000D03*
%TO.P,J3,3,Pin_3*%
%TO.N,/PA5*%
X190360000Y-81140000D03*
%TO.P,J3,4,Pin_4*%
X190360000Y-78600000D03*
%TO.P,J3,5,Pin_5*%
%TO.N,/PA6*%
X187820000Y-81140000D03*
%TO.P,J3,6,Pin_6*%
X187820000Y-78600000D03*
%TO.P,J3,7,Pin_7*%
%TO.N,/PA7*%
X185280000Y-81140000D03*
%TO.P,J3,8,Pin_8*%
X185280000Y-78600000D03*
%TO.P,J3,9,Pin_9*%
%TO.N,/PB5*%
X182740000Y-81140000D03*
%TO.P,J3,10,Pin_10*%
X182740000Y-78600000D03*
%TO.P,J3,11,Pin_11*%
%TO.N,/PB4*%
X180200000Y-81140000D03*
%TO.P,J3,12,Pin_12*%
X180200000Y-78600000D03*
%TO.P,J3,13,Pin_13*%
%TO.N,/PB3*%
X177660000Y-81140000D03*
%TO.P,J3,14,Pin_14*%
X177660000Y-78600000D03*
%TO.P,J3,15,Pin_15*%
%TO.N,/PB2*%
X175120000Y-81140000D03*
%TO.P,J3,16,Pin_16*%
X175120000Y-78600000D03*
%TO.P,J3,17,Pin_17*%
%TO.N,/M_SCL*%
X172580000Y-81140000D03*
%TO.P,J3,18,Pin_18*%
X172580000Y-78600000D03*
%TD*%
D12*
%TO.P,J6,1,Pin_1*%
%TO.N,unconnected-(J6-Pin_1-Pad1)*%
X167500000Y-74860000D03*
D13*
%TO.P,J6,2,Pin_2*%
%TO.N,Net-(J6-Pin_2)*%
X167500000Y-77400000D03*
%TO.P,J6,3,Pin_3*%
%TO.N,Net-(J6-Pin_3)*%
X167500000Y-79940000D03*
%TO.P,J6,4,Pin_4*%
%TO.N,/V_USB*%
X167500000Y-82480000D03*
%TO.P,J6,5,Pin_5*%
%TO.N,unconnected-(J6-Pin_5-Pad5)*%
X167500000Y-85020000D03*
%TO.P,J6,6,Pin_6*%
%TO.N,GND*%
X167500000Y-87560000D03*
%TD*%
D14*
%TO.P,H2,1,1*%
%TO.N,GND*%
X195100000Y-90000000D03*
%TD*%
D12*
%TO.P,J1,1,Pin_1*%
%TO.N,Net-(J1-Pin_1)*%
X146200000Y-80500000D03*
D13*
%TO.P,J1,2,Pin_2*%
%TO.N,GND*%
X146200000Y-83040000D03*
%TO.P,J1,3,Pin_3*%
%TO.N,Net-(J1-Pin_3)*%
X146200000Y-85580000D03*
%TD*%
D12*
%TO.P,J10,1,Pin_1*%
%TO.N,GND*%
X166600000Y-65975000D03*
D13*
%TO.P,J10,2,Pin_2*%
%TO.N,Net-(J10-Pin_2)*%
X166600000Y-68515000D03*
%TO.P,J10,3,Pin_3*%
%TO.N,/AVDD*%
X166600000Y-71055000D03*
%TD*%
D12*
%TO.P,J7,1,Pin_1*%
%TO.N,/PB2*%
X174860000Y-74600000D03*
D13*
%TO.P,J7,2,Pin_2*%
%TO.N,Net-(J6-Pin_2)*%
X177400000Y-74600000D03*
%TO.P,J7,3,Pin_3*%
%TO.N,/PA0*%
X179940000Y-74600000D03*
%TD*%
D12*
%TO.P,J9,1,Pin_1*%
%TO.N,GND*%
X160000000Y-66500000D03*
D13*
%TO.P,J9,2,Pin_2*%
%TO.N,Net-(J9-Pin_2)*%
X160000000Y-69040000D03*
%TO.P,J9,3,Pin_3*%
%TO.N,/AVDD*%
X160000000Y-71580000D03*
%TD*%
D12*
%TO.P,J4,1,Pin_1*%
%TO.N,VCC*%
X183420000Y-104400000D03*
D13*
%TO.P,J4,2,Pin_2*%
%TO.N,GND*%
X183420000Y-106940000D03*
%TO.P,J4,3,Pin_3*%
X185960000Y-104400000D03*
%TO.P,J4,4,Pin_4*%
%TO.N,+3.3V*%
X185960000Y-106940000D03*
%TO.P,J4,5,Pin_5*%
%TO.N,GND*%
X188500000Y-104400000D03*
%TO.P,J4,6,Pin_6*%
X188500000Y-106940000D03*
%TD*%
D14*
%TO.P,H1,1,1*%
%TO.N,GND*%
X144900000Y-90000000D03*
%TD*%
D12*
%TO.P,J5,1,Pin_1*%
%TO.N,/M_SCL*%
X173060000Y-97900000D03*
D13*
%TO.P,J5,2,Pin_2*%
X173060000Y-100440000D03*
%TO.P,J5,3,Pin_3*%
%TO.N,/PC0*%
X175600000Y-97900000D03*
%TO.P,J5,4,Pin_4*%
X175600000Y-100440000D03*
%TO.P,J5,5,Pin_5*%
%TO.N,/PC1*%
X178140000Y-97900000D03*
%TO.P,J5,6,Pin_6*%
X178140000Y-100440000D03*
%TO.P,J5,7,Pin_7*%
%TO.N,/PC2*%
X180680000Y-97900000D03*
%TO.P,J5,8,Pin_8*%
X180680000Y-100440000D03*
%TO.P,J5,9,Pin_9*%
%TO.N,/PC3*%
X183220000Y-97900000D03*
%TO.P,J5,10,Pin_10*%
X183220000Y-100440000D03*
%TO.P,J5,11,Pin_11*%
%TO.N,/PA0*%
X185760000Y-97900000D03*
%TO.P,J5,12,Pin_12*%
X185760000Y-100440000D03*
%TO.P,J5,13,Pin_13*%
%TO.N,/M_SCL*%
X188300000Y-97900000D03*
%TO.P,J5,14,Pin_14*%
X188300000Y-100440000D03*
%TO.P,J5,15,Pin_15*%
X190840000Y-97900000D03*
%TO.P,J5,16,Pin_16*%
X190840000Y-100440000D03*
%TO.P,J5,17,Pin_17*%
%TO.N,/PA3*%
X193380000Y-97900000D03*
%TO.P,J5,18,Pin_18*%
X193380000Y-100440000D03*
%TD*%
D12*
%TO.P,J8,1,Pin_1*%
%TO.N,/PB3*%
X184475000Y-74600000D03*
D13*
%TO.P,J8,2,Pin_2*%
%TO.N,Net-(J6-Pin_3)*%
X187015000Y-74600000D03*
%TO.P,J8,3,Pin_3*%
%TO.N,Net-(D2-K)*%
X189555000Y-74600000D03*
%TD*%
D15*
%TO.P,R9,1*%
%TO.N,Net-(D3-A)*%
X162600000Y-105600000D03*
%TO.P,R9,2*%
%TO.N,/V_USB*%
X162600000Y-103600000D03*
%TD*%
D16*
%TO.P,BT1,1,+*%
%TO.N,+BAT*%
X156500000Y-104500000D03*
%TO.P,BT1,2,-*%
%TO.N,GND*%
X156500000Y-75200000D03*
%TD*%
D15*
%TO.P,R10,1*%
%TO.N,GND*%
X167800000Y-108600000D03*
%TO.P,R10,2*%
%TO.N,Net-(U3-PROG)*%
X167800000Y-106600000D03*
%TD*%
D17*
%TO.P,D3,1,K*%
%TO.N,Net-(D3-K)*%
X164562500Y-111000000D03*
%TO.P,D3,2,A*%
%TO.N,Net-(D3-A)*%
X166437500Y-111000000D03*
%TD*%
D18*
%TO.P,D4,1,K*%
%TO.N,Net-(D4-K)*%
X165600000Y-106762500D03*
%TO.P,D4,2,A*%
%TO.N,Net-(D3-A)*%
X165600000Y-108637500D03*
%TD*%
D19*
%TO.P,D1,1,R*%
%TO.N,Net-(D1-R)*%
X175000000Y-109098223D03*
%TO.P,D1,2,A*%
%TO.N,GND*%
X178000000Y-109098223D03*
D20*
%TO.P,D1,3,G*%
%TO.N,Net-(D1-G)*%
X176900000Y-108648223D03*
%TO.P,D1,4,B*%
%TO.N,Net-(D1-B)*%
X176100000Y-108648223D03*
%TD*%
D21*
%TO.P,D5,1*%
%TO.N,+BAT*%
X168100000Y-98700000D03*
%TO.P,D5,2*%
%TO.N,/V_USB*%
X166800000Y-98700000D03*
%TO.P,D5,3*%
%TO.N,VCC*%
X167450000Y-96700000D03*
%TD*%
D15*
%TO.P,R5,1*%
%TO.N,Net-(D1-G)*%
X178700000Y-105700001D03*
%TO.P,R5,2*%
%TO.N,/PC2*%
X178700000Y-103700001D03*
%TD*%
D22*
%TO.P,U3,1,~{CHRG}*%
%TO.N,Net-(D3-K)*%
X164962500Y-104650000D03*
%TO.P,U3,2,GND*%
%TO.N,GND*%
X164962500Y-103700000D03*
%TO.P,U3,3,BAT*%
%TO.N,+BAT*%
X164962500Y-102750000D03*
%TO.P,U3,4,V_{CC}*%
%TO.N,/V_USB*%
X167237500Y-102750000D03*
%TO.P,U3,5,STDBY*%
%TO.N,Net-(D4-K)*%
X167237500Y-103700000D03*
%TO.P,U3,6,PROG*%
%TO.N,Net-(U3-PROG)*%
X167237500Y-104650000D03*
%TD*%
D23*
%TO.P,C23,1*%
%TO.N,GND*%
X159037500Y-107400000D03*
%TO.P,C23,2*%
%TO.N,+BAT*%
X156962500Y-107400000D03*
%TD*%
D15*
%TO.P,R4,1*%
%TO.N,Net-(D1-B)*%
X176500000Y-105700001D03*
%TO.P,R4,2*%
%TO.N,/PC1*%
X176500000Y-103700001D03*
%TD*%
D22*
%TO.P,U5,1,OD*%
%TO.N,Net-(Q1-G)*%
X147125000Y-104100000D03*
%TO.P,U5,2,CS*%
%TO.N,Net-(U5-CS)*%
X147125000Y-103150000D03*
%TO.P,U5,3,OC*%
%TO.N,Net-(Q2-G)*%
X147125000Y-102200000D03*
%TO.P,U5,4,TD*%
%TO.N,unconnected-(U5-TD-Pad4)*%
X149400000Y-102200000D03*
%TO.P,U5,5,VCC*%
%TO.N,Net-(U5-VCC)*%
X149400000Y-103150000D03*
%TO.P,U5,6,GND*%
%TO.N,GND*%
X149400000Y-104100000D03*
%TD*%
D15*
%TO.P,R6,1*%
%TO.N,Net-(D1-R)*%
X174200000Y-105700001D03*
%TO.P,R6,2*%
%TO.N,/PC3*%
X174200000Y-103700001D03*
%TD*%
D24*
%TO.P,C21,2*%
%TO.N,Net-(U5-VCC)*%
X145000000Y-99437500D03*
%TO.P,C21,1*%
%TO.N,GND*%
X145000000Y-97362500D03*
%TD*%
D25*
%TO.P,R7,1*%
%TO.N,+BAT*%
X153200000Y-105700000D03*
%TO.P,R7,2*%
%TO.N,Net-(U5-VCC)*%
X151200000Y-105700000D03*
%TD*%
D26*
%TO.N,Net-(Q1-G)*%
X148300000Y-105800000D03*
X156600000Y-109500000D03*
%TO.N,GND*%
X160700000Y-107400000D03*
X191100000Y-88800000D03*
X164000000Y-74500000D03*
X163800000Y-103700000D03*
X143800000Y-96600000D03*
X162500000Y-79400000D03*
X149900000Y-105200000D03*
X167437500Y-92162500D03*
X155100000Y-88100000D03*
X161900000Y-91000000D03*
X167800000Y-109800000D03*
X176000000Y-115900000D03*
X181150000Y-109050000D03*
X153000000Y-81900000D03*
X189150000Y-93850000D03*
X163800000Y-96500000D03*
X152100000Y-74500000D03*
X156500000Y-73500000D03*
X152075000Y-87125000D03*
%TO.N,+BAT*%
X160100000Y-102800000D03*
X163700000Y-102200000D03*
X168100000Y-101700000D03*
%TO.N,+3.3V*%
X161900000Y-86000000D03*
X154000000Y-80500000D03*
X195700000Y-82700000D03*
X172000000Y-111300000D03*
X185960000Y-109440000D03*
%TO.N,/PA5*%
X170300000Y-79800000D03*
%TO.N,/PA3*%
X171000000Y-84400000D03*
X173650000Y-87050000D03*
%TO.N,/M_SCL*%
X164800000Y-83000000D03*
X185000000Y-86400000D03*
X164800000Y-87200000D03*
X182800000Y-89300000D03*
%TO.N,/TX1*%
X153400000Y-83000000D03*
X154400000Y-93100000D03*
%TO.N,/TX2*%
X156300000Y-92700000D03*
X153000000Y-84400000D03*
%TO.N,Net-(J1-Pin_1)*%
X152375735Y-93024265D03*
%TO.N,/I1*%
X159100000Y-88100000D03*
X155100000Y-70700000D03*
%TO.N,/I0*%
X163500000Y-72300000D03*
X159400000Y-89000000D03*
%TD*%
D27*
%TO.N,Net-(Q2-G)*%
X148200000Y-102500000D02*
X148200000Y-104600000D01*
X148200000Y-104600000D02*
X151525000Y-107925000D01*
X151525000Y-107925000D02*
X152650000Y-107925000D01*
X147125000Y-102200000D02*
X147900000Y-102200000D01*
X147900000Y-102200000D02*
X148200000Y-102500000D01*
D28*
%TO.N,Net-(Q1-G)*%
X148200000Y-105800000D02*
X148300000Y-105800000D01*
D27*
X147600000Y-104575000D02*
X147600000Y-105200000D01*
X147600000Y-105200000D02*
X148200000Y-105800000D01*
X147125000Y-104100000D02*
X147600000Y-104575000D01*
D28*
X156600000Y-109500000D02*
X156700000Y-109500000D01*
D27*
X158600000Y-109500000D02*
X156600000Y-109500000D01*
%TO.N,GND*%
X157837500Y-108600000D02*
X159037500Y-107400000D01*
X154550000Y-107925000D02*
X155225000Y-108600000D01*
X155225000Y-108600000D02*
X157837500Y-108600000D01*
X160500000Y-108600000D02*
X160700000Y-108400000D01*
X160700000Y-108400000D02*
X160700000Y-107400000D01*
X160500000Y-109500000D02*
X160500000Y-108600000D01*
%TO.N,Net-(Q1-D)*%
X155175000Y-111375000D02*
X153600000Y-109800000D01*
X159550000Y-111375000D02*
X155175000Y-111375000D01*
D29*
%TO.N,GND*%
X159037500Y-107400000D02*
X160700000Y-107400000D01*
D28*
%TO.N,+BAT*%
X156962500Y-104962500D02*
X156500000Y-104500000D01*
D29*
X156962500Y-107400000D02*
X156962500Y-104962500D01*
D27*
%TO.N,GND*%
X149900000Y-104600000D02*
X149400000Y-104100000D01*
X149900000Y-105200000D02*
X149900000Y-104600000D01*
%TO.N,Net-(U5-VCC)*%
X148600000Y-99100000D02*
X145537500Y-99100000D01*
X151200000Y-103350000D02*
X151200000Y-101700000D01*
X145537500Y-99100000D02*
X145000000Y-99637500D01*
X151250000Y-103400000D02*
X151200000Y-103350000D01*
X151200000Y-101700000D02*
X148600000Y-99100000D01*
%TO.N,Net-(U5-CS)*%
X145700000Y-103000000D02*
X145700000Y-101400000D01*
X147000000Y-100100000D02*
X147000000Y-100200000D01*
X145850000Y-103150000D02*
X145700000Y-103000000D01*
X145700000Y-101400000D02*
X147000000Y-100100000D01*
X147412500Y-103150000D02*
X145850000Y-103150000D01*
%TO.N,GND*%
X145262500Y-97625000D02*
X145737500Y-98100000D01*
X145737500Y-98100000D02*
X147000000Y-98100000D01*
X145262500Y-97562500D02*
X145262500Y-97625000D01*
X181150000Y-109050000D02*
X181101777Y-109098223D01*
X181101777Y-109098223D02*
X178000000Y-109098223D01*
D28*
X145000000Y-97562500D02*
X145262500Y-97562500D01*
D30*
X156500000Y-73500000D02*
X156500000Y-75000000D01*
D29*
X167800000Y-108600000D02*
X167800000Y-109800000D01*
D27*
X144762500Y-97562500D02*
X143800000Y-96600000D01*
D29*
X163800000Y-103700000D02*
X164962500Y-103700000D01*
D30*
%TO.N,+BAT*%
X156700000Y-104500000D02*
X156900000Y-104500000D01*
X155500000Y-105700000D02*
X156700000Y-104500000D01*
X153200000Y-105700000D02*
X155500000Y-105700000D01*
D31*
X157000000Y-104600000D02*
X158300000Y-104600000D01*
X168100000Y-101700000D02*
X168100000Y-98700000D01*
X164962500Y-102750000D02*
X164412500Y-102200000D01*
D28*
X163700000Y-102200000D02*
X163800000Y-102200000D01*
D31*
X164412500Y-102200000D02*
X163700000Y-102200000D01*
X158300000Y-104600000D02*
X160100000Y-102800000D01*
%TO.N,VCC*%
X177000000Y-89300000D02*
X168751472Y-89300000D01*
D29*
X184531642Y-103288358D02*
X184479778Y-103236494D01*
D31*
X168400000Y-95750000D02*
X167450000Y-96700000D01*
X177000000Y-89300000D02*
X184531642Y-96831642D01*
X184531642Y-96855678D02*
X184531642Y-96831642D01*
X168751472Y-89300000D02*
X168400000Y-89651472D01*
X183420000Y-104400000D02*
X184531642Y-103288358D01*
X168400000Y-89651472D02*
X168400000Y-95750000D01*
D29*
X184479778Y-103236494D02*
X184479778Y-96907542D01*
D27*
%TO.N,/PA0*%
X189100000Y-76900000D02*
X190600000Y-76900000D01*
X188300000Y-76100000D02*
X189100000Y-76900000D01*
X179940000Y-74600000D02*
X181240000Y-73300000D01*
X181240000Y-73300000D02*
X187800000Y-73300000D01*
X191600000Y-77900000D02*
X191600000Y-82000000D01*
X188300000Y-73800000D02*
X188300000Y-76100000D01*
X191600000Y-82000000D02*
X185760000Y-87840000D01*
X190600000Y-76900000D02*
X191600000Y-77900000D01*
X187800000Y-73300000D02*
X188300000Y-73800000D01*
X185760000Y-87840000D02*
X185760000Y-97900000D01*
%TO.N,Net-(D3-K)*%
X164562500Y-111000000D02*
X164200000Y-110637500D01*
X164200000Y-105412500D02*
X164962500Y-104650000D01*
X164200000Y-110637500D02*
X164200000Y-105412500D01*
D28*
%TO.N,/PA5*%
X170400000Y-79900000D02*
X189100000Y-79900000D01*
X189100000Y-79900000D02*
X190140000Y-80940000D01*
X170300000Y-79800000D02*
X170400000Y-79900000D01*
D27*
%TO.N,/PC3*%
X177200000Y-99200000D02*
X181920000Y-99200000D01*
X176900000Y-99500000D02*
X177200000Y-99200000D01*
X181920000Y-99200000D02*
X183220000Y-97900000D01*
X174200000Y-103700001D02*
X176900000Y-101000001D01*
X176900000Y-101000001D02*
X176900000Y-99500000D01*
D32*
%TO.N,/PA3*%
X173650000Y-87050000D02*
X171000000Y-84400000D01*
D28*
%TO.N,/M_SCL*%
X166600000Y-81200000D02*
X172520000Y-81200000D01*
D32*
X182800000Y-89300000D02*
X185000000Y-87100000D01*
X164800000Y-83000000D02*
X164800000Y-87200000D01*
D28*
X172520000Y-81200000D02*
X172580000Y-81140000D01*
D32*
X185000000Y-87100000D02*
X185000000Y-86400000D01*
D28*
X164800000Y-83000000D02*
X166600000Y-81200000D01*
D27*
%TO.N,/PC2*%
X180700000Y-102700000D02*
X179699999Y-103700001D01*
D28*
X180700000Y-102700000D02*
X180680000Y-102680000D01*
D27*
X179699999Y-103700001D02*
X178700000Y-103700001D01*
X180680000Y-102680000D02*
X180680000Y-100440000D01*
%TO.N,/PC1*%
X178140000Y-102060001D02*
X178140000Y-100440000D01*
X176500000Y-103700001D02*
X178140000Y-102060001D01*
D31*
%TO.N,/V_USB*%
X166200000Y-83970000D02*
X166200000Y-97500000D01*
X167500000Y-82670000D02*
X166200000Y-83970000D01*
X166800000Y-102312500D02*
X166800000Y-98700000D01*
X167237500Y-102750000D02*
X166800000Y-102312500D01*
X165600000Y-98700000D02*
X166800000Y-98700000D01*
X166800000Y-98100000D02*
X166800000Y-98700000D01*
X162500000Y-103500000D02*
X162500000Y-101800000D01*
X167500000Y-82480000D02*
X167500000Y-82670000D01*
X162500000Y-101800000D02*
X165600000Y-98700000D01*
X166200000Y-97500000D02*
X166800000Y-98100000D01*
D28*
X162600000Y-103600000D02*
X162500000Y-103500000D01*
D27*
%TO.N,/TX1*%
X154400000Y-87900000D02*
X151300000Y-84800000D01*
X154400000Y-93100000D02*
X154400000Y-87900000D01*
X151300000Y-84800000D02*
X151300000Y-83900000D01*
X151300000Y-83900000D02*
X152200000Y-83000000D01*
X152200000Y-83000000D02*
X153400000Y-83000000D01*
%TO.N,/TX2*%
X156300000Y-87500000D02*
X153200000Y-84400000D01*
X156300000Y-92700000D02*
X156300000Y-87500000D01*
D28*
X153200000Y-84400000D02*
X153000000Y-84400000D01*
%TO.N,Net-(J1-Pin_1)*%
X146200000Y-80500000D02*
X146225000Y-80475000D01*
D27*
X148000000Y-88648530D02*
X148000000Y-82300000D01*
X148000000Y-82300000D02*
X146200000Y-80500000D01*
X152375735Y-93024265D02*
X148000000Y-88648530D01*
D29*
%TO.N,Net-(U5-VCC)*%
X149400000Y-103150000D02*
X149450000Y-103200000D01*
X149450000Y-103200000D02*
X151050000Y-103200000D01*
X151200000Y-103450000D02*
X151200000Y-105700000D01*
D27*
%TO.N,Net-(D1-G)*%
X176900000Y-108648223D02*
X176900000Y-107500001D01*
X176900000Y-107500001D02*
X178700000Y-105700001D01*
%TO.N,Net-(D1-B)*%
X176100000Y-108648223D02*
X176100000Y-106100001D01*
D28*
X176100000Y-106100001D02*
X176500000Y-105700001D01*
D27*
%TO.N,Net-(D1-R)*%
X175000000Y-109098223D02*
X175000000Y-106500001D01*
X175000000Y-106500001D02*
X174200000Y-105700001D01*
%TO.N,Net-(D3-A)*%
X163500000Y-106500000D02*
X163500000Y-112400000D01*
X162600000Y-105600000D02*
X163500000Y-106500000D01*
X163500000Y-112400000D02*
X166437500Y-112400000D01*
X166437500Y-112400000D02*
X166437500Y-111000000D01*
X166437500Y-111000000D02*
X166437500Y-109475000D01*
X166437500Y-109475000D02*
X165600000Y-108637500D01*
%TO.N,Net-(D4-K)*%
X166100000Y-106262500D02*
X166100000Y-104200000D01*
X166100000Y-104200000D02*
X166600000Y-103700000D01*
X165600000Y-106762500D02*
X166100000Y-106262500D01*
D28*
X166600000Y-103700000D02*
X167237500Y-103700000D01*
D27*
%TO.N,Net-(J6-Pin_3)*%
X172115000Y-76600000D02*
X168775000Y-79940000D01*
X168775000Y-79940000D02*
X167710000Y-79940000D01*
X167710000Y-79940000D02*
X167700000Y-79930000D01*
X185015000Y-76600000D02*
X172115000Y-76600000D01*
X187015000Y-74600000D02*
X185015000Y-76600000D01*
D28*
%TO.N,Net-(J6-Pin_2)*%
X167700000Y-77390000D02*
X168270000Y-77390000D01*
D27*
X170900000Y-76000000D02*
X176000000Y-76000000D01*
X176000000Y-76000000D02*
X177400000Y-74600000D01*
X169500000Y-77400000D02*
X170900000Y-76000000D01*
X167710000Y-77400000D02*
X169500000Y-77400000D01*
X167700000Y-77390000D02*
X167710000Y-77400000D01*
D28*
X168270000Y-77390000D02*
X168300000Y-77420000D01*
%TO.N,/I1*%
X155200000Y-70700000D02*
X155200000Y-70700000D01*
X159100000Y-88100000D02*
X159100000Y-87600000D01*
X159100000Y-87600000D02*
X157200000Y-85700000D01*
X155100000Y-70700000D02*
X155200000Y-70700000D01*
X157200000Y-85700000D02*
X157200000Y-81350000D01*
X154100000Y-78250000D02*
X154100000Y-71800000D01*
X154100000Y-71800000D02*
X155100000Y-70800000D01*
X155100000Y-70800000D02*
X155100000Y-70700000D01*
X157200000Y-81350000D02*
X154100000Y-78250000D01*
D29*
%TO.N,Net-(U3-PROG)*%
X167800000Y-105212500D02*
X167237500Y-104650000D01*
X167800000Y-106600000D02*
X167800000Y-105212500D01*
D28*
%TO.N,/I0*%
X159400000Y-89000000D02*
X160200000Y-88200000D01*
X160200000Y-88200000D02*
X160200000Y-75600000D01*
X160200000Y-75600000D02*
X163500000Y-72300000D01*
%TD*%
M02*
