%TF.GenerationSoftware,KiCad,Pcbnew,8.0.7*%
%TF.CreationDate,2025-05-01T01:05:46-07:00*%
%TF.ProjectId,salp_board,73616c70-5f62-46f6-9172-642e6b696361,rev?*%
%TF.SameCoordinates,Original*%
%TF.FileFunction,Copper,L2,Inr*%
%TF.FilePolarity,Positive*%
%FSLAX46Y46*%
G04 Gerber Fmt 4.6, Leading zero omitted, Abs format (unit mm)*
G04 Created by KiCad (PCBNEW 8.0.7) date 2025-05-01 01:05:46*
%MOMM*%
%LPD*%
G01*
G04 APERTURE LIST*
G04 Aperture macros list*
%AMRoundRect*
0 Rectangle with rounded corners*
0 $1 Rounding radius*
0 $2 $3 $4 $5 $6 $7 $8 $9 X,Y pos of 4 corners*
0 Add a 4 corners polygon primitive as box body*
4,1,4,$2,$3,$4,$5,$6,$7,$8,$9,$2,$3,0*
0 Add four circle primitives for the rounded corners*
1,1,$1+$1,$2,$3*
1,1,$1+$1,$4,$5*
1,1,$1+$1,$6,$7*
1,1,$1+$1,$8,$9*
0 Add four rect primitives between the rounded corners*
20,1,$1+$1,$2,$3,$4,$5,0*
20,1,$1+$1,$4,$5,$6,$7,0*
20,1,$1+$1,$6,$7,$8,$9,0*
20,1,$1+$1,$8,$9,$2,$3,0*%
G04 Aperture macros list end*
%TA.AperFunction,ComponentPad*%
%ADD10R,1.700000X1.700000*%
%TD*%
%TA.AperFunction,ComponentPad*%
%ADD11O,1.700000X1.700000*%
%TD*%
%TA.AperFunction,ComponentPad*%
%ADD12RoundRect,0.250000X0.450000X0.450000X-0.450000X0.450000X-0.450000X-0.450000X0.450000X-0.450000X0*%
%TD*%
%TA.AperFunction,ComponentPad*%
%ADD13C,1.400000*%
%TD*%
%TA.AperFunction,ViaPad*%
%ADD14C,1.500000*%
%TD*%
%TA.AperFunction,ViaPad*%
%ADD15C,0.600000*%
%TD*%
G04 APERTURE END LIST*
D10*
%TO.N,VCC*%
%TO.C,J10*%
X161501000Y-86969500D03*
D11*
%TO.N,GND*%
X158961000Y-86969500D03*
X161501000Y-89509500D03*
%TO.N,+3.3V*%
X158961000Y-89509500D03*
%TO.N,GND*%
X161501000Y-92049500D03*
X158961000Y-92049500D03*
%TD*%
D10*
%TO.N,unconnected-(J12-Pin_1-Pad1)*%
%TO.C,J12*%
X178308000Y-112268000D03*
D11*
%TO.N,Net-(J12-Pin_2)*%
X175768000Y-112268000D03*
%TO.N,Net-(J12-Pin_3)*%
X173228000Y-112268000D03*
%TO.N,/V_USB*%
X170688000Y-112268000D03*
%TO.N,unconnected-(J12-Pin_5-Pad5)*%
X168148000Y-112268000D03*
%TO.N,GND*%
X165608000Y-112268000D03*
%TD*%
D12*
%TO.N,/PB2*%
%TO.C,SW2*%
X178345000Y-105500000D03*
D13*
%TO.N,Net-(J12-Pin_2)*%
X175845000Y-105500000D03*
%TO.N,/PA0*%
X173345000Y-105500000D03*
%TO.N,/PB3*%
X173345000Y-102200000D03*
%TO.N,Net-(J12-Pin_3)*%
X175845000Y-102200000D03*
%TO.N,Net-(SW2B-C)*%
X178345000Y-102200000D03*
%TD*%
D10*
%TO.N,/M_SCL*%
%TO.C,J8*%
X192024000Y-107188000D03*
D11*
X194564000Y-107188000D03*
%TO.N,/PC0*%
X192024000Y-104648000D03*
X194564000Y-104648000D03*
%TO.N,/PC1*%
X192024000Y-102108000D03*
X194564000Y-102108000D03*
%TO.N,/PC2*%
X192024000Y-99568000D03*
X194564000Y-99568000D03*
%TO.N,/PC3*%
X192024000Y-97028000D03*
X194564000Y-97028000D03*
%TO.N,/PA0*%
X192024000Y-94488000D03*
X194564000Y-94488000D03*
%TO.N,/PA1*%
X192024000Y-91948000D03*
X194564000Y-91948000D03*
%TO.N,/PA2*%
X192024000Y-89408000D03*
X194564000Y-89408000D03*
%TO.N,/PA3*%
X192024000Y-86868000D03*
X194564000Y-86868000D03*
%TD*%
D10*
%TO.N,Net-(J4-Pin_1)*%
%TO.C,J4*%
X194725000Y-69275000D03*
D11*
X194725000Y-71815000D03*
X194725000Y-74355000D03*
%TD*%
D10*
%TO.N,/VOR*%
%TO.C,J9*%
X161496000Y-100978500D03*
D11*
%TO.N,+3.3V*%
X161496000Y-98438500D03*
%TO.N,/V_REG*%
X161496000Y-95898500D03*
%TD*%
D10*
%TO.N,/PA4*%
%TO.C,J1*%
X168402000Y-86868000D03*
D11*
X165862000Y-86868000D03*
%TO.N,/PA5*%
X168402000Y-89408000D03*
X165862000Y-89408000D03*
%TO.N,/PA6*%
X168402000Y-91948000D03*
X165862000Y-91948000D03*
%TO.N,/PA7*%
X168402000Y-94488000D03*
X165862000Y-94488000D03*
%TO.N,/PB5*%
X168402000Y-97028000D03*
X165862000Y-97028000D03*
%TO.N,/PB4*%
X168402000Y-99568000D03*
X165862000Y-99568000D03*
%TO.N,/PB3*%
X168402000Y-102108000D03*
X165862000Y-102108000D03*
%TO.N,/PB2*%
X168402000Y-104648000D03*
X165862000Y-104648000D03*
%TO.N,/M_SDA*%
X168402000Y-107188000D03*
X165862000Y-107188000D03*
%TD*%
D14*
%TO.N,GND*%
X150000000Y-61000000D03*
D15*
X157750000Y-66500000D03*
X190500000Y-59690000D03*
X172750000Y-79750000D03*
X179500000Y-68750000D03*
X196850000Y-83130000D03*
X149750000Y-113000000D03*
X171428500Y-86850000D03*
X156750000Y-66500000D03*
X152654000Y-97790000D03*
X171428500Y-84310000D03*
X189000000Y-86000000D03*
X147250000Y-104000000D03*
X138750000Y-105000000D03*
X169000000Y-67000000D03*
X166624000Y-65024000D03*
X138775750Y-101275750D03*
X152500000Y-91250000D03*
%TO.N,+BAT*%
X167132000Y-80172000D03*
X161000000Y-83500000D03*
X158500000Y-101000000D03*
X146750000Y-93500000D03*
%TO.N,VCC*%
X164000000Y-109500000D03*
X175000000Y-83058000D03*
%TO.N,+3.3V*%
X156500000Y-86500000D03*
X172300000Y-77100000D03*
X169087806Y-72412193D03*
X166343906Y-79698145D03*
X157937500Y-69088000D03*
X169065380Y-75334000D03*
X155915380Y-85165380D03*
%TO.N,/V_REG*%
X163000000Y-104500000D03*
X160500000Y-105979000D03*
%TO.N,Net-(D2-K)*%
X155000000Y-88750000D03*
X156707107Y-97792893D03*
%TO.N,Net-(D3-K)*%
X152750000Y-102250000D03*
X154996000Y-93754000D03*
%TO.N,/PA5*%
X165750000Y-84250000D03*
X163970180Y-82379000D03*
X163970180Y-80172000D03*
%TO.N,/PA7*%
X159000000Y-75000000D03*
X163750000Y-88500000D03*
X156750000Y-75000000D03*
X160039892Y-82460108D03*
%TO.N,/PB2*%
X178915380Y-99165380D03*
%TO.N,/PC3*%
X188864675Y-84444771D03*
X188468000Y-81280000D03*
%TO.N,/PC2*%
X189630197Y-84212436D03*
X189068000Y-81845687D03*
X187800000Y-80356265D03*
X189092265Y-80356265D03*
%TO.N,/V_USB*%
X152787763Y-104787763D03*
X149500000Y-101500000D03*
%TD*%
M02*
