%TF.GenerationSoftware,KiCad,Pcbnew,8.0.3*%
%TF.CreationDate,2025-07-08T12:48:35-07:00*%
%TF.ProjectId,salp_board_round,73616c70-5f62-46f6-9172-645f726f756e,rev?*%
%TF.SameCoordinates,Original*%
%TF.FileFunction,Copper,L2,Inr*%
%TF.FilePolarity,Positive*%
%FSLAX46Y46*%
G04 Gerber Fmt 4.6, Leading zero omitted, Abs format (unit mm)*
G04 Created by KiCad (PCBNEW 8.0.3) date 2025-07-08 12:48:35*
%MOMM*%
%LPD*%
G01*
G04 APERTURE LIST*
%TA.AperFunction,ComponentPad*%
%ADD10R,1.700000X1.700000*%
%TD*%
%TA.AperFunction,ComponentPad*%
%ADD11O,1.700000X1.700000*%
%TD*%
%TA.AperFunction,ComponentPad*%
%ADD12C,4.400000*%
%TD*%
%TA.AperFunction,ViaPad*%
%ADD13C,0.600000*%
%TD*%
G04 APERTURE END LIST*
D10*
%TO.N,unconnected-(J6-Pin_1-Pad1)*%
%TO.C,J6*%
X167500000Y-74860000D03*
D11*
%TO.N,Net-(J6-Pin_2)*%
X167500000Y-77400000D03*
%TO.N,Net-(J6-Pin_3)*%
X167500000Y-79940000D03*
%TO.N,/V_USB*%
X167500000Y-82480000D03*
%TO.N,unconnected-(J6-Pin_5-Pad5)*%
X167500000Y-85020000D03*
%TO.N,GND*%
X167500000Y-87560000D03*
%TD*%
%TO.N,/AVDD*%
%TO.C,SEL0*%
X166600000Y-71055000D03*
%TO.N,Net-(J10-Pin_2)*%
X166600000Y-68515000D03*
D10*
%TO.N,GND*%
X166600000Y-65975000D03*
%TD*%
D11*
%TO.N,/AVDD*%
%TO.C,SEL1*%
X160000000Y-71580000D03*
%TO.N,Net-(J9-Pin_2)*%
X160000000Y-69040000D03*
D10*
%TO.N,GND*%
X160000000Y-66500000D03*
%TD*%
%TO.N,/PB3*%
%TO.C,J8*%
X184475000Y-74600000D03*
D11*
%TO.N,Net-(J6-Pin_3)*%
X187015000Y-74600000D03*
%TO.N,Net-(D2-K)*%
X189555000Y-74600000D03*
%TD*%
D10*
%TO.N,/PB2*%
%TO.C,J7*%
X174860000Y-74600000D03*
D11*
%TO.N,Net-(J6-Pin_2)*%
X177400000Y-74600000D03*
%TO.N,/PA0*%
X179940000Y-74600000D03*
%TD*%
%TO.N,/PA3*%
%TO.C,J5*%
X193380000Y-100440000D03*
X193380000Y-97900000D03*
%TO.N,/M_SCL*%
X190840000Y-100440000D03*
X190840000Y-97900000D03*
X188300000Y-100440000D03*
X188300000Y-97900000D03*
%TO.N,/PA0*%
X185760000Y-100440000D03*
X185760000Y-97900000D03*
%TO.N,/PC3*%
X183220000Y-100440000D03*
X183220000Y-97900000D03*
%TO.N,/PC2*%
X180680000Y-100440000D03*
X180680000Y-97900000D03*
%TO.N,/PC1*%
X178140000Y-100440000D03*
X178140000Y-97900000D03*
%TO.N,/PC0*%
X175600000Y-100440000D03*
X175600000Y-97900000D03*
%TO.N,/M_SCL*%
X173060000Y-100440000D03*
D10*
X173060000Y-97900000D03*
%TD*%
%TO.N,VCC*%
%TO.C,J4*%
X183420000Y-104400000D03*
D11*
%TO.N,GND*%
X183420000Y-106940000D03*
X185960000Y-104400000D03*
%TO.N,+3.3V*%
X185960000Y-106940000D03*
%TO.N,GND*%
X188500000Y-104400000D03*
X188500000Y-106940000D03*
%TD*%
%TO.N,/M_SCL*%
%TO.C,J3*%
X172580000Y-78600000D03*
X172580000Y-81140000D03*
%TO.N,/PB2*%
X175120000Y-78600000D03*
X175120000Y-81140000D03*
%TO.N,/PB3*%
X177660000Y-78600000D03*
X177660000Y-81140000D03*
%TO.N,/PB4*%
X180200000Y-78600000D03*
X180200000Y-81140000D03*
%TO.N,/PB5*%
X182740000Y-78600000D03*
X182740000Y-81140000D03*
%TO.N,/PA7*%
X185280000Y-78600000D03*
X185280000Y-81140000D03*
%TO.N,/PA6*%
X187820000Y-78600000D03*
X187820000Y-81140000D03*
%TO.N,/PA5*%
X190360000Y-78600000D03*
X190360000Y-81140000D03*
%TO.N,/M_SCL*%
X192900000Y-78600000D03*
D10*
X192900000Y-81140000D03*
%TD*%
%TO.N,Net-(J1-Pin_1)*%
%TO.C,Antenna*%
X146200000Y-80500000D03*
D11*
%TO.N,Net-(J1-Pin_2)*%
X146200000Y-83040000D03*
%TO.N,Net-(J1-Pin_3)*%
X146200000Y-85580000D03*
%TD*%
D12*
%TO.N,GND*%
%TO.C,H2*%
X195100000Y-90000000D03*
%TD*%
%TO.N,GND*%
%TO.C,H1*%
X144900000Y-90000000D03*
%TD*%
D13*
%TO.N,GND*%
X155100000Y-88100000D03*
%TO.N,Net-(Q2-G)*%
X148800000Y-105800000D03*
X155500000Y-110100000D03*
%TO.N,+3.3V*%
X185960000Y-109440000D03*
X161900000Y-86000000D03*
%TO.N,/M_SCL*%
X185000000Y-86400000D03*
X182800000Y-89300000D03*
X164800000Y-83000000D03*
X164800000Y-87200000D03*
%TO.N,/PA3*%
X171000000Y-84400000D03*
X173650000Y-87050000D03*
%TO.N,/PA5*%
X170300000Y-79800000D03*
%TO.N,GND*%
X161900000Y-91000000D03*
%TO.N,/AVDD*%
X152100000Y-82700000D03*
X152550000Y-85250000D03*
%TO.N,+BAT*%
X168100000Y-101700000D03*
X163700000Y-102200000D03*
X160100000Y-102800000D03*
X156200000Y-108800000D03*
X156400000Y-111400000D03*
%TO.N,GND*%
X149600000Y-106400000D03*
X143800000Y-96600000D03*
X156500000Y-73500000D03*
X152100000Y-74500000D03*
X162500000Y-79400000D03*
X164000000Y-74500000D03*
%TO.N,/I0*%
X163500000Y-72300000D03*
%TO.N,/I1*%
X155100000Y-70700000D03*
X159100000Y-88100000D03*
%TO.N,/I0*%
X159400000Y-89000000D03*
%TO.N,GND*%
X152075000Y-87125000D03*
%TO.N,/TX2*%
X151400000Y-85400000D03*
%TO.N,/TX1*%
X153300000Y-83000000D03*
%TO.N,/TX2*%
X154400000Y-92700000D03*
%TO.N,/TX1*%
X156000000Y-92700000D03*
%TO.N,GND*%
X161000000Y-113300000D03*
%TO.N,+3.3V*%
X162700000Y-111400000D03*
%TO.N,GND*%
X160300000Y-107100000D03*
X167800000Y-109800000D03*
X163800000Y-103700000D03*
%TO.N,+3.3V*%
X154000000Y-80500000D03*
%TO.N,GND*%
X153000000Y-81900000D03*
X163800000Y-96500000D03*
X167437500Y-92162500D03*
%TO.N,+3.3V*%
X195700000Y-82700000D03*
%TO.N,GND*%
X181150000Y-109050000D03*
X176000000Y-115900000D03*
%TO.N,+3.3V*%
X172000000Y-111300000D03*
%TO.N,GND*%
X189150000Y-93850000D03*
X191100000Y-88800000D03*
%TO.N,Net-(J1-Pin_1)*%
X152375735Y-93024265D03*
%TD*%
%TA.AperFunction,Conductor*%
%TO.N,GND*%
G36*
X188750000Y-106506988D02*
G01*
X188692993Y-106474075D01*
X188565826Y-106440000D01*
X188434174Y-106440000D01*
X188307007Y-106474075D01*
X188250000Y-106506988D01*
X188250000Y-104833012D01*
X188307007Y-104865925D01*
X188434174Y-104900000D01*
X188565826Y-104900000D01*
X188692993Y-104865925D01*
X188750000Y-104833012D01*
X188750000Y-106506988D01*
G37*
%TD.AperFunction*%
%TA.AperFunction,Conductor*%
G36*
X188034075Y-104207007D02*
G01*
X188000000Y-104334174D01*
X188000000Y-104465826D01*
X188034075Y-104592993D01*
X188066988Y-104650000D01*
X186393012Y-104650000D01*
X186425925Y-104592993D01*
X186460000Y-104465826D01*
X186460000Y-104334174D01*
X186425925Y-104207007D01*
X186393012Y-104150000D01*
X188066988Y-104150000D01*
X188034075Y-104207007D01*
G37*
%TD.AperFunction*%
%TA.AperFunction,Conductor*%
G36*
X171042855Y-62420255D02*
G01*
X171047490Y-62420430D01*
X172086535Y-62479530D01*
X172091176Y-62479883D01*
X173127200Y-62578284D01*
X173131804Y-62578809D01*
X174163423Y-62716382D01*
X174167982Y-62717078D01*
X175193612Y-62893612D01*
X175198192Y-62894489D01*
X176201999Y-63106693D01*
X176216375Y-63109732D01*
X176220950Y-63110790D01*
X177230233Y-63364430D01*
X177234765Y-63365660D01*
X178233731Y-63657344D01*
X178238195Y-63658739D01*
X179225402Y-63988044D01*
X179229785Y-63989599D01*
X180203859Y-64356069D01*
X180208149Y-64357777D01*
X181167652Y-64760874D01*
X181171903Y-64762757D01*
X181719505Y-65017620D01*
X182115390Y-65201872D01*
X182119610Y-65203934D01*
X182293076Y-65292809D01*
X183045798Y-65678466D01*
X183049896Y-65680664D01*
X183514140Y-65941170D01*
X183957467Y-66189940D01*
X183961518Y-66192315D01*
X184108061Y-66282007D01*
X184779547Y-66692993D01*
X184849138Y-66735586D01*
X184853091Y-66738110D01*
X185145046Y-66932372D01*
X185719478Y-67314590D01*
X185723338Y-67317265D01*
X185835025Y-67397844D01*
X186567306Y-67926164D01*
X186571038Y-67928966D01*
X187020153Y-68279596D01*
X187391304Y-68569359D01*
X187394951Y-68572318D01*
X188190410Y-69243343D01*
X188193942Y-69246439D01*
X188963412Y-69947098D01*
X188966810Y-69950313D01*
X189709189Y-70679605D01*
X189712477Y-70682959D01*
X190426695Y-71439829D01*
X190429853Y-71443305D01*
X190492226Y-71514631D01*
X191114920Y-72226706D01*
X191117910Y-72230257D01*
X191622907Y-72853905D01*
X191772827Y-73039049D01*
X191775713Y-73042755D01*
X192289319Y-73728597D01*
X192399509Y-73875738D01*
X192402252Y-73879550D01*
X192994038Y-74735531D01*
X192996636Y-74739444D01*
X193555613Y-75617269D01*
X193558060Y-75621278D01*
X194083380Y-76519619D01*
X194085673Y-76523717D01*
X194576588Y-77441292D01*
X194578725Y-77445474D01*
X195034554Y-78381009D01*
X195036531Y-78385270D01*
X195456598Y-79337381D01*
X195458412Y-79341713D01*
X195842121Y-80309047D01*
X195843770Y-80313445D01*
X196190576Y-81294624D01*
X196192057Y-81299081D01*
X196388330Y-81929394D01*
X196389467Y-81999254D01*
X196352654Y-82058639D01*
X196289579Y-82088694D01*
X196220268Y-82079878D01*
X196203965Y-82071254D01*
X196049523Y-81974211D01*
X195879254Y-81914631D01*
X195879249Y-81914630D01*
X195700004Y-81894435D01*
X195699996Y-81894435D01*
X195520750Y-81914630D01*
X195520745Y-81914631D01*
X195350476Y-81974211D01*
X195197737Y-82070184D01*
X195070184Y-82197737D01*
X194974211Y-82350476D01*
X194914631Y-82520745D01*
X194914630Y-82520750D01*
X194894435Y-82699996D01*
X194894435Y-82700003D01*
X194914630Y-82879249D01*
X194914631Y-82879254D01*
X194974211Y-83049523D01*
X195042265Y-83157830D01*
X195070184Y-83202262D01*
X195197738Y-83329816D01*
X195350478Y-83425789D01*
X195520745Y-83485368D01*
X195520750Y-83485369D01*
X195699996Y-83505565D01*
X195700000Y-83505565D01*
X195700004Y-83505565D01*
X195879249Y-83485369D01*
X195879252Y-83485368D01*
X195879255Y-83485368D01*
X196049522Y-83425789D01*
X196202262Y-83329816D01*
X196329816Y-83202262D01*
X196425789Y-83049522D01*
X196443116Y-83000003D01*
X196451692Y-82975496D01*
X196492414Y-82918719D01*
X196557367Y-82892972D01*
X196625928Y-82906428D01*
X196676331Y-82954815D01*
X196688438Y-82984094D01*
X196774311Y-83301788D01*
X196775450Y-83306344D01*
X197008765Y-84320532D01*
X197009732Y-84325128D01*
X197204471Y-85347413D01*
X197205262Y-85352042D01*
X197361149Y-86380971D01*
X197361764Y-86385628D01*
X197478570Y-87419689D01*
X197479009Y-87424365D01*
X197550580Y-88381939D01*
X197535947Y-88450259D01*
X197486700Y-88499822D01*
X197418475Y-88514893D01*
X197352933Y-88490686D01*
X197329016Y-88465911D01*
X197328429Y-88466372D01*
X197178522Y-88275030D01*
X196036290Y-89417262D01*
X195939033Y-89283398D01*
X195816602Y-89160967D01*
X195682736Y-89063709D01*
X196824968Y-87921476D01*
X196636576Y-87773881D01*
X196357043Y-87604898D01*
X196357041Y-87604897D01*
X196059175Y-87470839D01*
X196059164Y-87470835D01*
X195747341Y-87373667D01*
X195426038Y-87314786D01*
X195100000Y-87295065D01*
X194773961Y-87314786D01*
X194452658Y-87373667D01*
X194140835Y-87470835D01*
X194140824Y-87470839D01*
X193842958Y-87604897D01*
X193842956Y-87604898D01*
X193563422Y-87773881D01*
X193563416Y-87773886D01*
X193375030Y-87921474D01*
X193375029Y-87921476D01*
X194517262Y-89063709D01*
X194383398Y-89160967D01*
X194260967Y-89283398D01*
X194163709Y-89417262D01*
X193021476Y-88275029D01*
X193021474Y-88275030D01*
X192873886Y-88463416D01*
X192873881Y-88463422D01*
X192704898Y-88742956D01*
X192704897Y-88742958D01*
X192570839Y-89040824D01*
X192570835Y-89040835D01*
X192473667Y-89352658D01*
X192414786Y-89673961D01*
X192395065Y-90000000D01*
X192414786Y-90326038D01*
X192473667Y-90647341D01*
X192570835Y-90959164D01*
X192570839Y-90959175D01*
X192704897Y-91257041D01*
X192704898Y-91257043D01*
X192873881Y-91536576D01*
X193021476Y-91724968D01*
X194163708Y-90582736D01*
X194260967Y-90716602D01*
X194383398Y-90839033D01*
X194517262Y-90936290D01*
X193375030Y-92078522D01*
X193375030Y-92078523D01*
X193563423Y-92226118D01*
X193842956Y-92395101D01*
X193842958Y-92395102D01*
X194140824Y-92529160D01*
X194140835Y-92529164D01*
X194452658Y-92626332D01*
X194773961Y-92685213D01*
X195100000Y-92704934D01*
X195426038Y-92685213D01*
X195747341Y-92626332D01*
X196059164Y-92529164D01*
X196059175Y-92529160D01*
X196357041Y-92395102D01*
X196357043Y-92395101D01*
X196636586Y-92226112D01*
X196824968Y-92078523D01*
X196824968Y-92078522D01*
X195682737Y-90936290D01*
X195816602Y-90839033D01*
X195939033Y-90716602D01*
X196036290Y-90582737D01*
X197178522Y-91724968D01*
X197178523Y-91724968D01*
X197328429Y-91533629D01*
X197329115Y-91534166D01*
X197380363Y-91492617D01*
X197449810Y-91484944D01*
X197512382Y-91516034D01*
X197548211Y-91576018D01*
X197551787Y-91616565D01*
X197472998Y-92638972D01*
X197472549Y-92643647D01*
X197353354Y-93677474D01*
X197352728Y-93682129D01*
X197194471Y-94710688D01*
X197193669Y-94715316D01*
X196996572Y-95737153D01*
X196995595Y-95741747D01*
X196759946Y-96755375D01*
X196758796Y-96759928D01*
X196484936Y-97763887D01*
X196483615Y-97768394D01*
X196171917Y-98761311D01*
X196170425Y-98765765D01*
X195821364Y-99746126D01*
X195819705Y-99750520D01*
X195433766Y-100716967D01*
X195431942Y-100721295D01*
X195009680Y-101672432D01*
X195007694Y-101676687D01*
X194549709Y-102611171D01*
X194547562Y-102615349D01*
X194054527Y-103531798D01*
X194052224Y-103535891D01*
X193524838Y-104433010D01*
X193522382Y-104437013D01*
X192961383Y-105313548D01*
X192958776Y-105317455D01*
X192365018Y-106172068D01*
X192362266Y-106175874D01*
X191736553Y-107007413D01*
X191733659Y-107011112D01*
X191076883Y-107818385D01*
X191073850Y-107821971D01*
X190387008Y-108603754D01*
X190383842Y-108607223D01*
X189667881Y-109362444D01*
X189664586Y-109365791D01*
X188920512Y-110093383D01*
X188917092Y-110096602D01*
X188146038Y-110795459D01*
X188142499Y-110798547D01*
X187345506Y-111467725D01*
X187341853Y-111470676D01*
X186520095Y-112109189D01*
X186516332Y-112112000D01*
X185670987Y-112718934D01*
X185667121Y-112721600D01*
X184799414Y-113296076D01*
X184795449Y-113298595D01*
X183906578Y-113839817D01*
X183902521Y-113842183D01*
X182993821Y-114349340D01*
X182989678Y-114351550D01*
X182062387Y-114823952D01*
X182058162Y-114826005D01*
X181113687Y-115262933D01*
X181109388Y-115264824D01*
X180149004Y-115665688D01*
X180144636Y-115667414D01*
X179169800Y-116031607D01*
X179165370Y-116033167D01*
X178177446Y-116360181D01*
X178172960Y-116361573D01*
X177173316Y-116650954D01*
X177168781Y-116652174D01*
X176158934Y-116903482D01*
X176154356Y-116904530D01*
X175135677Y-117117423D01*
X175131062Y-117118296D01*
X174105089Y-117292454D01*
X174100445Y-117293152D01*
X173068608Y-117428333D01*
X173063940Y-117428855D01*
X172027721Y-117524864D01*
X172023037Y-117525209D01*
X171630637Y-117546620D01*
X171562625Y-117530617D01*
X171514061Y-117480384D01*
X171499881Y-117422804D01*
X171500000Y-112147892D01*
X171519686Y-112080854D01*
X171572491Y-112035100D01*
X171641650Y-112025159D01*
X171664955Y-112030855D01*
X171820737Y-112085366D01*
X171820743Y-112085367D01*
X171820745Y-112085368D01*
X171820746Y-112085368D01*
X171820750Y-112085369D01*
X171999996Y-112105565D01*
X172000000Y-112105565D01*
X172000004Y-112105565D01*
X172179249Y-112085369D01*
X172179252Y-112085368D01*
X172179255Y-112085368D01*
X172349522Y-112025789D01*
X172502262Y-111929816D01*
X172629816Y-111802262D01*
X172725789Y-111649522D01*
X172785368Y-111479255D01*
X172790334Y-111435184D01*
X172805565Y-111300003D01*
X172805565Y-111299996D01*
X172785369Y-111120750D01*
X172785368Y-111120745D01*
X172766020Y-111065452D01*
X172725789Y-110950478D01*
X172629816Y-110797738D01*
X172502262Y-110670184D01*
X172413852Y-110614632D01*
X172349523Y-110574211D01*
X172179254Y-110514631D01*
X172179249Y-110514630D01*
X172000004Y-110494435D01*
X171999996Y-110494435D01*
X171820750Y-110514630D01*
X171820742Y-110514632D01*
X171664991Y-110569132D01*
X171595213Y-110572693D01*
X171534585Y-110537964D01*
X171502358Y-110475971D01*
X171500037Y-110452095D01*
X171500060Y-109439996D01*
X185154435Y-109439996D01*
X185154435Y-109440003D01*
X185174630Y-109619249D01*
X185174631Y-109619254D01*
X185234211Y-109789523D01*
X185316659Y-109920737D01*
X185330184Y-109942262D01*
X185457738Y-110069816D01*
X185610478Y-110165789D01*
X185780745Y-110225368D01*
X185780750Y-110225369D01*
X185959996Y-110245565D01*
X185960000Y-110245565D01*
X185960004Y-110245565D01*
X186139249Y-110225369D01*
X186139252Y-110225368D01*
X186139255Y-110225368D01*
X186309522Y-110165789D01*
X186462262Y-110069816D01*
X186589816Y-109942262D01*
X186685789Y-109789522D01*
X186745368Y-109619255D01*
X186745369Y-109619249D01*
X186765565Y-109440003D01*
X186765565Y-109439996D01*
X186745369Y-109260750D01*
X186745368Y-109260745D01*
X186706449Y-109149522D01*
X186685789Y-109090478D01*
X186589816Y-108937738D01*
X186462262Y-108810184D01*
X186446048Y-108799996D01*
X186309523Y-108714211D01*
X186139254Y-108654631D01*
X186139249Y-108654630D01*
X185960004Y-108634435D01*
X185959996Y-108634435D01*
X185780750Y-108654630D01*
X185780745Y-108654631D01*
X185610476Y-108714211D01*
X185457737Y-108810184D01*
X185330184Y-108937737D01*
X185234211Y-109090476D01*
X185174631Y-109260745D01*
X185174630Y-109260750D01*
X185154435Y-109439996D01*
X171500060Y-109439996D01*
X171500194Y-103502135D01*
X182069500Y-103502135D01*
X182069500Y-105297870D01*
X182069501Y-105297876D01*
X182075908Y-105357483D01*
X182126202Y-105492328D01*
X182126206Y-105492335D01*
X182212452Y-105607544D01*
X182212455Y-105607547D01*
X182327664Y-105693793D01*
X182327671Y-105693797D01*
X182327674Y-105693798D01*
X182459598Y-105743002D01*
X182515531Y-105784873D01*
X182539949Y-105850337D01*
X182525098Y-105918610D01*
X182503947Y-105946865D01*
X182381886Y-106068926D01*
X182246400Y-106262420D01*
X182246399Y-106262422D01*
X182146570Y-106476507D01*
X182146567Y-106476513D01*
X182089364Y-106689999D01*
X182089364Y-106690000D01*
X182986988Y-106690000D01*
X182954075Y-106747007D01*
X182920000Y-106874174D01*
X182920000Y-107005826D01*
X182954075Y-107132993D01*
X182986988Y-107190000D01*
X182089364Y-107190000D01*
X182146567Y-107403486D01*
X182146570Y-107403492D01*
X182246399Y-107617578D01*
X182381894Y-107811082D01*
X182548917Y-107978105D01*
X182742421Y-108113600D01*
X182956507Y-108213429D01*
X182956516Y-108213433D01*
X183170000Y-108270634D01*
X183170000Y-107373012D01*
X183227007Y-107405925D01*
X183354174Y-107440000D01*
X183485826Y-107440000D01*
X183612993Y-107405925D01*
X183670000Y-107373012D01*
X183670000Y-108270633D01*
X183883483Y-108213433D01*
X183883492Y-108213429D01*
X184097578Y-108113600D01*
X184291082Y-107978105D01*
X184458105Y-107811082D01*
X184588119Y-107625405D01*
X184642696Y-107581781D01*
X184712195Y-107574588D01*
X184774549Y-107606110D01*
X184791269Y-107625405D01*
X184921505Y-107811401D01*
X185088599Y-107978495D01*
X185111364Y-107994435D01*
X185282165Y-108114032D01*
X185282167Y-108114033D01*
X185282170Y-108114035D01*
X185496337Y-108213903D01*
X185724592Y-108275063D01*
X185912918Y-108291539D01*
X185959999Y-108295659D01*
X185960000Y-108295659D01*
X185960001Y-108295659D01*
X185999234Y-108292226D01*
X186195408Y-108275063D01*
X186423663Y-108213903D01*
X186637830Y-108114035D01*
X186831401Y-107978495D01*
X186998495Y-107811401D01*
X187128730Y-107625405D01*
X187183307Y-107581781D01*
X187252805Y-107574587D01*
X187315160Y-107606110D01*
X187331879Y-107625405D01*
X187461890Y-107811078D01*
X187628917Y-107978105D01*
X187822421Y-108113600D01*
X188036507Y-108213429D01*
X188036516Y-108213433D01*
X188250000Y-108270634D01*
X188250000Y-107373012D01*
X188307007Y-107405925D01*
X188434174Y-107440000D01*
X188565826Y-107440000D01*
X188692993Y-107405925D01*
X188750000Y-107373012D01*
X188750000Y-108270633D01*
X188963483Y-108213433D01*
X188963492Y-108213429D01*
X189177578Y-108113600D01*
X189371082Y-107978105D01*
X189538105Y-107811082D01*
X189673600Y-107617578D01*
X189773429Y-107403492D01*
X189773432Y-107403486D01*
X189830636Y-107190000D01*
X188933012Y-107190000D01*
X188965925Y-107132993D01*
X189000000Y-107005826D01*
X189000000Y-106874174D01*
X188965925Y-106747007D01*
X188933012Y-106690000D01*
X189830636Y-106690000D01*
X189830635Y-106689999D01*
X189773432Y-106476513D01*
X189773429Y-106476507D01*
X189673600Y-106262422D01*
X189673599Y-106262420D01*
X189538113Y-106068926D01*
X189538108Y-106068920D01*
X189371082Y-105901894D01*
X189184968Y-105771575D01*
X189141344Y-105716998D01*
X189134151Y-105647499D01*
X189165673Y-105585145D01*
X189184968Y-105568425D01*
X189371082Y-105438105D01*
X189538105Y-105271082D01*
X189673600Y-105077578D01*
X189773429Y-104863492D01*
X189773432Y-104863486D01*
X189830636Y-104650000D01*
X188933012Y-104650000D01*
X188965925Y-104592993D01*
X189000000Y-104465826D01*
X189000000Y-104334174D01*
X188965925Y-104207007D01*
X188933012Y-104150000D01*
X189830636Y-104150000D01*
X189830635Y-104149999D01*
X189773432Y-103936513D01*
X189773429Y-103936507D01*
X189673600Y-103722422D01*
X189673599Y-103722420D01*
X189538113Y-103528926D01*
X189538108Y-103528920D01*
X189371082Y-103361894D01*
X189177578Y-103226399D01*
X188963492Y-103126570D01*
X188963486Y-103126567D01*
X188750000Y-103069364D01*
X188750000Y-103966988D01*
X188692993Y-103934075D01*
X188565826Y-103900000D01*
X188434174Y-103900000D01*
X188307007Y-103934075D01*
X188250000Y-103966988D01*
X188250000Y-103069364D01*
X188249999Y-103069364D01*
X188036513Y-103126567D01*
X188036507Y-103126570D01*
X187822422Y-103226399D01*
X187822420Y-103226400D01*
X187628926Y-103361886D01*
X187628920Y-103361891D01*
X187461891Y-103528920D01*
X187461890Y-103528922D01*
X187331575Y-103715031D01*
X187276998Y-103758655D01*
X187207499Y-103765848D01*
X187145145Y-103734326D01*
X187128425Y-103715031D01*
X186998109Y-103528922D01*
X186998108Y-103528920D01*
X186831082Y-103361894D01*
X186637578Y-103226399D01*
X186423492Y-103126570D01*
X186423486Y-103126567D01*
X186210000Y-103069364D01*
X186210000Y-103966988D01*
X186152993Y-103934075D01*
X186025826Y-103900000D01*
X185894174Y-103900000D01*
X185767007Y-103934075D01*
X185710000Y-103966988D01*
X185710000Y-103069364D01*
X185709999Y-103069364D01*
X185496513Y-103126567D01*
X185496507Y-103126570D01*
X185282422Y-103226399D01*
X185282420Y-103226400D01*
X185088926Y-103361886D01*
X184966865Y-103483947D01*
X184905542Y-103517431D01*
X184835850Y-103512447D01*
X184779917Y-103470575D01*
X184763002Y-103439598D01*
X184713797Y-103307671D01*
X184713793Y-103307664D01*
X184627547Y-103192455D01*
X184627544Y-103192452D01*
X184512335Y-103106206D01*
X184512328Y-103106202D01*
X184377482Y-103055908D01*
X184377483Y-103055908D01*
X184317883Y-103049501D01*
X184317881Y-103049500D01*
X184317873Y-103049500D01*
X184317864Y-103049500D01*
X182522129Y-103049500D01*
X182522123Y-103049501D01*
X182462516Y-103055908D01*
X182327671Y-103106202D01*
X182327664Y-103106206D01*
X182212455Y-103192452D01*
X182212452Y-103192455D01*
X182126206Y-103307664D01*
X182126202Y-103307671D01*
X182075908Y-103442517D01*
X182069501Y-103502116D01*
X182069500Y-103502135D01*
X171500194Y-103502135D01*
X171500255Y-100778754D01*
X171519941Y-100711716D01*
X171572746Y-100665962D01*
X171641905Y-100656021D01*
X171705460Y-100685047D01*
X171743233Y-100743826D01*
X171744030Y-100746665D01*
X171786094Y-100903655D01*
X171786096Y-100903659D01*
X171786097Y-100903663D01*
X171833711Y-101005771D01*
X171885965Y-101117830D01*
X171885967Y-101117834D01*
X171941917Y-101197738D01*
X172021505Y-101311401D01*
X172188599Y-101478495D01*
X172285384Y-101546265D01*
X172382165Y-101614032D01*
X172382167Y-101614033D01*
X172382170Y-101614035D01*
X172596337Y-101713903D01*
X172824592Y-101775063D01*
X173012918Y-101791539D01*
X173059999Y-101795659D01*
X173060000Y-101795659D01*
X173060001Y-101795659D01*
X173099234Y-101792226D01*
X173295408Y-101775063D01*
X173523663Y-101713903D01*
X173737830Y-101614035D01*
X173931401Y-101478495D01*
X174098495Y-101311401D01*
X174228425Y-101125842D01*
X174283002Y-101082217D01*
X174352500Y-101075023D01*
X174414855Y-101106546D01*
X174431575Y-101125842D01*
X174561500Y-101311395D01*
X174561505Y-101311401D01*
X174728599Y-101478495D01*
X174825384Y-101546265D01*
X174922165Y-101614032D01*
X174922167Y-101614033D01*
X174922170Y-101614035D01*
X175136337Y-101713903D01*
X175364592Y-101775063D01*
X175552918Y-101791539D01*
X175599999Y-101795659D01*
X175600000Y-101795659D01*
X175600001Y-101795659D01*
X175639234Y-101792226D01*
X175835408Y-101775063D01*
X176063663Y-101713903D01*
X176277830Y-101614035D01*
X176471401Y-101478495D01*
X176638495Y-101311401D01*
X176768425Y-101125842D01*
X176823002Y-101082217D01*
X176892500Y-101075023D01*
X176954855Y-101106546D01*
X176971575Y-101125842D01*
X177101500Y-101311395D01*
X177101505Y-101311401D01*
X177268599Y-101478495D01*
X177365384Y-101546265D01*
X177462165Y-101614032D01*
X177462167Y-101614033D01*
X177462170Y-101614035D01*
X177676337Y-101713903D01*
X177904592Y-101775063D01*
X178092918Y-101791539D01*
X178139999Y-101795659D01*
X178140000Y-101795659D01*
X178140001Y-101795659D01*
X178179234Y-101792226D01*
X178375408Y-101775063D01*
X178603663Y-101713903D01*
X178817830Y-101614035D01*
X179011401Y-101478495D01*
X179178495Y-101311401D01*
X179308425Y-101125842D01*
X179363002Y-101082217D01*
X179432500Y-101075023D01*
X179494855Y-101106546D01*
X179511575Y-101125842D01*
X179641500Y-101311395D01*
X179641505Y-101311401D01*
X179808599Y-101478495D01*
X179905384Y-101546265D01*
X180002165Y-101614032D01*
X180002167Y-101614033D01*
X180002170Y-101614035D01*
X180216337Y-101713903D01*
X180444592Y-101775063D01*
X180632918Y-101791539D01*
X180679999Y-101795659D01*
X180680000Y-101795659D01*
X180680001Y-101795659D01*
X180719234Y-101792226D01*
X180915408Y-101775063D01*
X181143663Y-101713903D01*
X181357830Y-101614035D01*
X181551401Y-101478495D01*
X181718495Y-101311401D01*
X181848425Y-101125842D01*
X181903002Y-101082217D01*
X181972500Y-101075023D01*
X182034855Y-101106546D01*
X182051575Y-101125842D01*
X182181500Y-101311395D01*
X182181505Y-101311401D01*
X182348599Y-101478495D01*
X182445384Y-101546265D01*
X182542165Y-101614032D01*
X182542167Y-101614033D01*
X182542170Y-101614035D01*
X182756337Y-101713903D01*
X182984592Y-101775063D01*
X183172918Y-101791539D01*
X183219999Y-101795659D01*
X183220000Y-101795659D01*
X183220001Y-101795659D01*
X183259234Y-101792226D01*
X183455408Y-101775063D01*
X183683663Y-101713903D01*
X183897830Y-101614035D01*
X184091401Y-101478495D01*
X184258495Y-101311401D01*
X184388425Y-101125842D01*
X184443002Y-101082217D01*
X184512500Y-101075023D01*
X184574855Y-101106546D01*
X184591575Y-101125842D01*
X184721500Y-101311395D01*
X184721505Y-101311401D01*
X184888599Y-101478495D01*
X184985384Y-101546265D01*
X185082165Y-101614032D01*
X185082167Y-101614033D01*
X185082170Y-101614035D01*
X185296337Y-101713903D01*
X185524592Y-101775063D01*
X185712918Y-101791539D01*
X185759999Y-101795659D01*
X185760000Y-101795659D01*
X185760001Y-101795659D01*
X185799234Y-101792226D01*
X185995408Y-101775063D01*
X186223663Y-101713903D01*
X186437830Y-101614035D01*
X186631401Y-101478495D01*
X186798495Y-101311401D01*
X186928425Y-101125842D01*
X186983002Y-101082217D01*
X187052500Y-101075023D01*
X187114855Y-101106546D01*
X187131575Y-101125842D01*
X187261500Y-101311395D01*
X187261505Y-101311401D01*
X187428599Y-101478495D01*
X187525384Y-101546265D01*
X187622165Y-101614032D01*
X187622167Y-101614033D01*
X187622170Y-101614035D01*
X187836337Y-101713903D01*
X188064592Y-101775063D01*
X188252918Y-101791539D01*
X188299999Y-101795659D01*
X188300000Y-101795659D01*
X188300001Y-101795659D01*
X188339234Y-101792226D01*
X188535408Y-101775063D01*
X188763663Y-101713903D01*
X188977830Y-101614035D01*
X189171401Y-101478495D01*
X189338495Y-101311401D01*
X189468425Y-101125842D01*
X189523002Y-101082217D01*
X189592500Y-101075023D01*
X189654855Y-101106546D01*
X189671575Y-101125842D01*
X189801500Y-101311395D01*
X189801505Y-101311401D01*
X189968599Y-101478495D01*
X190065384Y-101546265D01*
X190162165Y-101614032D01*
X190162167Y-101614033D01*
X190162170Y-101614035D01*
X190376337Y-101713903D01*
X190604592Y-101775063D01*
X190792918Y-101791539D01*
X190839999Y-101795659D01*
X190840000Y-101795659D01*
X190840001Y-101795659D01*
X190879234Y-101792226D01*
X191075408Y-101775063D01*
X191303663Y-101713903D01*
X191517830Y-101614035D01*
X191711401Y-101478495D01*
X191878495Y-101311401D01*
X192008425Y-101125842D01*
X192063002Y-101082217D01*
X192132500Y-101075023D01*
X192194855Y-101106546D01*
X192211575Y-101125842D01*
X192341500Y-101311395D01*
X192341505Y-101311401D01*
X192508599Y-101478495D01*
X192605384Y-101546265D01*
X192702165Y-101614032D01*
X192702167Y-101614033D01*
X192702170Y-101614035D01*
X192916337Y-101713903D01*
X193144592Y-101775063D01*
X193332918Y-101791539D01*
X193379999Y-101795659D01*
X193380000Y-101795659D01*
X193380001Y-101795659D01*
X193419234Y-101792226D01*
X193615408Y-101775063D01*
X193843663Y-101713903D01*
X194057830Y-101614035D01*
X194251401Y-101478495D01*
X194418495Y-101311401D01*
X194554035Y-101117830D01*
X194653903Y-100903663D01*
X194715063Y-100675408D01*
X194735659Y-100440000D01*
X194715063Y-100204592D01*
X194653903Y-99976337D01*
X194554035Y-99762171D01*
X194548425Y-99754158D01*
X194418494Y-99568597D01*
X194251402Y-99401506D01*
X194251396Y-99401501D01*
X194065842Y-99271575D01*
X194022217Y-99216998D01*
X194015023Y-99147500D01*
X194046546Y-99085145D01*
X194065842Y-99068425D01*
X194088026Y-99052891D01*
X194251401Y-98938495D01*
X194418495Y-98771401D01*
X194554035Y-98577830D01*
X194653903Y-98363663D01*
X194715063Y-98135408D01*
X194735659Y-97900000D01*
X194715063Y-97664592D01*
X194653903Y-97436337D01*
X194554035Y-97222171D01*
X194548425Y-97214158D01*
X194418494Y-97028597D01*
X194251402Y-96861506D01*
X194251395Y-96861501D01*
X194057834Y-96725967D01*
X194057830Y-96725965D01*
X194057828Y-96725964D01*
X193843663Y-96626097D01*
X193843659Y-96626096D01*
X193843655Y-96626094D01*
X193615413Y-96564938D01*
X193615403Y-96564936D01*
X193380001Y-96544341D01*
X193379999Y-96544341D01*
X193144596Y-96564936D01*
X193144586Y-96564938D01*
X192916344Y-96626094D01*
X192916335Y-96626098D01*
X192702171Y-96725964D01*
X192702169Y-96725965D01*
X192508597Y-96861505D01*
X192341505Y-97028597D01*
X192211575Y-97214158D01*
X192156998Y-97257783D01*
X192087500Y-97264977D01*
X192025145Y-97233454D01*
X192008425Y-97214158D01*
X191878494Y-97028597D01*
X191711402Y-96861506D01*
X191711395Y-96861501D01*
X191517834Y-96725967D01*
X191517830Y-96725965D01*
X191517828Y-96725964D01*
X191303663Y-96626097D01*
X191303659Y-96626096D01*
X191303655Y-96626094D01*
X191075413Y-96564938D01*
X191075403Y-96564936D01*
X190840001Y-96544341D01*
X190839999Y-96544341D01*
X190604596Y-96564936D01*
X190604586Y-96564938D01*
X190376344Y-96626094D01*
X190376335Y-96626098D01*
X190162171Y-96725964D01*
X190162169Y-96725965D01*
X189968597Y-96861505D01*
X189801505Y-97028597D01*
X189671575Y-97214158D01*
X189616998Y-97257783D01*
X189547500Y-97264977D01*
X189485145Y-97233454D01*
X189468425Y-97214158D01*
X189338494Y-97028597D01*
X189171402Y-96861506D01*
X189171395Y-96861501D01*
X188977834Y-96725967D01*
X188977830Y-96725965D01*
X188977828Y-96725964D01*
X188763663Y-96626097D01*
X188763659Y-96626096D01*
X188763655Y-96626094D01*
X188535413Y-96564938D01*
X188535403Y-96564936D01*
X188300001Y-96544341D01*
X188299999Y-96544341D01*
X188064596Y-96564936D01*
X188064586Y-96564938D01*
X187836344Y-96626094D01*
X187836335Y-96626098D01*
X187622171Y-96725964D01*
X187622169Y-96725965D01*
X187428597Y-96861505D01*
X187261505Y-97028597D01*
X187131575Y-97214158D01*
X187076998Y-97257783D01*
X187007500Y-97264977D01*
X186945145Y-97233454D01*
X186928425Y-97214158D01*
X186798494Y-97028597D01*
X186631402Y-96861506D01*
X186631395Y-96861501D01*
X186437834Y-96725967D01*
X186437830Y-96725965D01*
X186437828Y-96725964D01*
X186223663Y-96626097D01*
X186223659Y-96626096D01*
X186223655Y-96626094D01*
X185995413Y-96564938D01*
X185995403Y-96564936D01*
X185760001Y-96544341D01*
X185759999Y-96544341D01*
X185524596Y-96564936D01*
X185524586Y-96564938D01*
X185296344Y-96626094D01*
X185296335Y-96626098D01*
X185082171Y-96725964D01*
X185082169Y-96725965D01*
X184888597Y-96861505D01*
X184721505Y-97028597D01*
X184591575Y-97214158D01*
X184536998Y-97257783D01*
X184467500Y-97264977D01*
X184405145Y-97233454D01*
X184388425Y-97214158D01*
X184258494Y-97028597D01*
X184091402Y-96861506D01*
X184091395Y-96861501D01*
X183897834Y-96725967D01*
X183897830Y-96725965D01*
X183897828Y-96725964D01*
X183683663Y-96626097D01*
X183683659Y-96626096D01*
X183683655Y-96626094D01*
X183455413Y-96564938D01*
X183455403Y-96564936D01*
X183220001Y-96544341D01*
X183219999Y-96544341D01*
X182984596Y-96564936D01*
X182984586Y-96564938D01*
X182756344Y-96626094D01*
X182756335Y-96626098D01*
X182542171Y-96725964D01*
X182542169Y-96725965D01*
X182348597Y-96861505D01*
X182181505Y-97028597D01*
X182051575Y-97214158D01*
X181996998Y-97257783D01*
X181927500Y-97264977D01*
X181865145Y-97233454D01*
X181848425Y-97214158D01*
X181718494Y-97028597D01*
X181551402Y-96861506D01*
X181551395Y-96861501D01*
X181357834Y-96725967D01*
X181357830Y-96725965D01*
X181357828Y-96725964D01*
X181143663Y-96626097D01*
X181143659Y-96626096D01*
X181143655Y-96626094D01*
X180915413Y-96564938D01*
X180915403Y-96564936D01*
X180680001Y-96544341D01*
X180679999Y-96544341D01*
X180444596Y-96564936D01*
X180444586Y-96564938D01*
X180216344Y-96626094D01*
X180216335Y-96626098D01*
X180002171Y-96725964D01*
X180002169Y-96725965D01*
X179808597Y-96861505D01*
X179641505Y-97028597D01*
X179511575Y-97214158D01*
X179456998Y-97257783D01*
X179387500Y-97264977D01*
X179325145Y-97233454D01*
X179308425Y-97214158D01*
X179178494Y-97028597D01*
X179011402Y-96861506D01*
X179011395Y-96861501D01*
X178817834Y-96725967D01*
X178817830Y-96725965D01*
X178817828Y-96725964D01*
X178603663Y-96626097D01*
X178603659Y-96626096D01*
X178603655Y-96626094D01*
X178375413Y-96564938D01*
X178375403Y-96564936D01*
X178140001Y-96544341D01*
X178139999Y-96544341D01*
X177904596Y-96564936D01*
X177904586Y-96564938D01*
X177676344Y-96626094D01*
X177676335Y-96626098D01*
X177462171Y-96725964D01*
X177462169Y-96725965D01*
X177268597Y-96861505D01*
X177101505Y-97028597D01*
X176971575Y-97214158D01*
X176916998Y-97257783D01*
X176847500Y-97264977D01*
X176785145Y-97233454D01*
X176768425Y-97214158D01*
X176638494Y-97028597D01*
X176471402Y-96861506D01*
X176471395Y-96861501D01*
X176277834Y-96725967D01*
X176277830Y-96725965D01*
X176277828Y-96725964D01*
X176063663Y-96626097D01*
X176063659Y-96626096D01*
X176063655Y-96626094D01*
X175835413Y-96564938D01*
X175835403Y-96564936D01*
X175600001Y-96544341D01*
X175599999Y-96544341D01*
X175364596Y-96564936D01*
X175364586Y-96564938D01*
X175136344Y-96626094D01*
X175136335Y-96626098D01*
X174922171Y-96725964D01*
X174922169Y-96725965D01*
X174728600Y-96861503D01*
X174606673Y-96983430D01*
X174545350Y-97016914D01*
X174475658Y-97011930D01*
X174419725Y-96970058D01*
X174402810Y-96939081D01*
X174353797Y-96807671D01*
X174353793Y-96807664D01*
X174267547Y-96692455D01*
X174267544Y-96692452D01*
X174152335Y-96606206D01*
X174152328Y-96606202D01*
X174017482Y-96555908D01*
X174017483Y-96555908D01*
X173957883Y-96549501D01*
X173957881Y-96549500D01*
X173957873Y-96549500D01*
X173957864Y-96549500D01*
X172162129Y-96549500D01*
X172162123Y-96549501D01*
X172102516Y-96555908D01*
X171967671Y-96606202D01*
X171967664Y-96606206D01*
X171852455Y-96692452D01*
X171852452Y-96692455D01*
X171766206Y-96807664D01*
X171766203Y-96807670D01*
X171740525Y-96876516D01*
X171698653Y-96932449D01*
X171633189Y-96956866D01*
X171564916Y-96942014D01*
X171515511Y-96892609D01*
X171500343Y-96833181D01*
X171500497Y-89974536D01*
X171500500Y-89974514D01*
X171500500Y-89878707D01*
X171500501Y-89834119D01*
X171500500Y-89834115D01*
X171500500Y-89834108D01*
X171479903Y-89757239D01*
X171479903Y-89757238D01*
X171479903Y-89757237D01*
X171467420Y-89710647D01*
X171466633Y-89707280D01*
X171466543Y-89707055D01*
X171465930Y-89706014D01*
X171433314Y-89649521D01*
X171433313Y-89649520D01*
X171421937Y-89629815D01*
X171402332Y-89595857D01*
X171400867Y-89593133D01*
X171400634Y-89592820D01*
X171347095Y-89539281D01*
X171307318Y-89499502D01*
X171272248Y-89479255D01*
X171249775Y-89466280D01*
X171249772Y-89466278D01*
X171193192Y-89433609D01*
X171141758Y-89419828D01*
X171141758Y-89419827D01*
X171141754Y-89419827D01*
X171117703Y-89413382D01*
X171065902Y-89399500D01*
X171065895Y-89399500D01*
X171065892Y-89399500D01*
X171000011Y-89399500D01*
X170934119Y-89399499D01*
X170934118Y-89399499D01*
X170926525Y-89399499D01*
X170926509Y-89399500D01*
X169073491Y-89399500D01*
X169073474Y-89399499D01*
X169065881Y-89399499D01*
X168999989Y-89399500D01*
X168934096Y-89399500D01*
X168858243Y-89419827D01*
X168858242Y-89419827D01*
X168806819Y-89433606D01*
X168806816Y-89433607D01*
X168806814Y-89433608D01*
X168806809Y-89433610D01*
X168806804Y-89433612D01*
X168750224Y-89466280D01*
X168750223Y-89466279D01*
X168692692Y-89499495D01*
X168692684Y-89499501D01*
X168692673Y-89499510D01*
X168652905Y-89539281D01*
X168652902Y-89539284D01*
X168599503Y-89592681D01*
X168599497Y-89592688D01*
X168566688Y-89649519D01*
X168566686Y-89649521D01*
X168533609Y-89706810D01*
X168533610Y-89706810D01*
X168533604Y-89706823D01*
X168520098Y-89757236D01*
X168520097Y-89757238D01*
X168499499Y-89834112D01*
X168499500Y-89878708D01*
X168499500Y-89970275D01*
X168499501Y-89970305D01*
X168499744Y-100817019D01*
X168480061Y-100884059D01*
X168427258Y-100929815D01*
X168358100Y-100939760D01*
X168334790Y-100934064D01*
X168279257Y-100914632D01*
X168279249Y-100914630D01*
X168100004Y-100894435D01*
X168099996Y-100894435D01*
X167920750Y-100914630D01*
X167920745Y-100914631D01*
X167750476Y-100974211D01*
X167597737Y-101070184D01*
X167470184Y-101197737D01*
X167374211Y-101350476D01*
X167314631Y-101520745D01*
X167314630Y-101520750D01*
X167294435Y-101699996D01*
X167294435Y-101700003D01*
X167314630Y-101879249D01*
X167314631Y-101879254D01*
X167374211Y-102049523D01*
X167389724Y-102074211D01*
X167470184Y-102202262D01*
X167597738Y-102329816D01*
X167750478Y-102425789D01*
X167854989Y-102462359D01*
X167920745Y-102485368D01*
X167920750Y-102485369D01*
X168099996Y-102505565D01*
X168100000Y-102505565D01*
X168100004Y-102505565D01*
X168279249Y-102485369D01*
X168279252Y-102485368D01*
X168279255Y-102485368D01*
X168279256Y-102485367D01*
X168279259Y-102485367D01*
X168334828Y-102465922D01*
X168404607Y-102462359D01*
X168465235Y-102497088D01*
X168497462Y-102559081D01*
X168499784Y-102582960D01*
X168500117Y-117422801D01*
X168480434Y-117489841D01*
X168427631Y-117535597D01*
X168369361Y-117546620D01*
X167976962Y-117525209D01*
X167972278Y-117524864D01*
X166936059Y-117428855D01*
X166931391Y-117428333D01*
X165899554Y-117293152D01*
X165894910Y-117292454D01*
X164868937Y-117118296D01*
X164864322Y-117117423D01*
X163845643Y-116904530D01*
X163841065Y-116903482D01*
X162831218Y-116652174D01*
X162826683Y-116650954D01*
X161827039Y-116361573D01*
X161822553Y-116360181D01*
X160834629Y-116033167D01*
X160830199Y-116031607D01*
X159855363Y-115667414D01*
X159850995Y-115665688D01*
X158890611Y-115264824D01*
X158886312Y-115262933D01*
X157941837Y-114826005D01*
X157937612Y-114823952D01*
X157010321Y-114351550D01*
X157006178Y-114349340D01*
X156097478Y-113842183D01*
X156093421Y-113839817D01*
X155204550Y-113298595D01*
X155200585Y-113296076D01*
X154332878Y-112721600D01*
X154329012Y-112718934D01*
X153483667Y-112112000D01*
X153479904Y-112109189D01*
X152658146Y-111470676D01*
X152654493Y-111467725D01*
X152050601Y-110960680D01*
X151857488Y-110798536D01*
X151853961Y-110795459D01*
X151781535Y-110729815D01*
X151086652Y-110099996D01*
X154694435Y-110099996D01*
X154694435Y-110100003D01*
X154714630Y-110279249D01*
X154714631Y-110279254D01*
X154774211Y-110449523D01*
X154852558Y-110574211D01*
X154870184Y-110602262D01*
X154997738Y-110729816D01*
X155061983Y-110770184D01*
X155105833Y-110797737D01*
X155150478Y-110825789D01*
X155161844Y-110829766D01*
X155320745Y-110885368D01*
X155320750Y-110885369D01*
X155499996Y-110905565D01*
X155500000Y-110905565D01*
X155538044Y-110901278D01*
X155606864Y-110913332D01*
X155658245Y-110960680D01*
X155675870Y-111028290D01*
X155668970Y-111065452D01*
X155614632Y-111220742D01*
X155614630Y-111220750D01*
X155594435Y-111399996D01*
X155594435Y-111400003D01*
X155614630Y-111579249D01*
X155614631Y-111579254D01*
X155674211Y-111749523D01*
X155770184Y-111902262D01*
X155897738Y-112029816D01*
X156050478Y-112125789D01*
X156113648Y-112147893D01*
X156220745Y-112185368D01*
X156220750Y-112185369D01*
X156399996Y-112205565D01*
X156400000Y-112205565D01*
X156400004Y-112205565D01*
X156579249Y-112185369D01*
X156579252Y-112185368D01*
X156579255Y-112185368D01*
X156749522Y-112125789D01*
X156902262Y-112029816D01*
X157029816Y-111902262D01*
X157125789Y-111749522D01*
X157185368Y-111579255D01*
X157185369Y-111579249D01*
X157205565Y-111400003D01*
X157205565Y-111399996D01*
X161894435Y-111399996D01*
X161894435Y-111400003D01*
X161914630Y-111579249D01*
X161914631Y-111579254D01*
X161974211Y-111749523D01*
X162070184Y-111902262D01*
X162197738Y-112029816D01*
X162350478Y-112125789D01*
X162413648Y-112147893D01*
X162520745Y-112185368D01*
X162520750Y-112185369D01*
X162699996Y-112205565D01*
X162700000Y-112205565D01*
X162700004Y-112205565D01*
X162879249Y-112185369D01*
X162879252Y-112185368D01*
X162879255Y-112185368D01*
X163049522Y-112125789D01*
X163202262Y-112029816D01*
X163329816Y-111902262D01*
X163425789Y-111749522D01*
X163485368Y-111579255D01*
X163485369Y-111579249D01*
X163505565Y-111400003D01*
X163505565Y-111399996D01*
X163485369Y-111220750D01*
X163485368Y-111220745D01*
X163450376Y-111120745D01*
X163425789Y-111050478D01*
X163411847Y-111028290D01*
X163362955Y-110950478D01*
X163329816Y-110897738D01*
X163202262Y-110770184D01*
X163138017Y-110729816D01*
X163049523Y-110674211D01*
X162879254Y-110614631D01*
X162879249Y-110614630D01*
X162700004Y-110594435D01*
X162699996Y-110594435D01*
X162520750Y-110614630D01*
X162520745Y-110614631D01*
X162350476Y-110674211D01*
X162197737Y-110770184D01*
X162070184Y-110897737D01*
X161974211Y-111050476D01*
X161914631Y-111220745D01*
X161914630Y-111220750D01*
X161894435Y-111399996D01*
X157205565Y-111399996D01*
X157185369Y-111220750D01*
X157185368Y-111220745D01*
X157150376Y-111120745D01*
X157125789Y-111050478D01*
X157111847Y-111028290D01*
X157062955Y-110950478D01*
X157029816Y-110897738D01*
X156902262Y-110770184D01*
X156838017Y-110729816D01*
X156749523Y-110674211D01*
X156579254Y-110614631D01*
X156579249Y-110614630D01*
X156400004Y-110594435D01*
X156399996Y-110594435D01*
X156361954Y-110598721D01*
X156293132Y-110586666D01*
X156241753Y-110539317D01*
X156224129Y-110471706D01*
X156231030Y-110434546D01*
X156285366Y-110279262D01*
X156285369Y-110279249D01*
X156305565Y-110100003D01*
X156305565Y-110099996D01*
X156285369Y-109920750D01*
X156285366Y-109920737D01*
X156227383Y-109755032D01*
X156223821Y-109685253D01*
X156258549Y-109624626D01*
X156320543Y-109592398D01*
X156330541Y-109590857D01*
X156379250Y-109585369D01*
X156379253Y-109585368D01*
X156379255Y-109585368D01*
X156549522Y-109525789D01*
X156702262Y-109429816D01*
X156829816Y-109302262D01*
X156925789Y-109149522D01*
X156985368Y-108979255D01*
X157005565Y-108800000D01*
X156989186Y-108654632D01*
X156985369Y-108620750D01*
X156985368Y-108620745D01*
X156925788Y-108450476D01*
X156829815Y-108297737D01*
X156702262Y-108170184D01*
X156549523Y-108074211D01*
X156379254Y-108014631D01*
X156379249Y-108014630D01*
X156200004Y-107994435D01*
X156199996Y-107994435D01*
X156020750Y-108014630D01*
X156020745Y-108014631D01*
X155850476Y-108074211D01*
X155697737Y-108170184D01*
X155570184Y-108297737D01*
X155474211Y-108450476D01*
X155414631Y-108620745D01*
X155414630Y-108620750D01*
X155394435Y-108799996D01*
X155394435Y-108800003D01*
X155414630Y-108979249D01*
X155414631Y-108979254D01*
X155472617Y-109144967D01*
X155476178Y-109214746D01*
X155441449Y-109275374D01*
X155379456Y-109307601D01*
X155369460Y-109309142D01*
X155320749Y-109314630D01*
X155320745Y-109314631D01*
X155150476Y-109374211D01*
X154997737Y-109470184D01*
X154870184Y-109597737D01*
X154774211Y-109750476D01*
X154714631Y-109920745D01*
X154714630Y-109920750D01*
X154694435Y-110099996D01*
X151086652Y-110099996D01*
X151082905Y-110096600D01*
X151079487Y-110093383D01*
X150335413Y-109365791D01*
X150332118Y-109362444D01*
X150286791Y-109314632D01*
X149798915Y-108800003D01*
X149616157Y-108607223D01*
X149612991Y-108603754D01*
X149063667Y-107978498D01*
X148926143Y-107821964D01*
X148923116Y-107818385D01*
X148917430Y-107811396D01*
X148266325Y-107011093D01*
X148263460Y-107007432D01*
X147637730Y-106175869D01*
X147634981Y-106172068D01*
X147376477Y-105799996D01*
X147994435Y-105799996D01*
X147994435Y-105800003D01*
X148014630Y-105979249D01*
X148014631Y-105979254D01*
X148074211Y-106149523D01*
X148145151Y-106262422D01*
X148170184Y-106302262D01*
X148297738Y-106429816D01*
X148450478Y-106525789D01*
X148490808Y-106539901D01*
X148620745Y-106585368D01*
X148620750Y-106585369D01*
X148799996Y-106605565D01*
X148800000Y-106605565D01*
X148800004Y-106605565D01*
X148979249Y-106585369D01*
X148979252Y-106585368D01*
X148979255Y-106585368D01*
X149149522Y-106525789D01*
X149302262Y-106429816D01*
X149429816Y-106302262D01*
X149525789Y-106149522D01*
X149585368Y-105979255D01*
X149585369Y-105979249D01*
X149605565Y-105800003D01*
X149605565Y-105799996D01*
X149585369Y-105620750D01*
X149585368Y-105620745D01*
X149525788Y-105450476D01*
X149441324Y-105316053D01*
X149429816Y-105297738D01*
X149302262Y-105170184D01*
X149149523Y-105074211D01*
X148979254Y-105014631D01*
X148979249Y-105014630D01*
X148800004Y-104994435D01*
X148799996Y-104994435D01*
X148620750Y-105014630D01*
X148620745Y-105014631D01*
X148450476Y-105074211D01*
X148297737Y-105170184D01*
X148170184Y-105297737D01*
X148074211Y-105450476D01*
X148014631Y-105620745D01*
X148014630Y-105620750D01*
X147994435Y-105799996D01*
X147376477Y-105799996D01*
X147041207Y-105317432D01*
X147038631Y-105313571D01*
X146477617Y-104437013D01*
X146475161Y-104433010D01*
X146308788Y-104149999D01*
X145947765Y-103535874D01*
X145945472Y-103531798D01*
X145942239Y-103525789D01*
X145551775Y-102799996D01*
X159294435Y-102799996D01*
X159294435Y-102800003D01*
X159314630Y-102979249D01*
X159314631Y-102979254D01*
X159374211Y-103149523D01*
X159470184Y-103302262D01*
X159597738Y-103429816D01*
X159750478Y-103525789D01*
X159920745Y-103585368D01*
X159920750Y-103585369D01*
X160099996Y-103605565D01*
X160100000Y-103605565D01*
X160100004Y-103605565D01*
X160279249Y-103585369D01*
X160279252Y-103585368D01*
X160279255Y-103585368D01*
X160449522Y-103525789D01*
X160602262Y-103429816D01*
X160729816Y-103302262D01*
X160825789Y-103149522D01*
X160885368Y-102979255D01*
X160891392Y-102925789D01*
X160905565Y-102800003D01*
X160905565Y-102799996D01*
X160885369Y-102620750D01*
X160885368Y-102620745D01*
X160845065Y-102505565D01*
X160825789Y-102450478D01*
X160729816Y-102297738D01*
X160632074Y-102199996D01*
X162894435Y-102199996D01*
X162894435Y-102200003D01*
X162914630Y-102379249D01*
X162914631Y-102379254D01*
X162974211Y-102549523D01*
X163070184Y-102702262D01*
X163197738Y-102829816D01*
X163350478Y-102925789D01*
X163503258Y-102979249D01*
X163520745Y-102985368D01*
X163520750Y-102985369D01*
X163699996Y-103005565D01*
X163700000Y-103005565D01*
X163700004Y-103005565D01*
X163879249Y-102985369D01*
X163879252Y-102985368D01*
X163879255Y-102985368D01*
X164049522Y-102925789D01*
X164202262Y-102829816D01*
X164329816Y-102702262D01*
X164425789Y-102549522D01*
X164485368Y-102379255D01*
X164485369Y-102379249D01*
X164505565Y-102200003D01*
X164505565Y-102199996D01*
X164485369Y-102020750D01*
X164485368Y-102020745D01*
X164476162Y-101994435D01*
X164425789Y-101850478D01*
X164329816Y-101697738D01*
X164202262Y-101570184D01*
X164049523Y-101474211D01*
X163879254Y-101414631D01*
X163879249Y-101414630D01*
X163700004Y-101394435D01*
X163699996Y-101394435D01*
X163520750Y-101414630D01*
X163520745Y-101414631D01*
X163350476Y-101474211D01*
X163197737Y-101570184D01*
X163070184Y-101697737D01*
X162974211Y-101850476D01*
X162914631Y-102020745D01*
X162914630Y-102020750D01*
X162894435Y-102199996D01*
X160632074Y-102199996D01*
X160602262Y-102170184D01*
X160537495Y-102129488D01*
X160449523Y-102074211D01*
X160279254Y-102014631D01*
X160279249Y-102014630D01*
X160100004Y-101994435D01*
X160099996Y-101994435D01*
X159920750Y-102014630D01*
X159920745Y-102014631D01*
X159750476Y-102074211D01*
X159597737Y-102170184D01*
X159470184Y-102297737D01*
X159374211Y-102450476D01*
X159314631Y-102620745D01*
X159314630Y-102620750D01*
X159294435Y-102799996D01*
X145551775Y-102799996D01*
X145452430Y-102615335D01*
X145450290Y-102611171D01*
X145379104Y-102465922D01*
X145040518Y-101775063D01*
X144992305Y-101676687D01*
X144990319Y-101672432D01*
X144830038Y-101311402D01*
X144568041Y-100721257D01*
X144566249Y-100717005D01*
X144180280Y-99750485D01*
X144178648Y-99746161D01*
X143829564Y-98765737D01*
X143828091Y-98761338D01*
X143516377Y-97768371D01*
X143515070Y-97763912D01*
X143241200Y-96759917D01*
X143240053Y-96755375D01*
X143233216Y-96725964D01*
X143004398Y-95741719D01*
X143003432Y-95737181D01*
X142806326Y-94715295D01*
X142805528Y-94710688D01*
X142669997Y-93829830D01*
X142647266Y-93682095D01*
X142646648Y-93677502D01*
X142571333Y-93024261D01*
X151570170Y-93024261D01*
X151570170Y-93024268D01*
X151590365Y-93203514D01*
X151590366Y-93203519D01*
X151649946Y-93373788D01*
X151682620Y-93425788D01*
X151745919Y-93526527D01*
X151873473Y-93654081D01*
X152026213Y-93750054D01*
X152196480Y-93809633D01*
X152196485Y-93809634D01*
X152375731Y-93829830D01*
X152375735Y-93829830D01*
X152375739Y-93829830D01*
X152554984Y-93809634D01*
X152554987Y-93809633D01*
X152554990Y-93809633D01*
X152725257Y-93750054D01*
X152877997Y-93654081D01*
X153005551Y-93526527D01*
X153101524Y-93373787D01*
X153161103Y-93203520D01*
X153161245Y-93202262D01*
X153181300Y-93024268D01*
X153181300Y-93024261D01*
X153161104Y-92845015D01*
X153161103Y-92845010D01*
X153110360Y-92699996D01*
X153594435Y-92699996D01*
X153594435Y-92700003D01*
X153614630Y-92879249D01*
X153614631Y-92879254D01*
X153674211Y-93049523D01*
X153704993Y-93098512D01*
X153770184Y-93202262D01*
X153897738Y-93329816D01*
X154050478Y-93425789D01*
X154220745Y-93485368D01*
X154220750Y-93485369D01*
X154399996Y-93505565D01*
X154400000Y-93505565D01*
X154400004Y-93505565D01*
X154579249Y-93485369D01*
X154579252Y-93485368D01*
X154579255Y-93485368D01*
X154749522Y-93425789D01*
X154902262Y-93329816D01*
X155029816Y-93202262D01*
X155095007Y-93098510D01*
X155147341Y-93052221D01*
X155216394Y-93041573D01*
X155280243Y-93069948D01*
X155304992Y-93098509D01*
X155370184Y-93202262D01*
X155497738Y-93329816D01*
X155650478Y-93425789D01*
X155820745Y-93485368D01*
X155820750Y-93485369D01*
X155999996Y-93505565D01*
X156000000Y-93505565D01*
X156000004Y-93505565D01*
X156179249Y-93485369D01*
X156179252Y-93485368D01*
X156179255Y-93485368D01*
X156349522Y-93425789D01*
X156502262Y-93329816D01*
X156629816Y-93202262D01*
X156725789Y-93049522D01*
X156785368Y-92879255D01*
X156789226Y-92845015D01*
X156805565Y-92700003D01*
X156805565Y-92699996D01*
X156785369Y-92520750D01*
X156785368Y-92520745D01*
X156725789Y-92350478D01*
X156724092Y-92347778D01*
X156655677Y-92238896D01*
X156629816Y-92197738D01*
X156502262Y-92070184D01*
X156349523Y-91974211D01*
X156179254Y-91914631D01*
X156179249Y-91914630D01*
X156000004Y-91894435D01*
X155999996Y-91894435D01*
X155820750Y-91914630D01*
X155820745Y-91914631D01*
X155650476Y-91974211D01*
X155497737Y-92070184D01*
X155370184Y-92197737D01*
X155304994Y-92301487D01*
X155252659Y-92347778D01*
X155183605Y-92358426D01*
X155119757Y-92330051D01*
X155095006Y-92301487D01*
X155047648Y-92226118D01*
X155029816Y-92197738D01*
X154902262Y-92070184D01*
X154749523Y-91974211D01*
X154579254Y-91914631D01*
X154579249Y-91914630D01*
X154400004Y-91894435D01*
X154399996Y-91894435D01*
X154220750Y-91914630D01*
X154220745Y-91914631D01*
X154050476Y-91974211D01*
X153897737Y-92070184D01*
X153770184Y-92197737D01*
X153674211Y-92350476D01*
X153614631Y-92520745D01*
X153614630Y-92520750D01*
X153594435Y-92699996D01*
X153110360Y-92699996D01*
X153101524Y-92674743D01*
X153005551Y-92522003D01*
X152877997Y-92394449D01*
X152808018Y-92350478D01*
X152725258Y-92298476D01*
X152554989Y-92238896D01*
X152554984Y-92238895D01*
X152375739Y-92218700D01*
X152375731Y-92218700D01*
X152196485Y-92238895D01*
X152196480Y-92238896D01*
X152026211Y-92298476D01*
X151873472Y-92394449D01*
X151745919Y-92522002D01*
X151649946Y-92674741D01*
X151590366Y-92845010D01*
X151590365Y-92845015D01*
X151570170Y-93024261D01*
X142571333Y-93024261D01*
X142527449Y-92643639D01*
X142527001Y-92638972D01*
X142517891Y-92520750D01*
X142448212Y-91616561D01*
X142462687Y-91548212D01*
X142511819Y-91498535D01*
X142580009Y-91483307D01*
X142645607Y-91507363D01*
X142671260Y-91533871D01*
X142671571Y-91533628D01*
X142821476Y-91724968D01*
X143963708Y-90582736D01*
X144060967Y-90716602D01*
X144183398Y-90839033D01*
X144317262Y-90936290D01*
X143175030Y-92078522D01*
X143175030Y-92078523D01*
X143363423Y-92226118D01*
X143642956Y-92395101D01*
X143642958Y-92395102D01*
X143940824Y-92529160D01*
X143940835Y-92529164D01*
X144252658Y-92626332D01*
X144573961Y-92685213D01*
X144900000Y-92704934D01*
X145226038Y-92685213D01*
X145547341Y-92626332D01*
X145859164Y-92529164D01*
X145859175Y-92529160D01*
X146157041Y-92395102D01*
X146157043Y-92395101D01*
X146436586Y-92226112D01*
X146624968Y-92078523D01*
X146624968Y-92078522D01*
X145482737Y-90936290D01*
X145616602Y-90839033D01*
X145739033Y-90716602D01*
X145836290Y-90582737D01*
X146978522Y-91724968D01*
X146978523Y-91724968D01*
X147126112Y-91536586D01*
X147295101Y-91257043D01*
X147295102Y-91257041D01*
X147429160Y-90959175D01*
X147429164Y-90959164D01*
X147526332Y-90647341D01*
X147585213Y-90326038D01*
X147604934Y-90000000D01*
X147585213Y-89673961D01*
X147526332Y-89352658D01*
X147429164Y-89040835D01*
X147429160Y-89040824D01*
X147295102Y-88742958D01*
X147295101Y-88742956D01*
X147126118Y-88463423D01*
X146978522Y-88275030D01*
X145836290Y-89417262D01*
X145739033Y-89283398D01*
X145616602Y-89160967D01*
X145482736Y-89063709D01*
X146446448Y-88099996D01*
X158294435Y-88099996D01*
X158294435Y-88100003D01*
X158314630Y-88279249D01*
X158314631Y-88279254D01*
X158374211Y-88449523D01*
X158470184Y-88602262D01*
X158579929Y-88712007D01*
X158613414Y-88773330D01*
X158613282Y-88813585D01*
X158615411Y-88813825D01*
X158594435Y-88999996D01*
X158594435Y-89000003D01*
X158614630Y-89179249D01*
X158614631Y-89179254D01*
X158674211Y-89349523D01*
X158755724Y-89479249D01*
X158770184Y-89502262D01*
X158897738Y-89629816D01*
X158967994Y-89673961D01*
X159026379Y-89710647D01*
X159050478Y-89725789D01*
X159140354Y-89757238D01*
X159220745Y-89785368D01*
X159220750Y-89785369D01*
X159399996Y-89805565D01*
X159400000Y-89805565D01*
X159400004Y-89805565D01*
X159579249Y-89785369D01*
X159579252Y-89785368D01*
X159579255Y-89785368D01*
X159749522Y-89725789D01*
X159902262Y-89629816D01*
X160029816Y-89502262D01*
X160125789Y-89349522D01*
X160143119Y-89299996D01*
X181994435Y-89299996D01*
X181994435Y-89300003D01*
X182014630Y-89479249D01*
X182014631Y-89479254D01*
X182074211Y-89649523D01*
X182141894Y-89757239D01*
X182170184Y-89802262D01*
X182297738Y-89929816D01*
X182450478Y-90025789D01*
X182620745Y-90085368D01*
X182620750Y-90085369D01*
X182799996Y-90105565D01*
X182800000Y-90105565D01*
X182800004Y-90105565D01*
X182979249Y-90085369D01*
X182979252Y-90085368D01*
X182979255Y-90085368D01*
X183149522Y-90025789D01*
X183302262Y-89929816D01*
X183429816Y-89802262D01*
X183525789Y-89649522D01*
X183585368Y-89479255D01*
X183590511Y-89433608D01*
X183605565Y-89300003D01*
X183605565Y-89299996D01*
X183585369Y-89120750D01*
X183585368Y-89120745D01*
X183557402Y-89040824D01*
X183525789Y-88950478D01*
X183429816Y-88797738D01*
X183302262Y-88670184D01*
X183270897Y-88650476D01*
X183149523Y-88574211D01*
X182979254Y-88514631D01*
X182979249Y-88514630D01*
X182800004Y-88494435D01*
X182799996Y-88494435D01*
X182620750Y-88514630D01*
X182620745Y-88514631D01*
X182450476Y-88574211D01*
X182297737Y-88670184D01*
X182170184Y-88797737D01*
X182074211Y-88950476D01*
X182014631Y-89120745D01*
X182014630Y-89120750D01*
X181994435Y-89299996D01*
X160143119Y-89299996D01*
X160185368Y-89179255D01*
X160191960Y-89120750D01*
X160205565Y-89000003D01*
X160205565Y-88999996D01*
X160185369Y-88820750D01*
X160185368Y-88820745D01*
X160182863Y-88813585D01*
X160125789Y-88650478D01*
X160029816Y-88497738D01*
X159920070Y-88387992D01*
X159886585Y-88326669D01*
X159886826Y-88286428D01*
X159884589Y-88286176D01*
X159905565Y-88100003D01*
X159905565Y-88099996D01*
X159885369Y-87920750D01*
X159885368Y-87920745D01*
X159866564Y-87867007D01*
X159825789Y-87750478D01*
X159729816Y-87597738D01*
X159602262Y-87470184D01*
X159521900Y-87419689D01*
X159449523Y-87374211D01*
X159279254Y-87314631D01*
X159279249Y-87314630D01*
X159100004Y-87294435D01*
X159099996Y-87294435D01*
X158920750Y-87314630D01*
X158920745Y-87314631D01*
X158750476Y-87374211D01*
X158597737Y-87470184D01*
X158470184Y-87597737D01*
X158374211Y-87750476D01*
X158314631Y-87920745D01*
X158314630Y-87920750D01*
X158294435Y-88099996D01*
X146446448Y-88099996D01*
X146624968Y-87921476D01*
X146436576Y-87773881D01*
X146157043Y-87604898D01*
X146157041Y-87604897D01*
X145859175Y-87470839D01*
X145859164Y-87470835D01*
X145547341Y-87373667D01*
X145226038Y-87314786D01*
X144900000Y-87295065D01*
X144573961Y-87314786D01*
X144252658Y-87373667D01*
X143940835Y-87470835D01*
X143940824Y-87470839D01*
X143642958Y-87604897D01*
X143642956Y-87604898D01*
X143363422Y-87773881D01*
X143363416Y-87773886D01*
X143175030Y-87921474D01*
X143175029Y-87921476D01*
X144317262Y-89063709D01*
X144183398Y-89160967D01*
X144060967Y-89283398D01*
X143963709Y-89417262D01*
X142821476Y-88275029D01*
X142821474Y-88275030D01*
X142671571Y-88466371D01*
X142670410Y-88465461D01*
X142620775Y-88505639D01*
X142551322Y-88513258D01*
X142488775Y-88482119D01*
X142452992Y-88422107D01*
X142449419Y-88381942D01*
X142520993Y-87424332D01*
X142521425Y-87419723D01*
X142546245Y-87199996D01*
X163994435Y-87199996D01*
X163994435Y-87200003D01*
X164014630Y-87379249D01*
X164014631Y-87379254D01*
X164074211Y-87549523D01*
X164104507Y-87597738D01*
X164170184Y-87702262D01*
X164297738Y-87829816D01*
X164356927Y-87867007D01*
X164443610Y-87921474D01*
X164450478Y-87925789D01*
X164620745Y-87985368D01*
X164620750Y-87985369D01*
X164799996Y-88005565D01*
X164800000Y-88005565D01*
X164800004Y-88005565D01*
X164979249Y-87985369D01*
X164979252Y-87985368D01*
X164979255Y-87985368D01*
X165149522Y-87925789D01*
X165302262Y-87829816D01*
X165429816Y-87702262D01*
X165525789Y-87549522D01*
X165585368Y-87379255D01*
X165585369Y-87379249D01*
X165605565Y-87200003D01*
X165605565Y-87199996D01*
X165585369Y-87020750D01*
X165585368Y-87020745D01*
X165548388Y-86915063D01*
X165525789Y-86850478D01*
X165429816Y-86697738D01*
X165302262Y-86570184D01*
X165149523Y-86474211D01*
X164979254Y-86414631D01*
X164979249Y-86414630D01*
X164800004Y-86394435D01*
X164799996Y-86394435D01*
X164620750Y-86414630D01*
X164620745Y-86414631D01*
X164450476Y-86474211D01*
X164297737Y-86570184D01*
X164170184Y-86697737D01*
X164074211Y-86850476D01*
X164014631Y-87020745D01*
X164014630Y-87020750D01*
X163994435Y-87199996D01*
X142546245Y-87199996D01*
X142638239Y-86385593D01*
X142638845Y-86381005D01*
X142794739Y-85352026D01*
X142795528Y-85347413D01*
X142796065Y-85344596D01*
X142990270Y-84325110D01*
X142991234Y-84320532D01*
X143224549Y-83306344D01*
X143225688Y-83301788D01*
X143293876Y-83049523D01*
X143296450Y-83039999D01*
X144844341Y-83039999D01*
X144844341Y-83040000D01*
X144864936Y-83275403D01*
X144864938Y-83275413D01*
X144926094Y-83503655D01*
X144926096Y-83503659D01*
X144926097Y-83503663D01*
X144977843Y-83614632D01*
X145025965Y-83717830D01*
X145025967Y-83717834D01*
X145161501Y-83911395D01*
X145161506Y-83911402D01*
X145328597Y-84078493D01*
X145328603Y-84078498D01*
X145514158Y-84208425D01*
X145557783Y-84263002D01*
X145564977Y-84332500D01*
X145533454Y-84394855D01*
X145514158Y-84411575D01*
X145328597Y-84541505D01*
X145161505Y-84708597D01*
X145025965Y-84902169D01*
X145025964Y-84902171D01*
X144926098Y-85116335D01*
X144926094Y-85116344D01*
X144864938Y-85344586D01*
X144864936Y-85344596D01*
X144844341Y-85579999D01*
X144844341Y-85580000D01*
X144864936Y-85815403D01*
X144864938Y-85815413D01*
X144926094Y-86043655D01*
X144926096Y-86043659D01*
X144926097Y-86043663D01*
X144933015Y-86058498D01*
X145025965Y-86257830D01*
X145025967Y-86257834D01*
X145081612Y-86337302D01*
X145161505Y-86451401D01*
X145328599Y-86618495D01*
X145425384Y-86686265D01*
X145522165Y-86754032D01*
X145522167Y-86754033D01*
X145522170Y-86754035D01*
X145736337Y-86853903D01*
X145964592Y-86915063D01*
X146152918Y-86931539D01*
X146199999Y-86935659D01*
X146200000Y-86935659D01*
X146200001Y-86935659D01*
X146239234Y-86932226D01*
X146435408Y-86915063D01*
X146663663Y-86853903D01*
X146877830Y-86754035D01*
X147071401Y-86618495D01*
X147238495Y-86451401D01*
X147374035Y-86257830D01*
X147473903Y-86043663D01*
X147535063Y-85815408D01*
X147555659Y-85580000D01*
X147539910Y-85399996D01*
X150594435Y-85399996D01*
X150594435Y-85400003D01*
X150614630Y-85579249D01*
X150614631Y-85579254D01*
X150674211Y-85749523D01*
X150754607Y-85877471D01*
X150770184Y-85902262D01*
X150897738Y-86029816D01*
X151050478Y-86125789D01*
X151203258Y-86179249D01*
X151220745Y-86185368D01*
X151220750Y-86185369D01*
X151399996Y-86205565D01*
X151400000Y-86205565D01*
X151400004Y-86205565D01*
X151579249Y-86185369D01*
X151579252Y-86185368D01*
X151579255Y-86185368D01*
X151749522Y-86125789D01*
X151902262Y-86029816D01*
X151980595Y-85951482D01*
X152041914Y-85918000D01*
X152111606Y-85922984D01*
X152134244Y-85934171D01*
X152200478Y-85975789D01*
X152354878Y-86029816D01*
X152370745Y-86035368D01*
X152370750Y-86035369D01*
X152549996Y-86055565D01*
X152550000Y-86055565D01*
X152550004Y-86055565D01*
X152729249Y-86035369D01*
X152729252Y-86035368D01*
X152729255Y-86035368D01*
X152830342Y-85999996D01*
X161094435Y-85999996D01*
X161094435Y-86000003D01*
X161114630Y-86179249D01*
X161114631Y-86179254D01*
X161174211Y-86349523D01*
X161252558Y-86474211D01*
X161270184Y-86502262D01*
X161397738Y-86629816D01*
X161488080Y-86686582D01*
X161510192Y-86700476D01*
X161550478Y-86725789D01*
X161720745Y-86785368D01*
X161720750Y-86785369D01*
X161899996Y-86805565D01*
X161900000Y-86805565D01*
X161900004Y-86805565D01*
X162079249Y-86785369D01*
X162079252Y-86785368D01*
X162079255Y-86785368D01*
X162249522Y-86725789D01*
X162402262Y-86629816D01*
X162529816Y-86502262D01*
X162625789Y-86349522D01*
X162685368Y-86179255D01*
X162691392Y-86125789D01*
X162705565Y-86000003D01*
X162705565Y-85999996D01*
X162685369Y-85820750D01*
X162685367Y-85820742D01*
X162660446Y-85749522D01*
X162625789Y-85650478D01*
X162603265Y-85614632D01*
X162529815Y-85497737D01*
X162402262Y-85370184D01*
X162249523Y-85274211D01*
X162079254Y-85214631D01*
X162079249Y-85214630D01*
X161900004Y-85194435D01*
X161899996Y-85194435D01*
X161720750Y-85214630D01*
X161720745Y-85214631D01*
X161550476Y-85274211D01*
X161397737Y-85370184D01*
X161270184Y-85497737D01*
X161174211Y-85650476D01*
X161114633Y-85820742D01*
X161114630Y-85820750D01*
X161094435Y-85999996D01*
X152830342Y-85999996D01*
X152899522Y-85975789D01*
X153052262Y-85879816D01*
X153179816Y-85752262D01*
X153275789Y-85599522D01*
X153335368Y-85429255D01*
X153338664Y-85400003D01*
X153355565Y-85250003D01*
X153355565Y-85249996D01*
X153335369Y-85070750D01*
X153335368Y-85070745D01*
X153321046Y-85029815D01*
X153275789Y-84900478D01*
X153274067Y-84897738D01*
X153202969Y-84784586D01*
X153179816Y-84747738D01*
X153052262Y-84620184D01*
X153043426Y-84614632D01*
X152899523Y-84524211D01*
X152729254Y-84464631D01*
X152729249Y-84464630D01*
X152550004Y-84444435D01*
X152549996Y-84444435D01*
X152370750Y-84464630D01*
X152370745Y-84464631D01*
X152200476Y-84524211D01*
X152047739Y-84620183D01*
X151969407Y-84698515D01*
X151908083Y-84731999D01*
X151838392Y-84727015D01*
X151815754Y-84715827D01*
X151749523Y-84674211D01*
X151579254Y-84614631D01*
X151579249Y-84614630D01*
X151400004Y-84594435D01*
X151399996Y-84594435D01*
X151220750Y-84614630D01*
X151220745Y-84614631D01*
X151050476Y-84674211D01*
X150897737Y-84770184D01*
X150770184Y-84897737D01*
X150674211Y-85050476D01*
X150614631Y-85220745D01*
X150614630Y-85220750D01*
X150594435Y-85399996D01*
X147539910Y-85399996D01*
X147535063Y-85344592D01*
X147473903Y-85116337D01*
X147374035Y-84902171D01*
X147372849Y-84900476D01*
X147238494Y-84708597D01*
X147071402Y-84541506D01*
X147071396Y-84541501D01*
X146885842Y-84411575D01*
X146842217Y-84356998D01*
X146835023Y-84287500D01*
X146866546Y-84225145D01*
X146885842Y-84208425D01*
X146971285Y-84148597D01*
X147071401Y-84078495D01*
X147238495Y-83911401D01*
X147374035Y-83717830D01*
X147473903Y-83503663D01*
X147535063Y-83275408D01*
X147555659Y-83040000D01*
X147535063Y-82804592D01*
X147507037Y-82699996D01*
X151294435Y-82699996D01*
X151294435Y-82700003D01*
X151314630Y-82879249D01*
X151314631Y-82879254D01*
X151374211Y-83049523D01*
X151442265Y-83157830D01*
X151470184Y-83202262D01*
X151597738Y-83329816D01*
X151750478Y-83425789D01*
X151920745Y-83485368D01*
X151920750Y-83485369D01*
X152099996Y-83505565D01*
X152100000Y-83505565D01*
X152100004Y-83505565D01*
X152279249Y-83485369D01*
X152279252Y-83485368D01*
X152279255Y-83485368D01*
X152449522Y-83425789D01*
X152468280Y-83414002D01*
X152535510Y-83395001D01*
X152602346Y-83415366D01*
X152639244Y-83453022D01*
X152670182Y-83502260D01*
X152670184Y-83502262D01*
X152797738Y-83629816D01*
X152853964Y-83665145D01*
X152937817Y-83717834D01*
X152950478Y-83725789D01*
X153120745Y-83785368D01*
X153120750Y-83785369D01*
X153299996Y-83805565D01*
X153300000Y-83805565D01*
X153300004Y-83805565D01*
X153479249Y-83785369D01*
X153479252Y-83785368D01*
X153479255Y-83785368D01*
X153649522Y-83725789D01*
X153802262Y-83629816D01*
X153929816Y-83502262D01*
X154025789Y-83349522D01*
X154085368Y-83179255D01*
X154099985Y-83049523D01*
X154105565Y-83000003D01*
X154105565Y-82999996D01*
X163994435Y-82999996D01*
X163994435Y-83000003D01*
X164014630Y-83179249D01*
X164014631Y-83179254D01*
X164074211Y-83349523D01*
X164122133Y-83425790D01*
X164170184Y-83502262D01*
X164297738Y-83629816D01*
X164353964Y-83665145D01*
X164437817Y-83717834D01*
X164450478Y-83725789D01*
X164620745Y-83785368D01*
X164620750Y-83785369D01*
X164799996Y-83805565D01*
X164800000Y-83805565D01*
X164800004Y-83805565D01*
X164979249Y-83785369D01*
X164979252Y-83785368D01*
X164979255Y-83785368D01*
X165149522Y-83725789D01*
X165302262Y-83629816D01*
X165429816Y-83502262D01*
X165525789Y-83349522D01*
X165585368Y-83179255D01*
X165599985Y-83049523D01*
X165605565Y-83000003D01*
X165605565Y-82999996D01*
X165585369Y-82820750D01*
X165585368Y-82820745D01*
X165548507Y-82715403D01*
X165525789Y-82650478D01*
X165429816Y-82497738D01*
X165302262Y-82370184D01*
X165270897Y-82350476D01*
X165149523Y-82274211D01*
X164979254Y-82214631D01*
X164979249Y-82214630D01*
X164800004Y-82194435D01*
X164799996Y-82194435D01*
X164620750Y-82214630D01*
X164620745Y-82214631D01*
X164450476Y-82274211D01*
X164297737Y-82370184D01*
X164170184Y-82497737D01*
X164074211Y-82650476D01*
X164014631Y-82820745D01*
X164014630Y-82820750D01*
X163994435Y-82999996D01*
X154105565Y-82999996D01*
X154085369Y-82820750D01*
X154085368Y-82820745D01*
X154048507Y-82715403D01*
X154025789Y-82650478D01*
X153929816Y-82497738D01*
X153802262Y-82370184D01*
X153770897Y-82350476D01*
X153649523Y-82274211D01*
X153479254Y-82214631D01*
X153479249Y-82214630D01*
X153300004Y-82194435D01*
X153299996Y-82194435D01*
X153120750Y-82214630D01*
X153120737Y-82214633D01*
X152950478Y-82274210D01*
X152931715Y-82285999D01*
X152864477Y-82304996D01*
X152797643Y-82284626D01*
X152760753Y-82246974D01*
X152729818Y-82197740D01*
X152602262Y-82070184D01*
X152449523Y-81974211D01*
X152279254Y-81914631D01*
X152279249Y-81914630D01*
X152100004Y-81894435D01*
X152099996Y-81894435D01*
X151920750Y-81914630D01*
X151920745Y-81914631D01*
X151750476Y-81974211D01*
X151597737Y-82070184D01*
X151470184Y-82197737D01*
X151374211Y-82350476D01*
X151314631Y-82520745D01*
X151314630Y-82520750D01*
X151294435Y-82699996D01*
X147507037Y-82699996D01*
X147473903Y-82576337D01*
X147374035Y-82362171D01*
X147367041Y-82352183D01*
X147238496Y-82168600D01*
X147238495Y-82168599D01*
X147116567Y-82046671D01*
X147083084Y-81985351D01*
X147088068Y-81915659D01*
X147129939Y-81859725D01*
X147160915Y-81842810D01*
X147292331Y-81793796D01*
X147407546Y-81707546D01*
X147493796Y-81592331D01*
X147544091Y-81457483D01*
X147550500Y-81397873D01*
X147550499Y-80499996D01*
X153194435Y-80499996D01*
X153194435Y-80500003D01*
X153214630Y-80679249D01*
X153214631Y-80679254D01*
X153274211Y-80849523D01*
X153308816Y-80904596D01*
X153370184Y-81002262D01*
X153497738Y-81129816D01*
X153650478Y-81225789D01*
X153820745Y-81285368D01*
X153820750Y-81285369D01*
X153999996Y-81305565D01*
X154000000Y-81305565D01*
X154000004Y-81305565D01*
X154179249Y-81285369D01*
X154179252Y-81285368D01*
X154179255Y-81285368D01*
X154349522Y-81225789D01*
X154502262Y-81129816D01*
X154629816Y-81002262D01*
X154725789Y-80849522D01*
X154785368Y-80679255D01*
X154786640Y-80667967D01*
X154805565Y-80500003D01*
X154805565Y-80499996D01*
X154785369Y-80320750D01*
X154785368Y-80320745D01*
X154781275Y-80309047D01*
X154725789Y-80150478D01*
X154725188Y-80149522D01*
X154661190Y-80047669D01*
X154629816Y-79997738D01*
X154502262Y-79870184D01*
X154466161Y-79847500D01*
X154349523Y-79774211D01*
X154179254Y-79714631D01*
X154179249Y-79714630D01*
X154000004Y-79694435D01*
X153999996Y-79694435D01*
X153820750Y-79714630D01*
X153820745Y-79714631D01*
X153650476Y-79774211D01*
X153497737Y-79870184D01*
X153370184Y-79997737D01*
X153274211Y-80150476D01*
X153214631Y-80320745D01*
X153214630Y-80320750D01*
X153194435Y-80499996D01*
X147550499Y-80499996D01*
X147550499Y-79602128D01*
X147544091Y-79542517D01*
X147519407Y-79476337D01*
X147493797Y-79407671D01*
X147493793Y-79407664D01*
X147407547Y-79292455D01*
X147407544Y-79292452D01*
X147292335Y-79206206D01*
X147292328Y-79206202D01*
X147157482Y-79155908D01*
X147157483Y-79155908D01*
X147097883Y-79149501D01*
X147097881Y-79149500D01*
X147097873Y-79149500D01*
X147097864Y-79149500D01*
X145302129Y-79149500D01*
X145302123Y-79149501D01*
X145242516Y-79155908D01*
X145107671Y-79206202D01*
X145107664Y-79206206D01*
X144992455Y-79292452D01*
X144992452Y-79292455D01*
X144906206Y-79407664D01*
X144906202Y-79407671D01*
X144855908Y-79542517D01*
X144850446Y-79593325D01*
X144849501Y-79602123D01*
X144849500Y-79602135D01*
X144849500Y-81397870D01*
X144849501Y-81397876D01*
X144855908Y-81457483D01*
X144906202Y-81592328D01*
X144906206Y-81592335D01*
X144992452Y-81707544D01*
X144992455Y-81707547D01*
X145107664Y-81793793D01*
X145107671Y-81793797D01*
X145239081Y-81842810D01*
X145295015Y-81884681D01*
X145319432Y-81950145D01*
X145304580Y-82018418D01*
X145283430Y-82046673D01*
X145161503Y-82168600D01*
X145025965Y-82362169D01*
X145025964Y-82362171D01*
X144926098Y-82576335D01*
X144926094Y-82576344D01*
X144864938Y-82804586D01*
X144864936Y-82804596D01*
X144844341Y-83039999D01*
X143296450Y-83039999D01*
X143497243Y-82297157D01*
X143498529Y-82292733D01*
X143807950Y-81299054D01*
X143809414Y-81294650D01*
X144156237Y-80313421D01*
X144157869Y-80309070D01*
X144541599Y-79341682D01*
X144543388Y-79337411D01*
X144963479Y-78385245D01*
X144965433Y-78381034D01*
X145421291Y-77445439D01*
X145423393Y-77441326D01*
X145445503Y-77399999D01*
X166144341Y-77399999D01*
X166144341Y-77400000D01*
X166164936Y-77635403D01*
X166164938Y-77635413D01*
X166226094Y-77863655D01*
X166226096Y-77863659D01*
X166226097Y-77863663D01*
X166269986Y-77957783D01*
X166325965Y-78077830D01*
X166325967Y-78077834D01*
X166461501Y-78271395D01*
X166461506Y-78271402D01*
X166628597Y-78438493D01*
X166628603Y-78438498D01*
X166814158Y-78568425D01*
X166857783Y-78623002D01*
X166864977Y-78692500D01*
X166833454Y-78754855D01*
X166814158Y-78771575D01*
X166628597Y-78901505D01*
X166461505Y-79068597D01*
X166325965Y-79262169D01*
X166325964Y-79262171D01*
X166226098Y-79476335D01*
X166226094Y-79476344D01*
X166164938Y-79704586D01*
X166164936Y-79704596D01*
X166144341Y-79939999D01*
X166144341Y-79940000D01*
X166164936Y-80175403D01*
X166164938Y-80175413D01*
X166226094Y-80403655D01*
X166226096Y-80403659D01*
X166226097Y-80403663D01*
X166310828Y-80585368D01*
X166325965Y-80617830D01*
X166325967Y-80617834D01*
X166461501Y-80811395D01*
X166461506Y-80811402D01*
X166628597Y-80978493D01*
X166628603Y-80978498D01*
X166814158Y-81108425D01*
X166857783Y-81163002D01*
X166864977Y-81232500D01*
X166833454Y-81294855D01*
X166814158Y-81311575D01*
X166628597Y-81441505D01*
X166461505Y-81608597D01*
X166325965Y-81802169D01*
X166325964Y-81802171D01*
X166226098Y-82016335D01*
X166226094Y-82016344D01*
X166164938Y-82244586D01*
X166164936Y-82244596D01*
X166144341Y-82479999D01*
X166144341Y-82480000D01*
X166164936Y-82715403D01*
X166164938Y-82715413D01*
X166226094Y-82943655D01*
X166226096Y-82943659D01*
X166226097Y-82943663D01*
X166325965Y-83157830D01*
X166325967Y-83157834D01*
X166426766Y-83301788D01*
X166460189Y-83349522D01*
X166461501Y-83351395D01*
X166461506Y-83351402D01*
X166628597Y-83518493D01*
X166628603Y-83518498D01*
X166814158Y-83648425D01*
X166857783Y-83703002D01*
X166864977Y-83772500D01*
X166833454Y-83834855D01*
X166814158Y-83851575D01*
X166628597Y-83981505D01*
X166461505Y-84148597D01*
X166325965Y-84342169D01*
X166325964Y-84342171D01*
X166226098Y-84556335D01*
X166226094Y-84556344D01*
X166164938Y-84784586D01*
X166164936Y-84784596D01*
X166144341Y-85019999D01*
X166144341Y-85020000D01*
X166164936Y-85255403D01*
X166164938Y-85255413D01*
X166226094Y-85483655D01*
X166226096Y-85483659D01*
X166226097Y-85483663D01*
X166303884Y-85650478D01*
X166325965Y-85697830D01*
X166325967Y-85697834D01*
X166434281Y-85852521D01*
X166461505Y-85891401D01*
X166628599Y-86058495D01*
X166809792Y-86185368D01*
X166814594Y-86188730D01*
X166858219Y-86243307D01*
X166865413Y-86312805D01*
X166833890Y-86375160D01*
X166814595Y-86391880D01*
X166628922Y-86521890D01*
X166628920Y-86521891D01*
X166461891Y-86688920D01*
X166461886Y-86688926D01*
X166326400Y-86882420D01*
X166326399Y-86882422D01*
X166226570Y-87096507D01*
X166226567Y-87096513D01*
X166169364Y-87309999D01*
X166169364Y-87310000D01*
X167066988Y-87310000D01*
X167034075Y-87367007D01*
X167000000Y-87494174D01*
X167000000Y-87625826D01*
X167034075Y-87752993D01*
X167066988Y-87810000D01*
X166169364Y-87810000D01*
X166226567Y-88023486D01*
X166226570Y-88023492D01*
X166326399Y-88237578D01*
X166461894Y-88431082D01*
X166628917Y-88598105D01*
X166822421Y-88733600D01*
X167036507Y-88833429D01*
X167036516Y-88833433D01*
X167250000Y-88890634D01*
X167250000Y-87993012D01*
X167307007Y-88025925D01*
X167434174Y-88060000D01*
X167565826Y-88060000D01*
X167692993Y-88025925D01*
X167750000Y-87993012D01*
X167750000Y-88890633D01*
X167963483Y-88833433D01*
X167963492Y-88833429D01*
X168177578Y-88733600D01*
X168371082Y-88598105D01*
X168538105Y-88431082D01*
X168673600Y-88237578D01*
X168773429Y-88023492D01*
X168773432Y-88023486D01*
X168830636Y-87810000D01*
X167933012Y-87810000D01*
X167965925Y-87752993D01*
X168000000Y-87625826D01*
X168000000Y-87494174D01*
X167965925Y-87367007D01*
X167933012Y-87310000D01*
X168830636Y-87310000D01*
X168830635Y-87309999D01*
X168773432Y-87096513D01*
X168773429Y-87096507D01*
X168751741Y-87049996D01*
X172844435Y-87049996D01*
X172844435Y-87050003D01*
X172864630Y-87229249D01*
X172864631Y-87229254D01*
X172924211Y-87399523D01*
X172968611Y-87470184D01*
X173020184Y-87552262D01*
X173147738Y-87679816D01*
X173183461Y-87702262D01*
X173260192Y-87750476D01*
X173300478Y-87775789D01*
X173454878Y-87829816D01*
X173470745Y-87835368D01*
X173470750Y-87835369D01*
X173649996Y-87855565D01*
X173650000Y-87855565D01*
X173650004Y-87855565D01*
X173829249Y-87835369D01*
X173829252Y-87835368D01*
X173829255Y-87835368D01*
X173999522Y-87775789D01*
X174152262Y-87679816D01*
X174279816Y-87552262D01*
X174375789Y-87399522D01*
X174435368Y-87229255D01*
X174435369Y-87229249D01*
X174455565Y-87050003D01*
X174455565Y-87049996D01*
X174435369Y-86870750D01*
X174435368Y-86870745D01*
X174428276Y-86850476D01*
X174375789Y-86700478D01*
X174374067Y-86697738D01*
X174299619Y-86579254D01*
X174279816Y-86547738D01*
X174152262Y-86420184D01*
X174143426Y-86414632D01*
X174120133Y-86399996D01*
X184194435Y-86399996D01*
X184194435Y-86400003D01*
X184214630Y-86579249D01*
X184214631Y-86579254D01*
X184274211Y-86749523D01*
X184350384Y-86870750D01*
X184370184Y-86902262D01*
X184497738Y-87029816D01*
X184545776Y-87060000D01*
X184603885Y-87096513D01*
X184650478Y-87125789D01*
X184820745Y-87185368D01*
X184820750Y-87185369D01*
X184999996Y-87205565D01*
X185000000Y-87205565D01*
X185000004Y-87205565D01*
X185179249Y-87185369D01*
X185179252Y-87185368D01*
X185179255Y-87185368D01*
X185349522Y-87125789D01*
X185502262Y-87029816D01*
X185629816Y-86902262D01*
X185725789Y-86749522D01*
X185785368Y-86579255D01*
X185788919Y-86547738D01*
X185805565Y-86400003D01*
X185805565Y-86399996D01*
X185785369Y-86220750D01*
X185785368Y-86220745D01*
X185728594Y-86058495D01*
X185725789Y-86050478D01*
X185721507Y-86043664D01*
X185678858Y-85975788D01*
X185629816Y-85897738D01*
X185502262Y-85770184D01*
X185349523Y-85674211D01*
X185179254Y-85614631D01*
X185179249Y-85614630D01*
X185000004Y-85594435D01*
X184999996Y-85594435D01*
X184820750Y-85614630D01*
X184820745Y-85614631D01*
X184650476Y-85674211D01*
X184497737Y-85770184D01*
X184370184Y-85897737D01*
X184274211Y-86050476D01*
X184214631Y-86220745D01*
X184214630Y-86220750D01*
X184194435Y-86399996D01*
X174120133Y-86399996D01*
X173999523Y-86324211D01*
X173829254Y-86264631D01*
X173829249Y-86264630D01*
X173650004Y-86244435D01*
X173649996Y-86244435D01*
X173470750Y-86264630D01*
X173470745Y-86264631D01*
X173300476Y-86324211D01*
X173147737Y-86420184D01*
X173020184Y-86547737D01*
X172924211Y-86700476D01*
X172864631Y-86870745D01*
X172864630Y-86870750D01*
X172844435Y-87049996D01*
X168751741Y-87049996D01*
X168673600Y-86882422D01*
X168673599Y-86882420D01*
X168538113Y-86688926D01*
X168538108Y-86688920D01*
X168371078Y-86521890D01*
X168185405Y-86391879D01*
X168141780Y-86337302D01*
X168134588Y-86267804D01*
X168166110Y-86205449D01*
X168185406Y-86188730D01*
X168190206Y-86185369D01*
X168371401Y-86058495D01*
X168538495Y-85891401D01*
X168674035Y-85697830D01*
X168773903Y-85483663D01*
X168835063Y-85255408D01*
X168855659Y-85020000D01*
X168835063Y-84784592D01*
X168773903Y-84556337D01*
X168700999Y-84399996D01*
X170194435Y-84399996D01*
X170194435Y-84400003D01*
X170214630Y-84579249D01*
X170214631Y-84579254D01*
X170274211Y-84749523D01*
X170296249Y-84784596D01*
X170370184Y-84902262D01*
X170497738Y-85029816D01*
X170650478Y-85125789D01*
X170820745Y-85185368D01*
X170820750Y-85185369D01*
X170999996Y-85205565D01*
X171000000Y-85205565D01*
X171000004Y-85205565D01*
X171179249Y-85185369D01*
X171179252Y-85185368D01*
X171179255Y-85185368D01*
X171349522Y-85125789D01*
X171502262Y-85029816D01*
X171629816Y-84902262D01*
X171725789Y-84749522D01*
X171785368Y-84579255D01*
X171785369Y-84579249D01*
X171805565Y-84400003D01*
X171805565Y-84399996D01*
X171785369Y-84220750D01*
X171785368Y-84220745D01*
X171760122Y-84148597D01*
X171725789Y-84050478D01*
X171629816Y-83897738D01*
X171502262Y-83770184D01*
X171349523Y-83674211D01*
X171179254Y-83614631D01*
X171179249Y-83614630D01*
X171000004Y-83594435D01*
X170999996Y-83594435D01*
X170820750Y-83614630D01*
X170820745Y-83614631D01*
X170650476Y-83674211D01*
X170497737Y-83770184D01*
X170370184Y-83897737D01*
X170274211Y-84050476D01*
X170214631Y-84220745D01*
X170214630Y-84220750D01*
X170194435Y-84399996D01*
X168700999Y-84399996D01*
X168674035Y-84342171D01*
X168667264Y-84332500D01*
X168538494Y-84148597D01*
X168371402Y-83981506D01*
X168371396Y-83981501D01*
X168185842Y-83851575D01*
X168142217Y-83796998D01*
X168135023Y-83727500D01*
X168166546Y-83665145D01*
X168185842Y-83648425D01*
X168234106Y-83614630D01*
X168371401Y-83518495D01*
X168538495Y-83351401D01*
X168674035Y-83157830D01*
X168773903Y-82943663D01*
X168835063Y-82715408D01*
X168855659Y-82480000D01*
X168835063Y-82244592D01*
X168779676Y-82037883D01*
X168773905Y-82016344D01*
X168773904Y-82016343D01*
X168773903Y-82016337D01*
X168674035Y-81802171D01*
X168668172Y-81793797D01*
X168538494Y-81608597D01*
X168371402Y-81441506D01*
X168371396Y-81441501D01*
X168185842Y-81311575D01*
X168142217Y-81256998D01*
X168135023Y-81187500D01*
X168166546Y-81125145D01*
X168185842Y-81108425D01*
X168337458Y-81002262D01*
X168371401Y-80978495D01*
X168538495Y-80811401D01*
X168674035Y-80617830D01*
X168773903Y-80403663D01*
X168835063Y-80175408D01*
X168855659Y-79940000D01*
X168843410Y-79799996D01*
X169494435Y-79799996D01*
X169494435Y-79800003D01*
X169514630Y-79979249D01*
X169514631Y-79979254D01*
X169574211Y-80149523D01*
X169643273Y-80259433D01*
X169670184Y-80302262D01*
X169797738Y-80429816D01*
X169950478Y-80525789D01*
X170120745Y-80585368D01*
X170120750Y-80585369D01*
X170299996Y-80605565D01*
X170300000Y-80605565D01*
X170300004Y-80605565D01*
X170479249Y-80585369D01*
X170479252Y-80585368D01*
X170479255Y-80585368D01*
X170649522Y-80525789D01*
X170802262Y-80429816D01*
X170929816Y-80302262D01*
X171025789Y-80149522D01*
X171085368Y-79979255D01*
X171085369Y-79979249D01*
X171105565Y-79800003D01*
X171105565Y-79799996D01*
X171085369Y-79620750D01*
X171085368Y-79620745D01*
X171034837Y-79476335D01*
X171025789Y-79450478D01*
X170929816Y-79297738D01*
X170802262Y-79170184D01*
X170649523Y-79074211D01*
X170479254Y-79014631D01*
X170479249Y-79014630D01*
X170300004Y-78994435D01*
X170299996Y-78994435D01*
X170120750Y-79014630D01*
X170120745Y-79014631D01*
X169950476Y-79074211D01*
X169797737Y-79170184D01*
X169670184Y-79297737D01*
X169574211Y-79450476D01*
X169514631Y-79620745D01*
X169514630Y-79620750D01*
X169494435Y-79799996D01*
X168843410Y-79799996D01*
X168835063Y-79704592D01*
X168773903Y-79476337D01*
X168674035Y-79262171D01*
X168660064Y-79242217D01*
X168538494Y-79068597D01*
X168371402Y-78901506D01*
X168371396Y-78901501D01*
X168185842Y-78771575D01*
X168142217Y-78716998D01*
X168135023Y-78647500D01*
X168159037Y-78599999D01*
X171224341Y-78599999D01*
X171224341Y-78600000D01*
X171244936Y-78835403D01*
X171244938Y-78835413D01*
X171306094Y-79063655D01*
X171306096Y-79063659D01*
X171306097Y-79063663D01*
X171308398Y-79068597D01*
X171405965Y-79277830D01*
X171405967Y-79277834D01*
X171447663Y-79337381D01*
X171541501Y-79471396D01*
X171541506Y-79471402D01*
X171708597Y-79638493D01*
X171708603Y-79638498D01*
X171894158Y-79768425D01*
X171937783Y-79823002D01*
X171944977Y-79892500D01*
X171913454Y-79954855D01*
X171894158Y-79971575D01*
X171708597Y-80101505D01*
X171541505Y-80268597D01*
X171405965Y-80462169D01*
X171405964Y-80462171D01*
X171306098Y-80676335D01*
X171306094Y-80676344D01*
X171244938Y-80904586D01*
X171244936Y-80904596D01*
X171224341Y-81139999D01*
X171224341Y-81140000D01*
X171244936Y-81375403D01*
X171244938Y-81375413D01*
X171306094Y-81603655D01*
X171306096Y-81603659D01*
X171306097Y-81603663D01*
X171308398Y-81608597D01*
X171405965Y-81817830D01*
X171405967Y-81817834D01*
X171484083Y-81929394D01*
X171541505Y-82011401D01*
X171708599Y-82178495D01*
X171802987Y-82244586D01*
X171902165Y-82314032D01*
X171902167Y-82314033D01*
X171902170Y-82314035D01*
X172116337Y-82413903D01*
X172344592Y-82475063D01*
X172521034Y-82490500D01*
X172579999Y-82495659D01*
X172580000Y-82495659D01*
X172580001Y-82495659D01*
X172638966Y-82490500D01*
X172815408Y-82475063D01*
X173043663Y-82413903D01*
X173257830Y-82314035D01*
X173451401Y-82178495D01*
X173618495Y-82011401D01*
X173748425Y-81825842D01*
X173803002Y-81782217D01*
X173872500Y-81775023D01*
X173934855Y-81806546D01*
X173951575Y-81825842D01*
X174081500Y-82011395D01*
X174081505Y-82011401D01*
X174248599Y-82178495D01*
X174342987Y-82244586D01*
X174442165Y-82314032D01*
X174442167Y-82314033D01*
X174442170Y-82314035D01*
X174656337Y-82413903D01*
X174884592Y-82475063D01*
X175061034Y-82490500D01*
X175119999Y-82495659D01*
X175120000Y-82495659D01*
X175120001Y-82495659D01*
X175178966Y-82490500D01*
X175355408Y-82475063D01*
X175583663Y-82413903D01*
X175797830Y-82314035D01*
X175991401Y-82178495D01*
X176158495Y-82011401D01*
X176288425Y-81825842D01*
X176343002Y-81782217D01*
X176412500Y-81775023D01*
X176474855Y-81806546D01*
X176491575Y-81825842D01*
X176621500Y-82011395D01*
X176621505Y-82011401D01*
X176788599Y-82178495D01*
X176882987Y-82244586D01*
X176982165Y-82314032D01*
X176982167Y-82314033D01*
X176982170Y-82314035D01*
X177196337Y-82413903D01*
X177424592Y-82475063D01*
X177601034Y-82490500D01*
X177659999Y-82495659D01*
X177660000Y-82495659D01*
X177660001Y-82495659D01*
X177718966Y-82490500D01*
X177895408Y-82475063D01*
X178123663Y-82413903D01*
X178337830Y-82314035D01*
X178531401Y-82178495D01*
X178698495Y-82011401D01*
X178828425Y-81825842D01*
X178883002Y-81782217D01*
X178952500Y-81775023D01*
X179014855Y-81806546D01*
X179031575Y-81825842D01*
X179161500Y-82011395D01*
X179161505Y-82011401D01*
X179328599Y-82178495D01*
X179422987Y-82244586D01*
X179522165Y-82314032D01*
X179522167Y-82314033D01*
X179522170Y-82314035D01*
X179736337Y-82413903D01*
X179964592Y-82475063D01*
X180141034Y-82490500D01*
X180199999Y-82495659D01*
X180200000Y-82495659D01*
X180200001Y-82495659D01*
X180258966Y-82490500D01*
X180435408Y-82475063D01*
X180663663Y-82413903D01*
X180877830Y-82314035D01*
X181071401Y-82178495D01*
X181238495Y-82011401D01*
X181368425Y-81825842D01*
X181423002Y-81782217D01*
X181492500Y-81775023D01*
X181554855Y-81806546D01*
X181571575Y-81825842D01*
X181701500Y-82011395D01*
X181701505Y-82011401D01*
X181868599Y-82178495D01*
X181962987Y-82244586D01*
X182062165Y-82314032D01*
X182062167Y-82314033D01*
X182062170Y-82314035D01*
X182276337Y-82413903D01*
X182504592Y-82475063D01*
X182681034Y-82490500D01*
X182739999Y-82495659D01*
X182740000Y-82495659D01*
X182740001Y-82495659D01*
X182798966Y-82490500D01*
X182975408Y-82475063D01*
X183203663Y-82413903D01*
X183417830Y-82314035D01*
X183611401Y-82178495D01*
X183778495Y-82011401D01*
X183908425Y-81825842D01*
X183963002Y-81782217D01*
X184032500Y-81775023D01*
X184094855Y-81806546D01*
X184111575Y-81825842D01*
X184241500Y-82011395D01*
X184241505Y-82011401D01*
X184408599Y-82178495D01*
X184502987Y-82244586D01*
X184602165Y-82314032D01*
X184602167Y-82314033D01*
X184602170Y-82314035D01*
X184816337Y-82413903D01*
X185044592Y-82475063D01*
X185221034Y-82490500D01*
X185279999Y-82495659D01*
X185280000Y-82495659D01*
X185280001Y-82495659D01*
X185338966Y-82490500D01*
X185515408Y-82475063D01*
X185743663Y-82413903D01*
X185957830Y-82314035D01*
X186151401Y-82178495D01*
X186318495Y-82011401D01*
X186448425Y-81825842D01*
X186503002Y-81782217D01*
X186572500Y-81775023D01*
X186634855Y-81806546D01*
X186651575Y-81825842D01*
X186781500Y-82011395D01*
X186781505Y-82011401D01*
X186948599Y-82178495D01*
X187042987Y-82244586D01*
X187142165Y-82314032D01*
X187142167Y-82314033D01*
X187142170Y-82314035D01*
X187356337Y-82413903D01*
X187584592Y-82475063D01*
X187761034Y-82490500D01*
X187819999Y-82495659D01*
X187820000Y-82495659D01*
X187820001Y-82495659D01*
X187878966Y-82490500D01*
X188055408Y-82475063D01*
X188283663Y-82413903D01*
X188497830Y-82314035D01*
X188691401Y-82178495D01*
X188858495Y-82011401D01*
X188988425Y-81825842D01*
X189043002Y-81782217D01*
X189112500Y-81775023D01*
X189174855Y-81806546D01*
X189191575Y-81825842D01*
X189321500Y-82011395D01*
X189321505Y-82011401D01*
X189488599Y-82178495D01*
X189582987Y-82244586D01*
X189682165Y-82314032D01*
X189682167Y-82314033D01*
X189682170Y-82314035D01*
X189896337Y-82413903D01*
X190124592Y-82475063D01*
X190301034Y-82490500D01*
X190359999Y-82495659D01*
X190360000Y-82495659D01*
X190360001Y-82495659D01*
X190418966Y-82490500D01*
X190595408Y-82475063D01*
X190823663Y-82413903D01*
X191037830Y-82314035D01*
X191231401Y-82178495D01*
X191353329Y-82056566D01*
X191414648Y-82023084D01*
X191484340Y-82028068D01*
X191540274Y-82069939D01*
X191557189Y-82100917D01*
X191606202Y-82232328D01*
X191606206Y-82232335D01*
X191692452Y-82347544D01*
X191692455Y-82347547D01*
X191807664Y-82433793D01*
X191807671Y-82433797D01*
X191942517Y-82484091D01*
X191942516Y-82484091D01*
X191949444Y-82484835D01*
X192002127Y-82490500D01*
X193797872Y-82490499D01*
X193857483Y-82484091D01*
X193992331Y-82433796D01*
X194107546Y-82347546D01*
X194193796Y-82232331D01*
X194244091Y-82097483D01*
X194250500Y-82037873D01*
X194250499Y-80242128D01*
X194244091Y-80182517D01*
X194242810Y-80179083D01*
X194193797Y-80047671D01*
X194193793Y-80047664D01*
X194107547Y-79932455D01*
X194107544Y-79932452D01*
X193992335Y-79846206D01*
X193992328Y-79846202D01*
X193860917Y-79797189D01*
X193804983Y-79755318D01*
X193780566Y-79689853D01*
X193795418Y-79621580D01*
X193816563Y-79593332D01*
X193938495Y-79471401D01*
X194074035Y-79277830D01*
X194173903Y-79063663D01*
X194235063Y-78835408D01*
X194255659Y-78600000D01*
X194252896Y-78568425D01*
X194241529Y-78438495D01*
X194235063Y-78364592D01*
X194173903Y-78136337D01*
X194074035Y-77922171D01*
X194068425Y-77914158D01*
X193938494Y-77728597D01*
X193771402Y-77561506D01*
X193771395Y-77561501D01*
X193577834Y-77425967D01*
X193577830Y-77425965D01*
X193522146Y-77399999D01*
X193363663Y-77326097D01*
X193363659Y-77326096D01*
X193363655Y-77326094D01*
X193135413Y-77264938D01*
X193135403Y-77264936D01*
X192900001Y-77244341D01*
X192899999Y-77244341D01*
X192664596Y-77264936D01*
X192664586Y-77264938D01*
X192436344Y-77326094D01*
X192436335Y-77326098D01*
X192222171Y-77425964D01*
X192222169Y-77425965D01*
X192028597Y-77561505D01*
X191861505Y-77728597D01*
X191731575Y-77914158D01*
X191676998Y-77957783D01*
X191607500Y-77964977D01*
X191545145Y-77933454D01*
X191528425Y-77914158D01*
X191398494Y-77728597D01*
X191231402Y-77561506D01*
X191231395Y-77561501D01*
X191037834Y-77425967D01*
X191037830Y-77425965D01*
X190982146Y-77399999D01*
X190823663Y-77326097D01*
X190823659Y-77326096D01*
X190823655Y-77326094D01*
X190595413Y-77264938D01*
X190595403Y-77264936D01*
X190360001Y-77244341D01*
X190359999Y-77244341D01*
X190124596Y-77264936D01*
X190124586Y-77264938D01*
X189896344Y-77326094D01*
X189896335Y-77326098D01*
X189682171Y-77425964D01*
X189682169Y-77425965D01*
X189488597Y-77561505D01*
X189321505Y-77728597D01*
X189191575Y-77914158D01*
X189136998Y-77957783D01*
X189067500Y-77964977D01*
X189005145Y-77933454D01*
X188988425Y-77914158D01*
X188858494Y-77728597D01*
X188691402Y-77561506D01*
X188691395Y-77561501D01*
X188497834Y-77425967D01*
X188497830Y-77425965D01*
X188442146Y-77399999D01*
X188283663Y-77326097D01*
X188283659Y-77326096D01*
X188283655Y-77326094D01*
X188055413Y-77264938D01*
X188055403Y-77264936D01*
X187820001Y-77244341D01*
X187819999Y-77244341D01*
X187584596Y-77264936D01*
X187584586Y-77264938D01*
X187356344Y-77326094D01*
X187356335Y-77326098D01*
X187142171Y-77425964D01*
X187142169Y-77425965D01*
X186948597Y-77561505D01*
X186781505Y-77728597D01*
X186651575Y-77914158D01*
X186596998Y-77957783D01*
X186527500Y-77964977D01*
X186465145Y-77933454D01*
X186448425Y-77914158D01*
X186318494Y-77728597D01*
X186151402Y-77561506D01*
X186151395Y-77561501D01*
X185957834Y-77425967D01*
X185957830Y-77425965D01*
X185902146Y-77399999D01*
X185743663Y-77326097D01*
X185743659Y-77326096D01*
X185743655Y-77326094D01*
X185515413Y-77264938D01*
X185515403Y-77264936D01*
X185280001Y-77244341D01*
X185279999Y-77244341D01*
X185044596Y-77264936D01*
X185044586Y-77264938D01*
X184816344Y-77326094D01*
X184816335Y-77326098D01*
X184602171Y-77425964D01*
X184602169Y-77425965D01*
X184408597Y-77561505D01*
X184241505Y-77728597D01*
X184111575Y-77914158D01*
X184056998Y-77957783D01*
X183987500Y-77964977D01*
X183925145Y-77933454D01*
X183908425Y-77914158D01*
X183778494Y-77728597D01*
X183611402Y-77561506D01*
X183611395Y-77561501D01*
X183417834Y-77425967D01*
X183417830Y-77425965D01*
X183362146Y-77399999D01*
X183203663Y-77326097D01*
X183203659Y-77326096D01*
X183203655Y-77326094D01*
X182975413Y-77264938D01*
X182975403Y-77264936D01*
X182740001Y-77244341D01*
X182739999Y-77244341D01*
X182504596Y-77264936D01*
X182504586Y-77264938D01*
X182276344Y-77326094D01*
X182276335Y-77326098D01*
X182062171Y-77425964D01*
X182062169Y-77425965D01*
X181868597Y-77561505D01*
X181701505Y-77728597D01*
X181571575Y-77914158D01*
X181516998Y-77957783D01*
X181447500Y-77964977D01*
X181385145Y-77933454D01*
X181368425Y-77914158D01*
X181238494Y-77728597D01*
X181071402Y-77561506D01*
X181071395Y-77561501D01*
X180877834Y-77425967D01*
X180877830Y-77425965D01*
X180822146Y-77399999D01*
X180663663Y-77326097D01*
X180663659Y-77326096D01*
X180663655Y-77326094D01*
X180435413Y-77264938D01*
X180435403Y-77264936D01*
X180200001Y-77244341D01*
X180199999Y-77244341D01*
X179964596Y-77264936D01*
X179964586Y-77264938D01*
X179736344Y-77326094D01*
X179736335Y-77326098D01*
X179522171Y-77425964D01*
X179522169Y-77425965D01*
X179328597Y-77561505D01*
X179161505Y-77728597D01*
X179031575Y-77914158D01*
X178976998Y-77957783D01*
X178907500Y-77964977D01*
X178845145Y-77933454D01*
X178828425Y-77914158D01*
X178698494Y-77728597D01*
X178531402Y-77561506D01*
X178531395Y-77561501D01*
X178337834Y-77425967D01*
X178337830Y-77425965D01*
X178282146Y-77399999D01*
X178123663Y-77326097D01*
X178123659Y-77326096D01*
X178123655Y-77326094D01*
X177895413Y-77264938D01*
X177895403Y-77264936D01*
X177660001Y-77244341D01*
X177659999Y-77244341D01*
X177424596Y-77264936D01*
X177424586Y-77264938D01*
X177196344Y-77326094D01*
X177196335Y-77326098D01*
X176982171Y-77425964D01*
X176982169Y-77425965D01*
X176788597Y-77561505D01*
X176621505Y-77728597D01*
X176491575Y-77914158D01*
X176436998Y-77957783D01*
X176367500Y-77964977D01*
X176305145Y-77933454D01*
X176288425Y-77914158D01*
X176158494Y-77728597D01*
X175991402Y-77561506D01*
X175991395Y-77561501D01*
X175797834Y-77425967D01*
X175797830Y-77425965D01*
X175742146Y-77399999D01*
X175583663Y-77326097D01*
X175583659Y-77326096D01*
X175583655Y-77326094D01*
X175355413Y-77264938D01*
X175355403Y-77264936D01*
X175120001Y-77244341D01*
X175119999Y-77244341D01*
X174884596Y-77264936D01*
X174884586Y-77264938D01*
X174656344Y-77326094D01*
X174656335Y-77326098D01*
X174442171Y-77425964D01*
X174442169Y-77425965D01*
X174248597Y-77561505D01*
X174081505Y-77728597D01*
X173951575Y-77914158D01*
X173896998Y-77957783D01*
X173827500Y-77964977D01*
X173765145Y-77933454D01*
X173748425Y-77914158D01*
X173618494Y-77728597D01*
X173451402Y-77561506D01*
X173451395Y-77561501D01*
X173257834Y-77425967D01*
X173257830Y-77425965D01*
X173202146Y-77399999D01*
X173043663Y-77326097D01*
X173043659Y-77326096D01*
X173043655Y-77326094D01*
X172815413Y-77264938D01*
X172815403Y-77264936D01*
X172580001Y-77244341D01*
X172579999Y-77244341D01*
X172344596Y-77264936D01*
X172344586Y-77264938D01*
X172116344Y-77326094D01*
X172116335Y-77326098D01*
X171902171Y-77425964D01*
X171902169Y-77425965D01*
X171708597Y-77561505D01*
X171541505Y-77728597D01*
X171405965Y-77922169D01*
X171405964Y-77922171D01*
X171306098Y-78136335D01*
X171306094Y-78136344D01*
X171244938Y-78364586D01*
X171244936Y-78364596D01*
X171224341Y-78599999D01*
X168159037Y-78599999D01*
X168166546Y-78585145D01*
X168185842Y-78568425D01*
X168208026Y-78552891D01*
X168371401Y-78438495D01*
X168538495Y-78271401D01*
X168674035Y-78077830D01*
X168773903Y-77863663D01*
X168835063Y-77635408D01*
X168855659Y-77400000D01*
X168835063Y-77164592D01*
X168773903Y-76936337D01*
X168674035Y-76722171D01*
X168538495Y-76528599D01*
X168416567Y-76406671D01*
X168383084Y-76345351D01*
X168388068Y-76275659D01*
X168429939Y-76219725D01*
X168460915Y-76202810D01*
X168592331Y-76153796D01*
X168707546Y-76067546D01*
X168793796Y-75952331D01*
X168844091Y-75817483D01*
X168850500Y-75757873D01*
X168850499Y-73962128D01*
X168844091Y-73902517D01*
X168793796Y-73767669D01*
X168793795Y-73767668D01*
X168793793Y-73767664D01*
X168744738Y-73702135D01*
X173509500Y-73702135D01*
X173509500Y-75497870D01*
X173509501Y-75497876D01*
X173515908Y-75557483D01*
X173566202Y-75692328D01*
X173566206Y-75692335D01*
X173652452Y-75807544D01*
X173652455Y-75807547D01*
X173767664Y-75893793D01*
X173767671Y-75893797D01*
X173902517Y-75944091D01*
X173902516Y-75944091D01*
X173909444Y-75944835D01*
X173962127Y-75950500D01*
X175757872Y-75950499D01*
X175817483Y-75944091D01*
X175952331Y-75893796D01*
X176067546Y-75807546D01*
X176153796Y-75692331D01*
X176202810Y-75560916D01*
X176244681Y-75504984D01*
X176310145Y-75480566D01*
X176378418Y-75495417D01*
X176406673Y-75516569D01*
X176528599Y-75638495D01*
X176625384Y-75706265D01*
X176722165Y-75774032D01*
X176722167Y-75774033D01*
X176722170Y-75774035D01*
X176936337Y-75873903D01*
X177164592Y-75935063D01*
X177341034Y-75950500D01*
X177399999Y-75955659D01*
X177400000Y-75955659D01*
X177400001Y-75955659D01*
X177458966Y-75950500D01*
X177635408Y-75935063D01*
X177863663Y-75873903D01*
X178077830Y-75774035D01*
X178271401Y-75638495D01*
X178438495Y-75471401D01*
X178568425Y-75285842D01*
X178623002Y-75242217D01*
X178692500Y-75235023D01*
X178754855Y-75266546D01*
X178771575Y-75285842D01*
X178901500Y-75471395D01*
X178901505Y-75471401D01*
X179068599Y-75638495D01*
X179165384Y-75706265D01*
X179262165Y-75774032D01*
X179262167Y-75774033D01*
X179262170Y-75774035D01*
X179476337Y-75873903D01*
X179704592Y-75935063D01*
X179881034Y-75950500D01*
X179939999Y-75955659D01*
X179940000Y-75955659D01*
X179940001Y-75955659D01*
X179998966Y-75950500D01*
X180175408Y-75935063D01*
X180403663Y-75873903D01*
X180617830Y-75774035D01*
X180811401Y-75638495D01*
X180978495Y-75471401D01*
X181114035Y-75277830D01*
X181213903Y-75063663D01*
X181275063Y-74835408D01*
X181295659Y-74600000D01*
X181275063Y-74364592D01*
X181213903Y-74136337D01*
X181114035Y-73922171D01*
X181108425Y-73914158D01*
X180978494Y-73728597D01*
X180952032Y-73702135D01*
X183124500Y-73702135D01*
X183124500Y-75497870D01*
X183124501Y-75497876D01*
X183130908Y-75557483D01*
X183181202Y-75692328D01*
X183181206Y-75692335D01*
X183267452Y-75807544D01*
X183267455Y-75807547D01*
X183382664Y-75893793D01*
X183382671Y-75893797D01*
X183517517Y-75944091D01*
X183517516Y-75944091D01*
X183524444Y-75944835D01*
X183577127Y-75950500D01*
X185372872Y-75950499D01*
X185432483Y-75944091D01*
X185567331Y-75893796D01*
X185682546Y-75807546D01*
X185768796Y-75692331D01*
X185817810Y-75560916D01*
X185859681Y-75504984D01*
X185925145Y-75480566D01*
X185993418Y-75495417D01*
X186021673Y-75516569D01*
X186143599Y-75638495D01*
X186240384Y-75706265D01*
X186337165Y-75774032D01*
X186337167Y-75774033D01*
X186337170Y-75774035D01*
X186551337Y-75873903D01*
X186779592Y-75935063D01*
X186956034Y-75950500D01*
X187014999Y-75955659D01*
X187015000Y-75955659D01*
X187015001Y-75955659D01*
X187073966Y-75950500D01*
X187250408Y-75935063D01*
X187478663Y-75873903D01*
X187692830Y-75774035D01*
X187886401Y-75638495D01*
X188053495Y-75471401D01*
X188183425Y-75285842D01*
X188238002Y-75242217D01*
X188307500Y-75235023D01*
X188369855Y-75266546D01*
X188386575Y-75285842D01*
X188516500Y-75471395D01*
X188516505Y-75471401D01*
X188683599Y-75638495D01*
X188780384Y-75706265D01*
X188877165Y-75774032D01*
X188877167Y-75774033D01*
X188877170Y-75774035D01*
X189091337Y-75873903D01*
X189319592Y-75935063D01*
X189496034Y-75950500D01*
X189554999Y-75955659D01*
X189555000Y-75955659D01*
X189555001Y-75955659D01*
X189613966Y-75950500D01*
X189790408Y-75935063D01*
X190018663Y-75873903D01*
X190232830Y-75774035D01*
X190426401Y-75638495D01*
X190593495Y-75471401D01*
X190729035Y-75277830D01*
X190828903Y-75063663D01*
X190890063Y-74835408D01*
X190910659Y-74600000D01*
X190890063Y-74364592D01*
X190828903Y-74136337D01*
X190729035Y-73922171D01*
X190723425Y-73914158D01*
X190593494Y-73728597D01*
X190426402Y-73561506D01*
X190426395Y-73561501D01*
X190232834Y-73425967D01*
X190232830Y-73425965D01*
X190232828Y-73425964D01*
X190018663Y-73326097D01*
X190018659Y-73326096D01*
X190018655Y-73326094D01*
X189790413Y-73264938D01*
X189790403Y-73264936D01*
X189555001Y-73244341D01*
X189554999Y-73244341D01*
X189319596Y-73264936D01*
X189319586Y-73264938D01*
X189091344Y-73326094D01*
X189091335Y-73326098D01*
X188877171Y-73425964D01*
X188877169Y-73425965D01*
X188683597Y-73561505D01*
X188516505Y-73728597D01*
X188386575Y-73914158D01*
X188331998Y-73957783D01*
X188262500Y-73964977D01*
X188200145Y-73933454D01*
X188183425Y-73914158D01*
X188053494Y-73728597D01*
X187886402Y-73561506D01*
X187886395Y-73561501D01*
X187692834Y-73425967D01*
X187692830Y-73425965D01*
X187692828Y-73425964D01*
X187478663Y-73326097D01*
X187478659Y-73326096D01*
X187478655Y-73326094D01*
X187250413Y-73264938D01*
X187250403Y-73264936D01*
X187015001Y-73244341D01*
X187014999Y-73244341D01*
X186779596Y-73264936D01*
X186779586Y-73264938D01*
X186551344Y-73326094D01*
X186551335Y-73326098D01*
X186337171Y-73425964D01*
X186337169Y-73425965D01*
X186143600Y-73561503D01*
X186021673Y-73683430D01*
X185960350Y-73716914D01*
X185890658Y-73711930D01*
X185834725Y-73670058D01*
X185817810Y-73639081D01*
X185768797Y-73507671D01*
X185768793Y-73507664D01*
X185682547Y-73392455D01*
X185682544Y-73392452D01*
X185567335Y-73306206D01*
X185567328Y-73306202D01*
X185432482Y-73255908D01*
X185432483Y-73255908D01*
X185372883Y-73249501D01*
X185372881Y-73249500D01*
X185372873Y-73249500D01*
X185372864Y-73249500D01*
X183577129Y-73249500D01*
X183577123Y-73249501D01*
X183517516Y-73255908D01*
X183382671Y-73306202D01*
X183382664Y-73306206D01*
X183267455Y-73392452D01*
X183267452Y-73392455D01*
X183181206Y-73507664D01*
X183181202Y-73507671D01*
X183130908Y-73642517D01*
X183124501Y-73702116D01*
X183124500Y-73702135D01*
X180952032Y-73702135D01*
X180811402Y-73561506D01*
X180811395Y-73561501D01*
X180617834Y-73425967D01*
X180617830Y-73425965D01*
X180617828Y-73425964D01*
X180403663Y-73326097D01*
X180403659Y-73326096D01*
X180403655Y-73326094D01*
X180175413Y-73264938D01*
X180175403Y-73264936D01*
X179940001Y-73244341D01*
X179939999Y-73244341D01*
X179704596Y-73264936D01*
X179704586Y-73264938D01*
X179476344Y-73326094D01*
X179476335Y-73326098D01*
X179262171Y-73425964D01*
X179262169Y-73425965D01*
X179068597Y-73561505D01*
X178901505Y-73728597D01*
X178771575Y-73914158D01*
X178716998Y-73957783D01*
X178647500Y-73964977D01*
X178585145Y-73933454D01*
X178568425Y-73914158D01*
X178438494Y-73728597D01*
X178271402Y-73561506D01*
X178271395Y-73561501D01*
X178077834Y-73425967D01*
X178077830Y-73425965D01*
X178077828Y-73425964D01*
X177863663Y-73326097D01*
X177863659Y-73326096D01*
X177863655Y-73326094D01*
X177635413Y-73264938D01*
X177635403Y-73264936D01*
X177400001Y-73244341D01*
X177399999Y-73244341D01*
X177164596Y-73264936D01*
X177164586Y-73264938D01*
X176936344Y-73326094D01*
X176936335Y-73326098D01*
X176722171Y-73425964D01*
X176722169Y-73425965D01*
X176528600Y-73561503D01*
X176406673Y-73683430D01*
X176345350Y-73716914D01*
X176275658Y-73711930D01*
X176219725Y-73670058D01*
X176202810Y-73639081D01*
X176153797Y-73507671D01*
X176153793Y-73507664D01*
X176067547Y-73392455D01*
X176067544Y-73392452D01*
X175952335Y-73306206D01*
X175952328Y-73306202D01*
X175817482Y-73255908D01*
X175817483Y-73255908D01*
X175757883Y-73249501D01*
X175757881Y-73249500D01*
X175757873Y-73249500D01*
X175757864Y-73249500D01*
X173962129Y-73249500D01*
X173962123Y-73249501D01*
X173902516Y-73255908D01*
X173767671Y-73306202D01*
X173767664Y-73306206D01*
X173652455Y-73392452D01*
X173652452Y-73392455D01*
X173566206Y-73507664D01*
X173566202Y-73507671D01*
X173515908Y-73642517D01*
X173509501Y-73702116D01*
X173509500Y-73702135D01*
X168744738Y-73702135D01*
X168707547Y-73652455D01*
X168707544Y-73652452D01*
X168592335Y-73566206D01*
X168592328Y-73566202D01*
X168457482Y-73515908D01*
X168457483Y-73515908D01*
X168397883Y-73509501D01*
X168397881Y-73509500D01*
X168397873Y-73509500D01*
X168397864Y-73509500D01*
X166602129Y-73509500D01*
X166602123Y-73509501D01*
X166542516Y-73515908D01*
X166407671Y-73566202D01*
X166407664Y-73566206D01*
X166292455Y-73652452D01*
X166292452Y-73652455D01*
X166206206Y-73767664D01*
X166206202Y-73767671D01*
X166155908Y-73902517D01*
X166150230Y-73955337D01*
X166149501Y-73962123D01*
X166149500Y-73962135D01*
X166149500Y-75757870D01*
X166149501Y-75757876D01*
X166155908Y-75817483D01*
X166206202Y-75952328D01*
X166206206Y-75952335D01*
X166292452Y-76067544D01*
X166292455Y-76067547D01*
X166407664Y-76153793D01*
X166407671Y-76153797D01*
X166539081Y-76202810D01*
X166595015Y-76244681D01*
X166619432Y-76310145D01*
X166604580Y-76378418D01*
X166583430Y-76406673D01*
X166461503Y-76528600D01*
X166325965Y-76722169D01*
X166325964Y-76722171D01*
X166226098Y-76936335D01*
X166226094Y-76936344D01*
X166164938Y-77164586D01*
X166164936Y-77164596D01*
X166144341Y-77399999D01*
X145445503Y-77399999D01*
X145914343Y-76523685D01*
X145916600Y-76519651D01*
X146441952Y-75621255D01*
X146444371Y-75617292D01*
X147003381Y-74739416D01*
X147005942Y-74735558D01*
X147597774Y-73879511D01*
X147600462Y-73875776D01*
X148224309Y-73042725D01*
X148227148Y-73039079D01*
X148882115Y-72230226D01*
X148885052Y-72226736D01*
X149570160Y-71443288D01*
X149573289Y-71439845D01*
X150271444Y-70699996D01*
X154294435Y-70699996D01*
X154294435Y-70700003D01*
X154314630Y-70879249D01*
X154314631Y-70879254D01*
X154374211Y-71049523D01*
X154416198Y-71116344D01*
X154470184Y-71202262D01*
X154597738Y-71329816D01*
X154750478Y-71425789D01*
X154795492Y-71441540D01*
X154920745Y-71485368D01*
X154920750Y-71485369D01*
X155099996Y-71505565D01*
X155100000Y-71505565D01*
X155100004Y-71505565D01*
X155279249Y-71485369D01*
X155279252Y-71485368D01*
X155279255Y-71485368D01*
X155449522Y-71425789D01*
X155602262Y-71329816D01*
X155729816Y-71202262D01*
X155825789Y-71049522D01*
X155885368Y-70879255D01*
X155892090Y-70819596D01*
X155905565Y-70700003D01*
X155905565Y-70699996D01*
X155885369Y-70520750D01*
X155885368Y-70520745D01*
X155835129Y-70377171D01*
X155825789Y-70350478D01*
X155729816Y-70197738D01*
X155602262Y-70070184D01*
X155449523Y-69974211D01*
X155279254Y-69914631D01*
X155279249Y-69914630D01*
X155100004Y-69894435D01*
X155099996Y-69894435D01*
X154920750Y-69914630D01*
X154920745Y-69914631D01*
X154750476Y-69974211D01*
X154597737Y-70070184D01*
X154470184Y-70197737D01*
X154374211Y-70350476D01*
X154314631Y-70520745D01*
X154314630Y-70520750D01*
X154294435Y-70699996D01*
X150271444Y-70699996D01*
X150287534Y-70682945D01*
X150290810Y-70679605D01*
X150911167Y-70070184D01*
X151033202Y-69950300D01*
X151036560Y-69947122D01*
X151806071Y-69246426D01*
X151809574Y-69243355D01*
X152050640Y-69039999D01*
X158644341Y-69039999D01*
X158644341Y-69040000D01*
X158664936Y-69275403D01*
X158664938Y-69275413D01*
X158726094Y-69503655D01*
X158726096Y-69503659D01*
X158726097Y-69503663D01*
X158749336Y-69553498D01*
X158825965Y-69717830D01*
X158825967Y-69717834D01*
X158905906Y-69831998D01*
X158940193Y-69880965D01*
X158961501Y-69911395D01*
X158961506Y-69911402D01*
X159128597Y-70078493D01*
X159128603Y-70078498D01*
X159314158Y-70208425D01*
X159357783Y-70263002D01*
X159364977Y-70332500D01*
X159333454Y-70394855D01*
X159314158Y-70411575D01*
X159128597Y-70541505D01*
X158961505Y-70708597D01*
X158825965Y-70902169D01*
X158825964Y-70902171D01*
X158726098Y-71116335D01*
X158726094Y-71116344D01*
X158664938Y-71344586D01*
X158664936Y-71344596D01*
X158644341Y-71579999D01*
X158644341Y-71580000D01*
X158664936Y-71815403D01*
X158664938Y-71815413D01*
X158726094Y-72043655D01*
X158726096Y-72043659D01*
X158726097Y-72043663D01*
X158811442Y-72226685D01*
X158825965Y-72257830D01*
X158825967Y-72257834D01*
X158875732Y-72328905D01*
X158961505Y-72451401D01*
X159128599Y-72618495D01*
X159172910Y-72649522D01*
X159322165Y-72754032D01*
X159322167Y-72754033D01*
X159322170Y-72754035D01*
X159536337Y-72853903D01*
X159764592Y-72915063D01*
X159933216Y-72929816D01*
X159999999Y-72935659D01*
X160000000Y-72935659D01*
X160000001Y-72935659D01*
X160066784Y-72929816D01*
X160235408Y-72915063D01*
X160463663Y-72853903D01*
X160677830Y-72754035D01*
X160871401Y-72618495D01*
X161038495Y-72451401D01*
X161144510Y-72299996D01*
X162694435Y-72299996D01*
X162694435Y-72300003D01*
X162714630Y-72479249D01*
X162714631Y-72479254D01*
X162774211Y-72649523D01*
X162839879Y-72754032D01*
X162870184Y-72802262D01*
X162997738Y-72929816D01*
X163150478Y-73025789D01*
X163320745Y-73085368D01*
X163320750Y-73085369D01*
X163499996Y-73105565D01*
X163500000Y-73105565D01*
X163500004Y-73105565D01*
X163679249Y-73085369D01*
X163679252Y-73085368D01*
X163679255Y-73085368D01*
X163849522Y-73025789D01*
X164002262Y-72929816D01*
X164129816Y-72802262D01*
X164225789Y-72649522D01*
X164285368Y-72479255D01*
X164285369Y-72479249D01*
X164305565Y-72300003D01*
X164305565Y-72299996D01*
X164285369Y-72120750D01*
X164285368Y-72120745D01*
X164225788Y-71950476D01*
X164140919Y-71815408D01*
X164129816Y-71797738D01*
X164002262Y-71670184D01*
X163849523Y-71574211D01*
X163679254Y-71514631D01*
X163679249Y-71514630D01*
X163500004Y-71494435D01*
X163499996Y-71494435D01*
X163320750Y-71514630D01*
X163320745Y-71514631D01*
X163150476Y-71574211D01*
X162997737Y-71670184D01*
X162870184Y-71797737D01*
X162774211Y-71950476D01*
X162714631Y-72120745D01*
X162714630Y-72120750D01*
X162694435Y-72299996D01*
X161144510Y-72299996D01*
X161174035Y-72257830D01*
X161273903Y-72043663D01*
X161335063Y-71815408D01*
X161355659Y-71580000D01*
X161335063Y-71344592D01*
X161273903Y-71116337D01*
X161174035Y-70902171D01*
X161157990Y-70879255D01*
X161038494Y-70708597D01*
X160871402Y-70541506D01*
X160871396Y-70541501D01*
X160685842Y-70411575D01*
X160642217Y-70356998D01*
X160635023Y-70287500D01*
X160666546Y-70225145D01*
X160685842Y-70208425D01*
X160721300Y-70183597D01*
X160871401Y-70078495D01*
X161038495Y-69911401D01*
X161174035Y-69717830D01*
X161273903Y-69503663D01*
X161335063Y-69275408D01*
X161355659Y-69040000D01*
X161335063Y-68804592D01*
X161273903Y-68576337D01*
X161245300Y-68514999D01*
X165244341Y-68514999D01*
X165244341Y-68515000D01*
X165264936Y-68750403D01*
X165264938Y-68750413D01*
X165326094Y-68978655D01*
X165326096Y-68978659D01*
X165326097Y-68978663D01*
X165354699Y-69039999D01*
X165425965Y-69192830D01*
X165425967Y-69192834D01*
X165561501Y-69386395D01*
X165561506Y-69386402D01*
X165728597Y-69553493D01*
X165728603Y-69553498D01*
X165914158Y-69683425D01*
X165957783Y-69738002D01*
X165964977Y-69807500D01*
X165933454Y-69869855D01*
X165914158Y-69886575D01*
X165728597Y-70016505D01*
X165561505Y-70183597D01*
X165425965Y-70377169D01*
X165425964Y-70377171D01*
X165326098Y-70591335D01*
X165326094Y-70591344D01*
X165264938Y-70819586D01*
X165264936Y-70819596D01*
X165244341Y-71054999D01*
X165244341Y-71055000D01*
X165264936Y-71290403D01*
X165264938Y-71290413D01*
X165326094Y-71518655D01*
X165326096Y-71518659D01*
X165326097Y-71518663D01*
X165352000Y-71574211D01*
X165425965Y-71732830D01*
X165425967Y-71732834D01*
X165483790Y-71815413D01*
X165561505Y-71926401D01*
X165728599Y-72093495D01*
X165825384Y-72161265D01*
X165922165Y-72229032D01*
X165922167Y-72229033D01*
X165922170Y-72229035D01*
X166136337Y-72328903D01*
X166364592Y-72390063D01*
X166552918Y-72406539D01*
X166599999Y-72410659D01*
X166600000Y-72410659D01*
X166600001Y-72410659D01*
X166639234Y-72407226D01*
X166835408Y-72390063D01*
X167063663Y-72328903D01*
X167277830Y-72229035D01*
X167471401Y-72093495D01*
X167638495Y-71926401D01*
X167774035Y-71732830D01*
X167873903Y-71518663D01*
X167935063Y-71290408D01*
X167955659Y-71055000D01*
X167935063Y-70819592D01*
X167873903Y-70591337D01*
X167774035Y-70377171D01*
X167755345Y-70350478D01*
X167638494Y-70183597D01*
X167471402Y-70016506D01*
X167471396Y-70016501D01*
X167285842Y-69886575D01*
X167242217Y-69831998D01*
X167235023Y-69762500D01*
X167266546Y-69700145D01*
X167285842Y-69683425D01*
X167308026Y-69667891D01*
X167471401Y-69553495D01*
X167638495Y-69386401D01*
X167774035Y-69192830D01*
X167873903Y-68978663D01*
X167935063Y-68750408D01*
X167955659Y-68515000D01*
X167935063Y-68279592D01*
X167873903Y-68051337D01*
X167774035Y-67837171D01*
X167743354Y-67793354D01*
X167638496Y-67643600D01*
X167586982Y-67592086D01*
X167516179Y-67521283D01*
X167482696Y-67459963D01*
X167487680Y-67390271D01*
X167529551Y-67334337D01*
X167560529Y-67317422D01*
X167692086Y-67268354D01*
X167692093Y-67268350D01*
X167807187Y-67182190D01*
X167807190Y-67182187D01*
X167893350Y-67067093D01*
X167893354Y-67067086D01*
X167943596Y-66932379D01*
X167943598Y-66932372D01*
X167949999Y-66872844D01*
X167950000Y-66872827D01*
X167950000Y-66225000D01*
X167033012Y-66225000D01*
X167065925Y-66167993D01*
X167100000Y-66040826D01*
X167100000Y-65909174D01*
X167065925Y-65782007D01*
X167033012Y-65725000D01*
X167950000Y-65725000D01*
X167950000Y-65077172D01*
X167949999Y-65077155D01*
X167943598Y-65017627D01*
X167943596Y-65017620D01*
X167893354Y-64882913D01*
X167893350Y-64882906D01*
X167807190Y-64767812D01*
X167807187Y-64767809D01*
X167692093Y-64681649D01*
X167692086Y-64681645D01*
X167557379Y-64631403D01*
X167557372Y-64631401D01*
X167497844Y-64625000D01*
X166850000Y-64625000D01*
X166850000Y-65541988D01*
X166792993Y-65509075D01*
X166665826Y-65475000D01*
X166534174Y-65475000D01*
X166407007Y-65509075D01*
X166350000Y-65541988D01*
X166350000Y-64625000D01*
X165702155Y-64625000D01*
X165642627Y-64631401D01*
X165642620Y-64631403D01*
X165507913Y-64681645D01*
X165507906Y-64681649D01*
X165392812Y-64767809D01*
X165392809Y-64767812D01*
X165306649Y-64882906D01*
X165306645Y-64882913D01*
X165256403Y-65017620D01*
X165256401Y-65017627D01*
X165250000Y-65077155D01*
X165250000Y-65725000D01*
X166166988Y-65725000D01*
X166134075Y-65782007D01*
X166100000Y-65909174D01*
X166100000Y-66040826D01*
X166134075Y-66167993D01*
X166166988Y-66225000D01*
X165250000Y-66225000D01*
X165250000Y-66872844D01*
X165256401Y-66932372D01*
X165256403Y-66932379D01*
X165306645Y-67067086D01*
X165306649Y-67067093D01*
X165392809Y-67182187D01*
X165392812Y-67182190D01*
X165507906Y-67268350D01*
X165507913Y-67268354D01*
X165639470Y-67317421D01*
X165695403Y-67359292D01*
X165719821Y-67424756D01*
X165704970Y-67493029D01*
X165683819Y-67521284D01*
X165561503Y-67643600D01*
X165425965Y-67837169D01*
X165425964Y-67837171D01*
X165326098Y-68051335D01*
X165326094Y-68051344D01*
X165264938Y-68279586D01*
X165264936Y-68279596D01*
X165244341Y-68514999D01*
X161245300Y-68514999D01*
X161174035Y-68362171D01*
X161038495Y-68168599D01*
X160916179Y-68046283D01*
X160882696Y-67984963D01*
X160887680Y-67915271D01*
X160929551Y-67859337D01*
X160960529Y-67842422D01*
X161092086Y-67793354D01*
X161092093Y-67793350D01*
X161207187Y-67707190D01*
X161207190Y-67707187D01*
X161293350Y-67592093D01*
X161293354Y-67592086D01*
X161343596Y-67457379D01*
X161343598Y-67457372D01*
X161349999Y-67397844D01*
X161350000Y-67397827D01*
X161350000Y-66750000D01*
X160433012Y-66750000D01*
X160465925Y-66692993D01*
X160500000Y-66565826D01*
X160500000Y-66434174D01*
X160465925Y-66307007D01*
X160433012Y-66250000D01*
X161350000Y-66250000D01*
X161350000Y-65602172D01*
X161349999Y-65602155D01*
X161343598Y-65542627D01*
X161343596Y-65542620D01*
X161293354Y-65407913D01*
X161293350Y-65407906D01*
X161207190Y-65292812D01*
X161207187Y-65292809D01*
X161092093Y-65206649D01*
X161092086Y-65206645D01*
X160957379Y-65156403D01*
X160957372Y-65156401D01*
X160897844Y-65150000D01*
X160250000Y-65150000D01*
X160250000Y-66066988D01*
X160192993Y-66034075D01*
X160065826Y-66000000D01*
X159934174Y-66000000D01*
X159807007Y-66034075D01*
X159750000Y-66066988D01*
X159750000Y-65150000D01*
X159102155Y-65150000D01*
X159042627Y-65156401D01*
X159042620Y-65156403D01*
X158907913Y-65206645D01*
X158907906Y-65206649D01*
X158792812Y-65292809D01*
X158792809Y-65292812D01*
X158706649Y-65407906D01*
X158706645Y-65407913D01*
X158656403Y-65542620D01*
X158656401Y-65542627D01*
X158650000Y-65602155D01*
X158650000Y-66250000D01*
X159566988Y-66250000D01*
X159534075Y-66307007D01*
X159500000Y-66434174D01*
X159500000Y-66565826D01*
X159534075Y-66692993D01*
X159566988Y-66750000D01*
X158650000Y-66750000D01*
X158650000Y-67397844D01*
X158656401Y-67457372D01*
X158656403Y-67457379D01*
X158706645Y-67592086D01*
X158706649Y-67592093D01*
X158792809Y-67707187D01*
X158792812Y-67707190D01*
X158907906Y-67793350D01*
X158907913Y-67793354D01*
X159039470Y-67842421D01*
X159095403Y-67884292D01*
X159119821Y-67949756D01*
X159104970Y-68018029D01*
X159083819Y-68046284D01*
X158961503Y-68168600D01*
X158825965Y-68362169D01*
X158825964Y-68362171D01*
X158726098Y-68576335D01*
X158726094Y-68576344D01*
X158664938Y-68804586D01*
X158664936Y-68804596D01*
X158644341Y-69039999D01*
X152050640Y-69039999D01*
X152605074Y-68572296D01*
X152608667Y-68569381D01*
X153428986Y-67928946D01*
X153432667Y-67926182D01*
X154276679Y-67317252D01*
X154280502Y-67314602D01*
X155146932Y-66738094D01*
X155150831Y-66735604D01*
X156038485Y-66192312D01*
X156042532Y-66189940D01*
X156950125Y-65680652D01*
X156954178Y-65678478D01*
X157880400Y-65203928D01*
X157884597Y-65201877D01*
X158828115Y-64762747D01*
X158832328Y-64760883D01*
X159791868Y-64357770D01*
X159796122Y-64356076D01*
X160770230Y-63989593D01*
X160774581Y-63988050D01*
X161761819Y-63658734D01*
X161766253Y-63657348D01*
X162765247Y-63365656D01*
X162769752Y-63364433D01*
X163779060Y-63110787D01*
X163783613Y-63109734D01*
X164801817Y-62894487D01*
X164806378Y-62893613D01*
X165832025Y-62717077D01*
X165836569Y-62716383D01*
X166868201Y-62578808D01*
X166872793Y-62578285D01*
X167908827Y-62479883D01*
X167913460Y-62479530D01*
X168952511Y-62420430D01*
X168957142Y-62420255D01*
X169997677Y-62400546D01*
X170002323Y-62400546D01*
X171042855Y-62420255D01*
G37*
%TD.AperFunction*%
%TD*%
M02*
