%TF.GenerationSoftware,KiCad,Pcbnew,8.0.3*%
%TF.CreationDate,2025-07-10T12:51:07-07:00*%
%TF.ProjectId,salp_board_round,73616c70-5f62-46f6-9172-645f726f756e,rev?*%
%TF.SameCoordinates,Original*%
%TF.FileFunction,Legend,Bot*%
%TF.FilePolarity,Positive*%
%FSLAX46Y46*%
G04 Gerber Fmt 4.6, Leading zero omitted, Abs format (unit mm)*
G04 Created by KiCad (PCBNEW 8.0.3) date 2025-07-10 12:51:07*
%MOMM*%
%LPD*%
G01*
G04 APERTURE LIST*
%ADD10C,0.153000*%
%ADD11C,0.150000*%
%ADD12C,0.120000*%
G04 APERTURE END LIST*
D10*
X192227914Y-86992212D02*
X192099343Y-87039831D01*
X192099343Y-87039831D02*
X191885057Y-87039831D01*
X191885057Y-87039831D02*
X191799343Y-86992212D01*
X191799343Y-86992212D02*
X191756485Y-86944592D01*
X191756485Y-86944592D02*
X191713628Y-86849354D01*
X191713628Y-86849354D02*
X191713628Y-86754116D01*
X191713628Y-86754116D02*
X191756485Y-86658878D01*
X191756485Y-86658878D02*
X191799343Y-86611259D01*
X191799343Y-86611259D02*
X191885057Y-86563640D01*
X191885057Y-86563640D02*
X192056485Y-86516021D01*
X192056485Y-86516021D02*
X192142200Y-86468402D01*
X192142200Y-86468402D02*
X192185057Y-86420783D01*
X192185057Y-86420783D02*
X192227914Y-86325545D01*
X192227914Y-86325545D02*
X192227914Y-86230307D01*
X192227914Y-86230307D02*
X192185057Y-86135069D01*
X192185057Y-86135069D02*
X192142200Y-86087450D01*
X192142200Y-86087450D02*
X192056485Y-86039831D01*
X192056485Y-86039831D02*
X191842200Y-86039831D01*
X191842200Y-86039831D02*
X191713628Y-86087450D01*
X191370771Y-86754116D02*
X190942200Y-86754116D01*
X191456485Y-87039831D02*
X191156485Y-86039831D01*
X191156485Y-86039831D02*
X190856485Y-87039831D01*
X190127913Y-87039831D02*
X190556485Y-87039831D01*
X190556485Y-87039831D02*
X190556485Y-86039831D01*
X189827914Y-87039831D02*
X189827914Y-86039831D01*
X189827914Y-86039831D02*
X189485057Y-86039831D01*
X189485057Y-86039831D02*
X189399342Y-86087450D01*
X189399342Y-86087450D02*
X189356485Y-86135069D01*
X189356485Y-86135069D02*
X189313628Y-86230307D01*
X189313628Y-86230307D02*
X189313628Y-86373164D01*
X189313628Y-86373164D02*
X189356485Y-86468402D01*
X189356485Y-86468402D02*
X189399342Y-86516021D01*
X189399342Y-86516021D02*
X189485057Y-86563640D01*
X189485057Y-86563640D02*
X189827914Y-86563640D01*
X189142200Y-87135069D02*
X188456485Y-87135069D01*
X188242200Y-87039831D02*
X188242200Y-86039831D01*
X188242200Y-86039831D02*
X188027914Y-86039831D01*
X188027914Y-86039831D02*
X187899343Y-86087450D01*
X187899343Y-86087450D02*
X187813628Y-86182688D01*
X187813628Y-86182688D02*
X187770771Y-86277926D01*
X187770771Y-86277926D02*
X187727914Y-86468402D01*
X187727914Y-86468402D02*
X187727914Y-86611259D01*
X187727914Y-86611259D02*
X187770771Y-86801735D01*
X187770771Y-86801735D02*
X187813628Y-86896973D01*
X187813628Y-86896973D02*
X187899343Y-86992212D01*
X187899343Y-86992212D02*
X188027914Y-87039831D01*
X188027914Y-87039831D02*
X188242200Y-87039831D01*
X186999343Y-86992212D02*
X187085057Y-87039831D01*
X187085057Y-87039831D02*
X187256486Y-87039831D01*
X187256486Y-87039831D02*
X187342200Y-86992212D01*
X187342200Y-86992212D02*
X187385057Y-86896973D01*
X187385057Y-86896973D02*
X187385057Y-86516021D01*
X187385057Y-86516021D02*
X187342200Y-86420783D01*
X187342200Y-86420783D02*
X187256486Y-86373164D01*
X187256486Y-86373164D02*
X187085057Y-86373164D01*
X187085057Y-86373164D02*
X186999343Y-86420783D01*
X186999343Y-86420783D02*
X186956486Y-86516021D01*
X186956486Y-86516021D02*
X186956486Y-86611259D01*
X186956486Y-86611259D02*
X187385057Y-86706497D01*
X186656485Y-86373164D02*
X186442199Y-87039831D01*
X186442199Y-87039831D02*
X186227914Y-86373164D01*
X186099343Y-87135069D02*
X185413628Y-87135069D01*
X184899343Y-86516021D02*
X184770771Y-86563640D01*
X184770771Y-86563640D02*
X184727914Y-86611259D01*
X184727914Y-86611259D02*
X184685057Y-86706497D01*
X184685057Y-86706497D02*
X184685057Y-86849354D01*
X184685057Y-86849354D02*
X184727914Y-86944592D01*
X184727914Y-86944592D02*
X184770771Y-86992212D01*
X184770771Y-86992212D02*
X184856486Y-87039831D01*
X184856486Y-87039831D02*
X185199343Y-87039831D01*
X185199343Y-87039831D02*
X185199343Y-86039831D01*
X185199343Y-86039831D02*
X184899343Y-86039831D01*
X184899343Y-86039831D02*
X184813629Y-86087450D01*
X184813629Y-86087450D02*
X184770771Y-86135069D01*
X184770771Y-86135069D02*
X184727914Y-86230307D01*
X184727914Y-86230307D02*
X184727914Y-86325545D01*
X184727914Y-86325545D02*
X184770771Y-86420783D01*
X184770771Y-86420783D02*
X184813629Y-86468402D01*
X184813629Y-86468402D02*
X184899343Y-86516021D01*
X184899343Y-86516021D02*
X185199343Y-86516021D01*
X184170771Y-87039831D02*
X184256486Y-86992212D01*
X184256486Y-86992212D02*
X184299343Y-86944592D01*
X184299343Y-86944592D02*
X184342200Y-86849354D01*
X184342200Y-86849354D02*
X184342200Y-86563640D01*
X184342200Y-86563640D02*
X184299343Y-86468402D01*
X184299343Y-86468402D02*
X184256486Y-86420783D01*
X184256486Y-86420783D02*
X184170771Y-86373164D01*
X184170771Y-86373164D02*
X184042200Y-86373164D01*
X184042200Y-86373164D02*
X183956486Y-86420783D01*
X183956486Y-86420783D02*
X183913629Y-86468402D01*
X183913629Y-86468402D02*
X183870771Y-86563640D01*
X183870771Y-86563640D02*
X183870771Y-86849354D01*
X183870771Y-86849354D02*
X183913629Y-86944592D01*
X183913629Y-86944592D02*
X183956486Y-86992212D01*
X183956486Y-86992212D02*
X184042200Y-87039831D01*
X184042200Y-87039831D02*
X184170771Y-87039831D01*
X183099343Y-87039831D02*
X183099343Y-86516021D01*
X183099343Y-86516021D02*
X183142200Y-86420783D01*
X183142200Y-86420783D02*
X183227914Y-86373164D01*
X183227914Y-86373164D02*
X183399343Y-86373164D01*
X183399343Y-86373164D02*
X183485057Y-86420783D01*
X183099343Y-86992212D02*
X183185057Y-87039831D01*
X183185057Y-87039831D02*
X183399343Y-87039831D01*
X183399343Y-87039831D02*
X183485057Y-86992212D01*
X183485057Y-86992212D02*
X183527914Y-86896973D01*
X183527914Y-86896973D02*
X183527914Y-86801735D01*
X183527914Y-86801735D02*
X183485057Y-86706497D01*
X183485057Y-86706497D02*
X183399343Y-86658878D01*
X183399343Y-86658878D02*
X183185057Y-86658878D01*
X183185057Y-86658878D02*
X183099343Y-86611259D01*
X182670771Y-87039831D02*
X182670771Y-86373164D01*
X182670771Y-86563640D02*
X182627914Y-86468402D01*
X182627914Y-86468402D02*
X182585057Y-86420783D01*
X182585057Y-86420783D02*
X182499342Y-86373164D01*
X182499342Y-86373164D02*
X182413628Y-86373164D01*
X181727914Y-87039831D02*
X181727914Y-86039831D01*
X181727914Y-86992212D02*
X181813628Y-87039831D01*
X181813628Y-87039831D02*
X181985056Y-87039831D01*
X181985056Y-87039831D02*
X182070771Y-86992212D01*
X182070771Y-86992212D02*
X182113628Y-86944592D01*
X182113628Y-86944592D02*
X182156485Y-86849354D01*
X182156485Y-86849354D02*
X182156485Y-86563640D01*
X182156485Y-86563640D02*
X182113628Y-86468402D01*
X182113628Y-86468402D02*
X182070771Y-86420783D01*
X182070771Y-86420783D02*
X181985056Y-86373164D01*
X181985056Y-86373164D02*
X181813628Y-86373164D01*
X181813628Y-86373164D02*
X181727914Y-86420783D01*
X180742199Y-86039831D02*
X180442199Y-87039831D01*
X180442199Y-87039831D02*
X180142199Y-86039831D01*
X179885056Y-86135069D02*
X179842199Y-86087450D01*
X179842199Y-86087450D02*
X179756485Y-86039831D01*
X179756485Y-86039831D02*
X179542199Y-86039831D01*
X179542199Y-86039831D02*
X179456485Y-86087450D01*
X179456485Y-86087450D02*
X179413627Y-86135069D01*
X179413627Y-86135069D02*
X179370770Y-86230307D01*
X179370770Y-86230307D02*
X179370770Y-86325545D01*
X179370770Y-86325545D02*
X179413627Y-86468402D01*
X179413627Y-86468402D02*
X179927913Y-87039831D01*
X179927913Y-87039831D02*
X179370770Y-87039831D01*
X178985056Y-86944592D02*
X178942199Y-86992212D01*
X178942199Y-86992212D02*
X178985056Y-87039831D01*
X178985056Y-87039831D02*
X179027913Y-86992212D01*
X179027913Y-86992212D02*
X178985056Y-86944592D01*
X178985056Y-86944592D02*
X178985056Y-87039831D01*
X178385056Y-86039831D02*
X178299342Y-86039831D01*
X178299342Y-86039831D02*
X178213628Y-86087450D01*
X178213628Y-86087450D02*
X178170771Y-86135069D01*
X178170771Y-86135069D02*
X178127913Y-86230307D01*
X178127913Y-86230307D02*
X178085056Y-86420783D01*
X178085056Y-86420783D02*
X178085056Y-86658878D01*
X178085056Y-86658878D02*
X178127913Y-86849354D01*
X178127913Y-86849354D02*
X178170771Y-86944592D01*
X178170771Y-86944592D02*
X178213628Y-86992212D01*
X178213628Y-86992212D02*
X178299342Y-87039831D01*
X178299342Y-87039831D02*
X178385056Y-87039831D01*
X178385056Y-87039831D02*
X178470771Y-86992212D01*
X178470771Y-86992212D02*
X178513628Y-86944592D01*
X178513628Y-86944592D02*
X178556485Y-86849354D01*
X178556485Y-86849354D02*
X178599342Y-86658878D01*
X178599342Y-86658878D02*
X178599342Y-86420783D01*
X178599342Y-86420783D02*
X178556485Y-86230307D01*
X178556485Y-86230307D02*
X178513628Y-86135069D01*
X178513628Y-86135069D02*
X178470771Y-86087450D01*
X178470771Y-86087450D02*
X178385056Y-86039831D01*
X192185057Y-88649775D02*
X192185057Y-87649775D01*
X191756486Y-87983108D02*
X191756486Y-88649775D01*
X191756486Y-88078346D02*
X191713629Y-88030727D01*
X191713629Y-88030727D02*
X191627914Y-87983108D01*
X191627914Y-87983108D02*
X191499343Y-87983108D01*
X191499343Y-87983108D02*
X191413629Y-88030727D01*
X191413629Y-88030727D02*
X191370772Y-88125965D01*
X191370772Y-88125965D02*
X191370772Y-88649775D01*
X190942200Y-88649775D02*
X190942200Y-87983108D01*
X190942200Y-87649775D02*
X190985057Y-87697394D01*
X190985057Y-87697394D02*
X190942200Y-87745013D01*
X190942200Y-87745013D02*
X190899343Y-87697394D01*
X190899343Y-87697394D02*
X190942200Y-87649775D01*
X190942200Y-87649775D02*
X190942200Y-87745013D01*
X190642200Y-87983108D02*
X190299343Y-87983108D01*
X190513629Y-87649775D02*
X190513629Y-88506917D01*
X190513629Y-88506917D02*
X190470772Y-88602156D01*
X190470772Y-88602156D02*
X190385057Y-88649775D01*
X190385057Y-88649775D02*
X190299343Y-88649775D01*
X189999343Y-88649775D02*
X189999343Y-87983108D01*
X189999343Y-87649775D02*
X190042200Y-87697394D01*
X190042200Y-87697394D02*
X189999343Y-87745013D01*
X189999343Y-87745013D02*
X189956486Y-87697394D01*
X189956486Y-87697394D02*
X189999343Y-87649775D01*
X189999343Y-87649775D02*
X189999343Y-87745013D01*
X189185058Y-88649775D02*
X189185058Y-88125965D01*
X189185058Y-88125965D02*
X189227915Y-88030727D01*
X189227915Y-88030727D02*
X189313629Y-87983108D01*
X189313629Y-87983108D02*
X189485058Y-87983108D01*
X189485058Y-87983108D02*
X189570772Y-88030727D01*
X189185058Y-88602156D02*
X189270772Y-88649775D01*
X189270772Y-88649775D02*
X189485058Y-88649775D01*
X189485058Y-88649775D02*
X189570772Y-88602156D01*
X189570772Y-88602156D02*
X189613629Y-88506917D01*
X189613629Y-88506917D02*
X189613629Y-88411679D01*
X189613629Y-88411679D02*
X189570772Y-88316441D01*
X189570772Y-88316441D02*
X189485058Y-88268822D01*
X189485058Y-88268822D02*
X189270772Y-88268822D01*
X189270772Y-88268822D02*
X189185058Y-88221203D01*
X188627914Y-88649775D02*
X188713629Y-88602156D01*
X188713629Y-88602156D02*
X188756486Y-88506917D01*
X188756486Y-88506917D02*
X188756486Y-87649775D01*
X187599343Y-88649775D02*
X187599343Y-87649775D01*
X187599343Y-87649775D02*
X187385057Y-87649775D01*
X187385057Y-87649775D02*
X187256486Y-87697394D01*
X187256486Y-87697394D02*
X187170771Y-87792632D01*
X187170771Y-87792632D02*
X187127914Y-87887870D01*
X187127914Y-87887870D02*
X187085057Y-88078346D01*
X187085057Y-88078346D02*
X187085057Y-88221203D01*
X187085057Y-88221203D02*
X187127914Y-88411679D01*
X187127914Y-88411679D02*
X187170771Y-88506917D01*
X187170771Y-88506917D02*
X187256486Y-88602156D01*
X187256486Y-88602156D02*
X187385057Y-88649775D01*
X187385057Y-88649775D02*
X187599343Y-88649775D01*
X186356486Y-88602156D02*
X186442200Y-88649775D01*
X186442200Y-88649775D02*
X186613629Y-88649775D01*
X186613629Y-88649775D02*
X186699343Y-88602156D01*
X186699343Y-88602156D02*
X186742200Y-88506917D01*
X186742200Y-88506917D02*
X186742200Y-88125965D01*
X186742200Y-88125965D02*
X186699343Y-88030727D01*
X186699343Y-88030727D02*
X186613629Y-87983108D01*
X186613629Y-87983108D02*
X186442200Y-87983108D01*
X186442200Y-87983108D02*
X186356486Y-88030727D01*
X186356486Y-88030727D02*
X186313629Y-88125965D01*
X186313629Y-88125965D02*
X186313629Y-88221203D01*
X186313629Y-88221203D02*
X186742200Y-88316441D01*
X185970771Y-88602156D02*
X185885057Y-88649775D01*
X185885057Y-88649775D02*
X185713628Y-88649775D01*
X185713628Y-88649775D02*
X185627914Y-88602156D01*
X185627914Y-88602156D02*
X185585057Y-88506917D01*
X185585057Y-88506917D02*
X185585057Y-88459298D01*
X185585057Y-88459298D02*
X185627914Y-88364060D01*
X185627914Y-88364060D02*
X185713628Y-88316441D01*
X185713628Y-88316441D02*
X185842200Y-88316441D01*
X185842200Y-88316441D02*
X185927914Y-88268822D01*
X185927914Y-88268822D02*
X185970771Y-88173584D01*
X185970771Y-88173584D02*
X185970771Y-88125965D01*
X185970771Y-88125965D02*
X185927914Y-88030727D01*
X185927914Y-88030727D02*
X185842200Y-87983108D01*
X185842200Y-87983108D02*
X185713628Y-87983108D01*
X185713628Y-87983108D02*
X185627914Y-88030727D01*
X185199343Y-88649775D02*
X185199343Y-87983108D01*
X185199343Y-87649775D02*
X185242200Y-87697394D01*
X185242200Y-87697394D02*
X185199343Y-87745013D01*
X185199343Y-87745013D02*
X185156486Y-87697394D01*
X185156486Y-87697394D02*
X185199343Y-87649775D01*
X185199343Y-87649775D02*
X185199343Y-87745013D01*
X184385058Y-87983108D02*
X184385058Y-88792632D01*
X184385058Y-88792632D02*
X184427915Y-88887870D01*
X184427915Y-88887870D02*
X184470772Y-88935489D01*
X184470772Y-88935489D02*
X184556486Y-88983108D01*
X184556486Y-88983108D02*
X184685058Y-88983108D01*
X184685058Y-88983108D02*
X184770772Y-88935489D01*
X184385058Y-88602156D02*
X184470772Y-88649775D01*
X184470772Y-88649775D02*
X184642200Y-88649775D01*
X184642200Y-88649775D02*
X184727915Y-88602156D01*
X184727915Y-88602156D02*
X184770772Y-88554536D01*
X184770772Y-88554536D02*
X184813629Y-88459298D01*
X184813629Y-88459298D02*
X184813629Y-88173584D01*
X184813629Y-88173584D02*
X184770772Y-88078346D01*
X184770772Y-88078346D02*
X184727915Y-88030727D01*
X184727915Y-88030727D02*
X184642200Y-87983108D01*
X184642200Y-87983108D02*
X184470772Y-87983108D01*
X184470772Y-87983108D02*
X184385058Y-88030727D01*
X183956486Y-87983108D02*
X183956486Y-88649775D01*
X183956486Y-88078346D02*
X183913629Y-88030727D01*
X183913629Y-88030727D02*
X183827914Y-87983108D01*
X183827914Y-87983108D02*
X183699343Y-87983108D01*
X183699343Y-87983108D02*
X183613629Y-88030727D01*
X183613629Y-88030727D02*
X183570772Y-88125965D01*
X183570772Y-88125965D02*
X183570772Y-88649775D01*
X182456486Y-88649775D02*
X182456486Y-87649775D01*
X182456486Y-88030727D02*
X182370772Y-87983108D01*
X182370772Y-87983108D02*
X182199343Y-87983108D01*
X182199343Y-87983108D02*
X182113629Y-88030727D01*
X182113629Y-88030727D02*
X182070772Y-88078346D01*
X182070772Y-88078346D02*
X182027914Y-88173584D01*
X182027914Y-88173584D02*
X182027914Y-88459298D01*
X182027914Y-88459298D02*
X182070772Y-88554536D01*
X182070772Y-88554536D02*
X182113629Y-88602156D01*
X182113629Y-88602156D02*
X182199343Y-88649775D01*
X182199343Y-88649775D02*
X182370772Y-88649775D01*
X182370772Y-88649775D02*
X182456486Y-88602156D01*
X181727914Y-87983108D02*
X181513628Y-88649775D01*
X181299343Y-87983108D02*
X181513628Y-88649775D01*
X181513628Y-88649775D02*
X181599343Y-88887870D01*
X181599343Y-88887870D02*
X181642200Y-88935489D01*
X181642200Y-88935489D02*
X181727914Y-88983108D01*
X180099343Y-87649775D02*
X179927915Y-87649775D01*
X179927915Y-87649775D02*
X179842200Y-87697394D01*
X179842200Y-87697394D02*
X179756486Y-87792632D01*
X179756486Y-87792632D02*
X179713629Y-87983108D01*
X179713629Y-87983108D02*
X179713629Y-88316441D01*
X179713629Y-88316441D02*
X179756486Y-88506917D01*
X179756486Y-88506917D02*
X179842200Y-88602156D01*
X179842200Y-88602156D02*
X179927915Y-88649775D01*
X179927915Y-88649775D02*
X180099343Y-88649775D01*
X180099343Y-88649775D02*
X180185058Y-88602156D01*
X180185058Y-88602156D02*
X180270772Y-88506917D01*
X180270772Y-88506917D02*
X180313629Y-88316441D01*
X180313629Y-88316441D02*
X180313629Y-87983108D01*
X180313629Y-87983108D02*
X180270772Y-87792632D01*
X180270772Y-87792632D02*
X180185058Y-87697394D01*
X180185058Y-87697394D02*
X180099343Y-87649775D01*
X179413629Y-87983108D02*
X179242201Y-88649775D01*
X179242201Y-88649775D02*
X179070772Y-88173584D01*
X179070772Y-88173584D02*
X178899343Y-88649775D01*
X178899343Y-88649775D02*
X178727915Y-87983108D01*
X178042201Y-88602156D02*
X178127915Y-88649775D01*
X178127915Y-88649775D02*
X178299344Y-88649775D01*
X178299344Y-88649775D02*
X178385058Y-88602156D01*
X178385058Y-88602156D02*
X178427915Y-88506917D01*
X178427915Y-88506917D02*
X178427915Y-88125965D01*
X178427915Y-88125965D02*
X178385058Y-88030727D01*
X178385058Y-88030727D02*
X178299344Y-87983108D01*
X178299344Y-87983108D02*
X178127915Y-87983108D01*
X178127915Y-87983108D02*
X178042201Y-88030727D01*
X178042201Y-88030727D02*
X177999344Y-88125965D01*
X177999344Y-88125965D02*
X177999344Y-88221203D01*
X177999344Y-88221203D02*
X178427915Y-88316441D01*
X177613629Y-87983108D02*
X177613629Y-88649775D01*
X177613629Y-88078346D02*
X177570772Y-88030727D01*
X177570772Y-88030727D02*
X177485057Y-87983108D01*
X177485057Y-87983108D02*
X177356486Y-87983108D01*
X177356486Y-87983108D02*
X177270772Y-88030727D01*
X177270772Y-88030727D02*
X177227915Y-88125965D01*
X177227915Y-88125965D02*
X177227915Y-88649775D01*
X176113629Y-88649775D02*
X176113629Y-87649775D01*
X176113629Y-87649775D02*
X175770772Y-87649775D01*
X175770772Y-87649775D02*
X175685057Y-87697394D01*
X175685057Y-87697394D02*
X175642200Y-87745013D01*
X175642200Y-87745013D02*
X175599343Y-87840251D01*
X175599343Y-87840251D02*
X175599343Y-87983108D01*
X175599343Y-87983108D02*
X175642200Y-88078346D01*
X175642200Y-88078346D02*
X175685057Y-88125965D01*
X175685057Y-88125965D02*
X175770772Y-88173584D01*
X175770772Y-88173584D02*
X176113629Y-88173584D01*
X175299343Y-87983108D02*
X175085057Y-88649775D01*
X174870772Y-87983108D02*
X175085057Y-88649775D01*
X175085057Y-88649775D02*
X175170772Y-88887870D01*
X175170772Y-88887870D02*
X175213629Y-88935489D01*
X175213629Y-88935489D02*
X175299343Y-88983108D01*
X174399343Y-88649775D02*
X174485058Y-88602156D01*
X174485058Y-88602156D02*
X174527915Y-88506917D01*
X174527915Y-88506917D02*
X174527915Y-87649775D01*
X173713629Y-88602156D02*
X173799343Y-88649775D01*
X173799343Y-88649775D02*
X173970772Y-88649775D01*
X173970772Y-88649775D02*
X174056486Y-88602156D01*
X174056486Y-88602156D02*
X174099343Y-88506917D01*
X174099343Y-88506917D02*
X174099343Y-88125965D01*
X174099343Y-88125965D02*
X174056486Y-88030727D01*
X174056486Y-88030727D02*
X173970772Y-87983108D01*
X173970772Y-87983108D02*
X173799343Y-87983108D01*
X173799343Y-87983108D02*
X173713629Y-88030727D01*
X173713629Y-88030727D02*
X173670772Y-88125965D01*
X173670772Y-88125965D02*
X173670772Y-88221203D01*
X173670772Y-88221203D02*
X174099343Y-88316441D01*
X191670771Y-90259719D02*
X191970771Y-89783528D01*
X192185057Y-90259719D02*
X192185057Y-89259719D01*
X192185057Y-89259719D02*
X191842200Y-89259719D01*
X191842200Y-89259719D02*
X191756485Y-89307338D01*
X191756485Y-89307338D02*
X191713628Y-89354957D01*
X191713628Y-89354957D02*
X191670771Y-89450195D01*
X191670771Y-89450195D02*
X191670771Y-89593052D01*
X191670771Y-89593052D02*
X191713628Y-89688290D01*
X191713628Y-89688290D02*
X191756485Y-89735909D01*
X191756485Y-89735909D02*
X191842200Y-89783528D01*
X191842200Y-89783528D02*
X192185057Y-89783528D01*
X190942200Y-90212100D02*
X191027914Y-90259719D01*
X191027914Y-90259719D02*
X191199343Y-90259719D01*
X191199343Y-90259719D02*
X191285057Y-90212100D01*
X191285057Y-90212100D02*
X191327914Y-90116861D01*
X191327914Y-90116861D02*
X191327914Y-89735909D01*
X191327914Y-89735909D02*
X191285057Y-89640671D01*
X191285057Y-89640671D02*
X191199343Y-89593052D01*
X191199343Y-89593052D02*
X191027914Y-89593052D01*
X191027914Y-89593052D02*
X190942200Y-89640671D01*
X190942200Y-89640671D02*
X190899343Y-89735909D01*
X190899343Y-89735909D02*
X190899343Y-89831147D01*
X190899343Y-89831147D02*
X191327914Y-89926385D01*
X190599342Y-89593052D02*
X190385056Y-90259719D01*
X190385056Y-90259719D02*
X190170771Y-89593052D01*
X189827914Y-90259719D02*
X189827914Y-89593052D01*
X189827914Y-89259719D02*
X189870771Y-89307338D01*
X189870771Y-89307338D02*
X189827914Y-89354957D01*
X189827914Y-89354957D02*
X189785057Y-89307338D01*
X189785057Y-89307338D02*
X189827914Y-89259719D01*
X189827914Y-89259719D02*
X189827914Y-89354957D01*
X189442200Y-90212100D02*
X189356486Y-90259719D01*
X189356486Y-90259719D02*
X189185057Y-90259719D01*
X189185057Y-90259719D02*
X189099343Y-90212100D01*
X189099343Y-90212100D02*
X189056486Y-90116861D01*
X189056486Y-90116861D02*
X189056486Y-90069242D01*
X189056486Y-90069242D02*
X189099343Y-89974004D01*
X189099343Y-89974004D02*
X189185057Y-89926385D01*
X189185057Y-89926385D02*
X189313629Y-89926385D01*
X189313629Y-89926385D02*
X189399343Y-89878766D01*
X189399343Y-89878766D02*
X189442200Y-89783528D01*
X189442200Y-89783528D02*
X189442200Y-89735909D01*
X189442200Y-89735909D02*
X189399343Y-89640671D01*
X189399343Y-89640671D02*
X189313629Y-89593052D01*
X189313629Y-89593052D02*
X189185057Y-89593052D01*
X189185057Y-89593052D02*
X189099343Y-89640671D01*
X188670772Y-90259719D02*
X188670772Y-89593052D01*
X188670772Y-89259719D02*
X188713629Y-89307338D01*
X188713629Y-89307338D02*
X188670772Y-89354957D01*
X188670772Y-89354957D02*
X188627915Y-89307338D01*
X188627915Y-89307338D02*
X188670772Y-89259719D01*
X188670772Y-89259719D02*
X188670772Y-89354957D01*
X188113629Y-90259719D02*
X188199344Y-90212100D01*
X188199344Y-90212100D02*
X188242201Y-90164480D01*
X188242201Y-90164480D02*
X188285058Y-90069242D01*
X188285058Y-90069242D02*
X188285058Y-89783528D01*
X188285058Y-89783528D02*
X188242201Y-89688290D01*
X188242201Y-89688290D02*
X188199344Y-89640671D01*
X188199344Y-89640671D02*
X188113629Y-89593052D01*
X188113629Y-89593052D02*
X187985058Y-89593052D01*
X187985058Y-89593052D02*
X187899344Y-89640671D01*
X187899344Y-89640671D02*
X187856487Y-89688290D01*
X187856487Y-89688290D02*
X187813629Y-89783528D01*
X187813629Y-89783528D02*
X187813629Y-90069242D01*
X187813629Y-90069242D02*
X187856487Y-90164480D01*
X187856487Y-90164480D02*
X187899344Y-90212100D01*
X187899344Y-90212100D02*
X187985058Y-90259719D01*
X187985058Y-90259719D02*
X188113629Y-90259719D01*
X187427915Y-89593052D02*
X187427915Y-90259719D01*
X187427915Y-89688290D02*
X187385058Y-89640671D01*
X187385058Y-89640671D02*
X187299343Y-89593052D01*
X187299343Y-89593052D02*
X187170772Y-89593052D01*
X187170772Y-89593052D02*
X187085058Y-89640671D01*
X187085058Y-89640671D02*
X187042201Y-89735909D01*
X187042201Y-89735909D02*
X187042201Y-90259719D01*
X186656486Y-90212100D02*
X186570772Y-90259719D01*
X186570772Y-90259719D02*
X186399343Y-90259719D01*
X186399343Y-90259719D02*
X186313629Y-90212100D01*
X186313629Y-90212100D02*
X186270772Y-90116861D01*
X186270772Y-90116861D02*
X186270772Y-90069242D01*
X186270772Y-90069242D02*
X186313629Y-89974004D01*
X186313629Y-89974004D02*
X186399343Y-89926385D01*
X186399343Y-89926385D02*
X186527915Y-89926385D01*
X186527915Y-89926385D02*
X186613629Y-89878766D01*
X186613629Y-89878766D02*
X186656486Y-89783528D01*
X186656486Y-89783528D02*
X186656486Y-89735909D01*
X186656486Y-89735909D02*
X186613629Y-89640671D01*
X186613629Y-89640671D02*
X186527915Y-89593052D01*
X186527915Y-89593052D02*
X186399343Y-89593052D01*
X186399343Y-89593052D02*
X186313629Y-89640671D01*
X185199344Y-90259719D02*
X185199344Y-89259719D01*
X185199344Y-89640671D02*
X185113630Y-89593052D01*
X185113630Y-89593052D02*
X184942201Y-89593052D01*
X184942201Y-89593052D02*
X184856487Y-89640671D01*
X184856487Y-89640671D02*
X184813630Y-89688290D01*
X184813630Y-89688290D02*
X184770772Y-89783528D01*
X184770772Y-89783528D02*
X184770772Y-90069242D01*
X184770772Y-90069242D02*
X184813630Y-90164480D01*
X184813630Y-90164480D02*
X184856487Y-90212100D01*
X184856487Y-90212100D02*
X184942201Y-90259719D01*
X184942201Y-90259719D02*
X185113630Y-90259719D01*
X185113630Y-90259719D02*
X185199344Y-90212100D01*
X184470772Y-89593052D02*
X184256486Y-90259719D01*
X184042201Y-89593052D02*
X184256486Y-90259719D01*
X184256486Y-90259719D02*
X184342201Y-90497814D01*
X184342201Y-90497814D02*
X184385058Y-90545433D01*
X184385058Y-90545433D02*
X184470772Y-90593052D01*
X182756487Y-89259719D02*
X182756487Y-89974004D01*
X182756487Y-89974004D02*
X182799344Y-90116861D01*
X182799344Y-90116861D02*
X182885058Y-90212100D01*
X182885058Y-90212100D02*
X183013630Y-90259719D01*
X183013630Y-90259719D02*
X183099344Y-90259719D01*
X181942202Y-90259719D02*
X181942202Y-89735909D01*
X181942202Y-89735909D02*
X181985059Y-89640671D01*
X181985059Y-89640671D02*
X182070773Y-89593052D01*
X182070773Y-89593052D02*
X182242202Y-89593052D01*
X182242202Y-89593052D02*
X182327916Y-89640671D01*
X181942202Y-90212100D02*
X182027916Y-90259719D01*
X182027916Y-90259719D02*
X182242202Y-90259719D01*
X182242202Y-90259719D02*
X182327916Y-90212100D01*
X182327916Y-90212100D02*
X182370773Y-90116861D01*
X182370773Y-90116861D02*
X182370773Y-90021623D01*
X182370773Y-90021623D02*
X182327916Y-89926385D01*
X182327916Y-89926385D02*
X182242202Y-89878766D01*
X182242202Y-89878766D02*
X182027916Y-89878766D01*
X182027916Y-89878766D02*
X181942202Y-89831147D01*
X181127916Y-90212100D02*
X181213630Y-90259719D01*
X181213630Y-90259719D02*
X181385058Y-90259719D01*
X181385058Y-90259719D02*
X181470773Y-90212100D01*
X181470773Y-90212100D02*
X181513630Y-90164480D01*
X181513630Y-90164480D02*
X181556487Y-90069242D01*
X181556487Y-90069242D02*
X181556487Y-89783528D01*
X181556487Y-89783528D02*
X181513630Y-89688290D01*
X181513630Y-89688290D02*
X181470773Y-89640671D01*
X181470773Y-89640671D02*
X181385058Y-89593052D01*
X181385058Y-89593052D02*
X181213630Y-89593052D01*
X181213630Y-89593052D02*
X181127916Y-89640671D01*
X180742201Y-90259719D02*
X180742201Y-89259719D01*
X180656487Y-89878766D02*
X180399344Y-90259719D01*
X180399344Y-89593052D02*
X180742201Y-89974004D01*
X178813630Y-90164480D02*
X178856487Y-90212100D01*
X178856487Y-90212100D02*
X178985059Y-90259719D01*
X178985059Y-90259719D02*
X179070773Y-90259719D01*
X179070773Y-90259719D02*
X179199344Y-90212100D01*
X179199344Y-90212100D02*
X179285059Y-90116861D01*
X179285059Y-90116861D02*
X179327916Y-90021623D01*
X179327916Y-90021623D02*
X179370773Y-89831147D01*
X179370773Y-89831147D02*
X179370773Y-89688290D01*
X179370773Y-89688290D02*
X179327916Y-89497814D01*
X179327916Y-89497814D02*
X179285059Y-89402576D01*
X179285059Y-89402576D02*
X179199344Y-89307338D01*
X179199344Y-89307338D02*
X179070773Y-89259719D01*
X179070773Y-89259719D02*
X178985059Y-89259719D01*
X178985059Y-89259719D02*
X178856487Y-89307338D01*
X178856487Y-89307338D02*
X178813630Y-89354957D01*
X178042202Y-89593052D02*
X178042202Y-90259719D01*
X178427916Y-89593052D02*
X178427916Y-90116861D01*
X178427916Y-90116861D02*
X178385059Y-90212100D01*
X178385059Y-90212100D02*
X178299344Y-90259719D01*
X178299344Y-90259719D02*
X178170773Y-90259719D01*
X178170773Y-90259719D02*
X178085059Y-90212100D01*
X178085059Y-90212100D02*
X178042202Y-90164480D01*
X177613630Y-89593052D02*
X177613630Y-90259719D01*
X177613630Y-89688290D02*
X177570773Y-89640671D01*
X177570773Y-89640671D02*
X177485058Y-89593052D01*
X177485058Y-89593052D02*
X177356487Y-89593052D01*
X177356487Y-89593052D02*
X177270773Y-89640671D01*
X177270773Y-89640671D02*
X177227916Y-89735909D01*
X177227916Y-89735909D02*
X177227916Y-90259719D01*
X176799344Y-89593052D02*
X176799344Y-90259719D01*
X176799344Y-89688290D02*
X176756487Y-89640671D01*
X176756487Y-89640671D02*
X176670772Y-89593052D01*
X176670772Y-89593052D02*
X176542201Y-89593052D01*
X176542201Y-89593052D02*
X176456487Y-89640671D01*
X176456487Y-89640671D02*
X176413630Y-89735909D01*
X176413630Y-89735909D02*
X176413630Y-90259719D01*
X175985058Y-90259719D02*
X175985058Y-89593052D01*
X175985058Y-89259719D02*
X176027915Y-89307338D01*
X176027915Y-89307338D02*
X175985058Y-89354957D01*
X175985058Y-89354957D02*
X175942201Y-89307338D01*
X175942201Y-89307338D02*
X175985058Y-89259719D01*
X175985058Y-89259719D02*
X175985058Y-89354957D01*
X175556487Y-89593052D02*
X175556487Y-90259719D01*
X175556487Y-89688290D02*
X175513630Y-89640671D01*
X175513630Y-89640671D02*
X175427915Y-89593052D01*
X175427915Y-89593052D02*
X175299344Y-89593052D01*
X175299344Y-89593052D02*
X175213630Y-89640671D01*
X175213630Y-89640671D02*
X175170773Y-89735909D01*
X175170773Y-89735909D02*
X175170773Y-90259719D01*
X174356487Y-89593052D02*
X174356487Y-90402576D01*
X174356487Y-90402576D02*
X174399344Y-90497814D01*
X174399344Y-90497814D02*
X174442201Y-90545433D01*
X174442201Y-90545433D02*
X174527915Y-90593052D01*
X174527915Y-90593052D02*
X174656487Y-90593052D01*
X174656487Y-90593052D02*
X174742201Y-90545433D01*
X174356487Y-90212100D02*
X174442201Y-90259719D01*
X174442201Y-90259719D02*
X174613629Y-90259719D01*
X174613629Y-90259719D02*
X174699344Y-90212100D01*
X174699344Y-90212100D02*
X174742201Y-90164480D01*
X174742201Y-90164480D02*
X174785058Y-90069242D01*
X174785058Y-90069242D02*
X174785058Y-89783528D01*
X174785058Y-89783528D02*
X174742201Y-89688290D01*
X174742201Y-89688290D02*
X174699344Y-89640671D01*
X174699344Y-89640671D02*
X174613629Y-89593052D01*
X174613629Y-89593052D02*
X174442201Y-89593052D01*
X174442201Y-89593052D02*
X174356487Y-89640671D01*
X173927915Y-90259719D02*
X173927915Y-89259719D01*
X173542201Y-90259719D02*
X173542201Y-89735909D01*
X173542201Y-89735909D02*
X173585058Y-89640671D01*
X173585058Y-89640671D02*
X173670772Y-89593052D01*
X173670772Y-89593052D02*
X173799343Y-89593052D01*
X173799343Y-89593052D02*
X173885058Y-89640671D01*
X173885058Y-89640671D02*
X173927915Y-89688290D01*
X172727915Y-90259719D02*
X172727915Y-89735909D01*
X172727915Y-89735909D02*
X172770772Y-89640671D01*
X172770772Y-89640671D02*
X172856486Y-89593052D01*
X172856486Y-89593052D02*
X173027915Y-89593052D01*
X173027915Y-89593052D02*
X173113629Y-89640671D01*
X172727915Y-90212100D02*
X172813629Y-90259719D01*
X172813629Y-90259719D02*
X173027915Y-90259719D01*
X173027915Y-90259719D02*
X173113629Y-90212100D01*
X173113629Y-90212100D02*
X173156486Y-90116861D01*
X173156486Y-90116861D02*
X173156486Y-90021623D01*
X173156486Y-90021623D02*
X173113629Y-89926385D01*
X173113629Y-89926385D02*
X173027915Y-89878766D01*
X173027915Y-89878766D02*
X172813629Y-89878766D01*
X172813629Y-89878766D02*
X172727915Y-89831147D01*
X172299343Y-90259719D02*
X172299343Y-89593052D01*
X172299343Y-89688290D02*
X172256486Y-89640671D01*
X172256486Y-89640671D02*
X172170771Y-89593052D01*
X172170771Y-89593052D02*
X172042200Y-89593052D01*
X172042200Y-89593052D02*
X171956486Y-89640671D01*
X171956486Y-89640671D02*
X171913629Y-89735909D01*
X171913629Y-89735909D02*
X171913629Y-90259719D01*
X171913629Y-89735909D02*
X171870771Y-89640671D01*
X171870771Y-89640671D02*
X171785057Y-89593052D01*
X171785057Y-89593052D02*
X171656486Y-89593052D01*
X171656486Y-89593052D02*
X171570771Y-89640671D01*
X171570771Y-89640671D02*
X171527914Y-89735909D01*
X171527914Y-89735909D02*
X171527914Y-90259719D01*
X192270771Y-90869663D02*
X191670771Y-90869663D01*
X191670771Y-90869663D02*
X192056485Y-91869663D01*
X190685057Y-90822044D02*
X191456485Y-92107758D01*
X189913628Y-91869663D02*
X190427914Y-91869663D01*
X190170771Y-91869663D02*
X190170771Y-90869663D01*
X190170771Y-90869663D02*
X190256485Y-91012520D01*
X190256485Y-91012520D02*
X190342200Y-91107758D01*
X190342200Y-91107758D02*
X190427914Y-91155377D01*
X189356485Y-90869663D02*
X189270771Y-90869663D01*
X189270771Y-90869663D02*
X189185057Y-90917282D01*
X189185057Y-90917282D02*
X189142200Y-90964901D01*
X189142200Y-90964901D02*
X189099342Y-91060139D01*
X189099342Y-91060139D02*
X189056485Y-91250615D01*
X189056485Y-91250615D02*
X189056485Y-91488710D01*
X189056485Y-91488710D02*
X189099342Y-91679186D01*
X189099342Y-91679186D02*
X189142200Y-91774424D01*
X189142200Y-91774424D02*
X189185057Y-91822044D01*
X189185057Y-91822044D02*
X189270771Y-91869663D01*
X189270771Y-91869663D02*
X189356485Y-91869663D01*
X189356485Y-91869663D02*
X189442200Y-91822044D01*
X189442200Y-91822044D02*
X189485057Y-91774424D01*
X189485057Y-91774424D02*
X189527914Y-91679186D01*
X189527914Y-91679186D02*
X189570771Y-91488710D01*
X189570771Y-91488710D02*
X189570771Y-91250615D01*
X189570771Y-91250615D02*
X189527914Y-91060139D01*
X189527914Y-91060139D02*
X189485057Y-90964901D01*
X189485057Y-90964901D02*
X189442200Y-90917282D01*
X189442200Y-90917282D02*
X189356485Y-90869663D01*
X188027914Y-90822044D02*
X188799342Y-92107758D01*
X187770771Y-90964901D02*
X187727914Y-90917282D01*
X187727914Y-90917282D02*
X187642200Y-90869663D01*
X187642200Y-90869663D02*
X187427914Y-90869663D01*
X187427914Y-90869663D02*
X187342200Y-90917282D01*
X187342200Y-90917282D02*
X187299342Y-90964901D01*
X187299342Y-90964901D02*
X187256485Y-91060139D01*
X187256485Y-91060139D02*
X187256485Y-91155377D01*
X187256485Y-91155377D02*
X187299342Y-91298234D01*
X187299342Y-91298234D02*
X187813628Y-91869663D01*
X187813628Y-91869663D02*
X187256485Y-91869663D01*
X186442199Y-90869663D02*
X186870771Y-90869663D01*
X186870771Y-90869663D02*
X186913628Y-91345853D01*
X186913628Y-91345853D02*
X186870771Y-91298234D01*
X186870771Y-91298234D02*
X186785057Y-91250615D01*
X186785057Y-91250615D02*
X186570771Y-91250615D01*
X186570771Y-91250615D02*
X186485057Y-91298234D01*
X186485057Y-91298234D02*
X186442199Y-91345853D01*
X186442199Y-91345853D02*
X186399342Y-91441091D01*
X186399342Y-91441091D02*
X186399342Y-91679186D01*
X186399342Y-91679186D02*
X186442199Y-91774424D01*
X186442199Y-91774424D02*
X186485057Y-91822044D01*
X186485057Y-91822044D02*
X186570771Y-91869663D01*
X186570771Y-91869663D02*
X186785057Y-91869663D01*
X186785057Y-91869663D02*
X186870771Y-91822044D01*
X186870771Y-91822044D02*
X186913628Y-91774424D01*
D11*
X147166666Y-96954819D02*
X147499999Y-96478628D01*
X147738094Y-96954819D02*
X147738094Y-95954819D01*
X147738094Y-95954819D02*
X147357142Y-95954819D01*
X147357142Y-95954819D02*
X147261904Y-96002438D01*
X147261904Y-96002438D02*
X147214285Y-96050057D01*
X147214285Y-96050057D02*
X147166666Y-96145295D01*
X147166666Y-96145295D02*
X147166666Y-96288152D01*
X147166666Y-96288152D02*
X147214285Y-96383390D01*
X147214285Y-96383390D02*
X147261904Y-96431009D01*
X147261904Y-96431009D02*
X147357142Y-96478628D01*
X147357142Y-96478628D02*
X147738094Y-96478628D01*
X146595237Y-96383390D02*
X146690475Y-96335771D01*
X146690475Y-96335771D02*
X146738094Y-96288152D01*
X146738094Y-96288152D02*
X146785713Y-96192914D01*
X146785713Y-96192914D02*
X146785713Y-96145295D01*
X146785713Y-96145295D02*
X146738094Y-96050057D01*
X146738094Y-96050057D02*
X146690475Y-96002438D01*
X146690475Y-96002438D02*
X146595237Y-95954819D01*
X146595237Y-95954819D02*
X146404761Y-95954819D01*
X146404761Y-95954819D02*
X146309523Y-96002438D01*
X146309523Y-96002438D02*
X146261904Y-96050057D01*
X146261904Y-96050057D02*
X146214285Y-96145295D01*
X146214285Y-96145295D02*
X146214285Y-96192914D01*
X146214285Y-96192914D02*
X146261904Y-96288152D01*
X146261904Y-96288152D02*
X146309523Y-96335771D01*
X146309523Y-96335771D02*
X146404761Y-96383390D01*
X146404761Y-96383390D02*
X146595237Y-96383390D01*
X146595237Y-96383390D02*
X146690475Y-96431009D01*
X146690475Y-96431009D02*
X146738094Y-96478628D01*
X146738094Y-96478628D02*
X146785713Y-96573866D01*
X146785713Y-96573866D02*
X146785713Y-96764342D01*
X146785713Y-96764342D02*
X146738094Y-96859580D01*
X146738094Y-96859580D02*
X146690475Y-96907200D01*
X146690475Y-96907200D02*
X146595237Y-96954819D01*
X146595237Y-96954819D02*
X146404761Y-96954819D01*
X146404761Y-96954819D02*
X146309523Y-96907200D01*
X146309523Y-96907200D02*
X146261904Y-96859580D01*
X146261904Y-96859580D02*
X146214285Y-96764342D01*
X146214285Y-96764342D02*
X146214285Y-96573866D01*
X146214285Y-96573866D02*
X146261904Y-96478628D01*
X146261904Y-96478628D02*
X146309523Y-96431009D01*
X146309523Y-96431009D02*
X146404761Y-96383390D01*
X155195238Y-112250057D02*
X155290476Y-112202438D01*
X155290476Y-112202438D02*
X155385714Y-112107200D01*
X155385714Y-112107200D02*
X155528571Y-111964342D01*
X155528571Y-111964342D02*
X155623809Y-111916723D01*
X155623809Y-111916723D02*
X155719047Y-111916723D01*
X155671428Y-112154819D02*
X155766666Y-112107200D01*
X155766666Y-112107200D02*
X155861904Y-112011961D01*
X155861904Y-112011961D02*
X155909523Y-111821485D01*
X155909523Y-111821485D02*
X155909523Y-111488152D01*
X155909523Y-111488152D02*
X155861904Y-111297676D01*
X155861904Y-111297676D02*
X155766666Y-111202438D01*
X155766666Y-111202438D02*
X155671428Y-111154819D01*
X155671428Y-111154819D02*
X155480952Y-111154819D01*
X155480952Y-111154819D02*
X155385714Y-111202438D01*
X155385714Y-111202438D02*
X155290476Y-111297676D01*
X155290476Y-111297676D02*
X155242857Y-111488152D01*
X155242857Y-111488152D02*
X155242857Y-111821485D01*
X155242857Y-111821485D02*
X155290476Y-112011961D01*
X155290476Y-112011961D02*
X155385714Y-112107200D01*
X155385714Y-112107200D02*
X155480952Y-112154819D01*
X155480952Y-112154819D02*
X155671428Y-112154819D01*
X154861904Y-111250057D02*
X154814285Y-111202438D01*
X154814285Y-111202438D02*
X154719047Y-111154819D01*
X154719047Y-111154819D02*
X154480952Y-111154819D01*
X154480952Y-111154819D02*
X154385714Y-111202438D01*
X154385714Y-111202438D02*
X154338095Y-111250057D01*
X154338095Y-111250057D02*
X154290476Y-111345295D01*
X154290476Y-111345295D02*
X154290476Y-111440533D01*
X154290476Y-111440533D02*
X154338095Y-111583390D01*
X154338095Y-111583390D02*
X154909523Y-112154819D01*
X154909523Y-112154819D02*
X154290476Y-112154819D01*
X159595238Y-113750057D02*
X159690476Y-113702438D01*
X159690476Y-113702438D02*
X159785714Y-113607200D01*
X159785714Y-113607200D02*
X159928571Y-113464342D01*
X159928571Y-113464342D02*
X160023809Y-113416723D01*
X160023809Y-113416723D02*
X160119047Y-113416723D01*
X160071428Y-113654819D02*
X160166666Y-113607200D01*
X160166666Y-113607200D02*
X160261904Y-113511961D01*
X160261904Y-113511961D02*
X160309523Y-113321485D01*
X160309523Y-113321485D02*
X160309523Y-112988152D01*
X160309523Y-112988152D02*
X160261904Y-112797676D01*
X160261904Y-112797676D02*
X160166666Y-112702438D01*
X160166666Y-112702438D02*
X160071428Y-112654819D01*
X160071428Y-112654819D02*
X159880952Y-112654819D01*
X159880952Y-112654819D02*
X159785714Y-112702438D01*
X159785714Y-112702438D02*
X159690476Y-112797676D01*
X159690476Y-112797676D02*
X159642857Y-112988152D01*
X159642857Y-112988152D02*
X159642857Y-113321485D01*
X159642857Y-113321485D02*
X159690476Y-113511961D01*
X159690476Y-113511961D02*
X159785714Y-113607200D01*
X159785714Y-113607200D02*
X159880952Y-113654819D01*
X159880952Y-113654819D02*
X160071428Y-113654819D01*
X158690476Y-113654819D02*
X159261904Y-113654819D01*
X158976190Y-113654819D02*
X158976190Y-112654819D01*
X158976190Y-112654819D02*
X159071428Y-112797676D01*
X159071428Y-112797676D02*
X159166666Y-112892914D01*
X159166666Y-112892914D02*
X159261904Y-112940533D01*
X160666666Y-106054819D02*
X160999999Y-105578628D01*
X161238094Y-106054819D02*
X161238094Y-105054819D01*
X161238094Y-105054819D02*
X160857142Y-105054819D01*
X160857142Y-105054819D02*
X160761904Y-105102438D01*
X160761904Y-105102438D02*
X160714285Y-105150057D01*
X160714285Y-105150057D02*
X160666666Y-105245295D01*
X160666666Y-105245295D02*
X160666666Y-105388152D01*
X160666666Y-105388152D02*
X160714285Y-105483390D01*
X160714285Y-105483390D02*
X160761904Y-105531009D01*
X160761904Y-105531009D02*
X160857142Y-105578628D01*
X160857142Y-105578628D02*
X161238094Y-105578628D01*
X160190475Y-106054819D02*
X159999999Y-106054819D01*
X159999999Y-106054819D02*
X159904761Y-106007200D01*
X159904761Y-106007200D02*
X159857142Y-105959580D01*
X159857142Y-105959580D02*
X159761904Y-105816723D01*
X159761904Y-105816723D02*
X159714285Y-105626247D01*
X159714285Y-105626247D02*
X159714285Y-105245295D01*
X159714285Y-105245295D02*
X159761904Y-105150057D01*
X159761904Y-105150057D02*
X159809523Y-105102438D01*
X159809523Y-105102438D02*
X159904761Y-105054819D01*
X159904761Y-105054819D02*
X160095237Y-105054819D01*
X160095237Y-105054819D02*
X160190475Y-105102438D01*
X160190475Y-105102438D02*
X160238094Y-105150057D01*
X160238094Y-105150057D02*
X160285713Y-105245295D01*
X160285713Y-105245295D02*
X160285713Y-105483390D01*
X160285713Y-105483390D02*
X160238094Y-105578628D01*
X160238094Y-105578628D02*
X160190475Y-105626247D01*
X160190475Y-105626247D02*
X160095237Y-105673866D01*
X160095237Y-105673866D02*
X159904761Y-105673866D01*
X159904761Y-105673866D02*
X159809523Y-105626247D01*
X159809523Y-105626247D02*
X159761904Y-105578628D01*
X159761904Y-105578628D02*
X159714285Y-105483390D01*
X156631009Y-93714285D02*
X156678628Y-93857142D01*
X156678628Y-93857142D02*
X156726247Y-93904761D01*
X156726247Y-93904761D02*
X156821485Y-93952380D01*
X156821485Y-93952380D02*
X156964342Y-93952380D01*
X156964342Y-93952380D02*
X157059580Y-93904761D01*
X157059580Y-93904761D02*
X157107200Y-93857142D01*
X157107200Y-93857142D02*
X157154819Y-93761904D01*
X157154819Y-93761904D02*
X157154819Y-93380952D01*
X157154819Y-93380952D02*
X156154819Y-93380952D01*
X156154819Y-93380952D02*
X156154819Y-93714285D01*
X156154819Y-93714285D02*
X156202438Y-93809523D01*
X156202438Y-93809523D02*
X156250057Y-93857142D01*
X156250057Y-93857142D02*
X156345295Y-93904761D01*
X156345295Y-93904761D02*
X156440533Y-93904761D01*
X156440533Y-93904761D02*
X156535771Y-93857142D01*
X156535771Y-93857142D02*
X156583390Y-93809523D01*
X156583390Y-93809523D02*
X156631009Y-93714285D01*
X156631009Y-93714285D02*
X156631009Y-93380952D01*
X156154819Y-94238095D02*
X156154819Y-94809523D01*
X157154819Y-94523809D02*
X156154819Y-94523809D01*
X157154819Y-95666666D02*
X157154819Y-95095238D01*
X157154819Y-95380952D02*
X156154819Y-95380952D01*
X156154819Y-95380952D02*
X156297676Y-95285714D01*
X156297676Y-95285714D02*
X156392914Y-95190476D01*
X156392914Y-95190476D02*
X156440533Y-95095238D01*
X168554819Y-110957142D02*
X168078628Y-110623809D01*
X168554819Y-110385714D02*
X167554819Y-110385714D01*
X167554819Y-110385714D02*
X167554819Y-110766666D01*
X167554819Y-110766666D02*
X167602438Y-110861904D01*
X167602438Y-110861904D02*
X167650057Y-110909523D01*
X167650057Y-110909523D02*
X167745295Y-110957142D01*
X167745295Y-110957142D02*
X167888152Y-110957142D01*
X167888152Y-110957142D02*
X167983390Y-110909523D01*
X167983390Y-110909523D02*
X168031009Y-110861904D01*
X168031009Y-110861904D02*
X168078628Y-110766666D01*
X168078628Y-110766666D02*
X168078628Y-110385714D01*
X168554819Y-111909523D02*
X168554819Y-111338095D01*
X168554819Y-111623809D02*
X167554819Y-111623809D01*
X167554819Y-111623809D02*
X167697676Y-111528571D01*
X167697676Y-111528571D02*
X167792914Y-111433333D01*
X167792914Y-111433333D02*
X167840533Y-111338095D01*
X167554819Y-112528571D02*
X167554819Y-112623809D01*
X167554819Y-112623809D02*
X167602438Y-112719047D01*
X167602438Y-112719047D02*
X167650057Y-112766666D01*
X167650057Y-112766666D02*
X167745295Y-112814285D01*
X167745295Y-112814285D02*
X167935771Y-112861904D01*
X167935771Y-112861904D02*
X168173866Y-112861904D01*
X168173866Y-112861904D02*
X168364342Y-112814285D01*
X168364342Y-112814285D02*
X168459580Y-112766666D01*
X168459580Y-112766666D02*
X168507200Y-112719047D01*
X168507200Y-112719047D02*
X168554819Y-112623809D01*
X168554819Y-112623809D02*
X168554819Y-112528571D01*
X168554819Y-112528571D02*
X168507200Y-112433333D01*
X168507200Y-112433333D02*
X168459580Y-112385714D01*
X168459580Y-112385714D02*
X168364342Y-112338095D01*
X168364342Y-112338095D02*
X168173866Y-112290476D01*
X168173866Y-112290476D02*
X167935771Y-112290476D01*
X167935771Y-112290476D02*
X167745295Y-112338095D01*
X167745295Y-112338095D02*
X167650057Y-112385714D01*
X167650057Y-112385714D02*
X167602438Y-112433333D01*
X167602438Y-112433333D02*
X167554819Y-112528571D01*
X166438094Y-113154819D02*
X166438094Y-112154819D01*
X166438094Y-112154819D02*
X166199999Y-112154819D01*
X166199999Y-112154819D02*
X166057142Y-112202438D01*
X166057142Y-112202438D02*
X165961904Y-112297676D01*
X165961904Y-112297676D02*
X165914285Y-112392914D01*
X165914285Y-112392914D02*
X165866666Y-112583390D01*
X165866666Y-112583390D02*
X165866666Y-112726247D01*
X165866666Y-112726247D02*
X165914285Y-112916723D01*
X165914285Y-112916723D02*
X165961904Y-113011961D01*
X165961904Y-113011961D02*
X166057142Y-113107200D01*
X166057142Y-113107200D02*
X166199999Y-113154819D01*
X166199999Y-113154819D02*
X166438094Y-113154819D01*
X165533332Y-112154819D02*
X164914285Y-112154819D01*
X164914285Y-112154819D02*
X165247618Y-112535771D01*
X165247618Y-112535771D02*
X165104761Y-112535771D01*
X165104761Y-112535771D02*
X165009523Y-112583390D01*
X165009523Y-112583390D02*
X164961904Y-112631009D01*
X164961904Y-112631009D02*
X164914285Y-112726247D01*
X164914285Y-112726247D02*
X164914285Y-112964342D01*
X164914285Y-112964342D02*
X164961904Y-113059580D01*
X164961904Y-113059580D02*
X165009523Y-113107200D01*
X165009523Y-113107200D02*
X165104761Y-113154819D01*
X165104761Y-113154819D02*
X165390475Y-113154819D01*
X165390475Y-113154819D02*
X165485713Y-113107200D01*
X165485713Y-113107200D02*
X165533332Y-113059580D01*
X164354819Y-107561905D02*
X163354819Y-107561905D01*
X163354819Y-107561905D02*
X163354819Y-107800000D01*
X163354819Y-107800000D02*
X163402438Y-107942857D01*
X163402438Y-107942857D02*
X163497676Y-108038095D01*
X163497676Y-108038095D02*
X163592914Y-108085714D01*
X163592914Y-108085714D02*
X163783390Y-108133333D01*
X163783390Y-108133333D02*
X163926247Y-108133333D01*
X163926247Y-108133333D02*
X164116723Y-108085714D01*
X164116723Y-108085714D02*
X164211961Y-108038095D01*
X164211961Y-108038095D02*
X164307200Y-107942857D01*
X164307200Y-107942857D02*
X164354819Y-107800000D01*
X164354819Y-107800000D02*
X164354819Y-107561905D01*
X163688152Y-108990476D02*
X164354819Y-108990476D01*
X163307200Y-108752381D02*
X164021485Y-108514286D01*
X164021485Y-108514286D02*
X164021485Y-109133333D01*
X177238094Y-111754819D02*
X177238094Y-110754819D01*
X177238094Y-110754819D02*
X176999999Y-110754819D01*
X176999999Y-110754819D02*
X176857142Y-110802438D01*
X176857142Y-110802438D02*
X176761904Y-110897676D01*
X176761904Y-110897676D02*
X176714285Y-110992914D01*
X176714285Y-110992914D02*
X176666666Y-111183390D01*
X176666666Y-111183390D02*
X176666666Y-111326247D01*
X176666666Y-111326247D02*
X176714285Y-111516723D01*
X176714285Y-111516723D02*
X176761904Y-111611961D01*
X176761904Y-111611961D02*
X176857142Y-111707200D01*
X176857142Y-111707200D02*
X176999999Y-111754819D01*
X176999999Y-111754819D02*
X177238094Y-111754819D01*
X175714285Y-111754819D02*
X176285713Y-111754819D01*
X175999999Y-111754819D02*
X175999999Y-110754819D01*
X175999999Y-110754819D02*
X176095237Y-110897676D01*
X176095237Y-110897676D02*
X176190475Y-110992914D01*
X176190475Y-110992914D02*
X176285713Y-111040533D01*
X168138094Y-95354819D02*
X168138094Y-94354819D01*
X168138094Y-94354819D02*
X167899999Y-94354819D01*
X167899999Y-94354819D02*
X167757142Y-94402438D01*
X167757142Y-94402438D02*
X167661904Y-94497676D01*
X167661904Y-94497676D02*
X167614285Y-94592914D01*
X167614285Y-94592914D02*
X167566666Y-94783390D01*
X167566666Y-94783390D02*
X167566666Y-94926247D01*
X167566666Y-94926247D02*
X167614285Y-95116723D01*
X167614285Y-95116723D02*
X167661904Y-95211961D01*
X167661904Y-95211961D02*
X167757142Y-95307200D01*
X167757142Y-95307200D02*
X167899999Y-95354819D01*
X167899999Y-95354819D02*
X168138094Y-95354819D01*
X166661904Y-94354819D02*
X167138094Y-94354819D01*
X167138094Y-94354819D02*
X167185713Y-94831009D01*
X167185713Y-94831009D02*
X167138094Y-94783390D01*
X167138094Y-94783390D02*
X167042856Y-94735771D01*
X167042856Y-94735771D02*
X166804761Y-94735771D01*
X166804761Y-94735771D02*
X166709523Y-94783390D01*
X166709523Y-94783390D02*
X166661904Y-94831009D01*
X166661904Y-94831009D02*
X166614285Y-94926247D01*
X166614285Y-94926247D02*
X166614285Y-95164342D01*
X166614285Y-95164342D02*
X166661904Y-95259580D01*
X166661904Y-95259580D02*
X166709523Y-95307200D01*
X166709523Y-95307200D02*
X166804761Y-95354819D01*
X166804761Y-95354819D02*
X167042856Y-95354819D01*
X167042856Y-95354819D02*
X167138094Y-95307200D01*
X167138094Y-95307200D02*
X167185713Y-95259580D01*
X178966666Y-107854819D02*
X179299999Y-107378628D01*
X179538094Y-107854819D02*
X179538094Y-106854819D01*
X179538094Y-106854819D02*
X179157142Y-106854819D01*
X179157142Y-106854819D02*
X179061904Y-106902438D01*
X179061904Y-106902438D02*
X179014285Y-106950057D01*
X179014285Y-106950057D02*
X178966666Y-107045295D01*
X178966666Y-107045295D02*
X178966666Y-107188152D01*
X178966666Y-107188152D02*
X179014285Y-107283390D01*
X179014285Y-107283390D02*
X179061904Y-107331009D01*
X179061904Y-107331009D02*
X179157142Y-107378628D01*
X179157142Y-107378628D02*
X179538094Y-107378628D01*
X178061904Y-106854819D02*
X178538094Y-106854819D01*
X178538094Y-106854819D02*
X178585713Y-107331009D01*
X178585713Y-107331009D02*
X178538094Y-107283390D01*
X178538094Y-107283390D02*
X178442856Y-107235771D01*
X178442856Y-107235771D02*
X178204761Y-107235771D01*
X178204761Y-107235771D02*
X178109523Y-107283390D01*
X178109523Y-107283390D02*
X178061904Y-107331009D01*
X178061904Y-107331009D02*
X178014285Y-107426247D01*
X178014285Y-107426247D02*
X178014285Y-107664342D01*
X178014285Y-107664342D02*
X178061904Y-107759580D01*
X178061904Y-107759580D02*
X178109523Y-107807200D01*
X178109523Y-107807200D02*
X178204761Y-107854819D01*
X178204761Y-107854819D02*
X178442856Y-107854819D01*
X178442856Y-107854819D02*
X178538094Y-107807200D01*
X178538094Y-107807200D02*
X178585713Y-107759580D01*
X167361904Y-100854819D02*
X167361904Y-101664342D01*
X167361904Y-101664342D02*
X167314285Y-101759580D01*
X167314285Y-101759580D02*
X167266666Y-101807200D01*
X167266666Y-101807200D02*
X167171428Y-101854819D01*
X167171428Y-101854819D02*
X166980952Y-101854819D01*
X166980952Y-101854819D02*
X166885714Y-101807200D01*
X166885714Y-101807200D02*
X166838095Y-101759580D01*
X166838095Y-101759580D02*
X166790476Y-101664342D01*
X166790476Y-101664342D02*
X166790476Y-100854819D01*
X166409523Y-100854819D02*
X165790476Y-100854819D01*
X165790476Y-100854819D02*
X166123809Y-101235771D01*
X166123809Y-101235771D02*
X165980952Y-101235771D01*
X165980952Y-101235771D02*
X165885714Y-101283390D01*
X165885714Y-101283390D02*
X165838095Y-101331009D01*
X165838095Y-101331009D02*
X165790476Y-101426247D01*
X165790476Y-101426247D02*
X165790476Y-101664342D01*
X165790476Y-101664342D02*
X165838095Y-101759580D01*
X165838095Y-101759580D02*
X165885714Y-101807200D01*
X165885714Y-101807200D02*
X165980952Y-101854819D01*
X165980952Y-101854819D02*
X166266666Y-101854819D01*
X166266666Y-101854819D02*
X166361904Y-101807200D01*
X166361904Y-101807200D02*
X166409523Y-101759580D01*
X162066144Y-107670328D02*
X162113763Y-107717948D01*
X162113763Y-107717948D02*
X162256620Y-107765567D01*
X162256620Y-107765567D02*
X162351858Y-107765567D01*
X162351858Y-107765567D02*
X162494715Y-107717948D01*
X162494715Y-107717948D02*
X162589953Y-107622709D01*
X162589953Y-107622709D02*
X162637572Y-107527471D01*
X162637572Y-107527471D02*
X162685191Y-107336995D01*
X162685191Y-107336995D02*
X162685191Y-107194138D01*
X162685191Y-107194138D02*
X162637572Y-107003662D01*
X162637572Y-107003662D02*
X162589953Y-106908424D01*
X162589953Y-106908424D02*
X162494715Y-106813186D01*
X162494715Y-106813186D02*
X162351858Y-106765567D01*
X162351858Y-106765567D02*
X162256620Y-106765567D01*
X162256620Y-106765567D02*
X162113763Y-106813186D01*
X162113763Y-106813186D02*
X162066144Y-106860805D01*
X161685191Y-106860805D02*
X161637572Y-106813186D01*
X161637572Y-106813186D02*
X161542334Y-106765567D01*
X161542334Y-106765567D02*
X161304239Y-106765567D01*
X161304239Y-106765567D02*
X161209001Y-106813186D01*
X161209001Y-106813186D02*
X161161382Y-106860805D01*
X161161382Y-106860805D02*
X161113763Y-106956043D01*
X161113763Y-106956043D02*
X161113763Y-107051281D01*
X161113763Y-107051281D02*
X161161382Y-107194138D01*
X161161382Y-107194138D02*
X161732810Y-107765567D01*
X161732810Y-107765567D02*
X161113763Y-107765567D01*
X160780429Y-106765567D02*
X160161382Y-106765567D01*
X160161382Y-106765567D02*
X160494715Y-107146519D01*
X160494715Y-107146519D02*
X160351858Y-107146519D01*
X160351858Y-107146519D02*
X160256620Y-107194138D01*
X160256620Y-107194138D02*
X160209001Y-107241757D01*
X160209001Y-107241757D02*
X160161382Y-107336995D01*
X160161382Y-107336995D02*
X160161382Y-107575090D01*
X160161382Y-107575090D02*
X160209001Y-107670328D01*
X160209001Y-107670328D02*
X160256620Y-107717948D01*
X160256620Y-107717948D02*
X160351858Y-107765567D01*
X160351858Y-107765567D02*
X160637572Y-107765567D01*
X160637572Y-107765567D02*
X160732810Y-107717948D01*
X160732810Y-107717948D02*
X160780429Y-107670328D01*
X176666666Y-107754819D02*
X176999999Y-107278628D01*
X177238094Y-107754819D02*
X177238094Y-106754819D01*
X177238094Y-106754819D02*
X176857142Y-106754819D01*
X176857142Y-106754819D02*
X176761904Y-106802438D01*
X176761904Y-106802438D02*
X176714285Y-106850057D01*
X176714285Y-106850057D02*
X176666666Y-106945295D01*
X176666666Y-106945295D02*
X176666666Y-107088152D01*
X176666666Y-107088152D02*
X176714285Y-107183390D01*
X176714285Y-107183390D02*
X176761904Y-107231009D01*
X176761904Y-107231009D02*
X176857142Y-107278628D01*
X176857142Y-107278628D02*
X177238094Y-107278628D01*
X175809523Y-107088152D02*
X175809523Y-107754819D01*
X176047618Y-106707200D02*
X176285713Y-107421485D01*
X176285713Y-107421485D02*
X175666666Y-107421485D01*
X149024404Y-105004819D02*
X149024404Y-105814342D01*
X149024404Y-105814342D02*
X148976785Y-105909580D01*
X148976785Y-105909580D02*
X148929166Y-105957200D01*
X148929166Y-105957200D02*
X148833928Y-106004819D01*
X148833928Y-106004819D02*
X148643452Y-106004819D01*
X148643452Y-106004819D02*
X148548214Y-105957200D01*
X148548214Y-105957200D02*
X148500595Y-105909580D01*
X148500595Y-105909580D02*
X148452976Y-105814342D01*
X148452976Y-105814342D02*
X148452976Y-105004819D01*
X147500595Y-105004819D02*
X147976785Y-105004819D01*
X147976785Y-105004819D02*
X148024404Y-105481009D01*
X148024404Y-105481009D02*
X147976785Y-105433390D01*
X147976785Y-105433390D02*
X147881547Y-105385771D01*
X147881547Y-105385771D02*
X147643452Y-105385771D01*
X147643452Y-105385771D02*
X147548214Y-105433390D01*
X147548214Y-105433390D02*
X147500595Y-105481009D01*
X147500595Y-105481009D02*
X147452976Y-105576247D01*
X147452976Y-105576247D02*
X147452976Y-105814342D01*
X147452976Y-105814342D02*
X147500595Y-105909580D01*
X147500595Y-105909580D02*
X147548214Y-105957200D01*
X147548214Y-105957200D02*
X147643452Y-106004819D01*
X147643452Y-106004819D02*
X147881547Y-106004819D01*
X147881547Y-106004819D02*
X147976785Y-105957200D01*
X147976785Y-105957200D02*
X148024404Y-105909580D01*
X174366666Y-107854819D02*
X174699999Y-107378628D01*
X174938094Y-107854819D02*
X174938094Y-106854819D01*
X174938094Y-106854819D02*
X174557142Y-106854819D01*
X174557142Y-106854819D02*
X174461904Y-106902438D01*
X174461904Y-106902438D02*
X174414285Y-106950057D01*
X174414285Y-106950057D02*
X174366666Y-107045295D01*
X174366666Y-107045295D02*
X174366666Y-107188152D01*
X174366666Y-107188152D02*
X174414285Y-107283390D01*
X174414285Y-107283390D02*
X174461904Y-107331009D01*
X174461904Y-107331009D02*
X174557142Y-107378628D01*
X174557142Y-107378628D02*
X174938094Y-107378628D01*
X173509523Y-106854819D02*
X173699999Y-106854819D01*
X173699999Y-106854819D02*
X173795237Y-106902438D01*
X173795237Y-106902438D02*
X173842856Y-106950057D01*
X173842856Y-106950057D02*
X173938094Y-107092914D01*
X173938094Y-107092914D02*
X173985713Y-107283390D01*
X173985713Y-107283390D02*
X173985713Y-107664342D01*
X173985713Y-107664342D02*
X173938094Y-107759580D01*
X173938094Y-107759580D02*
X173890475Y-107807200D01*
X173890475Y-107807200D02*
X173795237Y-107854819D01*
X173795237Y-107854819D02*
X173604761Y-107854819D01*
X173604761Y-107854819D02*
X173509523Y-107807200D01*
X173509523Y-107807200D02*
X173461904Y-107759580D01*
X173461904Y-107759580D02*
X173414285Y-107664342D01*
X173414285Y-107664342D02*
X173414285Y-107426247D01*
X173414285Y-107426247D02*
X173461904Y-107331009D01*
X173461904Y-107331009D02*
X173509523Y-107283390D01*
X173509523Y-107283390D02*
X173604761Y-107235771D01*
X173604761Y-107235771D02*
X173795237Y-107235771D01*
X173795237Y-107235771D02*
X173890475Y-107283390D01*
X173890475Y-107283390D02*
X173938094Y-107331009D01*
X173938094Y-107331009D02*
X173985713Y-107426247D01*
X145342857Y-95859580D02*
X145390476Y-95907200D01*
X145390476Y-95907200D02*
X145533333Y-95954819D01*
X145533333Y-95954819D02*
X145628571Y-95954819D01*
X145628571Y-95954819D02*
X145771428Y-95907200D01*
X145771428Y-95907200D02*
X145866666Y-95811961D01*
X145866666Y-95811961D02*
X145914285Y-95716723D01*
X145914285Y-95716723D02*
X145961904Y-95526247D01*
X145961904Y-95526247D02*
X145961904Y-95383390D01*
X145961904Y-95383390D02*
X145914285Y-95192914D01*
X145914285Y-95192914D02*
X145866666Y-95097676D01*
X145866666Y-95097676D02*
X145771428Y-95002438D01*
X145771428Y-95002438D02*
X145628571Y-94954819D01*
X145628571Y-94954819D02*
X145533333Y-94954819D01*
X145533333Y-94954819D02*
X145390476Y-95002438D01*
X145390476Y-95002438D02*
X145342857Y-95050057D01*
X144961904Y-95050057D02*
X144914285Y-95002438D01*
X144914285Y-95002438D02*
X144819047Y-94954819D01*
X144819047Y-94954819D02*
X144580952Y-94954819D01*
X144580952Y-94954819D02*
X144485714Y-95002438D01*
X144485714Y-95002438D02*
X144438095Y-95050057D01*
X144438095Y-95050057D02*
X144390476Y-95145295D01*
X144390476Y-95145295D02*
X144390476Y-95240533D01*
X144390476Y-95240533D02*
X144438095Y-95383390D01*
X144438095Y-95383390D02*
X145009523Y-95954819D01*
X145009523Y-95954819D02*
X144390476Y-95954819D01*
X143438095Y-95954819D02*
X144009523Y-95954819D01*
X143723809Y-95954819D02*
X143723809Y-94954819D01*
X143723809Y-94954819D02*
X143819047Y-95097676D01*
X143819047Y-95097676D02*
X143914285Y-95192914D01*
X143914285Y-95192914D02*
X144009523Y-95240533D01*
X151766666Y-104754819D02*
X152099999Y-104278628D01*
X152338094Y-104754819D02*
X152338094Y-103754819D01*
X152338094Y-103754819D02*
X151957142Y-103754819D01*
X151957142Y-103754819D02*
X151861904Y-103802438D01*
X151861904Y-103802438D02*
X151814285Y-103850057D01*
X151814285Y-103850057D02*
X151766666Y-103945295D01*
X151766666Y-103945295D02*
X151766666Y-104088152D01*
X151766666Y-104088152D02*
X151814285Y-104183390D01*
X151814285Y-104183390D02*
X151861904Y-104231009D01*
X151861904Y-104231009D02*
X151957142Y-104278628D01*
X151957142Y-104278628D02*
X152338094Y-104278628D01*
X151433332Y-103754819D02*
X150766666Y-103754819D01*
X150766666Y-103754819D02*
X151195237Y-104754819D01*
D12*
%TO.C,R8*%
X146265000Y-99327064D02*
X146265000Y-98872936D01*
X147735000Y-99327064D02*
X147735000Y-98872936D01*
%TO.C,Q2*%
X152040000Y-108212500D02*
X152040000Y-108862500D01*
X152040000Y-109512500D02*
X152040000Y-108862500D01*
X155160000Y-108212500D02*
X155160000Y-108862500D01*
X155160000Y-109512500D02*
X155160000Y-108862500D01*
X152090000Y-107700000D02*
X151760000Y-107940000D01*
X151760000Y-107460000D01*
X152090000Y-107700000D01*
G36*
X152090000Y-107700000D02*
G01*
X151760000Y-107940000D01*
X151760000Y-107460000D01*
X152090000Y-107700000D01*
G37*
%TO.C,Q1*%
X157990000Y-109787500D02*
X157990000Y-110437500D01*
X157990000Y-111087500D02*
X157990000Y-110437500D01*
X161110000Y-109787500D02*
X161110000Y-110437500D01*
X161110000Y-111087500D02*
X161110000Y-110437500D01*
X158040000Y-109275000D02*
X157710000Y-109515000D01*
X157710000Y-109035000D01*
X158040000Y-109275000D01*
G36*
X158040000Y-109275000D02*
G01*
X157710000Y-109515000D01*
X157710000Y-109035000D01*
X158040000Y-109275000D01*
G37*
%TO.C,R9*%
X161865000Y-104372936D02*
X161865000Y-104827064D01*
X163335000Y-104372936D02*
X163335000Y-104827064D01*
%TO.C,BT1*%
X148150000Y-99400000D02*
X148150000Y-78500000D01*
X149950000Y-101200000D02*
X148150000Y-99400000D01*
X150171100Y-102575883D02*
X152171100Y-102575883D01*
X151171100Y-103575883D02*
X151171100Y-101575883D01*
X152650000Y-75300000D02*
X152650000Y-78500000D01*
X152650000Y-78500000D02*
X148150000Y-78500000D01*
X152650000Y-101200000D02*
X149950000Y-101200000D01*
X152650000Y-104400000D02*
X152650000Y-101200000D01*
X154200000Y-75300000D02*
X152650000Y-75300000D01*
X154200000Y-104400000D02*
X152650000Y-104400000D01*
X158800000Y-75300000D02*
X160350000Y-75300000D01*
X158800000Y-104400000D02*
X160350000Y-104400000D01*
X160350000Y-75300000D02*
X160350000Y-78500000D01*
X160350000Y-78500000D02*
X164850000Y-78500000D01*
X160350000Y-101200000D02*
X164850000Y-101200000D01*
X160350000Y-104400000D02*
X160350000Y-101200000D01*
X164850000Y-78500000D02*
X164850000Y-101200000D01*
%TO.C,R10*%
X167065000Y-107372936D02*
X167065000Y-107827064D01*
X168535000Y-107372936D02*
X168535000Y-107827064D01*
%TO.C,D3*%
X163815000Y-110040000D02*
X163815000Y-111960000D01*
X163815000Y-111960000D02*
X166500000Y-111960000D01*
X166500000Y-110040000D02*
X163815000Y-110040000D01*
%TO.C,D4*%
X164640000Y-106015000D02*
X164640000Y-108700000D01*
X166560000Y-106015000D02*
X164640000Y-106015000D01*
X166560000Y-108700000D02*
X166560000Y-106015000D01*
%TO.C,D1*%
X174300000Y-108448223D02*
X174300000Y-109098223D01*
X175000000Y-108448223D02*
X174300000Y-108448223D01*
X177500000Y-109748223D02*
G75*
G02*
X175500000Y-109748223I-1000000J400000D01*
G01*
%TO.C,D5*%
X166290000Y-96970000D02*
X166290000Y-98380000D01*
X166290000Y-96970000D02*
X166950000Y-96970000D01*
X167950000Y-96970000D02*
X168610000Y-96970000D01*
X168610000Y-96970000D02*
X168610000Y-98380000D01*
X168920000Y-98990000D02*
X168590000Y-98750000D01*
X168920000Y-98510000D01*
X168920000Y-98990000D01*
G36*
X168920000Y-98990000D02*
G01*
X168590000Y-98750000D01*
X168920000Y-98510000D01*
X168920000Y-98990000D01*
G37*
%TO.C,R5*%
X177965000Y-104472937D02*
X177965000Y-104927065D01*
X179435000Y-104472937D02*
X179435000Y-104927065D01*
%TO.C,U3*%
X165300000Y-102140000D02*
X166100000Y-102140000D01*
X165300000Y-105260000D02*
X166100000Y-105260000D01*
X166900000Y-102140000D02*
X166100000Y-102140000D01*
X166900000Y-105260000D02*
X166100000Y-105260000D01*
X165040000Y-105540000D02*
X164560000Y-105540000D01*
X164800000Y-105210000D01*
X165040000Y-105540000D01*
G36*
X165040000Y-105540000D02*
G01*
X164560000Y-105540000D01*
X164800000Y-105210000D01*
X165040000Y-105540000D01*
G37*
%TO.C,C23*%
X157738748Y-106665000D02*
X158261252Y-106665000D01*
X157738748Y-108135000D02*
X158261252Y-108135000D01*
%TO.C,R4*%
X175765000Y-104472937D02*
X175765000Y-104927065D01*
X177235000Y-104472937D02*
X177235000Y-104927065D01*
%TO.C,U5*%
X147462500Y-101590000D02*
X148262500Y-101590000D01*
X147462500Y-104710000D02*
X148262500Y-104710000D01*
X149062500Y-101590000D02*
X148262500Y-101590000D01*
X149062500Y-104710000D02*
X148262500Y-104710000D01*
X147202500Y-104990000D02*
X146722500Y-104990000D01*
X146962500Y-104660000D01*
X147202500Y-104990000D01*
G36*
X147202500Y-104990000D02*
G01*
X146722500Y-104990000D01*
X146962500Y-104660000D01*
X147202500Y-104990000D01*
G37*
%TO.C,R6*%
X173465000Y-104472937D02*
X173465000Y-104927065D01*
X174935000Y-104472937D02*
X174935000Y-104927065D01*
%TO.C,C21*%
X145735000Y-98661252D02*
X145735000Y-98138748D01*
X144265000Y-98661252D02*
X144265000Y-98138748D01*
%TO.C,R7*%
X151972936Y-104965000D02*
X152427064Y-104965000D01*
X151972936Y-106435000D02*
X152427064Y-106435000D01*
%TD*%
M02*
