%TF.GenerationSoftware,KiCad,Pcbnew,8.0.7*%
%TF.CreationDate,2025-05-01T01:05:52-07:00*%
%TF.ProjectId,salp_board,73616c70-5f62-46f6-9172-642e6b696361,rev?*%
%TF.SameCoordinates,Original*%
%TF.FileFunction,Drillmap*%
%TF.FilePolarity,Positive*%
%FSLAX45Y45*%
G04 Gerber Fmt 4.5, Leading zero omitted, Abs format (unit mm)*
G04 Created by KiCad (PCBNEW 8.0.7) date 2025-05-01 01:05:52*
%MOMM*%
%LPD*%
G01*
G04 APERTURE LIST*
%ADD10C,0.050000*%
%ADD11C,0.200000*%
%ADD12C,0.220000*%
G04 APERTURE END LIST*
D10*
X19637400Y-11480800D02*
X13560400Y-11480800D01*
X13360400Y-11280800D02*
X13360400Y-5813400D01*
X13560400Y-5613400D02*
X19637400Y-5613400D01*
X13560400Y-11480800D02*
G75*
G02*
X13360400Y-11280800I0J200000D01*
G01*
X19637400Y-5613400D02*
G75*
G02*
X19837400Y-5813400I0J-200000D01*
G01*
X19837400Y-5813400D02*
X19837400Y-11280800D01*
X19837400Y-11280800D02*
G75*
G02*
X19637400Y-11480800I-200000J0D01*
G01*
X13360400Y-5813400D02*
G75*
G02*
X13560400Y-5613400I200000J0D01*
G01*
D11*
D12*
X13720300Y-5846300D02*
X13940300Y-6066300D01*
X13940300Y-5846300D02*
X13720300Y-6066300D01*
X13720300Y-11066000D02*
X13940300Y-11286000D01*
X13940300Y-11066000D02*
X13720300Y-11286000D01*
X19346400Y-5833600D02*
X19566400Y-6053600D01*
X19566400Y-5833600D02*
X19346400Y-6053600D01*
X19346400Y-11053300D02*
X19566400Y-11273300D01*
X19566400Y-11053300D02*
X19346400Y-11273300D01*
D11*
X13618677Y-11794784D02*
X13618677Y-11594784D01*
X13618677Y-11594784D02*
X13666296Y-11594784D01*
X13666296Y-11594784D02*
X13694867Y-11604308D01*
X13694867Y-11604308D02*
X13713915Y-11623355D01*
X13713915Y-11623355D02*
X13723439Y-11642403D01*
X13723439Y-11642403D02*
X13732962Y-11680498D01*
X13732962Y-11680498D02*
X13732962Y-11709069D01*
X13732962Y-11709069D02*
X13723439Y-11747165D01*
X13723439Y-11747165D02*
X13713915Y-11766212D01*
X13713915Y-11766212D02*
X13694867Y-11785260D01*
X13694867Y-11785260D02*
X13666296Y-11794784D01*
X13666296Y-11794784D02*
X13618677Y-11794784D01*
X13818677Y-11794784D02*
X13818677Y-11661450D01*
X13818677Y-11699546D02*
X13828201Y-11680498D01*
X13828201Y-11680498D02*
X13837724Y-11670974D01*
X13837724Y-11670974D02*
X13856772Y-11661450D01*
X13856772Y-11661450D02*
X13875820Y-11661450D01*
X13942486Y-11794784D02*
X13942486Y-11661450D01*
X13942486Y-11594784D02*
X13932962Y-11604308D01*
X13932962Y-11604308D02*
X13942486Y-11613831D01*
X13942486Y-11613831D02*
X13952010Y-11604308D01*
X13952010Y-11604308D02*
X13942486Y-11594784D01*
X13942486Y-11594784D02*
X13942486Y-11613831D01*
X14066296Y-11794784D02*
X14047248Y-11785260D01*
X14047248Y-11785260D02*
X14037724Y-11766212D01*
X14037724Y-11766212D02*
X14037724Y-11594784D01*
X14171058Y-11794784D02*
X14152010Y-11785260D01*
X14152010Y-11785260D02*
X14142486Y-11766212D01*
X14142486Y-11766212D02*
X14142486Y-11594784D01*
X14399629Y-11794784D02*
X14399629Y-11594784D01*
X14399629Y-11594784D02*
X14466296Y-11737641D01*
X14466296Y-11737641D02*
X14532962Y-11594784D01*
X14532962Y-11594784D02*
X14532962Y-11794784D01*
X14713915Y-11794784D02*
X14713915Y-11690022D01*
X14713915Y-11690022D02*
X14704391Y-11670974D01*
X14704391Y-11670974D02*
X14685343Y-11661450D01*
X14685343Y-11661450D02*
X14647248Y-11661450D01*
X14647248Y-11661450D02*
X14628201Y-11670974D01*
X14713915Y-11785260D02*
X14694867Y-11794784D01*
X14694867Y-11794784D02*
X14647248Y-11794784D01*
X14647248Y-11794784D02*
X14628201Y-11785260D01*
X14628201Y-11785260D02*
X14618677Y-11766212D01*
X14618677Y-11766212D02*
X14618677Y-11747165D01*
X14618677Y-11747165D02*
X14628201Y-11728117D01*
X14628201Y-11728117D02*
X14647248Y-11718593D01*
X14647248Y-11718593D02*
X14694867Y-11718593D01*
X14694867Y-11718593D02*
X14713915Y-11709069D01*
X14809153Y-11661450D02*
X14809153Y-11861450D01*
X14809153Y-11670974D02*
X14828201Y-11661450D01*
X14828201Y-11661450D02*
X14866296Y-11661450D01*
X14866296Y-11661450D02*
X14885343Y-11670974D01*
X14885343Y-11670974D02*
X14894867Y-11680498D01*
X14894867Y-11680498D02*
X14904391Y-11699546D01*
X14904391Y-11699546D02*
X14904391Y-11756688D01*
X14904391Y-11756688D02*
X14894867Y-11775736D01*
X14894867Y-11775736D02*
X14885343Y-11785260D01*
X14885343Y-11785260D02*
X14866296Y-11794784D01*
X14866296Y-11794784D02*
X14828201Y-11794784D01*
X14828201Y-11794784D02*
X14809153Y-11785260D01*
X14990105Y-11775736D02*
X14999629Y-11785260D01*
X14999629Y-11785260D02*
X14990105Y-11794784D01*
X14990105Y-11794784D02*
X14980582Y-11785260D01*
X14980582Y-11785260D02*
X14990105Y-11775736D01*
X14990105Y-11775736D02*
X14990105Y-11794784D01*
X14990105Y-11670974D02*
X14999629Y-11680498D01*
X14999629Y-11680498D02*
X14990105Y-11690022D01*
X14990105Y-11690022D02*
X14980582Y-11680498D01*
X14980582Y-11680498D02*
X14990105Y-11670974D01*
X14990105Y-11670974D02*
X14990105Y-11690022D01*
X13157900Y-12023300D02*
X13357900Y-12223300D01*
X13357900Y-12023300D02*
X13157900Y-12223300D01*
X13609153Y-12033831D02*
X13618677Y-12024308D01*
X13618677Y-12024308D02*
X13637724Y-12014784D01*
X13637724Y-12014784D02*
X13685343Y-12014784D01*
X13685343Y-12014784D02*
X13704391Y-12024308D01*
X13704391Y-12024308D02*
X13713915Y-12033831D01*
X13713915Y-12033831D02*
X13723439Y-12052879D01*
X13723439Y-12052879D02*
X13723439Y-12071927D01*
X13723439Y-12071927D02*
X13713915Y-12100498D01*
X13713915Y-12100498D02*
X13599629Y-12214784D01*
X13599629Y-12214784D02*
X13723439Y-12214784D01*
X13809153Y-12195736D02*
X13818677Y-12205260D01*
X13818677Y-12205260D02*
X13809153Y-12214784D01*
X13809153Y-12214784D02*
X13799629Y-12205260D01*
X13799629Y-12205260D02*
X13809153Y-12195736D01*
X13809153Y-12195736D02*
X13809153Y-12214784D01*
X13894867Y-12033831D02*
X13904391Y-12024308D01*
X13904391Y-12024308D02*
X13923439Y-12014784D01*
X13923439Y-12014784D02*
X13971058Y-12014784D01*
X13971058Y-12014784D02*
X13990105Y-12024308D01*
X13990105Y-12024308D02*
X13999629Y-12033831D01*
X13999629Y-12033831D02*
X14009153Y-12052879D01*
X14009153Y-12052879D02*
X14009153Y-12071927D01*
X14009153Y-12071927D02*
X13999629Y-12100498D01*
X13999629Y-12100498D02*
X13885343Y-12214784D01*
X13885343Y-12214784D02*
X14009153Y-12214784D01*
X14132962Y-12014784D02*
X14152010Y-12014784D01*
X14152010Y-12014784D02*
X14171058Y-12024308D01*
X14171058Y-12024308D02*
X14180582Y-12033831D01*
X14180582Y-12033831D02*
X14190105Y-12052879D01*
X14190105Y-12052879D02*
X14199629Y-12090974D01*
X14199629Y-12090974D02*
X14199629Y-12138593D01*
X14199629Y-12138593D02*
X14190105Y-12176688D01*
X14190105Y-12176688D02*
X14180582Y-12195736D01*
X14180582Y-12195736D02*
X14171058Y-12205260D01*
X14171058Y-12205260D02*
X14152010Y-12214784D01*
X14152010Y-12214784D02*
X14132962Y-12214784D01*
X14132962Y-12214784D02*
X14113915Y-12205260D01*
X14113915Y-12205260D02*
X14104391Y-12195736D01*
X14104391Y-12195736D02*
X14094867Y-12176688D01*
X14094867Y-12176688D02*
X14085343Y-12138593D01*
X14085343Y-12138593D02*
X14085343Y-12090974D01*
X14085343Y-12090974D02*
X14094867Y-12052879D01*
X14094867Y-12052879D02*
X14104391Y-12033831D01*
X14104391Y-12033831D02*
X14113915Y-12024308D01*
X14113915Y-12024308D02*
X14132962Y-12014784D01*
X14323439Y-12014784D02*
X14342486Y-12014784D01*
X14342486Y-12014784D02*
X14361534Y-12024308D01*
X14361534Y-12024308D02*
X14371058Y-12033831D01*
X14371058Y-12033831D02*
X14380582Y-12052879D01*
X14380582Y-12052879D02*
X14390105Y-12090974D01*
X14390105Y-12090974D02*
X14390105Y-12138593D01*
X14390105Y-12138593D02*
X14380582Y-12176688D01*
X14380582Y-12176688D02*
X14371058Y-12195736D01*
X14371058Y-12195736D02*
X14361534Y-12205260D01*
X14361534Y-12205260D02*
X14342486Y-12214784D01*
X14342486Y-12214784D02*
X14323439Y-12214784D01*
X14323439Y-12214784D02*
X14304391Y-12205260D01*
X14304391Y-12205260D02*
X14294867Y-12195736D01*
X14294867Y-12195736D02*
X14285343Y-12176688D01*
X14285343Y-12176688D02*
X14275820Y-12138593D01*
X14275820Y-12138593D02*
X14275820Y-12090974D01*
X14275820Y-12090974D02*
X14285343Y-12052879D01*
X14285343Y-12052879D02*
X14294867Y-12033831D01*
X14294867Y-12033831D02*
X14304391Y-12024308D01*
X14304391Y-12024308D02*
X14323439Y-12014784D01*
X14475820Y-12214784D02*
X14475820Y-12081450D01*
X14475820Y-12100498D02*
X14485343Y-12090974D01*
X14485343Y-12090974D02*
X14504391Y-12081450D01*
X14504391Y-12081450D02*
X14532963Y-12081450D01*
X14532963Y-12081450D02*
X14552010Y-12090974D01*
X14552010Y-12090974D02*
X14561534Y-12110022D01*
X14561534Y-12110022D02*
X14561534Y-12214784D01*
X14561534Y-12110022D02*
X14571058Y-12090974D01*
X14571058Y-12090974D02*
X14590105Y-12081450D01*
X14590105Y-12081450D02*
X14618677Y-12081450D01*
X14618677Y-12081450D02*
X14637724Y-12090974D01*
X14637724Y-12090974D02*
X14647248Y-12110022D01*
X14647248Y-12110022D02*
X14647248Y-12214784D01*
X14742486Y-12214784D02*
X14742486Y-12081450D01*
X14742486Y-12100498D02*
X14752010Y-12090974D01*
X14752010Y-12090974D02*
X14771058Y-12081450D01*
X14771058Y-12081450D02*
X14799629Y-12081450D01*
X14799629Y-12081450D02*
X14818677Y-12090974D01*
X14818677Y-12090974D02*
X14828201Y-12110022D01*
X14828201Y-12110022D02*
X14828201Y-12214784D01*
X14828201Y-12110022D02*
X14837724Y-12090974D01*
X14837724Y-12090974D02*
X14856772Y-12081450D01*
X14856772Y-12081450D02*
X14885343Y-12081450D01*
X14885343Y-12081450D02*
X14904391Y-12090974D01*
X14904391Y-12090974D02*
X14913915Y-12110022D01*
X14913915Y-12110022D02*
X14913915Y-12214784D01*
X15304391Y-12005260D02*
X15132963Y-12262403D01*
X15561534Y-12014784D02*
X15580582Y-12014784D01*
X15580582Y-12014784D02*
X15599629Y-12024308D01*
X15599629Y-12024308D02*
X15609153Y-12033831D01*
X15609153Y-12033831D02*
X15618677Y-12052879D01*
X15618677Y-12052879D02*
X15628201Y-12090974D01*
X15628201Y-12090974D02*
X15628201Y-12138593D01*
X15628201Y-12138593D02*
X15618677Y-12176688D01*
X15618677Y-12176688D02*
X15609153Y-12195736D01*
X15609153Y-12195736D02*
X15599629Y-12205260D01*
X15599629Y-12205260D02*
X15580582Y-12214784D01*
X15580582Y-12214784D02*
X15561534Y-12214784D01*
X15561534Y-12214784D02*
X15542486Y-12205260D01*
X15542486Y-12205260D02*
X15532963Y-12195736D01*
X15532963Y-12195736D02*
X15523439Y-12176688D01*
X15523439Y-12176688D02*
X15513915Y-12138593D01*
X15513915Y-12138593D02*
X15513915Y-12090974D01*
X15513915Y-12090974D02*
X15523439Y-12052879D01*
X15523439Y-12052879D02*
X15532963Y-12033831D01*
X15532963Y-12033831D02*
X15542486Y-12024308D01*
X15542486Y-12024308D02*
X15561534Y-12014784D01*
X15713915Y-12195736D02*
X15723439Y-12205260D01*
X15723439Y-12205260D02*
X15713915Y-12214784D01*
X15713915Y-12214784D02*
X15704391Y-12205260D01*
X15704391Y-12205260D02*
X15713915Y-12195736D01*
X15713915Y-12195736D02*
X15713915Y-12214784D01*
X15847248Y-12014784D02*
X15866296Y-12014784D01*
X15866296Y-12014784D02*
X15885344Y-12024308D01*
X15885344Y-12024308D02*
X15894867Y-12033831D01*
X15894867Y-12033831D02*
X15904391Y-12052879D01*
X15904391Y-12052879D02*
X15913915Y-12090974D01*
X15913915Y-12090974D02*
X15913915Y-12138593D01*
X15913915Y-12138593D02*
X15904391Y-12176688D01*
X15904391Y-12176688D02*
X15894867Y-12195736D01*
X15894867Y-12195736D02*
X15885344Y-12205260D01*
X15885344Y-12205260D02*
X15866296Y-12214784D01*
X15866296Y-12214784D02*
X15847248Y-12214784D01*
X15847248Y-12214784D02*
X15828201Y-12205260D01*
X15828201Y-12205260D02*
X15818677Y-12195736D01*
X15818677Y-12195736D02*
X15809153Y-12176688D01*
X15809153Y-12176688D02*
X15799629Y-12138593D01*
X15799629Y-12138593D02*
X15799629Y-12090974D01*
X15799629Y-12090974D02*
X15809153Y-12052879D01*
X15809153Y-12052879D02*
X15818677Y-12033831D01*
X15818677Y-12033831D02*
X15828201Y-12024308D01*
X15828201Y-12024308D02*
X15847248Y-12014784D01*
X16028201Y-12100498D02*
X16009153Y-12090974D01*
X16009153Y-12090974D02*
X15999629Y-12081450D01*
X15999629Y-12081450D02*
X15990106Y-12062403D01*
X15990106Y-12062403D02*
X15990106Y-12052879D01*
X15990106Y-12052879D02*
X15999629Y-12033831D01*
X15999629Y-12033831D02*
X16009153Y-12024308D01*
X16009153Y-12024308D02*
X16028201Y-12014784D01*
X16028201Y-12014784D02*
X16066296Y-12014784D01*
X16066296Y-12014784D02*
X16085344Y-12024308D01*
X16085344Y-12024308D02*
X16094867Y-12033831D01*
X16094867Y-12033831D02*
X16104391Y-12052879D01*
X16104391Y-12052879D02*
X16104391Y-12062403D01*
X16104391Y-12062403D02*
X16094867Y-12081450D01*
X16094867Y-12081450D02*
X16085344Y-12090974D01*
X16085344Y-12090974D02*
X16066296Y-12100498D01*
X16066296Y-12100498D02*
X16028201Y-12100498D01*
X16028201Y-12100498D02*
X16009153Y-12110022D01*
X16009153Y-12110022D02*
X15999629Y-12119546D01*
X15999629Y-12119546D02*
X15990106Y-12138593D01*
X15990106Y-12138593D02*
X15990106Y-12176688D01*
X15990106Y-12176688D02*
X15999629Y-12195736D01*
X15999629Y-12195736D02*
X16009153Y-12205260D01*
X16009153Y-12205260D02*
X16028201Y-12214784D01*
X16028201Y-12214784D02*
X16066296Y-12214784D01*
X16066296Y-12214784D02*
X16085344Y-12205260D01*
X16085344Y-12205260D02*
X16094867Y-12195736D01*
X16094867Y-12195736D02*
X16104391Y-12176688D01*
X16104391Y-12176688D02*
X16104391Y-12138593D01*
X16104391Y-12138593D02*
X16094867Y-12119546D01*
X16094867Y-12119546D02*
X16085344Y-12110022D01*
X16085344Y-12110022D02*
X16066296Y-12100498D01*
X16275820Y-12014784D02*
X16237725Y-12014784D01*
X16237725Y-12014784D02*
X16218677Y-12024308D01*
X16218677Y-12024308D02*
X16209153Y-12033831D01*
X16209153Y-12033831D02*
X16190106Y-12062403D01*
X16190106Y-12062403D02*
X16180582Y-12100498D01*
X16180582Y-12100498D02*
X16180582Y-12176688D01*
X16180582Y-12176688D02*
X16190106Y-12195736D01*
X16190106Y-12195736D02*
X16199629Y-12205260D01*
X16199629Y-12205260D02*
X16218677Y-12214784D01*
X16218677Y-12214784D02*
X16256772Y-12214784D01*
X16256772Y-12214784D02*
X16275820Y-12205260D01*
X16275820Y-12205260D02*
X16285344Y-12195736D01*
X16285344Y-12195736D02*
X16294867Y-12176688D01*
X16294867Y-12176688D02*
X16294867Y-12129069D01*
X16294867Y-12129069D02*
X16285344Y-12110022D01*
X16285344Y-12110022D02*
X16275820Y-12100498D01*
X16275820Y-12100498D02*
X16256772Y-12090974D01*
X16256772Y-12090974D02*
X16218677Y-12090974D01*
X16218677Y-12090974D02*
X16199629Y-12100498D01*
X16199629Y-12100498D02*
X16190106Y-12110022D01*
X16190106Y-12110022D02*
X16180582Y-12129069D01*
X16466296Y-12014784D02*
X16428201Y-12014784D01*
X16428201Y-12014784D02*
X16409153Y-12024308D01*
X16409153Y-12024308D02*
X16399629Y-12033831D01*
X16399629Y-12033831D02*
X16380582Y-12062403D01*
X16380582Y-12062403D02*
X16371058Y-12100498D01*
X16371058Y-12100498D02*
X16371058Y-12176688D01*
X16371058Y-12176688D02*
X16380582Y-12195736D01*
X16380582Y-12195736D02*
X16390106Y-12205260D01*
X16390106Y-12205260D02*
X16409153Y-12214784D01*
X16409153Y-12214784D02*
X16447248Y-12214784D01*
X16447248Y-12214784D02*
X16466296Y-12205260D01*
X16466296Y-12205260D02*
X16475820Y-12195736D01*
X16475820Y-12195736D02*
X16485344Y-12176688D01*
X16485344Y-12176688D02*
X16485344Y-12129069D01*
X16485344Y-12129069D02*
X16475820Y-12110022D01*
X16475820Y-12110022D02*
X16466296Y-12100498D01*
X16466296Y-12100498D02*
X16447248Y-12090974D01*
X16447248Y-12090974D02*
X16409153Y-12090974D01*
X16409153Y-12090974D02*
X16390106Y-12100498D01*
X16390106Y-12100498D02*
X16380582Y-12110022D01*
X16380582Y-12110022D02*
X16371058Y-12129069D01*
X16561534Y-12014784D02*
X16561534Y-12052879D01*
X16637725Y-12014784D02*
X16637725Y-12052879D01*
X16932963Y-12290974D02*
X16923439Y-12281450D01*
X16923439Y-12281450D02*
X16904391Y-12252879D01*
X16904391Y-12252879D02*
X16894868Y-12233831D01*
X16894868Y-12233831D02*
X16885344Y-12205260D01*
X16885344Y-12205260D02*
X16875820Y-12157641D01*
X16875820Y-12157641D02*
X16875820Y-12119546D01*
X16875820Y-12119546D02*
X16885344Y-12071927D01*
X16885344Y-12071927D02*
X16894868Y-12043355D01*
X16894868Y-12043355D02*
X16904391Y-12024308D01*
X16904391Y-12024308D02*
X16923439Y-11995736D01*
X16923439Y-11995736D02*
X16932963Y-11986212D01*
X17094868Y-12081450D02*
X17094868Y-12214784D01*
X17047249Y-12005260D02*
X16999630Y-12148117D01*
X16999630Y-12148117D02*
X17123439Y-12148117D01*
X17352011Y-12214784D02*
X17352011Y-12014784D01*
X17437725Y-12214784D02*
X17437725Y-12110022D01*
X17437725Y-12110022D02*
X17428201Y-12090974D01*
X17428201Y-12090974D02*
X17409153Y-12081450D01*
X17409153Y-12081450D02*
X17380582Y-12081450D01*
X17380582Y-12081450D02*
X17361534Y-12090974D01*
X17361534Y-12090974D02*
X17352011Y-12100498D01*
X17561534Y-12214784D02*
X17542487Y-12205260D01*
X17542487Y-12205260D02*
X17532963Y-12195736D01*
X17532963Y-12195736D02*
X17523439Y-12176688D01*
X17523439Y-12176688D02*
X17523439Y-12119546D01*
X17523439Y-12119546D02*
X17532963Y-12100498D01*
X17532963Y-12100498D02*
X17542487Y-12090974D01*
X17542487Y-12090974D02*
X17561534Y-12081450D01*
X17561534Y-12081450D02*
X17590106Y-12081450D01*
X17590106Y-12081450D02*
X17609153Y-12090974D01*
X17609153Y-12090974D02*
X17618677Y-12100498D01*
X17618677Y-12100498D02*
X17628201Y-12119546D01*
X17628201Y-12119546D02*
X17628201Y-12176688D01*
X17628201Y-12176688D02*
X17618677Y-12195736D01*
X17618677Y-12195736D02*
X17609153Y-12205260D01*
X17609153Y-12205260D02*
X17590106Y-12214784D01*
X17590106Y-12214784D02*
X17561534Y-12214784D01*
X17742487Y-12214784D02*
X17723439Y-12205260D01*
X17723439Y-12205260D02*
X17713915Y-12186212D01*
X17713915Y-12186212D02*
X17713915Y-12014784D01*
X17894868Y-12205260D02*
X17875820Y-12214784D01*
X17875820Y-12214784D02*
X17837725Y-12214784D01*
X17837725Y-12214784D02*
X17818677Y-12205260D01*
X17818677Y-12205260D02*
X17809153Y-12186212D01*
X17809153Y-12186212D02*
X17809153Y-12110022D01*
X17809153Y-12110022D02*
X17818677Y-12090974D01*
X17818677Y-12090974D02*
X17837725Y-12081450D01*
X17837725Y-12081450D02*
X17875820Y-12081450D01*
X17875820Y-12081450D02*
X17894868Y-12090974D01*
X17894868Y-12090974D02*
X17904392Y-12110022D01*
X17904392Y-12110022D02*
X17904392Y-12129069D01*
X17904392Y-12129069D02*
X17809153Y-12148117D01*
X17980582Y-12205260D02*
X17999630Y-12214784D01*
X17999630Y-12214784D02*
X18037725Y-12214784D01*
X18037725Y-12214784D02*
X18056773Y-12205260D01*
X18056773Y-12205260D02*
X18066296Y-12186212D01*
X18066296Y-12186212D02*
X18066296Y-12176688D01*
X18066296Y-12176688D02*
X18056773Y-12157641D01*
X18056773Y-12157641D02*
X18037725Y-12148117D01*
X18037725Y-12148117D02*
X18009153Y-12148117D01*
X18009153Y-12148117D02*
X17990106Y-12138593D01*
X17990106Y-12138593D02*
X17980582Y-12119546D01*
X17980582Y-12119546D02*
X17980582Y-12110022D01*
X17980582Y-12110022D02*
X17990106Y-12090974D01*
X17990106Y-12090974D02*
X18009153Y-12081450D01*
X18009153Y-12081450D02*
X18037725Y-12081450D01*
X18037725Y-12081450D02*
X18056773Y-12090974D01*
X18132963Y-12290974D02*
X18142487Y-12281450D01*
X18142487Y-12281450D02*
X18161534Y-12252879D01*
X18161534Y-12252879D02*
X18171058Y-12233831D01*
X18171058Y-12233831D02*
X18180582Y-12205260D01*
X18180582Y-12205260D02*
X18190106Y-12157641D01*
X18190106Y-12157641D02*
X18190106Y-12119546D01*
X18190106Y-12119546D02*
X18180582Y-12071927D01*
X18180582Y-12071927D02*
X18171058Y-12043355D01*
X18171058Y-12043355D02*
X18161534Y-12024308D01*
X18161534Y-12024308D02*
X18142487Y-11995736D01*
X18142487Y-11995736D02*
X18132963Y-11986212D01*
X18494868Y-12290974D02*
X18485344Y-12281450D01*
X18485344Y-12281450D02*
X18466296Y-12252879D01*
X18466296Y-12252879D02*
X18456773Y-12233831D01*
X18456773Y-12233831D02*
X18447249Y-12205260D01*
X18447249Y-12205260D02*
X18437725Y-12157641D01*
X18437725Y-12157641D02*
X18437725Y-12119546D01*
X18437725Y-12119546D02*
X18447249Y-12071927D01*
X18447249Y-12071927D02*
X18456773Y-12043355D01*
X18456773Y-12043355D02*
X18466296Y-12024308D01*
X18466296Y-12024308D02*
X18485344Y-11995736D01*
X18485344Y-11995736D02*
X18494868Y-11986212D01*
X18571058Y-12081450D02*
X18571058Y-12214784D01*
X18571058Y-12100498D02*
X18580582Y-12090974D01*
X18580582Y-12090974D02*
X18599630Y-12081450D01*
X18599630Y-12081450D02*
X18628201Y-12081450D01*
X18628201Y-12081450D02*
X18647249Y-12090974D01*
X18647249Y-12090974D02*
X18656773Y-12110022D01*
X18656773Y-12110022D02*
X18656773Y-12214784D01*
X18780582Y-12214784D02*
X18761534Y-12205260D01*
X18761534Y-12205260D02*
X18752011Y-12195736D01*
X18752011Y-12195736D02*
X18742487Y-12176688D01*
X18742487Y-12176688D02*
X18742487Y-12119546D01*
X18742487Y-12119546D02*
X18752011Y-12100498D01*
X18752011Y-12100498D02*
X18761534Y-12090974D01*
X18761534Y-12090974D02*
X18780582Y-12081450D01*
X18780582Y-12081450D02*
X18809154Y-12081450D01*
X18809154Y-12081450D02*
X18828201Y-12090974D01*
X18828201Y-12090974D02*
X18837725Y-12100498D01*
X18837725Y-12100498D02*
X18847249Y-12119546D01*
X18847249Y-12119546D02*
X18847249Y-12176688D01*
X18847249Y-12176688D02*
X18837725Y-12195736D01*
X18837725Y-12195736D02*
X18828201Y-12205260D01*
X18828201Y-12205260D02*
X18809154Y-12214784D01*
X18809154Y-12214784D02*
X18780582Y-12214784D01*
X18904392Y-12081450D02*
X18980582Y-12081450D01*
X18932963Y-12014784D02*
X18932963Y-12186212D01*
X18932963Y-12186212D02*
X18942487Y-12205260D01*
X18942487Y-12205260D02*
X18961534Y-12214784D01*
X18961534Y-12214784D02*
X18980582Y-12214784D01*
X19199630Y-12081450D02*
X19199630Y-12281450D01*
X19199630Y-12090974D02*
X19218677Y-12081450D01*
X19218677Y-12081450D02*
X19256773Y-12081450D01*
X19256773Y-12081450D02*
X19275820Y-12090974D01*
X19275820Y-12090974D02*
X19285344Y-12100498D01*
X19285344Y-12100498D02*
X19294868Y-12119546D01*
X19294868Y-12119546D02*
X19294868Y-12176688D01*
X19294868Y-12176688D02*
X19285344Y-12195736D01*
X19285344Y-12195736D02*
X19275820Y-12205260D01*
X19275820Y-12205260D02*
X19256773Y-12214784D01*
X19256773Y-12214784D02*
X19218677Y-12214784D01*
X19218677Y-12214784D02*
X19199630Y-12205260D01*
X19409154Y-12214784D02*
X19390106Y-12205260D01*
X19390106Y-12205260D02*
X19380582Y-12186212D01*
X19380582Y-12186212D02*
X19380582Y-12014784D01*
X19571058Y-12214784D02*
X19571058Y-12110022D01*
X19571058Y-12110022D02*
X19561535Y-12090974D01*
X19561535Y-12090974D02*
X19542487Y-12081450D01*
X19542487Y-12081450D02*
X19504392Y-12081450D01*
X19504392Y-12081450D02*
X19485344Y-12090974D01*
X19571058Y-12205260D02*
X19552011Y-12214784D01*
X19552011Y-12214784D02*
X19504392Y-12214784D01*
X19504392Y-12214784D02*
X19485344Y-12205260D01*
X19485344Y-12205260D02*
X19475820Y-12186212D01*
X19475820Y-12186212D02*
X19475820Y-12167165D01*
X19475820Y-12167165D02*
X19485344Y-12148117D01*
X19485344Y-12148117D02*
X19504392Y-12138593D01*
X19504392Y-12138593D02*
X19552011Y-12138593D01*
X19552011Y-12138593D02*
X19571058Y-12129069D01*
X19637725Y-12081450D02*
X19713915Y-12081450D01*
X19666296Y-12014784D02*
X19666296Y-12186212D01*
X19666296Y-12186212D02*
X19675820Y-12205260D01*
X19675820Y-12205260D02*
X19694868Y-12214784D01*
X19694868Y-12214784D02*
X19713915Y-12214784D01*
X19856773Y-12205260D02*
X19837725Y-12214784D01*
X19837725Y-12214784D02*
X19799630Y-12214784D01*
X19799630Y-12214784D02*
X19780582Y-12205260D01*
X19780582Y-12205260D02*
X19771058Y-12186212D01*
X19771058Y-12186212D02*
X19771058Y-12110022D01*
X19771058Y-12110022D02*
X19780582Y-12090974D01*
X19780582Y-12090974D02*
X19799630Y-12081450D01*
X19799630Y-12081450D02*
X19837725Y-12081450D01*
X19837725Y-12081450D02*
X19856773Y-12090974D01*
X19856773Y-12090974D02*
X19866296Y-12110022D01*
X19866296Y-12110022D02*
X19866296Y-12129069D01*
X19866296Y-12129069D02*
X19771058Y-12148117D01*
X20037725Y-12214784D02*
X20037725Y-12014784D01*
X20037725Y-12205260D02*
X20018677Y-12214784D01*
X20018677Y-12214784D02*
X19980582Y-12214784D01*
X19980582Y-12214784D02*
X19961535Y-12205260D01*
X19961535Y-12205260D02*
X19952011Y-12195736D01*
X19952011Y-12195736D02*
X19942487Y-12176688D01*
X19942487Y-12176688D02*
X19942487Y-12119546D01*
X19942487Y-12119546D02*
X19952011Y-12100498D01*
X19952011Y-12100498D02*
X19961535Y-12090974D01*
X19961535Y-12090974D02*
X19980582Y-12081450D01*
X19980582Y-12081450D02*
X20018677Y-12081450D01*
X20018677Y-12081450D02*
X20037725Y-12090974D01*
X20113916Y-12290974D02*
X20123439Y-12281450D01*
X20123439Y-12281450D02*
X20142487Y-12252879D01*
X20142487Y-12252879D02*
X20152011Y-12233831D01*
X20152011Y-12233831D02*
X20161535Y-12205260D01*
X20161535Y-12205260D02*
X20171058Y-12157641D01*
X20171058Y-12157641D02*
X20171058Y-12119546D01*
X20171058Y-12119546D02*
X20161535Y-12071927D01*
X20161535Y-12071927D02*
X20152011Y-12043355D01*
X20152011Y-12043355D02*
X20142487Y-12024308D01*
X20142487Y-12024308D02*
X20123439Y-11995736D01*
X20123439Y-11995736D02*
X20113916Y-11986212D01*
M02*
