%TF.GenerationSoftware,KiCad,Pcbnew,8.0.3*%
%TF.CreationDate,2025-07-10T12:51:06-07:00*%
%TF.ProjectId,salp_board_round,73616c70-5f62-46f6-9172-645f726f756e,rev?*%
%TF.SameCoordinates,Original*%
%TF.FileFunction,Paste,Top*%
%TF.FilePolarity,Positive*%
%FSLAX46Y46*%
G04 Gerber Fmt 4.6, Leading zero omitted, Abs format (unit mm)*
G04 Created by KiCad (PCBNEW 8.0.3) date 2025-07-10 12:51:06*
%MOMM*%
%LPD*%
G01*
G04 APERTURE LIST*
G04 Aperture macros list*
%AMRoundRect*
0 Rectangle with rounded corners*
0 $1 Rounding radius*
0 $2 $3 $4 $5 $6 $7 $8 $9 X,Y pos of 4 corners*
0 Add a 4 corners polygon primitive as box body*
4,1,4,$2,$3,$4,$5,$6,$7,$8,$9,$2,$3,0*
0 Add four circle primitives for the rounded corners*
1,1,$1+$1,$2,$3*
1,1,$1+$1,$4,$5*
1,1,$1+$1,$6,$7*
1,1,$1+$1,$8,$9*
0 Add four rect primitives between the rounded corners*
20,1,$1+$1,$2,$3,$4,$5,0*
20,1,$1+$1,$4,$5,$6,$7,0*
20,1,$1+$1,$6,$7,$8,$9,0*
20,1,$1+$1,$8,$9,$2,$3,0*%
G04 Aperture macros list end*
%ADD10RoundRect,0.250000X-0.337500X-0.475000X0.337500X-0.475000X0.337500X0.475000X-0.337500X0.475000X0*%
%ADD11RoundRect,0.250000X0.337500X0.475000X-0.337500X0.475000X-0.337500X-0.475000X0.337500X-0.475000X0*%
%ADD12RoundRect,0.250000X-0.475000X0.337500X-0.475000X-0.337500X0.475000X-0.337500X0.475000X0.337500X0*%
%ADD13RoundRect,0.075000X-0.325000X-0.075000X0.325000X-0.075000X0.325000X0.075000X-0.325000X0.075000X0*%
%ADD14RoundRect,0.075000X-0.075000X-0.325000X0.075000X-0.325000X0.075000X0.325000X-0.075000X0.325000X0*%
%ADD15RoundRect,0.210000X-1.890000X-1.890000X1.890000X-1.890000X1.890000X1.890000X-1.890000X1.890000X0*%
%ADD16RoundRect,0.250000X-0.450000X0.350000X-0.450000X-0.350000X0.450000X-0.350000X0.450000X0.350000X0*%
%ADD17RoundRect,0.250000X0.450000X-0.325000X0.450000X0.325000X-0.450000X0.325000X-0.450000X-0.325000X0*%
%ADD18RoundRect,0.250000X-0.350000X-0.450000X0.350000X-0.450000X0.350000X0.450000X-0.350000X0.450000X0*%
%ADD19RoundRect,0.250000X0.350000X0.450000X-0.350000X0.450000X-0.350000X-0.450000X0.350000X-0.450000X0*%
%ADD20RoundRect,0.250001X0.462499X0.624999X-0.462499X0.624999X-0.462499X-0.624999X0.462499X-0.624999X0*%
%ADD21RoundRect,0.237500X-0.287500X-0.237500X0.287500X-0.237500X0.287500X0.237500X-0.287500X0.237500X0*%
%ADD22R,2.100000X1.725000*%
%ADD23RoundRect,0.375000X0.625000X0.375000X-0.625000X0.375000X-0.625000X-0.375000X0.625000X-0.375000X0*%
%ADD24RoundRect,0.500000X0.500000X1.400000X-0.500000X1.400000X-0.500000X-1.400000X0.500000X-1.400000X0*%
%ADD25RoundRect,0.250000X0.475000X-0.337500X0.475000X0.337500X-0.475000X0.337500X-0.475000X-0.337500X0*%
%ADD26RoundRect,0.150000X-0.150000X0.875000X-0.150000X-0.875000X0.150000X-0.875000X0.150000X0.875000X0*%
G04 APERTURE END LIST*
D10*
%TO.C,C6*%
X149700000Y-94600000D03*
X151775000Y-94600000D03*
%TD*%
D11*
%TO.C,C22*%
X176100986Y-111800000D03*
X174025986Y-111800000D03*
%TD*%
D12*
%TO.C,C14*%
X195300000Y-84262500D03*
X195300000Y-86337500D03*
%TD*%
D13*
%TO.C,U1*%
X154400000Y-81900000D03*
X154400000Y-82400000D03*
X154400000Y-82900000D03*
X154400000Y-83400000D03*
X154400000Y-83900000D03*
X154400000Y-84400000D03*
X154400000Y-84900000D03*
X154400000Y-85400000D03*
X154400000Y-85900000D03*
X154400000Y-86400000D03*
D14*
X155100000Y-87100000D03*
X155600000Y-87100000D03*
X156100000Y-87100000D03*
X156600000Y-87100000D03*
X157100000Y-87100000D03*
X157600000Y-87100000D03*
X158100000Y-87100000D03*
X158600000Y-87100000D03*
X159100000Y-87100000D03*
X159600000Y-87100000D03*
D13*
X160300000Y-86400000D03*
X160300000Y-85900000D03*
X160300000Y-85400000D03*
X160300000Y-84900000D03*
X160300000Y-84400000D03*
X160300000Y-83900000D03*
X160300000Y-83400000D03*
X160300000Y-82900000D03*
X160300000Y-82400000D03*
X160300000Y-81900000D03*
D14*
X159600000Y-81200000D03*
X159100000Y-81200000D03*
X158600000Y-81200000D03*
X158100000Y-81200000D03*
X157600000Y-81200000D03*
X157100000Y-81200000D03*
X156600000Y-81200000D03*
X156100000Y-81200000D03*
X155600000Y-81200000D03*
X155100000Y-81200000D03*
D15*
X157350000Y-84150000D03*
%TD*%
D12*
%TO.C,C10*%
X150800000Y-97362500D03*
X150800000Y-99437500D03*
%TD*%
D10*
%TO.C,C5*%
X145462500Y-94600000D03*
X147537500Y-94600000D03*
%TD*%
D16*
%TO.C,R11*%
X163500000Y-68500000D03*
X163500000Y-70500000D03*
%TD*%
D10*
%TO.C,C11*%
X162625000Y-77900000D03*
X164700000Y-77900000D03*
%TD*%
%TO.C,C18*%
X165362500Y-94400000D03*
X167437500Y-94400000D03*
%TD*%
D17*
%TO.C,L2*%
X153800000Y-99325000D03*
X153800000Y-97275000D03*
%TD*%
D10*
%TO.C,C7*%
X160462500Y-75700000D03*
X162537500Y-75700000D03*
%TD*%
%TO.C,C3*%
X158562500Y-77900000D03*
X160637500Y-77900000D03*
%TD*%
D12*
%TO.C,C9*%
X147300000Y-97462500D03*
X147300000Y-99537500D03*
%TD*%
D18*
%TO.C,R3*%
X155000000Y-90300000D03*
X157000000Y-90300000D03*
%TD*%
D19*
%TO.C,R2*%
X150800000Y-92200000D03*
X148800000Y-92200000D03*
%TD*%
D12*
%TO.C,C4*%
X189000000Y-84262500D03*
X189000000Y-86337500D03*
%TD*%
D16*
%TO.C,R1*%
X156900000Y-68600000D03*
X156900000Y-70600000D03*
%TD*%
D10*
%TO.C,C20*%
X172662500Y-114400000D03*
X174737500Y-114400000D03*
%TD*%
%TO.C,C17*%
X148862500Y-89700000D03*
X150937500Y-89700000D03*
%TD*%
D17*
%TO.C,L1*%
X156000000Y-103925000D03*
X156000000Y-101875000D03*
%TD*%
D20*
%TO.C,D2*%
X187700000Y-71500000D03*
X184725000Y-71500000D03*
%TD*%
D21*
%TO.C,D6*%
X179750000Y-113900000D03*
X181500000Y-113900000D03*
%TD*%
D22*
%TO.C,Y1*%
X163800000Y-100287500D03*
X166700000Y-100287500D03*
X166700000Y-98112500D03*
X163800000Y-98112500D03*
%TD*%
D18*
%TO.C,R12*%
X179600000Y-111700000D03*
X181600000Y-111700000D03*
%TD*%
D12*
%TO.C,C15*%
X161300000Y-98062500D03*
X161300000Y-100137500D03*
%TD*%
D23*
%TO.C,U4*%
X179450000Y-108600000D03*
X179450000Y-106300000D03*
D24*
X173150000Y-106300000D03*
D23*
X179450000Y-104000000D03*
%TD*%
D12*
%TO.C,C8*%
X192300000Y-84225000D03*
X192300000Y-86300000D03*
%TD*%
D25*
%TO.C,C19*%
X161900000Y-89675000D03*
X161900000Y-87600000D03*
%TD*%
D10*
%TO.C,C12*%
X146362500Y-102500000D03*
X148437500Y-102500000D03*
%TD*%
D25*
%TO.C,C1*%
X152100000Y-78037500D03*
X152100000Y-75962500D03*
%TD*%
D12*
%TO.C,C16*%
X153100000Y-88462500D03*
X153100000Y-90537500D03*
%TD*%
D25*
%TO.C,C2*%
X154700000Y-78037500D03*
X154700000Y-75962500D03*
%TD*%
D10*
%TO.C,C13*%
X150862500Y-102500000D03*
X152937500Y-102500000D03*
%TD*%
D26*
%TO.C,U2*%
X186315000Y-84550000D03*
X185045000Y-84550000D03*
X183775000Y-84550000D03*
X182505000Y-84550000D03*
X181235000Y-84550000D03*
X179965000Y-84550000D03*
X178695000Y-84550000D03*
X177425000Y-84550000D03*
X176155000Y-84550000D03*
X174885000Y-84550000D03*
X174885000Y-93850000D03*
X176155000Y-93850000D03*
X177425000Y-93850000D03*
X178695000Y-93850000D03*
X179965000Y-93850000D03*
X181235000Y-93850000D03*
X182505000Y-93850000D03*
X183775000Y-93850000D03*
X185045000Y-93850000D03*
X186315000Y-93850000D03*
%TD*%
M02*
