%TF.GenerationSoftware,KiCad,Pcbnew,8.0.3*%
%TF.CreationDate,2025-07-08T12:52:10-07:00*%
%TF.ProjectId,salp_board_round,73616c70-5f62-46f6-9172-645f726f756e,rev?*%
%TF.SameCoordinates,Original*%
%TF.FileFunction,Drillmap*%
%TF.FilePolarity,Positive*%
%FSLAX45Y45*%
G04 Gerber Fmt 4.5, Leading zero omitted, Abs format (unit mm)*
G04 Created by KiCad (PCBNEW 8.0.3) date 2025-07-08 12:52:10*
%MOMM*%
%LPD*%
G01*
G04 APERTURE LIST*
%ADD10C,0.050000*%
%ADD11C,0.200000*%
%ADD12C,0.100000*%
%ADD13C,0.220000*%
G04 APERTURE END LIST*
D10*
X16900063Y-11808222D02*
G75*
G02*
X17099937Y-11808222I99937J2808222D01*
G01*
X16900000Y-8990000D02*
X17100000Y-8990000D01*
X17100000Y-8990000D02*
X17099937Y-11808222D01*
X16900063Y-11808222D02*
X16900000Y-8990000D01*
D11*
D12*
X14365000Y-9645000D02*
X14395000Y-9675000D01*
X14395000Y-9645000D02*
X14365000Y-9675000D01*
X14865000Y-10565000D02*
X14895000Y-10595000D01*
X14895000Y-10565000D02*
X14865000Y-10595000D01*
X14945000Y-10625000D02*
X14975000Y-10655000D01*
X14975000Y-10625000D02*
X14945000Y-10655000D01*
X15125000Y-8525000D02*
X15155000Y-8555000D01*
X15155000Y-8525000D02*
X15125000Y-8555000D01*
X15192500Y-8697500D02*
X15222500Y-8727500D01*
X15222500Y-8697500D02*
X15192500Y-8727500D01*
X15195000Y-7435000D02*
X15225000Y-7465000D01*
X15225000Y-7435000D02*
X15195000Y-7465000D01*
X15195000Y-8255000D02*
X15225000Y-8285000D01*
X15225000Y-8255000D02*
X15195000Y-8285000D01*
X15222573Y-9287427D02*
X15252573Y-9317427D01*
X15252573Y-9287427D02*
X15222573Y-9317427D01*
X15240000Y-8510000D02*
X15270000Y-8540000D01*
X15270000Y-8510000D02*
X15240000Y-8540000D01*
X15285000Y-8175000D02*
X15315000Y-8205000D01*
X15315000Y-8175000D02*
X15285000Y-8205000D01*
X15315000Y-8285000D02*
X15345000Y-8315000D01*
X15345000Y-8285000D02*
X15315000Y-8315000D01*
X15385000Y-8035000D02*
X15415000Y-8065000D01*
X15415000Y-8035000D02*
X15385000Y-8065000D01*
X15425000Y-9255000D02*
X15455000Y-9285000D01*
X15455000Y-9255000D02*
X15425000Y-9285000D01*
X15495000Y-7055000D02*
X15525000Y-7085000D01*
X15525000Y-7055000D02*
X15495000Y-7085000D01*
X15495000Y-8795000D02*
X15525000Y-8825000D01*
X15525000Y-8795000D02*
X15495000Y-8825000D01*
X15535000Y-10995000D02*
X15565000Y-11025000D01*
X15565000Y-10995000D02*
X15535000Y-11025000D01*
X15585000Y-9255000D02*
X15615000Y-9285000D01*
X15615000Y-9255000D02*
X15585000Y-9285000D01*
X15605000Y-10865000D02*
X15635000Y-10895000D01*
X15635000Y-10865000D02*
X15605000Y-10895000D01*
X15625000Y-11125000D02*
X15655000Y-11155000D01*
X15655000Y-11125000D02*
X15625000Y-11155000D01*
X15635000Y-7335000D02*
X15665000Y-7365000D01*
X15665000Y-7335000D02*
X15635000Y-7365000D01*
X15895000Y-8795000D02*
X15925000Y-8825000D01*
X15925000Y-8795000D02*
X15895000Y-8825000D01*
X15925000Y-8885000D02*
X15955000Y-8915000D01*
X15955000Y-8885000D02*
X15925000Y-8915000D01*
X15995000Y-10265000D02*
X16025000Y-10295000D01*
X16025000Y-10265000D02*
X15995000Y-10295000D01*
X16015000Y-10695000D02*
X16045000Y-10725000D01*
X16045000Y-10695000D02*
X16015000Y-10725000D01*
X16085000Y-11315000D02*
X16115000Y-11345000D01*
X16115000Y-11315000D02*
X16085000Y-11345000D01*
X16175000Y-8585000D02*
X16205000Y-8615000D01*
X16205000Y-8585000D02*
X16175000Y-8615000D01*
X16175000Y-9085000D02*
X16205000Y-9115000D01*
X16205000Y-9085000D02*
X16175000Y-9115000D01*
X16235000Y-7925000D02*
X16265000Y-7955000D01*
X16265000Y-7925000D02*
X16235000Y-7955000D01*
X16255000Y-11125000D02*
X16285000Y-11155000D01*
X16285000Y-11125000D02*
X16255000Y-11155000D01*
X16335000Y-7215000D02*
X16365000Y-7245000D01*
X16365000Y-7215000D02*
X16335000Y-7245000D01*
X16355000Y-10205000D02*
X16385000Y-10235000D01*
X16385000Y-10205000D02*
X16355000Y-10235000D01*
X16365000Y-9635000D02*
X16395000Y-9665000D01*
X16395000Y-9635000D02*
X16365000Y-9665000D01*
X16365000Y-10355000D02*
X16395000Y-10385000D01*
X16395000Y-10355000D02*
X16365000Y-10385000D01*
X16385000Y-7435000D02*
X16415000Y-7465000D01*
X16415000Y-7435000D02*
X16385000Y-7465000D01*
X16465000Y-8285000D02*
X16495000Y-8315000D01*
X16495000Y-8285000D02*
X16465000Y-8315000D01*
X16465000Y-8705000D02*
X16495000Y-8735000D01*
X16495000Y-8705000D02*
X16465000Y-8735000D01*
X16728750Y-9201250D02*
X16758750Y-9231250D01*
X16758750Y-9201250D02*
X16728750Y-9231250D01*
X16765000Y-10965000D02*
X16795000Y-10995000D01*
X16795000Y-10965000D02*
X16765000Y-10995000D01*
X16795000Y-10155000D02*
X16825000Y-10185000D01*
X16825000Y-10155000D02*
X16795000Y-10185000D01*
X17015000Y-7965000D02*
X17045000Y-7995000D01*
X17045000Y-7965000D02*
X17015000Y-7995000D01*
X17085000Y-8425000D02*
X17115000Y-8455000D01*
X17115000Y-8425000D02*
X17085000Y-8455000D01*
X17185000Y-11115000D02*
X17215000Y-11145000D01*
X17215000Y-11115000D02*
X17185000Y-11145000D01*
X17350000Y-8690000D02*
X17380000Y-8720000D01*
X17380000Y-8690000D02*
X17350000Y-8720000D01*
X17585000Y-11575000D02*
X17615000Y-11605000D01*
X17615000Y-11575000D02*
X17585000Y-11605000D01*
X18100000Y-10890000D02*
X18130000Y-10920000D01*
X18130000Y-10890000D02*
X18100000Y-10920000D01*
X18265000Y-8915000D02*
X18295000Y-8945000D01*
X18295000Y-8915000D02*
X18265000Y-8945000D01*
X18485000Y-8625000D02*
X18515000Y-8655000D01*
X18515000Y-8625000D02*
X18485000Y-8655000D01*
X18581000Y-10929000D02*
X18611000Y-10959000D01*
X18611000Y-10929000D02*
X18581000Y-10959000D01*
X18900000Y-9370000D02*
X18930000Y-9400000D01*
X18930000Y-9370000D02*
X18900000Y-9400000D01*
X19095000Y-8865000D02*
X19125000Y-8895000D01*
X19125000Y-8865000D02*
X19095000Y-8895000D01*
X19555000Y-8255000D02*
X19585000Y-8285000D01*
X19585000Y-8255000D02*
X19555000Y-8285000D01*
X14670000Y-8050000D02*
G75*
G02*
X14570000Y-8050000I-50000J0D01*
G01*
X14570000Y-8050000D02*
G75*
G02*
X14670000Y-8050000I50000J0D01*
G01*
X14670000Y-8304000D02*
G75*
G02*
X14570000Y-8304000I-50000J0D01*
G01*
X14570000Y-8304000D02*
G75*
G02*
X14670000Y-8304000I50000J0D01*
G01*
X14670000Y-8558000D02*
G75*
G02*
X14570000Y-8558000I-50000J0D01*
G01*
X14570000Y-8558000D02*
G75*
G02*
X14670000Y-8558000I50000J0D01*
G01*
X16050000Y-6650000D02*
G75*
G02*
X15950000Y-6650000I-50000J0D01*
G01*
X15950000Y-6650000D02*
G75*
G02*
X16050000Y-6650000I50000J0D01*
G01*
X16050000Y-6904000D02*
G75*
G02*
X15950000Y-6904000I-50000J0D01*
G01*
X15950000Y-6904000D02*
G75*
G02*
X16050000Y-6904000I50000J0D01*
G01*
X16050000Y-7158000D02*
G75*
G02*
X15950000Y-7158000I-50000J0D01*
G01*
X15950000Y-7158000D02*
G75*
G02*
X16050000Y-7158000I50000J0D01*
G01*
X16710000Y-6597500D02*
G75*
G02*
X16610000Y-6597500I-50000J0D01*
G01*
X16610000Y-6597500D02*
G75*
G02*
X16710000Y-6597500I50000J0D01*
G01*
X16710000Y-6851500D02*
G75*
G02*
X16610000Y-6851500I-50000J0D01*
G01*
X16610000Y-6851500D02*
G75*
G02*
X16710000Y-6851500I50000J0D01*
G01*
X16710000Y-7105500D02*
G75*
G02*
X16610000Y-7105500I-50000J0D01*
G01*
X16610000Y-7105500D02*
G75*
G02*
X16710000Y-7105500I50000J0D01*
G01*
X16800000Y-7486000D02*
G75*
G02*
X16700000Y-7486000I-50000J0D01*
G01*
X16700000Y-7486000D02*
G75*
G02*
X16800000Y-7486000I50000J0D01*
G01*
X16800000Y-7740000D02*
G75*
G02*
X16700000Y-7740000I-50000J0D01*
G01*
X16700000Y-7740000D02*
G75*
G02*
X16800000Y-7740000I50000J0D01*
G01*
X16800000Y-7994000D02*
G75*
G02*
X16700000Y-7994000I-50000J0D01*
G01*
X16700000Y-7994000D02*
G75*
G02*
X16800000Y-7994000I50000J0D01*
G01*
X16800000Y-8248000D02*
G75*
G02*
X16700000Y-8248000I-50000J0D01*
G01*
X16700000Y-8248000D02*
G75*
G02*
X16800000Y-8248000I50000J0D01*
G01*
X16800000Y-8502000D02*
G75*
G02*
X16700000Y-8502000I-50000J0D01*
G01*
X16700000Y-8502000D02*
G75*
G02*
X16800000Y-8502000I50000J0D01*
G01*
X16800000Y-8756000D02*
G75*
G02*
X16700000Y-8756000I-50000J0D01*
G01*
X16700000Y-8756000D02*
G75*
G02*
X16800000Y-8756000I50000J0D01*
G01*
X17308000Y-7860000D02*
G75*
G02*
X17208000Y-7860000I-50000J0D01*
G01*
X17208000Y-7860000D02*
G75*
G02*
X17308000Y-7860000I50000J0D01*
G01*
X17308000Y-8114000D02*
G75*
G02*
X17208000Y-8114000I-50000J0D01*
G01*
X17208000Y-8114000D02*
G75*
G02*
X17308000Y-8114000I50000J0D01*
G01*
X17356000Y-9790000D02*
G75*
G02*
X17256000Y-9790000I-50000J0D01*
G01*
X17256000Y-9790000D02*
G75*
G02*
X17356000Y-9790000I50000J0D01*
G01*
X17356000Y-10044000D02*
G75*
G02*
X17256000Y-10044000I-50000J0D01*
G01*
X17256000Y-10044000D02*
G75*
G02*
X17356000Y-10044000I50000J0D01*
G01*
X17536000Y-7460000D02*
G75*
G02*
X17436000Y-7460000I-50000J0D01*
G01*
X17436000Y-7460000D02*
G75*
G02*
X17536000Y-7460000I50000J0D01*
G01*
X17562000Y-7860000D02*
G75*
G02*
X17462000Y-7860000I-50000J0D01*
G01*
X17462000Y-7860000D02*
G75*
G02*
X17562000Y-7860000I50000J0D01*
G01*
X17562000Y-8114000D02*
G75*
G02*
X17462000Y-8114000I-50000J0D01*
G01*
X17462000Y-8114000D02*
G75*
G02*
X17562000Y-8114000I50000J0D01*
G01*
X17610000Y-9790000D02*
G75*
G02*
X17510000Y-9790000I-50000J0D01*
G01*
X17510000Y-9790000D02*
G75*
G02*
X17610000Y-9790000I50000J0D01*
G01*
X17610000Y-10044000D02*
G75*
G02*
X17510000Y-10044000I-50000J0D01*
G01*
X17510000Y-10044000D02*
G75*
G02*
X17610000Y-10044000I50000J0D01*
G01*
X17790000Y-7460000D02*
G75*
G02*
X17690000Y-7460000I-50000J0D01*
G01*
X17690000Y-7460000D02*
G75*
G02*
X17790000Y-7460000I50000J0D01*
G01*
X17816000Y-7860000D02*
G75*
G02*
X17716000Y-7860000I-50000J0D01*
G01*
X17716000Y-7860000D02*
G75*
G02*
X17816000Y-7860000I50000J0D01*
G01*
X17816000Y-8114000D02*
G75*
G02*
X17716000Y-8114000I-50000J0D01*
G01*
X17716000Y-8114000D02*
G75*
G02*
X17816000Y-8114000I50000J0D01*
G01*
X17864000Y-9790000D02*
G75*
G02*
X17764000Y-9790000I-50000J0D01*
G01*
X17764000Y-9790000D02*
G75*
G02*
X17864000Y-9790000I50000J0D01*
G01*
X17864000Y-10044000D02*
G75*
G02*
X17764000Y-10044000I-50000J0D01*
G01*
X17764000Y-10044000D02*
G75*
G02*
X17864000Y-10044000I50000J0D01*
G01*
X18044000Y-7460000D02*
G75*
G02*
X17944000Y-7460000I-50000J0D01*
G01*
X17944000Y-7460000D02*
G75*
G02*
X18044000Y-7460000I50000J0D01*
G01*
X18070000Y-7860000D02*
G75*
G02*
X17970000Y-7860000I-50000J0D01*
G01*
X17970000Y-7860000D02*
G75*
G02*
X18070000Y-7860000I50000J0D01*
G01*
X18070000Y-8114000D02*
G75*
G02*
X17970000Y-8114000I-50000J0D01*
G01*
X17970000Y-8114000D02*
G75*
G02*
X18070000Y-8114000I50000J0D01*
G01*
X18118000Y-9790000D02*
G75*
G02*
X18018000Y-9790000I-50000J0D01*
G01*
X18018000Y-9790000D02*
G75*
G02*
X18118000Y-9790000I50000J0D01*
G01*
X18118000Y-10044000D02*
G75*
G02*
X18018000Y-10044000I-50000J0D01*
G01*
X18018000Y-10044000D02*
G75*
G02*
X18118000Y-10044000I50000J0D01*
G01*
X18324000Y-7860000D02*
G75*
G02*
X18224000Y-7860000I-50000J0D01*
G01*
X18224000Y-7860000D02*
G75*
G02*
X18324000Y-7860000I50000J0D01*
G01*
X18324000Y-8114000D02*
G75*
G02*
X18224000Y-8114000I-50000J0D01*
G01*
X18224000Y-8114000D02*
G75*
G02*
X18324000Y-8114000I50000J0D01*
G01*
X18372000Y-9790000D02*
G75*
G02*
X18272000Y-9790000I-50000J0D01*
G01*
X18272000Y-9790000D02*
G75*
G02*
X18372000Y-9790000I50000J0D01*
G01*
X18372000Y-10044000D02*
G75*
G02*
X18272000Y-10044000I-50000J0D01*
G01*
X18272000Y-10044000D02*
G75*
G02*
X18372000Y-10044000I50000J0D01*
G01*
X18392000Y-10440000D02*
G75*
G02*
X18292000Y-10440000I-50000J0D01*
G01*
X18292000Y-10440000D02*
G75*
G02*
X18392000Y-10440000I50000J0D01*
G01*
X18392000Y-10694000D02*
G75*
G02*
X18292000Y-10694000I-50000J0D01*
G01*
X18292000Y-10694000D02*
G75*
G02*
X18392000Y-10694000I50000J0D01*
G01*
X18497500Y-7460000D02*
G75*
G02*
X18397500Y-7460000I-50000J0D01*
G01*
X18397500Y-7460000D02*
G75*
G02*
X18497500Y-7460000I50000J0D01*
G01*
X18578000Y-7860000D02*
G75*
G02*
X18478000Y-7860000I-50000J0D01*
G01*
X18478000Y-7860000D02*
G75*
G02*
X18578000Y-7860000I50000J0D01*
G01*
X18578000Y-8114000D02*
G75*
G02*
X18478000Y-8114000I-50000J0D01*
G01*
X18478000Y-8114000D02*
G75*
G02*
X18578000Y-8114000I50000J0D01*
G01*
X18626000Y-9790000D02*
G75*
G02*
X18526000Y-9790000I-50000J0D01*
G01*
X18526000Y-9790000D02*
G75*
G02*
X18626000Y-9790000I50000J0D01*
G01*
X18626000Y-10044000D02*
G75*
G02*
X18526000Y-10044000I-50000J0D01*
G01*
X18526000Y-10044000D02*
G75*
G02*
X18626000Y-10044000I50000J0D01*
G01*
X18646000Y-10440000D02*
G75*
G02*
X18546000Y-10440000I-50000J0D01*
G01*
X18546000Y-10440000D02*
G75*
G02*
X18646000Y-10440000I50000J0D01*
G01*
X18646000Y-10694000D02*
G75*
G02*
X18546000Y-10694000I-50000J0D01*
G01*
X18546000Y-10694000D02*
G75*
G02*
X18646000Y-10694000I50000J0D01*
G01*
X18751500Y-7460000D02*
G75*
G02*
X18651500Y-7460000I-50000J0D01*
G01*
X18651500Y-7460000D02*
G75*
G02*
X18751500Y-7460000I50000J0D01*
G01*
X18832000Y-7860000D02*
G75*
G02*
X18732000Y-7860000I-50000J0D01*
G01*
X18732000Y-7860000D02*
G75*
G02*
X18832000Y-7860000I50000J0D01*
G01*
X18832000Y-8114000D02*
G75*
G02*
X18732000Y-8114000I-50000J0D01*
G01*
X18732000Y-8114000D02*
G75*
G02*
X18832000Y-8114000I50000J0D01*
G01*
X18880000Y-9790000D02*
G75*
G02*
X18780000Y-9790000I-50000J0D01*
G01*
X18780000Y-9790000D02*
G75*
G02*
X18880000Y-9790000I50000J0D01*
G01*
X18880000Y-10044000D02*
G75*
G02*
X18780000Y-10044000I-50000J0D01*
G01*
X18780000Y-10044000D02*
G75*
G02*
X18880000Y-10044000I50000J0D01*
G01*
X18900000Y-10440000D02*
G75*
G02*
X18800000Y-10440000I-50000J0D01*
G01*
X18800000Y-10440000D02*
G75*
G02*
X18900000Y-10440000I50000J0D01*
G01*
X18900000Y-10694000D02*
G75*
G02*
X18800000Y-10694000I-50000J0D01*
G01*
X18800000Y-10694000D02*
G75*
G02*
X18900000Y-10694000I50000J0D01*
G01*
X19005500Y-7460000D02*
G75*
G02*
X18905500Y-7460000I-50000J0D01*
G01*
X18905500Y-7460000D02*
G75*
G02*
X19005500Y-7460000I50000J0D01*
G01*
X19086000Y-7860000D02*
G75*
G02*
X18986000Y-7860000I-50000J0D01*
G01*
X18986000Y-7860000D02*
G75*
G02*
X19086000Y-7860000I50000J0D01*
G01*
X19086000Y-8114000D02*
G75*
G02*
X18986000Y-8114000I-50000J0D01*
G01*
X18986000Y-8114000D02*
G75*
G02*
X19086000Y-8114000I50000J0D01*
G01*
X19134000Y-9790000D02*
G75*
G02*
X19034000Y-9790000I-50000J0D01*
G01*
X19034000Y-9790000D02*
G75*
G02*
X19134000Y-9790000I50000J0D01*
G01*
X19134000Y-10044000D02*
G75*
G02*
X19034000Y-10044000I-50000J0D01*
G01*
X19034000Y-10044000D02*
G75*
G02*
X19134000Y-10044000I50000J0D01*
G01*
X19340000Y-7860000D02*
G75*
G02*
X19240000Y-7860000I-50000J0D01*
G01*
X19240000Y-7860000D02*
G75*
G02*
X19340000Y-7860000I50000J0D01*
G01*
X19340000Y-8114000D02*
G75*
G02*
X19240000Y-8114000I-50000J0D01*
G01*
X19240000Y-8114000D02*
G75*
G02*
X19340000Y-8114000I50000J0D01*
G01*
X19388000Y-9790000D02*
G75*
G02*
X19288000Y-9790000I-50000J0D01*
G01*
X19288000Y-9790000D02*
G75*
G02*
X19388000Y-9790000I50000J0D01*
G01*
X19388000Y-10044000D02*
G75*
G02*
X19288000Y-10044000I-50000J0D01*
G01*
X19288000Y-10044000D02*
G75*
G02*
X19388000Y-10044000I50000J0D01*
G01*
D13*
X14490000Y-8890000D02*
X14490000Y-9110000D01*
X14380000Y-9000000D02*
X14600000Y-9000000D01*
X19510000Y-8890000D02*
X19510000Y-9110000D01*
X19400000Y-9000000D02*
X19620000Y-9000000D01*
D11*
X14448277Y-12122206D02*
X14448277Y-11922206D01*
X14448277Y-11922206D02*
X14495896Y-11922206D01*
X14495896Y-11922206D02*
X14524467Y-11931730D01*
X14524467Y-11931730D02*
X14543515Y-11950777D01*
X14543515Y-11950777D02*
X14553039Y-11969825D01*
X14553039Y-11969825D02*
X14562563Y-12007920D01*
X14562563Y-12007920D02*
X14562563Y-12036492D01*
X14562563Y-12036492D02*
X14553039Y-12074587D01*
X14553039Y-12074587D02*
X14543515Y-12093634D01*
X14543515Y-12093634D02*
X14524467Y-12112682D01*
X14524467Y-12112682D02*
X14495896Y-12122206D01*
X14495896Y-12122206D02*
X14448277Y-12122206D01*
X14648277Y-12122206D02*
X14648277Y-11988873D01*
X14648277Y-12026968D02*
X14657801Y-12007920D01*
X14657801Y-12007920D02*
X14667324Y-11998396D01*
X14667324Y-11998396D02*
X14686372Y-11988873D01*
X14686372Y-11988873D02*
X14705420Y-11988873D01*
X14772086Y-12122206D02*
X14772086Y-11988873D01*
X14772086Y-11922206D02*
X14762563Y-11931730D01*
X14762563Y-11931730D02*
X14772086Y-11941254D01*
X14772086Y-11941254D02*
X14781610Y-11931730D01*
X14781610Y-11931730D02*
X14772086Y-11922206D01*
X14772086Y-11922206D02*
X14772086Y-11941254D01*
X14895896Y-12122206D02*
X14876848Y-12112682D01*
X14876848Y-12112682D02*
X14867324Y-12093634D01*
X14867324Y-12093634D02*
X14867324Y-11922206D01*
X15000658Y-12122206D02*
X14981610Y-12112682D01*
X14981610Y-12112682D02*
X14972086Y-12093634D01*
X14972086Y-12093634D02*
X14972086Y-11922206D01*
X15229229Y-12122206D02*
X15229229Y-11922206D01*
X15229229Y-11922206D02*
X15295896Y-12065063D01*
X15295896Y-12065063D02*
X15362563Y-11922206D01*
X15362563Y-11922206D02*
X15362563Y-12122206D01*
X15543515Y-12122206D02*
X15543515Y-12017444D01*
X15543515Y-12017444D02*
X15533991Y-11998396D01*
X15533991Y-11998396D02*
X15514944Y-11988873D01*
X15514944Y-11988873D02*
X15476848Y-11988873D01*
X15476848Y-11988873D02*
X15457801Y-11998396D01*
X15543515Y-12112682D02*
X15524467Y-12122206D01*
X15524467Y-12122206D02*
X15476848Y-12122206D01*
X15476848Y-12122206D02*
X15457801Y-12112682D01*
X15457801Y-12112682D02*
X15448277Y-12093634D01*
X15448277Y-12093634D02*
X15448277Y-12074587D01*
X15448277Y-12074587D02*
X15457801Y-12055539D01*
X15457801Y-12055539D02*
X15476848Y-12046015D01*
X15476848Y-12046015D02*
X15524467Y-12046015D01*
X15524467Y-12046015D02*
X15543515Y-12036492D01*
X15638753Y-11988873D02*
X15638753Y-12188873D01*
X15638753Y-11998396D02*
X15657801Y-11988873D01*
X15657801Y-11988873D02*
X15695896Y-11988873D01*
X15695896Y-11988873D02*
X15714944Y-11998396D01*
X15714944Y-11998396D02*
X15724467Y-12007920D01*
X15724467Y-12007920D02*
X15733991Y-12026968D01*
X15733991Y-12026968D02*
X15733991Y-12084111D01*
X15733991Y-12084111D02*
X15724467Y-12103158D01*
X15724467Y-12103158D02*
X15714944Y-12112682D01*
X15714944Y-12112682D02*
X15695896Y-12122206D01*
X15695896Y-12122206D02*
X15657801Y-12122206D01*
X15657801Y-12122206D02*
X15638753Y-12112682D01*
X15819705Y-12103158D02*
X15829229Y-12112682D01*
X15829229Y-12112682D02*
X15819705Y-12122206D01*
X15819705Y-12122206D02*
X15810182Y-12112682D01*
X15810182Y-12112682D02*
X15819705Y-12103158D01*
X15819705Y-12103158D02*
X15819705Y-12122206D01*
X15819705Y-11998396D02*
X15829229Y-12007920D01*
X15829229Y-12007920D02*
X15819705Y-12017444D01*
X15819705Y-12017444D02*
X15810182Y-12007920D01*
X15810182Y-12007920D02*
X15819705Y-11998396D01*
X15819705Y-11998396D02*
X15819705Y-12017444D01*
D12*
X14157500Y-12435722D02*
X14187500Y-12465722D01*
X14187500Y-12435722D02*
X14157500Y-12465722D01*
D11*
X14486372Y-12342206D02*
X14505420Y-12342206D01*
X14505420Y-12342206D02*
X14524467Y-12351730D01*
X14524467Y-12351730D02*
X14533991Y-12361254D01*
X14533991Y-12361254D02*
X14543515Y-12380301D01*
X14543515Y-12380301D02*
X14553039Y-12418396D01*
X14553039Y-12418396D02*
X14553039Y-12466015D01*
X14553039Y-12466015D02*
X14543515Y-12504111D01*
X14543515Y-12504111D02*
X14533991Y-12523158D01*
X14533991Y-12523158D02*
X14524467Y-12532682D01*
X14524467Y-12532682D02*
X14505420Y-12542206D01*
X14505420Y-12542206D02*
X14486372Y-12542206D01*
X14486372Y-12542206D02*
X14467324Y-12532682D01*
X14467324Y-12532682D02*
X14457801Y-12523158D01*
X14457801Y-12523158D02*
X14448277Y-12504111D01*
X14448277Y-12504111D02*
X14438753Y-12466015D01*
X14438753Y-12466015D02*
X14438753Y-12418396D01*
X14438753Y-12418396D02*
X14448277Y-12380301D01*
X14448277Y-12380301D02*
X14457801Y-12361254D01*
X14457801Y-12361254D02*
X14467324Y-12351730D01*
X14467324Y-12351730D02*
X14486372Y-12342206D01*
X14638753Y-12523158D02*
X14648277Y-12532682D01*
X14648277Y-12532682D02*
X14638753Y-12542206D01*
X14638753Y-12542206D02*
X14629229Y-12532682D01*
X14629229Y-12532682D02*
X14638753Y-12523158D01*
X14638753Y-12523158D02*
X14638753Y-12542206D01*
X14714944Y-12342206D02*
X14838753Y-12342206D01*
X14838753Y-12342206D02*
X14772086Y-12418396D01*
X14772086Y-12418396D02*
X14800658Y-12418396D01*
X14800658Y-12418396D02*
X14819705Y-12427920D01*
X14819705Y-12427920D02*
X14829229Y-12437444D01*
X14829229Y-12437444D02*
X14838753Y-12456492D01*
X14838753Y-12456492D02*
X14838753Y-12504111D01*
X14838753Y-12504111D02*
X14829229Y-12523158D01*
X14829229Y-12523158D02*
X14819705Y-12532682D01*
X14819705Y-12532682D02*
X14800658Y-12542206D01*
X14800658Y-12542206D02*
X14743515Y-12542206D01*
X14743515Y-12542206D02*
X14724467Y-12532682D01*
X14724467Y-12532682D02*
X14714944Y-12523158D01*
X14962563Y-12342206D02*
X14981610Y-12342206D01*
X14981610Y-12342206D02*
X15000658Y-12351730D01*
X15000658Y-12351730D02*
X15010182Y-12361254D01*
X15010182Y-12361254D02*
X15019705Y-12380301D01*
X15019705Y-12380301D02*
X15029229Y-12418396D01*
X15029229Y-12418396D02*
X15029229Y-12466015D01*
X15029229Y-12466015D02*
X15019705Y-12504111D01*
X15019705Y-12504111D02*
X15010182Y-12523158D01*
X15010182Y-12523158D02*
X15000658Y-12532682D01*
X15000658Y-12532682D02*
X14981610Y-12542206D01*
X14981610Y-12542206D02*
X14962563Y-12542206D01*
X14962563Y-12542206D02*
X14943515Y-12532682D01*
X14943515Y-12532682D02*
X14933991Y-12523158D01*
X14933991Y-12523158D02*
X14924467Y-12504111D01*
X14924467Y-12504111D02*
X14914944Y-12466015D01*
X14914944Y-12466015D02*
X14914944Y-12418396D01*
X14914944Y-12418396D02*
X14924467Y-12380301D01*
X14924467Y-12380301D02*
X14933991Y-12361254D01*
X14933991Y-12361254D02*
X14943515Y-12351730D01*
X14943515Y-12351730D02*
X14962563Y-12342206D01*
X15153039Y-12342206D02*
X15172086Y-12342206D01*
X15172086Y-12342206D02*
X15191134Y-12351730D01*
X15191134Y-12351730D02*
X15200658Y-12361254D01*
X15200658Y-12361254D02*
X15210182Y-12380301D01*
X15210182Y-12380301D02*
X15219705Y-12418396D01*
X15219705Y-12418396D02*
X15219705Y-12466015D01*
X15219705Y-12466015D02*
X15210182Y-12504111D01*
X15210182Y-12504111D02*
X15200658Y-12523158D01*
X15200658Y-12523158D02*
X15191134Y-12532682D01*
X15191134Y-12532682D02*
X15172086Y-12542206D01*
X15172086Y-12542206D02*
X15153039Y-12542206D01*
X15153039Y-12542206D02*
X15133991Y-12532682D01*
X15133991Y-12532682D02*
X15124467Y-12523158D01*
X15124467Y-12523158D02*
X15114944Y-12504111D01*
X15114944Y-12504111D02*
X15105420Y-12466015D01*
X15105420Y-12466015D02*
X15105420Y-12418396D01*
X15105420Y-12418396D02*
X15114944Y-12380301D01*
X15114944Y-12380301D02*
X15124467Y-12361254D01*
X15124467Y-12361254D02*
X15133991Y-12351730D01*
X15133991Y-12351730D02*
X15153039Y-12342206D01*
X15305420Y-12542206D02*
X15305420Y-12408873D01*
X15305420Y-12427920D02*
X15314944Y-12418396D01*
X15314944Y-12418396D02*
X15333991Y-12408873D01*
X15333991Y-12408873D02*
X15362563Y-12408873D01*
X15362563Y-12408873D02*
X15381610Y-12418396D01*
X15381610Y-12418396D02*
X15391134Y-12437444D01*
X15391134Y-12437444D02*
X15391134Y-12542206D01*
X15391134Y-12437444D02*
X15400658Y-12418396D01*
X15400658Y-12418396D02*
X15419705Y-12408873D01*
X15419705Y-12408873D02*
X15448277Y-12408873D01*
X15448277Y-12408873D02*
X15467325Y-12418396D01*
X15467325Y-12418396D02*
X15476848Y-12437444D01*
X15476848Y-12437444D02*
X15476848Y-12542206D01*
X15572086Y-12542206D02*
X15572086Y-12408873D01*
X15572086Y-12427920D02*
X15581610Y-12418396D01*
X15581610Y-12418396D02*
X15600658Y-12408873D01*
X15600658Y-12408873D02*
X15629229Y-12408873D01*
X15629229Y-12408873D02*
X15648277Y-12418396D01*
X15648277Y-12418396D02*
X15657801Y-12437444D01*
X15657801Y-12437444D02*
X15657801Y-12542206D01*
X15657801Y-12437444D02*
X15667325Y-12418396D01*
X15667325Y-12418396D02*
X15686372Y-12408873D01*
X15686372Y-12408873D02*
X15714944Y-12408873D01*
X15714944Y-12408873D02*
X15733991Y-12418396D01*
X15733991Y-12418396D02*
X15743515Y-12437444D01*
X15743515Y-12437444D02*
X15743515Y-12542206D01*
X16133991Y-12332682D02*
X15962563Y-12589825D01*
X16391134Y-12342206D02*
X16410182Y-12342206D01*
X16410182Y-12342206D02*
X16429229Y-12351730D01*
X16429229Y-12351730D02*
X16438753Y-12361254D01*
X16438753Y-12361254D02*
X16448277Y-12380301D01*
X16448277Y-12380301D02*
X16457801Y-12418396D01*
X16457801Y-12418396D02*
X16457801Y-12466015D01*
X16457801Y-12466015D02*
X16448277Y-12504111D01*
X16448277Y-12504111D02*
X16438753Y-12523158D01*
X16438753Y-12523158D02*
X16429229Y-12532682D01*
X16429229Y-12532682D02*
X16410182Y-12542206D01*
X16410182Y-12542206D02*
X16391134Y-12542206D01*
X16391134Y-12542206D02*
X16372087Y-12532682D01*
X16372087Y-12532682D02*
X16362563Y-12523158D01*
X16362563Y-12523158D02*
X16353039Y-12504111D01*
X16353039Y-12504111D02*
X16343515Y-12466015D01*
X16343515Y-12466015D02*
X16343515Y-12418396D01*
X16343515Y-12418396D02*
X16353039Y-12380301D01*
X16353039Y-12380301D02*
X16362563Y-12361254D01*
X16362563Y-12361254D02*
X16372087Y-12351730D01*
X16372087Y-12351730D02*
X16391134Y-12342206D01*
X16543515Y-12523158D02*
X16553039Y-12532682D01*
X16553039Y-12532682D02*
X16543515Y-12542206D01*
X16543515Y-12542206D02*
X16533991Y-12532682D01*
X16533991Y-12532682D02*
X16543515Y-12523158D01*
X16543515Y-12523158D02*
X16543515Y-12542206D01*
X16676848Y-12342206D02*
X16695896Y-12342206D01*
X16695896Y-12342206D02*
X16714944Y-12351730D01*
X16714944Y-12351730D02*
X16724468Y-12361254D01*
X16724468Y-12361254D02*
X16733991Y-12380301D01*
X16733991Y-12380301D02*
X16743515Y-12418396D01*
X16743515Y-12418396D02*
X16743515Y-12466015D01*
X16743515Y-12466015D02*
X16733991Y-12504111D01*
X16733991Y-12504111D02*
X16724468Y-12523158D01*
X16724468Y-12523158D02*
X16714944Y-12532682D01*
X16714944Y-12532682D02*
X16695896Y-12542206D01*
X16695896Y-12542206D02*
X16676848Y-12542206D01*
X16676848Y-12542206D02*
X16657801Y-12532682D01*
X16657801Y-12532682D02*
X16648277Y-12523158D01*
X16648277Y-12523158D02*
X16638753Y-12504111D01*
X16638753Y-12504111D02*
X16629229Y-12466015D01*
X16629229Y-12466015D02*
X16629229Y-12418396D01*
X16629229Y-12418396D02*
X16638753Y-12380301D01*
X16638753Y-12380301D02*
X16648277Y-12361254D01*
X16648277Y-12361254D02*
X16657801Y-12351730D01*
X16657801Y-12351730D02*
X16676848Y-12342206D01*
X16933991Y-12542206D02*
X16819706Y-12542206D01*
X16876849Y-12542206D02*
X16876849Y-12342206D01*
X16876849Y-12342206D02*
X16857801Y-12370777D01*
X16857801Y-12370777D02*
X16838753Y-12389825D01*
X16838753Y-12389825D02*
X16819706Y-12399349D01*
X17124468Y-12542206D02*
X17010182Y-12542206D01*
X17067325Y-12542206D02*
X17067325Y-12342206D01*
X17067325Y-12342206D02*
X17048277Y-12370777D01*
X17048277Y-12370777D02*
X17029230Y-12389825D01*
X17029230Y-12389825D02*
X17010182Y-12399349D01*
X17238753Y-12427920D02*
X17219706Y-12418396D01*
X17219706Y-12418396D02*
X17210182Y-12408873D01*
X17210182Y-12408873D02*
X17200658Y-12389825D01*
X17200658Y-12389825D02*
X17200658Y-12380301D01*
X17200658Y-12380301D02*
X17210182Y-12361254D01*
X17210182Y-12361254D02*
X17219706Y-12351730D01*
X17219706Y-12351730D02*
X17238753Y-12342206D01*
X17238753Y-12342206D02*
X17276849Y-12342206D01*
X17276849Y-12342206D02*
X17295896Y-12351730D01*
X17295896Y-12351730D02*
X17305420Y-12361254D01*
X17305420Y-12361254D02*
X17314944Y-12380301D01*
X17314944Y-12380301D02*
X17314944Y-12389825D01*
X17314944Y-12389825D02*
X17305420Y-12408873D01*
X17305420Y-12408873D02*
X17295896Y-12418396D01*
X17295896Y-12418396D02*
X17276849Y-12427920D01*
X17276849Y-12427920D02*
X17238753Y-12427920D01*
X17238753Y-12427920D02*
X17219706Y-12437444D01*
X17219706Y-12437444D02*
X17210182Y-12446968D01*
X17210182Y-12446968D02*
X17200658Y-12466015D01*
X17200658Y-12466015D02*
X17200658Y-12504111D01*
X17200658Y-12504111D02*
X17210182Y-12523158D01*
X17210182Y-12523158D02*
X17219706Y-12532682D01*
X17219706Y-12532682D02*
X17238753Y-12542206D01*
X17238753Y-12542206D02*
X17276849Y-12542206D01*
X17276849Y-12542206D02*
X17295896Y-12532682D01*
X17295896Y-12532682D02*
X17305420Y-12523158D01*
X17305420Y-12523158D02*
X17314944Y-12504111D01*
X17314944Y-12504111D02*
X17314944Y-12466015D01*
X17314944Y-12466015D02*
X17305420Y-12446968D01*
X17305420Y-12446968D02*
X17295896Y-12437444D01*
X17295896Y-12437444D02*
X17276849Y-12427920D01*
X17391134Y-12342206D02*
X17391134Y-12380301D01*
X17467325Y-12342206D02*
X17467325Y-12380301D01*
X17762563Y-12618396D02*
X17753039Y-12608873D01*
X17753039Y-12608873D02*
X17733992Y-12580301D01*
X17733992Y-12580301D02*
X17724468Y-12561254D01*
X17724468Y-12561254D02*
X17714944Y-12532682D01*
X17714944Y-12532682D02*
X17705420Y-12485063D01*
X17705420Y-12485063D02*
X17705420Y-12446968D01*
X17705420Y-12446968D02*
X17714944Y-12399349D01*
X17714944Y-12399349D02*
X17724468Y-12370777D01*
X17724468Y-12370777D02*
X17733992Y-12351730D01*
X17733992Y-12351730D02*
X17753039Y-12323158D01*
X17753039Y-12323158D02*
X17762563Y-12313634D01*
X17933992Y-12342206D02*
X17838753Y-12342206D01*
X17838753Y-12342206D02*
X17829230Y-12437444D01*
X17829230Y-12437444D02*
X17838753Y-12427920D01*
X17838753Y-12427920D02*
X17857801Y-12418396D01*
X17857801Y-12418396D02*
X17905420Y-12418396D01*
X17905420Y-12418396D02*
X17924468Y-12427920D01*
X17924468Y-12427920D02*
X17933992Y-12437444D01*
X17933992Y-12437444D02*
X17943515Y-12456492D01*
X17943515Y-12456492D02*
X17943515Y-12504111D01*
X17943515Y-12504111D02*
X17933992Y-12523158D01*
X17933992Y-12523158D02*
X17924468Y-12532682D01*
X17924468Y-12532682D02*
X17905420Y-12542206D01*
X17905420Y-12542206D02*
X17857801Y-12542206D01*
X17857801Y-12542206D02*
X17838753Y-12532682D01*
X17838753Y-12532682D02*
X17829230Y-12523158D01*
X18133992Y-12542206D02*
X18019706Y-12542206D01*
X18076849Y-12542206D02*
X18076849Y-12342206D01*
X18076849Y-12342206D02*
X18057801Y-12370777D01*
X18057801Y-12370777D02*
X18038753Y-12389825D01*
X18038753Y-12389825D02*
X18019706Y-12399349D01*
X18372087Y-12542206D02*
X18372087Y-12342206D01*
X18457801Y-12542206D02*
X18457801Y-12437444D01*
X18457801Y-12437444D02*
X18448277Y-12418396D01*
X18448277Y-12418396D02*
X18429230Y-12408873D01*
X18429230Y-12408873D02*
X18400658Y-12408873D01*
X18400658Y-12408873D02*
X18381611Y-12418396D01*
X18381611Y-12418396D02*
X18372087Y-12427920D01*
X18581611Y-12542206D02*
X18562563Y-12532682D01*
X18562563Y-12532682D02*
X18553039Y-12523158D01*
X18553039Y-12523158D02*
X18543515Y-12504111D01*
X18543515Y-12504111D02*
X18543515Y-12446968D01*
X18543515Y-12446968D02*
X18553039Y-12427920D01*
X18553039Y-12427920D02*
X18562563Y-12418396D01*
X18562563Y-12418396D02*
X18581611Y-12408873D01*
X18581611Y-12408873D02*
X18610182Y-12408873D01*
X18610182Y-12408873D02*
X18629230Y-12418396D01*
X18629230Y-12418396D02*
X18638754Y-12427920D01*
X18638754Y-12427920D02*
X18648277Y-12446968D01*
X18648277Y-12446968D02*
X18648277Y-12504111D01*
X18648277Y-12504111D02*
X18638754Y-12523158D01*
X18638754Y-12523158D02*
X18629230Y-12532682D01*
X18629230Y-12532682D02*
X18610182Y-12542206D01*
X18610182Y-12542206D02*
X18581611Y-12542206D01*
X18762563Y-12542206D02*
X18743515Y-12532682D01*
X18743515Y-12532682D02*
X18733992Y-12513634D01*
X18733992Y-12513634D02*
X18733992Y-12342206D01*
X18914944Y-12532682D02*
X18895896Y-12542206D01*
X18895896Y-12542206D02*
X18857801Y-12542206D01*
X18857801Y-12542206D02*
X18838754Y-12532682D01*
X18838754Y-12532682D02*
X18829230Y-12513634D01*
X18829230Y-12513634D02*
X18829230Y-12437444D01*
X18829230Y-12437444D02*
X18838754Y-12418396D01*
X18838754Y-12418396D02*
X18857801Y-12408873D01*
X18857801Y-12408873D02*
X18895896Y-12408873D01*
X18895896Y-12408873D02*
X18914944Y-12418396D01*
X18914944Y-12418396D02*
X18924468Y-12437444D01*
X18924468Y-12437444D02*
X18924468Y-12456492D01*
X18924468Y-12456492D02*
X18829230Y-12475539D01*
X19000658Y-12532682D02*
X19019706Y-12542206D01*
X19019706Y-12542206D02*
X19057801Y-12542206D01*
X19057801Y-12542206D02*
X19076849Y-12532682D01*
X19076849Y-12532682D02*
X19086373Y-12513634D01*
X19086373Y-12513634D02*
X19086373Y-12504111D01*
X19086373Y-12504111D02*
X19076849Y-12485063D01*
X19076849Y-12485063D02*
X19057801Y-12475539D01*
X19057801Y-12475539D02*
X19029230Y-12475539D01*
X19029230Y-12475539D02*
X19010182Y-12466015D01*
X19010182Y-12466015D02*
X19000658Y-12446968D01*
X19000658Y-12446968D02*
X19000658Y-12437444D01*
X19000658Y-12437444D02*
X19010182Y-12418396D01*
X19010182Y-12418396D02*
X19029230Y-12408873D01*
X19029230Y-12408873D02*
X19057801Y-12408873D01*
X19057801Y-12408873D02*
X19076849Y-12418396D01*
X19153039Y-12618396D02*
X19162563Y-12608873D01*
X19162563Y-12608873D02*
X19181611Y-12580301D01*
X19181611Y-12580301D02*
X19191135Y-12561254D01*
X19191135Y-12561254D02*
X19200658Y-12532682D01*
X19200658Y-12532682D02*
X19210182Y-12485063D01*
X19210182Y-12485063D02*
X19210182Y-12446968D01*
X19210182Y-12446968D02*
X19200658Y-12399349D01*
X19200658Y-12399349D02*
X19191135Y-12370777D01*
X19191135Y-12370777D02*
X19181611Y-12351730D01*
X19181611Y-12351730D02*
X19162563Y-12323158D01*
X19162563Y-12323158D02*
X19153039Y-12313634D01*
D12*
X14187500Y-12714722D02*
G75*
G02*
X14087500Y-12714722I-50000J0D01*
G01*
X14087500Y-12714722D02*
G75*
G02*
X14187500Y-12714722I50000J0D01*
G01*
D11*
X14553039Y-12806206D02*
X14438753Y-12806206D01*
X14495896Y-12806206D02*
X14495896Y-12606206D01*
X14495896Y-12606206D02*
X14476848Y-12634777D01*
X14476848Y-12634777D02*
X14457801Y-12653825D01*
X14457801Y-12653825D02*
X14438753Y-12663349D01*
X14638753Y-12787158D02*
X14648277Y-12796682D01*
X14648277Y-12796682D02*
X14638753Y-12806206D01*
X14638753Y-12806206D02*
X14629229Y-12796682D01*
X14629229Y-12796682D02*
X14638753Y-12787158D01*
X14638753Y-12787158D02*
X14638753Y-12806206D01*
X14772086Y-12606206D02*
X14791134Y-12606206D01*
X14791134Y-12606206D02*
X14810182Y-12615730D01*
X14810182Y-12615730D02*
X14819705Y-12625254D01*
X14819705Y-12625254D02*
X14829229Y-12644301D01*
X14829229Y-12644301D02*
X14838753Y-12682396D01*
X14838753Y-12682396D02*
X14838753Y-12730015D01*
X14838753Y-12730015D02*
X14829229Y-12768111D01*
X14829229Y-12768111D02*
X14819705Y-12787158D01*
X14819705Y-12787158D02*
X14810182Y-12796682D01*
X14810182Y-12796682D02*
X14791134Y-12806206D01*
X14791134Y-12806206D02*
X14772086Y-12806206D01*
X14772086Y-12806206D02*
X14753039Y-12796682D01*
X14753039Y-12796682D02*
X14743515Y-12787158D01*
X14743515Y-12787158D02*
X14733991Y-12768111D01*
X14733991Y-12768111D02*
X14724467Y-12730015D01*
X14724467Y-12730015D02*
X14724467Y-12682396D01*
X14724467Y-12682396D02*
X14733991Y-12644301D01*
X14733991Y-12644301D02*
X14743515Y-12625254D01*
X14743515Y-12625254D02*
X14753039Y-12615730D01*
X14753039Y-12615730D02*
X14772086Y-12606206D01*
X14962563Y-12606206D02*
X14981610Y-12606206D01*
X14981610Y-12606206D02*
X15000658Y-12615730D01*
X15000658Y-12615730D02*
X15010182Y-12625254D01*
X15010182Y-12625254D02*
X15019705Y-12644301D01*
X15019705Y-12644301D02*
X15029229Y-12682396D01*
X15029229Y-12682396D02*
X15029229Y-12730015D01*
X15029229Y-12730015D02*
X15019705Y-12768111D01*
X15019705Y-12768111D02*
X15010182Y-12787158D01*
X15010182Y-12787158D02*
X15000658Y-12796682D01*
X15000658Y-12796682D02*
X14981610Y-12806206D01*
X14981610Y-12806206D02*
X14962563Y-12806206D01*
X14962563Y-12806206D02*
X14943515Y-12796682D01*
X14943515Y-12796682D02*
X14933991Y-12787158D01*
X14933991Y-12787158D02*
X14924467Y-12768111D01*
X14924467Y-12768111D02*
X14914944Y-12730015D01*
X14914944Y-12730015D02*
X14914944Y-12682396D01*
X14914944Y-12682396D02*
X14924467Y-12644301D01*
X14924467Y-12644301D02*
X14933991Y-12625254D01*
X14933991Y-12625254D02*
X14943515Y-12615730D01*
X14943515Y-12615730D02*
X14962563Y-12606206D01*
X15153039Y-12606206D02*
X15172086Y-12606206D01*
X15172086Y-12606206D02*
X15191134Y-12615730D01*
X15191134Y-12615730D02*
X15200658Y-12625254D01*
X15200658Y-12625254D02*
X15210182Y-12644301D01*
X15210182Y-12644301D02*
X15219705Y-12682396D01*
X15219705Y-12682396D02*
X15219705Y-12730015D01*
X15219705Y-12730015D02*
X15210182Y-12768111D01*
X15210182Y-12768111D02*
X15200658Y-12787158D01*
X15200658Y-12787158D02*
X15191134Y-12796682D01*
X15191134Y-12796682D02*
X15172086Y-12806206D01*
X15172086Y-12806206D02*
X15153039Y-12806206D01*
X15153039Y-12806206D02*
X15133991Y-12796682D01*
X15133991Y-12796682D02*
X15124467Y-12787158D01*
X15124467Y-12787158D02*
X15114944Y-12768111D01*
X15114944Y-12768111D02*
X15105420Y-12730015D01*
X15105420Y-12730015D02*
X15105420Y-12682396D01*
X15105420Y-12682396D02*
X15114944Y-12644301D01*
X15114944Y-12644301D02*
X15124467Y-12625254D01*
X15124467Y-12625254D02*
X15133991Y-12615730D01*
X15133991Y-12615730D02*
X15153039Y-12606206D01*
X15305420Y-12806206D02*
X15305420Y-12672873D01*
X15305420Y-12691920D02*
X15314944Y-12682396D01*
X15314944Y-12682396D02*
X15333991Y-12672873D01*
X15333991Y-12672873D02*
X15362563Y-12672873D01*
X15362563Y-12672873D02*
X15381610Y-12682396D01*
X15381610Y-12682396D02*
X15391134Y-12701444D01*
X15391134Y-12701444D02*
X15391134Y-12806206D01*
X15391134Y-12701444D02*
X15400658Y-12682396D01*
X15400658Y-12682396D02*
X15419705Y-12672873D01*
X15419705Y-12672873D02*
X15448277Y-12672873D01*
X15448277Y-12672873D02*
X15467325Y-12682396D01*
X15467325Y-12682396D02*
X15476848Y-12701444D01*
X15476848Y-12701444D02*
X15476848Y-12806206D01*
X15572086Y-12806206D02*
X15572086Y-12672873D01*
X15572086Y-12691920D02*
X15581610Y-12682396D01*
X15581610Y-12682396D02*
X15600658Y-12672873D01*
X15600658Y-12672873D02*
X15629229Y-12672873D01*
X15629229Y-12672873D02*
X15648277Y-12682396D01*
X15648277Y-12682396D02*
X15657801Y-12701444D01*
X15657801Y-12701444D02*
X15657801Y-12806206D01*
X15657801Y-12701444D02*
X15667325Y-12682396D01*
X15667325Y-12682396D02*
X15686372Y-12672873D01*
X15686372Y-12672873D02*
X15714944Y-12672873D01*
X15714944Y-12672873D02*
X15733991Y-12682396D01*
X15733991Y-12682396D02*
X15743515Y-12701444D01*
X15743515Y-12701444D02*
X15743515Y-12806206D01*
X16133991Y-12596682D02*
X15962563Y-12853825D01*
X16391134Y-12606206D02*
X16410182Y-12606206D01*
X16410182Y-12606206D02*
X16429229Y-12615730D01*
X16429229Y-12615730D02*
X16438753Y-12625254D01*
X16438753Y-12625254D02*
X16448277Y-12644301D01*
X16448277Y-12644301D02*
X16457801Y-12682396D01*
X16457801Y-12682396D02*
X16457801Y-12730015D01*
X16457801Y-12730015D02*
X16448277Y-12768111D01*
X16448277Y-12768111D02*
X16438753Y-12787158D01*
X16438753Y-12787158D02*
X16429229Y-12796682D01*
X16429229Y-12796682D02*
X16410182Y-12806206D01*
X16410182Y-12806206D02*
X16391134Y-12806206D01*
X16391134Y-12806206D02*
X16372087Y-12796682D01*
X16372087Y-12796682D02*
X16362563Y-12787158D01*
X16362563Y-12787158D02*
X16353039Y-12768111D01*
X16353039Y-12768111D02*
X16343515Y-12730015D01*
X16343515Y-12730015D02*
X16343515Y-12682396D01*
X16343515Y-12682396D02*
X16353039Y-12644301D01*
X16353039Y-12644301D02*
X16362563Y-12625254D01*
X16362563Y-12625254D02*
X16372087Y-12615730D01*
X16372087Y-12615730D02*
X16391134Y-12606206D01*
X16543515Y-12787158D02*
X16553039Y-12796682D01*
X16553039Y-12796682D02*
X16543515Y-12806206D01*
X16543515Y-12806206D02*
X16533991Y-12796682D01*
X16533991Y-12796682D02*
X16543515Y-12787158D01*
X16543515Y-12787158D02*
X16543515Y-12806206D01*
X16676848Y-12606206D02*
X16695896Y-12606206D01*
X16695896Y-12606206D02*
X16714944Y-12615730D01*
X16714944Y-12615730D02*
X16724468Y-12625254D01*
X16724468Y-12625254D02*
X16733991Y-12644301D01*
X16733991Y-12644301D02*
X16743515Y-12682396D01*
X16743515Y-12682396D02*
X16743515Y-12730015D01*
X16743515Y-12730015D02*
X16733991Y-12768111D01*
X16733991Y-12768111D02*
X16724468Y-12787158D01*
X16724468Y-12787158D02*
X16714944Y-12796682D01*
X16714944Y-12796682D02*
X16695896Y-12806206D01*
X16695896Y-12806206D02*
X16676848Y-12806206D01*
X16676848Y-12806206D02*
X16657801Y-12796682D01*
X16657801Y-12796682D02*
X16648277Y-12787158D01*
X16648277Y-12787158D02*
X16638753Y-12768111D01*
X16638753Y-12768111D02*
X16629229Y-12730015D01*
X16629229Y-12730015D02*
X16629229Y-12682396D01*
X16629229Y-12682396D02*
X16638753Y-12644301D01*
X16638753Y-12644301D02*
X16648277Y-12625254D01*
X16648277Y-12625254D02*
X16657801Y-12615730D01*
X16657801Y-12615730D02*
X16676848Y-12606206D01*
X16810182Y-12606206D02*
X16933991Y-12606206D01*
X16933991Y-12606206D02*
X16867325Y-12682396D01*
X16867325Y-12682396D02*
X16895896Y-12682396D01*
X16895896Y-12682396D02*
X16914944Y-12691920D01*
X16914944Y-12691920D02*
X16924468Y-12701444D01*
X16924468Y-12701444D02*
X16933991Y-12720492D01*
X16933991Y-12720492D02*
X16933991Y-12768111D01*
X16933991Y-12768111D02*
X16924468Y-12787158D01*
X16924468Y-12787158D02*
X16914944Y-12796682D01*
X16914944Y-12796682D02*
X16895896Y-12806206D01*
X16895896Y-12806206D02*
X16838753Y-12806206D01*
X16838753Y-12806206D02*
X16819706Y-12796682D01*
X16819706Y-12796682D02*
X16810182Y-12787158D01*
X17029230Y-12806206D02*
X17067325Y-12806206D01*
X17067325Y-12806206D02*
X17086372Y-12796682D01*
X17086372Y-12796682D02*
X17095896Y-12787158D01*
X17095896Y-12787158D02*
X17114944Y-12758587D01*
X17114944Y-12758587D02*
X17124468Y-12720492D01*
X17124468Y-12720492D02*
X17124468Y-12644301D01*
X17124468Y-12644301D02*
X17114944Y-12625254D01*
X17114944Y-12625254D02*
X17105420Y-12615730D01*
X17105420Y-12615730D02*
X17086372Y-12606206D01*
X17086372Y-12606206D02*
X17048277Y-12606206D01*
X17048277Y-12606206D02*
X17029230Y-12615730D01*
X17029230Y-12615730D02*
X17019706Y-12625254D01*
X17019706Y-12625254D02*
X17010182Y-12644301D01*
X17010182Y-12644301D02*
X17010182Y-12691920D01*
X17010182Y-12691920D02*
X17019706Y-12710968D01*
X17019706Y-12710968D02*
X17029230Y-12720492D01*
X17029230Y-12720492D02*
X17048277Y-12730015D01*
X17048277Y-12730015D02*
X17086372Y-12730015D01*
X17086372Y-12730015D02*
X17105420Y-12720492D01*
X17105420Y-12720492D02*
X17114944Y-12710968D01*
X17114944Y-12710968D02*
X17124468Y-12691920D01*
X17295896Y-12672873D02*
X17295896Y-12806206D01*
X17248277Y-12596682D02*
X17200658Y-12739539D01*
X17200658Y-12739539D02*
X17324468Y-12739539D01*
X17391134Y-12606206D02*
X17391134Y-12644301D01*
X17467325Y-12606206D02*
X17467325Y-12644301D01*
X17762563Y-12882396D02*
X17753039Y-12872873D01*
X17753039Y-12872873D02*
X17733992Y-12844301D01*
X17733992Y-12844301D02*
X17724468Y-12825254D01*
X17724468Y-12825254D02*
X17714944Y-12796682D01*
X17714944Y-12796682D02*
X17705420Y-12749063D01*
X17705420Y-12749063D02*
X17705420Y-12710968D01*
X17705420Y-12710968D02*
X17714944Y-12663349D01*
X17714944Y-12663349D02*
X17724468Y-12634777D01*
X17724468Y-12634777D02*
X17733992Y-12615730D01*
X17733992Y-12615730D02*
X17753039Y-12587158D01*
X17753039Y-12587158D02*
X17762563Y-12577634D01*
X17924468Y-12606206D02*
X17886372Y-12606206D01*
X17886372Y-12606206D02*
X17867325Y-12615730D01*
X17867325Y-12615730D02*
X17857801Y-12625254D01*
X17857801Y-12625254D02*
X17838753Y-12653825D01*
X17838753Y-12653825D02*
X17829230Y-12691920D01*
X17829230Y-12691920D02*
X17829230Y-12768111D01*
X17829230Y-12768111D02*
X17838753Y-12787158D01*
X17838753Y-12787158D02*
X17848277Y-12796682D01*
X17848277Y-12796682D02*
X17867325Y-12806206D01*
X17867325Y-12806206D02*
X17905420Y-12806206D01*
X17905420Y-12806206D02*
X17924468Y-12796682D01*
X17924468Y-12796682D02*
X17933992Y-12787158D01*
X17933992Y-12787158D02*
X17943515Y-12768111D01*
X17943515Y-12768111D02*
X17943515Y-12720492D01*
X17943515Y-12720492D02*
X17933992Y-12701444D01*
X17933992Y-12701444D02*
X17924468Y-12691920D01*
X17924468Y-12691920D02*
X17905420Y-12682396D01*
X17905420Y-12682396D02*
X17867325Y-12682396D01*
X17867325Y-12682396D02*
X17848277Y-12691920D01*
X17848277Y-12691920D02*
X17838753Y-12701444D01*
X17838753Y-12701444D02*
X17829230Y-12720492D01*
X18010182Y-12606206D02*
X18133992Y-12606206D01*
X18133992Y-12606206D02*
X18067325Y-12682396D01*
X18067325Y-12682396D02*
X18095896Y-12682396D01*
X18095896Y-12682396D02*
X18114944Y-12691920D01*
X18114944Y-12691920D02*
X18124468Y-12701444D01*
X18124468Y-12701444D02*
X18133992Y-12720492D01*
X18133992Y-12720492D02*
X18133992Y-12768111D01*
X18133992Y-12768111D02*
X18124468Y-12787158D01*
X18124468Y-12787158D02*
X18114944Y-12796682D01*
X18114944Y-12796682D02*
X18095896Y-12806206D01*
X18095896Y-12806206D02*
X18038753Y-12806206D01*
X18038753Y-12806206D02*
X18019706Y-12796682D01*
X18019706Y-12796682D02*
X18010182Y-12787158D01*
X18372087Y-12806206D02*
X18372087Y-12606206D01*
X18457801Y-12806206D02*
X18457801Y-12701444D01*
X18457801Y-12701444D02*
X18448277Y-12682396D01*
X18448277Y-12682396D02*
X18429230Y-12672873D01*
X18429230Y-12672873D02*
X18400658Y-12672873D01*
X18400658Y-12672873D02*
X18381611Y-12682396D01*
X18381611Y-12682396D02*
X18372087Y-12691920D01*
X18581611Y-12806206D02*
X18562563Y-12796682D01*
X18562563Y-12796682D02*
X18553039Y-12787158D01*
X18553039Y-12787158D02*
X18543515Y-12768111D01*
X18543515Y-12768111D02*
X18543515Y-12710968D01*
X18543515Y-12710968D02*
X18553039Y-12691920D01*
X18553039Y-12691920D02*
X18562563Y-12682396D01*
X18562563Y-12682396D02*
X18581611Y-12672873D01*
X18581611Y-12672873D02*
X18610182Y-12672873D01*
X18610182Y-12672873D02*
X18629230Y-12682396D01*
X18629230Y-12682396D02*
X18638754Y-12691920D01*
X18638754Y-12691920D02*
X18648277Y-12710968D01*
X18648277Y-12710968D02*
X18648277Y-12768111D01*
X18648277Y-12768111D02*
X18638754Y-12787158D01*
X18638754Y-12787158D02*
X18629230Y-12796682D01*
X18629230Y-12796682D02*
X18610182Y-12806206D01*
X18610182Y-12806206D02*
X18581611Y-12806206D01*
X18762563Y-12806206D02*
X18743515Y-12796682D01*
X18743515Y-12796682D02*
X18733992Y-12777634D01*
X18733992Y-12777634D02*
X18733992Y-12606206D01*
X18914944Y-12796682D02*
X18895896Y-12806206D01*
X18895896Y-12806206D02*
X18857801Y-12806206D01*
X18857801Y-12806206D02*
X18838754Y-12796682D01*
X18838754Y-12796682D02*
X18829230Y-12777634D01*
X18829230Y-12777634D02*
X18829230Y-12701444D01*
X18829230Y-12701444D02*
X18838754Y-12682396D01*
X18838754Y-12682396D02*
X18857801Y-12672873D01*
X18857801Y-12672873D02*
X18895896Y-12672873D01*
X18895896Y-12672873D02*
X18914944Y-12682396D01*
X18914944Y-12682396D02*
X18924468Y-12701444D01*
X18924468Y-12701444D02*
X18924468Y-12720492D01*
X18924468Y-12720492D02*
X18829230Y-12739539D01*
X19000658Y-12796682D02*
X19019706Y-12806206D01*
X19019706Y-12806206D02*
X19057801Y-12806206D01*
X19057801Y-12806206D02*
X19076849Y-12796682D01*
X19076849Y-12796682D02*
X19086373Y-12777634D01*
X19086373Y-12777634D02*
X19086373Y-12768111D01*
X19086373Y-12768111D02*
X19076849Y-12749063D01*
X19076849Y-12749063D02*
X19057801Y-12739539D01*
X19057801Y-12739539D02*
X19029230Y-12739539D01*
X19029230Y-12739539D02*
X19010182Y-12730015D01*
X19010182Y-12730015D02*
X19000658Y-12710968D01*
X19000658Y-12710968D02*
X19000658Y-12701444D01*
X19000658Y-12701444D02*
X19010182Y-12682396D01*
X19010182Y-12682396D02*
X19029230Y-12672873D01*
X19029230Y-12672873D02*
X19057801Y-12672873D01*
X19057801Y-12672873D02*
X19076849Y-12682396D01*
X19153039Y-12882396D02*
X19162563Y-12872873D01*
X19162563Y-12872873D02*
X19181611Y-12844301D01*
X19181611Y-12844301D02*
X19191135Y-12825254D01*
X19191135Y-12825254D02*
X19200658Y-12796682D01*
X19200658Y-12796682D02*
X19210182Y-12749063D01*
X19210182Y-12749063D02*
X19210182Y-12710968D01*
X19210182Y-12710968D02*
X19200658Y-12663349D01*
X19200658Y-12663349D02*
X19191135Y-12634777D01*
X19191135Y-12634777D02*
X19181611Y-12615730D01*
X19181611Y-12615730D02*
X19162563Y-12587158D01*
X19162563Y-12587158D02*
X19153039Y-12577634D01*
X14087500Y-12878722D02*
X14087500Y-13078722D01*
X13987500Y-12978722D02*
X14187500Y-12978722D01*
X14438753Y-12889254D02*
X14448277Y-12879730D01*
X14448277Y-12879730D02*
X14467324Y-12870206D01*
X14467324Y-12870206D02*
X14514944Y-12870206D01*
X14514944Y-12870206D02*
X14533991Y-12879730D01*
X14533991Y-12879730D02*
X14543515Y-12889254D01*
X14543515Y-12889254D02*
X14553039Y-12908301D01*
X14553039Y-12908301D02*
X14553039Y-12927349D01*
X14553039Y-12927349D02*
X14543515Y-12955920D01*
X14543515Y-12955920D02*
X14429229Y-13070206D01*
X14429229Y-13070206D02*
X14553039Y-13070206D01*
X14638753Y-13051158D02*
X14648277Y-13060682D01*
X14648277Y-13060682D02*
X14638753Y-13070206D01*
X14638753Y-13070206D02*
X14629229Y-13060682D01*
X14629229Y-13060682D02*
X14638753Y-13051158D01*
X14638753Y-13051158D02*
X14638753Y-13070206D01*
X14724467Y-12889254D02*
X14733991Y-12879730D01*
X14733991Y-12879730D02*
X14753039Y-12870206D01*
X14753039Y-12870206D02*
X14800658Y-12870206D01*
X14800658Y-12870206D02*
X14819705Y-12879730D01*
X14819705Y-12879730D02*
X14829229Y-12889254D01*
X14829229Y-12889254D02*
X14838753Y-12908301D01*
X14838753Y-12908301D02*
X14838753Y-12927349D01*
X14838753Y-12927349D02*
X14829229Y-12955920D01*
X14829229Y-12955920D02*
X14714944Y-13070206D01*
X14714944Y-13070206D02*
X14838753Y-13070206D01*
X14962563Y-12870206D02*
X14981610Y-12870206D01*
X14981610Y-12870206D02*
X15000658Y-12879730D01*
X15000658Y-12879730D02*
X15010182Y-12889254D01*
X15010182Y-12889254D02*
X15019705Y-12908301D01*
X15019705Y-12908301D02*
X15029229Y-12946396D01*
X15029229Y-12946396D02*
X15029229Y-12994015D01*
X15029229Y-12994015D02*
X15019705Y-13032111D01*
X15019705Y-13032111D02*
X15010182Y-13051158D01*
X15010182Y-13051158D02*
X15000658Y-13060682D01*
X15000658Y-13060682D02*
X14981610Y-13070206D01*
X14981610Y-13070206D02*
X14962563Y-13070206D01*
X14962563Y-13070206D02*
X14943515Y-13060682D01*
X14943515Y-13060682D02*
X14933991Y-13051158D01*
X14933991Y-13051158D02*
X14924467Y-13032111D01*
X14924467Y-13032111D02*
X14914944Y-12994015D01*
X14914944Y-12994015D02*
X14914944Y-12946396D01*
X14914944Y-12946396D02*
X14924467Y-12908301D01*
X14924467Y-12908301D02*
X14933991Y-12889254D01*
X14933991Y-12889254D02*
X14943515Y-12879730D01*
X14943515Y-12879730D02*
X14962563Y-12870206D01*
X15153039Y-12870206D02*
X15172086Y-12870206D01*
X15172086Y-12870206D02*
X15191134Y-12879730D01*
X15191134Y-12879730D02*
X15200658Y-12889254D01*
X15200658Y-12889254D02*
X15210182Y-12908301D01*
X15210182Y-12908301D02*
X15219705Y-12946396D01*
X15219705Y-12946396D02*
X15219705Y-12994015D01*
X15219705Y-12994015D02*
X15210182Y-13032111D01*
X15210182Y-13032111D02*
X15200658Y-13051158D01*
X15200658Y-13051158D02*
X15191134Y-13060682D01*
X15191134Y-13060682D02*
X15172086Y-13070206D01*
X15172086Y-13070206D02*
X15153039Y-13070206D01*
X15153039Y-13070206D02*
X15133991Y-13060682D01*
X15133991Y-13060682D02*
X15124467Y-13051158D01*
X15124467Y-13051158D02*
X15114944Y-13032111D01*
X15114944Y-13032111D02*
X15105420Y-12994015D01*
X15105420Y-12994015D02*
X15105420Y-12946396D01*
X15105420Y-12946396D02*
X15114944Y-12908301D01*
X15114944Y-12908301D02*
X15124467Y-12889254D01*
X15124467Y-12889254D02*
X15133991Y-12879730D01*
X15133991Y-12879730D02*
X15153039Y-12870206D01*
X15305420Y-13070206D02*
X15305420Y-12936873D01*
X15305420Y-12955920D02*
X15314944Y-12946396D01*
X15314944Y-12946396D02*
X15333991Y-12936873D01*
X15333991Y-12936873D02*
X15362563Y-12936873D01*
X15362563Y-12936873D02*
X15381610Y-12946396D01*
X15381610Y-12946396D02*
X15391134Y-12965444D01*
X15391134Y-12965444D02*
X15391134Y-13070206D01*
X15391134Y-12965444D02*
X15400658Y-12946396D01*
X15400658Y-12946396D02*
X15419705Y-12936873D01*
X15419705Y-12936873D02*
X15448277Y-12936873D01*
X15448277Y-12936873D02*
X15467325Y-12946396D01*
X15467325Y-12946396D02*
X15476848Y-12965444D01*
X15476848Y-12965444D02*
X15476848Y-13070206D01*
X15572086Y-13070206D02*
X15572086Y-12936873D01*
X15572086Y-12955920D02*
X15581610Y-12946396D01*
X15581610Y-12946396D02*
X15600658Y-12936873D01*
X15600658Y-12936873D02*
X15629229Y-12936873D01*
X15629229Y-12936873D02*
X15648277Y-12946396D01*
X15648277Y-12946396D02*
X15657801Y-12965444D01*
X15657801Y-12965444D02*
X15657801Y-13070206D01*
X15657801Y-12965444D02*
X15667325Y-12946396D01*
X15667325Y-12946396D02*
X15686372Y-12936873D01*
X15686372Y-12936873D02*
X15714944Y-12936873D01*
X15714944Y-12936873D02*
X15733991Y-12946396D01*
X15733991Y-12946396D02*
X15743515Y-12965444D01*
X15743515Y-12965444D02*
X15743515Y-13070206D01*
X16133991Y-12860682D02*
X15962563Y-13117825D01*
X16391134Y-12870206D02*
X16410182Y-12870206D01*
X16410182Y-12870206D02*
X16429229Y-12879730D01*
X16429229Y-12879730D02*
X16438753Y-12889254D01*
X16438753Y-12889254D02*
X16448277Y-12908301D01*
X16448277Y-12908301D02*
X16457801Y-12946396D01*
X16457801Y-12946396D02*
X16457801Y-12994015D01*
X16457801Y-12994015D02*
X16448277Y-13032111D01*
X16448277Y-13032111D02*
X16438753Y-13051158D01*
X16438753Y-13051158D02*
X16429229Y-13060682D01*
X16429229Y-13060682D02*
X16410182Y-13070206D01*
X16410182Y-13070206D02*
X16391134Y-13070206D01*
X16391134Y-13070206D02*
X16372087Y-13060682D01*
X16372087Y-13060682D02*
X16362563Y-13051158D01*
X16362563Y-13051158D02*
X16353039Y-13032111D01*
X16353039Y-13032111D02*
X16343515Y-12994015D01*
X16343515Y-12994015D02*
X16343515Y-12946396D01*
X16343515Y-12946396D02*
X16353039Y-12908301D01*
X16353039Y-12908301D02*
X16362563Y-12889254D01*
X16362563Y-12889254D02*
X16372087Y-12879730D01*
X16372087Y-12879730D02*
X16391134Y-12870206D01*
X16543515Y-13051158D02*
X16553039Y-13060682D01*
X16553039Y-13060682D02*
X16543515Y-13070206D01*
X16543515Y-13070206D02*
X16533991Y-13060682D01*
X16533991Y-13060682D02*
X16543515Y-13051158D01*
X16543515Y-13051158D02*
X16543515Y-13070206D01*
X16676848Y-12870206D02*
X16695896Y-12870206D01*
X16695896Y-12870206D02*
X16714944Y-12879730D01*
X16714944Y-12879730D02*
X16724468Y-12889254D01*
X16724468Y-12889254D02*
X16733991Y-12908301D01*
X16733991Y-12908301D02*
X16743515Y-12946396D01*
X16743515Y-12946396D02*
X16743515Y-12994015D01*
X16743515Y-12994015D02*
X16733991Y-13032111D01*
X16733991Y-13032111D02*
X16724468Y-13051158D01*
X16724468Y-13051158D02*
X16714944Y-13060682D01*
X16714944Y-13060682D02*
X16695896Y-13070206D01*
X16695896Y-13070206D02*
X16676848Y-13070206D01*
X16676848Y-13070206D02*
X16657801Y-13060682D01*
X16657801Y-13060682D02*
X16648277Y-13051158D01*
X16648277Y-13051158D02*
X16638753Y-13032111D01*
X16638753Y-13032111D02*
X16629229Y-12994015D01*
X16629229Y-12994015D02*
X16629229Y-12946396D01*
X16629229Y-12946396D02*
X16638753Y-12908301D01*
X16638753Y-12908301D02*
X16648277Y-12889254D01*
X16648277Y-12889254D02*
X16657801Y-12879730D01*
X16657801Y-12879730D02*
X16676848Y-12870206D01*
X16857801Y-12955920D02*
X16838753Y-12946396D01*
X16838753Y-12946396D02*
X16829230Y-12936873D01*
X16829230Y-12936873D02*
X16819706Y-12917825D01*
X16819706Y-12917825D02*
X16819706Y-12908301D01*
X16819706Y-12908301D02*
X16829230Y-12889254D01*
X16829230Y-12889254D02*
X16838753Y-12879730D01*
X16838753Y-12879730D02*
X16857801Y-12870206D01*
X16857801Y-12870206D02*
X16895896Y-12870206D01*
X16895896Y-12870206D02*
X16914944Y-12879730D01*
X16914944Y-12879730D02*
X16924468Y-12889254D01*
X16924468Y-12889254D02*
X16933991Y-12908301D01*
X16933991Y-12908301D02*
X16933991Y-12917825D01*
X16933991Y-12917825D02*
X16924468Y-12936873D01*
X16924468Y-12936873D02*
X16914944Y-12946396D01*
X16914944Y-12946396D02*
X16895896Y-12955920D01*
X16895896Y-12955920D02*
X16857801Y-12955920D01*
X16857801Y-12955920D02*
X16838753Y-12965444D01*
X16838753Y-12965444D02*
X16829230Y-12974968D01*
X16829230Y-12974968D02*
X16819706Y-12994015D01*
X16819706Y-12994015D02*
X16819706Y-13032111D01*
X16819706Y-13032111D02*
X16829230Y-13051158D01*
X16829230Y-13051158D02*
X16838753Y-13060682D01*
X16838753Y-13060682D02*
X16857801Y-13070206D01*
X16857801Y-13070206D02*
X16895896Y-13070206D01*
X16895896Y-13070206D02*
X16914944Y-13060682D01*
X16914944Y-13060682D02*
X16924468Y-13051158D01*
X16924468Y-13051158D02*
X16933991Y-13032111D01*
X16933991Y-13032111D02*
X16933991Y-12994015D01*
X16933991Y-12994015D02*
X16924468Y-12974968D01*
X16924468Y-12974968D02*
X16914944Y-12965444D01*
X16914944Y-12965444D02*
X16895896Y-12955920D01*
X17105420Y-12870206D02*
X17067325Y-12870206D01*
X17067325Y-12870206D02*
X17048277Y-12879730D01*
X17048277Y-12879730D02*
X17038753Y-12889254D01*
X17038753Y-12889254D02*
X17019706Y-12917825D01*
X17019706Y-12917825D02*
X17010182Y-12955920D01*
X17010182Y-12955920D02*
X17010182Y-13032111D01*
X17010182Y-13032111D02*
X17019706Y-13051158D01*
X17019706Y-13051158D02*
X17029230Y-13060682D01*
X17029230Y-13060682D02*
X17048277Y-13070206D01*
X17048277Y-13070206D02*
X17086372Y-13070206D01*
X17086372Y-13070206D02*
X17105420Y-13060682D01*
X17105420Y-13060682D02*
X17114944Y-13051158D01*
X17114944Y-13051158D02*
X17124468Y-13032111D01*
X17124468Y-13032111D02*
X17124468Y-12984492D01*
X17124468Y-12984492D02*
X17114944Y-12965444D01*
X17114944Y-12965444D02*
X17105420Y-12955920D01*
X17105420Y-12955920D02*
X17086372Y-12946396D01*
X17086372Y-12946396D02*
X17048277Y-12946396D01*
X17048277Y-12946396D02*
X17029230Y-12955920D01*
X17029230Y-12955920D02*
X17019706Y-12965444D01*
X17019706Y-12965444D02*
X17010182Y-12984492D01*
X17295896Y-12870206D02*
X17257801Y-12870206D01*
X17257801Y-12870206D02*
X17238753Y-12879730D01*
X17238753Y-12879730D02*
X17229230Y-12889254D01*
X17229230Y-12889254D02*
X17210182Y-12917825D01*
X17210182Y-12917825D02*
X17200658Y-12955920D01*
X17200658Y-12955920D02*
X17200658Y-13032111D01*
X17200658Y-13032111D02*
X17210182Y-13051158D01*
X17210182Y-13051158D02*
X17219706Y-13060682D01*
X17219706Y-13060682D02*
X17238753Y-13070206D01*
X17238753Y-13070206D02*
X17276849Y-13070206D01*
X17276849Y-13070206D02*
X17295896Y-13060682D01*
X17295896Y-13060682D02*
X17305420Y-13051158D01*
X17305420Y-13051158D02*
X17314944Y-13032111D01*
X17314944Y-13032111D02*
X17314944Y-12984492D01*
X17314944Y-12984492D02*
X17305420Y-12965444D01*
X17305420Y-12965444D02*
X17295896Y-12955920D01*
X17295896Y-12955920D02*
X17276849Y-12946396D01*
X17276849Y-12946396D02*
X17238753Y-12946396D01*
X17238753Y-12946396D02*
X17219706Y-12955920D01*
X17219706Y-12955920D02*
X17210182Y-12965444D01*
X17210182Y-12965444D02*
X17200658Y-12984492D01*
X17391134Y-12870206D02*
X17391134Y-12908301D01*
X17467325Y-12870206D02*
X17467325Y-12908301D01*
X17762563Y-13146396D02*
X17753039Y-13136873D01*
X17753039Y-13136873D02*
X17733992Y-13108301D01*
X17733992Y-13108301D02*
X17724468Y-13089254D01*
X17724468Y-13089254D02*
X17714944Y-13060682D01*
X17714944Y-13060682D02*
X17705420Y-13013063D01*
X17705420Y-13013063D02*
X17705420Y-12974968D01*
X17705420Y-12974968D02*
X17714944Y-12927349D01*
X17714944Y-12927349D02*
X17724468Y-12898777D01*
X17724468Y-12898777D02*
X17733992Y-12879730D01*
X17733992Y-12879730D02*
X17753039Y-12851158D01*
X17753039Y-12851158D02*
X17762563Y-12841634D01*
X17829230Y-12889254D02*
X17838753Y-12879730D01*
X17838753Y-12879730D02*
X17857801Y-12870206D01*
X17857801Y-12870206D02*
X17905420Y-12870206D01*
X17905420Y-12870206D02*
X17924468Y-12879730D01*
X17924468Y-12879730D02*
X17933992Y-12889254D01*
X17933992Y-12889254D02*
X17943515Y-12908301D01*
X17943515Y-12908301D02*
X17943515Y-12927349D01*
X17943515Y-12927349D02*
X17933992Y-12955920D01*
X17933992Y-12955920D02*
X17819706Y-13070206D01*
X17819706Y-13070206D02*
X17943515Y-13070206D01*
X18181611Y-13070206D02*
X18181611Y-12870206D01*
X18267325Y-13070206D02*
X18267325Y-12965444D01*
X18267325Y-12965444D02*
X18257801Y-12946396D01*
X18257801Y-12946396D02*
X18238754Y-12936873D01*
X18238754Y-12936873D02*
X18210182Y-12936873D01*
X18210182Y-12936873D02*
X18191134Y-12946396D01*
X18191134Y-12946396D02*
X18181611Y-12955920D01*
X18391134Y-13070206D02*
X18372087Y-13060682D01*
X18372087Y-13060682D02*
X18362563Y-13051158D01*
X18362563Y-13051158D02*
X18353039Y-13032111D01*
X18353039Y-13032111D02*
X18353039Y-12974968D01*
X18353039Y-12974968D02*
X18362563Y-12955920D01*
X18362563Y-12955920D02*
X18372087Y-12946396D01*
X18372087Y-12946396D02*
X18391134Y-12936873D01*
X18391134Y-12936873D02*
X18419706Y-12936873D01*
X18419706Y-12936873D02*
X18438754Y-12946396D01*
X18438754Y-12946396D02*
X18448277Y-12955920D01*
X18448277Y-12955920D02*
X18457801Y-12974968D01*
X18457801Y-12974968D02*
X18457801Y-13032111D01*
X18457801Y-13032111D02*
X18448277Y-13051158D01*
X18448277Y-13051158D02*
X18438754Y-13060682D01*
X18438754Y-13060682D02*
X18419706Y-13070206D01*
X18419706Y-13070206D02*
X18391134Y-13070206D01*
X18572087Y-13070206D02*
X18553039Y-13060682D01*
X18553039Y-13060682D02*
X18543515Y-13041634D01*
X18543515Y-13041634D02*
X18543515Y-12870206D01*
X18724468Y-13060682D02*
X18705420Y-13070206D01*
X18705420Y-13070206D02*
X18667325Y-13070206D01*
X18667325Y-13070206D02*
X18648277Y-13060682D01*
X18648277Y-13060682D02*
X18638754Y-13041634D01*
X18638754Y-13041634D02*
X18638754Y-12965444D01*
X18638754Y-12965444D02*
X18648277Y-12946396D01*
X18648277Y-12946396D02*
X18667325Y-12936873D01*
X18667325Y-12936873D02*
X18705420Y-12936873D01*
X18705420Y-12936873D02*
X18724468Y-12946396D01*
X18724468Y-12946396D02*
X18733992Y-12965444D01*
X18733992Y-12965444D02*
X18733992Y-12984492D01*
X18733992Y-12984492D02*
X18638754Y-13003539D01*
X18810182Y-13060682D02*
X18829230Y-13070206D01*
X18829230Y-13070206D02*
X18867325Y-13070206D01*
X18867325Y-13070206D02*
X18886373Y-13060682D01*
X18886373Y-13060682D02*
X18895896Y-13041634D01*
X18895896Y-13041634D02*
X18895896Y-13032111D01*
X18895896Y-13032111D02*
X18886373Y-13013063D01*
X18886373Y-13013063D02*
X18867325Y-13003539D01*
X18867325Y-13003539D02*
X18838754Y-13003539D01*
X18838754Y-13003539D02*
X18819706Y-12994015D01*
X18819706Y-12994015D02*
X18810182Y-12974968D01*
X18810182Y-12974968D02*
X18810182Y-12965444D01*
X18810182Y-12965444D02*
X18819706Y-12946396D01*
X18819706Y-12946396D02*
X18838754Y-12936873D01*
X18838754Y-12936873D02*
X18867325Y-12936873D01*
X18867325Y-12936873D02*
X18886373Y-12946396D01*
X18962563Y-13146396D02*
X18972087Y-13136873D01*
X18972087Y-13136873D02*
X18991135Y-13108301D01*
X18991135Y-13108301D02*
X19000658Y-13089254D01*
X19000658Y-13089254D02*
X19010182Y-13060682D01*
X19010182Y-13060682D02*
X19019706Y-13013063D01*
X19019706Y-13013063D02*
X19019706Y-12974968D01*
X19019706Y-12974968D02*
X19010182Y-12927349D01*
X19010182Y-12927349D02*
X19000658Y-12898777D01*
X19000658Y-12898777D02*
X18991135Y-12879730D01*
X18991135Y-12879730D02*
X18972087Y-12851158D01*
X18972087Y-12851158D02*
X18962563Y-12841634D01*
M02*
