%TF.GenerationSoftware,KiCad,Pcbnew,8.0.3*%
%TF.CreationDate,2025-07-10T12:51:06-07:00*%
%TF.ProjectId,salp_board_round,73616c70-5f62-46f6-9172-645f726f756e,rev?*%
%TF.SameCoordinates,Original*%
%TF.FileFunction,Paste,Bot*%
%TF.FilePolarity,Positive*%
%FSLAX46Y46*%
G04 Gerber Fmt 4.6, Leading zero omitted, Abs format (unit mm)*
G04 Created by KiCad (PCBNEW 8.0.3) date 2025-07-10 12:51:06*
%MOMM*%
%LPD*%
G01*
G04 APERTURE LIST*
G04 Aperture macros list*
%AMRoundRect*
0 Rectangle with rounded corners*
0 $1 Rounding radius*
0 $2 $3 $4 $5 $6 $7 $8 $9 X,Y pos of 4 corners*
0 Add a 4 corners polygon primitive as box body*
4,1,4,$2,$3,$4,$5,$6,$7,$8,$9,$2,$3,0*
0 Add four circle primitives for the rounded corners*
1,1,$1+$1,$2,$3*
1,1,$1+$1,$4,$5*
1,1,$1+$1,$6,$7*
1,1,$1+$1,$8,$9*
0 Add four rect primitives between the rounded corners*
20,1,$1+$1,$2,$3,$4,$5,0*
20,1,$1+$1,$4,$5,$6,$7,0*
20,1,$1+$1,$6,$7,$8,$9,0*
20,1,$1+$1,$8,$9,$2,$3,0*%
G04 Aperture macros list end*
%ADD10RoundRect,0.250000X-0.450000X0.350000X-0.450000X-0.350000X0.450000X-0.350000X0.450000X0.350000X0*%
%ADD11RoundRect,0.150000X-0.150000X0.587500X-0.150000X-0.587500X0.150000X-0.587500X0.150000X0.587500X0*%
%ADD12RoundRect,0.250000X0.450000X-0.350000X0.450000X0.350000X-0.450000X0.350000X-0.450000X-0.350000X0*%
%ADD13R,3.600000X2.600000*%
%ADD14RoundRect,0.243750X-0.243750X-0.456250X0.243750X-0.456250X0.243750X0.456250X-0.243750X0.456250X0*%
%ADD15RoundRect,0.243750X-0.456250X0.243750X-0.456250X-0.243750X0.456250X-0.243750X0.456250X0.243750X0*%
%ADD16R,1.000000X0.900000*%
%ADD17R,0.400000X0.800000*%
%ADD18RoundRect,0.112500X0.112500X0.237500X-0.112500X0.237500X-0.112500X-0.237500X0.112500X-0.237500X0*%
%ADD19RoundRect,0.150000X-0.512500X-0.150000X0.512500X-0.150000X0.512500X0.150000X-0.512500X0.150000X0*%
%ADD20RoundRect,0.250000X0.337500X0.475000X-0.337500X0.475000X-0.337500X-0.475000X0.337500X-0.475000X0*%
%ADD21RoundRect,0.250000X-0.475000X0.337500X-0.475000X-0.337500X0.475000X-0.337500X0.475000X0.337500X0*%
%ADD22RoundRect,0.250000X0.350000X0.450000X-0.350000X0.450000X-0.350000X-0.450000X0.350000X-0.450000X0*%
G04 APERTURE END LIST*
D10*
%TO.C,R8*%
X147000000Y-98100000D03*
X147000000Y-100100000D03*
%TD*%
D11*
%TO.C,Q2*%
X152650000Y-107925000D03*
X154550000Y-107925000D03*
X153600000Y-109800000D03*
%TD*%
%TO.C,Q1*%
X158600000Y-109500000D03*
X160500000Y-109500000D03*
X159550000Y-111375000D03*
%TD*%
D12*
%TO.C,R9*%
X162600000Y-105600000D03*
X162600000Y-103600000D03*
%TD*%
D13*
%TO.C,BT1*%
X156500000Y-104500000D03*
X156500000Y-75200000D03*
%TD*%
D12*
%TO.C,R10*%
X167800000Y-108600000D03*
X167800000Y-106600000D03*
%TD*%
D14*
%TO.C,D3*%
X164562500Y-111000000D03*
X166437500Y-111000000D03*
%TD*%
D15*
%TO.C,D4*%
X165600000Y-106762500D03*
X165600000Y-108637500D03*
%TD*%
D16*
%TO.C,D1*%
X175000000Y-109098223D03*
X178000000Y-109098223D03*
D17*
X176900000Y-108648223D03*
X176100000Y-108648223D03*
%TD*%
D18*
%TO.C,D5*%
X168100000Y-98700000D03*
X166800000Y-98700000D03*
X167450000Y-96700000D03*
%TD*%
D12*
%TO.C,R5*%
X178700000Y-105700001D03*
X178700000Y-103700001D03*
%TD*%
D19*
%TO.C,U3*%
X164962500Y-104650000D03*
X164962500Y-103700000D03*
X164962500Y-102750000D03*
X167237500Y-102750000D03*
X167237500Y-103700000D03*
X167237500Y-104650000D03*
%TD*%
D20*
%TO.C,C23*%
X159037500Y-107400000D03*
X156962500Y-107400000D03*
%TD*%
D12*
%TO.C,R4*%
X176500000Y-105700001D03*
X176500000Y-103700001D03*
%TD*%
D19*
%TO.C,U5*%
X147125000Y-104100000D03*
X147125000Y-103150000D03*
X147125000Y-102200000D03*
X149400000Y-102200000D03*
X149400000Y-103150000D03*
X149400000Y-104100000D03*
%TD*%
D12*
%TO.C,R6*%
X174200000Y-105700001D03*
X174200000Y-103700001D03*
%TD*%
D21*
%TO.C,C21*%
X145000000Y-99437500D03*
X145000000Y-97362500D03*
%TD*%
D22*
%TO.C,R7*%
X153200000Y-105700000D03*
X151200000Y-105700000D03*
%TD*%
M02*
