M48
; DRILL file {KiCad 8.0.7} date 2025-05-01T01:05:51-0700
; FORMAT={-:-/ absolute / inch / decimal}
; #@! TF.CreationDate,2025-05-01T01:05:51-07:00
; #@! TF.GenerationSoftware,Kicad,Pcbnew,8.0.7
; #@! TF.FileFunction,Plated,1,4,PTH
FMAT,2
INCH
; #@! TA.AperFunction,Plated,PTH,ViaDrill
T1C0.0118
; #@! TA.AperFunction,Plated,PTH,ComponentDrill
T2C0.0354
; #@! TA.AperFunction,Plated,PTH,ComponentDrill
T3C0.0394
%
G90
G05
T1
X5.4626Y-4.1339
X5.4636Y-3.9872
X5.7776Y-3.6811
X5.7972Y-4.0945
X5.8858Y-3.9961
X5.8957Y-4.4488
X5.9055Y-2.4016
X6.0039Y-3.5925
X6.01Y-3.85
X6.0138Y-4.0256
X6.0153Y-4.1255
X6.1022Y-3.6911
X6.1024Y-3.4941
X6.1384Y-3.353
X6.1614Y-3.4055
X6.1696Y-3.8501
X6.1713Y-2.6181
X6.1713Y-2.9528
X6.2106Y-2.6181
X6.218Y-2.72
X6.2402Y-3.9764
X6.2598Y-2.9528
X6.3008Y-3.2465
X6.3189Y-4.1724
X6.3386Y-3.2874
X6.4173Y-4.1142
X6.4469Y-3.4843
X6.4555Y-3.1564
X6.4555Y-3.2433
X6.4567Y-4.311
X6.5256Y-3.3169
X6.549Y-3.1377
X6.56Y-2.56
X6.58Y-3.1564
X6.6535Y-2.6378
X6.6561Y-2.9659
X6.657Y-2.8509
X6.7492Y-3.3193
X6.7492Y-3.4193
X6.7835Y-3.0354
X6.8012Y-3.1398
X6.8898Y-3.27
X7.0439Y-3.9041
X7.0669Y-2.7067
X7.3937Y-3.1636
X7.42Y-3.2
X7.4356Y-3.3246
X7.4409Y-3.3858
X7.4436Y-3.2223
X7.4446Y-3.1636
X7.4658Y-3.3155
X7.5Y-2.35
X7.75Y-3.2728
T2
X6.8246Y-4.0236
X6.8246Y-4.1535
X6.923Y-4.0236
X6.923Y-4.1535
X7.0215Y-4.0236
X7.0215Y-4.1535
T3
X6.2583Y-3.424
X6.2583Y-3.524
X6.2583Y-3.624
X6.3581Y-3.7755
X6.3581Y-3.8755
X6.3581Y-3.9755
X6.3583Y-3.424
X6.3583Y-3.524
X6.3583Y-3.624
X6.52Y-4.42
X6.53Y-3.42
X6.53Y-3.52
X6.53Y-3.62
X6.53Y-3.72
X6.53Y-3.82
X6.53Y-3.92
X6.53Y-4.02
X6.53Y-4.12
X6.53Y-4.22
X6.62Y-4.42
X6.63Y-3.42
X6.63Y-3.52
X6.63Y-3.62
X6.63Y-3.72
X6.63Y-3.82
X6.63Y-3.92
X6.63Y-4.02
X6.63Y-4.12
X6.63Y-4.22
X6.72Y-4.42
X6.82Y-4.42
X6.92Y-4.42
X7.02Y-4.42
X7.56Y-3.42
X7.56Y-3.52
X7.56Y-3.62
X7.56Y-3.72
X7.56Y-3.82
X7.56Y-3.92
X7.56Y-4.02
X7.56Y-4.12
X7.56Y-4.22
X7.66Y-3.42
X7.66Y-3.52
X7.66Y-3.62
X7.66Y-3.72
X7.66Y-3.82
X7.66Y-3.92
X7.66Y-4.02
X7.66Y-4.12
X7.66Y-4.22
X7.6663Y-2.7274
X7.6663Y-2.8274
X7.6663Y-2.9274
M30
