%TF.GenerationSoftware,KiCad,Pcbnew,8.0.7*%
%TF.CreationDate,2025-05-01T01:05:46-07:00*%
%TF.ProjectId,salp_board,73616c70-5f62-46f6-9172-642e6b696361,rev?*%
%TF.SameCoordinates,Original*%
%TF.FileFunction,Soldermask,Bot*%
%TF.FilePolarity,Negative*%
%FSLAX46Y46*%
G04 Gerber Fmt 4.6, Leading zero omitted, Abs format (unit mm)*
G04 Created by KiCad (PCBNEW 8.0.7) date 2025-05-01 01:05:46*
%MOMM*%
%LPD*%
G01*
G04 APERTURE LIST*
G04 Aperture macros list*
%AMRoundRect*
0 Rectangle with rounded corners*
0 $1 Rounding radius*
0 $2 $3 $4 $5 $6 $7 $8 $9 X,Y pos of 4 corners*
0 Add a 4 corners polygon primitive as box body*
4,1,4,$2,$3,$4,$5,$6,$7,$8,$9,$2,$3,0*
0 Add four circle primitives for the rounded corners*
1,1,$1+$1,$2,$3*
1,1,$1+$1,$4,$5*
1,1,$1+$1,$6,$7*
1,1,$1+$1,$8,$9*
0 Add four rect primitives between the rounded corners*
20,1,$1+$1,$2,$3,$4,$5,0*
20,1,$1+$1,$4,$5,$6,$7,0*
20,1,$1+$1,$6,$7,$8,$9,0*
20,1,$1+$1,$8,$9,$2,$3,0*%
G04 Aperture macros list end*
%ADD10R,1.700000X1.700000*%
%ADD11O,1.700000X1.700000*%
%ADD12RoundRect,0.250000X0.450000X0.450000X-0.450000X0.450000X-0.450000X-0.450000X0.450000X-0.450000X0*%
%ADD13C,1.400000*%
%ADD14C,2.200000*%
G04 APERTURE END LIST*
D10*
%TO.C,J10*%
X161501000Y-86969500D03*
D11*
X158961000Y-86969500D03*
X161501000Y-89509500D03*
X158961000Y-89509500D03*
X161501000Y-92049500D03*
X158961000Y-92049500D03*
%TD*%
D10*
%TO.C,J12*%
X178308000Y-112268000D03*
D11*
X175768000Y-112268000D03*
X173228000Y-112268000D03*
X170688000Y-112268000D03*
X168148000Y-112268000D03*
X165608000Y-112268000D03*
%TD*%
D12*
%TO.C,SW2*%
X178345000Y-105500000D03*
D13*
X175845000Y-105500000D03*
X173345000Y-105500000D03*
X173345000Y-102200000D03*
X175845000Y-102200000D03*
X178345000Y-102200000D03*
%TD*%
D10*
%TO.C,J8*%
X192024000Y-107188000D03*
D11*
X194564000Y-107188000D03*
X192024000Y-104648000D03*
X194564000Y-104648000D03*
X192024000Y-102108000D03*
X194564000Y-102108000D03*
X192024000Y-99568000D03*
X194564000Y-99568000D03*
X192024000Y-97028000D03*
X194564000Y-97028000D03*
X192024000Y-94488000D03*
X194564000Y-94488000D03*
X192024000Y-91948000D03*
X194564000Y-91948000D03*
X192024000Y-89408000D03*
X194564000Y-89408000D03*
X192024000Y-86868000D03*
X194564000Y-86868000D03*
%TD*%
D14*
%TO.C,H2*%
X138303000Y-59563000D03*
%TD*%
D10*
%TO.C,J4*%
X194725000Y-69275000D03*
D11*
X194725000Y-71815000D03*
X194725000Y-74355000D03*
%TD*%
D10*
%TO.C,J9*%
X161496000Y-100978500D03*
D11*
X161496000Y-98438500D03*
X161496000Y-95898500D03*
%TD*%
D14*
%TO.C,H1*%
X194564000Y-111633000D03*
%TD*%
%TO.C,H3*%
X194564000Y-59436000D03*
%TD*%
%TO.C,H4*%
X138303000Y-111760000D03*
%TD*%
D10*
%TO.C,J1*%
X168402000Y-86868000D03*
D11*
X165862000Y-86868000D03*
X168402000Y-89408000D03*
X165862000Y-89408000D03*
X168402000Y-91948000D03*
X165862000Y-91948000D03*
X168402000Y-94488000D03*
X165862000Y-94488000D03*
X168402000Y-97028000D03*
X165862000Y-97028000D03*
X168402000Y-99568000D03*
X165862000Y-99568000D03*
X168402000Y-102108000D03*
X165862000Y-102108000D03*
X168402000Y-104648000D03*
X165862000Y-104648000D03*
X168402000Y-107188000D03*
X165862000Y-107188000D03*
%TD*%
M02*
