%TF.GenerationSoftware,KiCad,Pcbnew,8.0.7*%
%TF.CreationDate,2025-05-01T01:05:46-07:00*%
%TF.ProjectId,salp_board,73616c70-5f62-46f6-9172-642e6b696361,rev?*%
%TF.SameCoordinates,Original*%
%TF.FileFunction,Copper,L1,Top*%
%TF.FilePolarity,Positive*%
%FSLAX46Y46*%
G04 Gerber Fmt 4.6, Leading zero omitted, Abs format (unit mm)*
G04 Created by KiCad (PCBNEW 8.0.7) date 2025-05-01 01:05:46*
%MOMM*%
%LPD*%
G01*
G04 APERTURE LIST*
G04 Aperture macros list*
%AMRoundRect*
0 Rectangle with rounded corners*
0 $1 Rounding radius*
0 $2 $3 $4 $5 $6 $7 $8 $9 X,Y pos of 4 corners*
0 Add a 4 corners polygon primitive as box body*
4,1,4,$2,$3,$4,$5,$6,$7,$8,$9,$2,$3,0*
0 Add four circle primitives for the rounded corners*
1,1,$1+$1,$2,$3*
1,1,$1+$1,$4,$5*
1,1,$1+$1,$6,$7*
1,1,$1+$1,$8,$9*
0 Add four rect primitives between the rounded corners*
20,1,$1+$1,$2,$3,$4,$5,0*
20,1,$1+$1,$4,$5,$6,$7,0*
20,1,$1+$1,$6,$7,$8,$9,0*
20,1,$1+$1,$8,$9,$2,$3,0*%
G04 Aperture macros list end*
%TA.AperFunction,SMDPad,CuDef*%
%ADD10RoundRect,0.250000X0.350000X0.450000X-0.350000X0.450000X-0.350000X-0.450000X0.350000X-0.450000X0*%
%TD*%
%TA.AperFunction,SMDPad,CuDef*%
%ADD11RoundRect,0.375000X0.625000X0.375000X-0.625000X0.375000X-0.625000X-0.375000X0.625000X-0.375000X0*%
%TD*%
%TA.AperFunction,SMDPad,CuDef*%
%ADD12RoundRect,0.500000X0.500000X1.400000X-0.500000X1.400000X-0.500000X-1.400000X0.500000X-1.400000X0*%
%TD*%
%TA.AperFunction,SMDPad,CuDef*%
%ADD13C,1.000000*%
%TD*%
%TA.AperFunction,SMDPad,CuDef*%
%ADD14RoundRect,0.250000X0.325000X0.450000X-0.325000X0.450000X-0.325000X-0.450000X0.325000X-0.450000X0*%
%TD*%
%TA.AperFunction,SMDPad,CuDef*%
%ADD15RoundRect,0.250000X-0.337500X-0.475000X0.337500X-0.475000X0.337500X0.475000X-0.337500X0.475000X0*%
%TD*%
%TA.AperFunction,SMDPad,CuDef*%
%ADD16RoundRect,0.250000X0.475000X-0.337500X0.475000X0.337500X-0.475000X0.337500X-0.475000X-0.337500X0*%
%TD*%
%TA.AperFunction,ComponentPad*%
%ADD17R,1.700000X1.700000*%
%TD*%
%TA.AperFunction,ComponentPad*%
%ADD18O,1.700000X1.700000*%
%TD*%
%TA.AperFunction,SMDPad,CuDef*%
%ADD19RoundRect,0.250000X0.337500X0.475000X-0.337500X0.475000X-0.337500X-0.475000X0.337500X-0.475000X0*%
%TD*%
%TA.AperFunction,ComponentPad*%
%ADD20RoundRect,0.250000X0.450000X0.450000X-0.450000X0.450000X-0.450000X-0.450000X0.450000X-0.450000X0*%
%TD*%
%TA.AperFunction,ComponentPad*%
%ADD21C,1.400000*%
%TD*%
%TA.AperFunction,SMDPad,CuDef*%
%ADD22RoundRect,0.243750X-0.456250X0.243750X-0.456250X-0.243750X0.456250X-0.243750X0.456250X0.243750X0*%
%TD*%
%TA.AperFunction,SMDPad,CuDef*%
%ADD23RoundRect,0.150000X-0.512500X-0.150000X0.512500X-0.150000X0.512500X0.150000X-0.512500X0.150000X0*%
%TD*%
%TA.AperFunction,SMDPad,CuDef*%
%ADD24RoundRect,0.112500X-0.237500X0.112500X-0.237500X-0.112500X0.237500X-0.112500X0.237500X0.112500X0*%
%TD*%
%TA.AperFunction,SMDPad,CuDef*%
%ADD25RoundRect,0.250000X-0.450000X0.350000X-0.450000X-0.350000X0.450000X-0.350000X0.450000X0.350000X0*%
%TD*%
%TA.AperFunction,SMDPad,CuDef*%
%ADD26R,3.600000X2.600000*%
%TD*%
%TA.AperFunction,SMDPad,CuDef*%
%ADD27R,0.900000X1.000000*%
%TD*%
%TA.AperFunction,SMDPad,CuDef*%
%ADD28R,0.800000X0.400000*%
%TD*%
%TA.AperFunction,SMDPad,CuDef*%
%ADD29RoundRect,0.250000X0.450000X-0.350000X0.450000X0.350000X-0.450000X0.350000X-0.450000X-0.350000X0*%
%TD*%
%TA.AperFunction,SMDPad,CuDef*%
%ADD30RoundRect,0.150000X0.150000X-0.587500X0.150000X0.587500X-0.150000X0.587500X-0.150000X-0.587500X0*%
%TD*%
%TA.AperFunction,SMDPad,CuDef*%
%ADD31RoundRect,0.150000X-0.150000X0.512500X-0.150000X-0.512500X0.150000X-0.512500X0.150000X0.512500X0*%
%TD*%
%TA.AperFunction,SMDPad,CuDef*%
%ADD32RoundRect,0.243750X0.456250X-0.243750X0.456250X0.243750X-0.456250X0.243750X-0.456250X-0.243750X0*%
%TD*%
%TA.AperFunction,SMDPad,CuDef*%
%ADD33RoundRect,0.150000X-0.587500X-0.150000X0.587500X-0.150000X0.587500X0.150000X-0.587500X0.150000X0*%
%TD*%
%TA.AperFunction,SMDPad,CuDef*%
%ADD34RoundRect,0.150000X-0.875000X-0.150000X0.875000X-0.150000X0.875000X0.150000X-0.875000X0.150000X0*%
%TD*%
%TA.AperFunction,SMDPad,CuDef*%
%ADD35RoundRect,0.250001X-0.462499X-0.624999X0.462499X-0.624999X0.462499X0.624999X-0.462499X0.624999X0*%
%TD*%
%TA.AperFunction,SMDPad,CuDef*%
%ADD36RoundRect,0.250000X-0.475000X0.337500X-0.475000X-0.337500X0.475000X-0.337500X0.475000X0.337500X0*%
%TD*%
%TA.AperFunction,SMDPad,CuDef*%
%ADD37RoundRect,0.075000X0.325000X0.075000X-0.325000X0.075000X-0.325000X-0.075000X0.325000X-0.075000X0*%
%TD*%
%TA.AperFunction,SMDPad,CuDef*%
%ADD38RoundRect,0.075000X0.075000X0.325000X-0.075000X0.325000X-0.075000X-0.325000X0.075000X-0.325000X0*%
%TD*%
%TA.AperFunction,SMDPad,CuDef*%
%ADD39RoundRect,0.210000X1.890000X1.890000X-1.890000X1.890000X-1.890000X-1.890000X1.890000X-1.890000X0*%
%TD*%
%TA.AperFunction,SMDPad,CuDef*%
%ADD40RoundRect,0.250000X-0.350000X-0.450000X0.350000X-0.450000X0.350000X0.450000X-0.350000X0.450000X0*%
%TD*%
%TA.AperFunction,SMDPad,CuDef*%
%ADD41R,2.100000X1.725000*%
%TD*%
%TA.AperFunction,ViaPad*%
%ADD42C,1.500000*%
%TD*%
%TA.AperFunction,ViaPad*%
%ADD43C,0.600000*%
%TD*%
%TA.AperFunction,Conductor*%
%ADD44C,0.200000*%
%TD*%
%TA.AperFunction,Conductor*%
%ADD45C,1.000000*%
%TD*%
%TA.AperFunction,Conductor*%
%ADD46C,0.300000*%
%TD*%
%TA.AperFunction,Conductor*%
%ADD47C,0.500000*%
%TD*%
%TA.AperFunction,Conductor*%
%ADD48C,2.000000*%
%TD*%
%TA.AperFunction,Conductor*%
%ADD49C,0.600000*%
%TD*%
G04 APERTURE END LIST*
D10*
%TO.P,R8,1*%
%TO.N,Net-(D5-R)*%
X192262000Y-77978000D03*
%TO.P,R8,2*%
%TO.N,/PC3*%
X190262000Y-77978000D03*
%TD*%
D11*
%TO.P,U1,1,GND*%
%TO.N,GND*%
X159106000Y-112377000D03*
%TO.P,U1,2,VO*%
%TO.N,/V_REG*%
X159106000Y-110077000D03*
D12*
X152806000Y-110077000D03*
D11*
%TO.P,U1,3,VI*%
%TO.N,VCC*%
X159106000Y-107777000D03*
%TD*%
D13*
%TO.P,GND1,1,1*%
%TO.N,GND*%
X187452000Y-59690000D03*
%TD*%
D10*
%TO.P,R7,1*%
%TO.N,Net-(D5-G)*%
X192262000Y-80264000D03*
%TO.P,R7,2*%
%TO.N,/PC2*%
X190262000Y-80264000D03*
%TD*%
D13*
%TO.P,DVDD1,1,1*%
%TO.N,+3.3V*%
X165354000Y-79502000D03*
%TD*%
D14*
%TO.P,L1,1,1*%
%TO.N,Net-(C3-Pad2)*%
X178580000Y-75692000D03*
%TO.P,L1,2,2*%
%TO.N,/TX1*%
X176530000Y-75692000D03*
%TD*%
D15*
%TO.P,C10,1*%
%TO.N,/VMID*%
X177462500Y-70500000D03*
%TO.P,C10,2*%
%TO.N,GND*%
X179537500Y-70500000D03*
%TD*%
D16*
%TO.P,C17,1*%
%TO.N,GND*%
X150495000Y-92213000D03*
%TO.P,C17,2*%
%TO.N,+BAT*%
X150495000Y-90138000D03*
%TD*%
D17*
%TO.P,J10,1,Pin_1*%
%TO.N,VCC*%
X161501000Y-86969500D03*
D18*
%TO.P,J10,2,Pin_2*%
%TO.N,GND*%
X158961000Y-86969500D03*
%TO.P,J10,3,Pin_3*%
X161501000Y-89509500D03*
%TO.P,J10,4,Pin_4*%
%TO.N,+3.3V*%
X158961000Y-89509500D03*
%TO.P,J10,5,Pin_5*%
%TO.N,GND*%
X161501000Y-92049500D03*
%TO.P,J10,6,Pin_6*%
X158961000Y-92049500D03*
%TD*%
D17*
%TO.P,J12,1,Pin_1*%
%TO.N,unconnected-(J12-Pin_1-Pad1)*%
X178308000Y-112268000D03*
D18*
%TO.P,J12,2,Pin_2*%
%TO.N,Net-(J12-Pin_2)*%
X175768000Y-112268000D03*
%TO.P,J12,3,Pin_3*%
%TO.N,Net-(J12-Pin_3)*%
X173228000Y-112268000D03*
%TO.P,J12,4,Pin_4*%
%TO.N,/V_USB*%
X170688000Y-112268000D03*
%TO.P,J12,5,Pin_5*%
%TO.N,unconnected-(J12-Pin_5-Pad5)*%
X168148000Y-112268000D03*
%TO.P,J12,6,Pin_6*%
%TO.N,GND*%
X165608000Y-112268000D03*
%TD*%
D19*
%TO.P,C16,1*%
%TO.N,VCC*%
X173503500Y-85598000D03*
%TO.P,C16,2*%
%TO.N,GND*%
X171428500Y-85598000D03*
%TD*%
D13*
%TO.P,PC1,1,1*%
%TO.N,/PC1*%
X185928000Y-82550000D03*
%TD*%
D16*
%TO.P,C23,1*%
%TO.N,GND*%
X147193000Y-101843500D03*
%TO.P,C23,2*%
%TO.N,Net-(U6-VCC)*%
X147193000Y-99768500D03*
%TD*%
D20*
%TO.P,SW2,1,A*%
%TO.N,/PB2*%
X178345000Y-105500000D03*
D21*
%TO.P,SW2,2,B*%
%TO.N,Net-(J12-Pin_2)*%
X175845000Y-105500000D03*
%TO.P,SW2,3,C*%
%TO.N,/PA0*%
X173345000Y-105500000D03*
%TO.P,SW2,4,A*%
%TO.N,/PB3*%
X173345000Y-102200000D03*
%TO.P,SW2,5,B*%
%TO.N,Net-(J12-Pin_3)*%
X175845000Y-102200000D03*
%TO.P,SW2,6,C*%
%TO.N,Net-(SW2B-C)*%
X178345000Y-102200000D03*
%TD*%
D17*
%TO.P,J8,1,Pin_1*%
%TO.N,/M_SCL*%
X192024000Y-107188000D03*
D18*
%TO.P,J8,2,Pin_2*%
X194564000Y-107188000D03*
%TO.P,J8,3,Pin_3*%
%TO.N,/PC0*%
X192024000Y-104648000D03*
%TO.P,J8,4,Pin_4*%
X194564000Y-104648000D03*
%TO.P,J8,5,Pin_5*%
%TO.N,/PC1*%
X192024000Y-102108000D03*
%TO.P,J8,6,Pin_6*%
X194564000Y-102108000D03*
%TO.P,J8,7,Pin_7*%
%TO.N,/PC2*%
X192024000Y-99568000D03*
%TO.P,J8,8,Pin_8*%
X194564000Y-99568000D03*
%TO.P,J8,9,Pin_9*%
%TO.N,/PC3*%
X192024000Y-97028000D03*
%TO.P,J8,10,Pin_10*%
X194564000Y-97028000D03*
%TO.P,J8,11,Pin_11*%
%TO.N,/PA0*%
X192024000Y-94488000D03*
%TO.P,J8,12,Pin_12*%
X194564000Y-94488000D03*
%TO.P,J8,13,Pin_13*%
%TO.N,/PA1*%
X192024000Y-91948000D03*
%TO.P,J8,14,Pin_14*%
X194564000Y-91948000D03*
%TO.P,J8,15,Pin_15*%
%TO.N,/PA2*%
X192024000Y-89408000D03*
%TO.P,J8,16,Pin_16*%
X194564000Y-89408000D03*
%TO.P,J8,17,Pin_17*%
%TO.N,/PA3*%
X192024000Y-86868000D03*
%TO.P,J8,18,Pin_18*%
X194564000Y-86868000D03*
%TD*%
D19*
%TO.P,C9,1*%
%TO.N,+3.3V*%
X158800000Y-72700000D03*
%TO.P,C9,2*%
%TO.N,GND*%
X156725000Y-72700000D03*
%TD*%
D22*
%TO.P,D2,1,K*%
%TO.N,Net-(D2-K)*%
X153924000Y-99028000D03*
%TO.P,D2,2,A*%
%TO.N,Net-(D2-A)*%
X153924000Y-100903000D03*
%TD*%
D16*
%TO.P,C20,1*%
%TO.N,+3.3V*%
X158242000Y-97071000D03*
%TO.P,C20,2*%
%TO.N,GND*%
X158242000Y-94996000D03*
%TD*%
D23*
%TO.P,U6,1,OD*%
%TO.N,Net-(Q1-G)*%
X142632000Y-100004500D03*
%TO.P,U6,2,CS*%
%TO.N,Net-(U6-CS)*%
X142632000Y-100954500D03*
%TO.P,U6,3,OC*%
%TO.N,Net-(Q2-G)*%
X142632000Y-101904500D03*
%TO.P,U6,4,TD*%
%TO.N,unconnected-(U6-TD-Pad4)*%
X144907000Y-101904500D03*
%TO.P,U6,5,VCC*%
%TO.N,Net-(U6-VCC)*%
X144907000Y-100954500D03*
%TO.P,U6,6,GND*%
%TO.N,GND*%
X144907000Y-100004500D03*
%TD*%
D24*
%TO.P,D4,1*%
%TO.N,+BAT*%
X156500000Y-103350000D03*
%TO.P,D4,2*%
%TO.N,/V_USB*%
X156500000Y-104650000D03*
%TO.P,D4,3*%
%TO.N,/VOR*%
X158500000Y-104000000D03*
%TD*%
D13*
%TO.P,PA2/MISO/P71,1,1*%
%TO.N,/PA2*%
X180086000Y-83566000D03*
%TD*%
%TO.P,PA7/IRQ1,1,1*%
%TO.N,/PA7*%
X157480000Y-80518000D03*
%TD*%
%TO.P,PA5/RSTPD_N1,1,1*%
%TO.N,/PA5*%
X165608000Y-83312000D03*
%TD*%
%TO.P,PA3/SCK/P72,1,1*%
%TO.N,/PA3*%
X182626000Y-83566000D03*
%TD*%
D25*
%TO.P,R10,1*%
%TO.N,GND*%
X160100000Y-64532000D03*
%TO.P,R10,2*%
%TO.N,Net-(U2-I0)*%
X160100000Y-66532000D03*
%TD*%
D17*
%TO.P,J4,1,Pin_1*%
%TO.N,Net-(J4-Pin_1)*%
X194725000Y-69275000D03*
D18*
%TO.P,J4,2,Pin_2*%
X194725000Y-71815000D03*
%TO.P,J4,3,Pin_3*%
X194725000Y-74355000D03*
%TD*%
D13*
%TO.P,PA4/NSS/SCL/HSU_RX1,1,1*%
%TO.N,/PA4*%
X163576000Y-84074000D03*
%TD*%
D19*
%TO.P,C7,1*%
%TO.N,+3.3V*%
X157937500Y-68000000D03*
%TO.P,C7,2*%
%TO.N,GND*%
X155862500Y-68000000D03*
%TD*%
D17*
%TO.P,J9,1,Pin_1*%
%TO.N,/VOR*%
X161496000Y-100978500D03*
D18*
%TO.P,J9,2,Pin_2*%
%TO.N,+3.3V*%
X161496000Y-98438500D03*
%TO.P,J9,3,Pin_3*%
%TO.N,/V_REG*%
X161496000Y-95898500D03*
%TD*%
D26*
%TO.P,BT1,2,-*%
%TO.N,GND*%
X144653000Y-61042000D03*
%TO.P,BT1,1,+*%
%TO.N,+BAT*%
X144653000Y-90342000D03*
%TD*%
D27*
%TO.P,D5,1,R*%
%TO.N,Net-(D5-R)*%
X196850000Y-78256000D03*
%TO.P,D5,2,A*%
%TO.N,GND*%
X196850000Y-81256000D03*
D28*
%TO.P,D5,3,G*%
%TO.N,Net-(D5-G)*%
X196400000Y-80156000D03*
%TO.P,D5,4,B*%
%TO.N,Net-(D5-B)*%
X196400000Y-79356000D03*
%TD*%
D29*
%TO.P,R5,1*%
%TO.N,GND*%
X153500000Y-96710000D03*
%TO.P,R5,2*%
%TO.N,Net-(U4-PROG)*%
X153500000Y-94710000D03*
%TD*%
D16*
%TO.P,C5,1*%
%TO.N,Net-(C3-Pad2)*%
X182880000Y-75481000D03*
%TO.P,C5,2*%
%TO.N,Net-(J4-Pin_1)*%
X182880000Y-73406000D03*
%TD*%
D19*
%TO.P,C8,1*%
%TO.N,+3.3V*%
X157940000Y-70440000D03*
%TO.P,C8,2*%
%TO.N,GND*%
X155865000Y-70440000D03*
%TD*%
D13*
%TO.P,I0,1,1*%
%TO.N,Net-(U2-I0)*%
X160020000Y-68580000D03*
%TD*%
D30*
%TO.P,Q1,1,G*%
%TO.N,Net-(Q1-G)*%
X143007000Y-97779500D03*
%TO.P,Q1,2,S*%
%TO.N,GND*%
X144907000Y-97779500D03*
%TO.P,Q1,3,D*%
%TO.N,+BAT*%
X143957000Y-95904500D03*
%TD*%
D13*
%TO.P,PA1/MOSI/SDA/HSU_TX1,1,1*%
%TO.N,/PA1*%
X177292000Y-83566000D03*
%TD*%
D31*
%TO.P,U4,1,~{CHRG}*%
%TO.N,Net-(D2-K)*%
X155890000Y-90143500D03*
%TO.P,U4,2,GND*%
%TO.N,GND*%
X154940000Y-90143500D03*
%TO.P,U4,3,BAT*%
%TO.N,+BAT*%
X153990000Y-90143500D03*
%TO.P,U4,4,V_{CC}*%
%TO.N,/V_USB*%
X153990000Y-92418500D03*
%TO.P,U4,5,STDBY*%
%TO.N,Net-(D3-K)*%
X154940000Y-92418500D03*
%TO.P,U4,6,PROG*%
%TO.N,Net-(U4-PROG)*%
X155890000Y-92418500D03*
%TD*%
D19*
%TO.P,C3,1*%
%TO.N,Net-(J4-Pin_1)*%
X187175000Y-75400000D03*
%TO.P,C3,2*%
%TO.N,Net-(C3-Pad2)*%
X185100000Y-75400000D03*
%TD*%
D13*
%TO.P,+BAT1,1,1*%
%TO.N,+BAT*%
X158496000Y-83566000D03*
%TD*%
D16*
%TO.P,C2,2*%
%TO.N,Net-(J4-Pin_1)*%
X189500000Y-69062500D03*
%TO.P,C2,1*%
X189500000Y-71137500D03*
%TD*%
D32*
%TO.P,D3,1,K*%
%TO.N,Net-(D3-K)*%
X151384000Y-100903000D03*
%TO.P,D3,2,A*%
%TO.N,Net-(D2-A)*%
X151384000Y-99028000D03*
%TD*%
D10*
%TO.P,R1,1*%
%TO.N,Net-(C4-Pad2)*%
X184900000Y-66500000D03*
%TO.P,R1,2*%
%TO.N,Net-(C11-Pad1)*%
X182900000Y-66500000D03*
%TD*%
D13*
%TO.P,PC2,1,1*%
%TO.N,/PC2*%
X185928000Y-80264000D03*
%TD*%
D33*
%TO.P,Q2,1,G*%
%TO.N,Net-(Q2-G)*%
X142651000Y-105190000D03*
%TO.P,Q2,2,S*%
%TO.N,GND*%
X142651000Y-107090000D03*
%TO.P,Q2,3,D*%
%TO.N,+3.3V*%
X144526000Y-106140000D03*
%TD*%
D29*
%TO.P,R4,1*%
%TO.N,Net-(D2-A)*%
X151384000Y-96742000D03*
%TO.P,R4,2*%
%TO.N,/V_USB*%
X151384000Y-94742000D03*
%TD*%
D34*
%TO.P,U3,1,VCC*%
%TO.N,VCC*%
X177214000Y-85979000D03*
%TO.P,U3,2,PA4*%
%TO.N,/PA4*%
X177214000Y-87249000D03*
%TO.P,U3,3,PA5*%
%TO.N,/PA5*%
X177214000Y-88519000D03*
%TO.P,U3,4,PA6*%
%TO.N,/PA6*%
X177214000Y-89789000D03*
%TO.P,U3,5,PA7*%
%TO.N,/PA7*%
X177214000Y-91059000D03*
%TO.P,U3,6,PB5*%
%TO.N,/PB5*%
X177214000Y-92329000D03*
%TO.P,U3,7,PB4*%
%TO.N,/PB4*%
X177214000Y-93599000D03*
%TO.P,U3,8,PB3*%
%TO.N,/PB3*%
X177214000Y-94869000D03*
%TO.P,U3,9,PB2*%
%TO.N,/PB2*%
X177214000Y-96139000D03*
%TO.P,U3,10,PB1*%
%TO.N,/M_SDA*%
X177214000Y-97409000D03*
%TO.P,U3,11,PB0*%
%TO.N,/M_SCL*%
X186514000Y-97409000D03*
%TO.P,U3,12,PC0*%
%TO.N,/PC0*%
X186514000Y-96139000D03*
%TO.P,U3,13,PC1*%
%TO.N,/PC1*%
X186514000Y-94869000D03*
%TO.P,U3,14,PC2*%
%TO.N,/PC2*%
X186514000Y-93599000D03*
%TO.P,U3,15,PC3*%
%TO.N,/PC3*%
X186514000Y-92329000D03*
%TO.P,U3,16,~{RESET}/PA0*%
%TO.N,/PA0*%
X186514000Y-91059000D03*
%TO.P,U3,17,PA1*%
%TO.N,/PA1*%
X186514000Y-89789000D03*
%TO.P,U3,18,PA2*%
%TO.N,/PA2*%
X186514000Y-88519000D03*
%TO.P,U3,19,PA3*%
%TO.N,/PA3*%
X186514000Y-87249000D03*
%TO.P,U3,20,GND*%
%TO.N,GND*%
X186514000Y-85979000D03*
%TD*%
D35*
%TO.P,D1,1,K*%
%TO.N,Net-(D1-K)*%
X182408500Y-103378000D03*
%TO.P,D1,2,A*%
%TO.N,/PA0*%
X185383500Y-103378000D03*
%TD*%
D29*
%TO.P,R2,1*%
%TO.N,/VMID*%
X175502000Y-70314000D03*
%TO.P,R2,2*%
%TO.N,/RX*%
X175502000Y-68314000D03*
%TD*%
D13*
%TO.P,PC3,1,1*%
%TO.N,/PC3*%
X185928000Y-77978000D03*
%TD*%
%TO.P,I1,1,1*%
%TO.N,+3.3V*%
X160020000Y-70612000D03*
%TD*%
D14*
%TO.P,L2,1,1*%
%TO.N,Net-(C4-Pad2)*%
X172900000Y-72100000D03*
%TO.P,L2,2,2*%
%TO.N,/TX2*%
X170850000Y-72100000D03*
%TD*%
D36*
%TO.P,C21,1*%
%TO.N,VCC*%
X161954000Y-107818000D03*
%TO.P,C21,2*%
%TO.N,GND*%
X161954000Y-109893000D03*
%TD*%
D16*
%TO.P,C6,1*%
%TO.N,Net-(J4-Pin_1)*%
X182880000Y-71700000D03*
%TO.P,C6,2*%
%TO.N,Net-(C4-Pad2)*%
X182880000Y-69625000D03*
%TD*%
D15*
%TO.P,C12,1*%
%TO.N,/OSCIN*%
X166370000Y-68834000D03*
%TO.P,C12,2*%
%TO.N,GND*%
X168445000Y-68834000D03*
%TD*%
D36*
%TO.P,C22,1*%
%TO.N,/V_REG*%
X149762000Y-109056000D03*
%TO.P,C22,2*%
%TO.N,GND*%
X149762000Y-111131000D03*
%TD*%
D19*
%TO.P,C18,1*%
%TO.N,VCC*%
X173503500Y-83058000D03*
%TO.P,C18,2*%
%TO.N,GND*%
X171428500Y-83058000D03*
%TD*%
D13*
%TO.P,RX1,1,1*%
%TO.N,/RX*%
X167640000Y-71374000D03*
%TD*%
D37*
%TO.P,U2,1,DVSS*%
%TO.N,GND*%
X166399000Y-77434000D03*
%TO.P,U2,2,LOADMOD*%
%TO.N,unconnected-(U2-LOADMOD-Pad2)*%
X166399000Y-76934000D03*
%TO.P,U2,3,TVSS1*%
%TO.N,GND*%
X166399000Y-76434000D03*
%TO.P,U2,4,TX1*%
%TO.N,/TX1*%
X166399000Y-75934000D03*
%TO.P,U2,5,TVDD*%
%TO.N,+3.3V*%
X166399000Y-75434000D03*
%TO.P,U2,6,TX2*%
%TO.N,/TX2*%
X166399000Y-74934000D03*
%TO.P,U2,7,TVSS2*%
%TO.N,GND*%
X166399000Y-74434000D03*
%TO.P,U2,8,AVDD*%
%TO.N,+3.3V*%
X166399000Y-73934000D03*
%TO.P,U2,9,VMID*%
%TO.N,/VMID*%
X166399000Y-73434000D03*
%TO.P,U2,10,RX*%
%TO.N,/RX*%
X166399000Y-72934000D03*
D38*
%TO.P,U2,11,AVSS*%
%TO.N,GND*%
X165699000Y-72234000D03*
%TO.P,U2,12,AUX1*%
%TO.N,unconnected-(U2-AUX1-Pad12)*%
X165199000Y-72234000D03*
%TO.P,U2,13,AUX2*%
%TO.N,unconnected-(U2-AUX2-Pad13)*%
X164699000Y-72234000D03*
%TO.P,U2,14,OSCIN*%
%TO.N,/OSCIN*%
X164199000Y-72234000D03*
%TO.P,U2,15,OSCOUT*%
%TO.N,/OSCOUT*%
X163699000Y-72234000D03*
%TO.P,U2,16,I0*%
%TO.N,Net-(U2-I0)*%
X163199000Y-72234000D03*
%TO.P,U2,17,I1*%
%TO.N,+3.3V*%
X162699000Y-72234000D03*
%TO.P,U2,18,TESTEN*%
%TO.N,GND*%
X162199000Y-72234000D03*
%TO.P,U2,19,P35*%
%TO.N,unconnected-(U2-P35-Pad19)*%
X161699000Y-72234000D03*
%TO.P,U2,20,N.C.*%
%TO.N,unconnected-(U2-N.C.-Pad20)*%
X161199000Y-72234000D03*
D37*
%TO.P,U2,21,N.C.*%
%TO.N,unconnected-(U2-N.C.-Pad21)*%
X160499000Y-72934000D03*
%TO.P,U2,22,N.C.*%
%TO.N,unconnected-(U2-N.C.-Pad22)*%
X160499000Y-73434000D03*
%TO.P,U2,23,PVDD*%
%TO.N,VCC*%
X160499000Y-73934000D03*
%TO.P,U2,24,P30/UART_RX*%
%TO.N,unconnected-(U2-P30{slash}UART_RX-Pad24)*%
X160499000Y-74434000D03*
%TO.P,U2,25,P70_IRQ*%
%TO.N,/PA7*%
X160499000Y-74934000D03*
%TO.P,U2,26,RSTOUT_N*%
%TO.N,unconnected-(U2-RSTOUT_N-Pad26)*%
X160499000Y-75434000D03*
%TO.P,U2,27,NSS/P50_SCL/HSU_RX*%
%TO.N,/PA4*%
X160499000Y-75934000D03*
%TO.P,U2,28,MOSI/SDA/HSU_TX*%
%TO.N,/PA1*%
X160499000Y-76434000D03*
%TO.P,U2,29,MISO_/_P71*%
%TO.N,/PA2*%
X160499000Y-76934000D03*
%TO.P,U2,30,SCK/P72*%
%TO.N,/PA3*%
X160499000Y-77434000D03*
D38*
%TO.P,U2,31,P31/UART_TX*%
%TO.N,unconnected-(U2-P31{slash}UART_TX-Pad31)*%
X161199000Y-78134000D03*
%TO.P,U2,32,P32_INT0*%
%TO.N,unconnected-(U2-P32_INT0-Pad32)*%
X161699000Y-78134000D03*
%TO.P,U2,33,P33_INT1*%
%TO.N,unconnected-(U2-P33_INT1-Pad33)*%
X162199000Y-78134000D03*
%TO.P,U2,34,P34/SIC_CLK*%
%TO.N,unconnected-(U2-P34{slash}SIC_CLK-Pad34)*%
X162699000Y-78134000D03*
%TO.P,U2,35,SIGOUT*%
%TO.N,unconnected-(U2-SIGOUT-Pad35)*%
X163199000Y-78134000D03*
%TO.P,U2,36,SIGIN*%
%TO.N,unconnected-(U2-SIGIN-Pad36)*%
X163699000Y-78134000D03*
%TO.P,U2,37,SVDD*%
%TO.N,unconnected-(U2-SVDD-Pad37)*%
X164199000Y-78134000D03*
%TO.P,U2,38,RSTPD_N*%
%TO.N,/PA5*%
X164699000Y-78134000D03*
%TO.P,U2,39,DVDD*%
%TO.N,+3.3V*%
X165199000Y-78134000D03*
%TO.P,U2,40,VBAT*%
%TO.N,+BAT*%
X165699000Y-78134000D03*
D39*
%TO.P,U2,41,41*%
%TO.N,GND*%
X163449000Y-75184000D03*
%TD*%
D25*
%TO.P,R9,1*%
%TO.N,GND*%
X140208000Y-99843500D03*
%TO.P,R9,2*%
%TO.N,Net-(U6-CS)*%
X140208000Y-101843500D03*
%TD*%
D13*
%TO.P,TX2,1,1*%
%TO.N,/TX2*%
X169418000Y-73700000D03*
%TD*%
D19*
%TO.P,C13,1*%
%TO.N,/OSCOUT*%
X164084000Y-68834000D03*
%TO.P,C13,2*%
%TO.N,GND*%
X162009000Y-68834000D03*
%TD*%
D36*
%TO.P,C14,1*%
%TO.N,+3.3V*%
X168430000Y-77102500D03*
%TO.P,C14,2*%
%TO.N,GND*%
X168430000Y-79177500D03*
%TD*%
D10*
%TO.P,R6,1*%
%TO.N,Net-(D5-B)*%
X192262000Y-82677000D03*
%TO.P,R6,2*%
%TO.N,/PC1*%
X190262000Y-82677000D03*
%TD*%
D19*
%TO.P,C19,1*%
%TO.N,VCC*%
X173503500Y-88138000D03*
%TO.P,C19,2*%
%TO.N,GND*%
X171428500Y-88138000D03*
%TD*%
%TO.P,C11,1*%
%TO.N,Net-(C11-Pad1)*%
X177575000Y-66400000D03*
%TO.P,C11,2*%
%TO.N,/RX*%
X175500000Y-66400000D03*
%TD*%
D36*
%TO.P,C15,1*%
%TO.N,+3.3V*%
X170716000Y-77102500D03*
%TO.P,C15,2*%
%TO.N,GND*%
X170716000Y-79177500D03*
%TD*%
D17*
%TO.P,J1,1,Pin_1*%
%TO.N,/PA4*%
X168402000Y-86868000D03*
D18*
%TO.P,J1,2,Pin_2*%
X165862000Y-86868000D03*
%TO.P,J1,3,Pin_3*%
%TO.N,/PA5*%
X168402000Y-89408000D03*
%TO.P,J1,4,Pin_4*%
X165862000Y-89408000D03*
%TO.P,J1,5,Pin_5*%
%TO.N,/PA6*%
X168402000Y-91948000D03*
%TO.P,J1,6,Pin_6*%
X165862000Y-91948000D03*
%TO.P,J1,7,Pin_7*%
%TO.N,/PA7*%
X168402000Y-94488000D03*
%TO.P,J1,8,Pin_8*%
X165862000Y-94488000D03*
%TO.P,J1,9,Pin_9*%
%TO.N,/PB5*%
X168402000Y-97028000D03*
%TO.P,J1,10,Pin_10*%
X165862000Y-97028000D03*
%TO.P,J1,11,Pin_11*%
%TO.N,/PB4*%
X168402000Y-99568000D03*
%TO.P,J1,12,Pin_12*%
X165862000Y-99568000D03*
%TO.P,J1,13,Pin_13*%
%TO.N,/PB3*%
X168402000Y-102108000D03*
%TO.P,J1,14,Pin_14*%
X165862000Y-102108000D03*
%TO.P,J1,15,Pin_15*%
%TO.N,/PB2*%
X168402000Y-104648000D03*
%TO.P,J1,16,Pin_16*%
X165862000Y-104648000D03*
%TO.P,J1,17,Pin_17*%
%TO.N,/M_SDA*%
X168402000Y-107188000D03*
%TO.P,J1,18,Pin_18*%
X165862000Y-107188000D03*
%TD*%
D13*
%TO.P,TX1,1,1*%
%TO.N,/TX1*%
X173482000Y-75946000D03*
%TD*%
D40*
%TO.P,R3,1*%
%TO.N,Net-(SW2B-C)*%
X182896000Y-100584000D03*
%TO.P,R3,2*%
%TO.N,Net-(D1-K)*%
X184896000Y-100584000D03*
%TD*%
D16*
%TO.P,C1,1*%
%TO.N,Net-(J4-Pin_1)*%
X189500000Y-75455500D03*
%TO.P,C1,2*%
X189500000Y-73380500D03*
%TD*%
D19*
%TO.P,C4,2*%
%TO.N,Net-(C4-Pad2)*%
X185100000Y-68800000D03*
%TO.P,C4,1*%
%TO.N,Net-(J4-Pin_1)*%
X187175000Y-68800000D03*
%TD*%
D41*
%TO.P,Y2,1,1*%
%TO.N,/OSCIN*%
X166370000Y-60380500D03*
%TO.P,Y2,2,2*%
%TO.N,GND*%
X163470000Y-60380500D03*
%TO.P,Y2,3,3*%
%TO.N,/OSCOUT*%
X163470000Y-62555500D03*
%TO.P,Y2,4,4*%
%TO.N,GND*%
X166370000Y-62555500D03*
%TD*%
D25*
%TO.P,R11,1*%
%TO.N,+BAT*%
X147193000Y-95779500D03*
%TO.P,R11,2*%
%TO.N,Net-(U6-VCC)*%
X147193000Y-97779500D03*
%TD*%
D42*
%TO.N,GND*%
X150000000Y-61000000D03*
D43*
X157750000Y-66500000D03*
X190500000Y-59690000D03*
X172750000Y-79750000D03*
X179500000Y-68750000D03*
X196850000Y-83130000D03*
X149750000Y-113000000D03*
X171428500Y-86850000D03*
X156750000Y-66500000D03*
X152654000Y-97790000D03*
X171428500Y-84310000D03*
X189000000Y-86000000D03*
X147250000Y-104000000D03*
X138750000Y-105000000D03*
X169000000Y-67000000D03*
X166624000Y-65024000D03*
X138775750Y-101275750D03*
X152500000Y-91250000D03*
%TO.N,+BAT*%
X167132000Y-80172000D03*
X161000000Y-83500000D03*
X158500000Y-101000000D03*
X146750000Y-93500000D03*
%TO.N,VCC*%
X164000000Y-109500000D03*
X175000000Y-83058000D03*
%TO.N,+3.3V*%
X156500000Y-86500000D03*
X172300000Y-77100000D03*
X169087806Y-72412193D03*
X166343906Y-79698145D03*
X157937500Y-69088000D03*
X169065380Y-75334000D03*
X155915380Y-85165380D03*
%TO.N,/V_REG*%
X163000000Y-104500000D03*
X160500000Y-105979000D03*
%TO.N,Net-(D2-K)*%
X155000000Y-88750000D03*
X156707107Y-97792893D03*
%TO.N,Net-(D3-K)*%
X152750000Y-102250000D03*
X154996000Y-93754000D03*
%TO.N,/PA5*%
X165750000Y-84250000D03*
X163970180Y-82379000D03*
X163970180Y-80172000D03*
%TO.N,/PA7*%
X159000000Y-75000000D03*
X163750000Y-88500000D03*
X156750000Y-75000000D03*
X160039892Y-82460108D03*
%TO.N,/PB2*%
X178915380Y-99165380D03*
%TO.N,/PC3*%
X188864675Y-84444771D03*
X188468000Y-81280000D03*
%TO.N,/PC2*%
X189630197Y-84212436D03*
X189068000Y-81845687D03*
X187800000Y-80356265D03*
X189092265Y-80356265D03*
%TO.N,/V_USB*%
X152787763Y-104787763D03*
X149500000Y-101500000D03*
%TD*%
D44*
%TO.N,GND*%
X152654000Y-97556000D02*
X153500000Y-96710000D01*
X152654000Y-97790000D02*
X152654000Y-97556000D01*
D45*
X158961000Y-93937000D02*
X158961000Y-94277000D01*
X158961000Y-93937000D02*
X158961000Y-92049500D01*
X158961000Y-94277000D02*
X158242000Y-94996000D01*
D44*
%TO.N,Net-(C4-Pad2)*%
X180405000Y-72100000D02*
X182880000Y-69625000D01*
X172300000Y-72000000D02*
X172400000Y-72100000D01*
X172400000Y-72100000D02*
X180405000Y-72100000D01*
D46*
%TO.N,GND*%
X166399000Y-76434000D02*
X166902120Y-76434000D01*
X167149000Y-77187120D02*
X166902120Y-77434000D01*
D45*
X162009000Y-68834000D02*
X162009000Y-65741000D01*
D44*
X143944500Y-102245052D02*
X143944500Y-100462500D01*
D45*
X159470000Y-112377000D02*
X161954000Y-109893000D01*
D47*
X150582930Y-92213000D02*
X151539930Y-91256000D01*
X152500000Y-91250000D02*
X152506000Y-91256000D01*
D45*
X158961000Y-87317468D02*
X158961000Y-86969500D01*
X156725000Y-72700000D02*
X156725000Y-71300000D01*
X161153032Y-89509500D02*
X158961000Y-87317468D01*
D46*
X166370000Y-62555500D02*
X166062500Y-62555500D01*
X164645880Y-75184000D02*
X163449000Y-75184000D01*
D47*
X188979000Y-85979000D02*
X189000000Y-86000000D01*
D45*
X147193000Y-103000000D02*
X147193000Y-103943000D01*
X157226000Y-66500000D02*
X157750000Y-66500000D01*
D46*
X166686500Y-77434000D02*
X168430000Y-79177500D01*
D45*
X196850000Y-81256000D02*
X196850000Y-83130000D01*
D46*
X166399000Y-76434000D02*
X165895880Y-76434000D01*
D45*
X169000000Y-68279000D02*
X169000000Y-67000000D01*
D46*
X144907000Y-100004500D02*
X144907000Y-97779500D01*
X138750000Y-101301500D02*
X138775750Y-101275750D01*
D45*
X155865000Y-70440000D02*
X155865000Y-68002500D01*
X155862500Y-67275000D02*
X156637500Y-66500000D01*
D46*
X166062500Y-62555500D02*
X163887500Y-60380500D01*
D45*
X164329000Y-112268000D02*
X161954000Y-109893000D01*
D44*
X144699448Y-103000000D02*
X143944500Y-102245052D01*
D47*
X152506000Y-91256000D02*
X154494000Y-91256000D01*
D45*
X161501000Y-89509500D02*
X161501000Y-92049500D01*
X166624000Y-62566000D02*
X166624000Y-65024000D01*
X149762000Y-111131000D02*
X149762000Y-112988000D01*
X156637500Y-66500000D02*
X156750000Y-66500000D01*
X157226000Y-66500000D02*
X159194000Y-64532000D01*
X161501000Y-89509500D02*
X161153032Y-89509500D01*
D46*
X138775750Y-101275750D02*
X140208000Y-99843500D01*
D47*
X154494000Y-91256000D02*
X154940000Y-90810000D01*
D46*
X138750000Y-105000000D02*
X138750000Y-101301500D01*
D45*
X172177500Y-79177500D02*
X172750000Y-79750000D01*
X147193000Y-103943000D02*
X147250000Y-104000000D01*
D47*
X154940000Y-90810000D02*
X154940000Y-90143500D01*
D45*
X158961000Y-92049500D02*
X161501000Y-92049500D01*
X162009000Y-65741000D02*
X160800000Y-64532000D01*
D48*
X144653000Y-61042000D02*
X149958000Y-61042000D01*
D47*
X186514000Y-85979000D02*
X188979000Y-85979000D01*
D45*
X155865000Y-68002500D02*
X155862500Y-68000000D01*
D46*
X166807500Y-63103000D02*
X166370000Y-63103000D01*
D45*
X168445000Y-68834000D02*
X169000000Y-68279000D01*
X149958000Y-61042000D02*
X150000000Y-61000000D01*
X179537500Y-68787500D02*
X179500000Y-68750000D01*
X155862500Y-68000000D02*
X155862500Y-67275000D01*
X159106000Y-112377000D02*
X159470000Y-112377000D01*
X149762000Y-112988000D02*
X149750000Y-113000000D01*
D47*
X150495000Y-92213000D02*
X150582930Y-92213000D01*
X152494000Y-91256000D02*
X152500000Y-91250000D01*
D44*
X144402500Y-100004500D02*
X144907000Y-100004500D01*
D46*
X165895880Y-76434000D02*
X164645880Y-75184000D01*
D45*
X187452000Y-59690000D02*
X190500000Y-59690000D01*
D47*
X171428500Y-85598000D02*
X171428500Y-84310000D01*
D46*
X163449000Y-75184000D02*
X164199000Y-74434000D01*
X163887500Y-60380500D02*
X163470000Y-60380500D01*
X142651000Y-107090000D02*
X140840000Y-107090000D01*
D45*
X179537500Y-70500000D02*
X179537500Y-68787500D01*
X156725000Y-71300000D02*
X155865000Y-70440000D01*
D46*
X166902120Y-77434000D02*
X166399000Y-77434000D01*
D44*
X147193000Y-103000000D02*
X144699448Y-103000000D01*
D46*
X164199000Y-74434000D02*
X166399000Y-74434000D01*
X166399000Y-77434000D02*
X166686500Y-77434000D01*
X140840000Y-107090000D02*
X138750000Y-105000000D01*
D45*
X159194000Y-64532000D02*
X160100000Y-64532000D01*
D47*
X151539930Y-91256000D02*
X152494000Y-91256000D01*
D45*
X165608000Y-112268000D02*
X164329000Y-112268000D01*
X160800000Y-64532000D02*
X160100000Y-64532000D01*
D47*
X171428500Y-88138000D02*
X171428500Y-86850000D01*
D44*
X143944500Y-100462500D02*
X144402500Y-100004500D01*
D45*
X168430000Y-79177500D02*
X172177500Y-79177500D01*
D46*
X167149000Y-76680880D02*
X167149000Y-77187120D01*
X166902120Y-76434000D02*
X167149000Y-76680880D01*
D45*
X156750000Y-66500000D02*
X157226000Y-66500000D01*
X147193000Y-101843500D02*
X147193000Y-103000000D01*
D47*
X171428500Y-84310000D02*
X171428500Y-83058000D01*
X171428500Y-86850000D02*
X171428500Y-85598000D01*
D44*
%TO.N,+BAT*%
X153984500Y-90138000D02*
X153990000Y-90143500D01*
D45*
X153934500Y-90138000D02*
X153940000Y-90143500D01*
D46*
X161000000Y-83500000D02*
X158500000Y-83500000D01*
X147193000Y-95779500D02*
X144082000Y-95779500D01*
D45*
X156500000Y-103350000D02*
X156500000Y-103000000D01*
X144653000Y-90342000D02*
X150291000Y-90342000D01*
D46*
X144851500Y-90143500D02*
X153990000Y-90143500D01*
X167132000Y-79567000D02*
X165699000Y-78134000D01*
X167132000Y-80172000D02*
X167132000Y-79567000D01*
D45*
X156500000Y-103000000D02*
X158500000Y-101000000D01*
D46*
X144653000Y-90342000D02*
X144851500Y-90143500D01*
D45*
X146750000Y-93500000D02*
X146750000Y-92439000D01*
X150495000Y-90138000D02*
X153934500Y-90138000D01*
D44*
X150495000Y-90138000D02*
X153984500Y-90138000D01*
D45*
X150291000Y-90342000D02*
X150495000Y-90138000D01*
D46*
X144082000Y-95779500D02*
X143957000Y-95904500D01*
X153990000Y-88010000D02*
X153990000Y-90143500D01*
X158500000Y-83500000D02*
X153990000Y-88010000D01*
D45*
X144653000Y-90342000D02*
X144653000Y-93239500D01*
X144653000Y-93239500D02*
X147193000Y-95779500D01*
D44*
%TO.N,Net-(C3-Pad2)*%
X182880000Y-75481000D02*
X182880000Y-75879000D01*
D45*
X182880000Y-75481000D02*
X182824500Y-75425500D01*
D44*
X178580000Y-75692000D02*
X182669000Y-75692000D01*
X182880000Y-75481000D02*
X185019000Y-75481000D01*
X182669000Y-75692000D02*
X182880000Y-75481000D01*
X185019000Y-75481000D02*
X185100000Y-75400000D01*
%TO.N,Net-(C4-Pad2)*%
X182880000Y-69625000D02*
X183205000Y-69300000D01*
X184900000Y-66500000D02*
X184900000Y-68600000D01*
X184700000Y-69200000D02*
X185100000Y-68800000D01*
X183305000Y-69200000D02*
X184700000Y-69200000D01*
X185100000Y-69480000D02*
X185100000Y-68800000D01*
X184900000Y-68600000D02*
X185100000Y-68800000D01*
X182880000Y-69625000D02*
X183305000Y-69200000D01*
D45*
%TO.N,VCC*%
X161954000Y-107818000D02*
X162318000Y-107818000D01*
D44*
X157284000Y-78855686D02*
X162250000Y-83821686D01*
X157284000Y-75466000D02*
X157284000Y-78855686D01*
D46*
X173779000Y-85344000D02*
X173779000Y-85387000D01*
X174498000Y-86106000D02*
X177087000Y-86106000D01*
D45*
X173503500Y-83058000D02*
X173503500Y-88138000D01*
D44*
X160499000Y-73934000D02*
X158816000Y-73934000D01*
X158816000Y-73934000D02*
X157284000Y-75466000D01*
D46*
X173779000Y-85387000D02*
X174498000Y-86106000D01*
D45*
X162318000Y-107818000D02*
X164000000Y-109500000D01*
X173503500Y-83058000D02*
X175000000Y-83058000D01*
X159106000Y-107777000D02*
X161913000Y-107777000D01*
D44*
X162250000Y-86220500D02*
X161501000Y-86969500D01*
D46*
X177087000Y-86106000D02*
X177214000Y-85979000D01*
D44*
X162250000Y-83821686D02*
X162250000Y-86220500D01*
D45*
X161913000Y-107777000D02*
X161954000Y-107818000D01*
D46*
%TO.N,/VOR*%
X161496000Y-102128500D02*
X159695500Y-103929000D01*
X161496000Y-100978500D02*
X161496000Y-102128500D01*
X159695500Y-103929000D02*
X158500000Y-103929000D01*
%TO.N,/VMID*%
X166399000Y-73434000D02*
X167146761Y-73434000D01*
X175502000Y-70314000D02*
X177276500Y-70314000D01*
X167146761Y-73434000D02*
X170266761Y-70314000D01*
X170266761Y-70314000D02*
X175502000Y-70314000D01*
X177276500Y-70314000D02*
X177462500Y-70500000D01*
%TO.N,/RX*%
X171019000Y-68314000D02*
X175502000Y-68314000D01*
D44*
X175500000Y-66400000D02*
X175500000Y-68312000D01*
D46*
X166399000Y-72934000D02*
X171019000Y-68314000D01*
D44*
X175500000Y-68312000D02*
X175502000Y-68314000D01*
%TO.N,Net-(C11-Pad1)*%
X177675000Y-66500000D02*
X177575000Y-66400000D01*
X182900000Y-66500000D02*
X177675000Y-66500000D01*
D46*
%TO.N,/OSCIN*%
X168148000Y-60808500D02*
X167720000Y-60380500D01*
X166370000Y-68834000D02*
X168148000Y-67056000D01*
X164199000Y-71005000D02*
X166370000Y-68834000D01*
X164199000Y-72234000D02*
X164199000Y-71005000D01*
X167720000Y-60380500D02*
X166370000Y-60380500D01*
X168148000Y-67056000D02*
X168148000Y-60808500D01*
%TO.N,/OSCOUT*%
X164084000Y-63169500D02*
X163470000Y-62555500D01*
X163699000Y-72234000D02*
X163699000Y-69219000D01*
X164084000Y-68834000D02*
X164084000Y-63169500D01*
X163699000Y-69219000D02*
X164084000Y-68834000D01*
D45*
%TO.N,+3.3V*%
X157411000Y-91059500D02*
X157411000Y-93119500D01*
D46*
X159766000Y-70612000D02*
X159258000Y-71120000D01*
X162699000Y-71730880D02*
X161580120Y-70612000D01*
X160020000Y-70612000D02*
X159766000Y-70612000D01*
X165199000Y-78994000D02*
X165199000Y-79403000D01*
X169087806Y-72412193D02*
X167565999Y-73934000D01*
D47*
X156500000Y-87048500D02*
X158961000Y-89509500D01*
D46*
X165199000Y-78134000D02*
X165199000Y-78994000D01*
D47*
X156439339Y-74250000D02*
X155915380Y-74773959D01*
D45*
X158242000Y-97071000D02*
X160128500Y-97071000D01*
D46*
X159258000Y-71120000D02*
X159258000Y-72242000D01*
D45*
X168430000Y-77102500D02*
X170716000Y-77102500D01*
D46*
X169065380Y-75334000D02*
X168965380Y-75434000D01*
X170718500Y-77100000D02*
X170716000Y-77102500D01*
X161580120Y-70612000D02*
X160020000Y-70612000D01*
D45*
X158242000Y-97071000D02*
X158242000Y-98626418D01*
D46*
X172300000Y-77100000D02*
X170718500Y-77100000D01*
D45*
X158242000Y-98626418D02*
X153289418Y-103579000D01*
X158961000Y-89509500D02*
X157411000Y-91059500D01*
D46*
X167565999Y-73934000D02*
X166399000Y-73934000D01*
X166343906Y-79698145D02*
X165903145Y-79698145D01*
X159258000Y-72242000D02*
X158800000Y-72700000D01*
D47*
X158800000Y-72700000D02*
X157250000Y-74250000D01*
D46*
X165903145Y-79698145D02*
X165199000Y-78994000D01*
X168965380Y-75434000D02*
X166399000Y-75434000D01*
D45*
X156817000Y-93713500D02*
X156817000Y-96371000D01*
X160128500Y-97071000D02*
X161496000Y-98438500D01*
D47*
X155915380Y-74773959D02*
X155915380Y-85165380D01*
X157250000Y-74250000D02*
X156439339Y-74250000D01*
D46*
X162699000Y-72234000D02*
X162699000Y-71730880D01*
X157937500Y-70437500D02*
X157937500Y-69596000D01*
D45*
X153289418Y-103579000D02*
X151671000Y-103579000D01*
X157411000Y-93119500D02*
X156817000Y-93713500D01*
D47*
X156500000Y-86500000D02*
X156500000Y-87048500D01*
D45*
X157517000Y-97071000D02*
X158242000Y-97071000D01*
X157937500Y-70437500D02*
X157940000Y-70440000D01*
X156817000Y-96371000D02*
X157517000Y-97071000D01*
X149110000Y-106140000D02*
X144526000Y-106140000D01*
X151671000Y-103579000D02*
X149110000Y-106140000D01*
X157937500Y-71837500D02*
X158800000Y-72700000D01*
X157937500Y-68000000D02*
X157937500Y-71837500D01*
%TO.N,/V_REG*%
X163500000Y-97902500D02*
X161496000Y-95898500D01*
X151785000Y-109056000D02*
X152806000Y-110077000D01*
X149762000Y-109056000D02*
X151785000Y-109056000D01*
X163000000Y-104500000D02*
X163500000Y-104000000D01*
X152806000Y-110077000D02*
X156000000Y-110077000D01*
X156000000Y-110077000D02*
X159106000Y-110077000D01*
X156000000Y-107000000D02*
X157021000Y-105979000D01*
X156000000Y-110077000D02*
X156000000Y-107000000D01*
X163500000Y-104000000D02*
X163500000Y-97902500D01*
X157021000Y-105979000D02*
X160500000Y-105979000D01*
D46*
%TO.N,/PA0*%
X185928000Y-99960544D02*
X183946000Y-97978544D01*
X189357000Y-91059000D02*
X192024000Y-93726000D01*
X185383500Y-103378000D02*
X185928000Y-102833500D01*
X183946000Y-93160738D02*
X186047738Y-91059000D01*
X181690544Y-104603000D02*
X181537544Y-104450000D01*
X186514000Y-91059000D02*
X189357000Y-91059000D01*
X184158500Y-104603000D02*
X181690544Y-104603000D01*
D45*
X192024000Y-94488000D02*
X194564000Y-94488000D01*
D46*
X185383500Y-103378000D02*
X184158500Y-104603000D01*
X183946000Y-97978544D02*
X183946000Y-93160738D01*
X181537544Y-104450000D02*
X174395000Y-104450000D01*
X174395000Y-104450000D02*
X173345000Y-105500000D01*
X192024000Y-93726000D02*
X192024000Y-94488000D01*
X185928000Y-102833500D02*
X185928000Y-99960544D01*
X186047738Y-91059000D02*
X186514000Y-91059000D01*
%TO.N,Net-(D1-K)*%
X182408500Y-103071500D02*
X184896000Y-100584000D01*
X182408500Y-103378000D02*
X182408500Y-103071500D01*
D47*
%TO.N,Net-(D2-K)*%
X155159107Y-97792893D02*
X153924000Y-99028000D01*
X155890000Y-90143500D02*
X155890000Y-89481001D01*
X156707107Y-97792893D02*
X155159107Y-97792893D01*
X155158999Y-88750000D02*
X155000000Y-88750000D01*
X155890000Y-89481001D02*
X155158999Y-88750000D01*
D44*
%TO.N,Net-(D2-A)*%
X151384000Y-99028000D02*
X151384000Y-96742000D01*
X153259000Y-100903000D02*
X153924000Y-100903000D01*
X151384000Y-99028000D02*
X153259000Y-100903000D01*
D45*
%TO.N,Net-(D3-K)*%
X151403000Y-100903000D02*
X152750000Y-102250000D01*
D47*
X154996000Y-93754000D02*
X154940000Y-93698000D01*
D45*
X151384000Y-100903000D02*
X151403000Y-100903000D01*
D47*
X154940000Y-93698000D02*
X154940000Y-92418500D01*
D44*
%TO.N,Net-(D5-R)*%
X196826000Y-78232000D02*
X196850000Y-78256000D01*
X192278000Y-78232000D02*
X196826000Y-78232000D01*
%TO.N,Net-(D5-B)*%
X192262000Y-82677000D02*
X191300000Y-81715000D01*
X196144000Y-79100000D02*
X196400000Y-79356000D01*
X191300000Y-79500000D02*
X191700000Y-79100000D01*
X191700000Y-79100000D02*
X196144000Y-79100000D01*
X191300000Y-81715000D02*
X191300000Y-79500000D01*
%TO.N,Net-(D5-G)*%
X192262000Y-80518000D02*
X196038000Y-80518000D01*
X196038000Y-80518000D02*
X196400000Y-80156000D01*
D46*
%TO.N,/PB3*%
X176403000Y-94869000D02*
X169164000Y-102108000D01*
X174395000Y-101150000D02*
X177850000Y-101150000D01*
X177850000Y-101150000D02*
X180250000Y-98750000D01*
X180250000Y-98750000D02*
X180250000Y-96500000D01*
X169164000Y-102108000D02*
X168402000Y-102108000D01*
X180250000Y-96500000D02*
X178619000Y-94869000D01*
X173345000Y-102200000D02*
X174395000Y-101150000D01*
X177214000Y-94869000D02*
X176403000Y-94869000D01*
X178619000Y-94869000D02*
X177214000Y-94869000D01*
D45*
X165862000Y-102108000D02*
X168402000Y-102108000D01*
D44*
%TO.N,/PA5*%
X165750000Y-84158820D02*
X165750000Y-84250000D01*
X168402000Y-89408000D02*
X168402000Y-89662000D01*
X176639567Y-88519000D02*
X177214000Y-88519000D01*
X163970180Y-82379000D02*
X165750000Y-84158820D01*
X164699000Y-78566410D02*
X164699000Y-78134000D01*
X173337567Y-91821000D02*
X176639567Y-88519000D01*
X163970180Y-80172000D02*
X163970180Y-79295230D01*
X168402000Y-89662000D02*
X170561000Y-91821000D01*
X170561000Y-91821000D02*
X173337567Y-91821000D01*
D45*
X165862000Y-89408000D02*
X168402000Y-89408000D01*
D44*
X176538000Y-88519000D02*
X177214000Y-88519000D01*
X163970180Y-79295230D02*
X164699000Y-78566410D01*
%TO.N,/PA7*%
X156750000Y-75000000D02*
X156750000Y-79788000D01*
D47*
X163750000Y-88500000D02*
X163750000Y-92376000D01*
X163750000Y-92376000D02*
X165862000Y-94488000D01*
D44*
X159066000Y-74934000D02*
X159000000Y-75000000D01*
X160499000Y-74934000D02*
X159066000Y-74934000D01*
D45*
X165862000Y-94488000D02*
X168402000Y-94488000D01*
D44*
X159422108Y-82460108D02*
X160039892Y-82460108D01*
X156750000Y-79788000D02*
X159422108Y-82460108D01*
D46*
X169164000Y-95250000D02*
X168402000Y-94488000D01*
X176747738Y-91059000D02*
X172556738Y-95250000D01*
X172556738Y-95250000D02*
X169164000Y-95250000D01*
X177214000Y-91059000D02*
X176747738Y-91059000D01*
D44*
%TO.N,/PB2*%
X177214000Y-96139000D02*
X178238999Y-96139000D01*
D46*
X168402000Y-103886000D02*
X168402000Y-104648000D01*
D44*
X178238999Y-96139000D02*
X178915380Y-96815381D01*
D45*
X165862000Y-104648000D02*
X168402000Y-104648000D01*
D46*
X176149000Y-96139000D02*
X168402000Y-103886000D01*
D44*
X178915380Y-96815381D02*
X178915380Y-99165380D01*
D46*
X177214000Y-96139000D02*
X176149000Y-96139000D01*
%TO.N,/PA6*%
X176747738Y-89789000D02*
X172810738Y-93726000D01*
X172810738Y-93726000D02*
X170688000Y-93726000D01*
X177214000Y-89789000D02*
X176747738Y-89789000D01*
X168402000Y-91440000D02*
X168402000Y-91948000D01*
D45*
X165862000Y-91948000D02*
X168402000Y-91948000D01*
D46*
X170688000Y-93726000D02*
X168402000Y-91440000D01*
%TO.N,/PB4*%
X170688000Y-99568000D02*
X168402000Y-99568000D01*
D45*
X165862000Y-99568000D02*
X168402000Y-99568000D01*
D46*
X177214000Y-93599000D02*
X176657000Y-93599000D01*
X176657000Y-93599000D02*
X170688000Y-99568000D01*
%TO.N,/PA4*%
X168402000Y-87376000D02*
X168402000Y-86868000D01*
D44*
X158762000Y-75934000D02*
X160499000Y-75934000D01*
X157900000Y-76796000D02*
X158762000Y-75934000D01*
D46*
X176747738Y-87249000D02*
X173826738Y-90170000D01*
D44*
X157900000Y-78906000D02*
X157900000Y-76796000D01*
X165862000Y-86868000D02*
X157900000Y-78906000D01*
D46*
X177214000Y-87249000D02*
X176747738Y-87249000D01*
D45*
X165862000Y-86868000D02*
X168402000Y-86868000D01*
D46*
X173826738Y-90170000D02*
X171196000Y-90170000D01*
X171196000Y-90170000D02*
X168402000Y-87376000D01*
%TO.N,/M_SDA*%
X169602000Y-105988000D02*
X168402000Y-107188000D01*
X176403000Y-97409000D02*
X169602000Y-104210000D01*
X177214000Y-97409000D02*
X176403000Y-97409000D01*
X169602000Y-104210000D02*
X169602000Y-105988000D01*
D45*
X165862000Y-107188000D02*
X168402000Y-107188000D01*
D46*
%TO.N,/PB5*%
X172048738Y-97028000D02*
X168402000Y-97028000D01*
X176747738Y-92329000D02*
X172048738Y-97028000D01*
X177214000Y-92329000D02*
X176747738Y-92329000D01*
D45*
X165862000Y-97028000D02*
X168402000Y-97028000D01*
D44*
%TO.N,/PC3*%
X195464628Y-84836000D02*
X196812000Y-86183372D01*
D46*
X186514000Y-92329000D02*
X189357000Y-92329000D01*
D44*
X188864675Y-84444771D02*
X189255904Y-84836000D01*
D46*
X190824000Y-93796000D02*
X190824000Y-95828000D01*
D44*
X196812000Y-94780000D02*
X194564000Y-97028000D01*
D46*
X189357000Y-92329000D02*
X190824000Y-93796000D01*
D44*
X190278000Y-78322000D02*
X190278000Y-78232000D01*
X188468000Y-81280000D02*
X188468000Y-80132000D01*
X196812000Y-86183372D02*
X196812000Y-94780000D01*
X189255904Y-84836000D02*
X195464628Y-84836000D01*
X188468000Y-80132000D02*
X190278000Y-78322000D01*
X190262000Y-77978000D02*
X185928000Y-77978000D01*
D45*
X192024000Y-97028000D02*
X194564000Y-97028000D01*
D46*
X190824000Y-95828000D02*
X192024000Y-97028000D01*
D45*
%TO.N,/PA1*%
X192024000Y-91948000D02*
X194564000Y-91948000D01*
D44*
X161789000Y-81779000D02*
X175251000Y-81779000D01*
D46*
X189865000Y-89789000D02*
X192024000Y-91948000D01*
D44*
X160499000Y-76434000D02*
X159220315Y-76434000D01*
X159220315Y-76434000D02*
X158400000Y-77254315D01*
X158400000Y-78390000D02*
X161789000Y-81779000D01*
X175251000Y-81779000D02*
X183261000Y-89789000D01*
D46*
X186514000Y-89789000D02*
X189865000Y-89789000D01*
D44*
X158400000Y-77254315D02*
X158400000Y-78390000D01*
X183261000Y-89789000D02*
X186514000Y-89789000D01*
D46*
%TO.N,/PC0*%
X186514000Y-96139000D02*
X189324000Y-96139000D01*
D45*
X192024000Y-104648000D02*
X194564000Y-104648000D01*
D46*
X189738000Y-102362000D02*
X192024000Y-104648000D01*
X189738000Y-96863318D02*
X189738000Y-102362000D01*
X189324000Y-96139000D02*
X189324000Y-96449318D01*
X189324000Y-96449318D02*
X189738000Y-96863318D01*
D44*
%TO.N,/PA3*%
X160499000Y-77434000D02*
X160499000Y-78457000D01*
X179641448Y-80772000D02*
X186118448Y-87249000D01*
D46*
X186514000Y-87249000D02*
X194183000Y-87249000D01*
D45*
X192024000Y-86868000D02*
X194564000Y-86868000D01*
D44*
X162814000Y-80772000D02*
X179641448Y-80772000D01*
D46*
X194183000Y-87249000D02*
X194564000Y-86868000D01*
D44*
X160499000Y-78457000D02*
X162814000Y-80772000D01*
X186118448Y-87249000D02*
X186514000Y-87249000D01*
D46*
%TO.N,/M_SCL*%
X188976000Y-97409000D02*
X188976000Y-104140000D01*
X188976000Y-104140000D02*
X192024000Y-107188000D01*
X186514000Y-97409000D02*
X188976000Y-97409000D01*
D45*
X194564000Y-107188000D02*
X192024000Y-107188000D01*
D44*
%TO.N,/PC2*%
X190262000Y-80264000D02*
X189068000Y-81458000D01*
X189630197Y-84212436D02*
X189630197Y-84030197D01*
X189630197Y-84212436D02*
X189745761Y-84328000D01*
D46*
X186514000Y-93599000D02*
X189919894Y-93599000D01*
D44*
X197212000Y-96920000D02*
X194564000Y-99568000D01*
D46*
X189919894Y-93599000D02*
X190324000Y-94003106D01*
D44*
X189745761Y-84328000D02*
X195522314Y-84328000D01*
D46*
X187707735Y-80264000D02*
X186182000Y-80264000D01*
X190324000Y-96035106D02*
X190824000Y-96535106D01*
D44*
X195522314Y-84328000D02*
X197212000Y-86017686D01*
X190262000Y-80538000D02*
X190262000Y-80518000D01*
X189068000Y-81458000D02*
X189068000Y-81845687D01*
D46*
X187800000Y-80356265D02*
X187707735Y-80264000D01*
D45*
X192024000Y-99568000D02*
X194564000Y-99568000D01*
D46*
X190324000Y-94003106D02*
X190324000Y-96035106D01*
D44*
X197212000Y-86017686D02*
X197212000Y-96920000D01*
D46*
X190824000Y-96535106D02*
X190824000Y-98368000D01*
X190262000Y-80264000D02*
X189184530Y-80264000D01*
X190824000Y-98368000D02*
X192024000Y-99568000D01*
X189184530Y-80264000D02*
X189092265Y-80356265D01*
%TO.N,/PA2*%
X186514000Y-88519000D02*
X191135000Y-88519000D01*
D44*
X159004000Y-77978000D02*
X162306000Y-81280000D01*
D45*
X192024000Y-89408000D02*
X194564000Y-89408000D01*
D44*
X160499000Y-76934000D02*
X159540000Y-76934000D01*
X162306000Y-81280000D02*
X177546000Y-81280000D01*
D46*
X191135000Y-88519000D02*
X192024000Y-89408000D01*
D44*
X177546000Y-81280000D02*
X184785000Y-88519000D01*
X184785000Y-88519000D02*
X186514000Y-88519000D01*
X159004000Y-77470000D02*
X159004000Y-77978000D01*
X159540000Y-76934000D02*
X159004000Y-77470000D01*
%TO.N,/PC1*%
X191262000Y-83677000D02*
X190262000Y-82677000D01*
X195437000Y-83677000D02*
X191262000Y-83677000D01*
X185928000Y-82550000D02*
X190135000Y-82550000D01*
D46*
X189824000Y-96242212D02*
X190324000Y-96742212D01*
X190324000Y-100408000D02*
X192024000Y-102108000D01*
D44*
X194564000Y-102108000D02*
X196596000Y-102108000D01*
X197612000Y-85852000D02*
X195437000Y-83677000D01*
D46*
X186514000Y-94869000D02*
X189824000Y-94869000D01*
D45*
X192024000Y-102108000D02*
X194564000Y-102108000D01*
D44*
X190135000Y-82550000D02*
X190262000Y-82677000D01*
X197612000Y-101092000D02*
X197612000Y-85852000D01*
X196596000Y-102108000D02*
X197612000Y-101092000D01*
D46*
X189824000Y-94869000D02*
X189824000Y-96242212D01*
X190324000Y-96742212D02*
X190324000Y-100408000D01*
D45*
%TO.N,/V_USB*%
X152796526Y-104779000D02*
X152787763Y-104787763D01*
D44*
X151666500Y-94742000D02*
X151384000Y-94742000D01*
D45*
X170688000Y-112268000D02*
X167158000Y-108738000D01*
X167158000Y-108738000D02*
X165219968Y-108738000D01*
X151384000Y-94142000D02*
X153107500Y-92418500D01*
X150684000Y-94742000D02*
X151384000Y-94742000D01*
X149500000Y-101500000D02*
X149500000Y-95926000D01*
X165219968Y-108738000D02*
X161260968Y-104779000D01*
X151384000Y-94742000D02*
X151384000Y-94142000D01*
X156374000Y-104779000D02*
X152796526Y-104779000D01*
X149500000Y-95926000D02*
X150684000Y-94742000D01*
X153107500Y-92418500D02*
X153940000Y-92418500D01*
D49*
X161260968Y-104779000D02*
X156374000Y-104779000D01*
D45*
%TO.N,Net-(J12-Pin_3)*%
X174445000Y-103600000D02*
X173265101Y-103600000D01*
X171945000Y-110985000D02*
X173228000Y-112268000D01*
X173265101Y-103600000D02*
X171945000Y-104920101D01*
X171945000Y-104920101D02*
X171945000Y-110985000D01*
X175845000Y-102200000D02*
X174445000Y-103600000D01*
%TO.N,Net-(J12-Pin_2)*%
X175845000Y-105500000D02*
X175845000Y-112191000D01*
X175845000Y-112191000D02*
X175768000Y-112268000D01*
D44*
%TO.N,/TX1*%
X166399000Y-75934000D02*
X170688000Y-75934000D01*
X173482000Y-75946000D02*
X176276000Y-75946000D01*
X170700000Y-75946000D02*
X173482000Y-75946000D01*
X176276000Y-75946000D02*
X176530000Y-75692000D01*
X170688000Y-75934000D02*
X170700000Y-75946000D01*
X170688000Y-75934000D02*
X170800000Y-75934000D01*
D46*
%TO.N,/TX2*%
X166399000Y-74934000D02*
X168016000Y-74934000D01*
X168016000Y-74934000D02*
X170850000Y-72100000D01*
D44*
%TO.N,Net-(Q1-G)*%
X143007000Y-97779500D02*
X143007000Y-99629500D01*
X143007000Y-99629500D02*
X142632000Y-100004500D01*
%TO.N,Net-(Q2-G)*%
X142632000Y-101904500D02*
X142632000Y-105171000D01*
X142632000Y-105171000D02*
X142651000Y-105190000D01*
D45*
%TO.N,Net-(SW2B-C)*%
X178345000Y-102200000D02*
X179961000Y-100584000D01*
X179961000Y-100584000D02*
X182896000Y-100584000D01*
D47*
%TO.N,Net-(U4-PROG)*%
X153924000Y-94710000D02*
X155290000Y-94710000D01*
X155867000Y-94133000D02*
X155867000Y-92441500D01*
X155867000Y-92441500D02*
X155890000Y-92418500D01*
X155290000Y-94710000D02*
X155867000Y-94133000D01*
D44*
%TO.N,Net-(U6-VCC)*%
X146007000Y-100954500D02*
X144907000Y-100954500D01*
X147193000Y-97779500D02*
X147193000Y-99768500D01*
X147193000Y-99768500D02*
X146007000Y-100954500D01*
%TO.N,Net-(U6-CS)*%
X141097000Y-100954500D02*
X142632000Y-100954500D01*
X140208000Y-101843500D02*
X141097000Y-100954500D01*
%TO.N,Net-(J4-Pin_1)*%
X189244500Y-75400000D02*
X189300000Y-75455500D01*
X189500000Y-69062500D02*
X189500000Y-71137500D01*
X189500000Y-71137500D02*
X189500000Y-72100000D01*
X182880000Y-73406000D02*
X182880000Y-71700000D01*
X194512500Y-69062500D02*
X194725000Y-69275000D01*
X189500000Y-72100000D02*
X189500000Y-73380500D01*
X189500000Y-74400000D02*
X189500000Y-75455500D01*
X189500000Y-73380500D02*
X189500000Y-74400000D01*
X182580000Y-72000000D02*
X182880000Y-71700000D01*
X187175000Y-68800000D02*
X189237500Y-68800000D01*
X182880000Y-73406000D02*
X182880000Y-73804000D01*
D46*
X193988000Y-69088000D02*
X194125000Y-69225000D01*
D44*
X187175000Y-75400000D02*
X189244500Y-75400000D01*
X189237500Y-68800000D02*
X189500000Y-69062500D01*
X194100000Y-69200000D02*
X194125000Y-69225000D01*
X189500000Y-74400000D02*
X189545000Y-74355000D01*
X194440000Y-72100000D02*
X194725000Y-71815000D01*
X193930000Y-74500000D02*
X194125000Y-74305000D01*
D46*
%TO.N,Net-(U2-I0)*%
X162009000Y-69909000D02*
X161349000Y-69909000D01*
X160100000Y-68660000D02*
X160100000Y-66532000D01*
X163199000Y-71099000D02*
X162009000Y-69909000D01*
D44*
X163199000Y-72234000D02*
X163199000Y-71621244D01*
D46*
X161349000Y-69909000D02*
X160100000Y-68660000D01*
X163199000Y-72234000D02*
X163199000Y-71099000D01*
D44*
%TO.N,Net-(J4-Pin_1)*%
X189500000Y-69062500D02*
X194512500Y-69062500D01*
X189500000Y-72100000D02*
X194440000Y-72100000D01*
X189545000Y-74355000D02*
X194725000Y-74355000D01*
%TD*%
M02*
