%TF.GenerationSoftware,KiCad,Pcbnew,8.0.7*%
%TF.CreationDate,2025-05-01T01:05:46-07:00*%
%TF.ProjectId,salp_board,73616c70-5f62-46f6-9172-642e6b696361,rev?*%
%TF.SameCoordinates,Original*%
%TF.FileFunction,Legend,Top*%
%TF.FilePolarity,Positive*%
%FSLAX46Y46*%
G04 Gerber Fmt 4.6, Leading zero omitted, Abs format (unit mm)*
G04 Created by KiCad (PCBNEW 8.0.7) date 2025-05-01 01:05:46*
%MOMM*%
%LPD*%
G01*
G04 APERTURE LIST*
%ADD10C,0.150000*%
%ADD11C,0.075000*%
%ADD12C,0.125000*%
%ADD13C,0.120000*%
%ADD14C,0.254000*%
G04 APERTURE END LIST*
D10*
X194033333Y-78354819D02*
X193700000Y-77878628D01*
X193461905Y-78354819D02*
X193461905Y-77354819D01*
X193461905Y-77354819D02*
X193842857Y-77354819D01*
X193842857Y-77354819D02*
X193938095Y-77402438D01*
X193938095Y-77402438D02*
X193985714Y-77450057D01*
X193985714Y-77450057D02*
X194033333Y-77545295D01*
X194033333Y-77545295D02*
X194033333Y-77688152D01*
X194033333Y-77688152D02*
X193985714Y-77783390D01*
X193985714Y-77783390D02*
X193938095Y-77831009D01*
X193938095Y-77831009D02*
X193842857Y-77878628D01*
X193842857Y-77878628D02*
X193461905Y-77878628D01*
X194604762Y-77783390D02*
X194509524Y-77735771D01*
X194509524Y-77735771D02*
X194461905Y-77688152D01*
X194461905Y-77688152D02*
X194414286Y-77592914D01*
X194414286Y-77592914D02*
X194414286Y-77545295D01*
X194414286Y-77545295D02*
X194461905Y-77450057D01*
X194461905Y-77450057D02*
X194509524Y-77402438D01*
X194509524Y-77402438D02*
X194604762Y-77354819D01*
X194604762Y-77354819D02*
X194795238Y-77354819D01*
X194795238Y-77354819D02*
X194890476Y-77402438D01*
X194890476Y-77402438D02*
X194938095Y-77450057D01*
X194938095Y-77450057D02*
X194985714Y-77545295D01*
X194985714Y-77545295D02*
X194985714Y-77592914D01*
X194985714Y-77592914D02*
X194938095Y-77688152D01*
X194938095Y-77688152D02*
X194890476Y-77735771D01*
X194890476Y-77735771D02*
X194795238Y-77783390D01*
X194795238Y-77783390D02*
X194604762Y-77783390D01*
X194604762Y-77783390D02*
X194509524Y-77831009D01*
X194509524Y-77831009D02*
X194461905Y-77878628D01*
X194461905Y-77878628D02*
X194414286Y-77973866D01*
X194414286Y-77973866D02*
X194414286Y-78164342D01*
X194414286Y-78164342D02*
X194461905Y-78259580D01*
X194461905Y-78259580D02*
X194509524Y-78307200D01*
X194509524Y-78307200D02*
X194604762Y-78354819D01*
X194604762Y-78354819D02*
X194795238Y-78354819D01*
X194795238Y-78354819D02*
X194890476Y-78307200D01*
X194890476Y-78307200D02*
X194938095Y-78259580D01*
X194938095Y-78259580D02*
X194985714Y-78164342D01*
X194985714Y-78164342D02*
X194985714Y-77973866D01*
X194985714Y-77973866D02*
X194938095Y-77878628D01*
X194938095Y-77878628D02*
X194890476Y-77831009D01*
X194890476Y-77831009D02*
X194795238Y-77783390D01*
X152138095Y-112554819D02*
X152138095Y-113364342D01*
X152138095Y-113364342D02*
X152185714Y-113459580D01*
X152185714Y-113459580D02*
X152233333Y-113507200D01*
X152233333Y-113507200D02*
X152328571Y-113554819D01*
X152328571Y-113554819D02*
X152519047Y-113554819D01*
X152519047Y-113554819D02*
X152614285Y-113507200D01*
X152614285Y-113507200D02*
X152661904Y-113459580D01*
X152661904Y-113459580D02*
X152709523Y-113364342D01*
X152709523Y-113364342D02*
X152709523Y-112554819D01*
X153709523Y-113554819D02*
X153138095Y-113554819D01*
X153423809Y-113554819D02*
X153423809Y-112554819D01*
X153423809Y-112554819D02*
X153328571Y-112697676D01*
X153328571Y-112697676D02*
X153233333Y-112792914D01*
X153233333Y-112792914D02*
X153138095Y-112840533D01*
X186213904Y-57744438D02*
X186118666Y-57696819D01*
X186118666Y-57696819D02*
X185975809Y-57696819D01*
X185975809Y-57696819D02*
X185832952Y-57744438D01*
X185832952Y-57744438D02*
X185737714Y-57839676D01*
X185737714Y-57839676D02*
X185690095Y-57934914D01*
X185690095Y-57934914D02*
X185642476Y-58125390D01*
X185642476Y-58125390D02*
X185642476Y-58268247D01*
X185642476Y-58268247D02*
X185690095Y-58458723D01*
X185690095Y-58458723D02*
X185737714Y-58553961D01*
X185737714Y-58553961D02*
X185832952Y-58649200D01*
X185832952Y-58649200D02*
X185975809Y-58696819D01*
X185975809Y-58696819D02*
X186071047Y-58696819D01*
X186071047Y-58696819D02*
X186213904Y-58649200D01*
X186213904Y-58649200D02*
X186261523Y-58601580D01*
X186261523Y-58601580D02*
X186261523Y-58268247D01*
X186261523Y-58268247D02*
X186071047Y-58268247D01*
X186690095Y-58696819D02*
X186690095Y-57696819D01*
X186690095Y-57696819D02*
X187261523Y-58696819D01*
X187261523Y-58696819D02*
X187261523Y-57696819D01*
X187737714Y-58696819D02*
X187737714Y-57696819D01*
X187737714Y-57696819D02*
X187975809Y-57696819D01*
X187975809Y-57696819D02*
X188118666Y-57744438D01*
X188118666Y-57744438D02*
X188213904Y-57839676D01*
X188213904Y-57839676D02*
X188261523Y-57934914D01*
X188261523Y-57934914D02*
X188309142Y-58125390D01*
X188309142Y-58125390D02*
X188309142Y-58268247D01*
X188309142Y-58268247D02*
X188261523Y-58458723D01*
X188261523Y-58458723D02*
X188213904Y-58553961D01*
X188213904Y-58553961D02*
X188118666Y-58649200D01*
X188118666Y-58649200D02*
X187975809Y-58696819D01*
X187975809Y-58696819D02*
X187737714Y-58696819D01*
X189261523Y-58696819D02*
X188690095Y-58696819D01*
X188975809Y-58696819D02*
X188975809Y-57696819D01*
X188975809Y-57696819D02*
X188880571Y-57839676D01*
X188880571Y-57839676D02*
X188785333Y-57934914D01*
X188785333Y-57934914D02*
X188690095Y-57982533D01*
X194033333Y-80754819D02*
X193700000Y-80278628D01*
X193461905Y-80754819D02*
X193461905Y-79754819D01*
X193461905Y-79754819D02*
X193842857Y-79754819D01*
X193842857Y-79754819D02*
X193938095Y-79802438D01*
X193938095Y-79802438D02*
X193985714Y-79850057D01*
X193985714Y-79850057D02*
X194033333Y-79945295D01*
X194033333Y-79945295D02*
X194033333Y-80088152D01*
X194033333Y-80088152D02*
X193985714Y-80183390D01*
X193985714Y-80183390D02*
X193938095Y-80231009D01*
X193938095Y-80231009D02*
X193842857Y-80278628D01*
X193842857Y-80278628D02*
X193461905Y-80278628D01*
X194366667Y-79754819D02*
X195033333Y-79754819D01*
X195033333Y-79754819D02*
X194604762Y-80754819D01*
D11*
X164704000Y-80906885D02*
X164704000Y-80606885D01*
X164704000Y-80606885D02*
X164775429Y-80606885D01*
X164775429Y-80606885D02*
X164818286Y-80621171D01*
X164818286Y-80621171D02*
X164846857Y-80649742D01*
X164846857Y-80649742D02*
X164861143Y-80678314D01*
X164861143Y-80678314D02*
X164875429Y-80735457D01*
X164875429Y-80735457D02*
X164875429Y-80778314D01*
X164875429Y-80778314D02*
X164861143Y-80835457D01*
X164861143Y-80835457D02*
X164846857Y-80864028D01*
X164846857Y-80864028D02*
X164818286Y-80892600D01*
X164818286Y-80892600D02*
X164775429Y-80906885D01*
X164775429Y-80906885D02*
X164704000Y-80906885D01*
X164961143Y-80606885D02*
X165061143Y-80906885D01*
X165061143Y-80906885D02*
X165161143Y-80606885D01*
X165261143Y-80906885D02*
X165261143Y-80606885D01*
X165261143Y-80606885D02*
X165332572Y-80606885D01*
X165332572Y-80606885D02*
X165375429Y-80621171D01*
X165375429Y-80621171D02*
X165404000Y-80649742D01*
X165404000Y-80649742D02*
X165418286Y-80678314D01*
X165418286Y-80678314D02*
X165432572Y-80735457D01*
X165432572Y-80735457D02*
X165432572Y-80778314D01*
X165432572Y-80778314D02*
X165418286Y-80835457D01*
X165418286Y-80835457D02*
X165404000Y-80864028D01*
X165404000Y-80864028D02*
X165375429Y-80892600D01*
X165375429Y-80892600D02*
X165332572Y-80906885D01*
X165332572Y-80906885D02*
X165261143Y-80906885D01*
X165561143Y-80906885D02*
X165561143Y-80606885D01*
X165561143Y-80606885D02*
X165632572Y-80606885D01*
X165632572Y-80606885D02*
X165675429Y-80621171D01*
X165675429Y-80621171D02*
X165704000Y-80649742D01*
X165704000Y-80649742D02*
X165718286Y-80678314D01*
X165718286Y-80678314D02*
X165732572Y-80735457D01*
X165732572Y-80735457D02*
X165732572Y-80778314D01*
X165732572Y-80778314D02*
X165718286Y-80835457D01*
X165718286Y-80835457D02*
X165704000Y-80864028D01*
X165704000Y-80864028D02*
X165675429Y-80892600D01*
X165675429Y-80892600D02*
X165632572Y-80906885D01*
X165632572Y-80906885D02*
X165561143Y-80906885D01*
X166018286Y-80906885D02*
X165846857Y-80906885D01*
X165932572Y-80906885D02*
X165932572Y-80606885D01*
X165932572Y-80606885D02*
X165904000Y-80649742D01*
X165904000Y-80649742D02*
X165875429Y-80678314D01*
X165875429Y-80678314D02*
X165846857Y-80692600D01*
D10*
X177125333Y-74368819D02*
X176649143Y-74368819D01*
X176649143Y-74368819D02*
X176649143Y-73368819D01*
X177982476Y-74368819D02*
X177411048Y-74368819D01*
X177696762Y-74368819D02*
X177696762Y-73368819D01*
X177696762Y-73368819D02*
X177601524Y-73511676D01*
X177601524Y-73511676D02*
X177506286Y-73606914D01*
X177506286Y-73606914D02*
X177411048Y-73654533D01*
X177757142Y-72659580D02*
X177709523Y-72707200D01*
X177709523Y-72707200D02*
X177566666Y-72754819D01*
X177566666Y-72754819D02*
X177471428Y-72754819D01*
X177471428Y-72754819D02*
X177328571Y-72707200D01*
X177328571Y-72707200D02*
X177233333Y-72611961D01*
X177233333Y-72611961D02*
X177185714Y-72516723D01*
X177185714Y-72516723D02*
X177138095Y-72326247D01*
X177138095Y-72326247D02*
X177138095Y-72183390D01*
X177138095Y-72183390D02*
X177185714Y-71992914D01*
X177185714Y-71992914D02*
X177233333Y-71897676D01*
X177233333Y-71897676D02*
X177328571Y-71802438D01*
X177328571Y-71802438D02*
X177471428Y-71754819D01*
X177471428Y-71754819D02*
X177566666Y-71754819D01*
X177566666Y-71754819D02*
X177709523Y-71802438D01*
X177709523Y-71802438D02*
X177757142Y-71850057D01*
X178709523Y-72754819D02*
X178138095Y-72754819D01*
X178423809Y-72754819D02*
X178423809Y-71754819D01*
X178423809Y-71754819D02*
X178328571Y-71897676D01*
X178328571Y-71897676D02*
X178233333Y-71992914D01*
X178233333Y-71992914D02*
X178138095Y-72040533D01*
X179328571Y-71754819D02*
X179423809Y-71754819D01*
X179423809Y-71754819D02*
X179519047Y-71802438D01*
X179519047Y-71802438D02*
X179566666Y-71850057D01*
X179566666Y-71850057D02*
X179614285Y-71945295D01*
X179614285Y-71945295D02*
X179661904Y-72135771D01*
X179661904Y-72135771D02*
X179661904Y-72373866D01*
X179661904Y-72373866D02*
X179614285Y-72564342D01*
X179614285Y-72564342D02*
X179566666Y-72659580D01*
X179566666Y-72659580D02*
X179519047Y-72707200D01*
X179519047Y-72707200D02*
X179423809Y-72754819D01*
X179423809Y-72754819D02*
X179328571Y-72754819D01*
X179328571Y-72754819D02*
X179233333Y-72707200D01*
X179233333Y-72707200D02*
X179185714Y-72659580D01*
X179185714Y-72659580D02*
X179138095Y-72564342D01*
X179138095Y-72564342D02*
X179090476Y-72373866D01*
X179090476Y-72373866D02*
X179090476Y-72135771D01*
X179090476Y-72135771D02*
X179138095Y-71945295D01*
X179138095Y-71945295D02*
X179185714Y-71850057D01*
X179185714Y-71850057D02*
X179233333Y-71802438D01*
X179233333Y-71802438D02*
X179328571Y-71754819D01*
X149259580Y-92642857D02*
X149307200Y-92690476D01*
X149307200Y-92690476D02*
X149354819Y-92833333D01*
X149354819Y-92833333D02*
X149354819Y-92928571D01*
X149354819Y-92928571D02*
X149307200Y-93071428D01*
X149307200Y-93071428D02*
X149211961Y-93166666D01*
X149211961Y-93166666D02*
X149116723Y-93214285D01*
X149116723Y-93214285D02*
X148926247Y-93261904D01*
X148926247Y-93261904D02*
X148783390Y-93261904D01*
X148783390Y-93261904D02*
X148592914Y-93214285D01*
X148592914Y-93214285D02*
X148497676Y-93166666D01*
X148497676Y-93166666D02*
X148402438Y-93071428D01*
X148402438Y-93071428D02*
X148354819Y-92928571D01*
X148354819Y-92928571D02*
X148354819Y-92833333D01*
X148354819Y-92833333D02*
X148402438Y-92690476D01*
X148402438Y-92690476D02*
X148450057Y-92642857D01*
X149354819Y-91690476D02*
X149354819Y-92261904D01*
X149354819Y-91976190D02*
X148354819Y-91976190D01*
X148354819Y-91976190D02*
X148497676Y-92071428D01*
X148497676Y-92071428D02*
X148592914Y-92166666D01*
X148592914Y-92166666D02*
X148640533Y-92261904D01*
X148354819Y-91357142D02*
X148354819Y-90690476D01*
X148354819Y-90690476D02*
X149354819Y-91119047D01*
X159464476Y-84290819D02*
X159464476Y-85005104D01*
X159464476Y-85005104D02*
X159416857Y-85147961D01*
X159416857Y-85147961D02*
X159321619Y-85243200D01*
X159321619Y-85243200D02*
X159178762Y-85290819D01*
X159178762Y-85290819D02*
X159083524Y-85290819D01*
X160464476Y-85290819D02*
X159893048Y-85290819D01*
X160178762Y-85290819D02*
X160178762Y-84290819D01*
X160178762Y-84290819D02*
X160083524Y-84433676D01*
X160083524Y-84433676D02*
X159988286Y-84528914D01*
X159988286Y-84528914D02*
X159893048Y-84576533D01*
X161083524Y-84290819D02*
X161178762Y-84290819D01*
X161178762Y-84290819D02*
X161274000Y-84338438D01*
X161274000Y-84338438D02*
X161321619Y-84386057D01*
X161321619Y-84386057D02*
X161369238Y-84481295D01*
X161369238Y-84481295D02*
X161416857Y-84671771D01*
X161416857Y-84671771D02*
X161416857Y-84909866D01*
X161416857Y-84909866D02*
X161369238Y-85100342D01*
X161369238Y-85100342D02*
X161321619Y-85195580D01*
X161321619Y-85195580D02*
X161274000Y-85243200D01*
X161274000Y-85243200D02*
X161178762Y-85290819D01*
X161178762Y-85290819D02*
X161083524Y-85290819D01*
X161083524Y-85290819D02*
X160988286Y-85243200D01*
X160988286Y-85243200D02*
X160940667Y-85195580D01*
X160940667Y-85195580D02*
X160893048Y-85100342D01*
X160893048Y-85100342D02*
X160845429Y-84909866D01*
X160845429Y-84909866D02*
X160845429Y-84671771D01*
X160845429Y-84671771D02*
X160893048Y-84481295D01*
X160893048Y-84481295D02*
X160940667Y-84386057D01*
X160940667Y-84386057D02*
X160988286Y-84338438D01*
X160988286Y-84338438D02*
X161083524Y-84290819D01*
X180690476Y-111354819D02*
X180690476Y-112069104D01*
X180690476Y-112069104D02*
X180642857Y-112211961D01*
X180642857Y-112211961D02*
X180547619Y-112307200D01*
X180547619Y-112307200D02*
X180404762Y-112354819D01*
X180404762Y-112354819D02*
X180309524Y-112354819D01*
X181690476Y-112354819D02*
X181119048Y-112354819D01*
X181404762Y-112354819D02*
X181404762Y-111354819D01*
X181404762Y-111354819D02*
X181309524Y-111497676D01*
X181309524Y-111497676D02*
X181214286Y-111592914D01*
X181214286Y-111592914D02*
X181119048Y-111640533D01*
X182071429Y-111450057D02*
X182119048Y-111402438D01*
X182119048Y-111402438D02*
X182214286Y-111354819D01*
X182214286Y-111354819D02*
X182452381Y-111354819D01*
X182452381Y-111354819D02*
X182547619Y-111402438D01*
X182547619Y-111402438D02*
X182595238Y-111450057D01*
X182595238Y-111450057D02*
X182642857Y-111545295D01*
X182642857Y-111545295D02*
X182642857Y-111640533D01*
X182642857Y-111640533D02*
X182595238Y-111783390D01*
X182595238Y-111783390D02*
X182023810Y-112354819D01*
X182023810Y-112354819D02*
X182642857Y-112354819D01*
X175559580Y-86242857D02*
X175607200Y-86290476D01*
X175607200Y-86290476D02*
X175654819Y-86433333D01*
X175654819Y-86433333D02*
X175654819Y-86528571D01*
X175654819Y-86528571D02*
X175607200Y-86671428D01*
X175607200Y-86671428D02*
X175511961Y-86766666D01*
X175511961Y-86766666D02*
X175416723Y-86814285D01*
X175416723Y-86814285D02*
X175226247Y-86861904D01*
X175226247Y-86861904D02*
X175083390Y-86861904D01*
X175083390Y-86861904D02*
X174892914Y-86814285D01*
X174892914Y-86814285D02*
X174797676Y-86766666D01*
X174797676Y-86766666D02*
X174702438Y-86671428D01*
X174702438Y-86671428D02*
X174654819Y-86528571D01*
X174654819Y-86528571D02*
X174654819Y-86433333D01*
X174654819Y-86433333D02*
X174702438Y-86290476D01*
X174702438Y-86290476D02*
X174750057Y-86242857D01*
X175654819Y-85290476D02*
X175654819Y-85861904D01*
X175654819Y-85576190D02*
X174654819Y-85576190D01*
X174654819Y-85576190D02*
X174797676Y-85671428D01*
X174797676Y-85671428D02*
X174892914Y-85766666D01*
X174892914Y-85766666D02*
X174940533Y-85861904D01*
X174654819Y-84433333D02*
X174654819Y-84623809D01*
X174654819Y-84623809D02*
X174702438Y-84719047D01*
X174702438Y-84719047D02*
X174750057Y-84766666D01*
X174750057Y-84766666D02*
X174892914Y-84861904D01*
X174892914Y-84861904D02*
X175083390Y-84909523D01*
X175083390Y-84909523D02*
X175464342Y-84909523D01*
X175464342Y-84909523D02*
X175559580Y-84861904D01*
X175559580Y-84861904D02*
X175607200Y-84814285D01*
X175607200Y-84814285D02*
X175654819Y-84719047D01*
X175654819Y-84719047D02*
X175654819Y-84528571D01*
X175654819Y-84528571D02*
X175607200Y-84433333D01*
X175607200Y-84433333D02*
X175559580Y-84385714D01*
X175559580Y-84385714D02*
X175464342Y-84338095D01*
X175464342Y-84338095D02*
X175226247Y-84338095D01*
X175226247Y-84338095D02*
X175131009Y-84385714D01*
X175131009Y-84385714D02*
X175083390Y-84433333D01*
X175083390Y-84433333D02*
X175035771Y-84528571D01*
X175035771Y-84528571D02*
X175035771Y-84719047D01*
X175035771Y-84719047D02*
X175083390Y-84814285D01*
X175083390Y-84814285D02*
X175131009Y-84861904D01*
X175131009Y-84861904D02*
X175226247Y-84909523D01*
D12*
X183530952Y-82774809D02*
X183530952Y-82274809D01*
X183530952Y-82274809D02*
X183721428Y-82274809D01*
X183721428Y-82274809D02*
X183769047Y-82298619D01*
X183769047Y-82298619D02*
X183792857Y-82322428D01*
X183792857Y-82322428D02*
X183816666Y-82370047D01*
X183816666Y-82370047D02*
X183816666Y-82441476D01*
X183816666Y-82441476D02*
X183792857Y-82489095D01*
X183792857Y-82489095D02*
X183769047Y-82512904D01*
X183769047Y-82512904D02*
X183721428Y-82536714D01*
X183721428Y-82536714D02*
X183530952Y-82536714D01*
X184316666Y-82727190D02*
X184292857Y-82751000D01*
X184292857Y-82751000D02*
X184221428Y-82774809D01*
X184221428Y-82774809D02*
X184173809Y-82774809D01*
X184173809Y-82774809D02*
X184102381Y-82751000D01*
X184102381Y-82751000D02*
X184054762Y-82703380D01*
X184054762Y-82703380D02*
X184030952Y-82655761D01*
X184030952Y-82655761D02*
X184007143Y-82560523D01*
X184007143Y-82560523D02*
X184007143Y-82489095D01*
X184007143Y-82489095D02*
X184030952Y-82393857D01*
X184030952Y-82393857D02*
X184054762Y-82346238D01*
X184054762Y-82346238D02*
X184102381Y-82298619D01*
X184102381Y-82298619D02*
X184173809Y-82274809D01*
X184173809Y-82274809D02*
X184221428Y-82274809D01*
X184221428Y-82274809D02*
X184292857Y-82298619D01*
X184292857Y-82298619D02*
X184316666Y-82322428D01*
X184792857Y-82774809D02*
X184507143Y-82774809D01*
X184650000Y-82774809D02*
X184650000Y-82274809D01*
X184650000Y-82274809D02*
X184602381Y-82346238D01*
X184602381Y-82346238D02*
X184554762Y-82393857D01*
X184554762Y-82393857D02*
X184507143Y-82417666D01*
D10*
X148957142Y-103459580D02*
X148909523Y-103507200D01*
X148909523Y-103507200D02*
X148766666Y-103554819D01*
X148766666Y-103554819D02*
X148671428Y-103554819D01*
X148671428Y-103554819D02*
X148528571Y-103507200D01*
X148528571Y-103507200D02*
X148433333Y-103411961D01*
X148433333Y-103411961D02*
X148385714Y-103316723D01*
X148385714Y-103316723D02*
X148338095Y-103126247D01*
X148338095Y-103126247D02*
X148338095Y-102983390D01*
X148338095Y-102983390D02*
X148385714Y-102792914D01*
X148385714Y-102792914D02*
X148433333Y-102697676D01*
X148433333Y-102697676D02*
X148528571Y-102602438D01*
X148528571Y-102602438D02*
X148671428Y-102554819D01*
X148671428Y-102554819D02*
X148766666Y-102554819D01*
X148766666Y-102554819D02*
X148909523Y-102602438D01*
X148909523Y-102602438D02*
X148957142Y-102650057D01*
X149338095Y-102650057D02*
X149385714Y-102602438D01*
X149385714Y-102602438D02*
X149480952Y-102554819D01*
X149480952Y-102554819D02*
X149719047Y-102554819D01*
X149719047Y-102554819D02*
X149814285Y-102602438D01*
X149814285Y-102602438D02*
X149861904Y-102650057D01*
X149861904Y-102650057D02*
X149909523Y-102745295D01*
X149909523Y-102745295D02*
X149909523Y-102840533D01*
X149909523Y-102840533D02*
X149861904Y-102983390D01*
X149861904Y-102983390D02*
X149290476Y-103554819D01*
X149290476Y-103554819D02*
X149909523Y-103554819D01*
X150242857Y-102554819D02*
X150861904Y-102554819D01*
X150861904Y-102554819D02*
X150528571Y-102935771D01*
X150528571Y-102935771D02*
X150671428Y-102935771D01*
X150671428Y-102935771D02*
X150766666Y-102983390D01*
X150766666Y-102983390D02*
X150814285Y-103031009D01*
X150814285Y-103031009D02*
X150861904Y-103126247D01*
X150861904Y-103126247D02*
X150861904Y-103364342D01*
X150861904Y-103364342D02*
X150814285Y-103459580D01*
X150814285Y-103459580D02*
X150766666Y-103507200D01*
X150766666Y-103507200D02*
X150671428Y-103554819D01*
X150671428Y-103554819D02*
X150385714Y-103554819D01*
X150385714Y-103554819D02*
X150290476Y-103507200D01*
X150290476Y-103507200D02*
X150242857Y-103459580D01*
X174261667Y-107507200D02*
X174404524Y-107554819D01*
X174404524Y-107554819D02*
X174642619Y-107554819D01*
X174642619Y-107554819D02*
X174737857Y-107507200D01*
X174737857Y-107507200D02*
X174785476Y-107459580D01*
X174785476Y-107459580D02*
X174833095Y-107364342D01*
X174833095Y-107364342D02*
X174833095Y-107269104D01*
X174833095Y-107269104D02*
X174785476Y-107173866D01*
X174785476Y-107173866D02*
X174737857Y-107126247D01*
X174737857Y-107126247D02*
X174642619Y-107078628D01*
X174642619Y-107078628D02*
X174452143Y-107031009D01*
X174452143Y-107031009D02*
X174356905Y-106983390D01*
X174356905Y-106983390D02*
X174309286Y-106935771D01*
X174309286Y-106935771D02*
X174261667Y-106840533D01*
X174261667Y-106840533D02*
X174261667Y-106745295D01*
X174261667Y-106745295D02*
X174309286Y-106650057D01*
X174309286Y-106650057D02*
X174356905Y-106602438D01*
X174356905Y-106602438D02*
X174452143Y-106554819D01*
X174452143Y-106554819D02*
X174690238Y-106554819D01*
X174690238Y-106554819D02*
X174833095Y-106602438D01*
X175166429Y-106554819D02*
X175404524Y-107554819D01*
X175404524Y-107554819D02*
X175595000Y-106840533D01*
X175595000Y-106840533D02*
X175785476Y-107554819D01*
X175785476Y-107554819D02*
X176023572Y-106554819D01*
X176356905Y-106650057D02*
X176404524Y-106602438D01*
X176404524Y-106602438D02*
X176499762Y-106554819D01*
X176499762Y-106554819D02*
X176737857Y-106554819D01*
X176737857Y-106554819D02*
X176833095Y-106602438D01*
X176833095Y-106602438D02*
X176880714Y-106650057D01*
X176880714Y-106650057D02*
X176928333Y-106745295D01*
X176928333Y-106745295D02*
X176928333Y-106840533D01*
X176928333Y-106840533D02*
X176880714Y-106983390D01*
X176880714Y-106983390D02*
X176309286Y-107554819D01*
X176309286Y-107554819D02*
X176928333Y-107554819D01*
X192866666Y-109154819D02*
X192866666Y-109869104D01*
X192866666Y-109869104D02*
X192819047Y-110011961D01*
X192819047Y-110011961D02*
X192723809Y-110107200D01*
X192723809Y-110107200D02*
X192580952Y-110154819D01*
X192580952Y-110154819D02*
X192485714Y-110154819D01*
X193485714Y-109583390D02*
X193390476Y-109535771D01*
X193390476Y-109535771D02*
X193342857Y-109488152D01*
X193342857Y-109488152D02*
X193295238Y-109392914D01*
X193295238Y-109392914D02*
X193295238Y-109345295D01*
X193295238Y-109345295D02*
X193342857Y-109250057D01*
X193342857Y-109250057D02*
X193390476Y-109202438D01*
X193390476Y-109202438D02*
X193485714Y-109154819D01*
X193485714Y-109154819D02*
X193676190Y-109154819D01*
X193676190Y-109154819D02*
X193771428Y-109202438D01*
X193771428Y-109202438D02*
X193819047Y-109250057D01*
X193819047Y-109250057D02*
X193866666Y-109345295D01*
X193866666Y-109345295D02*
X193866666Y-109392914D01*
X193866666Y-109392914D02*
X193819047Y-109488152D01*
X193819047Y-109488152D02*
X193771428Y-109535771D01*
X193771428Y-109535771D02*
X193676190Y-109583390D01*
X193676190Y-109583390D02*
X193485714Y-109583390D01*
X193485714Y-109583390D02*
X193390476Y-109631009D01*
X193390476Y-109631009D02*
X193342857Y-109678628D01*
X193342857Y-109678628D02*
X193295238Y-109773866D01*
X193295238Y-109773866D02*
X193295238Y-109964342D01*
X193295238Y-109964342D02*
X193342857Y-110059580D01*
X193342857Y-110059580D02*
X193390476Y-110107200D01*
X193390476Y-110107200D02*
X193485714Y-110154819D01*
X193485714Y-110154819D02*
X193676190Y-110154819D01*
X193676190Y-110154819D02*
X193771428Y-110107200D01*
X193771428Y-110107200D02*
X193819047Y-110059580D01*
X193819047Y-110059580D02*
X193866666Y-109964342D01*
X193866666Y-109964342D02*
X193866666Y-109773866D01*
X193866666Y-109773866D02*
X193819047Y-109678628D01*
X193819047Y-109678628D02*
X193771428Y-109631009D01*
X193771428Y-109631009D02*
X193676190Y-109583390D01*
X137538095Y-57754819D02*
X137538095Y-56754819D01*
X137538095Y-57231009D02*
X138109523Y-57231009D01*
X138109523Y-57754819D02*
X138109523Y-56754819D01*
X138538095Y-56850057D02*
X138585714Y-56802438D01*
X138585714Y-56802438D02*
X138680952Y-56754819D01*
X138680952Y-56754819D02*
X138919047Y-56754819D01*
X138919047Y-56754819D02*
X139014285Y-56802438D01*
X139014285Y-56802438D02*
X139061904Y-56850057D01*
X139061904Y-56850057D02*
X139109523Y-56945295D01*
X139109523Y-56945295D02*
X139109523Y-57040533D01*
X139109523Y-57040533D02*
X139061904Y-57183390D01*
X139061904Y-57183390D02*
X138490476Y-57754819D01*
X138490476Y-57754819D02*
X139109523Y-57754819D01*
X155299580Y-72966666D02*
X155347200Y-73014285D01*
X155347200Y-73014285D02*
X155394819Y-73157142D01*
X155394819Y-73157142D02*
X155394819Y-73252380D01*
X155394819Y-73252380D02*
X155347200Y-73395237D01*
X155347200Y-73395237D02*
X155251961Y-73490475D01*
X155251961Y-73490475D02*
X155156723Y-73538094D01*
X155156723Y-73538094D02*
X154966247Y-73585713D01*
X154966247Y-73585713D02*
X154823390Y-73585713D01*
X154823390Y-73585713D02*
X154632914Y-73538094D01*
X154632914Y-73538094D02*
X154537676Y-73490475D01*
X154537676Y-73490475D02*
X154442438Y-73395237D01*
X154442438Y-73395237D02*
X154394819Y-73252380D01*
X154394819Y-73252380D02*
X154394819Y-73157142D01*
X154394819Y-73157142D02*
X154442438Y-73014285D01*
X154442438Y-73014285D02*
X154490057Y-72966666D01*
X155394819Y-72490475D02*
X155394819Y-72299999D01*
X155394819Y-72299999D02*
X155347200Y-72204761D01*
X155347200Y-72204761D02*
X155299580Y-72157142D01*
X155299580Y-72157142D02*
X155156723Y-72061904D01*
X155156723Y-72061904D02*
X154966247Y-72014285D01*
X154966247Y-72014285D02*
X154585295Y-72014285D01*
X154585295Y-72014285D02*
X154490057Y-72061904D01*
X154490057Y-72061904D02*
X154442438Y-72109523D01*
X154442438Y-72109523D02*
X154394819Y-72204761D01*
X154394819Y-72204761D02*
X154394819Y-72395237D01*
X154394819Y-72395237D02*
X154442438Y-72490475D01*
X154442438Y-72490475D02*
X154490057Y-72538094D01*
X154490057Y-72538094D02*
X154585295Y-72585713D01*
X154585295Y-72585713D02*
X154823390Y-72585713D01*
X154823390Y-72585713D02*
X154918628Y-72538094D01*
X154918628Y-72538094D02*
X154966247Y-72490475D01*
X154966247Y-72490475D02*
X155013866Y-72395237D01*
X155013866Y-72395237D02*
X155013866Y-72204761D01*
X155013866Y-72204761D02*
X154966247Y-72109523D01*
X154966247Y-72109523D02*
X154918628Y-72061904D01*
X154918628Y-72061904D02*
X154823390Y-72014285D01*
X156283819Y-100655094D02*
X155283819Y-100655094D01*
X155283819Y-100655094D02*
X155283819Y-100416999D01*
X155283819Y-100416999D02*
X155331438Y-100274142D01*
X155331438Y-100274142D02*
X155426676Y-100178904D01*
X155426676Y-100178904D02*
X155521914Y-100131285D01*
X155521914Y-100131285D02*
X155712390Y-100083666D01*
X155712390Y-100083666D02*
X155855247Y-100083666D01*
X155855247Y-100083666D02*
X156045723Y-100131285D01*
X156045723Y-100131285D02*
X156140961Y-100178904D01*
X156140961Y-100178904D02*
X156236200Y-100274142D01*
X156236200Y-100274142D02*
X156283819Y-100416999D01*
X156283819Y-100416999D02*
X156283819Y-100655094D01*
X155379057Y-99702713D02*
X155331438Y-99655094D01*
X155331438Y-99655094D02*
X155283819Y-99559856D01*
X155283819Y-99559856D02*
X155283819Y-99321761D01*
X155283819Y-99321761D02*
X155331438Y-99226523D01*
X155331438Y-99226523D02*
X155379057Y-99178904D01*
X155379057Y-99178904D02*
X155474295Y-99131285D01*
X155474295Y-99131285D02*
X155569533Y-99131285D01*
X155569533Y-99131285D02*
X155712390Y-99178904D01*
X155712390Y-99178904D02*
X156283819Y-99750332D01*
X156283819Y-99750332D02*
X156283819Y-99131285D01*
X158601580Y-99956857D02*
X158649200Y-100004476D01*
X158649200Y-100004476D02*
X158696819Y-100147333D01*
X158696819Y-100147333D02*
X158696819Y-100242571D01*
X158696819Y-100242571D02*
X158649200Y-100385428D01*
X158649200Y-100385428D02*
X158553961Y-100480666D01*
X158553961Y-100480666D02*
X158458723Y-100528285D01*
X158458723Y-100528285D02*
X158268247Y-100575904D01*
X158268247Y-100575904D02*
X158125390Y-100575904D01*
X158125390Y-100575904D02*
X157934914Y-100528285D01*
X157934914Y-100528285D02*
X157839676Y-100480666D01*
X157839676Y-100480666D02*
X157744438Y-100385428D01*
X157744438Y-100385428D02*
X157696819Y-100242571D01*
X157696819Y-100242571D02*
X157696819Y-100147333D01*
X157696819Y-100147333D02*
X157744438Y-100004476D01*
X157744438Y-100004476D02*
X157792057Y-99956857D01*
X157792057Y-99575904D02*
X157744438Y-99528285D01*
X157744438Y-99528285D02*
X157696819Y-99433047D01*
X157696819Y-99433047D02*
X157696819Y-99194952D01*
X157696819Y-99194952D02*
X157744438Y-99099714D01*
X157744438Y-99099714D02*
X157792057Y-99052095D01*
X157792057Y-99052095D02*
X157887295Y-99004476D01*
X157887295Y-99004476D02*
X157982533Y-99004476D01*
X157982533Y-99004476D02*
X158125390Y-99052095D01*
X158125390Y-99052095D02*
X158696819Y-99623523D01*
X158696819Y-99623523D02*
X158696819Y-99004476D01*
X157696819Y-98385428D02*
X157696819Y-98290190D01*
X157696819Y-98290190D02*
X157744438Y-98194952D01*
X157744438Y-98194952D02*
X157792057Y-98147333D01*
X157792057Y-98147333D02*
X157887295Y-98099714D01*
X157887295Y-98099714D02*
X158077771Y-98052095D01*
X158077771Y-98052095D02*
X158315866Y-98052095D01*
X158315866Y-98052095D02*
X158506342Y-98099714D01*
X158506342Y-98099714D02*
X158601580Y-98147333D01*
X158601580Y-98147333D02*
X158649200Y-98194952D01*
X158649200Y-98194952D02*
X158696819Y-98290190D01*
X158696819Y-98290190D02*
X158696819Y-98385428D01*
X158696819Y-98385428D02*
X158649200Y-98480666D01*
X158649200Y-98480666D02*
X158601580Y-98528285D01*
X158601580Y-98528285D02*
X158506342Y-98575904D01*
X158506342Y-98575904D02*
X158315866Y-98623523D01*
X158315866Y-98623523D02*
X158077771Y-98623523D01*
X158077771Y-98623523D02*
X157887295Y-98575904D01*
X157887295Y-98575904D02*
X157792057Y-98528285D01*
X157792057Y-98528285D02*
X157744438Y-98480666D01*
X157744438Y-98480666D02*
X157696819Y-98385428D01*
X143138095Y-102949319D02*
X143138095Y-103758842D01*
X143138095Y-103758842D02*
X143185714Y-103854080D01*
X143185714Y-103854080D02*
X143233333Y-103901700D01*
X143233333Y-103901700D02*
X143328571Y-103949319D01*
X143328571Y-103949319D02*
X143519047Y-103949319D01*
X143519047Y-103949319D02*
X143614285Y-103901700D01*
X143614285Y-103901700D02*
X143661904Y-103854080D01*
X143661904Y-103854080D02*
X143709523Y-103758842D01*
X143709523Y-103758842D02*
X143709523Y-102949319D01*
X144614285Y-102949319D02*
X144423809Y-102949319D01*
X144423809Y-102949319D02*
X144328571Y-102996938D01*
X144328571Y-102996938D02*
X144280952Y-103044557D01*
X144280952Y-103044557D02*
X144185714Y-103187414D01*
X144185714Y-103187414D02*
X144138095Y-103377890D01*
X144138095Y-103377890D02*
X144138095Y-103758842D01*
X144138095Y-103758842D02*
X144185714Y-103854080D01*
X144185714Y-103854080D02*
X144233333Y-103901700D01*
X144233333Y-103901700D02*
X144328571Y-103949319D01*
X144328571Y-103949319D02*
X144519047Y-103949319D01*
X144519047Y-103949319D02*
X144614285Y-103901700D01*
X144614285Y-103901700D02*
X144661904Y-103854080D01*
X144661904Y-103854080D02*
X144709523Y-103758842D01*
X144709523Y-103758842D02*
X144709523Y-103520747D01*
X144709523Y-103520747D02*
X144661904Y-103425509D01*
X144661904Y-103425509D02*
X144614285Y-103377890D01*
X144614285Y-103377890D02*
X144519047Y-103330271D01*
X144519047Y-103330271D02*
X144328571Y-103330271D01*
X144328571Y-103330271D02*
X144233333Y-103377890D01*
X144233333Y-103377890D02*
X144185714Y-103425509D01*
X144185714Y-103425509D02*
X144138095Y-103520747D01*
X157142905Y-102549819D02*
X157142905Y-101549819D01*
X157142905Y-101549819D02*
X157381000Y-101549819D01*
X157381000Y-101549819D02*
X157523857Y-101597438D01*
X157523857Y-101597438D02*
X157619095Y-101692676D01*
X157619095Y-101692676D02*
X157666714Y-101787914D01*
X157666714Y-101787914D02*
X157714333Y-101978390D01*
X157714333Y-101978390D02*
X157714333Y-102121247D01*
X157714333Y-102121247D02*
X157666714Y-102311723D01*
X157666714Y-102311723D02*
X157619095Y-102406961D01*
X157619095Y-102406961D02*
X157523857Y-102502200D01*
X157523857Y-102502200D02*
X157381000Y-102549819D01*
X157381000Y-102549819D02*
X157142905Y-102549819D01*
X158571476Y-101883152D02*
X158571476Y-102549819D01*
X158333381Y-101502200D02*
X158095286Y-102216485D01*
X158095286Y-102216485D02*
X158714333Y-102216485D01*
D11*
X180220885Y-82160856D02*
X179920885Y-82160856D01*
X179920885Y-82160856D02*
X179920885Y-82046570D01*
X179920885Y-82046570D02*
X179935171Y-82017999D01*
X179935171Y-82017999D02*
X179949457Y-82003713D01*
X179949457Y-82003713D02*
X179978028Y-81989427D01*
X179978028Y-81989427D02*
X180020885Y-81989427D01*
X180020885Y-81989427D02*
X180049457Y-82003713D01*
X180049457Y-82003713D02*
X180063742Y-82017999D01*
X180063742Y-82017999D02*
X180078028Y-82046570D01*
X180078028Y-82046570D02*
X180078028Y-82160856D01*
X180135171Y-81875142D02*
X180135171Y-81732285D01*
X180220885Y-81903713D02*
X179920885Y-81803713D01*
X179920885Y-81803713D02*
X180220885Y-81703713D01*
X179949457Y-81617999D02*
X179935171Y-81603713D01*
X179935171Y-81603713D02*
X179920885Y-81575142D01*
X179920885Y-81575142D02*
X179920885Y-81503713D01*
X179920885Y-81503713D02*
X179935171Y-81475142D01*
X179935171Y-81475142D02*
X179949457Y-81460856D01*
X179949457Y-81460856D02*
X179978028Y-81446570D01*
X179978028Y-81446570D02*
X180006600Y-81446570D01*
X180006600Y-81446570D02*
X180049457Y-81460856D01*
X180049457Y-81460856D02*
X180220885Y-81632284D01*
X180220885Y-81632284D02*
X180220885Y-81446570D01*
X179906600Y-81103713D02*
X180292314Y-81360856D01*
X180220885Y-81003713D02*
X179920885Y-81003713D01*
X179920885Y-81003713D02*
X180135171Y-80903713D01*
X180135171Y-80903713D02*
X179920885Y-80803713D01*
X179920885Y-80803713D02*
X180220885Y-80803713D01*
X180220885Y-80660856D02*
X179920885Y-80660856D01*
X180206600Y-80532285D02*
X180220885Y-80489428D01*
X180220885Y-80489428D02*
X180220885Y-80417999D01*
X180220885Y-80417999D02*
X180206600Y-80389428D01*
X180206600Y-80389428D02*
X180192314Y-80375142D01*
X180192314Y-80375142D02*
X180163742Y-80360856D01*
X180163742Y-80360856D02*
X180135171Y-80360856D01*
X180135171Y-80360856D02*
X180106600Y-80375142D01*
X180106600Y-80375142D02*
X180092314Y-80389428D01*
X180092314Y-80389428D02*
X180078028Y-80417999D01*
X180078028Y-80417999D02*
X180063742Y-80475142D01*
X180063742Y-80475142D02*
X180049457Y-80503713D01*
X180049457Y-80503713D02*
X180035171Y-80517999D01*
X180035171Y-80517999D02*
X180006600Y-80532285D01*
X180006600Y-80532285D02*
X179978028Y-80532285D01*
X179978028Y-80532285D02*
X179949457Y-80517999D01*
X179949457Y-80517999D02*
X179935171Y-80503713D01*
X179935171Y-80503713D02*
X179920885Y-80475142D01*
X179920885Y-80475142D02*
X179920885Y-80403713D01*
X179920885Y-80403713D02*
X179935171Y-80360856D01*
X179920885Y-80175142D02*
X179920885Y-80117999D01*
X179920885Y-80117999D02*
X179935171Y-80089428D01*
X179935171Y-80089428D02*
X179963742Y-80060856D01*
X179963742Y-80060856D02*
X180020885Y-80046571D01*
X180020885Y-80046571D02*
X180120885Y-80046571D01*
X180120885Y-80046571D02*
X180178028Y-80060856D01*
X180178028Y-80060856D02*
X180206600Y-80089428D01*
X180206600Y-80089428D02*
X180220885Y-80117999D01*
X180220885Y-80117999D02*
X180220885Y-80175142D01*
X180220885Y-80175142D02*
X180206600Y-80203714D01*
X180206600Y-80203714D02*
X180178028Y-80232285D01*
X180178028Y-80232285D02*
X180120885Y-80246571D01*
X180120885Y-80246571D02*
X180020885Y-80246571D01*
X180020885Y-80246571D02*
X179963742Y-80232285D01*
X179963742Y-80232285D02*
X179935171Y-80203714D01*
X179935171Y-80203714D02*
X179920885Y-80175142D01*
X179906600Y-79703713D02*
X180292314Y-79960856D01*
X180220885Y-79603713D02*
X179920885Y-79603713D01*
X179920885Y-79603713D02*
X179920885Y-79489427D01*
X179920885Y-79489427D02*
X179935171Y-79460856D01*
X179935171Y-79460856D02*
X179949457Y-79446570D01*
X179949457Y-79446570D02*
X179978028Y-79432284D01*
X179978028Y-79432284D02*
X180020885Y-79432284D01*
X180020885Y-79432284D02*
X180049457Y-79446570D01*
X180049457Y-79446570D02*
X180063742Y-79460856D01*
X180063742Y-79460856D02*
X180078028Y-79489427D01*
X180078028Y-79489427D02*
X180078028Y-79603713D01*
X179920885Y-79332284D02*
X179920885Y-79132284D01*
X179920885Y-79132284D02*
X180220885Y-79260856D01*
X180220885Y-78860856D02*
X180220885Y-79032285D01*
X180220885Y-78946570D02*
X179920885Y-78946570D01*
X179920885Y-78946570D02*
X179963742Y-78975142D01*
X179963742Y-78975142D02*
X179992314Y-79003713D01*
X179992314Y-79003713D02*
X180006600Y-79032285D01*
X158483428Y-80652885D02*
X158483428Y-80352885D01*
X158483428Y-80352885D02*
X158597714Y-80352885D01*
X158597714Y-80352885D02*
X158626285Y-80367171D01*
X158626285Y-80367171D02*
X158640571Y-80381457D01*
X158640571Y-80381457D02*
X158654857Y-80410028D01*
X158654857Y-80410028D02*
X158654857Y-80452885D01*
X158654857Y-80452885D02*
X158640571Y-80481457D01*
X158640571Y-80481457D02*
X158626285Y-80495742D01*
X158626285Y-80495742D02*
X158597714Y-80510028D01*
X158597714Y-80510028D02*
X158483428Y-80510028D01*
X158769142Y-80567171D02*
X158912000Y-80567171D01*
X158740571Y-80652885D02*
X158840571Y-80352885D01*
X158840571Y-80352885D02*
X158940571Y-80652885D01*
X159012000Y-80352885D02*
X159212000Y-80352885D01*
X159212000Y-80352885D02*
X159083428Y-80652885D01*
X159540571Y-80338600D02*
X159283428Y-80724314D01*
X159640571Y-80652885D02*
X159640571Y-80352885D01*
X159954857Y-80652885D02*
X159854857Y-80510028D01*
X159783428Y-80652885D02*
X159783428Y-80352885D01*
X159783428Y-80352885D02*
X159897714Y-80352885D01*
X159897714Y-80352885D02*
X159926285Y-80367171D01*
X159926285Y-80367171D02*
X159940571Y-80381457D01*
X159940571Y-80381457D02*
X159954857Y-80410028D01*
X159954857Y-80410028D02*
X159954857Y-80452885D01*
X159954857Y-80452885D02*
X159940571Y-80481457D01*
X159940571Y-80481457D02*
X159926285Y-80495742D01*
X159926285Y-80495742D02*
X159897714Y-80510028D01*
X159897714Y-80510028D02*
X159783428Y-80510028D01*
X160283428Y-80681457D02*
X160254857Y-80667171D01*
X160254857Y-80667171D02*
X160226285Y-80638600D01*
X160226285Y-80638600D02*
X160183428Y-80595742D01*
X160183428Y-80595742D02*
X160154857Y-80581457D01*
X160154857Y-80581457D02*
X160126285Y-80581457D01*
X160140571Y-80652885D02*
X160112000Y-80638600D01*
X160112000Y-80638600D02*
X160083428Y-80610028D01*
X160083428Y-80610028D02*
X160069142Y-80552885D01*
X160069142Y-80552885D02*
X160069142Y-80452885D01*
X160069142Y-80452885D02*
X160083428Y-80395742D01*
X160083428Y-80395742D02*
X160112000Y-80367171D01*
X160112000Y-80367171D02*
X160140571Y-80352885D01*
X160140571Y-80352885D02*
X160197714Y-80352885D01*
X160197714Y-80352885D02*
X160226285Y-80367171D01*
X160226285Y-80367171D02*
X160254857Y-80395742D01*
X160254857Y-80395742D02*
X160269142Y-80452885D01*
X160269142Y-80452885D02*
X160269142Y-80552885D01*
X160269142Y-80552885D02*
X160254857Y-80610028D01*
X160254857Y-80610028D02*
X160226285Y-80638600D01*
X160226285Y-80638600D02*
X160197714Y-80652885D01*
X160197714Y-80652885D02*
X160140571Y-80652885D01*
X160554857Y-80652885D02*
X160383428Y-80652885D01*
X160469143Y-80652885D02*
X160469143Y-80352885D01*
X160469143Y-80352885D02*
X160440571Y-80395742D01*
X160440571Y-80395742D02*
X160412000Y-80424314D01*
X160412000Y-80424314D02*
X160383428Y-80438600D01*
X166773429Y-83446885D02*
X166773429Y-83146885D01*
X166773429Y-83146885D02*
X166887715Y-83146885D01*
X166887715Y-83146885D02*
X166916286Y-83161171D01*
X166916286Y-83161171D02*
X166930572Y-83175457D01*
X166930572Y-83175457D02*
X166944858Y-83204028D01*
X166944858Y-83204028D02*
X166944858Y-83246885D01*
X166944858Y-83246885D02*
X166930572Y-83275457D01*
X166930572Y-83275457D02*
X166916286Y-83289742D01*
X166916286Y-83289742D02*
X166887715Y-83304028D01*
X166887715Y-83304028D02*
X166773429Y-83304028D01*
X167059143Y-83361171D02*
X167202001Y-83361171D01*
X167030572Y-83446885D02*
X167130572Y-83146885D01*
X167130572Y-83146885D02*
X167230572Y-83446885D01*
X167473429Y-83146885D02*
X167330572Y-83146885D01*
X167330572Y-83146885D02*
X167316286Y-83289742D01*
X167316286Y-83289742D02*
X167330572Y-83275457D01*
X167330572Y-83275457D02*
X167359144Y-83261171D01*
X167359144Y-83261171D02*
X167430572Y-83261171D01*
X167430572Y-83261171D02*
X167459144Y-83275457D01*
X167459144Y-83275457D02*
X167473429Y-83289742D01*
X167473429Y-83289742D02*
X167487715Y-83318314D01*
X167487715Y-83318314D02*
X167487715Y-83389742D01*
X167487715Y-83389742D02*
X167473429Y-83418314D01*
X167473429Y-83418314D02*
X167459144Y-83432600D01*
X167459144Y-83432600D02*
X167430572Y-83446885D01*
X167430572Y-83446885D02*
X167359144Y-83446885D01*
X167359144Y-83446885D02*
X167330572Y-83432600D01*
X167330572Y-83432600D02*
X167316286Y-83418314D01*
X167830572Y-83132600D02*
X167573429Y-83518314D01*
X168102001Y-83446885D02*
X168002001Y-83304028D01*
X167930572Y-83446885D02*
X167930572Y-83146885D01*
X167930572Y-83146885D02*
X168044858Y-83146885D01*
X168044858Y-83146885D02*
X168073429Y-83161171D01*
X168073429Y-83161171D02*
X168087715Y-83175457D01*
X168087715Y-83175457D02*
X168102001Y-83204028D01*
X168102001Y-83204028D02*
X168102001Y-83246885D01*
X168102001Y-83246885D02*
X168087715Y-83275457D01*
X168087715Y-83275457D02*
X168073429Y-83289742D01*
X168073429Y-83289742D02*
X168044858Y-83304028D01*
X168044858Y-83304028D02*
X167930572Y-83304028D01*
X168216286Y-83432600D02*
X168259144Y-83446885D01*
X168259144Y-83446885D02*
X168330572Y-83446885D01*
X168330572Y-83446885D02*
X168359144Y-83432600D01*
X168359144Y-83432600D02*
X168373429Y-83418314D01*
X168373429Y-83418314D02*
X168387715Y-83389742D01*
X168387715Y-83389742D02*
X168387715Y-83361171D01*
X168387715Y-83361171D02*
X168373429Y-83332600D01*
X168373429Y-83332600D02*
X168359144Y-83318314D01*
X168359144Y-83318314D02*
X168330572Y-83304028D01*
X168330572Y-83304028D02*
X168273429Y-83289742D01*
X168273429Y-83289742D02*
X168244858Y-83275457D01*
X168244858Y-83275457D02*
X168230572Y-83261171D01*
X168230572Y-83261171D02*
X168216286Y-83232600D01*
X168216286Y-83232600D02*
X168216286Y-83204028D01*
X168216286Y-83204028D02*
X168230572Y-83175457D01*
X168230572Y-83175457D02*
X168244858Y-83161171D01*
X168244858Y-83161171D02*
X168273429Y-83146885D01*
X168273429Y-83146885D02*
X168344858Y-83146885D01*
X168344858Y-83146885D02*
X168387715Y-83161171D01*
X168473429Y-83146885D02*
X168644858Y-83146885D01*
X168559143Y-83446885D02*
X168559143Y-83146885D01*
X168744857Y-83446885D02*
X168744857Y-83146885D01*
X168744857Y-83146885D02*
X168859143Y-83146885D01*
X168859143Y-83146885D02*
X168887714Y-83161171D01*
X168887714Y-83161171D02*
X168902000Y-83175457D01*
X168902000Y-83175457D02*
X168916286Y-83204028D01*
X168916286Y-83204028D02*
X168916286Y-83246885D01*
X168916286Y-83246885D02*
X168902000Y-83275457D01*
X168902000Y-83275457D02*
X168887714Y-83289742D01*
X168887714Y-83289742D02*
X168859143Y-83304028D01*
X168859143Y-83304028D02*
X168744857Y-83304028D01*
X169044857Y-83446885D02*
X169044857Y-83146885D01*
X169044857Y-83146885D02*
X169116286Y-83146885D01*
X169116286Y-83146885D02*
X169159143Y-83161171D01*
X169159143Y-83161171D02*
X169187714Y-83189742D01*
X169187714Y-83189742D02*
X169202000Y-83218314D01*
X169202000Y-83218314D02*
X169216286Y-83275457D01*
X169216286Y-83275457D02*
X169216286Y-83318314D01*
X169216286Y-83318314D02*
X169202000Y-83375457D01*
X169202000Y-83375457D02*
X169187714Y-83404028D01*
X169187714Y-83404028D02*
X169159143Y-83432600D01*
X169159143Y-83432600D02*
X169116286Y-83446885D01*
X169116286Y-83446885D02*
X169044857Y-83446885D01*
X169273429Y-83475457D02*
X169502000Y-83475457D01*
X169573428Y-83446885D02*
X169573428Y-83146885D01*
X169573428Y-83146885D02*
X169744857Y-83446885D01*
X169744857Y-83446885D02*
X169744857Y-83146885D01*
X170044857Y-83446885D02*
X169873428Y-83446885D01*
X169959143Y-83446885D02*
X169959143Y-83146885D01*
X169959143Y-83146885D02*
X169930571Y-83189742D01*
X169930571Y-83189742D02*
X169902000Y-83218314D01*
X169902000Y-83218314D02*
X169873428Y-83232600D01*
X182760885Y-82314856D02*
X182460885Y-82314856D01*
X182460885Y-82314856D02*
X182460885Y-82200570D01*
X182460885Y-82200570D02*
X182475171Y-82171999D01*
X182475171Y-82171999D02*
X182489457Y-82157713D01*
X182489457Y-82157713D02*
X182518028Y-82143427D01*
X182518028Y-82143427D02*
X182560885Y-82143427D01*
X182560885Y-82143427D02*
X182589457Y-82157713D01*
X182589457Y-82157713D02*
X182603742Y-82171999D01*
X182603742Y-82171999D02*
X182618028Y-82200570D01*
X182618028Y-82200570D02*
X182618028Y-82314856D01*
X182675171Y-82029142D02*
X182675171Y-81886285D01*
X182760885Y-82057713D02*
X182460885Y-81957713D01*
X182460885Y-81957713D02*
X182760885Y-81857713D01*
X182460885Y-81786284D02*
X182460885Y-81600570D01*
X182460885Y-81600570D02*
X182575171Y-81700570D01*
X182575171Y-81700570D02*
X182575171Y-81657713D01*
X182575171Y-81657713D02*
X182589457Y-81629142D01*
X182589457Y-81629142D02*
X182603742Y-81614856D01*
X182603742Y-81614856D02*
X182632314Y-81600570D01*
X182632314Y-81600570D02*
X182703742Y-81600570D01*
X182703742Y-81600570D02*
X182732314Y-81614856D01*
X182732314Y-81614856D02*
X182746600Y-81629142D01*
X182746600Y-81629142D02*
X182760885Y-81657713D01*
X182760885Y-81657713D02*
X182760885Y-81743427D01*
X182760885Y-81743427D02*
X182746600Y-81771999D01*
X182746600Y-81771999D02*
X182732314Y-81786284D01*
X182446600Y-81257713D02*
X182832314Y-81514856D01*
X182746600Y-81171999D02*
X182760885Y-81129142D01*
X182760885Y-81129142D02*
X182760885Y-81057713D01*
X182760885Y-81057713D02*
X182746600Y-81029142D01*
X182746600Y-81029142D02*
X182732314Y-81014856D01*
X182732314Y-81014856D02*
X182703742Y-81000570D01*
X182703742Y-81000570D02*
X182675171Y-81000570D01*
X182675171Y-81000570D02*
X182646600Y-81014856D01*
X182646600Y-81014856D02*
X182632314Y-81029142D01*
X182632314Y-81029142D02*
X182618028Y-81057713D01*
X182618028Y-81057713D02*
X182603742Y-81114856D01*
X182603742Y-81114856D02*
X182589457Y-81143427D01*
X182589457Y-81143427D02*
X182575171Y-81157713D01*
X182575171Y-81157713D02*
X182546600Y-81171999D01*
X182546600Y-81171999D02*
X182518028Y-81171999D01*
X182518028Y-81171999D02*
X182489457Y-81157713D01*
X182489457Y-81157713D02*
X182475171Y-81143427D01*
X182475171Y-81143427D02*
X182460885Y-81114856D01*
X182460885Y-81114856D02*
X182460885Y-81043427D01*
X182460885Y-81043427D02*
X182475171Y-81000570D01*
X182732314Y-80700570D02*
X182746600Y-80714856D01*
X182746600Y-80714856D02*
X182760885Y-80757713D01*
X182760885Y-80757713D02*
X182760885Y-80786285D01*
X182760885Y-80786285D02*
X182746600Y-80829142D01*
X182746600Y-80829142D02*
X182718028Y-80857713D01*
X182718028Y-80857713D02*
X182689457Y-80871999D01*
X182689457Y-80871999D02*
X182632314Y-80886285D01*
X182632314Y-80886285D02*
X182589457Y-80886285D01*
X182589457Y-80886285D02*
X182532314Y-80871999D01*
X182532314Y-80871999D02*
X182503742Y-80857713D01*
X182503742Y-80857713D02*
X182475171Y-80829142D01*
X182475171Y-80829142D02*
X182460885Y-80786285D01*
X182460885Y-80786285D02*
X182460885Y-80757713D01*
X182460885Y-80757713D02*
X182475171Y-80714856D01*
X182475171Y-80714856D02*
X182489457Y-80700570D01*
X182760885Y-80571999D02*
X182460885Y-80571999D01*
X182760885Y-80400570D02*
X182589457Y-80529142D01*
X182460885Y-80400570D02*
X182632314Y-80571999D01*
X182446600Y-80057713D02*
X182832314Y-80314856D01*
X182760885Y-79957713D02*
X182460885Y-79957713D01*
X182460885Y-79957713D02*
X182460885Y-79843427D01*
X182460885Y-79843427D02*
X182475171Y-79814856D01*
X182475171Y-79814856D02*
X182489457Y-79800570D01*
X182489457Y-79800570D02*
X182518028Y-79786284D01*
X182518028Y-79786284D02*
X182560885Y-79786284D01*
X182560885Y-79786284D02*
X182589457Y-79800570D01*
X182589457Y-79800570D02*
X182603742Y-79814856D01*
X182603742Y-79814856D02*
X182618028Y-79843427D01*
X182618028Y-79843427D02*
X182618028Y-79957713D01*
X182460885Y-79686284D02*
X182460885Y-79486284D01*
X182460885Y-79486284D02*
X182760885Y-79614856D01*
X182489457Y-79386285D02*
X182475171Y-79371999D01*
X182475171Y-79371999D02*
X182460885Y-79343428D01*
X182460885Y-79343428D02*
X182460885Y-79271999D01*
X182460885Y-79271999D02*
X182475171Y-79243428D01*
X182475171Y-79243428D02*
X182489457Y-79229142D01*
X182489457Y-79229142D02*
X182518028Y-79214856D01*
X182518028Y-79214856D02*
X182546600Y-79214856D01*
X182546600Y-79214856D02*
X182589457Y-79229142D01*
X182589457Y-79229142D02*
X182760885Y-79400570D01*
X182760885Y-79400570D02*
X182760885Y-79214856D01*
D10*
X160354819Y-62774857D02*
X159878628Y-63108190D01*
X160354819Y-63346285D02*
X159354819Y-63346285D01*
X159354819Y-63346285D02*
X159354819Y-62965333D01*
X159354819Y-62965333D02*
X159402438Y-62870095D01*
X159402438Y-62870095D02*
X159450057Y-62822476D01*
X159450057Y-62822476D02*
X159545295Y-62774857D01*
X159545295Y-62774857D02*
X159688152Y-62774857D01*
X159688152Y-62774857D02*
X159783390Y-62822476D01*
X159783390Y-62822476D02*
X159831009Y-62870095D01*
X159831009Y-62870095D02*
X159878628Y-62965333D01*
X159878628Y-62965333D02*
X159878628Y-63346285D01*
X160354819Y-61822476D02*
X160354819Y-62393904D01*
X160354819Y-62108190D02*
X159354819Y-62108190D01*
X159354819Y-62108190D02*
X159497676Y-62203428D01*
X159497676Y-62203428D02*
X159592914Y-62298666D01*
X159592914Y-62298666D02*
X159640533Y-62393904D01*
X159354819Y-61203428D02*
X159354819Y-61108190D01*
X159354819Y-61108190D02*
X159402438Y-61012952D01*
X159402438Y-61012952D02*
X159450057Y-60965333D01*
X159450057Y-60965333D02*
X159545295Y-60917714D01*
X159545295Y-60917714D02*
X159735771Y-60870095D01*
X159735771Y-60870095D02*
X159973866Y-60870095D01*
X159973866Y-60870095D02*
X160164342Y-60917714D01*
X160164342Y-60917714D02*
X160259580Y-60965333D01*
X160259580Y-60965333D02*
X160307200Y-61012952D01*
X160307200Y-61012952D02*
X160354819Y-61108190D01*
X160354819Y-61108190D02*
X160354819Y-61203428D01*
X160354819Y-61203428D02*
X160307200Y-61298666D01*
X160307200Y-61298666D02*
X160259580Y-61346285D01*
X160259580Y-61346285D02*
X160164342Y-61393904D01*
X160164342Y-61393904D02*
X159973866Y-61441523D01*
X159973866Y-61441523D02*
X159735771Y-61441523D01*
X159735771Y-61441523D02*
X159545295Y-61393904D01*
X159545295Y-61393904D02*
X159450057Y-61346285D01*
X159450057Y-61346285D02*
X159402438Y-61298666D01*
X159402438Y-61298666D02*
X159354819Y-61203428D01*
X194166666Y-66304819D02*
X194166666Y-67019104D01*
X194166666Y-67019104D02*
X194119047Y-67161961D01*
X194119047Y-67161961D02*
X194023809Y-67257200D01*
X194023809Y-67257200D02*
X193880952Y-67304819D01*
X193880952Y-67304819D02*
X193785714Y-67304819D01*
X195071428Y-66638152D02*
X195071428Y-67304819D01*
X194833333Y-66257200D02*
X194595238Y-66971485D01*
X194595238Y-66971485D02*
X195214285Y-66971485D01*
D11*
X164192286Y-84970885D02*
X164192286Y-84670885D01*
X164192286Y-84670885D02*
X164306572Y-84670885D01*
X164306572Y-84670885D02*
X164335143Y-84685171D01*
X164335143Y-84685171D02*
X164349429Y-84699457D01*
X164349429Y-84699457D02*
X164363715Y-84728028D01*
X164363715Y-84728028D02*
X164363715Y-84770885D01*
X164363715Y-84770885D02*
X164349429Y-84799457D01*
X164349429Y-84799457D02*
X164335143Y-84813742D01*
X164335143Y-84813742D02*
X164306572Y-84828028D01*
X164306572Y-84828028D02*
X164192286Y-84828028D01*
X164478000Y-84885171D02*
X164620858Y-84885171D01*
X164449429Y-84970885D02*
X164549429Y-84670885D01*
X164549429Y-84670885D02*
X164649429Y-84970885D01*
X164878001Y-84770885D02*
X164878001Y-84970885D01*
X164806572Y-84656600D02*
X164735143Y-84870885D01*
X164735143Y-84870885D02*
X164920858Y-84870885D01*
X165249429Y-84656600D02*
X164992286Y-85042314D01*
X165349429Y-84970885D02*
X165349429Y-84670885D01*
X165349429Y-84670885D02*
X165520858Y-84970885D01*
X165520858Y-84970885D02*
X165520858Y-84670885D01*
X165649429Y-84956600D02*
X165692287Y-84970885D01*
X165692287Y-84970885D02*
X165763715Y-84970885D01*
X165763715Y-84970885D02*
X165792287Y-84956600D01*
X165792287Y-84956600D02*
X165806572Y-84942314D01*
X165806572Y-84942314D02*
X165820858Y-84913742D01*
X165820858Y-84913742D02*
X165820858Y-84885171D01*
X165820858Y-84885171D02*
X165806572Y-84856600D01*
X165806572Y-84856600D02*
X165792287Y-84842314D01*
X165792287Y-84842314D02*
X165763715Y-84828028D01*
X165763715Y-84828028D02*
X165706572Y-84813742D01*
X165706572Y-84813742D02*
X165678001Y-84799457D01*
X165678001Y-84799457D02*
X165663715Y-84785171D01*
X165663715Y-84785171D02*
X165649429Y-84756600D01*
X165649429Y-84756600D02*
X165649429Y-84728028D01*
X165649429Y-84728028D02*
X165663715Y-84699457D01*
X165663715Y-84699457D02*
X165678001Y-84685171D01*
X165678001Y-84685171D02*
X165706572Y-84670885D01*
X165706572Y-84670885D02*
X165778001Y-84670885D01*
X165778001Y-84670885D02*
X165820858Y-84685171D01*
X165935143Y-84956600D02*
X165978001Y-84970885D01*
X165978001Y-84970885D02*
X166049429Y-84970885D01*
X166049429Y-84970885D02*
X166078001Y-84956600D01*
X166078001Y-84956600D02*
X166092286Y-84942314D01*
X166092286Y-84942314D02*
X166106572Y-84913742D01*
X166106572Y-84913742D02*
X166106572Y-84885171D01*
X166106572Y-84885171D02*
X166092286Y-84856600D01*
X166092286Y-84856600D02*
X166078001Y-84842314D01*
X166078001Y-84842314D02*
X166049429Y-84828028D01*
X166049429Y-84828028D02*
X165992286Y-84813742D01*
X165992286Y-84813742D02*
X165963715Y-84799457D01*
X165963715Y-84799457D02*
X165949429Y-84785171D01*
X165949429Y-84785171D02*
X165935143Y-84756600D01*
X165935143Y-84756600D02*
X165935143Y-84728028D01*
X165935143Y-84728028D02*
X165949429Y-84699457D01*
X165949429Y-84699457D02*
X165963715Y-84685171D01*
X165963715Y-84685171D02*
X165992286Y-84670885D01*
X165992286Y-84670885D02*
X166063715Y-84670885D01*
X166063715Y-84670885D02*
X166106572Y-84685171D01*
X166449429Y-84656600D02*
X166192286Y-85042314D01*
X166535143Y-84956600D02*
X166578001Y-84970885D01*
X166578001Y-84970885D02*
X166649429Y-84970885D01*
X166649429Y-84970885D02*
X166678001Y-84956600D01*
X166678001Y-84956600D02*
X166692286Y-84942314D01*
X166692286Y-84942314D02*
X166706572Y-84913742D01*
X166706572Y-84913742D02*
X166706572Y-84885171D01*
X166706572Y-84885171D02*
X166692286Y-84856600D01*
X166692286Y-84856600D02*
X166678001Y-84842314D01*
X166678001Y-84842314D02*
X166649429Y-84828028D01*
X166649429Y-84828028D02*
X166592286Y-84813742D01*
X166592286Y-84813742D02*
X166563715Y-84799457D01*
X166563715Y-84799457D02*
X166549429Y-84785171D01*
X166549429Y-84785171D02*
X166535143Y-84756600D01*
X166535143Y-84756600D02*
X166535143Y-84728028D01*
X166535143Y-84728028D02*
X166549429Y-84699457D01*
X166549429Y-84699457D02*
X166563715Y-84685171D01*
X166563715Y-84685171D02*
X166592286Y-84670885D01*
X166592286Y-84670885D02*
X166663715Y-84670885D01*
X166663715Y-84670885D02*
X166706572Y-84685171D01*
X167006572Y-84942314D02*
X166992286Y-84956600D01*
X166992286Y-84956600D02*
X166949429Y-84970885D01*
X166949429Y-84970885D02*
X166920857Y-84970885D01*
X166920857Y-84970885D02*
X166878000Y-84956600D01*
X166878000Y-84956600D02*
X166849429Y-84928028D01*
X166849429Y-84928028D02*
X166835143Y-84899457D01*
X166835143Y-84899457D02*
X166820857Y-84842314D01*
X166820857Y-84842314D02*
X166820857Y-84799457D01*
X166820857Y-84799457D02*
X166835143Y-84742314D01*
X166835143Y-84742314D02*
X166849429Y-84713742D01*
X166849429Y-84713742D02*
X166878000Y-84685171D01*
X166878000Y-84685171D02*
X166920857Y-84670885D01*
X166920857Y-84670885D02*
X166949429Y-84670885D01*
X166949429Y-84670885D02*
X166992286Y-84685171D01*
X166992286Y-84685171D02*
X167006572Y-84699457D01*
X167278000Y-84970885D02*
X167135143Y-84970885D01*
X167135143Y-84970885D02*
X167135143Y-84670885D01*
X167592286Y-84656600D02*
X167335143Y-85042314D01*
X167692286Y-84970885D02*
X167692286Y-84670885D01*
X167692286Y-84813742D02*
X167863715Y-84813742D01*
X167863715Y-84970885D02*
X167863715Y-84670885D01*
X167992286Y-84956600D02*
X168035144Y-84970885D01*
X168035144Y-84970885D02*
X168106572Y-84970885D01*
X168106572Y-84970885D02*
X168135144Y-84956600D01*
X168135144Y-84956600D02*
X168149429Y-84942314D01*
X168149429Y-84942314D02*
X168163715Y-84913742D01*
X168163715Y-84913742D02*
X168163715Y-84885171D01*
X168163715Y-84885171D02*
X168149429Y-84856600D01*
X168149429Y-84856600D02*
X168135144Y-84842314D01*
X168135144Y-84842314D02*
X168106572Y-84828028D01*
X168106572Y-84828028D02*
X168049429Y-84813742D01*
X168049429Y-84813742D02*
X168020858Y-84799457D01*
X168020858Y-84799457D02*
X168006572Y-84785171D01*
X168006572Y-84785171D02*
X167992286Y-84756600D01*
X167992286Y-84756600D02*
X167992286Y-84728028D01*
X167992286Y-84728028D02*
X168006572Y-84699457D01*
X168006572Y-84699457D02*
X168020858Y-84685171D01*
X168020858Y-84685171D02*
X168049429Y-84670885D01*
X168049429Y-84670885D02*
X168120858Y-84670885D01*
X168120858Y-84670885D02*
X168163715Y-84685171D01*
X168292286Y-84670885D02*
X168292286Y-84913742D01*
X168292286Y-84913742D02*
X168306572Y-84942314D01*
X168306572Y-84942314D02*
X168320858Y-84956600D01*
X168320858Y-84956600D02*
X168349429Y-84970885D01*
X168349429Y-84970885D02*
X168406572Y-84970885D01*
X168406572Y-84970885D02*
X168435143Y-84956600D01*
X168435143Y-84956600D02*
X168449429Y-84942314D01*
X168449429Y-84942314D02*
X168463715Y-84913742D01*
X168463715Y-84913742D02*
X168463715Y-84670885D01*
X168535144Y-84999457D02*
X168763715Y-84999457D01*
X169006572Y-84970885D02*
X168906572Y-84828028D01*
X168835143Y-84970885D02*
X168835143Y-84670885D01*
X168835143Y-84670885D02*
X168949429Y-84670885D01*
X168949429Y-84670885D02*
X168978000Y-84685171D01*
X168978000Y-84685171D02*
X168992286Y-84699457D01*
X168992286Y-84699457D02*
X169006572Y-84728028D01*
X169006572Y-84728028D02*
X169006572Y-84770885D01*
X169006572Y-84770885D02*
X168992286Y-84799457D01*
X168992286Y-84799457D02*
X168978000Y-84813742D01*
X168978000Y-84813742D02*
X168949429Y-84828028D01*
X168949429Y-84828028D02*
X168835143Y-84828028D01*
X169106572Y-84670885D02*
X169306572Y-84970885D01*
X169306572Y-84670885D02*
X169106572Y-84970885D01*
X169578000Y-84970885D02*
X169406571Y-84970885D01*
X169492286Y-84970885D02*
X169492286Y-84670885D01*
X169492286Y-84670885D02*
X169463714Y-84713742D01*
X169463714Y-84713742D02*
X169435143Y-84742314D01*
X169435143Y-84742314D02*
X169406571Y-84756600D01*
D10*
X154537580Y-68238666D02*
X154585200Y-68286285D01*
X154585200Y-68286285D02*
X154632819Y-68429142D01*
X154632819Y-68429142D02*
X154632819Y-68524380D01*
X154632819Y-68524380D02*
X154585200Y-68667237D01*
X154585200Y-68667237D02*
X154489961Y-68762475D01*
X154489961Y-68762475D02*
X154394723Y-68810094D01*
X154394723Y-68810094D02*
X154204247Y-68857713D01*
X154204247Y-68857713D02*
X154061390Y-68857713D01*
X154061390Y-68857713D02*
X153870914Y-68810094D01*
X153870914Y-68810094D02*
X153775676Y-68762475D01*
X153775676Y-68762475D02*
X153680438Y-68667237D01*
X153680438Y-68667237D02*
X153632819Y-68524380D01*
X153632819Y-68524380D02*
X153632819Y-68429142D01*
X153632819Y-68429142D02*
X153680438Y-68286285D01*
X153680438Y-68286285D02*
X153728057Y-68238666D01*
X153632819Y-67905332D02*
X153632819Y-67238666D01*
X153632819Y-67238666D02*
X154632819Y-67667237D01*
X161366666Y-102854819D02*
X161366666Y-103569104D01*
X161366666Y-103569104D02*
X161319047Y-103711961D01*
X161319047Y-103711961D02*
X161223809Y-103807200D01*
X161223809Y-103807200D02*
X161080952Y-103854819D01*
X161080952Y-103854819D02*
X160985714Y-103854819D01*
X161890476Y-103854819D02*
X162080952Y-103854819D01*
X162080952Y-103854819D02*
X162176190Y-103807200D01*
X162176190Y-103807200D02*
X162223809Y-103759580D01*
X162223809Y-103759580D02*
X162319047Y-103616723D01*
X162319047Y-103616723D02*
X162366666Y-103426247D01*
X162366666Y-103426247D02*
X162366666Y-103045295D01*
X162366666Y-103045295D02*
X162319047Y-102950057D01*
X162319047Y-102950057D02*
X162271428Y-102902438D01*
X162271428Y-102902438D02*
X162176190Y-102854819D01*
X162176190Y-102854819D02*
X161985714Y-102854819D01*
X161985714Y-102854819D02*
X161890476Y-102902438D01*
X161890476Y-102902438D02*
X161842857Y-102950057D01*
X161842857Y-102950057D02*
X161795238Y-103045295D01*
X161795238Y-103045295D02*
X161795238Y-103283390D01*
X161795238Y-103283390D02*
X161842857Y-103378628D01*
X161842857Y-103378628D02*
X161890476Y-103426247D01*
X161890476Y-103426247D02*
X161985714Y-103473866D01*
X161985714Y-103473866D02*
X162176190Y-103473866D01*
X162176190Y-103473866D02*
X162271428Y-103426247D01*
X162271428Y-103426247D02*
X162319047Y-103378628D01*
X162319047Y-103378628D02*
X162366666Y-103283390D01*
X138014285Y-88431009D02*
X138157142Y-88478628D01*
X138157142Y-88478628D02*
X138204761Y-88526247D01*
X138204761Y-88526247D02*
X138252380Y-88621485D01*
X138252380Y-88621485D02*
X138252380Y-88764342D01*
X138252380Y-88764342D02*
X138204761Y-88859580D01*
X138204761Y-88859580D02*
X138157142Y-88907200D01*
X138157142Y-88907200D02*
X138061904Y-88954819D01*
X138061904Y-88954819D02*
X137680952Y-88954819D01*
X137680952Y-88954819D02*
X137680952Y-87954819D01*
X137680952Y-87954819D02*
X138014285Y-87954819D01*
X138014285Y-87954819D02*
X138109523Y-88002438D01*
X138109523Y-88002438D02*
X138157142Y-88050057D01*
X138157142Y-88050057D02*
X138204761Y-88145295D01*
X138204761Y-88145295D02*
X138204761Y-88240533D01*
X138204761Y-88240533D02*
X138157142Y-88335771D01*
X138157142Y-88335771D02*
X138109523Y-88383390D01*
X138109523Y-88383390D02*
X138014285Y-88431009D01*
X138014285Y-88431009D02*
X137680952Y-88431009D01*
X138538095Y-87954819D02*
X139109523Y-87954819D01*
X138823809Y-88954819D02*
X138823809Y-87954819D01*
X139966666Y-88954819D02*
X139395238Y-88954819D01*
X139680952Y-88954819D02*
X139680952Y-87954819D01*
X139680952Y-87954819D02*
X139585714Y-88097676D01*
X139585714Y-88097676D02*
X139490476Y-88192914D01*
X139490476Y-88192914D02*
X139395238Y-88240533D01*
X193838095Y-114254819D02*
X193838095Y-113254819D01*
X193838095Y-113731009D02*
X194409523Y-113731009D01*
X194409523Y-114254819D02*
X194409523Y-113254819D01*
X195409523Y-114254819D02*
X194838095Y-114254819D01*
X195123809Y-114254819D02*
X195123809Y-113254819D01*
X195123809Y-113254819D02*
X195028571Y-113397676D01*
X195028571Y-113397676D02*
X194933333Y-113492914D01*
X194933333Y-113492914D02*
X194838095Y-113540533D01*
X195961905Y-77154819D02*
X195961905Y-76154819D01*
X195961905Y-76154819D02*
X196200000Y-76154819D01*
X196200000Y-76154819D02*
X196342857Y-76202438D01*
X196342857Y-76202438D02*
X196438095Y-76297676D01*
X196438095Y-76297676D02*
X196485714Y-76392914D01*
X196485714Y-76392914D02*
X196533333Y-76583390D01*
X196533333Y-76583390D02*
X196533333Y-76726247D01*
X196533333Y-76726247D02*
X196485714Y-76916723D01*
X196485714Y-76916723D02*
X196438095Y-77011961D01*
X196438095Y-77011961D02*
X196342857Y-77107200D01*
X196342857Y-77107200D02*
X196200000Y-77154819D01*
X196200000Y-77154819D02*
X195961905Y-77154819D01*
X197438095Y-76154819D02*
X196961905Y-76154819D01*
X196961905Y-76154819D02*
X196914286Y-76631009D01*
X196914286Y-76631009D02*
X196961905Y-76583390D01*
X196961905Y-76583390D02*
X197057143Y-76535771D01*
X197057143Y-76535771D02*
X197295238Y-76535771D01*
X197295238Y-76535771D02*
X197390476Y-76583390D01*
X197390476Y-76583390D02*
X197438095Y-76631009D01*
X197438095Y-76631009D02*
X197485714Y-76726247D01*
X197485714Y-76726247D02*
X197485714Y-76964342D01*
X197485714Y-76964342D02*
X197438095Y-77059580D01*
X197438095Y-77059580D02*
X197390476Y-77107200D01*
X197390476Y-77107200D02*
X197295238Y-77154819D01*
X197295238Y-77154819D02*
X197057143Y-77154819D01*
X197057143Y-77154819D02*
X196961905Y-77107200D01*
X196961905Y-77107200D02*
X196914286Y-77059580D01*
X155433333Y-95654819D02*
X155100000Y-95178628D01*
X154861905Y-95654819D02*
X154861905Y-94654819D01*
X154861905Y-94654819D02*
X155242857Y-94654819D01*
X155242857Y-94654819D02*
X155338095Y-94702438D01*
X155338095Y-94702438D02*
X155385714Y-94750057D01*
X155385714Y-94750057D02*
X155433333Y-94845295D01*
X155433333Y-94845295D02*
X155433333Y-94988152D01*
X155433333Y-94988152D02*
X155385714Y-95083390D01*
X155385714Y-95083390D02*
X155338095Y-95131009D01*
X155338095Y-95131009D02*
X155242857Y-95178628D01*
X155242857Y-95178628D02*
X154861905Y-95178628D01*
X156338095Y-94654819D02*
X155861905Y-94654819D01*
X155861905Y-94654819D02*
X155814286Y-95131009D01*
X155814286Y-95131009D02*
X155861905Y-95083390D01*
X155861905Y-95083390D02*
X155957143Y-95035771D01*
X155957143Y-95035771D02*
X156195238Y-95035771D01*
X156195238Y-95035771D02*
X156290476Y-95083390D01*
X156290476Y-95083390D02*
X156338095Y-95131009D01*
X156338095Y-95131009D02*
X156385714Y-95226247D01*
X156385714Y-95226247D02*
X156385714Y-95464342D01*
X156385714Y-95464342D02*
X156338095Y-95559580D01*
X156338095Y-95559580D02*
X156290476Y-95607200D01*
X156290476Y-95607200D02*
X156195238Y-95654819D01*
X156195238Y-95654819D02*
X155957143Y-95654819D01*
X155957143Y-95654819D02*
X155861905Y-95607200D01*
X155861905Y-95607200D02*
X155814286Y-95559580D01*
X181259580Y-74166666D02*
X181307200Y-74214285D01*
X181307200Y-74214285D02*
X181354819Y-74357142D01*
X181354819Y-74357142D02*
X181354819Y-74452380D01*
X181354819Y-74452380D02*
X181307200Y-74595237D01*
X181307200Y-74595237D02*
X181211961Y-74690475D01*
X181211961Y-74690475D02*
X181116723Y-74738094D01*
X181116723Y-74738094D02*
X180926247Y-74785713D01*
X180926247Y-74785713D02*
X180783390Y-74785713D01*
X180783390Y-74785713D02*
X180592914Y-74738094D01*
X180592914Y-74738094D02*
X180497676Y-74690475D01*
X180497676Y-74690475D02*
X180402438Y-74595237D01*
X180402438Y-74595237D02*
X180354819Y-74452380D01*
X180354819Y-74452380D02*
X180354819Y-74357142D01*
X180354819Y-74357142D02*
X180402438Y-74214285D01*
X180402438Y-74214285D02*
X180450057Y-74166666D01*
X180354819Y-73261904D02*
X180354819Y-73738094D01*
X180354819Y-73738094D02*
X180831009Y-73785713D01*
X180831009Y-73785713D02*
X180783390Y-73738094D01*
X180783390Y-73738094D02*
X180735771Y-73642856D01*
X180735771Y-73642856D02*
X180735771Y-73404761D01*
X180735771Y-73404761D02*
X180783390Y-73309523D01*
X180783390Y-73309523D02*
X180831009Y-73261904D01*
X180831009Y-73261904D02*
X180926247Y-73214285D01*
X180926247Y-73214285D02*
X181164342Y-73214285D01*
X181164342Y-73214285D02*
X181259580Y-73261904D01*
X181259580Y-73261904D02*
X181307200Y-73309523D01*
X181307200Y-73309523D02*
X181354819Y-73404761D01*
X181354819Y-73404761D02*
X181354819Y-73642856D01*
X181354819Y-73642856D02*
X181307200Y-73738094D01*
X181307200Y-73738094D02*
X181259580Y-73785713D01*
X154459580Y-70524666D02*
X154507200Y-70572285D01*
X154507200Y-70572285D02*
X154554819Y-70715142D01*
X154554819Y-70715142D02*
X154554819Y-70810380D01*
X154554819Y-70810380D02*
X154507200Y-70953237D01*
X154507200Y-70953237D02*
X154411961Y-71048475D01*
X154411961Y-71048475D02*
X154316723Y-71096094D01*
X154316723Y-71096094D02*
X154126247Y-71143713D01*
X154126247Y-71143713D02*
X153983390Y-71143713D01*
X153983390Y-71143713D02*
X153792914Y-71096094D01*
X153792914Y-71096094D02*
X153697676Y-71048475D01*
X153697676Y-71048475D02*
X153602438Y-70953237D01*
X153602438Y-70953237D02*
X153554819Y-70810380D01*
X153554819Y-70810380D02*
X153554819Y-70715142D01*
X153554819Y-70715142D02*
X153602438Y-70572285D01*
X153602438Y-70572285D02*
X153650057Y-70524666D01*
X153983390Y-69953237D02*
X153935771Y-70048475D01*
X153935771Y-70048475D02*
X153888152Y-70096094D01*
X153888152Y-70096094D02*
X153792914Y-70143713D01*
X153792914Y-70143713D02*
X153745295Y-70143713D01*
X153745295Y-70143713D02*
X153650057Y-70096094D01*
X153650057Y-70096094D02*
X153602438Y-70048475D01*
X153602438Y-70048475D02*
X153554819Y-69953237D01*
X153554819Y-69953237D02*
X153554819Y-69762761D01*
X153554819Y-69762761D02*
X153602438Y-69667523D01*
X153602438Y-69667523D02*
X153650057Y-69619904D01*
X153650057Y-69619904D02*
X153745295Y-69572285D01*
X153745295Y-69572285D02*
X153792914Y-69572285D01*
X153792914Y-69572285D02*
X153888152Y-69619904D01*
X153888152Y-69619904D02*
X153935771Y-69667523D01*
X153935771Y-69667523D02*
X153983390Y-69762761D01*
X153983390Y-69762761D02*
X153983390Y-69953237D01*
X153983390Y-69953237D02*
X154031009Y-70048475D01*
X154031009Y-70048475D02*
X154078628Y-70096094D01*
X154078628Y-70096094D02*
X154173866Y-70143713D01*
X154173866Y-70143713D02*
X154364342Y-70143713D01*
X154364342Y-70143713D02*
X154459580Y-70096094D01*
X154459580Y-70096094D02*
X154507200Y-70048475D01*
X154507200Y-70048475D02*
X154554819Y-69953237D01*
X154554819Y-69953237D02*
X154554819Y-69762761D01*
X154554819Y-69762761D02*
X154507200Y-69667523D01*
X154507200Y-69667523D02*
X154459580Y-69619904D01*
X154459580Y-69619904D02*
X154364342Y-69572285D01*
X154364342Y-69572285D02*
X154173866Y-69572285D01*
X154173866Y-69572285D02*
X154078628Y-69619904D01*
X154078628Y-69619904D02*
X154031009Y-69667523D01*
X154031009Y-69667523D02*
X153983390Y-69762761D01*
X193838095Y-57854819D02*
X193838095Y-56854819D01*
X193838095Y-57331009D02*
X194409523Y-57331009D01*
X194409523Y-57854819D02*
X194409523Y-56854819D01*
X194790476Y-56854819D02*
X195409523Y-56854819D01*
X195409523Y-56854819D02*
X195076190Y-57235771D01*
X195076190Y-57235771D02*
X195219047Y-57235771D01*
X195219047Y-57235771D02*
X195314285Y-57283390D01*
X195314285Y-57283390D02*
X195361904Y-57331009D01*
X195361904Y-57331009D02*
X195409523Y-57426247D01*
X195409523Y-57426247D02*
X195409523Y-57664342D01*
X195409523Y-57664342D02*
X195361904Y-57759580D01*
X195361904Y-57759580D02*
X195314285Y-57807200D01*
X195314285Y-57807200D02*
X195219047Y-57854819D01*
X195219047Y-57854819D02*
X194933333Y-57854819D01*
X194933333Y-57854819D02*
X194838095Y-57807200D01*
X194838095Y-57807200D02*
X194790476Y-57759580D01*
D11*
X160893143Y-69730885D02*
X160893143Y-69430885D01*
X161093143Y-69430885D02*
X161121714Y-69430885D01*
X161121714Y-69430885D02*
X161150286Y-69445171D01*
X161150286Y-69445171D02*
X161164572Y-69459457D01*
X161164572Y-69459457D02*
X161178857Y-69488028D01*
X161178857Y-69488028D02*
X161193143Y-69545171D01*
X161193143Y-69545171D02*
X161193143Y-69616600D01*
X161193143Y-69616600D02*
X161178857Y-69673742D01*
X161178857Y-69673742D02*
X161164572Y-69702314D01*
X161164572Y-69702314D02*
X161150286Y-69716600D01*
X161150286Y-69716600D02*
X161121714Y-69730885D01*
X161121714Y-69730885D02*
X161093143Y-69730885D01*
X161093143Y-69730885D02*
X161064572Y-69716600D01*
X161064572Y-69716600D02*
X161050286Y-69702314D01*
X161050286Y-69702314D02*
X161036000Y-69673742D01*
X161036000Y-69673742D02*
X161021714Y-69616600D01*
X161021714Y-69616600D02*
X161021714Y-69545171D01*
X161021714Y-69545171D02*
X161036000Y-69488028D01*
X161036000Y-69488028D02*
X161050286Y-69459457D01*
X161050286Y-69459457D02*
X161064572Y-69445171D01*
X161064572Y-69445171D02*
X161093143Y-69430885D01*
D10*
X143704761Y-94650057D02*
X143609523Y-94602438D01*
X143609523Y-94602438D02*
X143514285Y-94507200D01*
X143514285Y-94507200D02*
X143371428Y-94364342D01*
X143371428Y-94364342D02*
X143276190Y-94316723D01*
X143276190Y-94316723D02*
X143180952Y-94316723D01*
X143228571Y-94554819D02*
X143133333Y-94507200D01*
X143133333Y-94507200D02*
X143038095Y-94411961D01*
X143038095Y-94411961D02*
X142990476Y-94221485D01*
X142990476Y-94221485D02*
X142990476Y-93888152D01*
X142990476Y-93888152D02*
X143038095Y-93697676D01*
X143038095Y-93697676D02*
X143133333Y-93602438D01*
X143133333Y-93602438D02*
X143228571Y-93554819D01*
X143228571Y-93554819D02*
X143419047Y-93554819D01*
X143419047Y-93554819D02*
X143514285Y-93602438D01*
X143514285Y-93602438D02*
X143609523Y-93697676D01*
X143609523Y-93697676D02*
X143657142Y-93888152D01*
X143657142Y-93888152D02*
X143657142Y-94221485D01*
X143657142Y-94221485D02*
X143609523Y-94411961D01*
X143609523Y-94411961D02*
X143514285Y-94507200D01*
X143514285Y-94507200D02*
X143419047Y-94554819D01*
X143419047Y-94554819D02*
X143228571Y-94554819D01*
X144609523Y-94554819D02*
X144038095Y-94554819D01*
X144323809Y-94554819D02*
X144323809Y-93554819D01*
X144323809Y-93554819D02*
X144228571Y-93697676D01*
X144228571Y-93697676D02*
X144133333Y-93792914D01*
X144133333Y-93792914D02*
X144038095Y-93840533D01*
D11*
X176918885Y-82513142D02*
X176618885Y-82513142D01*
X176618885Y-82513142D02*
X176618885Y-82398856D01*
X176618885Y-82398856D02*
X176633171Y-82370285D01*
X176633171Y-82370285D02*
X176647457Y-82355999D01*
X176647457Y-82355999D02*
X176676028Y-82341713D01*
X176676028Y-82341713D02*
X176718885Y-82341713D01*
X176718885Y-82341713D02*
X176747457Y-82355999D01*
X176747457Y-82355999D02*
X176761742Y-82370285D01*
X176761742Y-82370285D02*
X176776028Y-82398856D01*
X176776028Y-82398856D02*
X176776028Y-82513142D01*
X176833171Y-82227428D02*
X176833171Y-82084571D01*
X176918885Y-82255999D02*
X176618885Y-82155999D01*
X176618885Y-82155999D02*
X176918885Y-82055999D01*
X176918885Y-81798856D02*
X176918885Y-81970285D01*
X176918885Y-81884570D02*
X176618885Y-81884570D01*
X176618885Y-81884570D02*
X176661742Y-81913142D01*
X176661742Y-81913142D02*
X176690314Y-81941713D01*
X176690314Y-81941713D02*
X176704600Y-81970285D01*
X176604600Y-81455999D02*
X176990314Y-81713142D01*
X176918885Y-81355999D02*
X176618885Y-81355999D01*
X176618885Y-81355999D02*
X176833171Y-81255999D01*
X176833171Y-81255999D02*
X176618885Y-81155999D01*
X176618885Y-81155999D02*
X176918885Y-81155999D01*
X176618885Y-80955999D02*
X176618885Y-80898856D01*
X176618885Y-80898856D02*
X176633171Y-80870285D01*
X176633171Y-80870285D02*
X176661742Y-80841713D01*
X176661742Y-80841713D02*
X176718885Y-80827428D01*
X176718885Y-80827428D02*
X176818885Y-80827428D01*
X176818885Y-80827428D02*
X176876028Y-80841713D01*
X176876028Y-80841713D02*
X176904600Y-80870285D01*
X176904600Y-80870285D02*
X176918885Y-80898856D01*
X176918885Y-80898856D02*
X176918885Y-80955999D01*
X176918885Y-80955999D02*
X176904600Y-80984571D01*
X176904600Y-80984571D02*
X176876028Y-81013142D01*
X176876028Y-81013142D02*
X176818885Y-81027428D01*
X176818885Y-81027428D02*
X176718885Y-81027428D01*
X176718885Y-81027428D02*
X176661742Y-81013142D01*
X176661742Y-81013142D02*
X176633171Y-80984571D01*
X176633171Y-80984571D02*
X176618885Y-80955999D01*
X176904600Y-80713142D02*
X176918885Y-80670285D01*
X176918885Y-80670285D02*
X176918885Y-80598856D01*
X176918885Y-80598856D02*
X176904600Y-80570285D01*
X176904600Y-80570285D02*
X176890314Y-80555999D01*
X176890314Y-80555999D02*
X176861742Y-80541713D01*
X176861742Y-80541713D02*
X176833171Y-80541713D01*
X176833171Y-80541713D02*
X176804600Y-80555999D01*
X176804600Y-80555999D02*
X176790314Y-80570285D01*
X176790314Y-80570285D02*
X176776028Y-80598856D01*
X176776028Y-80598856D02*
X176761742Y-80655999D01*
X176761742Y-80655999D02*
X176747457Y-80684570D01*
X176747457Y-80684570D02*
X176733171Y-80698856D01*
X176733171Y-80698856D02*
X176704600Y-80713142D01*
X176704600Y-80713142D02*
X176676028Y-80713142D01*
X176676028Y-80713142D02*
X176647457Y-80698856D01*
X176647457Y-80698856D02*
X176633171Y-80684570D01*
X176633171Y-80684570D02*
X176618885Y-80655999D01*
X176618885Y-80655999D02*
X176618885Y-80584570D01*
X176618885Y-80584570D02*
X176633171Y-80541713D01*
X176918885Y-80413142D02*
X176618885Y-80413142D01*
X176604600Y-80055999D02*
X176990314Y-80313142D01*
X176904600Y-79970285D02*
X176918885Y-79927428D01*
X176918885Y-79927428D02*
X176918885Y-79855999D01*
X176918885Y-79855999D02*
X176904600Y-79827428D01*
X176904600Y-79827428D02*
X176890314Y-79813142D01*
X176890314Y-79813142D02*
X176861742Y-79798856D01*
X176861742Y-79798856D02*
X176833171Y-79798856D01*
X176833171Y-79798856D02*
X176804600Y-79813142D01*
X176804600Y-79813142D02*
X176790314Y-79827428D01*
X176790314Y-79827428D02*
X176776028Y-79855999D01*
X176776028Y-79855999D02*
X176761742Y-79913142D01*
X176761742Y-79913142D02*
X176747457Y-79941713D01*
X176747457Y-79941713D02*
X176733171Y-79955999D01*
X176733171Y-79955999D02*
X176704600Y-79970285D01*
X176704600Y-79970285D02*
X176676028Y-79970285D01*
X176676028Y-79970285D02*
X176647457Y-79955999D01*
X176647457Y-79955999D02*
X176633171Y-79941713D01*
X176633171Y-79941713D02*
X176618885Y-79913142D01*
X176618885Y-79913142D02*
X176618885Y-79841713D01*
X176618885Y-79841713D02*
X176633171Y-79798856D01*
X176918885Y-79670285D02*
X176618885Y-79670285D01*
X176618885Y-79670285D02*
X176618885Y-79598856D01*
X176618885Y-79598856D02*
X176633171Y-79555999D01*
X176633171Y-79555999D02*
X176661742Y-79527428D01*
X176661742Y-79527428D02*
X176690314Y-79513142D01*
X176690314Y-79513142D02*
X176747457Y-79498856D01*
X176747457Y-79498856D02*
X176790314Y-79498856D01*
X176790314Y-79498856D02*
X176847457Y-79513142D01*
X176847457Y-79513142D02*
X176876028Y-79527428D01*
X176876028Y-79527428D02*
X176904600Y-79555999D01*
X176904600Y-79555999D02*
X176918885Y-79598856D01*
X176918885Y-79598856D02*
X176918885Y-79670285D01*
X176833171Y-79384571D02*
X176833171Y-79241714D01*
X176918885Y-79413142D02*
X176618885Y-79313142D01*
X176618885Y-79313142D02*
X176918885Y-79213142D01*
X176604600Y-78898856D02*
X176990314Y-79155999D01*
X176918885Y-78798856D02*
X176618885Y-78798856D01*
X176761742Y-78798856D02*
X176761742Y-78627427D01*
X176918885Y-78627427D02*
X176618885Y-78627427D01*
X176904600Y-78498856D02*
X176918885Y-78455999D01*
X176918885Y-78455999D02*
X176918885Y-78384570D01*
X176918885Y-78384570D02*
X176904600Y-78355999D01*
X176904600Y-78355999D02*
X176890314Y-78341713D01*
X176890314Y-78341713D02*
X176861742Y-78327427D01*
X176861742Y-78327427D02*
X176833171Y-78327427D01*
X176833171Y-78327427D02*
X176804600Y-78341713D01*
X176804600Y-78341713D02*
X176790314Y-78355999D01*
X176790314Y-78355999D02*
X176776028Y-78384570D01*
X176776028Y-78384570D02*
X176761742Y-78441713D01*
X176761742Y-78441713D02*
X176747457Y-78470284D01*
X176747457Y-78470284D02*
X176733171Y-78484570D01*
X176733171Y-78484570D02*
X176704600Y-78498856D01*
X176704600Y-78498856D02*
X176676028Y-78498856D01*
X176676028Y-78498856D02*
X176647457Y-78484570D01*
X176647457Y-78484570D02*
X176633171Y-78470284D01*
X176633171Y-78470284D02*
X176618885Y-78441713D01*
X176618885Y-78441713D02*
X176618885Y-78370284D01*
X176618885Y-78370284D02*
X176633171Y-78327427D01*
X176618885Y-78198856D02*
X176861742Y-78198856D01*
X176861742Y-78198856D02*
X176890314Y-78184570D01*
X176890314Y-78184570D02*
X176904600Y-78170285D01*
X176904600Y-78170285D02*
X176918885Y-78141713D01*
X176918885Y-78141713D02*
X176918885Y-78084570D01*
X176918885Y-78084570D02*
X176904600Y-78055999D01*
X176904600Y-78055999D02*
X176890314Y-78041713D01*
X176890314Y-78041713D02*
X176861742Y-78027427D01*
X176861742Y-78027427D02*
X176618885Y-78027427D01*
X176947457Y-77955999D02*
X176947457Y-77727427D01*
X176618885Y-77698856D02*
X176618885Y-77527428D01*
X176918885Y-77613142D02*
X176618885Y-77613142D01*
X176618885Y-77455999D02*
X176918885Y-77255999D01*
X176618885Y-77255999D02*
X176918885Y-77455999D01*
X176918885Y-76984571D02*
X176918885Y-77156000D01*
X176918885Y-77070285D02*
X176618885Y-77070285D01*
X176618885Y-77070285D02*
X176661742Y-77098857D01*
X176661742Y-77098857D02*
X176690314Y-77127428D01*
X176690314Y-77127428D02*
X176704600Y-77156000D01*
D10*
X185970833Y-73735580D02*
X185923214Y-73783200D01*
X185923214Y-73783200D02*
X185780357Y-73830819D01*
X185780357Y-73830819D02*
X185685119Y-73830819D01*
X185685119Y-73830819D02*
X185542262Y-73783200D01*
X185542262Y-73783200D02*
X185447024Y-73687961D01*
X185447024Y-73687961D02*
X185399405Y-73592723D01*
X185399405Y-73592723D02*
X185351786Y-73402247D01*
X185351786Y-73402247D02*
X185351786Y-73259390D01*
X185351786Y-73259390D02*
X185399405Y-73068914D01*
X185399405Y-73068914D02*
X185447024Y-72973676D01*
X185447024Y-72973676D02*
X185542262Y-72878438D01*
X185542262Y-72878438D02*
X185685119Y-72830819D01*
X185685119Y-72830819D02*
X185780357Y-72830819D01*
X185780357Y-72830819D02*
X185923214Y-72878438D01*
X185923214Y-72878438D02*
X185970833Y-72926057D01*
X186304167Y-72830819D02*
X186923214Y-72830819D01*
X186923214Y-72830819D02*
X186589881Y-73211771D01*
X186589881Y-73211771D02*
X186732738Y-73211771D01*
X186732738Y-73211771D02*
X186827976Y-73259390D01*
X186827976Y-73259390D02*
X186875595Y-73307009D01*
X186875595Y-73307009D02*
X186923214Y-73402247D01*
X186923214Y-73402247D02*
X186923214Y-73640342D01*
X186923214Y-73640342D02*
X186875595Y-73735580D01*
X186875595Y-73735580D02*
X186827976Y-73783200D01*
X186827976Y-73783200D02*
X186732738Y-73830819D01*
X186732738Y-73830819D02*
X186447024Y-73830819D01*
X186447024Y-73830819D02*
X186351786Y-73783200D01*
X186351786Y-73783200D02*
X186304167Y-73735580D01*
D11*
X156068000Y-83586600D02*
X156296572Y-83586600D01*
X156182286Y-83700885D02*
X156182286Y-83472314D01*
X156539429Y-83543742D02*
X156582286Y-83558028D01*
X156582286Y-83558028D02*
X156596572Y-83572314D01*
X156596572Y-83572314D02*
X156610858Y-83600885D01*
X156610858Y-83600885D02*
X156610858Y-83643742D01*
X156610858Y-83643742D02*
X156596572Y-83672314D01*
X156596572Y-83672314D02*
X156582286Y-83686600D01*
X156582286Y-83686600D02*
X156553715Y-83700885D01*
X156553715Y-83700885D02*
X156439429Y-83700885D01*
X156439429Y-83700885D02*
X156439429Y-83400885D01*
X156439429Y-83400885D02*
X156539429Y-83400885D01*
X156539429Y-83400885D02*
X156568001Y-83415171D01*
X156568001Y-83415171D02*
X156582286Y-83429457D01*
X156582286Y-83429457D02*
X156596572Y-83458028D01*
X156596572Y-83458028D02*
X156596572Y-83486600D01*
X156596572Y-83486600D02*
X156582286Y-83515171D01*
X156582286Y-83515171D02*
X156568001Y-83529457D01*
X156568001Y-83529457D02*
X156539429Y-83543742D01*
X156539429Y-83543742D02*
X156439429Y-83543742D01*
X156725143Y-83615171D02*
X156868001Y-83615171D01*
X156696572Y-83700885D02*
X156796572Y-83400885D01*
X156796572Y-83400885D02*
X156896572Y-83700885D01*
X156953715Y-83400885D02*
X157125144Y-83400885D01*
X157039429Y-83700885D02*
X157039429Y-83400885D01*
X157382286Y-83700885D02*
X157210857Y-83700885D01*
X157296572Y-83700885D02*
X157296572Y-83400885D01*
X157296572Y-83400885D02*
X157268000Y-83443742D01*
X157268000Y-83443742D02*
X157239429Y-83472314D01*
X157239429Y-83472314D02*
X157210857Y-83486600D01*
D10*
X191659580Y-70266666D02*
X191707200Y-70314285D01*
X191707200Y-70314285D02*
X191754819Y-70457142D01*
X191754819Y-70457142D02*
X191754819Y-70552380D01*
X191754819Y-70552380D02*
X191707200Y-70695237D01*
X191707200Y-70695237D02*
X191611961Y-70790475D01*
X191611961Y-70790475D02*
X191516723Y-70838094D01*
X191516723Y-70838094D02*
X191326247Y-70885713D01*
X191326247Y-70885713D02*
X191183390Y-70885713D01*
X191183390Y-70885713D02*
X190992914Y-70838094D01*
X190992914Y-70838094D02*
X190897676Y-70790475D01*
X190897676Y-70790475D02*
X190802438Y-70695237D01*
X190802438Y-70695237D02*
X190754819Y-70552380D01*
X190754819Y-70552380D02*
X190754819Y-70457142D01*
X190754819Y-70457142D02*
X190802438Y-70314285D01*
X190802438Y-70314285D02*
X190850057Y-70266666D01*
X190850057Y-69885713D02*
X190802438Y-69838094D01*
X190802438Y-69838094D02*
X190754819Y-69742856D01*
X190754819Y-69742856D02*
X190754819Y-69504761D01*
X190754819Y-69504761D02*
X190802438Y-69409523D01*
X190802438Y-69409523D02*
X190850057Y-69361904D01*
X190850057Y-69361904D02*
X190945295Y-69314285D01*
X190945295Y-69314285D02*
X191040533Y-69314285D01*
X191040533Y-69314285D02*
X191183390Y-69361904D01*
X191183390Y-69361904D02*
X191754819Y-69933332D01*
X191754819Y-69933332D02*
X191754819Y-69314285D01*
X150060819Y-100655094D02*
X149060819Y-100655094D01*
X149060819Y-100655094D02*
X149060819Y-100416999D01*
X149060819Y-100416999D02*
X149108438Y-100274142D01*
X149108438Y-100274142D02*
X149203676Y-100178904D01*
X149203676Y-100178904D02*
X149298914Y-100131285D01*
X149298914Y-100131285D02*
X149489390Y-100083666D01*
X149489390Y-100083666D02*
X149632247Y-100083666D01*
X149632247Y-100083666D02*
X149822723Y-100131285D01*
X149822723Y-100131285D02*
X149917961Y-100178904D01*
X149917961Y-100178904D02*
X150013200Y-100274142D01*
X150013200Y-100274142D02*
X150060819Y-100416999D01*
X150060819Y-100416999D02*
X150060819Y-100655094D01*
X149060819Y-99750332D02*
X149060819Y-99131285D01*
X149060819Y-99131285D02*
X149441771Y-99464618D01*
X149441771Y-99464618D02*
X149441771Y-99321761D01*
X149441771Y-99321761D02*
X149489390Y-99226523D01*
X149489390Y-99226523D02*
X149537009Y-99178904D01*
X149537009Y-99178904D02*
X149632247Y-99131285D01*
X149632247Y-99131285D02*
X149870342Y-99131285D01*
X149870342Y-99131285D02*
X149965580Y-99178904D01*
X149965580Y-99178904D02*
X150013200Y-99226523D01*
X150013200Y-99226523D02*
X150060819Y-99321761D01*
X150060819Y-99321761D02*
X150060819Y-99607475D01*
X150060819Y-99607475D02*
X150013200Y-99702713D01*
X150013200Y-99702713D02*
X149965580Y-99750332D01*
X183671333Y-65240819D02*
X183338000Y-64764628D01*
X183099905Y-65240819D02*
X183099905Y-64240819D01*
X183099905Y-64240819D02*
X183480857Y-64240819D01*
X183480857Y-64240819D02*
X183576095Y-64288438D01*
X183576095Y-64288438D02*
X183623714Y-64336057D01*
X183623714Y-64336057D02*
X183671333Y-64431295D01*
X183671333Y-64431295D02*
X183671333Y-64574152D01*
X183671333Y-64574152D02*
X183623714Y-64669390D01*
X183623714Y-64669390D02*
X183576095Y-64717009D01*
X183576095Y-64717009D02*
X183480857Y-64764628D01*
X183480857Y-64764628D02*
X183099905Y-64764628D01*
X184623714Y-65240819D02*
X184052286Y-65240819D01*
X184338000Y-65240819D02*
X184338000Y-64240819D01*
X184338000Y-64240819D02*
X184242762Y-64383676D01*
X184242762Y-64383676D02*
X184147524Y-64478914D01*
X184147524Y-64478914D02*
X184052286Y-64526533D01*
X134838095Y-112154819D02*
X134838095Y-111154819D01*
X134838095Y-111631009D02*
X135409523Y-111631009D01*
X135409523Y-112154819D02*
X135409523Y-111154819D01*
X136314285Y-111488152D02*
X136314285Y-112154819D01*
X136076190Y-111107200D02*
X135838095Y-111821485D01*
X135838095Y-111821485D02*
X136457142Y-111821485D01*
D12*
X183530952Y-80488809D02*
X183530952Y-79988809D01*
X183530952Y-79988809D02*
X183721428Y-79988809D01*
X183721428Y-79988809D02*
X183769047Y-80012619D01*
X183769047Y-80012619D02*
X183792857Y-80036428D01*
X183792857Y-80036428D02*
X183816666Y-80084047D01*
X183816666Y-80084047D02*
X183816666Y-80155476D01*
X183816666Y-80155476D02*
X183792857Y-80203095D01*
X183792857Y-80203095D02*
X183769047Y-80226904D01*
X183769047Y-80226904D02*
X183721428Y-80250714D01*
X183721428Y-80250714D02*
X183530952Y-80250714D01*
X184316666Y-80441190D02*
X184292857Y-80465000D01*
X184292857Y-80465000D02*
X184221428Y-80488809D01*
X184221428Y-80488809D02*
X184173809Y-80488809D01*
X184173809Y-80488809D02*
X184102381Y-80465000D01*
X184102381Y-80465000D02*
X184054762Y-80417380D01*
X184054762Y-80417380D02*
X184030952Y-80369761D01*
X184030952Y-80369761D02*
X184007143Y-80274523D01*
X184007143Y-80274523D02*
X184007143Y-80203095D01*
X184007143Y-80203095D02*
X184030952Y-80107857D01*
X184030952Y-80107857D02*
X184054762Y-80060238D01*
X184054762Y-80060238D02*
X184102381Y-80012619D01*
X184102381Y-80012619D02*
X184173809Y-79988809D01*
X184173809Y-79988809D02*
X184221428Y-79988809D01*
X184221428Y-79988809D02*
X184292857Y-80012619D01*
X184292857Y-80012619D02*
X184316666Y-80036428D01*
X184507143Y-80036428D02*
X184530952Y-80012619D01*
X184530952Y-80012619D02*
X184578571Y-79988809D01*
X184578571Y-79988809D02*
X184697619Y-79988809D01*
X184697619Y-79988809D02*
X184745238Y-80012619D01*
X184745238Y-80012619D02*
X184769047Y-80036428D01*
X184769047Y-80036428D02*
X184792857Y-80084047D01*
X184792857Y-80084047D02*
X184792857Y-80131666D01*
X184792857Y-80131666D02*
X184769047Y-80203095D01*
X184769047Y-80203095D02*
X184483333Y-80488809D01*
X184483333Y-80488809D02*
X184792857Y-80488809D01*
D10*
X143160761Y-109770057D02*
X143065523Y-109722438D01*
X143065523Y-109722438D02*
X142970285Y-109627200D01*
X142970285Y-109627200D02*
X142827428Y-109484342D01*
X142827428Y-109484342D02*
X142732190Y-109436723D01*
X142732190Y-109436723D02*
X142636952Y-109436723D01*
X142684571Y-109674819D02*
X142589333Y-109627200D01*
X142589333Y-109627200D02*
X142494095Y-109531961D01*
X142494095Y-109531961D02*
X142446476Y-109341485D01*
X142446476Y-109341485D02*
X142446476Y-109008152D01*
X142446476Y-109008152D02*
X142494095Y-108817676D01*
X142494095Y-108817676D02*
X142589333Y-108722438D01*
X142589333Y-108722438D02*
X142684571Y-108674819D01*
X142684571Y-108674819D02*
X142875047Y-108674819D01*
X142875047Y-108674819D02*
X142970285Y-108722438D01*
X142970285Y-108722438D02*
X143065523Y-108817676D01*
X143065523Y-108817676D02*
X143113142Y-109008152D01*
X143113142Y-109008152D02*
X143113142Y-109341485D01*
X143113142Y-109341485D02*
X143065523Y-109531961D01*
X143065523Y-109531961D02*
X142970285Y-109627200D01*
X142970285Y-109627200D02*
X142875047Y-109674819D01*
X142875047Y-109674819D02*
X142684571Y-109674819D01*
X143494095Y-108770057D02*
X143541714Y-108722438D01*
X143541714Y-108722438D02*
X143636952Y-108674819D01*
X143636952Y-108674819D02*
X143875047Y-108674819D01*
X143875047Y-108674819D02*
X143970285Y-108722438D01*
X143970285Y-108722438D02*
X144017904Y-108770057D01*
X144017904Y-108770057D02*
X144065523Y-108865295D01*
X144065523Y-108865295D02*
X144065523Y-108960533D01*
X144065523Y-108960533D02*
X144017904Y-109103390D01*
X144017904Y-109103390D02*
X143446476Y-109674819D01*
X143446476Y-109674819D02*
X144065523Y-109674819D01*
X150254819Y-96066666D02*
X149778628Y-96399999D01*
X150254819Y-96638094D02*
X149254819Y-96638094D01*
X149254819Y-96638094D02*
X149254819Y-96257142D01*
X149254819Y-96257142D02*
X149302438Y-96161904D01*
X149302438Y-96161904D02*
X149350057Y-96114285D01*
X149350057Y-96114285D02*
X149445295Y-96066666D01*
X149445295Y-96066666D02*
X149588152Y-96066666D01*
X149588152Y-96066666D02*
X149683390Y-96114285D01*
X149683390Y-96114285D02*
X149731009Y-96161904D01*
X149731009Y-96161904D02*
X149778628Y-96257142D01*
X149778628Y-96257142D02*
X149778628Y-96638094D01*
X149588152Y-95209523D02*
X150254819Y-95209523D01*
X149207200Y-95447618D02*
X149921485Y-95685713D01*
X149921485Y-95685713D02*
X149921485Y-95066666D01*
X181138095Y-98554819D02*
X181138095Y-99364342D01*
X181138095Y-99364342D02*
X181185714Y-99459580D01*
X181185714Y-99459580D02*
X181233333Y-99507200D01*
X181233333Y-99507200D02*
X181328571Y-99554819D01*
X181328571Y-99554819D02*
X181519047Y-99554819D01*
X181519047Y-99554819D02*
X181614285Y-99507200D01*
X181614285Y-99507200D02*
X181661904Y-99459580D01*
X181661904Y-99459580D02*
X181709523Y-99364342D01*
X181709523Y-99364342D02*
X181709523Y-98554819D01*
X182090476Y-98554819D02*
X182709523Y-98554819D01*
X182709523Y-98554819D02*
X182376190Y-98935771D01*
X182376190Y-98935771D02*
X182519047Y-98935771D01*
X182519047Y-98935771D02*
X182614285Y-98983390D01*
X182614285Y-98983390D02*
X182661904Y-99031009D01*
X182661904Y-99031009D02*
X182709523Y-99126247D01*
X182709523Y-99126247D02*
X182709523Y-99364342D01*
X182709523Y-99364342D02*
X182661904Y-99459580D01*
X182661904Y-99459580D02*
X182614285Y-99507200D01*
X182614285Y-99507200D02*
X182519047Y-99554819D01*
X182519047Y-99554819D02*
X182233333Y-99554819D01*
X182233333Y-99554819D02*
X182138095Y-99507200D01*
X182138095Y-99507200D02*
X182090476Y-99459580D01*
X186961905Y-103854819D02*
X186961905Y-102854819D01*
X186961905Y-102854819D02*
X187200000Y-102854819D01*
X187200000Y-102854819D02*
X187342857Y-102902438D01*
X187342857Y-102902438D02*
X187438095Y-102997676D01*
X187438095Y-102997676D02*
X187485714Y-103092914D01*
X187485714Y-103092914D02*
X187533333Y-103283390D01*
X187533333Y-103283390D02*
X187533333Y-103426247D01*
X187533333Y-103426247D02*
X187485714Y-103616723D01*
X187485714Y-103616723D02*
X187438095Y-103711961D01*
X187438095Y-103711961D02*
X187342857Y-103807200D01*
X187342857Y-103807200D02*
X187200000Y-103854819D01*
X187200000Y-103854819D02*
X186961905Y-103854819D01*
X188485714Y-103854819D02*
X187914286Y-103854819D01*
X188200000Y-103854819D02*
X188200000Y-102854819D01*
X188200000Y-102854819D02*
X188104762Y-102997676D01*
X188104762Y-102997676D02*
X188009524Y-103092914D01*
X188009524Y-103092914D02*
X187914286Y-103140533D01*
X174254819Y-69480666D02*
X173778628Y-69813999D01*
X174254819Y-70052094D02*
X173254819Y-70052094D01*
X173254819Y-70052094D02*
X173254819Y-69671142D01*
X173254819Y-69671142D02*
X173302438Y-69575904D01*
X173302438Y-69575904D02*
X173350057Y-69528285D01*
X173350057Y-69528285D02*
X173445295Y-69480666D01*
X173445295Y-69480666D02*
X173588152Y-69480666D01*
X173588152Y-69480666D02*
X173683390Y-69528285D01*
X173683390Y-69528285D02*
X173731009Y-69575904D01*
X173731009Y-69575904D02*
X173778628Y-69671142D01*
X173778628Y-69671142D02*
X173778628Y-70052094D01*
X173350057Y-69099713D02*
X173302438Y-69052094D01*
X173302438Y-69052094D02*
X173254819Y-68956856D01*
X173254819Y-68956856D02*
X173254819Y-68718761D01*
X173254819Y-68718761D02*
X173302438Y-68623523D01*
X173302438Y-68623523D02*
X173350057Y-68575904D01*
X173350057Y-68575904D02*
X173445295Y-68528285D01*
X173445295Y-68528285D02*
X173540533Y-68528285D01*
X173540533Y-68528285D02*
X173683390Y-68575904D01*
X173683390Y-68575904D02*
X174254819Y-69147332D01*
X174254819Y-69147332D02*
X174254819Y-68528285D01*
D12*
X183530952Y-78202809D02*
X183530952Y-77702809D01*
X183530952Y-77702809D02*
X183721428Y-77702809D01*
X183721428Y-77702809D02*
X183769047Y-77726619D01*
X183769047Y-77726619D02*
X183792857Y-77750428D01*
X183792857Y-77750428D02*
X183816666Y-77798047D01*
X183816666Y-77798047D02*
X183816666Y-77869476D01*
X183816666Y-77869476D02*
X183792857Y-77917095D01*
X183792857Y-77917095D02*
X183769047Y-77940904D01*
X183769047Y-77940904D02*
X183721428Y-77964714D01*
X183721428Y-77964714D02*
X183530952Y-77964714D01*
X184316666Y-78155190D02*
X184292857Y-78179000D01*
X184292857Y-78179000D02*
X184221428Y-78202809D01*
X184221428Y-78202809D02*
X184173809Y-78202809D01*
X184173809Y-78202809D02*
X184102381Y-78179000D01*
X184102381Y-78179000D02*
X184054762Y-78131380D01*
X184054762Y-78131380D02*
X184030952Y-78083761D01*
X184030952Y-78083761D02*
X184007143Y-77988523D01*
X184007143Y-77988523D02*
X184007143Y-77917095D01*
X184007143Y-77917095D02*
X184030952Y-77821857D01*
X184030952Y-77821857D02*
X184054762Y-77774238D01*
X184054762Y-77774238D02*
X184102381Y-77726619D01*
X184102381Y-77726619D02*
X184173809Y-77702809D01*
X184173809Y-77702809D02*
X184221428Y-77702809D01*
X184221428Y-77702809D02*
X184292857Y-77726619D01*
X184292857Y-77726619D02*
X184316666Y-77750428D01*
X184483333Y-77702809D02*
X184792857Y-77702809D01*
X184792857Y-77702809D02*
X184626190Y-77893285D01*
X184626190Y-77893285D02*
X184697619Y-77893285D01*
X184697619Y-77893285D02*
X184745238Y-77917095D01*
X184745238Y-77917095D02*
X184769047Y-77940904D01*
X184769047Y-77940904D02*
X184792857Y-77988523D01*
X184792857Y-77988523D02*
X184792857Y-78107571D01*
X184792857Y-78107571D02*
X184769047Y-78155190D01*
X184769047Y-78155190D02*
X184745238Y-78179000D01*
X184745238Y-78179000D02*
X184697619Y-78202809D01*
X184697619Y-78202809D02*
X184554762Y-78202809D01*
X184554762Y-78202809D02*
X184507143Y-78179000D01*
X184507143Y-78179000D02*
X184483333Y-78155190D01*
D11*
X161147143Y-70746885D02*
X161147143Y-70446885D01*
X161447143Y-70746885D02*
X161275714Y-70746885D01*
X161361429Y-70746885D02*
X161361429Y-70446885D01*
X161361429Y-70446885D02*
X161332857Y-70489742D01*
X161332857Y-70489742D02*
X161304286Y-70518314D01*
X161304286Y-70518314D02*
X161275714Y-70532600D01*
D10*
X174433333Y-72754819D02*
X173957143Y-72754819D01*
X173957143Y-72754819D02*
X173957143Y-71754819D01*
X174719048Y-71850057D02*
X174766667Y-71802438D01*
X174766667Y-71802438D02*
X174861905Y-71754819D01*
X174861905Y-71754819D02*
X175100000Y-71754819D01*
X175100000Y-71754819D02*
X175195238Y-71802438D01*
X175195238Y-71802438D02*
X175242857Y-71850057D01*
X175242857Y-71850057D02*
X175290476Y-71945295D01*
X175290476Y-71945295D02*
X175290476Y-72040533D01*
X175290476Y-72040533D02*
X175242857Y-72183390D01*
X175242857Y-72183390D02*
X174671429Y-72754819D01*
X174671429Y-72754819D02*
X175290476Y-72754819D01*
X161311142Y-112252580D02*
X161263523Y-112300200D01*
X161263523Y-112300200D02*
X161120666Y-112347819D01*
X161120666Y-112347819D02*
X161025428Y-112347819D01*
X161025428Y-112347819D02*
X160882571Y-112300200D01*
X160882571Y-112300200D02*
X160787333Y-112204961D01*
X160787333Y-112204961D02*
X160739714Y-112109723D01*
X160739714Y-112109723D02*
X160692095Y-111919247D01*
X160692095Y-111919247D02*
X160692095Y-111776390D01*
X160692095Y-111776390D02*
X160739714Y-111585914D01*
X160739714Y-111585914D02*
X160787333Y-111490676D01*
X160787333Y-111490676D02*
X160882571Y-111395438D01*
X160882571Y-111395438D02*
X161025428Y-111347819D01*
X161025428Y-111347819D02*
X161120666Y-111347819D01*
X161120666Y-111347819D02*
X161263523Y-111395438D01*
X161263523Y-111395438D02*
X161311142Y-111443057D01*
X161692095Y-111443057D02*
X161739714Y-111395438D01*
X161739714Y-111395438D02*
X161834952Y-111347819D01*
X161834952Y-111347819D02*
X162073047Y-111347819D01*
X162073047Y-111347819D02*
X162168285Y-111395438D01*
X162168285Y-111395438D02*
X162215904Y-111443057D01*
X162215904Y-111443057D02*
X162263523Y-111538295D01*
X162263523Y-111538295D02*
X162263523Y-111633533D01*
X162263523Y-111633533D02*
X162215904Y-111776390D01*
X162215904Y-111776390D02*
X161644476Y-112347819D01*
X161644476Y-112347819D02*
X162263523Y-112347819D01*
X163215904Y-112347819D02*
X162644476Y-112347819D01*
X162930190Y-112347819D02*
X162930190Y-111347819D01*
X162930190Y-111347819D02*
X162834952Y-111490676D01*
X162834952Y-111490676D02*
X162739714Y-111585914D01*
X162739714Y-111585914D02*
X162644476Y-111633533D01*
X181419580Y-70054666D02*
X181467200Y-70102285D01*
X181467200Y-70102285D02*
X181514819Y-70245142D01*
X181514819Y-70245142D02*
X181514819Y-70340380D01*
X181514819Y-70340380D02*
X181467200Y-70483237D01*
X181467200Y-70483237D02*
X181371961Y-70578475D01*
X181371961Y-70578475D02*
X181276723Y-70626094D01*
X181276723Y-70626094D02*
X181086247Y-70673713D01*
X181086247Y-70673713D02*
X180943390Y-70673713D01*
X180943390Y-70673713D02*
X180752914Y-70626094D01*
X180752914Y-70626094D02*
X180657676Y-70578475D01*
X180657676Y-70578475D02*
X180562438Y-70483237D01*
X180562438Y-70483237D02*
X180514819Y-70340380D01*
X180514819Y-70340380D02*
X180514819Y-70245142D01*
X180514819Y-70245142D02*
X180562438Y-70102285D01*
X180562438Y-70102285D02*
X180610057Y-70054666D01*
X180514819Y-69197523D02*
X180514819Y-69387999D01*
X180514819Y-69387999D02*
X180562438Y-69483237D01*
X180562438Y-69483237D02*
X180610057Y-69530856D01*
X180610057Y-69530856D02*
X180752914Y-69626094D01*
X180752914Y-69626094D02*
X180943390Y-69673713D01*
X180943390Y-69673713D02*
X181324342Y-69673713D01*
X181324342Y-69673713D02*
X181419580Y-69626094D01*
X181419580Y-69626094D02*
X181467200Y-69578475D01*
X181467200Y-69578475D02*
X181514819Y-69483237D01*
X181514819Y-69483237D02*
X181514819Y-69292761D01*
X181514819Y-69292761D02*
X181467200Y-69197523D01*
X181467200Y-69197523D02*
X181419580Y-69149904D01*
X181419580Y-69149904D02*
X181324342Y-69102285D01*
X181324342Y-69102285D02*
X181086247Y-69102285D01*
X181086247Y-69102285D02*
X180991009Y-69149904D01*
X180991009Y-69149904D02*
X180943390Y-69197523D01*
X180943390Y-69197523D02*
X180895771Y-69292761D01*
X180895771Y-69292761D02*
X180895771Y-69483237D01*
X180895771Y-69483237D02*
X180943390Y-69578475D01*
X180943390Y-69578475D02*
X180991009Y-69626094D01*
X180991009Y-69626094D02*
X181086247Y-69673713D01*
X166489142Y-67161580D02*
X166441523Y-67209200D01*
X166441523Y-67209200D02*
X166298666Y-67256819D01*
X166298666Y-67256819D02*
X166203428Y-67256819D01*
X166203428Y-67256819D02*
X166060571Y-67209200D01*
X166060571Y-67209200D02*
X165965333Y-67113961D01*
X165965333Y-67113961D02*
X165917714Y-67018723D01*
X165917714Y-67018723D02*
X165870095Y-66828247D01*
X165870095Y-66828247D02*
X165870095Y-66685390D01*
X165870095Y-66685390D02*
X165917714Y-66494914D01*
X165917714Y-66494914D02*
X165965333Y-66399676D01*
X165965333Y-66399676D02*
X166060571Y-66304438D01*
X166060571Y-66304438D02*
X166203428Y-66256819D01*
X166203428Y-66256819D02*
X166298666Y-66256819D01*
X166298666Y-66256819D02*
X166441523Y-66304438D01*
X166441523Y-66304438D02*
X166489142Y-66352057D01*
X167441523Y-67256819D02*
X166870095Y-67256819D01*
X167155809Y-67256819D02*
X167155809Y-66256819D01*
X167155809Y-66256819D02*
X167060571Y-66399676D01*
X167060571Y-66399676D02*
X166965333Y-66494914D01*
X166965333Y-66494914D02*
X166870095Y-66542533D01*
X167822476Y-66352057D02*
X167870095Y-66304438D01*
X167870095Y-66304438D02*
X167965333Y-66256819D01*
X167965333Y-66256819D02*
X168203428Y-66256819D01*
X168203428Y-66256819D02*
X168298666Y-66304438D01*
X168298666Y-66304438D02*
X168346285Y-66352057D01*
X168346285Y-66352057D02*
X168393904Y-66447295D01*
X168393904Y-66447295D02*
X168393904Y-66542533D01*
X168393904Y-66542533D02*
X168346285Y-66685390D01*
X168346285Y-66685390D02*
X167774857Y-67256819D01*
X167774857Y-67256819D02*
X168393904Y-67256819D01*
X148359580Y-110742857D02*
X148407200Y-110790476D01*
X148407200Y-110790476D02*
X148454819Y-110933333D01*
X148454819Y-110933333D02*
X148454819Y-111028571D01*
X148454819Y-111028571D02*
X148407200Y-111171428D01*
X148407200Y-111171428D02*
X148311961Y-111266666D01*
X148311961Y-111266666D02*
X148216723Y-111314285D01*
X148216723Y-111314285D02*
X148026247Y-111361904D01*
X148026247Y-111361904D02*
X147883390Y-111361904D01*
X147883390Y-111361904D02*
X147692914Y-111314285D01*
X147692914Y-111314285D02*
X147597676Y-111266666D01*
X147597676Y-111266666D02*
X147502438Y-111171428D01*
X147502438Y-111171428D02*
X147454819Y-111028571D01*
X147454819Y-111028571D02*
X147454819Y-110933333D01*
X147454819Y-110933333D02*
X147502438Y-110790476D01*
X147502438Y-110790476D02*
X147550057Y-110742857D01*
X147550057Y-110361904D02*
X147502438Y-110314285D01*
X147502438Y-110314285D02*
X147454819Y-110219047D01*
X147454819Y-110219047D02*
X147454819Y-109980952D01*
X147454819Y-109980952D02*
X147502438Y-109885714D01*
X147502438Y-109885714D02*
X147550057Y-109838095D01*
X147550057Y-109838095D02*
X147645295Y-109790476D01*
X147645295Y-109790476D02*
X147740533Y-109790476D01*
X147740533Y-109790476D02*
X147883390Y-109838095D01*
X147883390Y-109838095D02*
X148454819Y-110409523D01*
X148454819Y-110409523D02*
X148454819Y-109790476D01*
X147550057Y-109409523D02*
X147502438Y-109361904D01*
X147502438Y-109361904D02*
X147454819Y-109266666D01*
X147454819Y-109266666D02*
X147454819Y-109028571D01*
X147454819Y-109028571D02*
X147502438Y-108933333D01*
X147502438Y-108933333D02*
X147550057Y-108885714D01*
X147550057Y-108885714D02*
X147645295Y-108838095D01*
X147645295Y-108838095D02*
X147740533Y-108838095D01*
X147740533Y-108838095D02*
X147883390Y-108885714D01*
X147883390Y-108885714D02*
X148454819Y-109457142D01*
X148454819Y-109457142D02*
X148454819Y-108838095D01*
X171857142Y-81659580D02*
X171809523Y-81707200D01*
X171809523Y-81707200D02*
X171666666Y-81754819D01*
X171666666Y-81754819D02*
X171571428Y-81754819D01*
X171571428Y-81754819D02*
X171428571Y-81707200D01*
X171428571Y-81707200D02*
X171333333Y-81611961D01*
X171333333Y-81611961D02*
X171285714Y-81516723D01*
X171285714Y-81516723D02*
X171238095Y-81326247D01*
X171238095Y-81326247D02*
X171238095Y-81183390D01*
X171238095Y-81183390D02*
X171285714Y-80992914D01*
X171285714Y-80992914D02*
X171333333Y-80897676D01*
X171333333Y-80897676D02*
X171428571Y-80802438D01*
X171428571Y-80802438D02*
X171571428Y-80754819D01*
X171571428Y-80754819D02*
X171666666Y-80754819D01*
X171666666Y-80754819D02*
X171809523Y-80802438D01*
X171809523Y-80802438D02*
X171857142Y-80850057D01*
X172809523Y-81754819D02*
X172238095Y-81754819D01*
X172523809Y-81754819D02*
X172523809Y-80754819D01*
X172523809Y-80754819D02*
X172428571Y-80897676D01*
X172428571Y-80897676D02*
X172333333Y-80992914D01*
X172333333Y-80992914D02*
X172238095Y-81040533D01*
X173380952Y-81183390D02*
X173285714Y-81135771D01*
X173285714Y-81135771D02*
X173238095Y-81088152D01*
X173238095Y-81088152D02*
X173190476Y-80992914D01*
X173190476Y-80992914D02*
X173190476Y-80945295D01*
X173190476Y-80945295D02*
X173238095Y-80850057D01*
X173238095Y-80850057D02*
X173285714Y-80802438D01*
X173285714Y-80802438D02*
X173380952Y-80754819D01*
X173380952Y-80754819D02*
X173571428Y-80754819D01*
X173571428Y-80754819D02*
X173666666Y-80802438D01*
X173666666Y-80802438D02*
X173714285Y-80850057D01*
X173714285Y-80850057D02*
X173761904Y-80945295D01*
X173761904Y-80945295D02*
X173761904Y-80992914D01*
X173761904Y-80992914D02*
X173714285Y-81088152D01*
X173714285Y-81088152D02*
X173666666Y-81135771D01*
X173666666Y-81135771D02*
X173571428Y-81183390D01*
X173571428Y-81183390D02*
X173380952Y-81183390D01*
X173380952Y-81183390D02*
X173285714Y-81231009D01*
X173285714Y-81231009D02*
X173238095Y-81278628D01*
X173238095Y-81278628D02*
X173190476Y-81373866D01*
X173190476Y-81373866D02*
X173190476Y-81564342D01*
X173190476Y-81564342D02*
X173238095Y-81659580D01*
X173238095Y-81659580D02*
X173285714Y-81707200D01*
X173285714Y-81707200D02*
X173380952Y-81754819D01*
X173380952Y-81754819D02*
X173571428Y-81754819D01*
X173571428Y-81754819D02*
X173666666Y-81707200D01*
X173666666Y-81707200D02*
X173714285Y-81659580D01*
X173714285Y-81659580D02*
X173761904Y-81564342D01*
X173761904Y-81564342D02*
X173761904Y-81373866D01*
X173761904Y-81373866D02*
X173714285Y-81278628D01*
X173714285Y-81278628D02*
X173666666Y-81231009D01*
X173666666Y-81231009D02*
X173571428Y-81183390D01*
D11*
X166431143Y-70492885D02*
X166331143Y-70350028D01*
X166259714Y-70492885D02*
X166259714Y-70192885D01*
X166259714Y-70192885D02*
X166374000Y-70192885D01*
X166374000Y-70192885D02*
X166402571Y-70207171D01*
X166402571Y-70207171D02*
X166416857Y-70221457D01*
X166416857Y-70221457D02*
X166431143Y-70250028D01*
X166431143Y-70250028D02*
X166431143Y-70292885D01*
X166431143Y-70292885D02*
X166416857Y-70321457D01*
X166416857Y-70321457D02*
X166402571Y-70335742D01*
X166402571Y-70335742D02*
X166374000Y-70350028D01*
X166374000Y-70350028D02*
X166259714Y-70350028D01*
X166531143Y-70192885D02*
X166731143Y-70492885D01*
X166731143Y-70192885D02*
X166531143Y-70492885D01*
X167002571Y-70492885D02*
X166831142Y-70492885D01*
X166916857Y-70492885D02*
X166916857Y-70192885D01*
X166916857Y-70192885D02*
X166888285Y-70235742D01*
X166888285Y-70235742D02*
X166859714Y-70264314D01*
X166859714Y-70264314D02*
X166831142Y-70278600D01*
D10*
X157961625Y-76577299D02*
X157961625Y-77145071D01*
X157961625Y-77145071D02*
X157995024Y-77211868D01*
X157995024Y-77211868D02*
X158028422Y-77245267D01*
X158028422Y-77245267D02*
X158095219Y-77278665D01*
X158095219Y-77278665D02*
X158228812Y-77278665D01*
X158228812Y-77278665D02*
X158295609Y-77245267D01*
X158295609Y-77245267D02*
X158329008Y-77211868D01*
X158329008Y-77211868D02*
X158362406Y-77145071D01*
X158362406Y-77145071D02*
X158362406Y-76577299D01*
X158662991Y-76644096D02*
X158696389Y-76610697D01*
X158696389Y-76610697D02*
X158763186Y-76577299D01*
X158763186Y-76577299D02*
X158930178Y-76577299D01*
X158930178Y-76577299D02*
X158996975Y-76610697D01*
X158996975Y-76610697D02*
X159030373Y-76644096D01*
X159030373Y-76644096D02*
X159063772Y-76710892D01*
X159063772Y-76710892D02*
X159063772Y-76777689D01*
X159063772Y-76777689D02*
X159030373Y-76877884D01*
X159030373Y-76877884D02*
X158629593Y-77278665D01*
X158629593Y-77278665D02*
X159063772Y-77278665D01*
X140033333Y-98754819D02*
X139700000Y-98278628D01*
X139461905Y-98754819D02*
X139461905Y-97754819D01*
X139461905Y-97754819D02*
X139842857Y-97754819D01*
X139842857Y-97754819D02*
X139938095Y-97802438D01*
X139938095Y-97802438D02*
X139985714Y-97850057D01*
X139985714Y-97850057D02*
X140033333Y-97945295D01*
X140033333Y-97945295D02*
X140033333Y-98088152D01*
X140033333Y-98088152D02*
X139985714Y-98183390D01*
X139985714Y-98183390D02*
X139938095Y-98231009D01*
X139938095Y-98231009D02*
X139842857Y-98278628D01*
X139842857Y-98278628D02*
X139461905Y-98278628D01*
X140509524Y-98754819D02*
X140700000Y-98754819D01*
X140700000Y-98754819D02*
X140795238Y-98707200D01*
X140795238Y-98707200D02*
X140842857Y-98659580D01*
X140842857Y-98659580D02*
X140938095Y-98516723D01*
X140938095Y-98516723D02*
X140985714Y-98326247D01*
X140985714Y-98326247D02*
X140985714Y-97945295D01*
X140985714Y-97945295D02*
X140938095Y-97850057D01*
X140938095Y-97850057D02*
X140890476Y-97802438D01*
X140890476Y-97802438D02*
X140795238Y-97754819D01*
X140795238Y-97754819D02*
X140604762Y-97754819D01*
X140604762Y-97754819D02*
X140509524Y-97802438D01*
X140509524Y-97802438D02*
X140461905Y-97850057D01*
X140461905Y-97850057D02*
X140414286Y-97945295D01*
X140414286Y-97945295D02*
X140414286Y-98183390D01*
X140414286Y-98183390D02*
X140461905Y-98278628D01*
X140461905Y-98278628D02*
X140509524Y-98326247D01*
X140509524Y-98326247D02*
X140604762Y-98373866D01*
X140604762Y-98373866D02*
X140795238Y-98373866D01*
X140795238Y-98373866D02*
X140890476Y-98326247D01*
X140890476Y-98326247D02*
X140938095Y-98278628D01*
X140938095Y-98278628D02*
X140985714Y-98183390D01*
D11*
X170570572Y-73748885D02*
X170742001Y-73748885D01*
X170656286Y-74048885D02*
X170656286Y-73748885D01*
X170813429Y-73748885D02*
X171013429Y-74048885D01*
X171013429Y-73748885D02*
X170813429Y-74048885D01*
X171113428Y-73777457D02*
X171127714Y-73763171D01*
X171127714Y-73763171D02*
X171156286Y-73748885D01*
X171156286Y-73748885D02*
X171227714Y-73748885D01*
X171227714Y-73748885D02*
X171256286Y-73763171D01*
X171256286Y-73763171D02*
X171270571Y-73777457D01*
X171270571Y-73777457D02*
X171284857Y-73806028D01*
X171284857Y-73806028D02*
X171284857Y-73834600D01*
X171284857Y-73834600D02*
X171270571Y-73877457D01*
X171270571Y-73877457D02*
X171099143Y-74048885D01*
X171099143Y-74048885D02*
X171284857Y-74048885D01*
D10*
X162341642Y-67161580D02*
X162294023Y-67209200D01*
X162294023Y-67209200D02*
X162151166Y-67256819D01*
X162151166Y-67256819D02*
X162055928Y-67256819D01*
X162055928Y-67256819D02*
X161913071Y-67209200D01*
X161913071Y-67209200D02*
X161817833Y-67113961D01*
X161817833Y-67113961D02*
X161770214Y-67018723D01*
X161770214Y-67018723D02*
X161722595Y-66828247D01*
X161722595Y-66828247D02*
X161722595Y-66685390D01*
X161722595Y-66685390D02*
X161770214Y-66494914D01*
X161770214Y-66494914D02*
X161817833Y-66399676D01*
X161817833Y-66399676D02*
X161913071Y-66304438D01*
X161913071Y-66304438D02*
X162055928Y-66256819D01*
X162055928Y-66256819D02*
X162151166Y-66256819D01*
X162151166Y-66256819D02*
X162294023Y-66304438D01*
X162294023Y-66304438D02*
X162341642Y-66352057D01*
X163294023Y-67256819D02*
X162722595Y-67256819D01*
X163008309Y-67256819D02*
X163008309Y-66256819D01*
X163008309Y-66256819D02*
X162913071Y-66399676D01*
X162913071Y-66399676D02*
X162817833Y-66494914D01*
X162817833Y-66494914D02*
X162722595Y-66542533D01*
X163627357Y-66256819D02*
X164246404Y-66256819D01*
X164246404Y-66256819D02*
X163913071Y-66637771D01*
X163913071Y-66637771D02*
X164055928Y-66637771D01*
X164055928Y-66637771D02*
X164151166Y-66685390D01*
X164151166Y-66685390D02*
X164198785Y-66733009D01*
X164198785Y-66733009D02*
X164246404Y-66828247D01*
X164246404Y-66828247D02*
X164246404Y-67066342D01*
X164246404Y-67066342D02*
X164198785Y-67161580D01*
X164198785Y-67161580D02*
X164151166Y-67209200D01*
X164151166Y-67209200D02*
X164055928Y-67256819D01*
X164055928Y-67256819D02*
X163770214Y-67256819D01*
X163770214Y-67256819D02*
X163674976Y-67209200D01*
X163674976Y-67209200D02*
X163627357Y-67161580D01*
X168659580Y-82142857D02*
X168707200Y-82190476D01*
X168707200Y-82190476D02*
X168754819Y-82333333D01*
X168754819Y-82333333D02*
X168754819Y-82428571D01*
X168754819Y-82428571D02*
X168707200Y-82571428D01*
X168707200Y-82571428D02*
X168611961Y-82666666D01*
X168611961Y-82666666D02*
X168516723Y-82714285D01*
X168516723Y-82714285D02*
X168326247Y-82761904D01*
X168326247Y-82761904D02*
X168183390Y-82761904D01*
X168183390Y-82761904D02*
X167992914Y-82714285D01*
X167992914Y-82714285D02*
X167897676Y-82666666D01*
X167897676Y-82666666D02*
X167802438Y-82571428D01*
X167802438Y-82571428D02*
X167754819Y-82428571D01*
X167754819Y-82428571D02*
X167754819Y-82333333D01*
X167754819Y-82333333D02*
X167802438Y-82190476D01*
X167802438Y-82190476D02*
X167850057Y-82142857D01*
X168754819Y-81190476D02*
X168754819Y-81761904D01*
X168754819Y-81476190D02*
X167754819Y-81476190D01*
X167754819Y-81476190D02*
X167897676Y-81571428D01*
X167897676Y-81571428D02*
X167992914Y-81666666D01*
X167992914Y-81666666D02*
X168040533Y-81761904D01*
X168088152Y-80333333D02*
X168754819Y-80333333D01*
X167707200Y-80571428D02*
X168421485Y-80809523D01*
X168421485Y-80809523D02*
X168421485Y-80190476D01*
X194033333Y-83154819D02*
X193700000Y-82678628D01*
X193461905Y-83154819D02*
X193461905Y-82154819D01*
X193461905Y-82154819D02*
X193842857Y-82154819D01*
X193842857Y-82154819D02*
X193938095Y-82202438D01*
X193938095Y-82202438D02*
X193985714Y-82250057D01*
X193985714Y-82250057D02*
X194033333Y-82345295D01*
X194033333Y-82345295D02*
X194033333Y-82488152D01*
X194033333Y-82488152D02*
X193985714Y-82583390D01*
X193985714Y-82583390D02*
X193938095Y-82631009D01*
X193938095Y-82631009D02*
X193842857Y-82678628D01*
X193842857Y-82678628D02*
X193461905Y-82678628D01*
X194890476Y-82154819D02*
X194700000Y-82154819D01*
X194700000Y-82154819D02*
X194604762Y-82202438D01*
X194604762Y-82202438D02*
X194557143Y-82250057D01*
X194557143Y-82250057D02*
X194461905Y-82392914D01*
X194461905Y-82392914D02*
X194414286Y-82583390D01*
X194414286Y-82583390D02*
X194414286Y-82964342D01*
X194414286Y-82964342D02*
X194461905Y-83059580D01*
X194461905Y-83059580D02*
X194509524Y-83107200D01*
X194509524Y-83107200D02*
X194604762Y-83154819D01*
X194604762Y-83154819D02*
X194795238Y-83154819D01*
X194795238Y-83154819D02*
X194890476Y-83107200D01*
X194890476Y-83107200D02*
X194938095Y-83059580D01*
X194938095Y-83059580D02*
X194985714Y-82964342D01*
X194985714Y-82964342D02*
X194985714Y-82726247D01*
X194985714Y-82726247D02*
X194938095Y-82631009D01*
X194938095Y-82631009D02*
X194890476Y-82583390D01*
X194890476Y-82583390D02*
X194795238Y-82535771D01*
X194795238Y-82535771D02*
X194604762Y-82535771D01*
X194604762Y-82535771D02*
X194509524Y-82583390D01*
X194509524Y-82583390D02*
X194461905Y-82631009D01*
X194461905Y-82631009D02*
X194414286Y-82726247D01*
X171801642Y-90275580D02*
X171754023Y-90323200D01*
X171754023Y-90323200D02*
X171611166Y-90370819D01*
X171611166Y-90370819D02*
X171515928Y-90370819D01*
X171515928Y-90370819D02*
X171373071Y-90323200D01*
X171373071Y-90323200D02*
X171277833Y-90227961D01*
X171277833Y-90227961D02*
X171230214Y-90132723D01*
X171230214Y-90132723D02*
X171182595Y-89942247D01*
X171182595Y-89942247D02*
X171182595Y-89799390D01*
X171182595Y-89799390D02*
X171230214Y-89608914D01*
X171230214Y-89608914D02*
X171277833Y-89513676D01*
X171277833Y-89513676D02*
X171373071Y-89418438D01*
X171373071Y-89418438D02*
X171515928Y-89370819D01*
X171515928Y-89370819D02*
X171611166Y-89370819D01*
X171611166Y-89370819D02*
X171754023Y-89418438D01*
X171754023Y-89418438D02*
X171801642Y-89466057D01*
X172754023Y-90370819D02*
X172182595Y-90370819D01*
X172468309Y-90370819D02*
X172468309Y-89370819D01*
X172468309Y-89370819D02*
X172373071Y-89513676D01*
X172373071Y-89513676D02*
X172277833Y-89608914D01*
X172277833Y-89608914D02*
X172182595Y-89656533D01*
X173230214Y-90370819D02*
X173420690Y-90370819D01*
X173420690Y-90370819D02*
X173515928Y-90323200D01*
X173515928Y-90323200D02*
X173563547Y-90275580D01*
X173563547Y-90275580D02*
X173658785Y-90132723D01*
X173658785Y-90132723D02*
X173706404Y-89942247D01*
X173706404Y-89942247D02*
X173706404Y-89561295D01*
X173706404Y-89561295D02*
X173658785Y-89466057D01*
X173658785Y-89466057D02*
X173611166Y-89418438D01*
X173611166Y-89418438D02*
X173515928Y-89370819D01*
X173515928Y-89370819D02*
X173325452Y-89370819D01*
X173325452Y-89370819D02*
X173230214Y-89418438D01*
X173230214Y-89418438D02*
X173182595Y-89466057D01*
X173182595Y-89466057D02*
X173134976Y-89561295D01*
X173134976Y-89561295D02*
X173134976Y-89799390D01*
X173134976Y-89799390D02*
X173182595Y-89894628D01*
X173182595Y-89894628D02*
X173230214Y-89942247D01*
X173230214Y-89942247D02*
X173325452Y-89989866D01*
X173325452Y-89989866D02*
X173515928Y-89989866D01*
X173515928Y-89989866D02*
X173611166Y-89942247D01*
X173611166Y-89942247D02*
X173658785Y-89894628D01*
X173658785Y-89894628D02*
X173706404Y-89799390D01*
X175894642Y-65039580D02*
X175847023Y-65087200D01*
X175847023Y-65087200D02*
X175704166Y-65134819D01*
X175704166Y-65134819D02*
X175608928Y-65134819D01*
X175608928Y-65134819D02*
X175466071Y-65087200D01*
X175466071Y-65087200D02*
X175370833Y-64991961D01*
X175370833Y-64991961D02*
X175323214Y-64896723D01*
X175323214Y-64896723D02*
X175275595Y-64706247D01*
X175275595Y-64706247D02*
X175275595Y-64563390D01*
X175275595Y-64563390D02*
X175323214Y-64372914D01*
X175323214Y-64372914D02*
X175370833Y-64277676D01*
X175370833Y-64277676D02*
X175466071Y-64182438D01*
X175466071Y-64182438D02*
X175608928Y-64134819D01*
X175608928Y-64134819D02*
X175704166Y-64134819D01*
X175704166Y-64134819D02*
X175847023Y-64182438D01*
X175847023Y-64182438D02*
X175894642Y-64230057D01*
X176847023Y-65134819D02*
X176275595Y-65134819D01*
X176561309Y-65134819D02*
X176561309Y-64134819D01*
X176561309Y-64134819D02*
X176466071Y-64277676D01*
X176466071Y-64277676D02*
X176370833Y-64372914D01*
X176370833Y-64372914D02*
X176275595Y-64420533D01*
X177799404Y-65134819D02*
X177227976Y-65134819D01*
X177513690Y-65134819D02*
X177513690Y-64134819D01*
X177513690Y-64134819D02*
X177418452Y-64277676D01*
X177418452Y-64277676D02*
X177323214Y-64372914D01*
X177323214Y-64372914D02*
X177227976Y-64420533D01*
X170259580Y-82142857D02*
X170307200Y-82190476D01*
X170307200Y-82190476D02*
X170354819Y-82333333D01*
X170354819Y-82333333D02*
X170354819Y-82428571D01*
X170354819Y-82428571D02*
X170307200Y-82571428D01*
X170307200Y-82571428D02*
X170211961Y-82666666D01*
X170211961Y-82666666D02*
X170116723Y-82714285D01*
X170116723Y-82714285D02*
X169926247Y-82761904D01*
X169926247Y-82761904D02*
X169783390Y-82761904D01*
X169783390Y-82761904D02*
X169592914Y-82714285D01*
X169592914Y-82714285D02*
X169497676Y-82666666D01*
X169497676Y-82666666D02*
X169402438Y-82571428D01*
X169402438Y-82571428D02*
X169354819Y-82428571D01*
X169354819Y-82428571D02*
X169354819Y-82333333D01*
X169354819Y-82333333D02*
X169402438Y-82190476D01*
X169402438Y-82190476D02*
X169450057Y-82142857D01*
X170354819Y-81190476D02*
X170354819Y-81761904D01*
X170354819Y-81476190D02*
X169354819Y-81476190D01*
X169354819Y-81476190D02*
X169497676Y-81571428D01*
X169497676Y-81571428D02*
X169592914Y-81666666D01*
X169592914Y-81666666D02*
X169640533Y-81761904D01*
X169354819Y-80285714D02*
X169354819Y-80761904D01*
X169354819Y-80761904D02*
X169831009Y-80809523D01*
X169831009Y-80809523D02*
X169783390Y-80761904D01*
X169783390Y-80761904D02*
X169735771Y-80666666D01*
X169735771Y-80666666D02*
X169735771Y-80428571D01*
X169735771Y-80428571D02*
X169783390Y-80333333D01*
X169783390Y-80333333D02*
X169831009Y-80285714D01*
X169831009Y-80285714D02*
X169926247Y-80238095D01*
X169926247Y-80238095D02*
X170164342Y-80238095D01*
X170164342Y-80238095D02*
X170259580Y-80285714D01*
X170259580Y-80285714D02*
X170307200Y-80333333D01*
X170307200Y-80333333D02*
X170354819Y-80428571D01*
X170354819Y-80428571D02*
X170354819Y-80666666D01*
X170354819Y-80666666D02*
X170307200Y-80761904D01*
X170307200Y-80761904D02*
X170259580Y-80809523D01*
X170608666Y-95720819D02*
X170608666Y-96435104D01*
X170608666Y-96435104D02*
X170561047Y-96577961D01*
X170561047Y-96577961D02*
X170465809Y-96673200D01*
X170465809Y-96673200D02*
X170322952Y-96720819D01*
X170322952Y-96720819D02*
X170227714Y-96720819D01*
X171608666Y-96720819D02*
X171037238Y-96720819D01*
X171322952Y-96720819D02*
X171322952Y-95720819D01*
X171322952Y-95720819D02*
X171227714Y-95863676D01*
X171227714Y-95863676D02*
X171132476Y-95958914D01*
X171132476Y-95958914D02*
X171037238Y-96006533D01*
D11*
X173110572Y-74510885D02*
X173282001Y-74510885D01*
X173196286Y-74810885D02*
X173196286Y-74510885D01*
X173353429Y-74510885D02*
X173553429Y-74810885D01*
X173553429Y-74510885D02*
X173353429Y-74810885D01*
X173824857Y-74810885D02*
X173653428Y-74810885D01*
X173739143Y-74810885D02*
X173739143Y-74510885D01*
X173739143Y-74510885D02*
X173710571Y-74553742D01*
X173710571Y-74553742D02*
X173682000Y-74582314D01*
X173682000Y-74582314D02*
X173653428Y-74596600D01*
D10*
X187285333Y-101292819D02*
X186952000Y-100816628D01*
X186713905Y-101292819D02*
X186713905Y-100292819D01*
X186713905Y-100292819D02*
X187094857Y-100292819D01*
X187094857Y-100292819D02*
X187190095Y-100340438D01*
X187190095Y-100340438D02*
X187237714Y-100388057D01*
X187237714Y-100388057D02*
X187285333Y-100483295D01*
X187285333Y-100483295D02*
X187285333Y-100626152D01*
X187285333Y-100626152D02*
X187237714Y-100721390D01*
X187237714Y-100721390D02*
X187190095Y-100769009D01*
X187190095Y-100769009D02*
X187094857Y-100816628D01*
X187094857Y-100816628D02*
X186713905Y-100816628D01*
X187618667Y-100292819D02*
X188237714Y-100292819D01*
X188237714Y-100292819D02*
X187904381Y-100673771D01*
X187904381Y-100673771D02*
X188047238Y-100673771D01*
X188047238Y-100673771D02*
X188142476Y-100721390D01*
X188142476Y-100721390D02*
X188190095Y-100769009D01*
X188190095Y-100769009D02*
X188237714Y-100864247D01*
X188237714Y-100864247D02*
X188237714Y-101102342D01*
X188237714Y-101102342D02*
X188190095Y-101197580D01*
X188190095Y-101197580D02*
X188142476Y-101245200D01*
X188142476Y-101245200D02*
X188047238Y-101292819D01*
X188047238Y-101292819D02*
X187761524Y-101292819D01*
X187761524Y-101292819D02*
X187666286Y-101245200D01*
X187666286Y-101245200D02*
X187618667Y-101197580D01*
X191759580Y-74366666D02*
X191807200Y-74414285D01*
X191807200Y-74414285D02*
X191854819Y-74557142D01*
X191854819Y-74557142D02*
X191854819Y-74652380D01*
X191854819Y-74652380D02*
X191807200Y-74795237D01*
X191807200Y-74795237D02*
X191711961Y-74890475D01*
X191711961Y-74890475D02*
X191616723Y-74938094D01*
X191616723Y-74938094D02*
X191426247Y-74985713D01*
X191426247Y-74985713D02*
X191283390Y-74985713D01*
X191283390Y-74985713D02*
X191092914Y-74938094D01*
X191092914Y-74938094D02*
X190997676Y-74890475D01*
X190997676Y-74890475D02*
X190902438Y-74795237D01*
X190902438Y-74795237D02*
X190854819Y-74652380D01*
X190854819Y-74652380D02*
X190854819Y-74557142D01*
X190854819Y-74557142D02*
X190902438Y-74414285D01*
X190902438Y-74414285D02*
X190950057Y-74366666D01*
X191854819Y-73414285D02*
X191854819Y-73985713D01*
X191854819Y-73699999D02*
X190854819Y-73699999D01*
X190854819Y-73699999D02*
X190997676Y-73795237D01*
X190997676Y-73795237D02*
X191092914Y-73890475D01*
X191092914Y-73890475D02*
X191140533Y-73985713D01*
X166223809Y-64396628D02*
X166223809Y-64872819D01*
X165890476Y-63872819D02*
X166223809Y-64396628D01*
X166223809Y-64396628D02*
X166557142Y-63872819D01*
X166842857Y-63968057D02*
X166890476Y-63920438D01*
X166890476Y-63920438D02*
X166985714Y-63872819D01*
X166985714Y-63872819D02*
X167223809Y-63872819D01*
X167223809Y-63872819D02*
X167319047Y-63920438D01*
X167319047Y-63920438D02*
X167366666Y-63968057D01*
X167366666Y-63968057D02*
X167414285Y-64063295D01*
X167414285Y-64063295D02*
X167414285Y-64158533D01*
X167414285Y-64158533D02*
X167366666Y-64301390D01*
X167366666Y-64301390D02*
X166795238Y-64872819D01*
X166795238Y-64872819D02*
X167414285Y-64872819D01*
X146550142Y-94854819D02*
X146216809Y-94378628D01*
X145978714Y-94854819D02*
X145978714Y-93854819D01*
X145978714Y-93854819D02*
X146359666Y-93854819D01*
X146359666Y-93854819D02*
X146454904Y-93902438D01*
X146454904Y-93902438D02*
X146502523Y-93950057D01*
X146502523Y-93950057D02*
X146550142Y-94045295D01*
X146550142Y-94045295D02*
X146550142Y-94188152D01*
X146550142Y-94188152D02*
X146502523Y-94283390D01*
X146502523Y-94283390D02*
X146454904Y-94331009D01*
X146454904Y-94331009D02*
X146359666Y-94378628D01*
X146359666Y-94378628D02*
X145978714Y-94378628D01*
X147502523Y-94854819D02*
X146931095Y-94854819D01*
X147216809Y-94854819D02*
X147216809Y-93854819D01*
X147216809Y-93854819D02*
X147121571Y-93997676D01*
X147121571Y-93997676D02*
X147026333Y-94092914D01*
X147026333Y-94092914D02*
X146931095Y-94140533D01*
X148454904Y-94854819D02*
X147883476Y-94854819D01*
X148169190Y-94854819D02*
X148169190Y-93854819D01*
X148169190Y-93854819D02*
X148073952Y-93997676D01*
X148073952Y-93997676D02*
X147978714Y-94092914D01*
X147978714Y-94092914D02*
X147883476Y-94140533D01*
D13*
%TO.C,R8*%
X191489064Y-77243000D02*
X191034936Y-77243000D01*
X191489064Y-78713000D02*
X191034936Y-78713000D01*
%TO.C,U1*%
X154046000Y-106667000D02*
X154046000Y-107927000D01*
X154046000Y-113487000D02*
X154046000Y-112227000D01*
X157806000Y-106667000D02*
X154046000Y-106667000D01*
X157806000Y-113487000D02*
X154046000Y-113487000D01*
X159326000Y-113717000D02*
X158846000Y-113717000D01*
X159086000Y-113387000D01*
X159326000Y-113717000D01*
G36*
X159326000Y-113717000D02*
G01*
X158846000Y-113717000D01*
X159086000Y-113387000D01*
X159326000Y-113717000D01*
G37*
%TO.C,GND1*%
X188152000Y-59690000D02*
G75*
G02*
X186752000Y-59690000I-700000J0D01*
G01*
X186752000Y-59690000D02*
G75*
G02*
X188152000Y-59690000I700000J0D01*
G01*
%TO.C,R7*%
X191489064Y-79529000D02*
X191034936Y-79529000D01*
X191489064Y-80999000D02*
X191034936Y-80999000D01*
%TO.C,DVDD1*%
X166054000Y-79502000D02*
G75*
G02*
X164654000Y-79502000I-700000J0D01*
G01*
X164654000Y-79502000D02*
G75*
G02*
X166054000Y-79502000I700000J0D01*
G01*
%TO.C,L1*%
X177816252Y-74982000D02*
X177293748Y-74982000D01*
X177816252Y-76402000D02*
X177293748Y-76402000D01*
%TO.C,C10*%
X178238748Y-69765000D02*
X178761252Y-69765000D01*
X178238748Y-71235000D02*
X178761252Y-71235000D01*
%TO.C,C17*%
X149760000Y-91436752D02*
X149760000Y-90914248D01*
X151230000Y-91436752D02*
X151230000Y-90914248D01*
%TO.C,J10*%
X157631000Y-85639500D02*
X157631000Y-93379500D01*
X157631000Y-85639500D02*
X160231000Y-85639500D01*
X157631000Y-93379500D02*
X162831000Y-93379500D01*
X160231000Y-85639500D02*
X160231000Y-88239500D01*
X160231000Y-88239500D02*
X162831000Y-88239500D01*
X161501000Y-85639500D02*
X162831000Y-85639500D01*
X162831000Y-85639500D02*
X162831000Y-86969500D01*
X162831000Y-88239500D02*
X162831000Y-93379500D01*
%TO.C,J12*%
X164278000Y-113708000D02*
X164278000Y-116368000D01*
X164278000Y-116368000D02*
X179638000Y-116368000D01*
X165228000Y-113310929D02*
X165228000Y-113708000D01*
X165228000Y-122368000D02*
X165228000Y-116368000D01*
X165988000Y-113310929D02*
X165988000Y-113708000D01*
X165988000Y-116368000D02*
X165988000Y-122368000D01*
X165988000Y-122368000D02*
X165228000Y-122368000D01*
X166878000Y-113708000D02*
X166878000Y-116368000D01*
X167768000Y-113310929D02*
X167768000Y-113708000D01*
X167768000Y-122368000D02*
X167768000Y-116368000D01*
X168528000Y-113310929D02*
X168528000Y-113708000D01*
X168528000Y-116368000D02*
X168528000Y-122368000D01*
X168528000Y-122368000D02*
X167768000Y-122368000D01*
X169418000Y-113708000D02*
X169418000Y-116368000D01*
X170308000Y-113310929D02*
X170308000Y-113708000D01*
X170308000Y-122368000D02*
X170308000Y-116368000D01*
X171068000Y-113310929D02*
X171068000Y-113708000D01*
X171068000Y-116368000D02*
X171068000Y-122368000D01*
X171068000Y-122368000D02*
X170308000Y-122368000D01*
X171958000Y-113708000D02*
X171958000Y-116368000D01*
X172848000Y-113310929D02*
X172848000Y-113708000D01*
X172848000Y-122368000D02*
X172848000Y-116368000D01*
X173608000Y-113310929D02*
X173608000Y-113708000D01*
X173608000Y-116368000D02*
X173608000Y-122368000D01*
X173608000Y-122368000D02*
X172848000Y-122368000D01*
X174498000Y-113708000D02*
X174498000Y-116368000D01*
X175388000Y-113310929D02*
X175388000Y-113708000D01*
X175388000Y-122368000D02*
X175388000Y-116368000D01*
X176148000Y-113310929D02*
X176148000Y-113708000D01*
X176148000Y-116368000D02*
X176148000Y-122368000D01*
X176148000Y-122368000D02*
X175388000Y-122368000D01*
X177038000Y-113708000D02*
X177038000Y-116368000D01*
X177928000Y-113378000D02*
X177928000Y-113708000D01*
X177928000Y-122368000D02*
X177928000Y-116368000D01*
X178028000Y-116368000D02*
X178028000Y-122368000D01*
X178148000Y-116368000D02*
X178148000Y-122368000D01*
X178268000Y-116368000D02*
X178268000Y-122368000D01*
X178308000Y-110998000D02*
X179578000Y-110998000D01*
X178388000Y-116368000D02*
X178388000Y-122368000D01*
X178508000Y-116368000D02*
X178508000Y-122368000D01*
X178628000Y-116368000D02*
X178628000Y-122368000D01*
X178688000Y-113378000D02*
X178688000Y-113708000D01*
X178688000Y-116368000D02*
X178688000Y-122368000D01*
X178688000Y-122368000D02*
X177928000Y-122368000D01*
X179578000Y-110998000D02*
X179578000Y-112268000D01*
X179638000Y-113708000D02*
X164278000Y-113708000D01*
X179638000Y-116368000D02*
X179638000Y-113708000D01*
%TO.C,C16*%
X172727252Y-84863000D02*
X172204748Y-84863000D01*
X172727252Y-86333000D02*
X172204748Y-86333000D01*
%TO.C,PC1*%
X186628000Y-82550000D02*
G75*
G02*
X185228000Y-82550000I-700000J0D01*
G01*
X185228000Y-82550000D02*
G75*
G02*
X186628000Y-82550000I700000J0D01*
G01*
%TO.C,C23*%
X146458000Y-101067252D02*
X146458000Y-100544748D01*
X147928000Y-101067252D02*
X147928000Y-100544748D01*
%TO.C,SW2*%
X171245000Y-101750000D02*
X172445000Y-101750000D01*
X171245000Y-105950000D02*
X171245000Y-101750000D01*
X172445000Y-105950000D02*
X171245000Y-105950000D01*
X180095000Y-105950000D02*
X180445000Y-105950000D01*
X180445000Y-101750000D02*
X179245000Y-101750000D01*
X180445000Y-105950000D02*
X180445000Y-101750000D01*
X179345000Y-106430000D02*
X179345000Y-105950000D01*
X179825000Y-105950000D01*
X179345000Y-106430000D01*
G36*
X179345000Y-106430000D02*
G01*
X179345000Y-105950000D01*
X179825000Y-105950000D01*
X179345000Y-106430000D01*
G37*
%TO.C,J8*%
X190694000Y-105918000D02*
X190694000Y-85538000D01*
X190694000Y-108518000D02*
X190694000Y-107188000D01*
X192024000Y-108518000D02*
X190694000Y-108518000D01*
X193294000Y-105918000D02*
X190694000Y-105918000D01*
X193294000Y-108518000D02*
X193294000Y-105918000D01*
X195894000Y-85538000D02*
X190694000Y-85538000D01*
X195894000Y-108518000D02*
X193294000Y-108518000D01*
X195894000Y-108518000D02*
X195894000Y-85538000D01*
%TO.C,C9*%
X158023752Y-71965000D02*
X157501248Y-71965000D01*
X158023752Y-73435000D02*
X157501248Y-73435000D01*
%TO.C,D2*%
X152964000Y-98280500D02*
X152964000Y-100965500D01*
X154884000Y-98280500D02*
X152964000Y-98280500D01*
X154884000Y-100965500D02*
X154884000Y-98280500D01*
%TO.C,C20*%
X157507000Y-96294752D02*
X157507000Y-95772248D01*
X158977000Y-96294752D02*
X158977000Y-95772248D01*
%TO.C,U6*%
X143769500Y-99394500D02*
X142969500Y-99394500D01*
X143769500Y-99394500D02*
X144569500Y-99394500D01*
X143769500Y-102514500D02*
X142969500Y-102514500D01*
X143769500Y-102514500D02*
X144569500Y-102514500D01*
X142469500Y-99444500D02*
X142229500Y-99114500D01*
X142709500Y-99114500D01*
X142469500Y-99444500D01*
G36*
X142469500Y-99444500D02*
G01*
X142229500Y-99114500D01*
X142709500Y-99114500D01*
X142469500Y-99444500D01*
G37*
%TO.C,D4*%
X156820000Y-102840000D02*
X158230000Y-102840000D01*
X156820000Y-105160000D02*
X158230000Y-105160000D01*
X158230000Y-102840000D02*
X158230000Y-103500000D01*
X158230000Y-104500000D02*
X158230000Y-105160000D01*
X156450000Y-102860000D02*
X156210000Y-102530000D01*
X156690000Y-102530000D01*
X156450000Y-102860000D01*
G36*
X156450000Y-102860000D02*
G01*
X156210000Y-102530000D01*
X156690000Y-102530000D01*
X156450000Y-102860000D01*
G37*
%TO.C,PA2/MISO/P71*%
X180786000Y-83566000D02*
G75*
G02*
X179386000Y-83566000I-700000J0D01*
G01*
X179386000Y-83566000D02*
G75*
G02*
X180786000Y-83566000I700000J0D01*
G01*
%TO.C,PA7/IRQ1*%
X158180000Y-80518000D02*
G75*
G02*
X156780000Y-80518000I-700000J0D01*
G01*
X156780000Y-80518000D02*
G75*
G02*
X158180000Y-80518000I700000J0D01*
G01*
%TO.C,PA5/RSTPD_N1*%
X166308000Y-83312000D02*
G75*
G02*
X164908000Y-83312000I-700000J0D01*
G01*
X164908000Y-83312000D02*
G75*
G02*
X166308000Y-83312000I700000J0D01*
G01*
%TO.C,PA3/SCK/P72*%
X183326000Y-83566000D02*
G75*
G02*
X181926000Y-83566000I-700000J0D01*
G01*
X181926000Y-83566000D02*
G75*
G02*
X183326000Y-83566000I700000J0D01*
G01*
%TO.C,R10*%
X159365000Y-65304936D02*
X159365000Y-65759064D01*
X160835000Y-65304936D02*
X160835000Y-65759064D01*
%TO.C,J4*%
X193455000Y-68005000D02*
X194725000Y-68005000D01*
X193455000Y-69275000D02*
X193455000Y-68005000D01*
X195767929Y-71435000D02*
X196165000Y-71435000D01*
X195767929Y-72195000D02*
X196165000Y-72195000D01*
X195767929Y-73975000D02*
X196165000Y-73975000D01*
X195767929Y-74735000D02*
X196165000Y-74735000D01*
X195835000Y-68895000D02*
X196165000Y-68895000D01*
X195835000Y-69655000D02*
X196165000Y-69655000D01*
X196165000Y-67945000D02*
X196165000Y-75685000D01*
X196165000Y-70545000D02*
X198825000Y-70545000D01*
X196165000Y-73085000D02*
X198825000Y-73085000D01*
X196165000Y-75685000D02*
X198825000Y-75685000D01*
X198825000Y-67945000D02*
X196165000Y-67945000D01*
X198825000Y-68895000D02*
X204825000Y-68895000D01*
X198825000Y-68955000D02*
X204825000Y-68955000D01*
X198825000Y-69075000D02*
X204825000Y-69075000D01*
X198825000Y-69195000D02*
X204825000Y-69195000D01*
X198825000Y-69315000D02*
X204825000Y-69315000D01*
X198825000Y-69435000D02*
X204825000Y-69435000D01*
X198825000Y-69555000D02*
X204825000Y-69555000D01*
X198825000Y-71435000D02*
X204825000Y-71435000D01*
X198825000Y-73975000D02*
X204825000Y-73975000D01*
X198825000Y-75685000D02*
X198825000Y-67945000D01*
X204825000Y-68895000D02*
X204825000Y-69655000D01*
X204825000Y-69655000D02*
X198825000Y-69655000D01*
X204825000Y-71435000D02*
X204825000Y-72195000D01*
X204825000Y-72195000D02*
X198825000Y-72195000D01*
X204825000Y-73975000D02*
X204825000Y-74735000D01*
X204825000Y-74735000D02*
X198825000Y-74735000D01*
%TO.C,PA4/NSS/SCL/HSU_RX1*%
X164276000Y-84074000D02*
G75*
G02*
X162876000Y-84074000I-700000J0D01*
G01*
X162876000Y-84074000D02*
G75*
G02*
X164276000Y-84074000I700000J0D01*
G01*
%TO.C,C7*%
X157161252Y-67265000D02*
X156638748Y-67265000D01*
X157161252Y-68735000D02*
X156638748Y-68735000D01*
%TO.C,J9*%
X160166000Y-99708500D02*
X160166000Y-94568500D01*
X162826000Y-94568500D02*
X160166000Y-94568500D01*
X162826000Y-99708500D02*
X160166000Y-99708500D01*
X162826000Y-99708500D02*
X162826000Y-94568500D01*
X162826000Y-100978500D02*
X162826000Y-102308500D01*
X162826000Y-102308500D02*
X161496000Y-102308500D01*
%TO.C,BT1*%
X153003000Y-85242000D02*
X151203000Y-87042000D01*
X153003000Y-64342000D02*
X153003000Y-85242000D01*
X153003000Y-64342000D02*
X148503000Y-64342000D01*
X151203000Y-87042000D02*
X148503000Y-87042000D01*
X150653000Y-87692000D02*
X150653000Y-89692000D01*
X149653000Y-88692000D02*
X151653000Y-88692000D01*
X148503000Y-90242000D02*
X146953000Y-90242000D01*
X148503000Y-87042000D02*
X148503000Y-90242000D01*
X148503000Y-64342000D02*
X148503000Y-61142000D01*
X148503000Y-61142000D02*
X146953000Y-61142000D01*
X140803000Y-90242000D02*
X142353000Y-90242000D01*
X140803000Y-87042000D02*
X140803000Y-90242000D01*
X140803000Y-64342000D02*
X140803000Y-61142000D01*
X140803000Y-61142000D02*
X142353000Y-61142000D01*
X136303000Y-87042000D02*
X140803000Y-87042000D01*
X136303000Y-87042000D02*
X136303000Y-64342000D01*
X136303000Y-64342000D02*
X140803000Y-64342000D01*
%TO.C,D5*%
X196200000Y-77556000D02*
X196200000Y-78256000D01*
X196850000Y-77556000D02*
X196200000Y-77556000D01*
X197500000Y-78756000D02*
G75*
G02*
X197500000Y-80756000I-400000J-1000000D01*
G01*
%TO.C,R5*%
X152765000Y-95937064D02*
X152765000Y-95482936D01*
X154235000Y-95937064D02*
X154235000Y-95482936D01*
%TO.C,C5*%
X182145000Y-74704752D02*
X182145000Y-74182248D01*
X183615000Y-74704752D02*
X183615000Y-74182248D01*
%TO.C,C8*%
X157163752Y-69705000D02*
X156641248Y-69705000D01*
X157163752Y-71175000D02*
X156641248Y-71175000D01*
%TO.C,I0*%
X160720000Y-68580000D02*
G75*
G02*
X159320000Y-68580000I-700000J0D01*
G01*
X159320000Y-68580000D02*
G75*
G02*
X160720000Y-68580000I700000J0D01*
G01*
%TO.C,Q1*%
X142397000Y-96842000D02*
X142397000Y-96192000D01*
X142397000Y-96842000D02*
X142397000Y-97492000D01*
X145517000Y-96842000D02*
X145517000Y-96192000D01*
X145517000Y-96842000D02*
X145517000Y-97492000D01*
X142447000Y-98004500D02*
X142117000Y-98244500D01*
X142117000Y-97764500D01*
X142447000Y-98004500D01*
G36*
X142447000Y-98004500D02*
G01*
X142117000Y-98244500D01*
X142117000Y-97764500D01*
X142447000Y-98004500D01*
G37*
%TO.C,PA1/MOSI/SDA/HSU_TX1*%
X177992000Y-83566000D02*
G75*
G02*
X176592000Y-83566000I-700000J0D01*
G01*
X176592000Y-83566000D02*
G75*
G02*
X177992000Y-83566000I700000J0D01*
G01*
%TO.C,U4*%
X153380000Y-91281000D02*
X153380000Y-90481000D01*
X153380000Y-91281000D02*
X153380000Y-92081000D01*
X156500000Y-91281000D02*
X156500000Y-90481000D01*
X156500000Y-91281000D02*
X156500000Y-92081000D01*
X156780000Y-90221000D02*
X156450000Y-89981000D01*
X156780000Y-89741000D01*
X156780000Y-90221000D01*
G36*
X156780000Y-90221000D02*
G01*
X156450000Y-89981000D01*
X156780000Y-89741000D01*
X156780000Y-90221000D01*
G37*
%TO.C,C3*%
X186398752Y-74665000D02*
X185876248Y-74665000D01*
X186398752Y-76135000D02*
X185876248Y-76135000D01*
%TO.C,+BAT1*%
X159196000Y-83566000D02*
G75*
G02*
X157796000Y-83566000I-700000J0D01*
G01*
X157796000Y-83566000D02*
G75*
G02*
X159196000Y-83566000I700000J0D01*
G01*
%TO.C,C2*%
X190235000Y-70361252D02*
X190235000Y-69838748D01*
X188765000Y-70361252D02*
X188765000Y-69838748D01*
%TO.C,D3*%
X150424000Y-98965500D02*
X150424000Y-101650500D01*
X150424000Y-101650500D02*
X152344000Y-101650500D01*
X152344000Y-101650500D02*
X152344000Y-98965500D01*
%TO.C,R1*%
X184127064Y-65765000D02*
X183672936Y-65765000D01*
X184127064Y-67235000D02*
X183672936Y-67235000D01*
%TO.C,PC2*%
X186628000Y-80264000D02*
G75*
G02*
X185228000Y-80264000I-700000J0D01*
G01*
X185228000Y-80264000D02*
G75*
G02*
X186628000Y-80264000I700000J0D01*
G01*
%TO.C,Q2*%
X143588500Y-104580000D02*
X142938500Y-104580000D01*
X143588500Y-104580000D02*
X144238500Y-104580000D01*
X143588500Y-107700000D02*
X142938500Y-107700000D01*
X143588500Y-107700000D02*
X144238500Y-107700000D01*
X142426000Y-104630000D02*
X142186000Y-104300000D01*
X142666000Y-104300000D01*
X142426000Y-104630000D01*
G36*
X142426000Y-104630000D02*
G01*
X142186000Y-104300000D01*
X142666000Y-104300000D01*
X142426000Y-104630000D01*
G37*
%TO.C,R4*%
X150649000Y-95969064D02*
X150649000Y-95514936D01*
X152119000Y-95969064D02*
X152119000Y-95514936D01*
%TO.C,U3*%
X178004000Y-85184000D02*
X178004000Y-85419000D01*
X178004000Y-98204000D02*
X178004000Y-97969000D01*
X181864000Y-85184000D02*
X178004000Y-85184000D01*
X181864000Y-85184000D02*
X185724000Y-85184000D01*
X181864000Y-98204000D02*
X178004000Y-98204000D01*
X181864000Y-98204000D02*
X185724000Y-98204000D01*
X185724000Y-85184000D02*
X185724000Y-85419000D01*
X185724000Y-98204000D02*
X185724000Y-97969000D01*
X177151500Y-85419000D02*
X176811500Y-84949000D01*
X177491500Y-84949000D01*
X177151500Y-85419000D01*
G36*
X177151500Y-85419000D02*
G01*
X176811500Y-84949000D01*
X177491500Y-84949000D01*
X177151500Y-85419000D01*
G37*
%TO.C,D1*%
X181436000Y-102243000D02*
X181436000Y-104513000D01*
X181436000Y-104513000D02*
X185496000Y-104513000D01*
X185496000Y-102243000D02*
X181436000Y-102243000D01*
%TO.C,R2*%
X174767000Y-69541064D02*
X174767000Y-69086936D01*
X176237000Y-69541064D02*
X176237000Y-69086936D01*
%TO.C,PC3*%
X186628000Y-77978000D02*
G75*
G02*
X185228000Y-77978000I-700000J0D01*
G01*
X185228000Y-77978000D02*
G75*
G02*
X186628000Y-77978000I700000J0D01*
G01*
%TO.C,I1*%
X160720000Y-70612000D02*
G75*
G02*
X159320000Y-70612000I-700000J0D01*
G01*
X159320000Y-70612000D02*
G75*
G02*
X160720000Y-70612000I700000J0D01*
G01*
%TO.C,L2*%
X172136252Y-71390000D02*
X171613748Y-71390000D01*
X172136252Y-72810000D02*
X171613748Y-72810000D01*
%TO.C,C21*%
X161219000Y-108594248D02*
X161219000Y-109116752D01*
X162689000Y-108594248D02*
X162689000Y-109116752D01*
%TO.C,C6*%
X182145000Y-70923752D02*
X182145000Y-70401248D01*
X183615000Y-70923752D02*
X183615000Y-70401248D01*
%TO.C,C12*%
X167146248Y-68099000D02*
X167668752Y-68099000D01*
X167146248Y-69569000D02*
X167668752Y-69569000D01*
%TO.C,C22*%
X149027000Y-109832248D02*
X149027000Y-110354752D01*
X150497000Y-109832248D02*
X150497000Y-110354752D01*
%TO.C,C18*%
X172727252Y-82323000D02*
X172204748Y-82323000D01*
X172727252Y-83793000D02*
X172204748Y-83793000D01*
%TO.C,RX1*%
X168340000Y-71374000D02*
G75*
G02*
X166940000Y-71374000I-700000J0D01*
G01*
X166940000Y-71374000D02*
G75*
G02*
X168340000Y-71374000I700000J0D01*
G01*
%TO.C,U2*%
D14*
X167251000Y-77609000D02*
G75*
G02*
X166997000Y-77609000I-127000J0D01*
G01*
X166997000Y-77609000D02*
G75*
G02*
X167251000Y-77609000I127000J0D01*
G01*
D13*
%TO.C,R9*%
X139473000Y-100616436D02*
X139473000Y-101070564D01*
X140943000Y-100616436D02*
X140943000Y-101070564D01*
%TO.C,TX2*%
X170118000Y-73700000D02*
G75*
G02*
X168718000Y-73700000I-700000J0D01*
G01*
X168718000Y-73700000D02*
G75*
G02*
X170118000Y-73700000I700000J0D01*
G01*
%TO.C,C13*%
X163307752Y-68099000D02*
X162785248Y-68099000D01*
X163307752Y-69569000D02*
X162785248Y-69569000D01*
%TO.C,C14*%
X167695000Y-77878748D02*
X167695000Y-78401252D01*
X169165000Y-77878748D02*
X169165000Y-78401252D01*
%TO.C,R6*%
X191489064Y-81942000D02*
X191034936Y-81942000D01*
X191489064Y-83412000D02*
X191034936Y-83412000D01*
%TO.C,C19*%
X172727252Y-87403000D02*
X172204748Y-87403000D01*
X172727252Y-88873000D02*
X172204748Y-88873000D01*
%TO.C,C11*%
X176798752Y-65665000D02*
X176276248Y-65665000D01*
X176798752Y-67135000D02*
X176276248Y-67135000D01*
%TO.C,C15*%
X169981000Y-77878748D02*
X169981000Y-78401252D01*
X171451000Y-77878748D02*
X171451000Y-78401252D01*
%TO.C,J1*%
X164532000Y-85538000D02*
X164532000Y-108518000D01*
X164532000Y-85538000D02*
X167132000Y-85538000D01*
X164532000Y-108518000D02*
X169732000Y-108518000D01*
X167132000Y-85538000D02*
X167132000Y-88138000D01*
X167132000Y-88138000D02*
X169732000Y-88138000D01*
X168402000Y-85538000D02*
X169732000Y-85538000D01*
X169732000Y-85538000D02*
X169732000Y-86868000D01*
X169732000Y-88138000D02*
X169732000Y-108518000D01*
%TO.C,TX1*%
X174182000Y-75946000D02*
G75*
G02*
X172782000Y-75946000I-700000J0D01*
G01*
X172782000Y-75946000D02*
G75*
G02*
X174182000Y-75946000I700000J0D01*
G01*
%TO.C,R3*%
X183668936Y-99849000D02*
X184123064Y-99849000D01*
X183668936Y-101319000D02*
X184123064Y-101319000D01*
%TO.C,C1*%
X188765000Y-74679252D02*
X188765000Y-74156748D01*
X190235000Y-74679252D02*
X190235000Y-74156748D01*
%TO.C,C4*%
X186398752Y-69535000D02*
X185876248Y-69535000D01*
X186398752Y-68065000D02*
X185876248Y-68065000D01*
%TO.C,Y2*%
X167620000Y-59318000D02*
X162220000Y-59318000D01*
X167620000Y-63618000D02*
X167620000Y-59318000D01*
%TO.C,R11*%
X146458000Y-96552436D02*
X146458000Y-97006564D01*
X147928000Y-96552436D02*
X147928000Y-97006564D01*
%TD*%
M02*
