%TF.GenerationSoftware,KiCad,Pcbnew,9.0.7*%
%TF.CreationDate,2026-04-09T16:38:02-07:00*%
%TF.ProjectId,PN7160_STM32,504e3731-3630-45f5-9354-4d33322e6b69,1.0*%
%TF.SameCoordinates,Original*%
%TF.FileFunction,Copper,L1,Top*%
%TF.FilePolarity,Positive*%
%FSLAX46Y46*%
G04 Gerber Fmt 4.6, Leading zero omitted, Abs format (unit mm)*
G04 Created by KiCad (PCBNEW 9.0.7) date 2026-04-09 16:38:02*
%MOMM*%
%LPD*%
G01*
G04 APERTURE LIST*
G04 Aperture macros list*
%AMRoundRect*
0 Rectangle with rounded corners*
0 $1 Rounding radius*
0 $2 $3 $4 $5 $6 $7 $8 $9 X,Y pos of 4 corners*
0 Add a 4 corners polygon primitive as box body*
4,1,4,$2,$3,$4,$5,$6,$7,$8,$9,$2,$3,0*
0 Add four circle primitives for the rounded corners*
1,1,$1+$1,$2,$3*
1,1,$1+$1,$4,$5*
1,1,$1+$1,$6,$7*
1,1,$1+$1,$8,$9*
0 Add four rect primitives between the rounded corners*
20,1,$1+$1,$2,$3,$4,$5,0*
20,1,$1+$1,$4,$5,$6,$7,0*
20,1,$1+$1,$6,$7,$8,$9,0*
20,1,$1+$1,$8,$9,$2,$3,0*%
G04 Aperture macros list end*
%TA.AperFunction,SMDPad,CuDef*%
%ADD10RoundRect,0.250000X-0.337500X-0.475000X0.337500X-0.475000X0.337500X0.475000X-0.337500X0.475000X0*%
%TD*%
%TA.AperFunction,SMDPad,CuDef*%
%ADD11RoundRect,0.250000X0.350000X0.450000X-0.350000X0.450000X-0.350000X-0.450000X0.350000X-0.450000X0*%
%TD*%
%TA.AperFunction,SMDPad,CuDef*%
%ADD12RoundRect,0.250000X-0.450000X0.350000X-0.450000X-0.350000X0.450000X-0.350000X0.450000X0.350000X0*%
%TD*%
%TA.AperFunction,SMDPad,CuDef*%
%ADD13RoundRect,0.237500X-0.237500X0.250000X-0.237500X-0.250000X0.237500X-0.250000X0.237500X0.250000X0*%
%TD*%
%TA.AperFunction,SMDPad,CuDef*%
%ADD14RoundRect,0.237500X0.237500X-0.300000X0.237500X0.300000X-0.237500X0.300000X-0.237500X-0.300000X0*%
%TD*%
%TA.AperFunction,SMDPad,CuDef*%
%ADD15RoundRect,0.250000X-0.350000X-0.450000X0.350000X-0.450000X0.350000X0.450000X-0.350000X0.450000X0*%
%TD*%
%TA.AperFunction,SMDPad,CuDef*%
%ADD16R,0.600000X1.150000*%
%TD*%
%TA.AperFunction,SMDPad,CuDef*%
%ADD17R,0.300000X1.150000*%
%TD*%
%TA.AperFunction,ComponentPad*%
%ADD18O,1.000000X1.800000*%
%TD*%
%TA.AperFunction,ComponentPad*%
%ADD19O,1.000000X2.200000*%
%TD*%
%TA.AperFunction,ComponentPad*%
%ADD20RoundRect,0.250000X0.600000X0.750000X-0.600000X0.750000X-0.600000X-0.750000X0.600000X-0.750000X0*%
%TD*%
%TA.AperFunction,ComponentPad*%
%ADD21O,1.700000X2.000000*%
%TD*%
%TA.AperFunction,SMDPad,CuDef*%
%ADD22RoundRect,0.237500X-0.237500X0.287500X-0.237500X-0.287500X0.237500X-0.287500X0.237500X0.287500X0*%
%TD*%
%TA.AperFunction,SMDPad,CuDef*%
%ADD23RoundRect,0.250000X0.475000X-0.337500X0.475000X0.337500X-0.475000X0.337500X-0.475000X-0.337500X0*%
%TD*%
%TA.AperFunction,SMDPad,CuDef*%
%ADD24RoundRect,0.250000X-0.475000X0.337500X-0.475000X-0.337500X0.475000X-0.337500X0.475000X0.337500X0*%
%TD*%
%TA.AperFunction,SMDPad,CuDef*%
%ADD25RoundRect,0.155000X0.155000X-0.212500X0.155000X0.212500X-0.155000X0.212500X-0.155000X-0.212500X0*%
%TD*%
%TA.AperFunction,SMDPad,CuDef*%
%ADD26RoundRect,0.250000X0.450000X-0.350000X0.450000X0.350000X-0.450000X0.350000X-0.450000X-0.350000X0*%
%TD*%
%TA.AperFunction,SMDPad,CuDef*%
%ADD27RoundRect,0.150000X-0.150000X-0.275000X0.150000X-0.275000X0.150000X0.275000X-0.150000X0.275000X0*%
%TD*%
%TA.AperFunction,SMDPad,CuDef*%
%ADD28RoundRect,0.175000X-0.175000X-0.225000X0.175000X-0.225000X0.175000X0.225000X-0.175000X0.225000X0*%
%TD*%
%TA.AperFunction,ComponentPad*%
%ADD29C,4.400000*%
%TD*%
%TA.AperFunction,SMDPad,CuDef*%
%ADD30RoundRect,0.250000X0.350000X-0.275000X0.350000X0.275000X-0.350000X0.275000X-0.350000X-0.275000X0*%
%TD*%
%TA.AperFunction,SMDPad,CuDef*%
%ADD31RoundRect,0.155000X-0.212500X-0.155000X0.212500X-0.155000X0.212500X0.155000X-0.212500X0.155000X0*%
%TD*%
%TA.AperFunction,SMDPad,CuDef*%
%ADD32R,0.800001X0.549999*%
%TD*%
%TA.AperFunction,SMDPad,CuDef*%
%ADD33RoundRect,0.237500X0.300000X0.237500X-0.300000X0.237500X-0.300000X-0.237500X0.300000X-0.237500X0*%
%TD*%
%TA.AperFunction,SMDPad,CuDef*%
%ADD34R,1.066800X0.711200*%
%TD*%
%TA.AperFunction,SMDPad,CuDef*%
%ADD35RoundRect,0.155000X-0.155000X0.212500X-0.155000X-0.212500X0.155000X-0.212500X0.155000X0.212500X0*%
%TD*%
%TA.AperFunction,SMDPad,CuDef*%
%ADD36R,1.250000X1.000000*%
%TD*%
%TA.AperFunction,SMDPad,CuDef*%
%ADD37R,1.150000X1.400000*%
%TD*%
%TA.AperFunction,SMDPad,CuDef*%
%ADD38RoundRect,0.237500X0.237500X-0.287500X0.237500X0.287500X-0.237500X0.287500X-0.237500X-0.287500X0*%
%TD*%
%TA.AperFunction,SMDPad,CuDef*%
%ADD39R,1.270000X0.508000*%
%TD*%
%TA.AperFunction,SMDPad,CuDef*%
%ADD40R,1.000000X1.250000*%
%TD*%
%TA.AperFunction,SMDPad,CuDef*%
%ADD41RoundRect,0.237500X-0.300000X-0.237500X0.300000X-0.237500X0.300000X0.237500X-0.300000X0.237500X0*%
%TD*%
%TA.AperFunction,SMDPad,CuDef*%
%ADD42RoundRect,0.237500X-0.237500X0.300000X-0.237500X-0.300000X0.237500X-0.300000X0.237500X0.300000X0*%
%TD*%
%TA.AperFunction,SMDPad,CuDef*%
%ADD43RoundRect,0.100000X-0.217500X-0.100000X0.217500X-0.100000X0.217500X0.100000X-0.217500X0.100000X0*%
%TD*%
%TA.AperFunction,SMDPad,CuDef*%
%ADD44R,0.254000X0.914400*%
%TD*%
%TA.AperFunction,SMDPad,CuDef*%
%ADD45R,0.914400X0.254000*%
%TD*%
%TA.AperFunction,SMDPad,CuDef*%
%ADD46R,4.241800X4.241800*%
%TD*%
%TA.AperFunction,ComponentPad*%
%ADD47R,1.700000X1.700000*%
%TD*%
%TA.AperFunction,ComponentPad*%
%ADD48C,1.700000*%
%TD*%
%TA.AperFunction,SMDPad,CuDef*%
%ADD49RoundRect,0.250000X0.337500X0.475000X-0.337500X0.475000X-0.337500X-0.475000X0.337500X-0.475000X0*%
%TD*%
%TA.AperFunction,SMDPad,CuDef*%
%ADD50RoundRect,0.100000X0.217500X0.100000X-0.217500X0.100000X-0.217500X-0.100000X0.217500X-0.100000X0*%
%TD*%
%TA.AperFunction,SMDPad,CuDef*%
%ADD51R,1.900000X1.100000*%
%TD*%
%TA.AperFunction,SMDPad,CuDef*%
%ADD52RoundRect,0.125000X-0.125000X0.487500X-0.125000X-0.487500X0.125000X-0.487500X0.125000X0.487500X0*%
%TD*%
%TA.AperFunction,ComponentPad*%
%ADD53RoundRect,0.250000X0.600000X0.725000X-0.600000X0.725000X-0.600000X-0.725000X0.600000X-0.725000X0*%
%TD*%
%TA.AperFunction,ComponentPad*%
%ADD54O,1.700000X1.950000*%
%TD*%
%TA.AperFunction,ComponentPad*%
%ADD55RoundRect,0.250000X-0.725000X0.600000X-0.725000X-0.600000X0.725000X-0.600000X0.725000X0.600000X0*%
%TD*%
%TA.AperFunction,ComponentPad*%
%ADD56O,1.950000X1.700000*%
%TD*%
%TA.AperFunction,ComponentPad*%
%ADD57RoundRect,0.250000X0.725000X-0.600000X0.725000X0.600000X-0.725000X0.600000X-0.725000X-0.600000X0*%
%TD*%
%TA.AperFunction,ViaPad*%
%ADD58C,0.600000*%
%TD*%
%TA.AperFunction,Conductor*%
%ADD59C,0.200000*%
%TD*%
%TA.AperFunction,Conductor*%
%ADD60C,0.300000*%
%TD*%
%TA.AperFunction,Conductor*%
%ADD61C,0.350000*%
%TD*%
G04 APERTURE END LIST*
D10*
%TO.P,C14,1*%
%TO.N,GND*%
X141516050Y-77588543D03*
%TO.P,C14,2*%
%TO.N,VCC*%
X143591050Y-77588543D03*
%TD*%
D11*
%TO.P,R22,1*%
%TO.N,Net-(C33-Pad1)*%
X169802380Y-114092673D03*
%TO.P,R22,2*%
%TO.N,Net-(C30-Pad2)*%
X167802380Y-114092673D03*
%TD*%
D12*
%TO.P,R8,1*%
%TO.N,Net-(D1-A)*%
X138127507Y-75112081D03*
%TO.P,R8,2*%
%TO.N,+3.3V*%
X138127507Y-77112081D03*
%TD*%
D13*
%TO.P,R20,1*%
%TO.N,Net-(C34-Pad1)*%
X161000000Y-116675000D03*
%TO.P,R20,2*%
%TO.N,/TX1_IN*%
X161000000Y-118500000D03*
%TD*%
D14*
%TO.P,C32,1*%
%TO.N,GND*%
X172000000Y-113362500D03*
%TO.P,C32,2*%
%TO.N,Net-(C32-Pad2)*%
X172000000Y-111637500D03*
%TD*%
D15*
%TO.P,R9,1*%
%TO.N,Net-(U5-FB)*%
X154428385Y-84283261D03*
%TO.P,R9,2*%
%TO.N,+BAT_OUT*%
X156428385Y-84283261D03*
%TD*%
D16*
%TO.P,J1,A1_B12,GND_A*%
%TO.N,GND*%
X153200000Y-77812500D03*
%TO.P,J1,A4_B9,VBUS_A*%
%TO.N,+5V*%
X152400000Y-77812500D03*
D17*
%TO.P,J1,A5,CC1*%
%TO.N,Net-(J1-CC1)*%
X151250000Y-77812500D03*
%TO.P,J1,A6,DP1*%
%TO.N,/PA12*%
X150250000Y-77812500D03*
%TO.P,J1,A7,DN1*%
%TO.N,/PA11*%
X149750000Y-77812500D03*
%TO.P,J1,A8,SBU1*%
%TO.N,unconnected-(J1-SBU1-PadA8)*%
X148750000Y-77812500D03*
D16*
%TO.P,J1,B1_A12,GND_B*%
%TO.N,GND*%
X146800000Y-77812500D03*
%TO.P,J1,B4_A9,VBUS_B*%
%TO.N,+5V*%
X147600000Y-77812500D03*
D17*
%TO.P,J1,B5,CC2*%
%TO.N,Net-(J1-CC2)*%
X148250000Y-77812500D03*
%TO.P,J1,B6,DP2*%
%TO.N,/PA12*%
X149250000Y-77812500D03*
%TO.P,J1,B7,DN2*%
%TO.N,/PA11*%
X150750000Y-77812500D03*
%TO.P,J1,B8,SBU2*%
%TO.N,unconnected-(J1-SBU2-PadB8)*%
X151750000Y-77812500D03*
D18*
%TO.P,J1,SH1,SHIELD*%
%TO.N,GND*%
X154320000Y-77237500D03*
%TO.P,J1,SH2,SHIELD__1*%
X145680000Y-77237500D03*
D19*
%TO.P,J1,SH3,SHIELD__2*%
X154320000Y-73237500D03*
%TO.P,J1,SH4,SHIELD__3*%
X145680000Y-73237500D03*
%TD*%
D20*
%TO.P,J10,1,Pin_1*%
%TO.N,/BAT_IN*%
X161000000Y-77500000D03*
D21*
%TO.P,J10,2,Pin_2*%
%TO.N,GND*%
X158500000Y-77500000D03*
%TD*%
D11*
%TO.P,R5,1*%
%TO.N,GND*%
X160500000Y-100500000D03*
%TO.P,R5,2*%
%TO.N,Net-(SW1-A)*%
X158500000Y-100500000D03*
%TD*%
D22*
%TO.P,L3,1,1*%
%TO.N,/TX1*%
X171000000Y-108000000D03*
%TO.P,L3,2,2*%
%TO.N,Net-(C32-Pad2)*%
X171000000Y-109750000D03*
%TD*%
D23*
%TO.P,C24,1*%
%TO.N,+3.3V*%
X166511710Y-92964675D03*
%TO.P,C24,2*%
%TO.N,GND*%
X166511710Y-90889675D03*
%TD*%
D24*
%TO.P,C26,1*%
%TO.N,+3.3V*%
X166500000Y-104962500D03*
%TO.P,C26,2*%
%TO.N,GND*%
X166500000Y-107037500D03*
%TD*%
D25*
%TO.P,C29,1*%
%TO.N,/XTAL1*%
X162000000Y-88067500D03*
%TO.P,C29,2*%
%TO.N,GND*%
X162000000Y-86932500D03*
%TD*%
D10*
%TO.P,C6,1*%
%TO.N,+3.3V*%
X144527360Y-83376136D03*
%TO.P,C6,2*%
%TO.N,GND*%
X146602360Y-83376136D03*
%TD*%
D26*
%TO.P,R1,1*%
%TO.N,Net-(J1-CC1)*%
X143822451Y-74169240D03*
%TO.P,R1,2*%
%TO.N,GND*%
X143822451Y-72169240D03*
%TD*%
D25*
%TO.P,C28,1*%
%TO.N,/XTAL2*%
X167000000Y-86000000D03*
%TO.P,C28,2*%
%TO.N,GND*%
X167000000Y-84865000D03*
%TD*%
D27*
%TO.P,J12,1,Pin_1*%
%TO.N,/TX1_IN*%
X161300000Y-121000000D03*
%TO.P,J12,2,Pin_2*%
%TO.N,/TX2_IN*%
X162500000Y-121000000D03*
D28*
%TO.P,J12,MP*%
%TO.N,N/C*%
X160150000Y-124775000D03*
X163650000Y-124775000D03*
%TD*%
D29*
%TO.P,H2,1,1*%
%TO.N,GND*%
X123966376Y-100000000D03*
%TD*%
D30*
%TO.P,L1,1,1*%
%TO.N,/BAT_IN*%
X151677320Y-85847791D03*
%TO.P,L1,2,2*%
%TO.N,Net-(U5-SW)*%
X151677320Y-83547791D03*
%TD*%
D31*
%TO.P,C5,1*%
%TO.N,GND*%
X128432500Y-88500000D03*
%TO.P,C5,2*%
%TO.N,Net-(U3-PH1-OSC_OUT)*%
X129567500Y-88500000D03*
%TD*%
D32*
%TO.P,U4,1,IN*%
%TO.N,VCC*%
X148515191Y-81739496D03*
%TO.P,U4,2,GND*%
%TO.N,GND*%
X148515191Y-80789495D03*
%TO.P,U4,3,EN*%
%TO.N,VCC*%
X148515191Y-79839497D03*
%TO.P,U4,4,NC*%
%TO.N,unconnected-(U4-NC-Pad4)*%
X145965191Y-79839497D03*
%TO.P,U4,5,OUT*%
%TO.N,+3.3V*%
X145965191Y-81739496D03*
%TD*%
D33*
%TO.P,C36,1*%
%TO.N,GND*%
X162862500Y-114500000D03*
%TO.P,C36,2*%
%TO.N,Net-(C34-Pad1)*%
X161137500Y-114500000D03*
%TD*%
D29*
%TO.P,H1,1,1*%
%TO.N,GND*%
X176000000Y-99817778D03*
%TD*%
D34*
%TO.P,XTAL1,1,1*%
%TO.N,/XTAL1*%
X164153800Y-85500000D03*
%TO.P,XTAL1,2*%
%TO.N,N/C*%
X164153800Y-86800000D03*
%TO.P,XTAL1,3,3*%
%TO.N,/XTAL2*%
X165500000Y-86800000D03*
%TO.P,XTAL1,4*%
%TO.N,N/C*%
X165500000Y-85500000D03*
%TD*%
D35*
%TO.P,C4,1*%
%TO.N,Net-(U3-PH0-OSC_IN)*%
X132500000Y-94395000D03*
%TO.P,C4,2*%
%TO.N,GND*%
X132500000Y-95530000D03*
%TD*%
D13*
%TO.P,R11,1*%
%TO.N,Net-(D2-A)*%
X156601093Y-87967318D03*
%TO.P,R11,2*%
%TO.N,/PB15*%
X156601093Y-89792318D03*
%TD*%
D24*
%TO.P,C15,1*%
%TO.N,GND*%
X162097443Y-81297488D03*
%TO.P,C15,2*%
%TO.N,+BAT_OUT*%
X162097443Y-83372488D03*
%TD*%
D36*
%TO.P,SW2,1,A*%
%TO.N,GND*%
X131250000Y-81000000D03*
%TO.P,SW2,2,B*%
%TO.N,Net-(SW2-B)*%
X139000000Y-81000000D03*
%TD*%
D37*
%TO.P,Y2,1*%
%TO.N,Net-(U3-PH0-OSC_IN)*%
X133588236Y-91631527D03*
%TO.P,Y2,2,GND*%
%TO.N,GND*%
X133588236Y-89431527D03*
%TO.P,Y2,3*%
%TO.N,Net-(U3-PH1-OSC_OUT)*%
X131988236Y-89431527D03*
%TO.P,Y2,4,GND__1*%
%TO.N,GND*%
X131988236Y-91631527D03*
%TD*%
D38*
%TO.P,D1,1,K*%
%TO.N,GND*%
X139943265Y-77128843D03*
%TO.P,D1,2,A*%
%TO.N,Net-(D1-A)*%
X139943265Y-75378843D03*
%TD*%
D11*
%TO.P,R19,1*%
%TO.N,Net-(C31-Pad2)*%
X175500000Y-109500000D03*
%TO.P,R19,2*%
%TO.N,Net-(C32-Pad2)*%
X173500000Y-109500000D03*
%TD*%
D22*
%TO.P,L2,1,1*%
%TO.N,/TX2*%
X169000000Y-110000000D03*
%TO.P,L2,2,2*%
%TO.N,Net-(C33-Pad1)*%
X169000000Y-111750000D03*
%TD*%
D39*
%TO.P,U5,1,SW*%
%TO.N,Net-(U5-SW)*%
X154033510Y-80812871D03*
%TO.P,U5,2,GND*%
%TO.N,GND*%
X154033510Y-81762872D03*
%TO.P,U5,3,EN*%
%TO.N,/BAT_IN*%
X154033510Y-82712873D03*
%TO.P,U5,4,FB*%
%TO.N,Net-(U5-FB)*%
X156471910Y-82712873D03*
%TO.P,U5,5,VOUT*%
%TO.N,+BAT_OUT*%
X156471910Y-81762872D03*
%TO.P,U5,6,VBAT*%
%TO.N,/BAT_IN*%
X156471910Y-80812871D03*
%TD*%
D10*
%TO.P,C27,1*%
%TO.N,+3.3V*%
X169689856Y-103778569D03*
%TO.P,C27,2*%
%TO.N,GND*%
X171764856Y-103778569D03*
%TD*%
D40*
%TO.P,SW1,1,A*%
%TO.N,Net-(SW1-A)*%
X155125919Y-95520588D03*
%TO.P,SW1,2,B*%
%TO.N,+3.3V*%
X155125919Y-103270588D03*
%TD*%
D10*
%TO.P,C11,1*%
%TO.N,Net-(SW1-A)*%
X158425000Y-98500000D03*
%TO.P,C11,2*%
%TO.N,GND*%
X160500000Y-98500000D03*
%TD*%
D41*
%TO.P,C37,1*%
%TO.N,Net-(C35-Pad2)*%
X166137500Y-119000000D03*
%TO.P,C37,2*%
%TO.N,GND*%
X167862500Y-119000000D03*
%TD*%
D42*
%TO.P,C33,1*%
%TO.N,Net-(C33-Pad1)*%
X170000000Y-116137500D03*
%TO.P,C33,2*%
%TO.N,GND*%
X170000000Y-117862500D03*
%TD*%
D25*
%TO.P,C3,1*%
%TO.N,GND*%
X135500000Y-97567500D03*
%TO.P,C3,2*%
%TO.N,Net-(U3-PC15-OSC32_OUT)*%
X135500000Y-96432500D03*
%TD*%
D26*
%TO.P,R2,1*%
%TO.N,Net-(J1-CC2)*%
X141874902Y-74706495D03*
%TO.P,R2,2*%
%TO.N,GND*%
X141874902Y-72706495D03*
%TD*%
D43*
%TO.P,C34,1*%
%TO.N,Net-(C34-Pad1)*%
X165000000Y-114000000D03*
%TO.P,C34,2*%
%TO.N,Net-(C32-Pad2)*%
X165815000Y-114000000D03*
%TD*%
D44*
%TO.P,U1,1,I2C_ADR0/SPI_NSS*%
%TO.N,Net-(U1-I2C_ADR0{slash}SPI_NSS)*%
X163264009Y-102247137D03*
%TO.P,U1,2,DWL_REQ_2C_ADR1/SPI_MOSI*%
%TO.N,/PA15*%
X163764135Y-102247137D03*
%TO.P,U1,3,I2C_ADR1/SPI_MOSI*%
%TO.N,Net-(U1-I2C_ADR1{slash}SPI_MOSI)*%
X164264261Y-102247137D03*
%TO.P,U1,4,VSS(PAD)*%
%TO.N,GND*%
X164764387Y-102247137D03*
%TO.P,U1,5,I2C_SDA/SPI_MISO*%
%TO.N,/SDA*%
X165264513Y-102247137D03*
%TO.P,U1,6,VDD(PAD)*%
%TO.N,+3.3V*%
X165764639Y-102247137D03*
%TO.P,U1,7,I2C_SCL/SPI_SCK*%
%TO.N,/SCL*%
X166264765Y-102247137D03*
%TO.P,U1,8,IRQ*%
%TO.N,/IRQ*%
X166764891Y-102247137D03*
%TO.P,U1,9,VSS(A)*%
%TO.N,GND*%
X167265017Y-102247137D03*
%TO.P,U1,10,VEN*%
%TO.N,/VEN*%
X167765143Y-102247137D03*
D45*
%TO.P,U1,11,IC*%
%TO.N,unconnected-(U1-IC-Pad11)*%
X168511776Y-101500504D03*
%TO.P,U1,12,VBAT2*%
%TO.N,+3.3V*%
X168511776Y-101000378D03*
%TO.P,U1,13,VDD(UP)*%
X168511776Y-100500252D03*
%TO.P,U1,14,VDD(TX)*%
%TO.N,/TVDD*%
X168511776Y-100000126D03*
%TO.P,U1,15,RXN*%
%TO.N,/RXN*%
X168511776Y-99500000D03*
%TO.P,U1,16,RXP*%
%TO.N,/RXP*%
X168511776Y-98999874D03*
%TO.P,U1,17,VDD(VMID)*%
%TO.N,Net-(U1-VDD(VMID))*%
X168511776Y-98499748D03*
%TO.P,U1,18,TVDD_IN*%
%TO.N,/TVDD*%
X168511776Y-97999622D03*
%TO.P,U1,19,TX2*%
%TO.N,/TX2*%
X168511776Y-97499496D03*
%TO.P,U1,20,VSS(TX)*%
%TO.N,GND*%
X168511776Y-96999370D03*
D44*
%TO.P,U1,21,TX1*%
%TO.N,/TX1*%
X167765143Y-96252737D03*
%TO.P,U1,22,TVDD_IN2*%
%TO.N,/TVDD*%
X167265017Y-96252737D03*
%TO.P,U1,23,ANT1*%
%TO.N,unconnected-(U1-ANT1-Pad23)*%
X166764891Y-96252737D03*
%TO.P,U1,24,ANT2*%
%TO.N,unconnected-(U1-ANT2-Pad24)*%
X166264765Y-96252737D03*
%TO.P,U1,25,VDD(HF)*%
%TO.N,unconnected-(U1-VDD(HF)-Pad25)*%
X165764639Y-96252737D03*
%TO.P,U1,26,VDD(A)*%
%TO.N,/VDD_INT*%
X165264513Y-96252737D03*
%TO.P,U1,27,VDD*%
X164764387Y-96252737D03*
%TO.P,U1,28,VBAT*%
%TO.N,+3.3V*%
X164264261Y-96252737D03*
%TO.P,U1,29,XTAL2*%
%TO.N,/XTAL2*%
X163764135Y-96252737D03*
%TO.P,U1,30,NFC_CLK_XTAL1*%
%TO.N,/XTAL1*%
X163264009Y-96252737D03*
D45*
%TO.P,U1,31,VDD(D)*%
%TO.N,/VDD_INT*%
X162517376Y-96999370D03*
%TO.P,U1,32,NC*%
%TO.N,unconnected-(U1-NC-Pad32)*%
X162517376Y-97499496D03*
%TO.P,U1,33,NC*%
%TO.N,unconnected-(U1-NC-Pad33)*%
X162517376Y-97999622D03*
%TO.P,U1,34,NC*%
%TO.N,unconnected-(U1-NC-Pad34)*%
X162517376Y-98499748D03*
%TO.P,U1,35,NC*%
%TO.N,unconnected-(U1-NC-Pad35)*%
X162517376Y-98999874D03*
%TO.P,U1,36,NC*%
%TO.N,unconnected-(U1-NC-Pad36)*%
X162517376Y-99500000D03*
%TO.P,U1,37,IC*%
%TO.N,unconnected-(U1-IC-Pad37)*%
X162517376Y-100000126D03*
%TO.P,U1,38,IC*%
%TO.N,unconnected-(U1-IC-Pad38)*%
X162517376Y-100500252D03*
%TO.P,U1,39,WKUP_REQ*%
%TO.N,/PA14*%
X162517376Y-101000378D03*
%TO.P,U1,40,CLK_REQ*%
%TO.N,unconnected-(U1-CLK_REQ-Pad40)*%
X162517376Y-101500504D03*
D46*
%TO.P,U1,41,EPAD*%
%TO.N,GND*%
X165514576Y-99249937D03*
%TD*%
D23*
%TO.P,C25,1*%
%TO.N,+3.3V*%
X164500000Y-92962500D03*
%TO.P,C25,2*%
%TO.N,GND*%
X164500000Y-90887500D03*
%TD*%
D24*
%TO.P,C16,1*%
%TO.N,GND*%
X149799796Y-83962500D03*
%TO.P,C16,2*%
%TO.N,/BAT_IN*%
X149799796Y-86037500D03*
%TD*%
D42*
%TO.P,C31,1*%
%TO.N,/RXP*%
X173000000Y-106000000D03*
%TO.P,C31,2*%
%TO.N,Net-(C31-Pad2)*%
X173000000Y-107725000D03*
%TD*%
D35*
%TO.P,C2,1*%
%TO.N,Net-(U3-PC14-OSC32_IN)*%
X138500000Y-98932500D03*
%TO.P,C2,2*%
%TO.N,GND*%
X138500000Y-100067500D03*
%TD*%
D26*
%TO.P,R14,1*%
%TO.N,GND*%
X163536144Y-106270297D03*
%TO.P,R14,2*%
%TO.N,Net-(U1-I2C_ADR1{slash}SPI_MOSI)*%
X163536144Y-104270297D03*
%TD*%
%TO.P,R15,1*%
%TO.N,GND*%
X161208986Y-105787336D03*
%TO.P,R15,2*%
%TO.N,Net-(U1-I2C_ADR0{slash}SPI_NSS)*%
X161208986Y-103787336D03*
%TD*%
D38*
%TO.P,D2,1,K*%
%TO.N,GND*%
X154863758Y-89874999D03*
%TO.P,D2,2,A*%
%TO.N,Net-(D2-A)*%
X154863758Y-88124999D03*
%TD*%
D10*
%TO.P,C10,1*%
%TO.N,+3.3V*%
X144506684Y-85350658D03*
%TO.P,C10,2*%
%TO.N,GND*%
X146581684Y-85350658D03*
%TD*%
D47*
%TO.P,J11,1,Pin_1*%
%TO.N,/PA0*%
X157101288Y-105965962D03*
D48*
%TO.P,J11,2,Pin_2*%
%TO.N,/PB13*%
X154561288Y-105965962D03*
%TO.P,J11,3,Pin_3*%
%TO.N,/PA1*%
X157101288Y-108505962D03*
%TO.P,J11,4,Pin_4*%
%TO.N,/PB14*%
X154561288Y-108505962D03*
%TO.P,J11,5,Pin_5*%
%TO.N,/PA2*%
X157101288Y-111045962D03*
%TO.P,J11,6,Pin_6*%
%TO.N,/PA8*%
X154561288Y-111045962D03*
%TO.P,J11,7,Pin_7*%
%TO.N,/PA3*%
X157101288Y-113585962D03*
%TO.P,J11,8,Pin_8*%
%TO.N,/PA9*%
X154561288Y-113585962D03*
%TO.P,J11,9,Pin_9*%
%TO.N,/PA6*%
X157101288Y-116125962D03*
%TO.P,J11,10,Pin_10*%
%TO.N,/PB3*%
X154561288Y-116125962D03*
%TO.P,J11,11,Pin_11*%
%TO.N,/PA7*%
X157101288Y-118665962D03*
%TO.P,J11,12,Pin_12*%
%TO.N,/PB4*%
X154561288Y-118665962D03*
%TO.P,J11,13,Pin_13*%
%TO.N,/PB1*%
X157101288Y-121205962D03*
%TO.P,J11,14,Pin_14*%
%TO.N,/PB5*%
X154561288Y-121205962D03*
%TO.P,J11,15,Pin_15*%
%TO.N,/PB10*%
X157101288Y-123745962D03*
%TO.P,J11,16,Pin_16*%
%TO.N,GND*%
X154561288Y-123745962D03*
%TO.P,J11,17,Pin_17*%
%TO.N,/PB12*%
X157101288Y-126285962D03*
%TO.P,J11,18,Pin_18*%
%TO.N,+3.3V*%
X154561288Y-126285962D03*
%TD*%
D49*
%TO.P,C12,1*%
%TO.N,Net-(SW2-B)*%
X132037500Y-84500000D03*
%TO.P,C12,2*%
%TO.N,GND*%
X129962500Y-84500000D03*
%TD*%
D13*
%TO.P,R21,1*%
%TO.N,Net-(C35-Pad2)*%
X166500000Y-121087500D03*
%TO.P,R21,2*%
%TO.N,/TX2_IN*%
X166500000Y-122912500D03*
%TD*%
D50*
%TO.P,C35,1*%
%TO.N,Net-(C33-Pad1)*%
X165907500Y-116500000D03*
%TO.P,C35,2*%
%TO.N,Net-(C35-Pad2)*%
X165092500Y-116500000D03*
%TD*%
D51*
%TO.P,Y1,1*%
%TO.N,Net-(U3-PC14-OSC32_IN)*%
X138500000Y-96750000D03*
%TO.P,Y1,2*%
%TO.N,Net-(U3-PC15-OSC32_OUT)*%
X138500000Y-94250000D03*
%TD*%
D42*
%TO.P,C30,1*%
%TO.N,/RXN*%
X166000000Y-110500000D03*
%TO.P,C30,2*%
%TO.N,Net-(C30-Pad2)*%
X166000000Y-112225000D03*
%TD*%
D10*
%TO.P,C19,1*%
%TO.N,Net-(U1-VDD(VMID))*%
X174537283Y-95989243D03*
%TO.P,C19,2*%
%TO.N,GND*%
X176612283Y-95989243D03*
%TD*%
D52*
%TO.P,D5,1*%
%TO.N,+BAT_OUT*%
X152620523Y-79662018D03*
%TO.P,D5,2*%
%TO.N,+5V*%
X151320523Y-79662018D03*
%TO.P,D5,3*%
%TO.N,VCC*%
X151970523Y-81537018D03*
%TD*%
D11*
%TO.P,R10,1*%
%TO.N,GND*%
X156351092Y-86191669D03*
%TO.P,R10,2*%
%TO.N,Net-(U5-FB)*%
X154351092Y-86191669D03*
%TD*%
D10*
%TO.P,C13,1*%
%TO.N,GND*%
X141478934Y-79629904D03*
%TO.P,C13,2*%
%TO.N,+3.3V*%
X143553934Y-79629904D03*
%TD*%
D53*
%TO.P,J2,1,Pin_1*%
%TO.N,GND*%
X145000000Y-121000000D03*
D54*
%TO.P,J2,2,Pin_2*%
%TO.N,+3.3V*%
X142500000Y-121000000D03*
%TO.P,J2,3,Pin_3*%
%TO.N,/SD0*%
X140000000Y-121000000D03*
%TO.P,J2,4,Pin_4*%
%TO.N,/SC0*%
X137500000Y-121000000D03*
%TD*%
D55*
%TO.P,J7,1,Pin_1*%
%TO.N,GND*%
X136000000Y-86000000D03*
D56*
%TO.P,J7,2,Pin_2*%
%TO.N,+3.3V*%
X136000000Y-88500000D03*
%TO.P,J7,3,Pin_3*%
%TO.N,/SD5*%
X136000000Y-91000000D03*
%TO.P,J7,4,Pin_4*%
%TO.N,/SC5*%
X136000000Y-93500000D03*
%TD*%
D55*
%TO.P,J4,1,Pin_1*%
%TO.N,GND*%
X136500000Y-107500000D03*
D56*
%TO.P,J4,2,Pin_2*%
%TO.N,+3.3V*%
X136500000Y-110000000D03*
%TO.P,J4,3,Pin_3*%
%TO.N,/SD2*%
X136500000Y-112500000D03*
%TO.P,J4,4,Pin_4*%
%TO.N,/SC2*%
X136500000Y-115000000D03*
%TD*%
D55*
%TO.P,J3,1,Pin_1*%
%TO.N,GND*%
X143500000Y-107500000D03*
D56*
%TO.P,J3,2,Pin_2*%
%TO.N,+3.3V*%
X143500000Y-110000000D03*
%TO.P,J3,3,Pin_3*%
%TO.N,/SD1*%
X143500000Y-112500000D03*
%TO.P,J3,4,Pin_4*%
%TO.N,/SC1*%
X143500000Y-115000000D03*
%TD*%
D57*
%TO.P,J5,1,Pin_1*%
%TO.N,GND*%
X130500000Y-115000000D03*
D56*
%TO.P,J5,2,Pin_2*%
%TO.N,+3.3V*%
X130500000Y-112500000D03*
%TO.P,J5,3,Pin_3*%
%TO.N,/SD3*%
X130500000Y-110000000D03*
%TO.P,J5,4,Pin_4*%
%TO.N,/SC3*%
X130500000Y-107500000D03*
%TD*%
D55*
%TO.P,J6,1,Pin_1*%
%TO.N,GND*%
X129000000Y-91500000D03*
D56*
%TO.P,J6,2,Pin_2*%
%TO.N,+3.3V*%
X129000000Y-94000000D03*
%TO.P,J6,3,Pin_3*%
%TO.N,/SD4*%
X129000000Y-96500000D03*
%TO.P,J6,4,Pin_4*%
%TO.N,/SC4*%
X129000000Y-99000000D03*
%TD*%
D47*
%TO.P,J9,1,Pin_1*%
%TO.N,+3.3V*%
X141908487Y-82472694D03*
D48*
%TO.P,J9,2,Pin_2*%
%TO.N,unconnected-(J9-Pin_2-Pad2)*%
X141908487Y-85012694D03*
%TO.P,J9,3,Pin_3*%
%TO.N,GND*%
X141908487Y-87552694D03*
%TO.P,J9,4,Pin_4*%
%TO.N,/SCL*%
X141908487Y-90092694D03*
%TO.P,J9,5,Pin_5*%
%TO.N,/SDA*%
X141908487Y-92632694D03*
%TO.P,J9,6,Pin_6*%
%TO.N,/IMU_INT*%
X141908487Y-95172694D03*
%TD*%
D47*
%TO.P,J8,1,Pin_1*%
%TO.N,/BT*%
X159133644Y-82271803D03*
D48*
%TO.P,J8,2,Pin_2*%
%TO.N,GND*%
X159133644Y-84811803D03*
%TO.P,J8,3,Pin_3*%
X159133644Y-87351803D03*
%TO.P,J8,4,Pin_4*%
%TO.N,/IMU_RST*%
X159133644Y-89891803D03*
%TO.P,J8,5,Pin_5*%
%TO.N,unconnected-(J8-Pin_5-Pad5)*%
X159133644Y-92431803D03*
%TO.P,J8,6,Pin_6*%
%TO.N,unconnected-(J8-Pin_6-Pad6)*%
X159133644Y-94971803D03*
%TD*%
D58*
%TO.N,GND*%
X151000000Y-82522791D03*
X170500000Y-91000000D03*
X178000000Y-96000000D03*
X133000000Y-103362500D03*
X172000000Y-114500000D03*
X146000000Y-97500000D03*
X163636631Y-81303224D03*
X141710322Y-75933016D03*
X152287045Y-86981076D03*
X146339906Y-85108881D03*
X149799796Y-83662703D03*
X145936889Y-83000000D03*
X160501132Y-106498868D03*
X163500000Y-115500000D03*
X168862500Y-119000000D03*
X165500000Y-90000000D03*
X162000000Y-86932500D03*
X159000000Y-97000000D03*
X164500000Y-84260803D03*
X156000000Y-73000000D03*
X172000000Y-105500000D03*
X166500000Y-108000000D03*
X155325735Y-100674265D03*
X148534798Y-80614498D03*
%TO.N,Net-(U3-PC14-OSC32_IN)*%
X143659487Y-94500000D03*
%TO.N,Net-(U3-PC15-OSC32_OUT)*%
X143563930Y-93458829D03*
%TO.N,Net-(U3-PH0-OSC_IN)*%
X143500000Y-91500000D03*
%TO.N,Net-(U3-PH1-OSC_OUT)*%
X138500000Y-89000000D03*
%TO.N,+3.3V*%
X166018750Y-104481250D03*
X164500000Y-94500000D03*
X155000000Y-94100000D03*
X142000000Y-104000000D03*
X153456517Y-87361545D03*
X139375185Y-79124815D03*
X170000000Y-105500000D03*
X142712500Y-101212500D03*
X156393459Y-103393459D03*
X144209831Y-85350658D03*
X146500000Y-95000000D03*
%TO.N,VCC*%
X149500000Y-81500000D03*
X151350000Y-81605282D03*
%TO.N,+BAT_OUT*%
X154000000Y-79500000D03*
X156471910Y-81762872D03*
%TO.N,/TVDD*%
X170500000Y-94075000D03*
X170000000Y-100000000D03*
X170500000Y-97500000D03*
%TO.N,/VDD_INT*%
X165500000Y-94500000D03*
X162664009Y-95250000D03*
%TO.N,/RXN*%
X171000000Y-100000000D03*
X167816666Y-108845669D03*
%TO.N,+5V*%
X152385979Y-76429166D03*
X147650000Y-76428000D03*
%TO.N,/PA12*%
X155500000Y-92500000D03*
%TO.N,/PA11*%
X155296143Y-91703857D03*
%TO.N,/IMU_RST*%
X148246287Y-96297030D03*
%TO.N,/SCL*%
X148500000Y-98500000D03*
%TO.N,/SDA*%
X148995025Y-97860711D03*
%TO.N,/IMU_INT*%
X145523502Y-95500000D03*
%TO.N,/PB1*%
X159100000Y-122500000D03*
%TO.N,/PA2*%
X165500000Y-78500000D03*
X168500000Y-88000000D03*
X163500000Y-112000000D03*
%TO.N,/PA0*%
X165500000Y-76000000D03*
X170000000Y-90000000D03*
X164500000Y-110000000D03*
%TO.N,/PA3*%
X163000000Y-113000000D03*
X164500000Y-79500000D03*
X167500000Y-87000000D03*
%TO.N,/PA1*%
X165000000Y-77500000D03*
X169500000Y-89000000D03*
X164000000Y-111000000D03*
%TO.N,/PB10*%
X159806251Y-121017374D03*
%TO.N,/PA7*%
X161000000Y-123500000D03*
%TO.N,/TX2*%
X169000000Y-108500000D03*
X171849943Y-97674971D03*
%TO.N,/TX1*%
X171000000Y-106000000D03*
X173000000Y-97500000D03*
%TO.N,/PB15*%
X156825735Y-90825735D03*
%TO.N,/PA15*%
X161023108Y-102568644D03*
X153400000Y-96448578D03*
%TO.N,/IRQ*%
X147648954Y-87225735D03*
%TO.N,/VEN*%
X147365956Y-86477459D03*
%TO.N,/PA14*%
X154000000Y-97000000D03*
%TO.N,Net-(SW1-A)*%
X149808306Y-97281902D03*
%TO.N,Net-(SW2-B)*%
X139000000Y-82500000D03*
%TD*%
D59*
%TO.N,GND*%
X145936889Y-83341514D02*
X146339906Y-83744531D01*
X145936889Y-83000000D02*
X145936889Y-83341514D01*
X135500000Y-97567500D02*
X135500000Y-100862500D01*
D60*
X146255000Y-77812500D02*
X145680000Y-77237500D01*
D59*
X172000000Y-105500000D02*
X171764856Y-105264856D01*
X164500000Y-90887500D02*
X166509535Y-90887500D01*
X152249059Y-87260300D02*
X154863758Y-89874999D01*
D60*
X131462500Y-86000000D02*
X129962500Y-84500000D01*
D59*
X154320000Y-77237500D02*
X154320000Y-73237500D01*
D60*
X156351092Y-86191669D02*
X157973510Y-86191669D01*
X155000000Y-77917500D02*
X154320000Y-77237500D01*
X157973510Y-86191669D02*
X159133644Y-87351803D01*
D59*
X131131527Y-91631527D02*
X131000000Y-91500000D01*
X141478934Y-79629904D02*
X141478934Y-77625659D01*
X166509535Y-90887500D02*
X166511710Y-90889675D01*
X159887800Y-97000000D02*
X160500000Y-97612200D01*
X166395803Y-84260803D02*
X164500000Y-84260803D01*
X131988236Y-91631527D02*
X131988236Y-91506527D01*
X141516050Y-76127288D02*
X141710322Y-75933016D01*
X132282760Y-95530000D02*
X129000000Y-92247240D01*
D60*
X154033510Y-81762872D02*
X154414510Y-81762872D01*
X131000000Y-81000000D02*
X129962500Y-82037500D01*
D59*
X161530000Y-86462500D02*
X160022947Y-86462500D01*
D60*
X162097443Y-81297488D02*
X163630895Y-81297488D01*
D59*
X164500000Y-90887500D02*
X164612500Y-90887500D01*
D60*
X141516050Y-77588543D02*
X140402965Y-77588543D01*
D59*
X172000000Y-113362500D02*
X172000000Y-114500000D01*
X164612500Y-90887500D02*
X165500000Y-90000000D01*
X167265017Y-102247137D02*
X167265017Y-101000378D01*
D60*
X146800000Y-77812500D02*
X146255000Y-77812500D01*
D59*
X133588236Y-89906527D02*
X133588236Y-89431527D01*
X160501132Y-106495190D02*
X160501132Y-106498868D01*
X167693017Y-97071496D02*
X165514576Y-99249937D01*
X128432500Y-88500000D02*
X127962500Y-88970000D01*
X160501132Y-106498868D02*
X160500000Y-106500000D01*
X161691947Y-106270297D02*
X161208986Y-105787336D01*
X141516050Y-77588543D02*
X141516050Y-76127288D01*
D60*
X153200000Y-77812500D02*
X153745000Y-77812500D01*
D59*
X141874902Y-72706495D02*
X140873902Y-73707495D01*
X162000000Y-86932500D02*
X161530000Y-86462500D01*
X167000000Y-84865000D02*
X166395803Y-84260803D01*
X140873902Y-75373902D02*
X141433016Y-75933016D01*
D60*
X153745000Y-77812500D02*
X154320000Y-77237500D01*
D59*
X168439650Y-97071496D02*
X167693017Y-97071496D01*
X160500000Y-97612200D02*
X160500000Y-98500000D01*
X164764387Y-102247137D02*
X164764387Y-100000126D01*
D60*
X154414510Y-81762872D02*
X154759511Y-81417871D01*
X154883208Y-81417871D02*
X155019510Y-81281569D01*
X136000000Y-86000000D02*
X131462500Y-86000000D01*
D59*
X167862500Y-119000000D02*
X168862500Y-119000000D01*
X176612283Y-95989243D02*
X177989243Y-95989243D01*
X163630895Y-81297488D02*
X163636631Y-81303224D01*
X131988236Y-91631527D02*
X131131527Y-91631527D01*
X152287045Y-86981076D02*
X152249059Y-87019062D01*
D60*
X154759511Y-81417871D02*
X154883208Y-81417871D01*
X155000000Y-80207871D02*
X155000000Y-77917500D01*
D59*
X162862500Y-114862500D02*
X163500000Y-115500000D01*
X143822451Y-72169240D02*
X144611740Y-72169240D01*
X166500000Y-108000000D02*
X166500000Y-107037500D01*
X144611740Y-72169240D02*
X145680000Y-73237500D01*
X136637500Y-103362500D02*
X138500000Y-101500000D01*
D60*
X155019510Y-81281569D02*
X155019510Y-80207871D01*
X140402965Y-77588543D02*
X139943265Y-77128843D01*
D59*
X161208986Y-105787336D02*
X160501132Y-106495190D01*
X143285196Y-72706495D02*
X143822451Y-72169240D01*
X133000000Y-103362500D02*
X136637500Y-103362500D01*
D60*
X129962500Y-82037500D02*
X129962500Y-84500000D01*
D59*
X131988236Y-91506527D02*
X133588236Y-89906527D01*
X131000000Y-91500000D02*
X129000000Y-91500000D01*
X141874902Y-72706495D02*
X143285196Y-72706495D01*
X127962500Y-90462500D02*
X129000000Y-91500000D01*
X127962500Y-88970000D02*
X127962500Y-90462500D01*
X131250000Y-81000000D02*
X131000000Y-81000000D01*
X155762500Y-73237500D02*
X156000000Y-73000000D01*
X162862500Y-114500000D02*
X162862500Y-114862500D01*
X168862500Y-119000000D02*
X170000000Y-117862500D01*
X138500000Y-101500000D02*
X138500000Y-100067500D01*
X160022947Y-86462500D02*
X159133644Y-87351803D01*
X171764856Y-105264856D02*
X171764856Y-103778569D01*
X164764387Y-100000126D02*
X165514576Y-99249937D01*
X159000000Y-97000000D02*
X159887800Y-97000000D01*
X167265017Y-101000378D02*
X165514576Y-99249937D01*
X146339906Y-83744531D02*
X146339906Y-85108881D01*
X152249059Y-87019062D02*
X152249059Y-87260300D01*
X135500000Y-100862500D02*
X133000000Y-103362500D01*
X129000000Y-92247240D02*
X129000000Y-91500000D01*
X163536144Y-106270297D02*
X164764387Y-105042054D01*
X140873902Y-73707495D02*
X140873902Y-75373902D01*
X132500000Y-95530000D02*
X132282760Y-95530000D01*
D60*
X155019510Y-80207871D02*
X155000000Y-80207871D01*
D59*
X177989243Y-95989243D02*
X178000000Y-96000000D01*
X154320000Y-73237500D02*
X155762500Y-73237500D01*
X163536144Y-106270297D02*
X161691947Y-106270297D01*
X168511776Y-96999370D02*
X168439650Y-97071496D01*
X164764387Y-105042054D02*
X164764387Y-102247137D01*
X160500000Y-100500000D02*
X160500000Y-98500000D01*
X141433016Y-75933016D02*
X141710322Y-75933016D01*
%TO.N,Net-(U3-PC14-OSC32_IN)*%
X143659487Y-94500000D02*
X143181181Y-94021694D01*
X138500000Y-98932500D02*
X138500000Y-96750000D01*
X141228306Y-94021694D02*
X138500000Y-96750000D01*
X143181181Y-94021694D02*
X141228306Y-94021694D01*
%TO.N,Net-(U3-PC15-OSC32_OUT)*%
X135500000Y-96432500D02*
X135970000Y-95962500D01*
X141268306Y-91481694D02*
X138500000Y-94250000D01*
X135970000Y-95962500D02*
X136787500Y-95962500D01*
X143563930Y-93458829D02*
X143563930Y-92660377D01*
X143563930Y-92660377D02*
X142385247Y-91481694D01*
X142385247Y-91481694D02*
X141268306Y-91481694D01*
X136787500Y-95962500D02*
X138500000Y-94250000D01*
%TO.N,Net-(U3-PH0-OSC_IN)*%
X133588236Y-92836764D02*
X133588236Y-91631527D01*
X143500000Y-90056447D02*
X142385247Y-88941694D01*
X142385247Y-88941694D02*
X139811066Y-88941694D01*
X136601760Y-92151000D02*
X134107709Y-92151000D01*
X132500000Y-94395000D02*
X132500000Y-93925000D01*
X132500000Y-93925000D02*
X133588236Y-92836764D01*
X143500000Y-91500000D02*
X143500000Y-90056447D01*
X134107709Y-92151000D02*
X133588236Y-91631527D01*
X139811066Y-88941694D02*
X136601760Y-92151000D01*
%TO.N,Net-(U3-PH1-OSC_OUT)*%
X135151000Y-89651000D02*
X134724000Y-89224000D01*
X131988236Y-89011764D02*
X131988236Y-89431527D01*
X136849000Y-89651000D02*
X135151000Y-89651000D01*
X137500000Y-89000000D02*
X136849000Y-89651000D01*
X134724000Y-89224000D02*
X134724000Y-88724000D01*
X131056709Y-88500000D02*
X131988236Y-89431527D01*
X134000000Y-88000000D02*
X133000000Y-88000000D01*
X133000000Y-88000000D02*
X131988236Y-89011764D01*
X129567500Y-88500000D02*
X131056709Y-88500000D01*
X138500000Y-89000000D02*
X137500000Y-89000000D01*
X134724000Y-88724000D02*
X134000000Y-88000000D01*
D60*
%TO.N,+3.3V*%
X145239496Y-81739496D02*
X143553934Y-80053934D01*
X142527934Y-80655904D02*
X142527934Y-80677970D01*
D59*
X165764639Y-102247137D02*
X165764639Y-104227139D01*
D60*
X143553934Y-79629904D02*
X142527934Y-80655904D01*
D59*
X164264261Y-96252737D02*
X164264261Y-95288978D01*
X156393459Y-103393459D02*
X155248790Y-103393459D01*
X144527360Y-85329982D02*
X144527360Y-83376136D01*
X168511776Y-101000378D02*
X169197850Y-101000378D01*
X164500000Y-94500000D02*
X164500000Y-92962500D01*
X166018750Y-104481250D02*
X166500000Y-104962500D01*
X169197850Y-101000378D02*
X169689856Y-101492384D01*
X164500000Y-92962500D02*
X166509535Y-92962500D01*
X144209831Y-85350658D02*
X144506684Y-85350658D01*
X164264261Y-95288978D02*
X164264261Y-94735739D01*
D60*
X143553934Y-80053934D02*
X143553934Y-79629904D01*
D59*
X170000000Y-105000000D02*
X169689856Y-104689856D01*
X155248790Y-103393459D02*
X155125919Y-103270588D01*
X170000000Y-105500000D02*
X170000000Y-105000000D01*
D60*
X140885564Y-80705904D02*
X139375185Y-79195525D01*
X142500000Y-80705904D02*
X140885564Y-80705904D01*
D59*
X166509535Y-92962500D02*
X166511710Y-92964675D01*
X165764639Y-104227139D02*
X166018750Y-104481250D01*
D60*
X145965191Y-81739496D02*
X145239496Y-81739496D01*
D59*
X164264261Y-94735739D02*
X164500000Y-94500000D01*
D60*
X139375185Y-79124815D02*
X138127507Y-77877137D01*
X139375185Y-79195525D02*
X139375185Y-79124815D01*
D59*
X168511776Y-100500252D02*
X168511776Y-101000378D01*
X169689856Y-104689856D02*
X169689856Y-103778569D01*
D60*
X142527934Y-80677970D02*
X142500000Y-80705904D01*
D59*
X144527360Y-83376136D02*
X144492738Y-83341514D01*
X169689856Y-101492384D02*
X169689856Y-103778569D01*
X144506684Y-85350658D02*
X144527360Y-85329982D01*
D60*
X138127507Y-77877137D02*
X138127507Y-77112081D01*
%TO.N,VCC*%
X145766005Y-81000000D02*
X145000000Y-80233995D01*
X151673077Y-81471277D02*
X151904782Y-81471277D01*
X149500000Y-81500000D02*
X149260504Y-81739496D01*
X145000000Y-80233995D02*
X145000000Y-78997493D01*
X148160503Y-79839497D02*
X147000000Y-81000000D01*
X149260504Y-81739496D02*
X148515191Y-81739496D01*
X149500000Y-81500000D02*
X149500000Y-80224306D01*
X151539072Y-81605282D02*
X151673077Y-81471277D01*
X145000000Y-78997493D02*
X143591050Y-77588543D01*
X149500000Y-80224306D02*
X149115191Y-79839497D01*
D59*
X151904782Y-81471277D02*
X151970523Y-81537018D01*
D60*
X148515191Y-79839497D02*
X148160503Y-79839497D01*
X151350000Y-81605282D02*
X151539072Y-81605282D01*
X147000000Y-81000000D02*
X145766005Y-81000000D01*
X149115191Y-79839497D02*
X148515191Y-79839497D01*
%TO.N,+BAT_OUT*%
X161648325Y-83500000D02*
X157211646Y-83500000D01*
X152686264Y-79596277D02*
X153903723Y-79596277D01*
X157541457Y-82000000D02*
X157090038Y-82000000D01*
X153903723Y-79596277D02*
X154000000Y-79500000D01*
X161809128Y-83660803D02*
X161648325Y-83500000D01*
X156428385Y-84283261D02*
X157393773Y-83317873D01*
X157809192Y-82902454D02*
X157809192Y-82267735D01*
X156852910Y-81762872D02*
X156471910Y-81762872D01*
D59*
X162097443Y-83372488D02*
X161809128Y-83660803D01*
D60*
X157457910Y-83253736D02*
X157809192Y-82902454D01*
X152620523Y-79662018D02*
X152686264Y-79596277D01*
X157809192Y-82267735D02*
X157541457Y-82000000D01*
X157090038Y-82000000D02*
X156852910Y-81762872D01*
X157211646Y-83500000D02*
X156428385Y-84283261D01*
%TO.N,/BAT_IN*%
X156484904Y-80799877D02*
X156484904Y-80797221D01*
X156126909Y-81157872D02*
X156484904Y-80799877D01*
X156471910Y-80810215D02*
X156471910Y-80812871D01*
D59*
X151487611Y-86037500D02*
X151677320Y-85847791D01*
D60*
X155485910Y-81157872D02*
X156126909Y-81157872D01*
D61*
X157437129Y-80812871D02*
X160750000Y-77500000D01*
D60*
X154571908Y-82712873D02*
X155485910Y-81798871D01*
X149799796Y-86037500D02*
X151487611Y-86037500D01*
X156484904Y-80797221D02*
X156471910Y-80810215D01*
X160750000Y-77500000D02*
X161000000Y-77500000D01*
X155485910Y-81798871D02*
X155485910Y-81157872D01*
X151677320Y-85847791D02*
X151677320Y-85069063D01*
X151677320Y-85069063D02*
X154033510Y-82712873D01*
X154033510Y-82712873D02*
X154571908Y-82712873D01*
D61*
X156471910Y-80812871D02*
X157437129Y-80812871D01*
D59*
%TO.N,Net-(U1-VDD(VMID))*%
X168511776Y-98499748D02*
X173500252Y-98499748D01*
X173500252Y-98499748D02*
X174537283Y-97462717D01*
X174537283Y-97462717D02*
X174537283Y-95989243D01*
%TO.N,/TVDD*%
X167508877Y-95000000D02*
X167337143Y-95171734D01*
X168511776Y-97999622D02*
X170000378Y-97999622D01*
X170000378Y-97999622D02*
X170500000Y-97500000D01*
X169575000Y-95000000D02*
X167508877Y-95000000D01*
X170500000Y-94075000D02*
X169575000Y-95000000D01*
X168511776Y-100000126D02*
X169999874Y-100000126D01*
X167337143Y-96180611D02*
X167265017Y-96252737D01*
X167337143Y-95171734D02*
X167337143Y-96180611D01*
X170000000Y-100000000D02*
X169999874Y-100000126D01*
%TO.N,/VDD_INT*%
X165264513Y-94735487D02*
X165264513Y-96252737D01*
X162500000Y-96000000D02*
X162517376Y-96017376D01*
X162664009Y-95250000D02*
X162500000Y-95414009D01*
X165500000Y-94500000D02*
X165264513Y-94735487D01*
X164764387Y-96252737D02*
X165264513Y-96252737D01*
X162517376Y-96017376D02*
X162517376Y-96999370D01*
X162500000Y-95414009D02*
X162500000Y-96000000D01*
%TO.N,/XTAL2*%
X163764135Y-94264135D02*
X163000000Y-93500000D01*
X166200000Y-86800000D02*
X167000000Y-86000000D01*
X165500000Y-86800000D02*
X166200000Y-86800000D01*
X163764135Y-96252737D02*
X163764135Y-94264135D01*
X163000000Y-93500000D02*
X163000000Y-89300000D01*
X163000000Y-89300000D02*
X165500000Y-86800000D01*
%TO.N,/XTAL1*%
X163976000Y-85500000D02*
X164153800Y-85500000D01*
X162470000Y-88067500D02*
X163000000Y-87537500D01*
X162000000Y-88067500D02*
X162470000Y-88067500D01*
X162000000Y-93500000D02*
X162000000Y-88067500D01*
X163264009Y-94764009D02*
X162000000Y-93500000D01*
X163264009Y-96252737D02*
X163264009Y-94764009D01*
X163000000Y-87537500D02*
X163000000Y-86476000D01*
X163000000Y-86476000D02*
X163976000Y-85500000D01*
%TO.N,Net-(C30-Pad2)*%
X167802380Y-114092673D02*
X167802380Y-114027380D01*
X167802380Y-114027380D02*
X166000000Y-112225000D01*
%TO.N,/RXN*%
X170399000Y-99399000D02*
X171000000Y-100000000D01*
X169650057Y-99500000D02*
X169751057Y-99399000D01*
X168511776Y-99500000D02*
X169650057Y-99500000D01*
X169751057Y-99399000D02*
X170399000Y-99399000D01*
X166000000Y-110500000D02*
X166162335Y-110500000D01*
X166162335Y-110500000D02*
X167816666Y-108845669D01*
%TO.N,/RXP*%
X173000000Y-99099748D02*
X172900126Y-98999874D01*
X172900126Y-98999874D02*
X168511776Y-98999874D01*
X173000000Y-106000000D02*
X173000000Y-99099748D01*
%TO.N,Net-(C31-Pad2)*%
X175500000Y-109500000D02*
X173725000Y-107725000D01*
X173725000Y-107725000D02*
X173000000Y-107725000D01*
%TO.N,Net-(C32-Pad2)*%
X172000000Y-111637500D02*
X172000000Y-110750000D01*
X171000000Y-109750000D02*
X173250000Y-109750000D01*
X173250000Y-109750000D02*
X173500000Y-109500000D01*
X168630866Y-110826000D02*
X170326000Y-110826000D01*
X165815000Y-114000000D02*
X167315000Y-115500000D01*
X167315000Y-115500000D02*
X168500000Y-115500000D01*
X168500000Y-115500000D02*
X168703380Y-115296620D01*
X168000000Y-111456866D02*
X168630866Y-110826000D01*
X168703380Y-115296620D02*
X168703380Y-113203380D01*
X170326000Y-110826000D02*
X171137500Y-111637500D01*
X168703380Y-113203380D02*
X168000000Y-112500000D01*
X172000000Y-110750000D02*
X171000000Y-109750000D01*
X171137500Y-111637500D02*
X172000000Y-111637500D01*
X168000000Y-112500000D02*
X168000000Y-111456866D01*
%TO.N,Net-(C33-Pad1)*%
X169802380Y-114092673D02*
X169802380Y-113302380D01*
X170000000Y-115500000D02*
X169802380Y-115302380D01*
X169637500Y-116500000D02*
X170000000Y-116137500D01*
X170000000Y-116137500D02*
X170000000Y-115500000D01*
X169802380Y-115302380D02*
X169802380Y-114092673D01*
X169802380Y-113302380D02*
X169000000Y-112500000D01*
X169000000Y-112500000D02*
X169000000Y-111750000D01*
X165907500Y-116500000D02*
X169637500Y-116500000D01*
%TO.N,Net-(C34-Pad1)*%
X165000000Y-114000000D02*
X164724000Y-113724000D01*
X161000000Y-114637500D02*
X161137500Y-114500000D01*
X164724000Y-113724000D02*
X161913500Y-113724000D01*
X161000000Y-116675000D02*
X161000000Y-114637500D01*
X161913500Y-113724000D02*
X161137500Y-114500000D01*
%TO.N,Net-(C35-Pad2)*%
X166137500Y-119000000D02*
X165000000Y-119000000D01*
X164546250Y-116500000D02*
X165092500Y-116500000D01*
X166137500Y-119000000D02*
X166137500Y-119137500D01*
X164000000Y-117046250D02*
X164546250Y-116500000D01*
X164000000Y-118000000D02*
X164000000Y-117046250D01*
X165000000Y-119000000D02*
X164000000Y-118000000D01*
X166137500Y-119137500D02*
X166500000Y-119500000D01*
X166500000Y-119500000D02*
X166500000Y-121087500D01*
D60*
%TO.N,Net-(D1-A)*%
X138127507Y-75112081D02*
X139676503Y-75112081D01*
X139676503Y-75112081D02*
X139943265Y-75378843D01*
D59*
%TO.N,Net-(D2-A)*%
X156443412Y-88124999D02*
X156601093Y-87967318D01*
X154863758Y-88124999D02*
X156443412Y-88124999D01*
%TO.N,+5V*%
X152400000Y-76443187D02*
X152385979Y-76429166D01*
D60*
X147650000Y-76428000D02*
X147650000Y-76987500D01*
X151320523Y-79662018D02*
X151331393Y-79662018D01*
X152400000Y-77812500D02*
X152400000Y-76443187D01*
X147650000Y-76987500D02*
X147600000Y-77037500D01*
X147600000Y-77037500D02*
X147600000Y-77812500D01*
X152294893Y-78698518D02*
X152400000Y-78698518D01*
X151331393Y-79662018D02*
X152294893Y-78698518D01*
X152400000Y-78698518D02*
X152400000Y-77812500D01*
D59*
%TO.N,/PA12*%
X155500000Y-92500000D02*
X155242343Y-92500000D01*
X149538503Y-79500000D02*
X149216191Y-79177688D01*
X155242343Y-92500000D02*
X150250000Y-87507657D01*
X149619778Y-79500000D02*
X149538503Y-79500000D01*
X150250000Y-76985500D02*
X150201000Y-76936500D01*
X149349943Y-82500000D02*
X150101000Y-81748943D01*
X149299000Y-76936500D02*
X149250000Y-76985500D01*
X150101000Y-81748943D02*
X150101000Y-79981222D01*
X149216191Y-79177688D02*
X149216191Y-77846309D01*
X149250000Y-76985500D02*
X149250000Y-77812500D01*
X148500000Y-82500000D02*
X149349943Y-82500000D01*
X148000000Y-83000000D02*
X148500000Y-82500000D01*
X148781317Y-87507657D02*
X148136830Y-86863170D01*
X148168662Y-86831338D02*
X148168662Y-83668662D01*
X150250000Y-77812500D02*
X150250000Y-76985500D01*
X150250000Y-87507657D02*
X148781317Y-87507657D01*
X149216191Y-77846309D02*
X149250000Y-77812500D01*
X148136830Y-86863170D02*
X148168662Y-86831338D01*
X150201000Y-76936500D02*
X149299000Y-76936500D01*
X148168662Y-83668662D02*
X148000000Y-83500000D01*
X148000000Y-83500000D02*
X148000000Y-83000000D01*
X150101000Y-79981222D02*
X149619778Y-79500000D01*
%TO.N,/PA11*%
X150750000Y-78639500D02*
X150701000Y-78688500D01*
X150750000Y-77812500D02*
X150750000Y-78639500D01*
X149672000Y-82828000D02*
X150750000Y-81750000D01*
X150701000Y-78688500D02*
X149799000Y-78688500D01*
X149321350Y-87157714D02*
X148773796Y-86610160D01*
X148773796Y-86610160D02*
X148773796Y-83226204D01*
X150750000Y-87157714D02*
X149321350Y-87157714D01*
X150750000Y-81750000D02*
X150750000Y-77812500D01*
X150750000Y-87157714D02*
X155296143Y-91703857D01*
X149750000Y-78639500D02*
X149750000Y-77812500D01*
X149172000Y-82828000D02*
X149672000Y-82828000D01*
X149799000Y-78688500D02*
X149750000Y-78639500D01*
X148773796Y-83226204D02*
X149172000Y-82828000D01*
%TO.N,Net-(J1-CC1)*%
X150500000Y-75500000D02*
X151250000Y-76250000D01*
X143822451Y-74169240D02*
X145153211Y-75500000D01*
X145153211Y-75500000D02*
X150500000Y-75500000D01*
X151250000Y-76250000D02*
X151250000Y-77812500D01*
%TO.N,Net-(J1-CC2)*%
X148250000Y-77812500D02*
X148250000Y-75828000D01*
X148250000Y-75828000D02*
X142996407Y-75828000D01*
X142996407Y-75828000D02*
X141874902Y-74706495D01*
%TO.N,/IMU_RST*%
X158608197Y-89891803D02*
X159133644Y-89891803D01*
X148246287Y-96297030D02*
X150702970Y-96297030D01*
X150702970Y-96297030D02*
X153500000Y-93500000D01*
X156500000Y-92500000D02*
X156500000Y-92000000D01*
X155500000Y-93500000D02*
X156500000Y-92500000D01*
X153500000Y-93500000D02*
X155500000Y-93500000D01*
X156500000Y-92000000D02*
X158608197Y-89891803D01*
%TO.N,/SCL*%
X155775265Y-101275265D02*
X155076792Y-101275265D01*
X153000000Y-98328000D02*
X152828000Y-98500000D01*
X167526000Y-105833160D02*
X167210160Y-106149000D01*
X166264765Y-103128605D02*
X167526000Y-104389840D01*
X160189170Y-107499297D02*
X159000000Y-106310127D01*
X167526000Y-104389840D02*
X167526000Y-105833160D01*
X159000000Y-104500000D02*
X155775265Y-101275265D01*
X165789840Y-106149000D02*
X164439543Y-107499297D01*
X155076792Y-101275265D02*
X154900763Y-101099236D01*
X154724735Y-100923208D02*
X154724735Y-100275265D01*
X166264765Y-102247137D02*
X166264765Y-103128605D01*
X159000000Y-106310127D02*
X159000000Y-104500000D01*
X167210160Y-106149000D02*
X165789840Y-106149000D01*
X154900763Y-101099236D02*
X154724735Y-100923208D01*
X152828000Y-98500000D02*
X148500000Y-98500000D01*
X154724735Y-100275265D02*
X155000000Y-100000000D01*
X164439543Y-107499297D02*
X160189170Y-107499297D01*
X155000000Y-100000000D02*
X153328000Y-98328000D01*
X153328000Y-98328000D02*
X153000000Y-98328000D01*
%TO.N,/SDA*%
X159003527Y-104000000D02*
X155926735Y-100923208D01*
X155926735Y-100923208D02*
X155926735Y-100425322D01*
X159500000Y-104000000D02*
X159003527Y-104000000D01*
X153000000Y-98000000D02*
X149134314Y-98000000D01*
X149134314Y-98000000D02*
X148995025Y-97860711D01*
X153501413Y-98000000D02*
X153000000Y-98000000D01*
X165264513Y-102247137D02*
X165264513Y-106128088D01*
X165264513Y-106128088D02*
X164221304Y-107171297D01*
X160325032Y-107171297D02*
X159500000Y-106346265D01*
X159500000Y-106346265D02*
X159500000Y-104000000D01*
X164221304Y-107171297D02*
X160325032Y-107171297D01*
X155926735Y-100425322D02*
X153501413Y-98000000D01*
%TO.N,/IMU_INT*%
X142235793Y-95500000D02*
X141908487Y-95172694D01*
X145523502Y-95500000D02*
X142235793Y-95500000D01*
%TO.N,/PB1*%
X158395326Y-122500000D02*
X157101288Y-121205962D01*
X159100000Y-122500000D02*
X158395326Y-122500000D01*
%TO.N,/PA2*%
X168500000Y-88000000D02*
X171601000Y-84899000D01*
X163500000Y-112000000D02*
X158055326Y-112000000D01*
X165849943Y-78500000D02*
X165500000Y-78500000D01*
X158055326Y-112000000D02*
X157101288Y-111045962D01*
X171601000Y-84899000D02*
X171601000Y-84251057D01*
X171601000Y-84251057D02*
X165849943Y-78500000D01*
%TO.N,/PA0*%
X164500000Y-110000000D02*
X161135326Y-110000000D01*
X173709327Y-83709327D02*
X166000000Y-76000000D01*
X161135326Y-110000000D02*
X157101288Y-105965962D01*
X170000000Y-90000000D02*
X173709327Y-86290673D01*
X173709327Y-86290673D02*
X173709327Y-83709327D01*
X166000000Y-76000000D02*
X165500000Y-76000000D01*
%TO.N,/PA3*%
X157687250Y-113000000D02*
X157101288Y-113585962D01*
X168351000Y-83351000D02*
X164500000Y-79500000D01*
X168351000Y-86149000D02*
X168351000Y-83351000D01*
X167500000Y-87000000D02*
X168351000Y-86149000D01*
X163000000Y-113000000D02*
X157687250Y-113000000D01*
%TO.N,/PA1*%
X159595326Y-111000000D02*
X157101288Y-108505962D01*
X169500000Y-89000000D02*
X172500000Y-86000000D01*
X172500000Y-86000000D02*
X172500000Y-85000000D01*
X166000000Y-77500000D02*
X165000000Y-77500000D01*
X164000000Y-111000000D02*
X159595326Y-111000000D01*
X172500000Y-84000000D02*
X166500000Y-78000000D01*
X172500000Y-85000000D02*
X172500000Y-84000000D01*
X166500000Y-78000000D02*
X166000000Y-77500000D01*
%TO.N,/PB10*%
X159806251Y-122693749D02*
X158754038Y-123745962D01*
X158754038Y-123745962D02*
X157101288Y-123745962D01*
X159806251Y-121017374D02*
X159806251Y-122693749D01*
%TO.N,/PA7*%
X158303369Y-118665962D02*
X157101288Y-118665962D01*
X161000000Y-123500000D02*
X160500000Y-123000000D01*
X160500000Y-123000000D02*
X160500000Y-120862593D01*
X160500000Y-120862593D02*
X158303369Y-118665962D01*
%TO.N,/TX2_IN*%
X162500000Y-121000000D02*
X164587500Y-121000000D01*
X164587500Y-121000000D02*
X166500000Y-122912500D01*
%TO.N,/TX1_IN*%
X161300000Y-118800000D02*
X161000000Y-118500000D01*
X161300000Y-121000000D02*
X161300000Y-118800000D01*
D60*
%TO.N,Net-(U5-SW)*%
X152052634Y-83191318D02*
X152433980Y-82809972D01*
X152433980Y-82809972D02*
X152433980Y-82791131D01*
X153000000Y-81305382D02*
X153492511Y-80812871D01*
X152033793Y-83191318D02*
X152052634Y-83191318D01*
X152433980Y-82791131D02*
X153000000Y-82225111D01*
X153000000Y-82225111D02*
X153000000Y-81305382D01*
X151677320Y-83547791D02*
X152033793Y-83191318D01*
X153492511Y-80812871D02*
X154033510Y-80812871D01*
D59*
%TO.N,/TX2*%
X168511776Y-97499496D02*
X169500504Y-97499496D01*
X169000000Y-110000000D02*
X169000000Y-108500000D01*
X170101000Y-96899000D02*
X171073972Y-96899000D01*
X171073972Y-96899000D02*
X171849943Y-97674971D01*
X169500504Y-97499496D02*
X170101000Y-96899000D01*
%TO.N,/TX1*%
X171752737Y-96252737D02*
X173000000Y-97500000D01*
X167765143Y-96252737D02*
X171752737Y-96252737D01*
X171000000Y-108000000D02*
X171000000Y-106000000D01*
D60*
%TO.N,Net-(U5-FB)*%
X154428385Y-84283261D02*
X154428385Y-86114376D01*
D59*
X154428385Y-86114376D02*
X154351092Y-86191669D01*
D60*
X156471910Y-82712873D02*
X155998773Y-82712873D01*
X155998773Y-82712873D02*
X154428385Y-84283261D01*
D59*
%TO.N,/PB15*%
X156825735Y-90825735D02*
X156825735Y-90016960D01*
X156825735Y-90016960D02*
X156601093Y-89792318D01*
%TO.N,Net-(U1-I2C_ADR1{slash}SPI_MOSI)*%
X164264261Y-102247137D02*
X164264261Y-103542180D01*
X164264261Y-103542180D02*
X163536144Y-104270297D01*
%TO.N,Net-(U1-I2C_ADR0{slash}SPI_NSS)*%
X162749185Y-102247137D02*
X163264009Y-102247137D01*
X161208986Y-103787336D02*
X162749185Y-102247137D01*
%TO.N,/PA15*%
X157829000Y-101829000D02*
X157778978Y-101829000D01*
X158500000Y-102500000D02*
X157829000Y-101829000D01*
X162209986Y-104372496D02*
X162209986Y-103631360D01*
X163692009Y-103005337D02*
X163764135Y-102933211D01*
X161023108Y-102568644D02*
X159068644Y-102568644D01*
X163764135Y-102933211D02*
X163764135Y-102247137D01*
X161023108Y-102568644D02*
X160841518Y-102568644D01*
X153400000Y-97400000D02*
X153400000Y-97249943D01*
X160207986Y-104372496D02*
X160523826Y-104688336D01*
X153400000Y-96750057D02*
X153400000Y-96448578D01*
X160841518Y-102568644D02*
X160207986Y-103202176D01*
X153399000Y-97248943D02*
X153399000Y-96751057D01*
X153399000Y-96751057D02*
X153400000Y-96750057D01*
X157271000Y-101321022D02*
X157271000Y-101271000D01*
X159068644Y-102568644D02*
X159000000Y-102500000D01*
X162209986Y-103631360D02*
X162836009Y-103005337D01*
X161894146Y-104688336D02*
X162209986Y-104372496D01*
X159000000Y-102500000D02*
X158500000Y-102500000D01*
X157271000Y-101271000D02*
X153400000Y-97400000D01*
X153400000Y-97249943D02*
X153399000Y-97248943D01*
X160523826Y-104688336D02*
X161894146Y-104688336D01*
X160207986Y-103202176D02*
X160207986Y-104372496D01*
X162836009Y-103005337D02*
X163692009Y-103005337D01*
X157778978Y-101829000D02*
X157271000Y-101321022D01*
%TO.N,/IRQ*%
X161000000Y-108500000D02*
X166150057Y-108500000D01*
X166251057Y-108601000D02*
X166748943Y-108601000D01*
X153500000Y-99000000D02*
X154500000Y-100000000D01*
X166764891Y-102933211D02*
X166764891Y-102247137D01*
X148000000Y-99000000D02*
X148150057Y-99000000D01*
X154500000Y-100000000D02*
X154396735Y-100103265D01*
X167854000Y-104022320D02*
X166764891Y-102933211D01*
X158672000Y-106445989D02*
X160053308Y-107827297D01*
X154396735Y-101059070D02*
X154940930Y-101603265D01*
X148748943Y-99101000D02*
X148849943Y-99000000D01*
X160053308Y-107827297D02*
X160327297Y-107827297D01*
X155603265Y-101603265D02*
X158672000Y-104672000D01*
X148849943Y-99000000D02*
X153500000Y-99000000D01*
X154396735Y-100103265D02*
X154396735Y-101059070D01*
X167854000Y-107495943D02*
X167854000Y-104022320D01*
X148251057Y-99101000D02*
X148748943Y-99101000D01*
X166150057Y-108500000D02*
X166251057Y-108601000D01*
X147648954Y-87228233D02*
X147500000Y-87377187D01*
X147648954Y-87225735D02*
X147648954Y-87228233D01*
X147500000Y-98500000D02*
X148000000Y-99000000D01*
X147500000Y-87377187D02*
X147500000Y-98500000D01*
X160327297Y-107827297D02*
X161000000Y-108500000D01*
X166748943Y-108601000D02*
X167854000Y-107495943D01*
X158672000Y-104672000D02*
X158672000Y-106445989D01*
X148150057Y-99000000D02*
X148251057Y-99101000D01*
X154940930Y-101603265D02*
X155603265Y-101603265D01*
%TO.N,/VEN*%
X147101000Y-94751057D02*
X147101000Y-95248943D01*
X146500000Y-88000000D02*
X147049452Y-88549452D01*
X152416778Y-99416778D02*
X152500000Y-99500000D01*
X147049452Y-95300491D02*
X147049452Y-98549452D01*
X166884805Y-108929000D02*
X168182000Y-107631805D01*
X147049452Y-88549452D02*
X147049452Y-94699509D01*
X154500000Y-104500000D02*
X158036138Y-104500000D01*
X147049452Y-94699509D02*
X147101000Y-94751057D01*
X154000000Y-104000000D02*
X154500000Y-104500000D01*
X147365956Y-86477459D02*
X146500000Y-87343415D01*
X146500000Y-87343415D02*
X146500000Y-88000000D01*
X147101000Y-95248943D02*
X147049452Y-95300491D01*
X147049452Y-98549452D02*
X147929000Y-99429000D01*
X168182000Y-102663994D02*
X167765143Y-102247137D01*
X160155297Y-108155297D02*
X160929000Y-108929000D01*
X148884805Y-99429000D02*
X148897027Y-99416778D01*
X152500000Y-99500000D02*
X153000000Y-99500000D01*
X153000000Y-99500000D02*
X154000000Y-100500000D01*
X158036138Y-104500000D02*
X158344000Y-104807862D01*
X160929000Y-108929000D02*
X166884805Y-108929000D01*
X158344000Y-104807862D02*
X158344000Y-106581851D01*
X147929000Y-99429000D02*
X148884805Y-99429000D01*
X159917446Y-108155297D02*
X160155297Y-108155297D01*
X148897027Y-99416778D02*
X152416778Y-99416778D01*
X158344000Y-106581851D02*
X159917446Y-108155297D01*
X154000000Y-100500000D02*
X154000000Y-104000000D01*
X168182000Y-107631805D02*
X168182000Y-102663994D01*
%TO.N,/PA14*%
X161831302Y-101000378D02*
X162517376Y-101000378D01*
X154000000Y-97000000D02*
X154000000Y-97500000D01*
X157599000Y-101099000D02*
X157599000Y-101185160D01*
X157599000Y-101185160D02*
X157914840Y-101501000D01*
X157914840Y-101501000D02*
X158001000Y-101501000D01*
X158001000Y-101501000D02*
X158500000Y-102000000D01*
X160831680Y-102000000D02*
X161831302Y-101000378D01*
X158500000Y-102000000D02*
X160831680Y-102000000D01*
X154000000Y-97500000D02*
X157599000Y-101099000D01*
%TO.N,Net-(SW1-A)*%
X153875000Y-95500000D02*
X153125000Y-95500000D01*
X158425000Y-98500000D02*
X158425000Y-100425000D01*
X158105331Y-98500000D02*
X158425000Y-98500000D01*
X155125919Y-95520588D02*
X153895588Y-95520588D01*
X153895588Y-95520588D02*
X153875000Y-95500000D01*
X153125000Y-95500000D02*
X151343098Y-97281902D01*
X151343098Y-97281902D02*
X149808306Y-97281902D01*
X155125919Y-95520588D02*
X158105331Y-98500000D01*
X158425000Y-100425000D02*
X158500000Y-100500000D01*
D60*
%TO.N,Net-(SW2-B)*%
X135500000Y-84500000D02*
X139000000Y-81000000D01*
X132037500Y-84500000D02*
X135500000Y-84500000D01*
D59*
X139000000Y-82500000D02*
X139000000Y-81000000D01*
%TD*%
M02*
