%TF.GenerationSoftware,KiCad,Pcbnew,9.0.7*%
%TF.CreationDate,2026-04-09T16:38:03-07:00*%
%TF.ProjectId,PN7160_STM32,504e3731-3630-45f5-9354-4d33322e6b69,1.0*%
%TF.SameCoordinates,Original*%
%TF.FileFunction,Soldermask,Bot*%
%TF.FilePolarity,Negative*%
%FSLAX46Y46*%
G04 Gerber Fmt 4.6, Leading zero omitted, Abs format (unit mm)*
G04 Created by KiCad (PCBNEW 9.0.7) date 2026-04-09 16:38:03*
%MOMM*%
%LPD*%
G01*
G04 APERTURE LIST*
G04 Aperture macros list*
%AMRoundRect*
0 Rectangle with rounded corners*
0 $1 Rounding radius*
0 $2 $3 $4 $5 $6 $7 $8 $9 X,Y pos of 4 corners*
0 Add a 4 corners polygon primitive as box body*
4,1,4,$2,$3,$4,$5,$6,$7,$8,$9,$2,$3,0*
0 Add four circle primitives for the rounded corners*
1,1,$1+$1,$2,$3*
1,1,$1+$1,$4,$5*
1,1,$1+$1,$6,$7*
1,1,$1+$1,$8,$9*
0 Add four rect primitives between the rounded corners*
20,1,$1+$1,$2,$3,$4,$5,0*
20,1,$1+$1,$4,$5,$6,$7,0*
20,1,$1+$1,$6,$7,$8,$9,0*
20,1,$1+$1,$8,$9,$2,$3,0*%
G04 Aperture macros list end*
%ADD10O,1.204000X2.004000*%
%ADD11O,1.204000X2.404000*%
%ADD12RoundRect,0.250000X0.600000X0.750000X-0.600000X0.750000X-0.600000X-0.750000X0.600000X-0.750000X0*%
%ADD13O,1.700000X2.000000*%
%ADD14C,4.400000*%
%ADD15R,1.700000X1.700000*%
%ADD16C,1.700000*%
%ADD17RoundRect,0.250000X0.600000X0.725000X-0.600000X0.725000X-0.600000X-0.725000X0.600000X-0.725000X0*%
%ADD18O,1.700000X1.950000*%
%ADD19RoundRect,0.250000X-0.337500X-0.475000X0.337500X-0.475000X0.337500X0.475000X-0.337500X0.475000X0*%
%ADD20RoundRect,0.250000X-0.725000X0.600000X-0.725000X-0.600000X0.725000X-0.600000X0.725000X0.600000X0*%
%ADD21O,1.950000X1.700000*%
%ADD22RoundRect,0.059250X-0.477750X-0.177750X0.477750X-0.177750X0.477750X0.177750X-0.477750X0.177750X0*%
%ADD23RoundRect,0.059250X-0.177750X-0.477750X0.177750X-0.477750X0.177750X0.477750X-0.177750X0.477750X0*%
%ADD24RoundRect,0.102000X-2.800000X-2.800000X2.800000X-2.800000X2.800000X2.800000X-2.800000X2.800000X0*%
%ADD25RoundRect,0.250000X0.475000X-0.337500X0.475000X0.337500X-0.475000X0.337500X-0.475000X-0.337500X0*%
%ADD26RoundRect,0.237500X0.237500X-0.287500X0.237500X0.287500X-0.237500X0.287500X-0.237500X-0.287500X0*%
%ADD27RoundRect,0.250000X-0.450000X0.350000X-0.450000X-0.350000X0.450000X-0.350000X0.450000X0.350000X0*%
%ADD28RoundRect,0.250000X-0.475000X0.337500X-0.475000X-0.337500X0.475000X-0.337500X0.475000X0.337500X0*%
%ADD29RoundRect,0.100000X0.100000X-0.637500X0.100000X0.637500X-0.100000X0.637500X-0.100000X-0.637500X0*%
%ADD30RoundRect,0.237500X0.237500X-0.250000X0.237500X0.250000X-0.237500X0.250000X-0.237500X-0.250000X0*%
%ADD31RoundRect,0.250000X0.725000X-0.600000X0.725000X0.600000X-0.725000X0.600000X-0.725000X-0.600000X0*%
%ADD32RoundRect,0.250000X-0.350000X-0.450000X0.350000X-0.450000X0.350000X0.450000X-0.350000X0.450000X0*%
%ADD33RoundRect,0.250000X0.350000X0.450000X-0.350000X0.450000X-0.350000X-0.450000X0.350000X-0.450000X0*%
G04 APERTURE END LIST*
D10*
%TO.C,J1*%
X154320000Y-77237500D03*
X145680000Y-77237500D03*
D11*
X154320000Y-73237500D03*
X145680000Y-73237500D03*
%TD*%
D12*
%TO.C,J10*%
X161000000Y-77500000D03*
D13*
X158500000Y-77500000D03*
%TD*%
D14*
%TO.C,H2*%
X123966376Y-100000000D03*
%TD*%
%TO.C,H1*%
X176000000Y-99817778D03*
%TD*%
D15*
%TO.C,J11*%
X157101288Y-105965962D03*
D16*
X154561288Y-105965962D03*
X157101288Y-108505962D03*
X154561288Y-108505962D03*
X157101288Y-111045962D03*
X154561288Y-111045962D03*
X157101288Y-113585962D03*
X154561288Y-113585962D03*
X157101288Y-116125962D03*
X154561288Y-116125962D03*
X157101288Y-118665962D03*
X154561288Y-118665962D03*
X157101288Y-121205962D03*
X154561288Y-121205962D03*
X157101288Y-123745962D03*
X154561288Y-123745962D03*
X157101288Y-126285962D03*
X154561288Y-126285962D03*
%TD*%
D17*
%TO.C,J2*%
X145000000Y-121000000D03*
D18*
X142500000Y-121000000D03*
X140000000Y-121000000D03*
X137500000Y-121000000D03*
%TD*%
D19*
%TO.C,C17*%
X142712500Y-99741359D03*
X144787500Y-99741359D03*
%TD*%
D20*
%TO.C,J7*%
X136000000Y-86000000D03*
D21*
X136000000Y-88500000D03*
X136000000Y-91000000D03*
X136000000Y-93500000D03*
%TD*%
D19*
%TO.C,C18*%
X142687316Y-97587609D03*
X144762316Y-97587609D03*
%TD*%
D22*
%TO.C,U3*%
X146570000Y-94250000D03*
X146570000Y-93750000D03*
X146570000Y-93250000D03*
X146570000Y-92750000D03*
X146570000Y-92250000D03*
X146570000Y-91750000D03*
X146570000Y-91250000D03*
X146570000Y-90750000D03*
X146570000Y-90250000D03*
X146570000Y-89750000D03*
X146570000Y-89250000D03*
X146570000Y-88750000D03*
D23*
X147250000Y-88070000D03*
X147750000Y-88070000D03*
X148250000Y-88070000D03*
X148750000Y-88070000D03*
X149250000Y-88070000D03*
X149750000Y-88070000D03*
X150250000Y-88070000D03*
X150750000Y-88070000D03*
X151250000Y-88070000D03*
X151750000Y-88070000D03*
X152250000Y-88070000D03*
X152750000Y-88070000D03*
D22*
X153430000Y-88750000D03*
X153430000Y-89250000D03*
X153430000Y-89750000D03*
X153430000Y-90250000D03*
X153430000Y-90750000D03*
X153430000Y-91250000D03*
X153430000Y-91750000D03*
X153430000Y-92250000D03*
X153430000Y-92750000D03*
X153430000Y-93250000D03*
X153430000Y-93750000D03*
X153430000Y-94250000D03*
D23*
X152750000Y-94930000D03*
X152250000Y-94930000D03*
X151750000Y-94930000D03*
X151250000Y-94930000D03*
X150750000Y-94930000D03*
X150250000Y-94930000D03*
X149750000Y-94930000D03*
X149250000Y-94930000D03*
X148750000Y-94930000D03*
X148250000Y-94930000D03*
X147750000Y-94930000D03*
X147250000Y-94930000D03*
D24*
X150000000Y-91500000D03*
%TD*%
D25*
%TO.C,C1*%
X151759350Y-85823810D03*
X151759350Y-83748810D03*
%TD*%
%TO.C,C9*%
X141292511Y-79537500D03*
X141292511Y-77462500D03*
%TD*%
D19*
%TO.C,C7*%
X143535948Y-80882562D03*
X145610948Y-80882562D03*
%TD*%
D26*
%TO.C,D3*%
X156500000Y-98875000D03*
X156500000Y-97125000D03*
%TD*%
D20*
%TO.C,J4*%
X136500000Y-107500000D03*
D21*
X136500000Y-110000000D03*
X136500000Y-112500000D03*
X136500000Y-115000000D03*
%TD*%
D27*
%TO.C,R7*%
X149573382Y-83321855D03*
X149573382Y-85321855D03*
%TD*%
D28*
%TO.C,C23*%
X166500000Y-90925000D03*
X166500000Y-93000000D03*
%TD*%
D29*
%TO.C,U6*%
X141075000Y-103362500D03*
X140425000Y-103362500D03*
X139775000Y-103362500D03*
X139125000Y-103362500D03*
X138475000Y-103362500D03*
X137825000Y-103362500D03*
X137175000Y-103362500D03*
X136525000Y-103362500D03*
X135875000Y-103362500D03*
X135225000Y-103362500D03*
X134575000Y-103362500D03*
X133925000Y-103362500D03*
X133925000Y-97637500D03*
X134575000Y-97637500D03*
X135225000Y-97637500D03*
X135875000Y-97637500D03*
X136525000Y-97637500D03*
X137175000Y-97637500D03*
X137825000Y-97637500D03*
X138475000Y-97637500D03*
X139125000Y-97637500D03*
X139775000Y-97637500D03*
X140425000Y-97637500D03*
X141075000Y-97637500D03*
%TD*%
D20*
%TO.C,J3*%
X143500000Y-107500000D03*
D21*
X143500000Y-110000000D03*
X143500000Y-112500000D03*
X143500000Y-115000000D03*
%TD*%
D19*
%TO.C,C8*%
X143535948Y-78925471D03*
X145610948Y-78925471D03*
%TD*%
D30*
%TO.C,R12*%
X156500000Y-95325000D03*
X156500000Y-93500000D03*
%TD*%
D31*
%TO.C,J5*%
X130500000Y-115000000D03*
D21*
X130500000Y-112500000D03*
X130500000Y-110000000D03*
X130500000Y-107500000D03*
%TD*%
D32*
%TO.C,R13*%
X129500000Y-103500000D03*
X131500000Y-103500000D03*
%TD*%
D28*
%TO.C,C21*%
X172500000Y-93500000D03*
X172500000Y-95575000D03*
%TD*%
D20*
%TO.C,J6*%
X129000000Y-91500000D03*
D21*
X129000000Y-94000000D03*
X129000000Y-96500000D03*
X129000000Y-99000000D03*
%TD*%
D28*
%TO.C,C20*%
X170500000Y-92000000D03*
X170500000Y-94075000D03*
%TD*%
D15*
%TO.C,J9*%
X141908487Y-82472694D03*
D16*
X141908487Y-85012694D03*
X141908487Y-87552694D03*
X141908487Y-90092694D03*
X141908487Y-92632694D03*
X141908487Y-95172694D03*
%TD*%
D28*
%TO.C,C22*%
X164500000Y-90925000D03*
X164500000Y-93000000D03*
%TD*%
D27*
%TO.C,R16*%
X162000000Y-90000000D03*
X162000000Y-92000000D03*
%TD*%
%TO.C,R4*%
X147000000Y-99767324D03*
X147000000Y-101767324D03*
%TD*%
D33*
%TO.C,R3*%
X144920238Y-103000000D03*
X142920238Y-103000000D03*
%TD*%
D15*
%TO.C,J8*%
X159133644Y-82271803D03*
D16*
X159133644Y-84811803D03*
X159133644Y-87351803D03*
X159133644Y-89891803D03*
X159133644Y-92431803D03*
X159133644Y-94971803D03*
%TD*%
M02*
