%TF.GenerationSoftware,KiCad,Pcbnew,9.0.7*%
%TF.CreationDate,2026-04-09T16:38:03-07:00*%
%TF.ProjectId,PN7160_STM32,504e3731-3630-45f5-9354-4d33322e6b69,1.0*%
%TF.SameCoordinates,Original*%
%TF.FileFunction,Soldermask,Top*%
%TF.FilePolarity,Negative*%
%FSLAX46Y46*%
G04 Gerber Fmt 4.6, Leading zero omitted, Abs format (unit mm)*
G04 Created by KiCad (PCBNEW 9.0.7) date 2026-04-09 16:38:03*
%MOMM*%
%LPD*%
G01*
G04 APERTURE LIST*
G04 Aperture macros list*
%AMRoundRect*
0 Rectangle with rounded corners*
0 $1 Rounding radius*
0 $2 $3 $4 $5 $6 $7 $8 $9 X,Y pos of 4 corners*
0 Add a 4 corners polygon primitive as box body*
4,1,4,$2,$3,$4,$5,$6,$7,$8,$9,$2,$3,0*
0 Add four circle primitives for the rounded corners*
1,1,$1+$1,$2,$3*
1,1,$1+$1,$4,$5*
1,1,$1+$1,$6,$7*
1,1,$1+$1,$8,$9*
0 Add four rect primitives between the rounded corners*
20,1,$1+$1,$2,$3,$4,$5,0*
20,1,$1+$1,$4,$5,$6,$7,0*
20,1,$1+$1,$6,$7,$8,$9,0*
20,1,$1+$1,$8,$9,$2,$3,0*%
G04 Aperture macros list end*
%ADD10RoundRect,0.250000X-0.337500X-0.475000X0.337500X-0.475000X0.337500X0.475000X-0.337500X0.475000X0*%
%ADD11RoundRect,0.250000X0.350000X0.450000X-0.350000X0.450000X-0.350000X-0.450000X0.350000X-0.450000X0*%
%ADD12RoundRect,0.250000X-0.450000X0.350000X-0.450000X-0.350000X0.450000X-0.350000X0.450000X0.350000X0*%
%ADD13RoundRect,0.237500X-0.237500X0.250000X-0.237500X-0.250000X0.237500X-0.250000X0.237500X0.250000X0*%
%ADD14RoundRect,0.237500X0.237500X-0.300000X0.237500X0.300000X-0.237500X0.300000X-0.237500X-0.300000X0*%
%ADD15RoundRect,0.250000X-0.350000X-0.450000X0.350000X-0.450000X0.350000X0.450000X-0.350000X0.450000X0*%
%ADD16RoundRect,0.102000X0.300000X0.575000X-0.300000X0.575000X-0.300000X-0.575000X0.300000X-0.575000X0*%
%ADD17RoundRect,0.102000X0.150000X0.575000X-0.150000X0.575000X-0.150000X-0.575000X0.150000X-0.575000X0*%
%ADD18O,1.204000X2.004000*%
%ADD19O,1.204000X2.404000*%
%ADD20RoundRect,0.250000X0.600000X0.750000X-0.600000X0.750000X-0.600000X-0.750000X0.600000X-0.750000X0*%
%ADD21O,1.700000X2.000000*%
%ADD22RoundRect,0.237500X-0.237500X0.287500X-0.237500X-0.287500X0.237500X-0.287500X0.237500X0.287500X0*%
%ADD23RoundRect,0.250000X0.475000X-0.337500X0.475000X0.337500X-0.475000X0.337500X-0.475000X-0.337500X0*%
%ADD24RoundRect,0.250000X-0.475000X0.337500X-0.475000X-0.337500X0.475000X-0.337500X0.475000X0.337500X0*%
%ADD25RoundRect,0.155000X0.155000X-0.212500X0.155000X0.212500X-0.155000X0.212500X-0.155000X-0.212500X0*%
%ADD26RoundRect,0.250000X0.450000X-0.350000X0.450000X0.350000X-0.450000X0.350000X-0.450000X-0.350000X0*%
%ADD27RoundRect,0.150000X-0.150000X-0.275000X0.150000X-0.275000X0.150000X0.275000X-0.150000X0.275000X0*%
%ADD28RoundRect,0.175000X-0.175000X-0.225000X0.175000X-0.225000X0.175000X0.225000X-0.175000X0.225000X0*%
%ADD29C,4.400000*%
%ADD30RoundRect,0.250000X0.350000X-0.275000X0.350000X0.275000X-0.350000X0.275000X-0.350000X-0.275000X0*%
%ADD31RoundRect,0.155000X-0.212500X-0.155000X0.212500X-0.155000X0.212500X0.155000X-0.212500X0.155000X0*%
%ADD32R,0.800001X0.549999*%
%ADD33RoundRect,0.237500X0.300000X0.237500X-0.300000X0.237500X-0.300000X-0.237500X0.300000X-0.237500X0*%
%ADD34R,1.066800X0.711200*%
%ADD35RoundRect,0.155000X-0.155000X0.212500X-0.155000X-0.212500X0.155000X-0.212500X0.155000X0.212500X0*%
%ADD36R,1.250000X1.000000*%
%ADD37RoundRect,0.102000X0.575000X0.700000X-0.575000X0.700000X-0.575000X-0.700000X0.575000X-0.700000X0*%
%ADD38RoundRect,0.237500X0.237500X-0.287500X0.237500X0.287500X-0.237500X0.287500X-0.237500X-0.287500X0*%
%ADD39R,1.270000X0.508000*%
%ADD40R,1.000000X1.250000*%
%ADD41RoundRect,0.237500X-0.300000X-0.237500X0.300000X-0.237500X0.300000X0.237500X-0.300000X0.237500X0*%
%ADD42RoundRect,0.237500X-0.237500X0.300000X-0.237500X-0.300000X0.237500X-0.300000X0.237500X0.300000X0*%
%ADD43RoundRect,0.100000X-0.217500X-0.100000X0.217500X-0.100000X0.217500X0.100000X-0.217500X0.100000X0*%
%ADD44R,0.254000X0.914400*%
%ADD45R,0.914400X0.254000*%
%ADD46R,4.241800X4.241800*%
%ADD47R,1.700000X1.700000*%
%ADD48C,1.700000*%
%ADD49RoundRect,0.250000X0.337500X0.475000X-0.337500X0.475000X-0.337500X-0.475000X0.337500X-0.475000X0*%
%ADD50RoundRect,0.100000X0.217500X0.100000X-0.217500X0.100000X-0.217500X-0.100000X0.217500X-0.100000X0*%
%ADD51RoundRect,0.102000X0.950000X-0.550000X0.950000X0.550000X-0.950000X0.550000X-0.950000X-0.550000X0*%
%ADD52RoundRect,0.125000X-0.125000X0.487500X-0.125000X-0.487500X0.125000X-0.487500X0.125000X0.487500X0*%
%ADD53RoundRect,0.250000X0.600000X0.725000X-0.600000X0.725000X-0.600000X-0.725000X0.600000X-0.725000X0*%
%ADD54O,1.700000X1.950000*%
%ADD55RoundRect,0.250000X-0.725000X0.600000X-0.725000X-0.600000X0.725000X-0.600000X0.725000X0.600000X0*%
%ADD56O,1.950000X1.700000*%
%ADD57RoundRect,0.250000X0.725000X-0.600000X0.725000X0.600000X-0.725000X0.600000X-0.725000X-0.600000X0*%
G04 APERTURE END LIST*
D10*
%TO.C,C14*%
X141516050Y-77588543D03*
X143591050Y-77588543D03*
%TD*%
D11*
%TO.C,R22*%
X169802380Y-114092673D03*
X167802380Y-114092673D03*
%TD*%
D12*
%TO.C,R8*%
X138127507Y-75112081D03*
X138127507Y-77112081D03*
%TD*%
D13*
%TO.C,R20*%
X161000000Y-116675000D03*
X161000000Y-118500000D03*
%TD*%
D14*
%TO.C,C32*%
X172000000Y-113362500D03*
X172000000Y-111637500D03*
%TD*%
D15*
%TO.C,R9*%
X154428385Y-84283261D03*
X156428385Y-84283261D03*
%TD*%
D16*
%TO.C,J1*%
X153200000Y-77812500D03*
X152400000Y-77812500D03*
D17*
X151250000Y-77812500D03*
X150250000Y-77812500D03*
X149750000Y-77812500D03*
X148750000Y-77812500D03*
D16*
X146800000Y-77812500D03*
X147600000Y-77812500D03*
D17*
X148250000Y-77812500D03*
X149250000Y-77812500D03*
X150750000Y-77812500D03*
X151750000Y-77812500D03*
D18*
X154320000Y-77237500D03*
X145680000Y-77237500D03*
D19*
X154320000Y-73237500D03*
X145680000Y-73237500D03*
%TD*%
D20*
%TO.C,J10*%
X161000000Y-77500000D03*
D21*
X158500000Y-77500000D03*
%TD*%
D11*
%TO.C,R5*%
X160500000Y-100500000D03*
X158500000Y-100500000D03*
%TD*%
D22*
%TO.C,L3*%
X171000000Y-108000000D03*
X171000000Y-109750000D03*
%TD*%
D23*
%TO.C,C24*%
X166511710Y-92964675D03*
X166511710Y-90889675D03*
%TD*%
D24*
%TO.C,C26*%
X166500000Y-104962500D03*
X166500000Y-107037500D03*
%TD*%
D25*
%TO.C,C29*%
X162000000Y-88067500D03*
X162000000Y-86932500D03*
%TD*%
D10*
%TO.C,C6*%
X144527360Y-83376136D03*
X146602360Y-83376136D03*
%TD*%
D26*
%TO.C,R1*%
X143822451Y-74169240D03*
X143822451Y-72169240D03*
%TD*%
D25*
%TO.C,C28*%
X167000000Y-86000000D03*
X167000000Y-84865000D03*
%TD*%
D27*
%TO.C,J12*%
X161300000Y-121000000D03*
X162500000Y-121000000D03*
D28*
X160150000Y-124775000D03*
X163650000Y-124775000D03*
%TD*%
D29*
%TO.C,H2*%
X123966376Y-100000000D03*
%TD*%
D30*
%TO.C,L1*%
X151677320Y-85847791D03*
X151677320Y-83547791D03*
%TD*%
D31*
%TO.C,C5*%
X128432500Y-88500000D03*
X129567500Y-88500000D03*
%TD*%
D32*
%TO.C,U4*%
X148515191Y-81739496D03*
X148515191Y-80789495D03*
X148515191Y-79839497D03*
X145965191Y-79839497D03*
X145965191Y-81739496D03*
%TD*%
D33*
%TO.C,C36*%
X162862500Y-114500000D03*
X161137500Y-114500000D03*
%TD*%
D29*
%TO.C,H1*%
X176000000Y-99817778D03*
%TD*%
D34*
%TO.C,XTAL1*%
X164153800Y-85500000D03*
X164153800Y-86800000D03*
X165500000Y-86800000D03*
X165500000Y-85500000D03*
%TD*%
D35*
%TO.C,C4*%
X132500000Y-94395000D03*
X132500000Y-95530000D03*
%TD*%
D13*
%TO.C,R11*%
X156601093Y-87967318D03*
X156601093Y-89792318D03*
%TD*%
D24*
%TO.C,C15*%
X162097443Y-81297488D03*
X162097443Y-83372488D03*
%TD*%
D36*
%TO.C,SW2*%
X131250000Y-81000000D03*
X139000000Y-81000000D03*
%TD*%
D37*
%TO.C,Y2*%
X133588236Y-91631527D03*
X133588236Y-89431527D03*
X131988236Y-89431527D03*
X131988236Y-91631527D03*
%TD*%
D38*
%TO.C,D1*%
X139943265Y-77128843D03*
X139943265Y-75378843D03*
%TD*%
D11*
%TO.C,R19*%
X175500000Y-109500000D03*
X173500000Y-109500000D03*
%TD*%
D22*
%TO.C,L2*%
X169000000Y-110000000D03*
X169000000Y-111750000D03*
%TD*%
D39*
%TO.C,U5*%
X154033510Y-80812871D03*
X154033510Y-81762872D03*
X154033510Y-82712873D03*
X156471910Y-82712873D03*
X156471910Y-81762872D03*
X156471910Y-80812871D03*
%TD*%
D10*
%TO.C,C27*%
X169689856Y-103778569D03*
X171764856Y-103778569D03*
%TD*%
D40*
%TO.C,SW1*%
X155125919Y-95520588D03*
X155125919Y-103270588D03*
%TD*%
D10*
%TO.C,C11*%
X158425000Y-98500000D03*
X160500000Y-98500000D03*
%TD*%
D41*
%TO.C,C37*%
X166137500Y-119000000D03*
X167862500Y-119000000D03*
%TD*%
D42*
%TO.C,C33*%
X170000000Y-116137500D03*
X170000000Y-117862500D03*
%TD*%
D25*
%TO.C,C3*%
X135500000Y-97567500D03*
X135500000Y-96432500D03*
%TD*%
D26*
%TO.C,R2*%
X141874902Y-74706495D03*
X141874902Y-72706495D03*
%TD*%
D43*
%TO.C,C34*%
X165000000Y-114000000D03*
X165815000Y-114000000D03*
%TD*%
D44*
%TO.C,U1*%
X163264009Y-102247137D03*
X163764135Y-102247137D03*
X164264261Y-102247137D03*
X164764387Y-102247137D03*
X165264513Y-102247137D03*
X165764639Y-102247137D03*
X166264765Y-102247137D03*
X166764891Y-102247137D03*
X167265017Y-102247137D03*
X167765143Y-102247137D03*
D45*
X168511776Y-101500504D03*
X168511776Y-101000378D03*
X168511776Y-100500252D03*
X168511776Y-100000126D03*
X168511776Y-99500000D03*
X168511776Y-98999874D03*
X168511776Y-98499748D03*
X168511776Y-97999622D03*
X168511776Y-97499496D03*
X168511776Y-96999370D03*
D44*
X167765143Y-96252737D03*
X167265017Y-96252737D03*
X166764891Y-96252737D03*
X166264765Y-96252737D03*
X165764639Y-96252737D03*
X165264513Y-96252737D03*
X164764387Y-96252737D03*
X164264261Y-96252737D03*
X163764135Y-96252737D03*
X163264009Y-96252737D03*
D45*
X162517376Y-96999370D03*
X162517376Y-97499496D03*
X162517376Y-97999622D03*
X162517376Y-98499748D03*
X162517376Y-98999874D03*
X162517376Y-99500000D03*
X162517376Y-100000126D03*
X162517376Y-100500252D03*
X162517376Y-101000378D03*
X162517376Y-101500504D03*
D46*
X165514576Y-99249937D03*
%TD*%
D23*
%TO.C,C25*%
X164500000Y-92962500D03*
X164500000Y-90887500D03*
%TD*%
D24*
%TO.C,C16*%
X149799796Y-83962500D03*
X149799796Y-86037500D03*
%TD*%
D42*
%TO.C,C31*%
X173000000Y-106000000D03*
X173000000Y-107725000D03*
%TD*%
D35*
%TO.C,C2*%
X138500000Y-98932500D03*
X138500000Y-100067500D03*
%TD*%
D26*
%TO.C,R14*%
X163536144Y-106270297D03*
X163536144Y-104270297D03*
%TD*%
%TO.C,R15*%
X161208986Y-105787336D03*
X161208986Y-103787336D03*
%TD*%
D38*
%TO.C,D2*%
X154863758Y-89874999D03*
X154863758Y-88124999D03*
%TD*%
D10*
%TO.C,C10*%
X144506684Y-85350658D03*
X146581684Y-85350658D03*
%TD*%
D47*
%TO.C,J11*%
X157101288Y-105965962D03*
D48*
X154561288Y-105965962D03*
X157101288Y-108505962D03*
X154561288Y-108505962D03*
X157101288Y-111045962D03*
X154561288Y-111045962D03*
X157101288Y-113585962D03*
X154561288Y-113585962D03*
X157101288Y-116125962D03*
X154561288Y-116125962D03*
X157101288Y-118665962D03*
X154561288Y-118665962D03*
X157101288Y-121205962D03*
X154561288Y-121205962D03*
X157101288Y-123745962D03*
X154561288Y-123745962D03*
X157101288Y-126285962D03*
X154561288Y-126285962D03*
%TD*%
D49*
%TO.C,C12*%
X132037500Y-84500000D03*
X129962500Y-84500000D03*
%TD*%
D13*
%TO.C,R21*%
X166500000Y-121087500D03*
X166500000Y-122912500D03*
%TD*%
D50*
%TO.C,C35*%
X165907500Y-116500000D03*
X165092500Y-116500000D03*
%TD*%
D51*
%TO.C,Y1*%
X138500000Y-96750000D03*
X138500000Y-94250000D03*
%TD*%
D42*
%TO.C,C30*%
X166000000Y-110500000D03*
X166000000Y-112225000D03*
%TD*%
D10*
%TO.C,C19*%
X174537283Y-95989243D03*
X176612283Y-95989243D03*
%TD*%
D52*
%TO.C,D5*%
X152620523Y-79662018D03*
X151320523Y-79662018D03*
X151970523Y-81537018D03*
%TD*%
D11*
%TO.C,R10*%
X156351092Y-86191669D03*
X154351092Y-86191669D03*
%TD*%
D10*
%TO.C,C13*%
X141478934Y-79629904D03*
X143553934Y-79629904D03*
%TD*%
D53*
%TO.C,J2*%
X145000000Y-121000000D03*
D54*
X142500000Y-121000000D03*
X140000000Y-121000000D03*
X137500000Y-121000000D03*
%TD*%
D55*
%TO.C,J7*%
X136000000Y-86000000D03*
D56*
X136000000Y-88500000D03*
X136000000Y-91000000D03*
X136000000Y-93500000D03*
%TD*%
D55*
%TO.C,J4*%
X136500000Y-107500000D03*
D56*
X136500000Y-110000000D03*
X136500000Y-112500000D03*
X136500000Y-115000000D03*
%TD*%
D55*
%TO.C,J3*%
X143500000Y-107500000D03*
D56*
X143500000Y-110000000D03*
X143500000Y-112500000D03*
X143500000Y-115000000D03*
%TD*%
D57*
%TO.C,J5*%
X130500000Y-115000000D03*
D56*
X130500000Y-112500000D03*
X130500000Y-110000000D03*
X130500000Y-107500000D03*
%TD*%
D55*
%TO.C,J6*%
X129000000Y-91500000D03*
D56*
X129000000Y-94000000D03*
X129000000Y-96500000D03*
X129000000Y-99000000D03*
%TD*%
D47*
%TO.C,J9*%
X141908487Y-82472694D03*
D48*
X141908487Y-85012694D03*
X141908487Y-87552694D03*
X141908487Y-90092694D03*
X141908487Y-92632694D03*
X141908487Y-95172694D03*
%TD*%
D47*
%TO.C,J8*%
X159133644Y-82271803D03*
D48*
X159133644Y-84811803D03*
X159133644Y-87351803D03*
X159133644Y-89891803D03*
X159133644Y-92431803D03*
X159133644Y-94971803D03*
%TD*%
M02*
