M48
; DRILL file {KiCad 9.0.7} date 2026-04-09T16:39:17-0700
; FORMAT={-:-/ absolute / metric / decimal}
; #@! TF.CreationDate,2026-04-09T16:39:17-07:00
; #@! TF.GenerationSoftware,Kicad,Pcbnew,9.0.7
; #@! TF.FileFunction,Plated,1,4,PTH
FMAT,2
METRIC
; #@! TA.AperFunction,Plated,PTH,ViaDrill
T1C0.300
; #@! TA.AperFunction,Plated,PTH,ComponentDrill
T2C0.600
; #@! TA.AperFunction,Plated,PTH,ComponentDrill
T3C0.950
; #@! TA.AperFunction,Plated,PTH,ComponentDrill
T4C1.000
; #@! TA.AperFunction,Plated,PTH,ComponentDrill
T5C2.200
%
G90
G05
T1
X133.0Y-103.362
X138.5Y-89.0
X139.0Y-82.5
X139.375Y-79.125
X141.71Y-75.933
X142.0Y-104.0
X142.713Y-101.212
X143.5Y-91.5
X143.564Y-93.459
X143.659Y-94.5
X144.21Y-85.351
X145.524Y-95.5
X145.937Y-83.0
X146.0Y-97.5
X146.34Y-85.109
X146.5Y-95.0
X147.366Y-86.477
X147.649Y-87.226
X147.65Y-76.428
X148.246Y-96.297
X148.5Y-98.5
X148.535Y-80.614
X148.995Y-97.861
X149.5Y-81.5
X149.8Y-83.663
X149.808Y-97.282
X151.0Y-82.523
X151.35Y-81.605
X152.287Y-86.981
X152.386Y-76.429
X153.4Y-96.449
X153.457Y-87.362
X154.0Y-79.5
X154.0Y-97.0
X155.0Y-94.1
X155.296Y-91.704
X155.326Y-100.674
X155.5Y-92.5
X156.0Y-73.0
X156.393Y-103.393
X156.472Y-81.763
X156.826Y-90.826
X159.0Y-97.0
X159.1Y-122.5
X159.806Y-121.017
X160.501Y-106.499
X161.0Y-123.5
X161.023Y-102.569
X162.0Y-86.932
X162.664Y-95.25
X163.0Y-113.0
X163.5Y-112.0
X163.5Y-115.5
X163.637Y-81.303
X164.0Y-111.0
X164.5Y-79.5
X164.5Y-84.261
X164.5Y-94.5
X164.5Y-110.0
X165.0Y-77.5
X165.5Y-76.0
X165.5Y-78.5
X165.5Y-90.0
X165.5Y-94.5
X166.019Y-104.481
X166.5Y-108.0
X167.5Y-87.0
X167.817Y-108.846
X168.5Y-88.0
X168.862Y-119.0
X169.0Y-108.5
X169.5Y-89.0
X170.0Y-90.0
X170.0Y-100.0
X170.0Y-105.5
X170.5Y-91.0
X170.5Y-94.075
X170.5Y-97.5
X171.0Y-100.0
X171.0Y-106.0
X171.85Y-97.675
X172.0Y-105.5
X172.0Y-114.5
X173.0Y-97.5
X178.0Y-96.0
T3
X129.0Y-91.5
X129.0Y-94.0
X129.0Y-96.5
X129.0Y-99.0
X130.5Y-107.5
X130.5Y-110.0
X130.5Y-112.5
X130.5Y-115.0
X136.0Y-86.0
X136.0Y-88.5
X136.0Y-91.0
X136.0Y-93.5
X136.5Y-107.5
X136.5Y-110.0
X136.5Y-112.5
X136.5Y-115.0
X137.5Y-121.0
X140.0Y-121.0
X142.5Y-121.0
X143.5Y-107.5
X143.5Y-110.0
X143.5Y-112.5
X143.5Y-115.0
X145.0Y-121.0
T4
X141.908Y-82.473
X141.908Y-85.013
X141.908Y-87.553
X141.908Y-90.093
X141.908Y-92.633
X141.908Y-95.173
X154.561Y-105.966
X154.561Y-108.506
X154.561Y-111.046
X154.561Y-113.586
X154.561Y-116.126
X154.561Y-118.666
X154.561Y-121.206
X154.561Y-123.746
X154.561Y-126.286
X157.101Y-105.966
X157.101Y-108.506
X157.101Y-111.046
X157.101Y-113.586
X157.101Y-116.126
X157.101Y-118.666
X157.101Y-121.206
X157.101Y-123.746
X157.101Y-126.286
X158.5Y-77.5
X159.134Y-82.272
X159.134Y-84.812
X159.134Y-87.352
X159.134Y-89.892
X159.134Y-92.432
X159.134Y-94.972
X161.0Y-77.5
T5
X123.966Y-100.0
X176.0Y-99.818
T2
X145.68Y-73.837G85X145.68Y-72.638
G05
X145.68Y-77.638G85X145.68Y-76.837
G05
X154.32Y-73.837G85X154.32Y-72.638
G05
X154.32Y-77.638G85X154.32Y-76.837
G05
M30
