%TF.GenerationSoftware,KiCad,Pcbnew,9.0.7*%
%TF.CreationDate,2026-04-09T16:38:02-07:00*%
%TF.ProjectId,PN7160_STM32,504e3731-3630-45f5-9354-4d33322e6b69,1.0*%
%TF.SameCoordinates,Original*%
%TF.FileFunction,Legend,Top*%
%TF.FilePolarity,Positive*%
%FSLAX46Y46*%
G04 Gerber Fmt 4.6, Leading zero omitted, Abs format (unit mm)*
G04 Created by KiCad (PCBNEW 9.0.7) date 2026-04-09 16:38:02*
%MOMM*%
%LPD*%
G01*
G04 APERTURE LIST*
%ADD10C,0.150000*%
%ADD11C,0.120000*%
%ADD12C,0.200000*%
%ADD13C,0.127000*%
%ADD14C,0.152400*%
%ADD15C,0.000000*%
G04 APERTURE END LIST*
D10*
X127482859Y-102856011D02*
X127530478Y-102713154D01*
X127530478Y-102713154D02*
X127530478Y-102475059D01*
X127530478Y-102475059D02*
X127482859Y-102379821D01*
X127482859Y-102379821D02*
X127435239Y-102332202D01*
X127435239Y-102332202D02*
X127340001Y-102284583D01*
X127340001Y-102284583D02*
X127244763Y-102284583D01*
X127244763Y-102284583D02*
X127149525Y-102332202D01*
X127149525Y-102332202D02*
X127101906Y-102379821D01*
X127101906Y-102379821D02*
X127054287Y-102475059D01*
X127054287Y-102475059D02*
X127006668Y-102665535D01*
X127006668Y-102665535D02*
X126959049Y-102760773D01*
X126959049Y-102760773D02*
X126911430Y-102808392D01*
X126911430Y-102808392D02*
X126816192Y-102856011D01*
X126816192Y-102856011D02*
X126720954Y-102856011D01*
X126720954Y-102856011D02*
X126625716Y-102808392D01*
X126625716Y-102808392D02*
X126578097Y-102760773D01*
X126578097Y-102760773D02*
X126530478Y-102665535D01*
X126530478Y-102665535D02*
X126530478Y-102427440D01*
X126530478Y-102427440D02*
X126578097Y-102284583D01*
X127435239Y-101284583D02*
X127482859Y-101332202D01*
X127482859Y-101332202D02*
X127530478Y-101475059D01*
X127530478Y-101475059D02*
X127530478Y-101570297D01*
X127530478Y-101570297D02*
X127482859Y-101713154D01*
X127482859Y-101713154D02*
X127387620Y-101808392D01*
X127387620Y-101808392D02*
X127292382Y-101856011D01*
X127292382Y-101856011D02*
X127101906Y-101903630D01*
X127101906Y-101903630D02*
X126959049Y-101903630D01*
X126959049Y-101903630D02*
X126768573Y-101856011D01*
X126768573Y-101856011D02*
X126673335Y-101808392D01*
X126673335Y-101808392D02*
X126578097Y-101713154D01*
X126578097Y-101713154D02*
X126530478Y-101570297D01*
X126530478Y-101570297D02*
X126530478Y-101475059D01*
X126530478Y-101475059D02*
X126578097Y-101332202D01*
X126578097Y-101332202D02*
X126625716Y-101284583D01*
X127482859Y-100141725D02*
X127530478Y-99998868D01*
X127530478Y-99998868D02*
X127530478Y-99760773D01*
X127530478Y-99760773D02*
X127482859Y-99665535D01*
X127482859Y-99665535D02*
X127435239Y-99617916D01*
X127435239Y-99617916D02*
X127340001Y-99570297D01*
X127340001Y-99570297D02*
X127244763Y-99570297D01*
X127244763Y-99570297D02*
X127149525Y-99617916D01*
X127149525Y-99617916D02*
X127101906Y-99665535D01*
X127101906Y-99665535D02*
X127054287Y-99760773D01*
X127054287Y-99760773D02*
X127006668Y-99951249D01*
X127006668Y-99951249D02*
X126959049Y-100046487D01*
X126959049Y-100046487D02*
X126911430Y-100094106D01*
X126911430Y-100094106D02*
X126816192Y-100141725D01*
X126816192Y-100141725D02*
X126720954Y-100141725D01*
X126720954Y-100141725D02*
X126625716Y-100094106D01*
X126625716Y-100094106D02*
X126578097Y-100046487D01*
X126578097Y-100046487D02*
X126530478Y-99951249D01*
X126530478Y-99951249D02*
X126530478Y-99713154D01*
X126530478Y-99713154D02*
X126578097Y-99570297D01*
X127530478Y-99141725D02*
X126530478Y-99141725D01*
X126530478Y-99141725D02*
X126530478Y-98903630D01*
X126530478Y-98903630D02*
X126578097Y-98760773D01*
X126578097Y-98760773D02*
X126673335Y-98665535D01*
X126673335Y-98665535D02*
X126768573Y-98617916D01*
X126768573Y-98617916D02*
X126959049Y-98570297D01*
X126959049Y-98570297D02*
X127101906Y-98570297D01*
X127101906Y-98570297D02*
X127292382Y-98617916D01*
X127292382Y-98617916D02*
X127387620Y-98665535D01*
X127387620Y-98665535D02*
X127482859Y-98760773D01*
X127482859Y-98760773D02*
X127530478Y-98903630D01*
X127530478Y-98903630D02*
X127530478Y-99141725D01*
X126530478Y-97475058D02*
X126530478Y-96856011D01*
X126530478Y-96856011D02*
X126911430Y-97189344D01*
X126911430Y-97189344D02*
X126911430Y-97046487D01*
X126911430Y-97046487D02*
X126959049Y-96951249D01*
X126959049Y-96951249D02*
X127006668Y-96903630D01*
X127006668Y-96903630D02*
X127101906Y-96856011D01*
X127101906Y-96856011D02*
X127340001Y-96856011D01*
X127340001Y-96856011D02*
X127435239Y-96903630D01*
X127435239Y-96903630D02*
X127482859Y-96951249D01*
X127482859Y-96951249D02*
X127530478Y-97046487D01*
X127530478Y-97046487D02*
X127530478Y-97332201D01*
X127530478Y-97332201D02*
X127482859Y-97427439D01*
X127482859Y-97427439D02*
X127435239Y-97475058D01*
X126863811Y-96522677D02*
X127530478Y-96284582D01*
X127530478Y-96284582D02*
X126863811Y-96046487D01*
X126530478Y-95760772D02*
X126530478Y-95141725D01*
X126530478Y-95141725D02*
X126911430Y-95475058D01*
X126911430Y-95475058D02*
X126911430Y-95332201D01*
X126911430Y-95332201D02*
X126959049Y-95236963D01*
X126959049Y-95236963D02*
X127006668Y-95189344D01*
X127006668Y-95189344D02*
X127101906Y-95141725D01*
X127101906Y-95141725D02*
X127340001Y-95141725D01*
X127340001Y-95141725D02*
X127435239Y-95189344D01*
X127435239Y-95189344D02*
X127482859Y-95236963D01*
X127482859Y-95236963D02*
X127530478Y-95332201D01*
X127530478Y-95332201D02*
X127530478Y-95617915D01*
X127530478Y-95617915D02*
X127482859Y-95713153D01*
X127482859Y-95713153D02*
X127435239Y-95760772D01*
X126578097Y-93427439D02*
X126530478Y-93522677D01*
X126530478Y-93522677D02*
X126530478Y-93665534D01*
X126530478Y-93665534D02*
X126578097Y-93808391D01*
X126578097Y-93808391D02*
X126673335Y-93903629D01*
X126673335Y-93903629D02*
X126768573Y-93951248D01*
X126768573Y-93951248D02*
X126959049Y-93998867D01*
X126959049Y-93998867D02*
X127101906Y-93998867D01*
X127101906Y-93998867D02*
X127292382Y-93951248D01*
X127292382Y-93951248D02*
X127387620Y-93903629D01*
X127387620Y-93903629D02*
X127482859Y-93808391D01*
X127482859Y-93808391D02*
X127530478Y-93665534D01*
X127530478Y-93665534D02*
X127530478Y-93570296D01*
X127530478Y-93570296D02*
X127482859Y-93427439D01*
X127482859Y-93427439D02*
X127435239Y-93379820D01*
X127435239Y-93379820D02*
X127101906Y-93379820D01*
X127101906Y-93379820D02*
X127101906Y-93570296D01*
X127530478Y-92951248D02*
X126530478Y-92951248D01*
X126530478Y-92951248D02*
X127530478Y-92379820D01*
X127530478Y-92379820D02*
X126530478Y-92379820D01*
X127530478Y-91903629D02*
X126530478Y-91903629D01*
X126530478Y-91903629D02*
X126530478Y-91665534D01*
X126530478Y-91665534D02*
X126578097Y-91522677D01*
X126578097Y-91522677D02*
X126673335Y-91427439D01*
X126673335Y-91427439D02*
X126768573Y-91379820D01*
X126768573Y-91379820D02*
X126959049Y-91332201D01*
X126959049Y-91332201D02*
X127101906Y-91332201D01*
X127101906Y-91332201D02*
X127292382Y-91379820D01*
X127292382Y-91379820D02*
X127387620Y-91427439D01*
X127387620Y-91427439D02*
X127482859Y-91522677D01*
X127482859Y-91522677D02*
X127530478Y-91665534D01*
X127530478Y-91665534D02*
X127530478Y-91903629D01*
X127530478Y-90998867D02*
X126863811Y-90475058D01*
X126863811Y-90998867D02*
X127530478Y-90475058D01*
X126625716Y-90141724D02*
X126578097Y-90094105D01*
X126578097Y-90094105D02*
X126530478Y-89998867D01*
X126530478Y-89998867D02*
X126530478Y-89760772D01*
X126530478Y-89760772D02*
X126578097Y-89665534D01*
X126578097Y-89665534D02*
X126625716Y-89617915D01*
X126625716Y-89617915D02*
X126720954Y-89570296D01*
X126720954Y-89570296D02*
X126816192Y-89570296D01*
X126816192Y-89570296D02*
X126959049Y-89617915D01*
X126959049Y-89617915D02*
X127530478Y-90189343D01*
X127530478Y-90189343D02*
X127530478Y-89570296D01*
X134322200Y-116710839D02*
X134369819Y-116567982D01*
X134369819Y-116567982D02*
X134369819Y-116329887D01*
X134369819Y-116329887D02*
X134322200Y-116234649D01*
X134322200Y-116234649D02*
X134274580Y-116187030D01*
X134274580Y-116187030D02*
X134179342Y-116139411D01*
X134179342Y-116139411D02*
X134084104Y-116139411D01*
X134084104Y-116139411D02*
X133988866Y-116187030D01*
X133988866Y-116187030D02*
X133941247Y-116234649D01*
X133941247Y-116234649D02*
X133893628Y-116329887D01*
X133893628Y-116329887D02*
X133846009Y-116520363D01*
X133846009Y-116520363D02*
X133798390Y-116615601D01*
X133798390Y-116615601D02*
X133750771Y-116663220D01*
X133750771Y-116663220D02*
X133655533Y-116710839D01*
X133655533Y-116710839D02*
X133560295Y-116710839D01*
X133560295Y-116710839D02*
X133465057Y-116663220D01*
X133465057Y-116663220D02*
X133417438Y-116615601D01*
X133417438Y-116615601D02*
X133369819Y-116520363D01*
X133369819Y-116520363D02*
X133369819Y-116282268D01*
X133369819Y-116282268D02*
X133417438Y-116139411D01*
X134274580Y-115139411D02*
X134322200Y-115187030D01*
X134322200Y-115187030D02*
X134369819Y-115329887D01*
X134369819Y-115329887D02*
X134369819Y-115425125D01*
X134369819Y-115425125D02*
X134322200Y-115567982D01*
X134322200Y-115567982D02*
X134226961Y-115663220D01*
X134226961Y-115663220D02*
X134131723Y-115710839D01*
X134131723Y-115710839D02*
X133941247Y-115758458D01*
X133941247Y-115758458D02*
X133798390Y-115758458D01*
X133798390Y-115758458D02*
X133607914Y-115710839D01*
X133607914Y-115710839D02*
X133512676Y-115663220D01*
X133512676Y-115663220D02*
X133417438Y-115567982D01*
X133417438Y-115567982D02*
X133369819Y-115425125D01*
X133369819Y-115425125D02*
X133369819Y-115329887D01*
X133369819Y-115329887D02*
X133417438Y-115187030D01*
X133417438Y-115187030D02*
X133465057Y-115139411D01*
X134322200Y-113996553D02*
X134369819Y-113853696D01*
X134369819Y-113853696D02*
X134369819Y-113615601D01*
X134369819Y-113615601D02*
X134322200Y-113520363D01*
X134322200Y-113520363D02*
X134274580Y-113472744D01*
X134274580Y-113472744D02*
X134179342Y-113425125D01*
X134179342Y-113425125D02*
X134084104Y-113425125D01*
X134084104Y-113425125D02*
X133988866Y-113472744D01*
X133988866Y-113472744D02*
X133941247Y-113520363D01*
X133941247Y-113520363D02*
X133893628Y-113615601D01*
X133893628Y-113615601D02*
X133846009Y-113806077D01*
X133846009Y-113806077D02*
X133798390Y-113901315D01*
X133798390Y-113901315D02*
X133750771Y-113948934D01*
X133750771Y-113948934D02*
X133655533Y-113996553D01*
X133655533Y-113996553D02*
X133560295Y-113996553D01*
X133560295Y-113996553D02*
X133465057Y-113948934D01*
X133465057Y-113948934D02*
X133417438Y-113901315D01*
X133417438Y-113901315D02*
X133369819Y-113806077D01*
X133369819Y-113806077D02*
X133369819Y-113567982D01*
X133369819Y-113567982D02*
X133417438Y-113425125D01*
X134369819Y-112996553D02*
X133369819Y-112996553D01*
X133369819Y-112996553D02*
X133369819Y-112758458D01*
X133369819Y-112758458D02*
X133417438Y-112615601D01*
X133417438Y-112615601D02*
X133512676Y-112520363D01*
X133512676Y-112520363D02*
X133607914Y-112472744D01*
X133607914Y-112472744D02*
X133798390Y-112425125D01*
X133798390Y-112425125D02*
X133941247Y-112425125D01*
X133941247Y-112425125D02*
X134131723Y-112472744D01*
X134131723Y-112472744D02*
X134226961Y-112520363D01*
X134226961Y-112520363D02*
X134322200Y-112615601D01*
X134322200Y-112615601D02*
X134369819Y-112758458D01*
X134369819Y-112758458D02*
X134369819Y-112996553D01*
X133369819Y-111329886D02*
X133369819Y-110710839D01*
X133369819Y-110710839D02*
X133750771Y-111044172D01*
X133750771Y-111044172D02*
X133750771Y-110901315D01*
X133750771Y-110901315D02*
X133798390Y-110806077D01*
X133798390Y-110806077D02*
X133846009Y-110758458D01*
X133846009Y-110758458D02*
X133941247Y-110710839D01*
X133941247Y-110710839D02*
X134179342Y-110710839D01*
X134179342Y-110710839D02*
X134274580Y-110758458D01*
X134274580Y-110758458D02*
X134322200Y-110806077D01*
X134322200Y-110806077D02*
X134369819Y-110901315D01*
X134369819Y-110901315D02*
X134369819Y-111187029D01*
X134369819Y-111187029D02*
X134322200Y-111282267D01*
X134322200Y-111282267D02*
X134274580Y-111329886D01*
X133703152Y-110377505D02*
X134369819Y-110139410D01*
X134369819Y-110139410D02*
X133703152Y-109901315D01*
X133369819Y-109615600D02*
X133369819Y-108996553D01*
X133369819Y-108996553D02*
X133750771Y-109329886D01*
X133750771Y-109329886D02*
X133750771Y-109187029D01*
X133750771Y-109187029D02*
X133798390Y-109091791D01*
X133798390Y-109091791D02*
X133846009Y-109044172D01*
X133846009Y-109044172D02*
X133941247Y-108996553D01*
X133941247Y-108996553D02*
X134179342Y-108996553D01*
X134179342Y-108996553D02*
X134274580Y-109044172D01*
X134274580Y-109044172D02*
X134322200Y-109091791D01*
X134322200Y-109091791D02*
X134369819Y-109187029D01*
X134369819Y-109187029D02*
X134369819Y-109472743D01*
X134369819Y-109472743D02*
X134322200Y-109567981D01*
X134322200Y-109567981D02*
X134274580Y-109615600D01*
X133417438Y-107282267D02*
X133369819Y-107377505D01*
X133369819Y-107377505D02*
X133369819Y-107520362D01*
X133369819Y-107520362D02*
X133417438Y-107663219D01*
X133417438Y-107663219D02*
X133512676Y-107758457D01*
X133512676Y-107758457D02*
X133607914Y-107806076D01*
X133607914Y-107806076D02*
X133798390Y-107853695D01*
X133798390Y-107853695D02*
X133941247Y-107853695D01*
X133941247Y-107853695D02*
X134131723Y-107806076D01*
X134131723Y-107806076D02*
X134226961Y-107758457D01*
X134226961Y-107758457D02*
X134322200Y-107663219D01*
X134322200Y-107663219D02*
X134369819Y-107520362D01*
X134369819Y-107520362D02*
X134369819Y-107425124D01*
X134369819Y-107425124D02*
X134322200Y-107282267D01*
X134322200Y-107282267D02*
X134274580Y-107234648D01*
X134274580Y-107234648D02*
X133941247Y-107234648D01*
X133941247Y-107234648D02*
X133941247Y-107425124D01*
X134369819Y-106806076D02*
X133369819Y-106806076D01*
X133369819Y-106806076D02*
X134369819Y-106234648D01*
X134369819Y-106234648D02*
X133369819Y-106234648D01*
X134369819Y-105758457D02*
X133369819Y-105758457D01*
X133369819Y-105758457D02*
X133369819Y-105520362D01*
X133369819Y-105520362D02*
X133417438Y-105377505D01*
X133417438Y-105377505D02*
X133512676Y-105282267D01*
X133512676Y-105282267D02*
X133607914Y-105234648D01*
X133607914Y-105234648D02*
X133798390Y-105187029D01*
X133798390Y-105187029D02*
X133941247Y-105187029D01*
X133941247Y-105187029D02*
X134131723Y-105234648D01*
X134131723Y-105234648D02*
X134226961Y-105282267D01*
X134226961Y-105282267D02*
X134322200Y-105377505D01*
X134322200Y-105377505D02*
X134369819Y-105520362D01*
X134369819Y-105520362D02*
X134369819Y-105758457D01*
X134908207Y-84369819D02*
X134574874Y-83893628D01*
X134336779Y-84369819D02*
X134336779Y-83369819D01*
X134336779Y-83369819D02*
X134717731Y-83369819D01*
X134717731Y-83369819D02*
X134812969Y-83417438D01*
X134812969Y-83417438D02*
X134860588Y-83465057D01*
X134860588Y-83465057D02*
X134908207Y-83560295D01*
X134908207Y-83560295D02*
X134908207Y-83703152D01*
X134908207Y-83703152D02*
X134860588Y-83798390D01*
X134860588Y-83798390D02*
X134812969Y-83846009D01*
X134812969Y-83846009D02*
X134717731Y-83893628D01*
X134717731Y-83893628D02*
X134336779Y-83893628D01*
X135289160Y-84322200D02*
X135432017Y-84369819D01*
X135432017Y-84369819D02*
X135670112Y-84369819D01*
X135670112Y-84369819D02*
X135765350Y-84322200D01*
X135765350Y-84322200D02*
X135812969Y-84274580D01*
X135812969Y-84274580D02*
X135860588Y-84179342D01*
X135860588Y-84179342D02*
X135860588Y-84084104D01*
X135860588Y-84084104D02*
X135812969Y-83988866D01*
X135812969Y-83988866D02*
X135765350Y-83941247D01*
X135765350Y-83941247D02*
X135670112Y-83893628D01*
X135670112Y-83893628D02*
X135479636Y-83846009D01*
X135479636Y-83846009D02*
X135384398Y-83798390D01*
X135384398Y-83798390D02*
X135336779Y-83750771D01*
X135336779Y-83750771D02*
X135289160Y-83655533D01*
X135289160Y-83655533D02*
X135289160Y-83560295D01*
X135289160Y-83560295D02*
X135336779Y-83465057D01*
X135336779Y-83465057D02*
X135384398Y-83417438D01*
X135384398Y-83417438D02*
X135479636Y-83369819D01*
X135479636Y-83369819D02*
X135717731Y-83369819D01*
X135717731Y-83369819D02*
X135860588Y-83417438D01*
X136146303Y-83369819D02*
X136717731Y-83369819D01*
X136432017Y-84369819D02*
X136432017Y-83369819D01*
X152159562Y-103249850D02*
X152207181Y-103106993D01*
X152207181Y-103106993D02*
X152254800Y-103059374D01*
X152254800Y-103059374D02*
X152350038Y-103011755D01*
X152350038Y-103011755D02*
X152492895Y-103011755D01*
X152492895Y-103011755D02*
X152588133Y-103059374D01*
X152588133Y-103059374D02*
X152635753Y-103106993D01*
X152635753Y-103106993D02*
X152683372Y-103202231D01*
X152683372Y-103202231D02*
X152683372Y-103583183D01*
X152683372Y-103583183D02*
X151683372Y-103583183D01*
X151683372Y-103583183D02*
X151683372Y-103249850D01*
X151683372Y-103249850D02*
X151730991Y-103154612D01*
X151730991Y-103154612D02*
X151778610Y-103106993D01*
X151778610Y-103106993D02*
X151873848Y-103059374D01*
X151873848Y-103059374D02*
X151969086Y-103059374D01*
X151969086Y-103059374D02*
X152064324Y-103106993D01*
X152064324Y-103106993D02*
X152111943Y-103154612D01*
X152111943Y-103154612D02*
X152159562Y-103249850D01*
X152159562Y-103249850D02*
X152159562Y-103583183D01*
X151683372Y-102392707D02*
X151683372Y-102202231D01*
X151683372Y-102202231D02*
X151730991Y-102106993D01*
X151730991Y-102106993D02*
X151826229Y-102011755D01*
X151826229Y-102011755D02*
X152016705Y-101964136D01*
X152016705Y-101964136D02*
X152350038Y-101964136D01*
X152350038Y-101964136D02*
X152540514Y-102011755D01*
X152540514Y-102011755D02*
X152635753Y-102106993D01*
X152635753Y-102106993D02*
X152683372Y-102202231D01*
X152683372Y-102202231D02*
X152683372Y-102392707D01*
X152683372Y-102392707D02*
X152635753Y-102487945D01*
X152635753Y-102487945D02*
X152540514Y-102583183D01*
X152540514Y-102583183D02*
X152350038Y-102630802D01*
X152350038Y-102630802D02*
X152016705Y-102630802D01*
X152016705Y-102630802D02*
X151826229Y-102583183D01*
X151826229Y-102583183D02*
X151730991Y-102487945D01*
X151730991Y-102487945D02*
X151683372Y-102392707D01*
X151683372Y-101345088D02*
X151683372Y-101154612D01*
X151683372Y-101154612D02*
X151730991Y-101059374D01*
X151730991Y-101059374D02*
X151826229Y-100964136D01*
X151826229Y-100964136D02*
X152016705Y-100916517D01*
X152016705Y-100916517D02*
X152350038Y-100916517D01*
X152350038Y-100916517D02*
X152540514Y-100964136D01*
X152540514Y-100964136D02*
X152635753Y-101059374D01*
X152635753Y-101059374D02*
X152683372Y-101154612D01*
X152683372Y-101154612D02*
X152683372Y-101345088D01*
X152683372Y-101345088D02*
X152635753Y-101440326D01*
X152635753Y-101440326D02*
X152540514Y-101535564D01*
X152540514Y-101535564D02*
X152350038Y-101583183D01*
X152350038Y-101583183D02*
X152016705Y-101583183D01*
X152016705Y-101583183D02*
X151826229Y-101535564D01*
X151826229Y-101535564D02*
X151730991Y-101440326D01*
X151730991Y-101440326D02*
X151683372Y-101345088D01*
X151683372Y-100630802D02*
X151683372Y-100059374D01*
X152683372Y-100345088D02*
X151683372Y-100345088D01*
X135789160Y-124322200D02*
X135932017Y-124369819D01*
X135932017Y-124369819D02*
X136170112Y-124369819D01*
X136170112Y-124369819D02*
X136265350Y-124322200D01*
X136265350Y-124322200D02*
X136312969Y-124274580D01*
X136312969Y-124274580D02*
X136360588Y-124179342D01*
X136360588Y-124179342D02*
X136360588Y-124084104D01*
X136360588Y-124084104D02*
X136312969Y-123988866D01*
X136312969Y-123988866D02*
X136265350Y-123941247D01*
X136265350Y-123941247D02*
X136170112Y-123893628D01*
X136170112Y-123893628D02*
X135979636Y-123846009D01*
X135979636Y-123846009D02*
X135884398Y-123798390D01*
X135884398Y-123798390D02*
X135836779Y-123750771D01*
X135836779Y-123750771D02*
X135789160Y-123655533D01*
X135789160Y-123655533D02*
X135789160Y-123560295D01*
X135789160Y-123560295D02*
X135836779Y-123465057D01*
X135836779Y-123465057D02*
X135884398Y-123417438D01*
X135884398Y-123417438D02*
X135979636Y-123369819D01*
X135979636Y-123369819D02*
X136217731Y-123369819D01*
X136217731Y-123369819D02*
X136360588Y-123417438D01*
X137360588Y-124274580D02*
X137312969Y-124322200D01*
X137312969Y-124322200D02*
X137170112Y-124369819D01*
X137170112Y-124369819D02*
X137074874Y-124369819D01*
X137074874Y-124369819D02*
X136932017Y-124322200D01*
X136932017Y-124322200D02*
X136836779Y-124226961D01*
X136836779Y-124226961D02*
X136789160Y-124131723D01*
X136789160Y-124131723D02*
X136741541Y-123941247D01*
X136741541Y-123941247D02*
X136741541Y-123798390D01*
X136741541Y-123798390D02*
X136789160Y-123607914D01*
X136789160Y-123607914D02*
X136836779Y-123512676D01*
X136836779Y-123512676D02*
X136932017Y-123417438D01*
X136932017Y-123417438D02*
X137074874Y-123369819D01*
X137074874Y-123369819D02*
X137170112Y-123369819D01*
X137170112Y-123369819D02*
X137312969Y-123417438D01*
X137312969Y-123417438D02*
X137360588Y-123465057D01*
X138503446Y-124322200D02*
X138646303Y-124369819D01*
X138646303Y-124369819D02*
X138884398Y-124369819D01*
X138884398Y-124369819D02*
X138979636Y-124322200D01*
X138979636Y-124322200D02*
X139027255Y-124274580D01*
X139027255Y-124274580D02*
X139074874Y-124179342D01*
X139074874Y-124179342D02*
X139074874Y-124084104D01*
X139074874Y-124084104D02*
X139027255Y-123988866D01*
X139027255Y-123988866D02*
X138979636Y-123941247D01*
X138979636Y-123941247D02*
X138884398Y-123893628D01*
X138884398Y-123893628D02*
X138693922Y-123846009D01*
X138693922Y-123846009D02*
X138598684Y-123798390D01*
X138598684Y-123798390D02*
X138551065Y-123750771D01*
X138551065Y-123750771D02*
X138503446Y-123655533D01*
X138503446Y-123655533D02*
X138503446Y-123560295D01*
X138503446Y-123560295D02*
X138551065Y-123465057D01*
X138551065Y-123465057D02*
X138598684Y-123417438D01*
X138598684Y-123417438D02*
X138693922Y-123369819D01*
X138693922Y-123369819D02*
X138932017Y-123369819D01*
X138932017Y-123369819D02*
X139074874Y-123417438D01*
X139503446Y-124369819D02*
X139503446Y-123369819D01*
X139503446Y-123369819D02*
X139741541Y-123369819D01*
X139741541Y-123369819D02*
X139884398Y-123417438D01*
X139884398Y-123417438D02*
X139979636Y-123512676D01*
X139979636Y-123512676D02*
X140027255Y-123607914D01*
X140027255Y-123607914D02*
X140074874Y-123798390D01*
X140074874Y-123798390D02*
X140074874Y-123941247D01*
X140074874Y-123941247D02*
X140027255Y-124131723D01*
X140027255Y-124131723D02*
X139979636Y-124226961D01*
X139979636Y-124226961D02*
X139884398Y-124322200D01*
X139884398Y-124322200D02*
X139741541Y-124369819D01*
X139741541Y-124369819D02*
X139503446Y-124369819D01*
X141170113Y-123369819D02*
X141789160Y-123369819D01*
X141789160Y-123369819D02*
X141455827Y-123750771D01*
X141455827Y-123750771D02*
X141598684Y-123750771D01*
X141598684Y-123750771D02*
X141693922Y-123798390D01*
X141693922Y-123798390D02*
X141741541Y-123846009D01*
X141741541Y-123846009D02*
X141789160Y-123941247D01*
X141789160Y-123941247D02*
X141789160Y-124179342D01*
X141789160Y-124179342D02*
X141741541Y-124274580D01*
X141741541Y-124274580D02*
X141693922Y-124322200D01*
X141693922Y-124322200D02*
X141598684Y-124369819D01*
X141598684Y-124369819D02*
X141312970Y-124369819D01*
X141312970Y-124369819D02*
X141217732Y-124322200D01*
X141217732Y-124322200D02*
X141170113Y-124274580D01*
X142122494Y-123703152D02*
X142360589Y-124369819D01*
X142360589Y-124369819D02*
X142598684Y-123703152D01*
X142884399Y-123369819D02*
X143503446Y-123369819D01*
X143503446Y-123369819D02*
X143170113Y-123750771D01*
X143170113Y-123750771D02*
X143312970Y-123750771D01*
X143312970Y-123750771D02*
X143408208Y-123798390D01*
X143408208Y-123798390D02*
X143455827Y-123846009D01*
X143455827Y-123846009D02*
X143503446Y-123941247D01*
X143503446Y-123941247D02*
X143503446Y-124179342D01*
X143503446Y-124179342D02*
X143455827Y-124274580D01*
X143455827Y-124274580D02*
X143408208Y-124322200D01*
X143408208Y-124322200D02*
X143312970Y-124369819D01*
X143312970Y-124369819D02*
X143027256Y-124369819D01*
X143027256Y-124369819D02*
X142932018Y-124322200D01*
X142932018Y-124322200D02*
X142884399Y-124274580D01*
X145217732Y-123417438D02*
X145122494Y-123369819D01*
X145122494Y-123369819D02*
X144979637Y-123369819D01*
X144979637Y-123369819D02*
X144836780Y-123417438D01*
X144836780Y-123417438D02*
X144741542Y-123512676D01*
X144741542Y-123512676D02*
X144693923Y-123607914D01*
X144693923Y-123607914D02*
X144646304Y-123798390D01*
X144646304Y-123798390D02*
X144646304Y-123941247D01*
X144646304Y-123941247D02*
X144693923Y-124131723D01*
X144693923Y-124131723D02*
X144741542Y-124226961D01*
X144741542Y-124226961D02*
X144836780Y-124322200D01*
X144836780Y-124322200D02*
X144979637Y-124369819D01*
X144979637Y-124369819D02*
X145074875Y-124369819D01*
X145074875Y-124369819D02*
X145217732Y-124322200D01*
X145217732Y-124322200D02*
X145265351Y-124274580D01*
X145265351Y-124274580D02*
X145265351Y-123941247D01*
X145265351Y-123941247D02*
X145074875Y-123941247D01*
X145693923Y-124369819D02*
X145693923Y-123369819D01*
X145693923Y-123369819D02*
X146265351Y-124369819D01*
X146265351Y-124369819D02*
X146265351Y-123369819D01*
X146741542Y-124369819D02*
X146741542Y-123369819D01*
X146741542Y-123369819D02*
X146979637Y-123369819D01*
X146979637Y-123369819D02*
X147122494Y-123417438D01*
X147122494Y-123417438D02*
X147217732Y-123512676D01*
X147217732Y-123512676D02*
X147265351Y-123607914D01*
X147265351Y-123607914D02*
X147312970Y-123798390D01*
X147312970Y-123798390D02*
X147312970Y-123941247D01*
X147312970Y-123941247D02*
X147265351Y-124131723D01*
X147265351Y-124131723D02*
X147217732Y-124226961D01*
X147217732Y-124226961D02*
X147122494Y-124322200D01*
X147122494Y-124322200D02*
X146979637Y-124369819D01*
X146979637Y-124369819D02*
X146741542Y-124369819D01*
X141322200Y-116710839D02*
X141369819Y-116567982D01*
X141369819Y-116567982D02*
X141369819Y-116329887D01*
X141369819Y-116329887D02*
X141322200Y-116234649D01*
X141322200Y-116234649D02*
X141274580Y-116187030D01*
X141274580Y-116187030D02*
X141179342Y-116139411D01*
X141179342Y-116139411D02*
X141084104Y-116139411D01*
X141084104Y-116139411D02*
X140988866Y-116187030D01*
X140988866Y-116187030D02*
X140941247Y-116234649D01*
X140941247Y-116234649D02*
X140893628Y-116329887D01*
X140893628Y-116329887D02*
X140846009Y-116520363D01*
X140846009Y-116520363D02*
X140798390Y-116615601D01*
X140798390Y-116615601D02*
X140750771Y-116663220D01*
X140750771Y-116663220D02*
X140655533Y-116710839D01*
X140655533Y-116710839D02*
X140560295Y-116710839D01*
X140560295Y-116710839D02*
X140465057Y-116663220D01*
X140465057Y-116663220D02*
X140417438Y-116615601D01*
X140417438Y-116615601D02*
X140369819Y-116520363D01*
X140369819Y-116520363D02*
X140369819Y-116282268D01*
X140369819Y-116282268D02*
X140417438Y-116139411D01*
X141274580Y-115139411D02*
X141322200Y-115187030D01*
X141322200Y-115187030D02*
X141369819Y-115329887D01*
X141369819Y-115329887D02*
X141369819Y-115425125D01*
X141369819Y-115425125D02*
X141322200Y-115567982D01*
X141322200Y-115567982D02*
X141226961Y-115663220D01*
X141226961Y-115663220D02*
X141131723Y-115710839D01*
X141131723Y-115710839D02*
X140941247Y-115758458D01*
X140941247Y-115758458D02*
X140798390Y-115758458D01*
X140798390Y-115758458D02*
X140607914Y-115710839D01*
X140607914Y-115710839D02*
X140512676Y-115663220D01*
X140512676Y-115663220D02*
X140417438Y-115567982D01*
X140417438Y-115567982D02*
X140369819Y-115425125D01*
X140369819Y-115425125D02*
X140369819Y-115329887D01*
X140369819Y-115329887D02*
X140417438Y-115187030D01*
X140417438Y-115187030D02*
X140465057Y-115139411D01*
X141322200Y-113996553D02*
X141369819Y-113853696D01*
X141369819Y-113853696D02*
X141369819Y-113615601D01*
X141369819Y-113615601D02*
X141322200Y-113520363D01*
X141322200Y-113520363D02*
X141274580Y-113472744D01*
X141274580Y-113472744D02*
X141179342Y-113425125D01*
X141179342Y-113425125D02*
X141084104Y-113425125D01*
X141084104Y-113425125D02*
X140988866Y-113472744D01*
X140988866Y-113472744D02*
X140941247Y-113520363D01*
X140941247Y-113520363D02*
X140893628Y-113615601D01*
X140893628Y-113615601D02*
X140846009Y-113806077D01*
X140846009Y-113806077D02*
X140798390Y-113901315D01*
X140798390Y-113901315D02*
X140750771Y-113948934D01*
X140750771Y-113948934D02*
X140655533Y-113996553D01*
X140655533Y-113996553D02*
X140560295Y-113996553D01*
X140560295Y-113996553D02*
X140465057Y-113948934D01*
X140465057Y-113948934D02*
X140417438Y-113901315D01*
X140417438Y-113901315D02*
X140369819Y-113806077D01*
X140369819Y-113806077D02*
X140369819Y-113567982D01*
X140369819Y-113567982D02*
X140417438Y-113425125D01*
X141369819Y-112996553D02*
X140369819Y-112996553D01*
X140369819Y-112996553D02*
X140369819Y-112758458D01*
X140369819Y-112758458D02*
X140417438Y-112615601D01*
X140417438Y-112615601D02*
X140512676Y-112520363D01*
X140512676Y-112520363D02*
X140607914Y-112472744D01*
X140607914Y-112472744D02*
X140798390Y-112425125D01*
X140798390Y-112425125D02*
X140941247Y-112425125D01*
X140941247Y-112425125D02*
X141131723Y-112472744D01*
X141131723Y-112472744D02*
X141226961Y-112520363D01*
X141226961Y-112520363D02*
X141322200Y-112615601D01*
X141322200Y-112615601D02*
X141369819Y-112758458D01*
X141369819Y-112758458D02*
X141369819Y-112996553D01*
X140369819Y-111329886D02*
X140369819Y-110710839D01*
X140369819Y-110710839D02*
X140750771Y-111044172D01*
X140750771Y-111044172D02*
X140750771Y-110901315D01*
X140750771Y-110901315D02*
X140798390Y-110806077D01*
X140798390Y-110806077D02*
X140846009Y-110758458D01*
X140846009Y-110758458D02*
X140941247Y-110710839D01*
X140941247Y-110710839D02*
X141179342Y-110710839D01*
X141179342Y-110710839D02*
X141274580Y-110758458D01*
X141274580Y-110758458D02*
X141322200Y-110806077D01*
X141322200Y-110806077D02*
X141369819Y-110901315D01*
X141369819Y-110901315D02*
X141369819Y-111187029D01*
X141369819Y-111187029D02*
X141322200Y-111282267D01*
X141322200Y-111282267D02*
X141274580Y-111329886D01*
X140703152Y-110377505D02*
X141369819Y-110139410D01*
X141369819Y-110139410D02*
X140703152Y-109901315D01*
X140369819Y-109615600D02*
X140369819Y-108996553D01*
X140369819Y-108996553D02*
X140750771Y-109329886D01*
X140750771Y-109329886D02*
X140750771Y-109187029D01*
X140750771Y-109187029D02*
X140798390Y-109091791D01*
X140798390Y-109091791D02*
X140846009Y-109044172D01*
X140846009Y-109044172D02*
X140941247Y-108996553D01*
X140941247Y-108996553D02*
X141179342Y-108996553D01*
X141179342Y-108996553D02*
X141274580Y-109044172D01*
X141274580Y-109044172D02*
X141322200Y-109091791D01*
X141322200Y-109091791D02*
X141369819Y-109187029D01*
X141369819Y-109187029D02*
X141369819Y-109472743D01*
X141369819Y-109472743D02*
X141322200Y-109567981D01*
X141322200Y-109567981D02*
X141274580Y-109615600D01*
X140417438Y-107282267D02*
X140369819Y-107377505D01*
X140369819Y-107377505D02*
X140369819Y-107520362D01*
X140369819Y-107520362D02*
X140417438Y-107663219D01*
X140417438Y-107663219D02*
X140512676Y-107758457D01*
X140512676Y-107758457D02*
X140607914Y-107806076D01*
X140607914Y-107806076D02*
X140798390Y-107853695D01*
X140798390Y-107853695D02*
X140941247Y-107853695D01*
X140941247Y-107853695D02*
X141131723Y-107806076D01*
X141131723Y-107806076D02*
X141226961Y-107758457D01*
X141226961Y-107758457D02*
X141322200Y-107663219D01*
X141322200Y-107663219D02*
X141369819Y-107520362D01*
X141369819Y-107520362D02*
X141369819Y-107425124D01*
X141369819Y-107425124D02*
X141322200Y-107282267D01*
X141322200Y-107282267D02*
X141274580Y-107234648D01*
X141274580Y-107234648D02*
X140941247Y-107234648D01*
X140941247Y-107234648D02*
X140941247Y-107425124D01*
X141369819Y-106806076D02*
X140369819Y-106806076D01*
X140369819Y-106806076D02*
X141369819Y-106234648D01*
X141369819Y-106234648D02*
X140369819Y-106234648D01*
X141369819Y-105758457D02*
X140369819Y-105758457D01*
X140369819Y-105758457D02*
X140369819Y-105520362D01*
X140369819Y-105520362D02*
X140417438Y-105377505D01*
X140417438Y-105377505D02*
X140512676Y-105282267D01*
X140512676Y-105282267D02*
X140607914Y-105234648D01*
X140607914Y-105234648D02*
X140798390Y-105187029D01*
X140798390Y-105187029D02*
X140941247Y-105187029D01*
X140941247Y-105187029D02*
X141131723Y-105234648D01*
X141131723Y-105234648D02*
X141226961Y-105282267D01*
X141226961Y-105282267D02*
X141322200Y-105377505D01*
X141322200Y-105377505D02*
X141369819Y-105520362D01*
X141369819Y-105520362D02*
X141369819Y-105758457D01*
X127177800Y-105789160D02*
X127130180Y-105932017D01*
X127130180Y-105932017D02*
X127130180Y-106170112D01*
X127130180Y-106170112D02*
X127177800Y-106265350D01*
X127177800Y-106265350D02*
X127225419Y-106312969D01*
X127225419Y-106312969D02*
X127320657Y-106360588D01*
X127320657Y-106360588D02*
X127415895Y-106360588D01*
X127415895Y-106360588D02*
X127511133Y-106312969D01*
X127511133Y-106312969D02*
X127558752Y-106265350D01*
X127558752Y-106265350D02*
X127606371Y-106170112D01*
X127606371Y-106170112D02*
X127653990Y-105979636D01*
X127653990Y-105979636D02*
X127701609Y-105884398D01*
X127701609Y-105884398D02*
X127749228Y-105836779D01*
X127749228Y-105836779D02*
X127844466Y-105789160D01*
X127844466Y-105789160D02*
X127939704Y-105789160D01*
X127939704Y-105789160D02*
X128034942Y-105836779D01*
X128034942Y-105836779D02*
X128082561Y-105884398D01*
X128082561Y-105884398D02*
X128130180Y-105979636D01*
X128130180Y-105979636D02*
X128130180Y-106217731D01*
X128130180Y-106217731D02*
X128082561Y-106360588D01*
X127225419Y-107360588D02*
X127177800Y-107312969D01*
X127177800Y-107312969D02*
X127130180Y-107170112D01*
X127130180Y-107170112D02*
X127130180Y-107074874D01*
X127130180Y-107074874D02*
X127177800Y-106932017D01*
X127177800Y-106932017D02*
X127273038Y-106836779D01*
X127273038Y-106836779D02*
X127368276Y-106789160D01*
X127368276Y-106789160D02*
X127558752Y-106741541D01*
X127558752Y-106741541D02*
X127701609Y-106741541D01*
X127701609Y-106741541D02*
X127892085Y-106789160D01*
X127892085Y-106789160D02*
X127987323Y-106836779D01*
X127987323Y-106836779D02*
X128082561Y-106932017D01*
X128082561Y-106932017D02*
X128130180Y-107074874D01*
X128130180Y-107074874D02*
X128130180Y-107170112D01*
X128130180Y-107170112D02*
X128082561Y-107312969D01*
X128082561Y-107312969D02*
X128034942Y-107360588D01*
X127177800Y-108503446D02*
X127130180Y-108646303D01*
X127130180Y-108646303D02*
X127130180Y-108884398D01*
X127130180Y-108884398D02*
X127177800Y-108979636D01*
X127177800Y-108979636D02*
X127225419Y-109027255D01*
X127225419Y-109027255D02*
X127320657Y-109074874D01*
X127320657Y-109074874D02*
X127415895Y-109074874D01*
X127415895Y-109074874D02*
X127511133Y-109027255D01*
X127511133Y-109027255D02*
X127558752Y-108979636D01*
X127558752Y-108979636D02*
X127606371Y-108884398D01*
X127606371Y-108884398D02*
X127653990Y-108693922D01*
X127653990Y-108693922D02*
X127701609Y-108598684D01*
X127701609Y-108598684D02*
X127749228Y-108551065D01*
X127749228Y-108551065D02*
X127844466Y-108503446D01*
X127844466Y-108503446D02*
X127939704Y-108503446D01*
X127939704Y-108503446D02*
X128034942Y-108551065D01*
X128034942Y-108551065D02*
X128082561Y-108598684D01*
X128082561Y-108598684D02*
X128130180Y-108693922D01*
X128130180Y-108693922D02*
X128130180Y-108932017D01*
X128130180Y-108932017D02*
X128082561Y-109074874D01*
X127130180Y-109503446D02*
X128130180Y-109503446D01*
X128130180Y-109503446D02*
X128130180Y-109741541D01*
X128130180Y-109741541D02*
X128082561Y-109884398D01*
X128082561Y-109884398D02*
X127987323Y-109979636D01*
X127987323Y-109979636D02*
X127892085Y-110027255D01*
X127892085Y-110027255D02*
X127701609Y-110074874D01*
X127701609Y-110074874D02*
X127558752Y-110074874D01*
X127558752Y-110074874D02*
X127368276Y-110027255D01*
X127368276Y-110027255D02*
X127273038Y-109979636D01*
X127273038Y-109979636D02*
X127177800Y-109884398D01*
X127177800Y-109884398D02*
X127130180Y-109741541D01*
X127130180Y-109741541D02*
X127130180Y-109503446D01*
X128130180Y-111170113D02*
X128130180Y-111789160D01*
X128130180Y-111789160D02*
X127749228Y-111455827D01*
X127749228Y-111455827D02*
X127749228Y-111598684D01*
X127749228Y-111598684D02*
X127701609Y-111693922D01*
X127701609Y-111693922D02*
X127653990Y-111741541D01*
X127653990Y-111741541D02*
X127558752Y-111789160D01*
X127558752Y-111789160D02*
X127320657Y-111789160D01*
X127320657Y-111789160D02*
X127225419Y-111741541D01*
X127225419Y-111741541D02*
X127177800Y-111693922D01*
X127177800Y-111693922D02*
X127130180Y-111598684D01*
X127130180Y-111598684D02*
X127130180Y-111312970D01*
X127130180Y-111312970D02*
X127177800Y-111217732D01*
X127177800Y-111217732D02*
X127225419Y-111170113D01*
X127796847Y-112122494D02*
X127130180Y-112360589D01*
X127130180Y-112360589D02*
X127796847Y-112598684D01*
X128130180Y-112884399D02*
X128130180Y-113503446D01*
X128130180Y-113503446D02*
X127749228Y-113170113D01*
X127749228Y-113170113D02*
X127749228Y-113312970D01*
X127749228Y-113312970D02*
X127701609Y-113408208D01*
X127701609Y-113408208D02*
X127653990Y-113455827D01*
X127653990Y-113455827D02*
X127558752Y-113503446D01*
X127558752Y-113503446D02*
X127320657Y-113503446D01*
X127320657Y-113503446D02*
X127225419Y-113455827D01*
X127225419Y-113455827D02*
X127177800Y-113408208D01*
X127177800Y-113408208D02*
X127130180Y-113312970D01*
X127130180Y-113312970D02*
X127130180Y-113027256D01*
X127130180Y-113027256D02*
X127177800Y-112932018D01*
X127177800Y-112932018D02*
X127225419Y-112884399D01*
X128082561Y-115217732D02*
X128130180Y-115122494D01*
X128130180Y-115122494D02*
X128130180Y-114979637D01*
X128130180Y-114979637D02*
X128082561Y-114836780D01*
X128082561Y-114836780D02*
X127987323Y-114741542D01*
X127987323Y-114741542D02*
X127892085Y-114693923D01*
X127892085Y-114693923D02*
X127701609Y-114646304D01*
X127701609Y-114646304D02*
X127558752Y-114646304D01*
X127558752Y-114646304D02*
X127368276Y-114693923D01*
X127368276Y-114693923D02*
X127273038Y-114741542D01*
X127273038Y-114741542D02*
X127177800Y-114836780D01*
X127177800Y-114836780D02*
X127130180Y-114979637D01*
X127130180Y-114979637D02*
X127130180Y-115074875D01*
X127130180Y-115074875D02*
X127177800Y-115217732D01*
X127177800Y-115217732D02*
X127225419Y-115265351D01*
X127225419Y-115265351D02*
X127558752Y-115265351D01*
X127558752Y-115265351D02*
X127558752Y-115074875D01*
X127130180Y-115693923D02*
X128130180Y-115693923D01*
X128130180Y-115693923D02*
X127130180Y-116265351D01*
X127130180Y-116265351D02*
X128130180Y-116265351D01*
X127130180Y-116741542D02*
X128130180Y-116741542D01*
X128130180Y-116741542D02*
X128130180Y-116979637D01*
X128130180Y-116979637D02*
X128082561Y-117122494D01*
X128082561Y-117122494D02*
X127987323Y-117217732D01*
X127987323Y-117217732D02*
X127892085Y-117265351D01*
X127892085Y-117265351D02*
X127701609Y-117312970D01*
X127701609Y-117312970D02*
X127558752Y-117312970D01*
X127558752Y-117312970D02*
X127368276Y-117265351D01*
X127368276Y-117265351D02*
X127273038Y-117217732D01*
X127273038Y-117217732D02*
X127177800Y-117122494D01*
X127177800Y-117122494D02*
X127130180Y-116979637D01*
X127130180Y-116979637D02*
X127130180Y-116741542D01*
X141538716Y-76472537D02*
X141491097Y-76520157D01*
X141491097Y-76520157D02*
X141348240Y-76567776D01*
X141348240Y-76567776D02*
X141253002Y-76567776D01*
X141253002Y-76567776D02*
X141110145Y-76520157D01*
X141110145Y-76520157D02*
X141014907Y-76424918D01*
X141014907Y-76424918D02*
X140967288Y-76329680D01*
X140967288Y-76329680D02*
X140919669Y-76139204D01*
X140919669Y-76139204D02*
X140919669Y-75996347D01*
X140919669Y-75996347D02*
X140967288Y-75805871D01*
X140967288Y-75805871D02*
X141014907Y-75710633D01*
X141014907Y-75710633D02*
X141110145Y-75615395D01*
X141110145Y-75615395D02*
X141253002Y-75567776D01*
X141253002Y-75567776D02*
X141348240Y-75567776D01*
X141348240Y-75567776D02*
X141491097Y-75615395D01*
X141491097Y-75615395D02*
X141538716Y-75663014D01*
X142491097Y-76567776D02*
X141919669Y-76567776D01*
X142205383Y-76567776D02*
X142205383Y-75567776D01*
X142205383Y-75567776D02*
X142110145Y-75710633D01*
X142110145Y-75710633D02*
X142014907Y-75805871D01*
X142014907Y-75805871D02*
X141919669Y-75853490D01*
X143348240Y-75901109D02*
X143348240Y-76567776D01*
X143110145Y-75520157D02*
X142872050Y-76234442D01*
X142872050Y-76234442D02*
X143491097Y-76234442D01*
X171267097Y-115308894D02*
X170933764Y-114832703D01*
X170695669Y-115308894D02*
X170695669Y-114308894D01*
X170695669Y-114308894D02*
X171076621Y-114308894D01*
X171076621Y-114308894D02*
X171171859Y-114356513D01*
X171171859Y-114356513D02*
X171219478Y-114404132D01*
X171219478Y-114404132D02*
X171267097Y-114499370D01*
X171267097Y-114499370D02*
X171267097Y-114642227D01*
X171267097Y-114642227D02*
X171219478Y-114737465D01*
X171219478Y-114737465D02*
X171171859Y-114785084D01*
X171171859Y-114785084D02*
X171076621Y-114832703D01*
X171076621Y-114832703D02*
X170695669Y-114832703D01*
X171648050Y-114404132D02*
X171695669Y-114356513D01*
X171695669Y-114356513D02*
X171790907Y-114308894D01*
X171790907Y-114308894D02*
X172029002Y-114308894D01*
X172029002Y-114308894D02*
X172124240Y-114356513D01*
X172124240Y-114356513D02*
X172171859Y-114404132D01*
X172171859Y-114404132D02*
X172219478Y-114499370D01*
X172219478Y-114499370D02*
X172219478Y-114594608D01*
X172219478Y-114594608D02*
X172171859Y-114737465D01*
X172171859Y-114737465D02*
X171600431Y-115308894D01*
X171600431Y-115308894D02*
X172219478Y-115308894D01*
X172600431Y-114404132D02*
X172648050Y-114356513D01*
X172648050Y-114356513D02*
X172743288Y-114308894D01*
X172743288Y-114308894D02*
X172981383Y-114308894D01*
X172981383Y-114308894D02*
X173076621Y-114356513D01*
X173076621Y-114356513D02*
X173124240Y-114404132D01*
X173124240Y-114404132D02*
X173171859Y-114499370D01*
X173171859Y-114499370D02*
X173171859Y-114594608D01*
X173171859Y-114594608D02*
X173124240Y-114737465D01*
X173124240Y-114737465D02*
X172552812Y-115308894D01*
X172552812Y-115308894D02*
X173171859Y-115308894D01*
X136662511Y-75905999D02*
X136186320Y-76239332D01*
X136662511Y-76477427D02*
X135662511Y-76477427D01*
X135662511Y-76477427D02*
X135662511Y-76096475D01*
X135662511Y-76096475D02*
X135710130Y-76001237D01*
X135710130Y-76001237D02*
X135757749Y-75953618D01*
X135757749Y-75953618D02*
X135852987Y-75905999D01*
X135852987Y-75905999D02*
X135995844Y-75905999D01*
X135995844Y-75905999D02*
X136091082Y-75953618D01*
X136091082Y-75953618D02*
X136138701Y-76001237D01*
X136138701Y-76001237D02*
X136186320Y-76096475D01*
X136186320Y-76096475D02*
X136186320Y-76477427D01*
X136091082Y-75334570D02*
X136043463Y-75429808D01*
X136043463Y-75429808D02*
X135995844Y-75477427D01*
X135995844Y-75477427D02*
X135900606Y-75525046D01*
X135900606Y-75525046D02*
X135852987Y-75525046D01*
X135852987Y-75525046D02*
X135757749Y-75477427D01*
X135757749Y-75477427D02*
X135710130Y-75429808D01*
X135710130Y-75429808D02*
X135662511Y-75334570D01*
X135662511Y-75334570D02*
X135662511Y-75144094D01*
X135662511Y-75144094D02*
X135710130Y-75048856D01*
X135710130Y-75048856D02*
X135757749Y-75001237D01*
X135757749Y-75001237D02*
X135852987Y-74953618D01*
X135852987Y-74953618D02*
X135900606Y-74953618D01*
X135900606Y-74953618D02*
X135995844Y-75001237D01*
X135995844Y-75001237D02*
X136043463Y-75048856D01*
X136043463Y-75048856D02*
X136091082Y-75144094D01*
X136091082Y-75144094D02*
X136091082Y-75334570D01*
X136091082Y-75334570D02*
X136138701Y-75429808D01*
X136138701Y-75429808D02*
X136186320Y-75477427D01*
X136186320Y-75477427D02*
X136281558Y-75525046D01*
X136281558Y-75525046D02*
X136472034Y-75525046D01*
X136472034Y-75525046D02*
X136567272Y-75477427D01*
X136567272Y-75477427D02*
X136614892Y-75429808D01*
X136614892Y-75429808D02*
X136662511Y-75334570D01*
X136662511Y-75334570D02*
X136662511Y-75144094D01*
X136662511Y-75144094D02*
X136614892Y-75048856D01*
X136614892Y-75048856D02*
X136567272Y-75001237D01*
X136567272Y-75001237D02*
X136472034Y-74953618D01*
X136472034Y-74953618D02*
X136281558Y-74953618D01*
X136281558Y-74953618D02*
X136186320Y-75001237D01*
X136186320Y-75001237D02*
X136138701Y-75048856D01*
X136138701Y-75048856D02*
X136091082Y-75144094D01*
X159954819Y-118142857D02*
X159478628Y-118476190D01*
X159954819Y-118714285D02*
X158954819Y-118714285D01*
X158954819Y-118714285D02*
X158954819Y-118333333D01*
X158954819Y-118333333D02*
X159002438Y-118238095D01*
X159002438Y-118238095D02*
X159050057Y-118190476D01*
X159050057Y-118190476D02*
X159145295Y-118142857D01*
X159145295Y-118142857D02*
X159288152Y-118142857D01*
X159288152Y-118142857D02*
X159383390Y-118190476D01*
X159383390Y-118190476D02*
X159431009Y-118238095D01*
X159431009Y-118238095D02*
X159478628Y-118333333D01*
X159478628Y-118333333D02*
X159478628Y-118714285D01*
X159050057Y-117761904D02*
X159002438Y-117714285D01*
X159002438Y-117714285D02*
X158954819Y-117619047D01*
X158954819Y-117619047D02*
X158954819Y-117380952D01*
X158954819Y-117380952D02*
X159002438Y-117285714D01*
X159002438Y-117285714D02*
X159050057Y-117238095D01*
X159050057Y-117238095D02*
X159145295Y-117190476D01*
X159145295Y-117190476D02*
X159240533Y-117190476D01*
X159240533Y-117190476D02*
X159383390Y-117238095D01*
X159383390Y-117238095D02*
X159954819Y-117809523D01*
X159954819Y-117809523D02*
X159954819Y-117190476D01*
X158954819Y-116571428D02*
X158954819Y-116476190D01*
X158954819Y-116476190D02*
X159002438Y-116380952D01*
X159002438Y-116380952D02*
X159050057Y-116333333D01*
X159050057Y-116333333D02*
X159145295Y-116285714D01*
X159145295Y-116285714D02*
X159335771Y-116238095D01*
X159335771Y-116238095D02*
X159573866Y-116238095D01*
X159573866Y-116238095D02*
X159764342Y-116285714D01*
X159764342Y-116285714D02*
X159859580Y-116333333D01*
X159859580Y-116333333D02*
X159907200Y-116380952D01*
X159907200Y-116380952D02*
X159954819Y-116476190D01*
X159954819Y-116476190D02*
X159954819Y-116571428D01*
X159954819Y-116571428D02*
X159907200Y-116666666D01*
X159907200Y-116666666D02*
X159859580Y-116714285D01*
X159859580Y-116714285D02*
X159764342Y-116761904D01*
X159764342Y-116761904D02*
X159573866Y-116809523D01*
X159573866Y-116809523D02*
X159335771Y-116809523D01*
X159335771Y-116809523D02*
X159145295Y-116761904D01*
X159145295Y-116761904D02*
X159050057Y-116714285D01*
X159050057Y-116714285D02*
X159002438Y-116666666D01*
X159002438Y-116666666D02*
X158954819Y-116571428D01*
X173859580Y-113142857D02*
X173907200Y-113190476D01*
X173907200Y-113190476D02*
X173954819Y-113333333D01*
X173954819Y-113333333D02*
X173954819Y-113428571D01*
X173954819Y-113428571D02*
X173907200Y-113571428D01*
X173907200Y-113571428D02*
X173811961Y-113666666D01*
X173811961Y-113666666D02*
X173716723Y-113714285D01*
X173716723Y-113714285D02*
X173526247Y-113761904D01*
X173526247Y-113761904D02*
X173383390Y-113761904D01*
X173383390Y-113761904D02*
X173192914Y-113714285D01*
X173192914Y-113714285D02*
X173097676Y-113666666D01*
X173097676Y-113666666D02*
X173002438Y-113571428D01*
X173002438Y-113571428D02*
X172954819Y-113428571D01*
X172954819Y-113428571D02*
X172954819Y-113333333D01*
X172954819Y-113333333D02*
X173002438Y-113190476D01*
X173002438Y-113190476D02*
X173050057Y-113142857D01*
X172954819Y-112809523D02*
X172954819Y-112190476D01*
X172954819Y-112190476D02*
X173335771Y-112523809D01*
X173335771Y-112523809D02*
X173335771Y-112380952D01*
X173335771Y-112380952D02*
X173383390Y-112285714D01*
X173383390Y-112285714D02*
X173431009Y-112238095D01*
X173431009Y-112238095D02*
X173526247Y-112190476D01*
X173526247Y-112190476D02*
X173764342Y-112190476D01*
X173764342Y-112190476D02*
X173859580Y-112238095D01*
X173859580Y-112238095D02*
X173907200Y-112285714D01*
X173907200Y-112285714D02*
X173954819Y-112380952D01*
X173954819Y-112380952D02*
X173954819Y-112666666D01*
X173954819Y-112666666D02*
X173907200Y-112761904D01*
X173907200Y-112761904D02*
X173859580Y-112809523D01*
X173050057Y-111809523D02*
X173002438Y-111761904D01*
X173002438Y-111761904D02*
X172954819Y-111666666D01*
X172954819Y-111666666D02*
X172954819Y-111428571D01*
X172954819Y-111428571D02*
X173002438Y-111333333D01*
X173002438Y-111333333D02*
X173050057Y-111285714D01*
X173050057Y-111285714D02*
X173145295Y-111238095D01*
X173145295Y-111238095D02*
X173240533Y-111238095D01*
X173240533Y-111238095D02*
X173383390Y-111285714D01*
X173383390Y-111285714D02*
X173954819Y-111857142D01*
X173954819Y-111857142D02*
X173954819Y-111238095D01*
X153601427Y-84349405D02*
X153125236Y-84682738D01*
X153601427Y-84920833D02*
X152601427Y-84920833D01*
X152601427Y-84920833D02*
X152601427Y-84539881D01*
X152601427Y-84539881D02*
X152649046Y-84444643D01*
X152649046Y-84444643D02*
X152696665Y-84397024D01*
X152696665Y-84397024D02*
X152791903Y-84349405D01*
X152791903Y-84349405D02*
X152934760Y-84349405D01*
X152934760Y-84349405D02*
X153029998Y-84397024D01*
X153029998Y-84397024D02*
X153077617Y-84444643D01*
X153077617Y-84444643D02*
X153125236Y-84539881D01*
X153125236Y-84539881D02*
X153125236Y-84920833D01*
X153601427Y-83873214D02*
X153601427Y-83682738D01*
X153601427Y-83682738D02*
X153553808Y-83587500D01*
X153553808Y-83587500D02*
X153506188Y-83539881D01*
X153506188Y-83539881D02*
X153363331Y-83444643D01*
X153363331Y-83444643D02*
X153172855Y-83397024D01*
X153172855Y-83397024D02*
X152791903Y-83397024D01*
X152791903Y-83397024D02*
X152696665Y-83444643D01*
X152696665Y-83444643D02*
X152649046Y-83492262D01*
X152649046Y-83492262D02*
X152601427Y-83587500D01*
X152601427Y-83587500D02*
X152601427Y-83777976D01*
X152601427Y-83777976D02*
X152649046Y-83873214D01*
X152649046Y-83873214D02*
X152696665Y-83920833D01*
X152696665Y-83920833D02*
X152791903Y-83968452D01*
X152791903Y-83968452D02*
X153029998Y-83968452D01*
X153029998Y-83968452D02*
X153125236Y-83920833D01*
X153125236Y-83920833D02*
X153172855Y-83873214D01*
X153172855Y-83873214D02*
X153220474Y-83777976D01*
X153220474Y-83777976D02*
X153220474Y-83587500D01*
X153220474Y-83587500D02*
X153172855Y-83492262D01*
X153172855Y-83492262D02*
X153125236Y-83444643D01*
X153125236Y-83444643D02*
X153029998Y-83397024D01*
X159333333Y-102604819D02*
X159000000Y-102128628D01*
X158761905Y-102604819D02*
X158761905Y-101604819D01*
X158761905Y-101604819D02*
X159142857Y-101604819D01*
X159142857Y-101604819D02*
X159238095Y-101652438D01*
X159238095Y-101652438D02*
X159285714Y-101700057D01*
X159285714Y-101700057D02*
X159333333Y-101795295D01*
X159333333Y-101795295D02*
X159333333Y-101938152D01*
X159333333Y-101938152D02*
X159285714Y-102033390D01*
X159285714Y-102033390D02*
X159238095Y-102081009D01*
X159238095Y-102081009D02*
X159142857Y-102128628D01*
X159142857Y-102128628D02*
X158761905Y-102128628D01*
X160238095Y-101604819D02*
X159761905Y-101604819D01*
X159761905Y-101604819D02*
X159714286Y-102081009D01*
X159714286Y-102081009D02*
X159761905Y-102033390D01*
X159761905Y-102033390D02*
X159857143Y-101985771D01*
X159857143Y-101985771D02*
X160095238Y-101985771D01*
X160095238Y-101985771D02*
X160190476Y-102033390D01*
X160190476Y-102033390D02*
X160238095Y-102081009D01*
X160238095Y-102081009D02*
X160285714Y-102176247D01*
X160285714Y-102176247D02*
X160285714Y-102414342D01*
X160285714Y-102414342D02*
X160238095Y-102509580D01*
X160238095Y-102509580D02*
X160190476Y-102557200D01*
X160190476Y-102557200D02*
X160095238Y-102604819D01*
X160095238Y-102604819D02*
X159857143Y-102604819D01*
X159857143Y-102604819D02*
X159761905Y-102557200D01*
X159761905Y-102557200D02*
X159714286Y-102509580D01*
X170257987Y-106784688D02*
X170257987Y-107260878D01*
X170257987Y-107260878D02*
X169257987Y-107260878D01*
X169257987Y-106546592D02*
X169257987Y-105927545D01*
X169257987Y-105927545D02*
X169638939Y-106260878D01*
X169638939Y-106260878D02*
X169638939Y-106118021D01*
X169638939Y-106118021D02*
X169686558Y-106022783D01*
X169686558Y-106022783D02*
X169734177Y-105975164D01*
X169734177Y-105975164D02*
X169829415Y-105927545D01*
X169829415Y-105927545D02*
X170067510Y-105927545D01*
X170067510Y-105927545D02*
X170162748Y-105975164D01*
X170162748Y-105975164D02*
X170210368Y-106022783D01*
X170210368Y-106022783D02*
X170257987Y-106118021D01*
X170257987Y-106118021D02*
X170257987Y-106403735D01*
X170257987Y-106403735D02*
X170210368Y-106498973D01*
X170210368Y-106498973D02*
X170162748Y-106546592D01*
X168742920Y-92550615D02*
X168790540Y-92598234D01*
X168790540Y-92598234D02*
X168838159Y-92741091D01*
X168838159Y-92741091D02*
X168838159Y-92836329D01*
X168838159Y-92836329D02*
X168790540Y-92979186D01*
X168790540Y-92979186D02*
X168695301Y-93074424D01*
X168695301Y-93074424D02*
X168600063Y-93122043D01*
X168600063Y-93122043D02*
X168409587Y-93169662D01*
X168409587Y-93169662D02*
X168266730Y-93169662D01*
X168266730Y-93169662D02*
X168076254Y-93122043D01*
X168076254Y-93122043D02*
X167981016Y-93074424D01*
X167981016Y-93074424D02*
X167885778Y-92979186D01*
X167885778Y-92979186D02*
X167838159Y-92836329D01*
X167838159Y-92836329D02*
X167838159Y-92741091D01*
X167838159Y-92741091D02*
X167885778Y-92598234D01*
X167885778Y-92598234D02*
X167933397Y-92550615D01*
X167933397Y-92169662D02*
X167885778Y-92122043D01*
X167885778Y-92122043D02*
X167838159Y-92026805D01*
X167838159Y-92026805D02*
X167838159Y-91788710D01*
X167838159Y-91788710D02*
X167885778Y-91693472D01*
X167885778Y-91693472D02*
X167933397Y-91645853D01*
X167933397Y-91645853D02*
X168028635Y-91598234D01*
X168028635Y-91598234D02*
X168123873Y-91598234D01*
X168123873Y-91598234D02*
X168266730Y-91645853D01*
X168266730Y-91645853D02*
X168838159Y-92217281D01*
X168838159Y-92217281D02*
X168838159Y-91598234D01*
X168171492Y-90741091D02*
X168838159Y-90741091D01*
X167790540Y-90979186D02*
X168504825Y-91217281D01*
X168504825Y-91217281D02*
X168504825Y-90598234D01*
X168539580Y-106642857D02*
X168587200Y-106690476D01*
X168587200Y-106690476D02*
X168634819Y-106833333D01*
X168634819Y-106833333D02*
X168634819Y-106928571D01*
X168634819Y-106928571D02*
X168587200Y-107071428D01*
X168587200Y-107071428D02*
X168491961Y-107166666D01*
X168491961Y-107166666D02*
X168396723Y-107214285D01*
X168396723Y-107214285D02*
X168206247Y-107261904D01*
X168206247Y-107261904D02*
X168063390Y-107261904D01*
X168063390Y-107261904D02*
X167872914Y-107214285D01*
X167872914Y-107214285D02*
X167777676Y-107166666D01*
X167777676Y-107166666D02*
X167682438Y-107071428D01*
X167682438Y-107071428D02*
X167634819Y-106928571D01*
X167634819Y-106928571D02*
X167634819Y-106833333D01*
X167634819Y-106833333D02*
X167682438Y-106690476D01*
X167682438Y-106690476D02*
X167730057Y-106642857D01*
X167730057Y-106261904D02*
X167682438Y-106214285D01*
X167682438Y-106214285D02*
X167634819Y-106119047D01*
X167634819Y-106119047D02*
X167634819Y-105880952D01*
X167634819Y-105880952D02*
X167682438Y-105785714D01*
X167682438Y-105785714D02*
X167730057Y-105738095D01*
X167730057Y-105738095D02*
X167825295Y-105690476D01*
X167825295Y-105690476D02*
X167920533Y-105690476D01*
X167920533Y-105690476D02*
X168063390Y-105738095D01*
X168063390Y-105738095D02*
X168634819Y-106309523D01*
X168634819Y-106309523D02*
X168634819Y-105690476D01*
X167634819Y-104833333D02*
X167634819Y-105023809D01*
X167634819Y-105023809D02*
X167682438Y-105119047D01*
X167682438Y-105119047D02*
X167730057Y-105166666D01*
X167730057Y-105166666D02*
X167872914Y-105261904D01*
X167872914Y-105261904D02*
X168063390Y-105309523D01*
X168063390Y-105309523D02*
X168444342Y-105309523D01*
X168444342Y-105309523D02*
X168539580Y-105261904D01*
X168539580Y-105261904D02*
X168587200Y-105214285D01*
X168587200Y-105214285D02*
X168634819Y-105119047D01*
X168634819Y-105119047D02*
X168634819Y-104928571D01*
X168634819Y-104928571D02*
X168587200Y-104833333D01*
X168587200Y-104833333D02*
X168539580Y-104785714D01*
X168539580Y-104785714D02*
X168444342Y-104738095D01*
X168444342Y-104738095D02*
X168206247Y-104738095D01*
X168206247Y-104738095D02*
X168111009Y-104785714D01*
X168111009Y-104785714D02*
X168063390Y-104833333D01*
X168063390Y-104833333D02*
X168015771Y-104928571D01*
X168015771Y-104928571D02*
X168015771Y-105119047D01*
X168015771Y-105119047D02*
X168063390Y-105214285D01*
X168063390Y-105214285D02*
X168111009Y-105261904D01*
X168111009Y-105261904D02*
X168206247Y-105309523D01*
X161199580Y-88142857D02*
X161247200Y-88190476D01*
X161247200Y-88190476D02*
X161294819Y-88333333D01*
X161294819Y-88333333D02*
X161294819Y-88428571D01*
X161294819Y-88428571D02*
X161247200Y-88571428D01*
X161247200Y-88571428D02*
X161151961Y-88666666D01*
X161151961Y-88666666D02*
X161056723Y-88714285D01*
X161056723Y-88714285D02*
X160866247Y-88761904D01*
X160866247Y-88761904D02*
X160723390Y-88761904D01*
X160723390Y-88761904D02*
X160532914Y-88714285D01*
X160532914Y-88714285D02*
X160437676Y-88666666D01*
X160437676Y-88666666D02*
X160342438Y-88571428D01*
X160342438Y-88571428D02*
X160294819Y-88428571D01*
X160294819Y-88428571D02*
X160294819Y-88333333D01*
X160294819Y-88333333D02*
X160342438Y-88190476D01*
X160342438Y-88190476D02*
X160390057Y-88142857D01*
X160390057Y-87761904D02*
X160342438Y-87714285D01*
X160342438Y-87714285D02*
X160294819Y-87619047D01*
X160294819Y-87619047D02*
X160294819Y-87380952D01*
X160294819Y-87380952D02*
X160342438Y-87285714D01*
X160342438Y-87285714D02*
X160390057Y-87238095D01*
X160390057Y-87238095D02*
X160485295Y-87190476D01*
X160485295Y-87190476D02*
X160580533Y-87190476D01*
X160580533Y-87190476D02*
X160723390Y-87238095D01*
X160723390Y-87238095D02*
X161294819Y-87809523D01*
X161294819Y-87809523D02*
X161294819Y-87190476D01*
X161294819Y-86714285D02*
X161294819Y-86523809D01*
X161294819Y-86523809D02*
X161247200Y-86428571D01*
X161247200Y-86428571D02*
X161199580Y-86380952D01*
X161199580Y-86380952D02*
X161056723Y-86285714D01*
X161056723Y-86285714D02*
X160866247Y-86238095D01*
X160866247Y-86238095D02*
X160485295Y-86238095D01*
X160485295Y-86238095D02*
X160390057Y-86285714D01*
X160390057Y-86285714D02*
X160342438Y-86333333D01*
X160342438Y-86333333D02*
X160294819Y-86428571D01*
X160294819Y-86428571D02*
X160294819Y-86619047D01*
X160294819Y-86619047D02*
X160342438Y-86714285D01*
X160342438Y-86714285D02*
X160390057Y-86761904D01*
X160390057Y-86761904D02*
X160485295Y-86809523D01*
X160485295Y-86809523D02*
X160723390Y-86809523D01*
X160723390Y-86809523D02*
X160818628Y-86761904D01*
X160818628Y-86761904D02*
X160866247Y-86714285D01*
X160866247Y-86714285D02*
X160913866Y-86619047D01*
X160913866Y-86619047D02*
X160913866Y-86428571D01*
X160913866Y-86428571D02*
X160866247Y-86333333D01*
X160866247Y-86333333D02*
X160818628Y-86285714D01*
X160818628Y-86285714D02*
X160723390Y-86238095D01*
X144042490Y-82149323D02*
X143994871Y-82196943D01*
X143994871Y-82196943D02*
X143852014Y-82244562D01*
X143852014Y-82244562D02*
X143756776Y-82244562D01*
X143756776Y-82244562D02*
X143613919Y-82196943D01*
X143613919Y-82196943D02*
X143518681Y-82101704D01*
X143518681Y-82101704D02*
X143471062Y-82006466D01*
X143471062Y-82006466D02*
X143423443Y-81815990D01*
X143423443Y-81815990D02*
X143423443Y-81673133D01*
X143423443Y-81673133D02*
X143471062Y-81482657D01*
X143471062Y-81482657D02*
X143518681Y-81387419D01*
X143518681Y-81387419D02*
X143613919Y-81292181D01*
X143613919Y-81292181D02*
X143756776Y-81244562D01*
X143756776Y-81244562D02*
X143852014Y-81244562D01*
X143852014Y-81244562D02*
X143994871Y-81292181D01*
X143994871Y-81292181D02*
X144042490Y-81339800D01*
X144899633Y-81244562D02*
X144709157Y-81244562D01*
X144709157Y-81244562D02*
X144613919Y-81292181D01*
X144613919Y-81292181D02*
X144566300Y-81339800D01*
X144566300Y-81339800D02*
X144471062Y-81482657D01*
X144471062Y-81482657D02*
X144423443Y-81673133D01*
X144423443Y-81673133D02*
X144423443Y-82054085D01*
X144423443Y-82054085D02*
X144471062Y-82149323D01*
X144471062Y-82149323D02*
X144518681Y-82196943D01*
X144518681Y-82196943D02*
X144613919Y-82244562D01*
X144613919Y-82244562D02*
X144804395Y-82244562D01*
X144804395Y-82244562D02*
X144899633Y-82196943D01*
X144899633Y-82196943D02*
X144947252Y-82149323D01*
X144947252Y-82149323D02*
X144994871Y-82054085D01*
X144994871Y-82054085D02*
X144994871Y-81815990D01*
X144994871Y-81815990D02*
X144947252Y-81720752D01*
X144947252Y-81720752D02*
X144899633Y-81673133D01*
X144899633Y-81673133D02*
X144804395Y-81625514D01*
X144804395Y-81625514D02*
X144613919Y-81625514D01*
X144613919Y-81625514D02*
X144518681Y-81673133D01*
X144518681Y-81673133D02*
X144471062Y-81720752D01*
X144471062Y-81720752D02*
X144423443Y-81815990D01*
X144710496Y-75882739D02*
X144234305Y-76216072D01*
X144710496Y-76454167D02*
X143710496Y-76454167D01*
X143710496Y-76454167D02*
X143710496Y-76073215D01*
X143710496Y-76073215D02*
X143758115Y-75977977D01*
X143758115Y-75977977D02*
X143805734Y-75930358D01*
X143805734Y-75930358D02*
X143900972Y-75882739D01*
X143900972Y-75882739D02*
X144043829Y-75882739D01*
X144043829Y-75882739D02*
X144139067Y-75930358D01*
X144139067Y-75930358D02*
X144186686Y-75977977D01*
X144186686Y-75977977D02*
X144234305Y-76073215D01*
X144234305Y-76073215D02*
X144234305Y-76454167D01*
X144710496Y-74930358D02*
X144710496Y-75501786D01*
X144710496Y-75216072D02*
X143710496Y-75216072D01*
X143710496Y-75216072D02*
X143853353Y-75311310D01*
X143853353Y-75311310D02*
X143948591Y-75406548D01*
X143948591Y-75406548D02*
X143996210Y-75501786D01*
X165857142Y-83859580D02*
X165809523Y-83907200D01*
X165809523Y-83907200D02*
X165666666Y-83954819D01*
X165666666Y-83954819D02*
X165571428Y-83954819D01*
X165571428Y-83954819D02*
X165428571Y-83907200D01*
X165428571Y-83907200D02*
X165333333Y-83811961D01*
X165333333Y-83811961D02*
X165285714Y-83716723D01*
X165285714Y-83716723D02*
X165238095Y-83526247D01*
X165238095Y-83526247D02*
X165238095Y-83383390D01*
X165238095Y-83383390D02*
X165285714Y-83192914D01*
X165285714Y-83192914D02*
X165333333Y-83097676D01*
X165333333Y-83097676D02*
X165428571Y-83002438D01*
X165428571Y-83002438D02*
X165571428Y-82954819D01*
X165571428Y-82954819D02*
X165666666Y-82954819D01*
X165666666Y-82954819D02*
X165809523Y-83002438D01*
X165809523Y-83002438D02*
X165857142Y-83050057D01*
X166238095Y-83050057D02*
X166285714Y-83002438D01*
X166285714Y-83002438D02*
X166380952Y-82954819D01*
X166380952Y-82954819D02*
X166619047Y-82954819D01*
X166619047Y-82954819D02*
X166714285Y-83002438D01*
X166714285Y-83002438D02*
X166761904Y-83050057D01*
X166761904Y-83050057D02*
X166809523Y-83145295D01*
X166809523Y-83145295D02*
X166809523Y-83240533D01*
X166809523Y-83240533D02*
X166761904Y-83383390D01*
X166761904Y-83383390D02*
X166190476Y-83954819D01*
X166190476Y-83954819D02*
X166809523Y-83954819D01*
X167380952Y-83383390D02*
X167285714Y-83335771D01*
X167285714Y-83335771D02*
X167238095Y-83288152D01*
X167238095Y-83288152D02*
X167190476Y-83192914D01*
X167190476Y-83192914D02*
X167190476Y-83145295D01*
X167190476Y-83145295D02*
X167238095Y-83050057D01*
X167238095Y-83050057D02*
X167285714Y-83002438D01*
X167285714Y-83002438D02*
X167380952Y-82954819D01*
X167380952Y-82954819D02*
X167571428Y-82954819D01*
X167571428Y-82954819D02*
X167666666Y-83002438D01*
X167666666Y-83002438D02*
X167714285Y-83050057D01*
X167714285Y-83050057D02*
X167761904Y-83145295D01*
X167761904Y-83145295D02*
X167761904Y-83192914D01*
X167761904Y-83192914D02*
X167714285Y-83288152D01*
X167714285Y-83288152D02*
X167666666Y-83335771D01*
X167666666Y-83335771D02*
X167571428Y-83383390D01*
X167571428Y-83383390D02*
X167380952Y-83383390D01*
X167380952Y-83383390D02*
X167285714Y-83431009D01*
X167285714Y-83431009D02*
X167238095Y-83478628D01*
X167238095Y-83478628D02*
X167190476Y-83573866D01*
X167190476Y-83573866D02*
X167190476Y-83764342D01*
X167190476Y-83764342D02*
X167238095Y-83859580D01*
X167238095Y-83859580D02*
X167285714Y-83907200D01*
X167285714Y-83907200D02*
X167380952Y-83954819D01*
X167380952Y-83954819D02*
X167571428Y-83954819D01*
X167571428Y-83954819D02*
X167666666Y-83907200D01*
X167666666Y-83907200D02*
X167714285Y-83859580D01*
X167714285Y-83859580D02*
X167761904Y-83764342D01*
X167761904Y-83764342D02*
X167761904Y-83573866D01*
X167761904Y-83573866D02*
X167714285Y-83478628D01*
X167714285Y-83478628D02*
X167666666Y-83431009D01*
X167666666Y-83431009D02*
X167571428Y-83383390D01*
X162271794Y-118580797D02*
X162271794Y-119295082D01*
X162271794Y-119295082D02*
X162224175Y-119437939D01*
X162224175Y-119437939D02*
X162128937Y-119533178D01*
X162128937Y-119533178D02*
X161986080Y-119580797D01*
X161986080Y-119580797D02*
X161890842Y-119580797D01*
X163271794Y-119580797D02*
X162700366Y-119580797D01*
X162986080Y-119580797D02*
X162986080Y-118580797D01*
X162986080Y-118580797D02*
X162890842Y-118723654D01*
X162890842Y-118723654D02*
X162795604Y-118818892D01*
X162795604Y-118818892D02*
X162700366Y-118866511D01*
X163652747Y-118676035D02*
X163700366Y-118628416D01*
X163700366Y-118628416D02*
X163795604Y-118580797D01*
X163795604Y-118580797D02*
X164033699Y-118580797D01*
X164033699Y-118580797D02*
X164128937Y-118628416D01*
X164128937Y-118628416D02*
X164176556Y-118676035D01*
X164176556Y-118676035D02*
X164224175Y-118771273D01*
X164224175Y-118771273D02*
X164224175Y-118866511D01*
X164224175Y-118866511D02*
X164176556Y-119009368D01*
X164176556Y-119009368D02*
X163605128Y-119580797D01*
X163605128Y-119580797D02*
X164224175Y-119580797D01*
X150891232Y-82381336D02*
X150891232Y-82857526D01*
X150891232Y-82857526D02*
X149891232Y-82857526D01*
X150891232Y-81524193D02*
X150891232Y-82095621D01*
X150891232Y-81809907D02*
X149891232Y-81809907D01*
X149891232Y-81809907D02*
X150034089Y-81905145D01*
X150034089Y-81905145D02*
X150129327Y-82000383D01*
X150129327Y-82000383D02*
X150176946Y-82095621D01*
X128833333Y-87699580D02*
X128785714Y-87747200D01*
X128785714Y-87747200D02*
X128642857Y-87794819D01*
X128642857Y-87794819D02*
X128547619Y-87794819D01*
X128547619Y-87794819D02*
X128404762Y-87747200D01*
X128404762Y-87747200D02*
X128309524Y-87651961D01*
X128309524Y-87651961D02*
X128261905Y-87556723D01*
X128261905Y-87556723D02*
X128214286Y-87366247D01*
X128214286Y-87366247D02*
X128214286Y-87223390D01*
X128214286Y-87223390D02*
X128261905Y-87032914D01*
X128261905Y-87032914D02*
X128309524Y-86937676D01*
X128309524Y-86937676D02*
X128404762Y-86842438D01*
X128404762Y-86842438D02*
X128547619Y-86794819D01*
X128547619Y-86794819D02*
X128642857Y-86794819D01*
X128642857Y-86794819D02*
X128785714Y-86842438D01*
X128785714Y-86842438D02*
X128833333Y-86890057D01*
X129738095Y-86794819D02*
X129261905Y-86794819D01*
X129261905Y-86794819D02*
X129214286Y-87271009D01*
X129214286Y-87271009D02*
X129261905Y-87223390D01*
X129261905Y-87223390D02*
X129357143Y-87175771D01*
X129357143Y-87175771D02*
X129595238Y-87175771D01*
X129595238Y-87175771D02*
X129690476Y-87223390D01*
X129690476Y-87223390D02*
X129738095Y-87271009D01*
X129738095Y-87271009D02*
X129785714Y-87366247D01*
X129785714Y-87366247D02*
X129785714Y-87604342D01*
X129785714Y-87604342D02*
X129738095Y-87699580D01*
X129738095Y-87699580D02*
X129690476Y-87747200D01*
X129690476Y-87747200D02*
X129595238Y-87794819D01*
X129595238Y-87794819D02*
X129357143Y-87794819D01*
X129357143Y-87794819D02*
X129261905Y-87747200D01*
X129261905Y-87747200D02*
X129214286Y-87699580D01*
X159903112Y-113437938D02*
X159855493Y-113485558D01*
X159855493Y-113485558D02*
X159712636Y-113533177D01*
X159712636Y-113533177D02*
X159617398Y-113533177D01*
X159617398Y-113533177D02*
X159474541Y-113485558D01*
X159474541Y-113485558D02*
X159379303Y-113390319D01*
X159379303Y-113390319D02*
X159331684Y-113295081D01*
X159331684Y-113295081D02*
X159284065Y-113104605D01*
X159284065Y-113104605D02*
X159284065Y-112961748D01*
X159284065Y-112961748D02*
X159331684Y-112771272D01*
X159331684Y-112771272D02*
X159379303Y-112676034D01*
X159379303Y-112676034D02*
X159474541Y-112580796D01*
X159474541Y-112580796D02*
X159617398Y-112533177D01*
X159617398Y-112533177D02*
X159712636Y-112533177D01*
X159712636Y-112533177D02*
X159855493Y-112580796D01*
X159855493Y-112580796D02*
X159903112Y-112628415D01*
X160236446Y-112533177D02*
X160855493Y-112533177D01*
X160855493Y-112533177D02*
X160522160Y-112914129D01*
X160522160Y-112914129D02*
X160665017Y-112914129D01*
X160665017Y-112914129D02*
X160760255Y-112961748D01*
X160760255Y-112961748D02*
X160807874Y-113009367D01*
X160807874Y-113009367D02*
X160855493Y-113104605D01*
X160855493Y-113104605D02*
X160855493Y-113342700D01*
X160855493Y-113342700D02*
X160807874Y-113437938D01*
X160807874Y-113437938D02*
X160760255Y-113485558D01*
X160760255Y-113485558D02*
X160665017Y-113533177D01*
X160665017Y-113533177D02*
X160379303Y-113533177D01*
X160379303Y-113533177D02*
X160284065Y-113485558D01*
X160284065Y-113485558D02*
X160236446Y-113437938D01*
X161712636Y-112533177D02*
X161522160Y-112533177D01*
X161522160Y-112533177D02*
X161426922Y-112580796D01*
X161426922Y-112580796D02*
X161379303Y-112628415D01*
X161379303Y-112628415D02*
X161284065Y-112771272D01*
X161284065Y-112771272D02*
X161236446Y-112961748D01*
X161236446Y-112961748D02*
X161236446Y-113342700D01*
X161236446Y-113342700D02*
X161284065Y-113437938D01*
X161284065Y-113437938D02*
X161331684Y-113485558D01*
X161331684Y-113485558D02*
X161426922Y-113533177D01*
X161426922Y-113533177D02*
X161617398Y-113533177D01*
X161617398Y-113533177D02*
X161712636Y-113485558D01*
X161712636Y-113485558D02*
X161760255Y-113437938D01*
X161760255Y-113437938D02*
X161807874Y-113342700D01*
X161807874Y-113342700D02*
X161807874Y-113104605D01*
X161807874Y-113104605D02*
X161760255Y-113009367D01*
X161760255Y-113009367D02*
X161712636Y-112961748D01*
X161712636Y-112961748D02*
X161617398Y-112914129D01*
X161617398Y-112914129D02*
X161426922Y-112914129D01*
X161426922Y-112914129D02*
X161331684Y-112961748D01*
X161331684Y-112961748D02*
X161284065Y-113009367D01*
X161284065Y-113009367D02*
X161236446Y-113104605D01*
X163409699Y-87732262D02*
X164076365Y-88732262D01*
X164076365Y-87732262D02*
X163409699Y-88732262D01*
X164314461Y-87732262D02*
X164885889Y-87732262D01*
X164600175Y-88732262D02*
X164600175Y-87732262D01*
X165171604Y-88446547D02*
X165647794Y-88446547D01*
X165076366Y-88732262D02*
X165409699Y-87732262D01*
X165409699Y-87732262D02*
X165743032Y-88732262D01*
X166552556Y-88732262D02*
X166076366Y-88732262D01*
X166076366Y-88732262D02*
X166076366Y-87732262D01*
X167409699Y-88732262D02*
X166838271Y-88732262D01*
X167123985Y-88732262D02*
X167123985Y-87732262D01*
X167123985Y-87732262D02*
X167028747Y-87875119D01*
X167028747Y-87875119D02*
X166933509Y-87970357D01*
X166933509Y-87970357D02*
X166838271Y-88017976D01*
X131560495Y-94989831D02*
X131608115Y-95037450D01*
X131608115Y-95037450D02*
X131655734Y-95180307D01*
X131655734Y-95180307D02*
X131655734Y-95275545D01*
X131655734Y-95275545D02*
X131608115Y-95418402D01*
X131608115Y-95418402D02*
X131512876Y-95513640D01*
X131512876Y-95513640D02*
X131417638Y-95561259D01*
X131417638Y-95561259D02*
X131227162Y-95608878D01*
X131227162Y-95608878D02*
X131084305Y-95608878D01*
X131084305Y-95608878D02*
X130893829Y-95561259D01*
X130893829Y-95561259D02*
X130798591Y-95513640D01*
X130798591Y-95513640D02*
X130703353Y-95418402D01*
X130703353Y-95418402D02*
X130655734Y-95275545D01*
X130655734Y-95275545D02*
X130655734Y-95180307D01*
X130655734Y-95180307D02*
X130703353Y-95037450D01*
X130703353Y-95037450D02*
X130750972Y-94989831D01*
X130989067Y-94132688D02*
X131655734Y-94132688D01*
X130608115Y-94370783D02*
X131322400Y-94608878D01*
X131322400Y-94608878D02*
X131322400Y-93989831D01*
X157138101Y-92602902D02*
X156661910Y-92936235D01*
X157138101Y-93174330D02*
X156138101Y-93174330D01*
X156138101Y-93174330D02*
X156138101Y-92793378D01*
X156138101Y-92793378D02*
X156185720Y-92698140D01*
X156185720Y-92698140D02*
X156233339Y-92650521D01*
X156233339Y-92650521D02*
X156328577Y-92602902D01*
X156328577Y-92602902D02*
X156471434Y-92602902D01*
X156471434Y-92602902D02*
X156566672Y-92650521D01*
X156566672Y-92650521D02*
X156614291Y-92698140D01*
X156614291Y-92698140D02*
X156661910Y-92793378D01*
X156661910Y-92793378D02*
X156661910Y-93174330D01*
X157138101Y-91650521D02*
X157138101Y-92221949D01*
X157138101Y-91936235D02*
X156138101Y-91936235D01*
X156138101Y-91936235D02*
X156280958Y-92031473D01*
X156280958Y-92031473D02*
X156376196Y-92126711D01*
X156376196Y-92126711D02*
X156423815Y-92221949D01*
X157138101Y-90698140D02*
X157138101Y-91269568D01*
X157138101Y-90983854D02*
X156138101Y-90983854D01*
X156138101Y-90983854D02*
X156280958Y-91079092D01*
X156280958Y-91079092D02*
X156376196Y-91174330D01*
X156376196Y-91174330D02*
X156423815Y-91269568D01*
X164137023Y-82977845D02*
X164184643Y-83025464D01*
X164184643Y-83025464D02*
X164232262Y-83168321D01*
X164232262Y-83168321D02*
X164232262Y-83263559D01*
X164232262Y-83263559D02*
X164184643Y-83406416D01*
X164184643Y-83406416D02*
X164089404Y-83501654D01*
X164089404Y-83501654D02*
X163994166Y-83549273D01*
X163994166Y-83549273D02*
X163803690Y-83596892D01*
X163803690Y-83596892D02*
X163660833Y-83596892D01*
X163660833Y-83596892D02*
X163470357Y-83549273D01*
X163470357Y-83549273D02*
X163375119Y-83501654D01*
X163375119Y-83501654D02*
X163279881Y-83406416D01*
X163279881Y-83406416D02*
X163232262Y-83263559D01*
X163232262Y-83263559D02*
X163232262Y-83168321D01*
X163232262Y-83168321D02*
X163279881Y-83025464D01*
X163279881Y-83025464D02*
X163327500Y-82977845D01*
X164232262Y-82025464D02*
X164232262Y-82596892D01*
X164232262Y-82311178D02*
X163232262Y-82311178D01*
X163232262Y-82311178D02*
X163375119Y-82406416D01*
X163375119Y-82406416D02*
X163470357Y-82501654D01*
X163470357Y-82501654D02*
X163517976Y-82596892D01*
X163232262Y-81120702D02*
X163232262Y-81596892D01*
X163232262Y-81596892D02*
X163708452Y-81644511D01*
X163708452Y-81644511D02*
X163660833Y-81596892D01*
X163660833Y-81596892D02*
X163613214Y-81501654D01*
X163613214Y-81501654D02*
X163613214Y-81263559D01*
X163613214Y-81263559D02*
X163660833Y-81168321D01*
X163660833Y-81168321D02*
X163708452Y-81120702D01*
X163708452Y-81120702D02*
X163803690Y-81073083D01*
X163803690Y-81073083D02*
X164041785Y-81073083D01*
X164041785Y-81073083D02*
X164137023Y-81120702D01*
X164137023Y-81120702D02*
X164184643Y-81168321D01*
X164184643Y-81168321D02*
X164232262Y-81263559D01*
X164232262Y-81263559D02*
X164232262Y-81501654D01*
X164232262Y-81501654D02*
X164184643Y-81596892D01*
X164184643Y-81596892D02*
X164137023Y-81644511D01*
X133791667Y-78407200D02*
X133934524Y-78454819D01*
X133934524Y-78454819D02*
X134172619Y-78454819D01*
X134172619Y-78454819D02*
X134267857Y-78407200D01*
X134267857Y-78407200D02*
X134315476Y-78359580D01*
X134315476Y-78359580D02*
X134363095Y-78264342D01*
X134363095Y-78264342D02*
X134363095Y-78169104D01*
X134363095Y-78169104D02*
X134315476Y-78073866D01*
X134315476Y-78073866D02*
X134267857Y-78026247D01*
X134267857Y-78026247D02*
X134172619Y-77978628D01*
X134172619Y-77978628D02*
X133982143Y-77931009D01*
X133982143Y-77931009D02*
X133886905Y-77883390D01*
X133886905Y-77883390D02*
X133839286Y-77835771D01*
X133839286Y-77835771D02*
X133791667Y-77740533D01*
X133791667Y-77740533D02*
X133791667Y-77645295D01*
X133791667Y-77645295D02*
X133839286Y-77550057D01*
X133839286Y-77550057D02*
X133886905Y-77502438D01*
X133886905Y-77502438D02*
X133982143Y-77454819D01*
X133982143Y-77454819D02*
X134220238Y-77454819D01*
X134220238Y-77454819D02*
X134363095Y-77502438D01*
X134696429Y-77454819D02*
X134934524Y-78454819D01*
X134934524Y-78454819D02*
X135125000Y-77740533D01*
X135125000Y-77740533D02*
X135315476Y-78454819D01*
X135315476Y-78454819D02*
X135553572Y-77454819D01*
X135886905Y-77550057D02*
X135934524Y-77502438D01*
X135934524Y-77502438D02*
X136029762Y-77454819D01*
X136029762Y-77454819D02*
X136267857Y-77454819D01*
X136267857Y-77454819D02*
X136363095Y-77502438D01*
X136363095Y-77502438D02*
X136410714Y-77550057D01*
X136410714Y-77550057D02*
X136458333Y-77645295D01*
X136458333Y-77645295D02*
X136458333Y-77740533D01*
X136458333Y-77740533D02*
X136410714Y-77883390D01*
X136410714Y-77883390D02*
X135839286Y-78454819D01*
X135839286Y-78454819D02*
X136458333Y-78454819D01*
X133000732Y-87163792D02*
X133000732Y-87639983D01*
X132667399Y-86639983D02*
X133000732Y-87163792D01*
X133000732Y-87163792D02*
X133334065Y-86639983D01*
X133619780Y-86735221D02*
X133667399Y-86687602D01*
X133667399Y-86687602D02*
X133762637Y-86639983D01*
X133762637Y-86639983D02*
X134000732Y-86639983D01*
X134000732Y-86639983D02*
X134095970Y-86687602D01*
X134095970Y-86687602D02*
X134143589Y-86735221D01*
X134143589Y-86735221D02*
X134191208Y-86830459D01*
X134191208Y-86830459D02*
X134191208Y-86925697D01*
X134191208Y-86925697D02*
X134143589Y-87068554D01*
X134143589Y-87068554D02*
X133572161Y-87639983D01*
X133572161Y-87639983D02*
X134191208Y-87639983D01*
X140097006Y-79586311D02*
X139097006Y-79586311D01*
X139097006Y-79586311D02*
X139097006Y-79348216D01*
X139097006Y-79348216D02*
X139144625Y-79205359D01*
X139144625Y-79205359D02*
X139239863Y-79110121D01*
X139239863Y-79110121D02*
X139335101Y-79062502D01*
X139335101Y-79062502D02*
X139525577Y-79014883D01*
X139525577Y-79014883D02*
X139668434Y-79014883D01*
X139668434Y-79014883D02*
X139858910Y-79062502D01*
X139858910Y-79062502D02*
X139954148Y-79110121D01*
X139954148Y-79110121D02*
X140049387Y-79205359D01*
X140049387Y-79205359D02*
X140097006Y-79348216D01*
X140097006Y-79348216D02*
X140097006Y-79586311D01*
X140097006Y-78062502D02*
X140097006Y-78633930D01*
X140097006Y-78348216D02*
X139097006Y-78348216D01*
X139097006Y-78348216D02*
X139239863Y-78443454D01*
X139239863Y-78443454D02*
X139335101Y-78538692D01*
X139335101Y-78538692D02*
X139382720Y-78633930D01*
X174743039Y-111672372D02*
X174409706Y-111196181D01*
X174171611Y-111672372D02*
X174171611Y-110672372D01*
X174171611Y-110672372D02*
X174552563Y-110672372D01*
X174552563Y-110672372D02*
X174647801Y-110719991D01*
X174647801Y-110719991D02*
X174695420Y-110767610D01*
X174695420Y-110767610D02*
X174743039Y-110862848D01*
X174743039Y-110862848D02*
X174743039Y-111005705D01*
X174743039Y-111005705D02*
X174695420Y-111100943D01*
X174695420Y-111100943D02*
X174647801Y-111148562D01*
X174647801Y-111148562D02*
X174552563Y-111196181D01*
X174552563Y-111196181D02*
X174171611Y-111196181D01*
X175695420Y-111672372D02*
X175123992Y-111672372D01*
X175409706Y-111672372D02*
X175409706Y-110672372D01*
X175409706Y-110672372D02*
X175314468Y-110815229D01*
X175314468Y-110815229D02*
X175219230Y-110910467D01*
X175219230Y-110910467D02*
X175123992Y-110958086D01*
X176171611Y-111672372D02*
X176362087Y-111672372D01*
X176362087Y-111672372D02*
X176457325Y-111624753D01*
X176457325Y-111624753D02*
X176504944Y-111577133D01*
X176504944Y-111577133D02*
X176600182Y-111434276D01*
X176600182Y-111434276D02*
X176647801Y-111243800D01*
X176647801Y-111243800D02*
X176647801Y-110862848D01*
X176647801Y-110862848D02*
X176600182Y-110767610D01*
X176600182Y-110767610D02*
X176552563Y-110719991D01*
X176552563Y-110719991D02*
X176457325Y-110672372D01*
X176457325Y-110672372D02*
X176266849Y-110672372D01*
X176266849Y-110672372D02*
X176171611Y-110719991D01*
X176171611Y-110719991D02*
X176123992Y-110767610D01*
X176123992Y-110767610D02*
X176076373Y-110862848D01*
X176076373Y-110862848D02*
X176076373Y-111100943D01*
X176076373Y-111100943D02*
X176123992Y-111196181D01*
X176123992Y-111196181D02*
X176171611Y-111243800D01*
X176171611Y-111243800D02*
X176266849Y-111291419D01*
X176266849Y-111291419D02*
X176457325Y-111291419D01*
X176457325Y-111291419D02*
X176552563Y-111243800D01*
X176552563Y-111243800D02*
X176600182Y-111196181D01*
X176600182Y-111196181D02*
X176647801Y-111100943D01*
X170816540Y-111453999D02*
X170816540Y-111930189D01*
X170816540Y-111930189D02*
X169816540Y-111930189D01*
X169911778Y-111168284D02*
X169864159Y-111120665D01*
X169864159Y-111120665D02*
X169816540Y-111025427D01*
X169816540Y-111025427D02*
X169816540Y-110787332D01*
X169816540Y-110787332D02*
X169864159Y-110692094D01*
X169864159Y-110692094D02*
X169911778Y-110644475D01*
X169911778Y-110644475D02*
X170007016Y-110596856D01*
X170007016Y-110596856D02*
X170102254Y-110596856D01*
X170102254Y-110596856D02*
X170245111Y-110644475D01*
X170245111Y-110644475D02*
X170816540Y-111215903D01*
X170816540Y-111215903D02*
X170816540Y-110596856D01*
X170084498Y-102458149D02*
X170036879Y-102505769D01*
X170036879Y-102505769D02*
X169894022Y-102553388D01*
X169894022Y-102553388D02*
X169798784Y-102553388D01*
X169798784Y-102553388D02*
X169655927Y-102505769D01*
X169655927Y-102505769D02*
X169560689Y-102410530D01*
X169560689Y-102410530D02*
X169513070Y-102315292D01*
X169513070Y-102315292D02*
X169465451Y-102124816D01*
X169465451Y-102124816D02*
X169465451Y-101981959D01*
X169465451Y-101981959D02*
X169513070Y-101791483D01*
X169513070Y-101791483D02*
X169560689Y-101696245D01*
X169560689Y-101696245D02*
X169655927Y-101601007D01*
X169655927Y-101601007D02*
X169798784Y-101553388D01*
X169798784Y-101553388D02*
X169894022Y-101553388D01*
X169894022Y-101553388D02*
X170036879Y-101601007D01*
X170036879Y-101601007D02*
X170084498Y-101648626D01*
X170465451Y-101648626D02*
X170513070Y-101601007D01*
X170513070Y-101601007D02*
X170608308Y-101553388D01*
X170608308Y-101553388D02*
X170846403Y-101553388D01*
X170846403Y-101553388D02*
X170941641Y-101601007D01*
X170941641Y-101601007D02*
X170989260Y-101648626D01*
X170989260Y-101648626D02*
X171036879Y-101743864D01*
X171036879Y-101743864D02*
X171036879Y-101839102D01*
X171036879Y-101839102D02*
X170989260Y-101981959D01*
X170989260Y-101981959D02*
X170417832Y-102553388D01*
X170417832Y-102553388D02*
X171036879Y-102553388D01*
X171370213Y-101553388D02*
X172036879Y-101553388D01*
X172036879Y-101553388D02*
X171608308Y-102553388D01*
X154114876Y-95961670D02*
X154162495Y-95818813D01*
X154162495Y-95818813D02*
X154162495Y-95580718D01*
X154162495Y-95580718D02*
X154114876Y-95485480D01*
X154114876Y-95485480D02*
X154067256Y-95437861D01*
X154067256Y-95437861D02*
X153972018Y-95390242D01*
X153972018Y-95390242D02*
X153876780Y-95390242D01*
X153876780Y-95390242D02*
X153781542Y-95437861D01*
X153781542Y-95437861D02*
X153733923Y-95485480D01*
X153733923Y-95485480D02*
X153686304Y-95580718D01*
X153686304Y-95580718D02*
X153638685Y-95771194D01*
X153638685Y-95771194D02*
X153591066Y-95866432D01*
X153591066Y-95866432D02*
X153543447Y-95914051D01*
X153543447Y-95914051D02*
X153448209Y-95961670D01*
X153448209Y-95961670D02*
X153352971Y-95961670D01*
X153352971Y-95961670D02*
X153257733Y-95914051D01*
X153257733Y-95914051D02*
X153210114Y-95866432D01*
X153210114Y-95866432D02*
X153162495Y-95771194D01*
X153162495Y-95771194D02*
X153162495Y-95533099D01*
X153162495Y-95533099D02*
X153210114Y-95390242D01*
X153162495Y-95056908D02*
X154162495Y-94818813D01*
X154162495Y-94818813D02*
X153448209Y-94628337D01*
X153448209Y-94628337D02*
X154162495Y-94437861D01*
X154162495Y-94437861D02*
X153162495Y-94199766D01*
X154162495Y-93295004D02*
X154162495Y-93866432D01*
X154162495Y-93580718D02*
X153162495Y-93580718D01*
X153162495Y-93580718D02*
X153305352Y-93675956D01*
X153305352Y-93675956D02*
X153400590Y-93771194D01*
X153400590Y-93771194D02*
X153448209Y-93866432D01*
X158819642Y-97179580D02*
X158772023Y-97227200D01*
X158772023Y-97227200D02*
X158629166Y-97274819D01*
X158629166Y-97274819D02*
X158533928Y-97274819D01*
X158533928Y-97274819D02*
X158391071Y-97227200D01*
X158391071Y-97227200D02*
X158295833Y-97131961D01*
X158295833Y-97131961D02*
X158248214Y-97036723D01*
X158248214Y-97036723D02*
X158200595Y-96846247D01*
X158200595Y-96846247D02*
X158200595Y-96703390D01*
X158200595Y-96703390D02*
X158248214Y-96512914D01*
X158248214Y-96512914D02*
X158295833Y-96417676D01*
X158295833Y-96417676D02*
X158391071Y-96322438D01*
X158391071Y-96322438D02*
X158533928Y-96274819D01*
X158533928Y-96274819D02*
X158629166Y-96274819D01*
X158629166Y-96274819D02*
X158772023Y-96322438D01*
X158772023Y-96322438D02*
X158819642Y-96370057D01*
X159772023Y-97274819D02*
X159200595Y-97274819D01*
X159486309Y-97274819D02*
X159486309Y-96274819D01*
X159486309Y-96274819D02*
X159391071Y-96417676D01*
X159391071Y-96417676D02*
X159295833Y-96512914D01*
X159295833Y-96512914D02*
X159200595Y-96560533D01*
X160724404Y-97274819D02*
X160152976Y-97274819D01*
X160438690Y-97274819D02*
X160438690Y-96274819D01*
X160438690Y-96274819D02*
X160343452Y-96417676D01*
X160343452Y-96417676D02*
X160248214Y-96512914D01*
X160248214Y-96512914D02*
X160152976Y-96560533D01*
X166625273Y-118043433D02*
X166577654Y-118091053D01*
X166577654Y-118091053D02*
X166434797Y-118138672D01*
X166434797Y-118138672D02*
X166339559Y-118138672D01*
X166339559Y-118138672D02*
X166196702Y-118091053D01*
X166196702Y-118091053D02*
X166101464Y-117995814D01*
X166101464Y-117995814D02*
X166053845Y-117900576D01*
X166053845Y-117900576D02*
X166006226Y-117710100D01*
X166006226Y-117710100D02*
X166006226Y-117567243D01*
X166006226Y-117567243D02*
X166053845Y-117376767D01*
X166053845Y-117376767D02*
X166101464Y-117281529D01*
X166101464Y-117281529D02*
X166196702Y-117186291D01*
X166196702Y-117186291D02*
X166339559Y-117138672D01*
X166339559Y-117138672D02*
X166434797Y-117138672D01*
X166434797Y-117138672D02*
X166577654Y-117186291D01*
X166577654Y-117186291D02*
X166625273Y-117233910D01*
X166958607Y-117138672D02*
X167577654Y-117138672D01*
X167577654Y-117138672D02*
X167244321Y-117519624D01*
X167244321Y-117519624D02*
X167387178Y-117519624D01*
X167387178Y-117519624D02*
X167482416Y-117567243D01*
X167482416Y-117567243D02*
X167530035Y-117614862D01*
X167530035Y-117614862D02*
X167577654Y-117710100D01*
X167577654Y-117710100D02*
X167577654Y-117948195D01*
X167577654Y-117948195D02*
X167530035Y-118043433D01*
X167530035Y-118043433D02*
X167482416Y-118091053D01*
X167482416Y-118091053D02*
X167387178Y-118138672D01*
X167387178Y-118138672D02*
X167101464Y-118138672D01*
X167101464Y-118138672D02*
X167006226Y-118091053D01*
X167006226Y-118091053D02*
X166958607Y-118043433D01*
X167910988Y-117138672D02*
X168577654Y-117138672D01*
X168577654Y-117138672D02*
X168149083Y-118138672D01*
X171789580Y-117642857D02*
X171837200Y-117690476D01*
X171837200Y-117690476D02*
X171884819Y-117833333D01*
X171884819Y-117833333D02*
X171884819Y-117928571D01*
X171884819Y-117928571D02*
X171837200Y-118071428D01*
X171837200Y-118071428D02*
X171741961Y-118166666D01*
X171741961Y-118166666D02*
X171646723Y-118214285D01*
X171646723Y-118214285D02*
X171456247Y-118261904D01*
X171456247Y-118261904D02*
X171313390Y-118261904D01*
X171313390Y-118261904D02*
X171122914Y-118214285D01*
X171122914Y-118214285D02*
X171027676Y-118166666D01*
X171027676Y-118166666D02*
X170932438Y-118071428D01*
X170932438Y-118071428D02*
X170884819Y-117928571D01*
X170884819Y-117928571D02*
X170884819Y-117833333D01*
X170884819Y-117833333D02*
X170932438Y-117690476D01*
X170932438Y-117690476D02*
X170980057Y-117642857D01*
X170884819Y-117309523D02*
X170884819Y-116690476D01*
X170884819Y-116690476D02*
X171265771Y-117023809D01*
X171265771Y-117023809D02*
X171265771Y-116880952D01*
X171265771Y-116880952D02*
X171313390Y-116785714D01*
X171313390Y-116785714D02*
X171361009Y-116738095D01*
X171361009Y-116738095D02*
X171456247Y-116690476D01*
X171456247Y-116690476D02*
X171694342Y-116690476D01*
X171694342Y-116690476D02*
X171789580Y-116738095D01*
X171789580Y-116738095D02*
X171837200Y-116785714D01*
X171837200Y-116785714D02*
X171884819Y-116880952D01*
X171884819Y-116880952D02*
X171884819Y-117166666D01*
X171884819Y-117166666D02*
X171837200Y-117261904D01*
X171837200Y-117261904D02*
X171789580Y-117309523D01*
X170884819Y-116357142D02*
X170884819Y-115738095D01*
X170884819Y-115738095D02*
X171265771Y-116071428D01*
X171265771Y-116071428D02*
X171265771Y-115928571D01*
X171265771Y-115928571D02*
X171313390Y-115833333D01*
X171313390Y-115833333D02*
X171361009Y-115785714D01*
X171361009Y-115785714D02*
X171456247Y-115738095D01*
X171456247Y-115738095D02*
X171694342Y-115738095D01*
X171694342Y-115738095D02*
X171789580Y-115785714D01*
X171789580Y-115785714D02*
X171837200Y-115833333D01*
X171837200Y-115833333D02*
X171884819Y-115928571D01*
X171884819Y-115928571D02*
X171884819Y-116214285D01*
X171884819Y-116214285D02*
X171837200Y-116309523D01*
X171837200Y-116309523D02*
X171789580Y-116357142D01*
X134699580Y-97166666D02*
X134747200Y-97214285D01*
X134747200Y-97214285D02*
X134794819Y-97357142D01*
X134794819Y-97357142D02*
X134794819Y-97452380D01*
X134794819Y-97452380D02*
X134747200Y-97595237D01*
X134747200Y-97595237D02*
X134651961Y-97690475D01*
X134651961Y-97690475D02*
X134556723Y-97738094D01*
X134556723Y-97738094D02*
X134366247Y-97785713D01*
X134366247Y-97785713D02*
X134223390Y-97785713D01*
X134223390Y-97785713D02*
X134032914Y-97738094D01*
X134032914Y-97738094D02*
X133937676Y-97690475D01*
X133937676Y-97690475D02*
X133842438Y-97595237D01*
X133842438Y-97595237D02*
X133794819Y-97452380D01*
X133794819Y-97452380D02*
X133794819Y-97357142D01*
X133794819Y-97357142D02*
X133842438Y-97214285D01*
X133842438Y-97214285D02*
X133890057Y-97166666D01*
X133794819Y-96833332D02*
X133794819Y-96214285D01*
X133794819Y-96214285D02*
X134175771Y-96547618D01*
X134175771Y-96547618D02*
X134175771Y-96404761D01*
X134175771Y-96404761D02*
X134223390Y-96309523D01*
X134223390Y-96309523D02*
X134271009Y-96261904D01*
X134271009Y-96261904D02*
X134366247Y-96214285D01*
X134366247Y-96214285D02*
X134604342Y-96214285D01*
X134604342Y-96214285D02*
X134699580Y-96261904D01*
X134699580Y-96261904D02*
X134747200Y-96309523D01*
X134747200Y-96309523D02*
X134794819Y-96404761D01*
X134794819Y-96404761D02*
X134794819Y-96690475D01*
X134794819Y-96690475D02*
X134747200Y-96785713D01*
X134747200Y-96785713D02*
X134699580Y-96833332D01*
X140500423Y-73882372D02*
X140024232Y-74215705D01*
X140500423Y-74453800D02*
X139500423Y-74453800D01*
X139500423Y-74453800D02*
X139500423Y-74072848D01*
X139500423Y-74072848D02*
X139548042Y-73977610D01*
X139548042Y-73977610D02*
X139595661Y-73929991D01*
X139595661Y-73929991D02*
X139690899Y-73882372D01*
X139690899Y-73882372D02*
X139833756Y-73882372D01*
X139833756Y-73882372D02*
X139928994Y-73929991D01*
X139928994Y-73929991D02*
X139976613Y-73977610D01*
X139976613Y-73977610D02*
X140024232Y-74072848D01*
X140024232Y-74072848D02*
X140024232Y-74453800D01*
X139595661Y-73501419D02*
X139548042Y-73453800D01*
X139548042Y-73453800D02*
X139500423Y-73358562D01*
X139500423Y-73358562D02*
X139500423Y-73120467D01*
X139500423Y-73120467D02*
X139548042Y-73025229D01*
X139548042Y-73025229D02*
X139595661Y-72977610D01*
X139595661Y-72977610D02*
X139690899Y-72929991D01*
X139690899Y-72929991D02*
X139786137Y-72929991D01*
X139786137Y-72929991D02*
X139928994Y-72977610D01*
X139928994Y-72977610D02*
X140500423Y-73549038D01*
X140500423Y-73549038D02*
X140500423Y-72929991D01*
X163620482Y-113428552D02*
X163572863Y-113476172D01*
X163572863Y-113476172D02*
X163430006Y-113523791D01*
X163430006Y-113523791D02*
X163334768Y-113523791D01*
X163334768Y-113523791D02*
X163191911Y-113476172D01*
X163191911Y-113476172D02*
X163096673Y-113380933D01*
X163096673Y-113380933D02*
X163049054Y-113285695D01*
X163049054Y-113285695D02*
X163001435Y-113095219D01*
X163001435Y-113095219D02*
X163001435Y-112952362D01*
X163001435Y-112952362D02*
X163049054Y-112761886D01*
X163049054Y-112761886D02*
X163096673Y-112666648D01*
X163096673Y-112666648D02*
X163191911Y-112571410D01*
X163191911Y-112571410D02*
X163334768Y-112523791D01*
X163334768Y-112523791D02*
X163430006Y-112523791D01*
X163430006Y-112523791D02*
X163572863Y-112571410D01*
X163572863Y-112571410D02*
X163620482Y-112619029D01*
X163953816Y-112523791D02*
X164572863Y-112523791D01*
X164572863Y-112523791D02*
X164239530Y-112904743D01*
X164239530Y-112904743D02*
X164382387Y-112904743D01*
X164382387Y-112904743D02*
X164477625Y-112952362D01*
X164477625Y-112952362D02*
X164525244Y-112999981D01*
X164525244Y-112999981D02*
X164572863Y-113095219D01*
X164572863Y-113095219D02*
X164572863Y-113333314D01*
X164572863Y-113333314D02*
X164525244Y-113428552D01*
X164525244Y-113428552D02*
X164477625Y-113476172D01*
X164477625Y-113476172D02*
X164382387Y-113523791D01*
X164382387Y-113523791D02*
X164096673Y-113523791D01*
X164096673Y-113523791D02*
X164001435Y-113476172D01*
X164001435Y-113476172D02*
X163953816Y-113428552D01*
X165430006Y-112857124D02*
X165430006Y-113523791D01*
X165191911Y-112476172D02*
X164953816Y-113190457D01*
X164953816Y-113190457D02*
X165572863Y-113190457D01*
X165957933Y-94008882D02*
X165957933Y-94818405D01*
X165957933Y-94818405D02*
X166005552Y-94913643D01*
X166005552Y-94913643D02*
X166053171Y-94961263D01*
X166053171Y-94961263D02*
X166148409Y-95008882D01*
X166148409Y-95008882D02*
X166338885Y-95008882D01*
X166338885Y-95008882D02*
X166434123Y-94961263D01*
X166434123Y-94961263D02*
X166481742Y-94913643D01*
X166481742Y-94913643D02*
X166529361Y-94818405D01*
X166529361Y-94818405D02*
X166529361Y-94008882D01*
X167529361Y-95008882D02*
X166957933Y-95008882D01*
X167243647Y-95008882D02*
X167243647Y-94008882D01*
X167243647Y-94008882D02*
X167148409Y-94151739D01*
X167148409Y-94151739D02*
X167053171Y-94246977D01*
X167053171Y-94246977D02*
X166957933Y-94294596D01*
X161326233Y-102697938D02*
X161564328Y-102697938D01*
X161469090Y-102936033D02*
X161564328Y-102697938D01*
X161564328Y-102697938D02*
X161469090Y-102459843D01*
X161754804Y-102840795D02*
X161564328Y-102697938D01*
X161564328Y-102697938D02*
X161754804Y-102555081D01*
X161326233Y-102697938D02*
X161564328Y-102697938D01*
X161469090Y-102936033D02*
X161564328Y-102697938D01*
X161564328Y-102697938D02*
X161469090Y-102459843D01*
X161754804Y-102840795D02*
X161564328Y-102697938D01*
X161564328Y-102697938D02*
X161754804Y-102555081D01*
X163179580Y-92567857D02*
X163227200Y-92615476D01*
X163227200Y-92615476D02*
X163274819Y-92758333D01*
X163274819Y-92758333D02*
X163274819Y-92853571D01*
X163274819Y-92853571D02*
X163227200Y-92996428D01*
X163227200Y-92996428D02*
X163131961Y-93091666D01*
X163131961Y-93091666D02*
X163036723Y-93139285D01*
X163036723Y-93139285D02*
X162846247Y-93186904D01*
X162846247Y-93186904D02*
X162703390Y-93186904D01*
X162703390Y-93186904D02*
X162512914Y-93139285D01*
X162512914Y-93139285D02*
X162417676Y-93091666D01*
X162417676Y-93091666D02*
X162322438Y-92996428D01*
X162322438Y-92996428D02*
X162274819Y-92853571D01*
X162274819Y-92853571D02*
X162274819Y-92758333D01*
X162274819Y-92758333D02*
X162322438Y-92615476D01*
X162322438Y-92615476D02*
X162370057Y-92567857D01*
X162370057Y-92186904D02*
X162322438Y-92139285D01*
X162322438Y-92139285D02*
X162274819Y-92044047D01*
X162274819Y-92044047D02*
X162274819Y-91805952D01*
X162274819Y-91805952D02*
X162322438Y-91710714D01*
X162322438Y-91710714D02*
X162370057Y-91663095D01*
X162370057Y-91663095D02*
X162465295Y-91615476D01*
X162465295Y-91615476D02*
X162560533Y-91615476D01*
X162560533Y-91615476D02*
X162703390Y-91663095D01*
X162703390Y-91663095D02*
X163274819Y-92234523D01*
X163274819Y-92234523D02*
X163274819Y-91615476D01*
X162274819Y-90710714D02*
X162274819Y-91186904D01*
X162274819Y-91186904D02*
X162751009Y-91234523D01*
X162751009Y-91234523D02*
X162703390Y-91186904D01*
X162703390Y-91186904D02*
X162655771Y-91091666D01*
X162655771Y-91091666D02*
X162655771Y-90853571D01*
X162655771Y-90853571D02*
X162703390Y-90758333D01*
X162703390Y-90758333D02*
X162751009Y-90710714D01*
X162751009Y-90710714D02*
X162846247Y-90663095D01*
X162846247Y-90663095D02*
X163084342Y-90663095D01*
X163084342Y-90663095D02*
X163179580Y-90710714D01*
X163179580Y-90710714D02*
X163227200Y-90758333D01*
X163227200Y-90758333D02*
X163274819Y-90853571D01*
X163274819Y-90853571D02*
X163274819Y-91091666D01*
X163274819Y-91091666D02*
X163227200Y-91186904D01*
X163227200Y-91186904D02*
X163179580Y-91234523D01*
X148410793Y-85258515D02*
X148458413Y-85306134D01*
X148458413Y-85306134D02*
X148506032Y-85448991D01*
X148506032Y-85448991D02*
X148506032Y-85544229D01*
X148506032Y-85544229D02*
X148458413Y-85687086D01*
X148458413Y-85687086D02*
X148363174Y-85782324D01*
X148363174Y-85782324D02*
X148267936Y-85829943D01*
X148267936Y-85829943D02*
X148077460Y-85877562D01*
X148077460Y-85877562D02*
X147934603Y-85877562D01*
X147934603Y-85877562D02*
X147744127Y-85829943D01*
X147744127Y-85829943D02*
X147648889Y-85782324D01*
X147648889Y-85782324D02*
X147553651Y-85687086D01*
X147553651Y-85687086D02*
X147506032Y-85544229D01*
X147506032Y-85544229D02*
X147506032Y-85448991D01*
X147506032Y-85448991D02*
X147553651Y-85306134D01*
X147553651Y-85306134D02*
X147601270Y-85258515D01*
X148506032Y-84306134D02*
X148506032Y-84877562D01*
X148506032Y-84591848D02*
X147506032Y-84591848D01*
X147506032Y-84591848D02*
X147648889Y-84687086D01*
X147648889Y-84687086D02*
X147744127Y-84782324D01*
X147744127Y-84782324D02*
X147791746Y-84877562D01*
X147506032Y-83448991D02*
X147506032Y-83639467D01*
X147506032Y-83639467D02*
X147553651Y-83734705D01*
X147553651Y-83734705D02*
X147601270Y-83782324D01*
X147601270Y-83782324D02*
X147744127Y-83877562D01*
X147744127Y-83877562D02*
X147934603Y-83925181D01*
X147934603Y-83925181D02*
X148315555Y-83925181D01*
X148315555Y-83925181D02*
X148410793Y-83877562D01*
X148410793Y-83877562D02*
X148458413Y-83829943D01*
X148458413Y-83829943D02*
X148506032Y-83734705D01*
X148506032Y-83734705D02*
X148506032Y-83544229D01*
X148506032Y-83544229D02*
X148458413Y-83448991D01*
X148458413Y-83448991D02*
X148410793Y-83401372D01*
X148410793Y-83401372D02*
X148315555Y-83353753D01*
X148315555Y-83353753D02*
X148077460Y-83353753D01*
X148077460Y-83353753D02*
X147982222Y-83401372D01*
X147982222Y-83401372D02*
X147934603Y-83448991D01*
X147934603Y-83448991D02*
X147886984Y-83544229D01*
X147886984Y-83544229D02*
X147886984Y-83734705D01*
X147886984Y-83734705D02*
X147934603Y-83829943D01*
X147934603Y-83829943D02*
X147982222Y-83877562D01*
X147982222Y-83877562D02*
X148077460Y-83925181D01*
X174815074Y-106929274D02*
X174862694Y-106976893D01*
X174862694Y-106976893D02*
X174910313Y-107119750D01*
X174910313Y-107119750D02*
X174910313Y-107214988D01*
X174910313Y-107214988D02*
X174862694Y-107357845D01*
X174862694Y-107357845D02*
X174767455Y-107453083D01*
X174767455Y-107453083D02*
X174672217Y-107500702D01*
X174672217Y-107500702D02*
X174481741Y-107548321D01*
X174481741Y-107548321D02*
X174338884Y-107548321D01*
X174338884Y-107548321D02*
X174148408Y-107500702D01*
X174148408Y-107500702D02*
X174053170Y-107453083D01*
X174053170Y-107453083D02*
X173957932Y-107357845D01*
X173957932Y-107357845D02*
X173910313Y-107214988D01*
X173910313Y-107214988D02*
X173910313Y-107119750D01*
X173910313Y-107119750D02*
X173957932Y-106976893D01*
X173957932Y-106976893D02*
X174005551Y-106929274D01*
X173910313Y-106595940D02*
X173910313Y-105976893D01*
X173910313Y-105976893D02*
X174291265Y-106310226D01*
X174291265Y-106310226D02*
X174291265Y-106167369D01*
X174291265Y-106167369D02*
X174338884Y-106072131D01*
X174338884Y-106072131D02*
X174386503Y-106024512D01*
X174386503Y-106024512D02*
X174481741Y-105976893D01*
X174481741Y-105976893D02*
X174719836Y-105976893D01*
X174719836Y-105976893D02*
X174815074Y-106024512D01*
X174815074Y-106024512D02*
X174862694Y-106072131D01*
X174862694Y-106072131D02*
X174910313Y-106167369D01*
X174910313Y-106167369D02*
X174910313Y-106453083D01*
X174910313Y-106453083D02*
X174862694Y-106548321D01*
X174862694Y-106548321D02*
X174815074Y-106595940D01*
X174910313Y-105024512D02*
X174910313Y-105595940D01*
X174910313Y-105310226D02*
X173910313Y-105310226D01*
X173910313Y-105310226D02*
X174053170Y-105405464D01*
X174053170Y-105405464D02*
X174148408Y-105500702D01*
X174148408Y-105500702D02*
X174196027Y-105595940D01*
X140019580Y-99666666D02*
X140067200Y-99714285D01*
X140067200Y-99714285D02*
X140114819Y-99857142D01*
X140114819Y-99857142D02*
X140114819Y-99952380D01*
X140114819Y-99952380D02*
X140067200Y-100095237D01*
X140067200Y-100095237D02*
X139971961Y-100190475D01*
X139971961Y-100190475D02*
X139876723Y-100238094D01*
X139876723Y-100238094D02*
X139686247Y-100285713D01*
X139686247Y-100285713D02*
X139543390Y-100285713D01*
X139543390Y-100285713D02*
X139352914Y-100238094D01*
X139352914Y-100238094D02*
X139257676Y-100190475D01*
X139257676Y-100190475D02*
X139162438Y-100095237D01*
X139162438Y-100095237D02*
X139114819Y-99952380D01*
X139114819Y-99952380D02*
X139114819Y-99857142D01*
X139114819Y-99857142D02*
X139162438Y-99714285D01*
X139162438Y-99714285D02*
X139210057Y-99666666D01*
X139210057Y-99285713D02*
X139162438Y-99238094D01*
X139162438Y-99238094D02*
X139114819Y-99142856D01*
X139114819Y-99142856D02*
X139114819Y-98904761D01*
X139114819Y-98904761D02*
X139162438Y-98809523D01*
X139162438Y-98809523D02*
X139210057Y-98761904D01*
X139210057Y-98761904D02*
X139305295Y-98714285D01*
X139305295Y-98714285D02*
X139400533Y-98714285D01*
X139400533Y-98714285D02*
X139543390Y-98761904D01*
X139543390Y-98761904D02*
X140114819Y-99333332D01*
X140114819Y-99333332D02*
X140114819Y-98714285D01*
X162952796Y-108302387D02*
X162619463Y-107826196D01*
X162381368Y-108302387D02*
X162381368Y-107302387D01*
X162381368Y-107302387D02*
X162762320Y-107302387D01*
X162762320Y-107302387D02*
X162857558Y-107350006D01*
X162857558Y-107350006D02*
X162905177Y-107397625D01*
X162905177Y-107397625D02*
X162952796Y-107492863D01*
X162952796Y-107492863D02*
X162952796Y-107635720D01*
X162952796Y-107635720D02*
X162905177Y-107730958D01*
X162905177Y-107730958D02*
X162857558Y-107778577D01*
X162857558Y-107778577D02*
X162762320Y-107826196D01*
X162762320Y-107826196D02*
X162381368Y-107826196D01*
X163905177Y-108302387D02*
X163333749Y-108302387D01*
X163619463Y-108302387D02*
X163619463Y-107302387D01*
X163619463Y-107302387D02*
X163524225Y-107445244D01*
X163524225Y-107445244D02*
X163428987Y-107540482D01*
X163428987Y-107540482D02*
X163333749Y-107588101D01*
X164762320Y-107635720D02*
X164762320Y-108302387D01*
X164524225Y-107254768D02*
X164286130Y-107969053D01*
X164286130Y-107969053D02*
X164905177Y-107969053D01*
X160013805Y-105430193D02*
X159537614Y-105763526D01*
X160013805Y-106001621D02*
X159013805Y-106001621D01*
X159013805Y-106001621D02*
X159013805Y-105620669D01*
X159013805Y-105620669D02*
X159061424Y-105525431D01*
X159061424Y-105525431D02*
X159109043Y-105477812D01*
X159109043Y-105477812D02*
X159204281Y-105430193D01*
X159204281Y-105430193D02*
X159347138Y-105430193D01*
X159347138Y-105430193D02*
X159442376Y-105477812D01*
X159442376Y-105477812D02*
X159489995Y-105525431D01*
X159489995Y-105525431D02*
X159537614Y-105620669D01*
X159537614Y-105620669D02*
X159537614Y-106001621D01*
X160013805Y-104477812D02*
X160013805Y-105049240D01*
X160013805Y-104763526D02*
X159013805Y-104763526D01*
X159013805Y-104763526D02*
X159156662Y-104858764D01*
X159156662Y-104858764D02*
X159251900Y-104954002D01*
X159251900Y-104954002D02*
X159299519Y-105049240D01*
X159013805Y-103573050D02*
X159013805Y-104049240D01*
X159013805Y-104049240D02*
X159489995Y-104096859D01*
X159489995Y-104096859D02*
X159442376Y-104049240D01*
X159442376Y-104049240D02*
X159394757Y-103954002D01*
X159394757Y-103954002D02*
X159394757Y-103715907D01*
X159394757Y-103715907D02*
X159442376Y-103620669D01*
X159442376Y-103620669D02*
X159489995Y-103573050D01*
X159489995Y-103573050D02*
X159585233Y-103525431D01*
X159585233Y-103525431D02*
X159823328Y-103525431D01*
X159823328Y-103525431D02*
X159918566Y-103573050D01*
X159918566Y-103573050D02*
X159966186Y-103620669D01*
X159966186Y-103620669D02*
X160013805Y-103715907D01*
X160013805Y-103715907D02*
X160013805Y-103954002D01*
X160013805Y-103954002D02*
X159966186Y-104049240D01*
X159966186Y-104049240D02*
X159918566Y-104096859D01*
X153845161Y-89854836D02*
X152845161Y-89854836D01*
X152845161Y-89854836D02*
X152845161Y-89616741D01*
X152845161Y-89616741D02*
X152892780Y-89473884D01*
X152892780Y-89473884D02*
X152988018Y-89378646D01*
X152988018Y-89378646D02*
X153083256Y-89331027D01*
X153083256Y-89331027D02*
X153273732Y-89283408D01*
X153273732Y-89283408D02*
X153416589Y-89283408D01*
X153416589Y-89283408D02*
X153607065Y-89331027D01*
X153607065Y-89331027D02*
X153702303Y-89378646D01*
X153702303Y-89378646D02*
X153797542Y-89473884D01*
X153797542Y-89473884D02*
X153845161Y-89616741D01*
X153845161Y-89616741D02*
X153845161Y-89854836D01*
X152940399Y-88902455D02*
X152892780Y-88854836D01*
X152892780Y-88854836D02*
X152845161Y-88759598D01*
X152845161Y-88759598D02*
X152845161Y-88521503D01*
X152845161Y-88521503D02*
X152892780Y-88426265D01*
X152892780Y-88426265D02*
X152940399Y-88378646D01*
X152940399Y-88378646D02*
X153035637Y-88331027D01*
X153035637Y-88331027D02*
X153130875Y-88331027D01*
X153130875Y-88331027D02*
X153273732Y-88378646D01*
X153273732Y-88378646D02*
X153845161Y-88950074D01*
X153845161Y-88950074D02*
X153845161Y-88331027D01*
X144412768Y-87557250D02*
X144365149Y-87604870D01*
X144365149Y-87604870D02*
X144222292Y-87652489D01*
X144222292Y-87652489D02*
X144127054Y-87652489D01*
X144127054Y-87652489D02*
X143984197Y-87604870D01*
X143984197Y-87604870D02*
X143888959Y-87509631D01*
X143888959Y-87509631D02*
X143841340Y-87414393D01*
X143841340Y-87414393D02*
X143793721Y-87223917D01*
X143793721Y-87223917D02*
X143793721Y-87081060D01*
X143793721Y-87081060D02*
X143841340Y-86890584D01*
X143841340Y-86890584D02*
X143888959Y-86795346D01*
X143888959Y-86795346D02*
X143984197Y-86700108D01*
X143984197Y-86700108D02*
X144127054Y-86652489D01*
X144127054Y-86652489D02*
X144222292Y-86652489D01*
X144222292Y-86652489D02*
X144365149Y-86700108D01*
X144365149Y-86700108D02*
X144412768Y-86747727D01*
X145365149Y-87652489D02*
X144793721Y-87652489D01*
X145079435Y-87652489D02*
X145079435Y-86652489D01*
X145079435Y-86652489D02*
X144984197Y-86795346D01*
X144984197Y-86795346D02*
X144888959Y-86890584D01*
X144888959Y-86890584D02*
X144793721Y-86938203D01*
X145984197Y-86652489D02*
X146079435Y-86652489D01*
X146079435Y-86652489D02*
X146174673Y-86700108D01*
X146174673Y-86700108D02*
X146222292Y-86747727D01*
X146222292Y-86747727D02*
X146269911Y-86842965D01*
X146269911Y-86842965D02*
X146317530Y-87033441D01*
X146317530Y-87033441D02*
X146317530Y-87271536D01*
X146317530Y-87271536D02*
X146269911Y-87462012D01*
X146269911Y-87462012D02*
X146222292Y-87557250D01*
X146222292Y-87557250D02*
X146174673Y-87604870D01*
X146174673Y-87604870D02*
X146079435Y-87652489D01*
X146079435Y-87652489D02*
X145984197Y-87652489D01*
X145984197Y-87652489D02*
X145888959Y-87604870D01*
X145888959Y-87604870D02*
X145841340Y-87557250D01*
X145841340Y-87557250D02*
X145793721Y-87462012D01*
X145793721Y-87462012D02*
X145746102Y-87271536D01*
X145746102Y-87271536D02*
X145746102Y-87033441D01*
X145746102Y-87033441D02*
X145793721Y-86842965D01*
X145793721Y-86842965D02*
X145841340Y-86747727D01*
X145841340Y-86747727D02*
X145888959Y-86700108D01*
X145888959Y-86700108D02*
X145984197Y-86652489D01*
X126902746Y-84846576D02*
X126855127Y-84894196D01*
X126855127Y-84894196D02*
X126712270Y-84941815D01*
X126712270Y-84941815D02*
X126617032Y-84941815D01*
X126617032Y-84941815D02*
X126474175Y-84894196D01*
X126474175Y-84894196D02*
X126378937Y-84798957D01*
X126378937Y-84798957D02*
X126331318Y-84703719D01*
X126331318Y-84703719D02*
X126283699Y-84513243D01*
X126283699Y-84513243D02*
X126283699Y-84370386D01*
X126283699Y-84370386D02*
X126331318Y-84179910D01*
X126331318Y-84179910D02*
X126378937Y-84084672D01*
X126378937Y-84084672D02*
X126474175Y-83989434D01*
X126474175Y-83989434D02*
X126617032Y-83941815D01*
X126617032Y-83941815D02*
X126712270Y-83941815D01*
X126712270Y-83941815D02*
X126855127Y-83989434D01*
X126855127Y-83989434D02*
X126902746Y-84037053D01*
X127855127Y-84941815D02*
X127283699Y-84941815D01*
X127569413Y-84941815D02*
X127569413Y-83941815D01*
X127569413Y-83941815D02*
X127474175Y-84084672D01*
X127474175Y-84084672D02*
X127378937Y-84179910D01*
X127378937Y-84179910D02*
X127283699Y-84227529D01*
X128236080Y-84037053D02*
X128283699Y-83989434D01*
X128283699Y-83989434D02*
X128378937Y-83941815D01*
X128378937Y-83941815D02*
X128617032Y-83941815D01*
X128617032Y-83941815D02*
X128712270Y-83989434D01*
X128712270Y-83989434D02*
X128759889Y-84037053D01*
X128759889Y-84037053D02*
X128807508Y-84132291D01*
X128807508Y-84132291D02*
X128807508Y-84227529D01*
X128807508Y-84227529D02*
X128759889Y-84370386D01*
X128759889Y-84370386D02*
X128188461Y-84941815D01*
X128188461Y-84941815D02*
X128807508Y-84941815D01*
X165606284Y-122654944D02*
X165130093Y-122988277D01*
X165606284Y-123226372D02*
X164606284Y-123226372D01*
X164606284Y-123226372D02*
X164606284Y-122845420D01*
X164606284Y-122845420D02*
X164653903Y-122750182D01*
X164653903Y-122750182D02*
X164701522Y-122702563D01*
X164701522Y-122702563D02*
X164796760Y-122654944D01*
X164796760Y-122654944D02*
X164939617Y-122654944D01*
X164939617Y-122654944D02*
X165034855Y-122702563D01*
X165034855Y-122702563D02*
X165082474Y-122750182D01*
X165082474Y-122750182D02*
X165130093Y-122845420D01*
X165130093Y-122845420D02*
X165130093Y-123226372D01*
X164701522Y-122273991D02*
X164653903Y-122226372D01*
X164653903Y-122226372D02*
X164606284Y-122131134D01*
X164606284Y-122131134D02*
X164606284Y-121893039D01*
X164606284Y-121893039D02*
X164653903Y-121797801D01*
X164653903Y-121797801D02*
X164701522Y-121750182D01*
X164701522Y-121750182D02*
X164796760Y-121702563D01*
X164796760Y-121702563D02*
X164891998Y-121702563D01*
X164891998Y-121702563D02*
X165034855Y-121750182D01*
X165034855Y-121750182D02*
X165606284Y-122321610D01*
X165606284Y-122321610D02*
X165606284Y-121702563D01*
X165606284Y-120750182D02*
X165606284Y-121321610D01*
X165606284Y-121035896D02*
X164606284Y-121035896D01*
X164606284Y-121035896D02*
X164749141Y-121131134D01*
X164749141Y-121131134D02*
X164844379Y-121226372D01*
X164844379Y-121226372D02*
X164891998Y-121321610D01*
X164694687Y-115789067D02*
X164647068Y-115836687D01*
X164647068Y-115836687D02*
X164504211Y-115884306D01*
X164504211Y-115884306D02*
X164408973Y-115884306D01*
X164408973Y-115884306D02*
X164266116Y-115836687D01*
X164266116Y-115836687D02*
X164170878Y-115741448D01*
X164170878Y-115741448D02*
X164123259Y-115646210D01*
X164123259Y-115646210D02*
X164075640Y-115455734D01*
X164075640Y-115455734D02*
X164075640Y-115312877D01*
X164075640Y-115312877D02*
X164123259Y-115122401D01*
X164123259Y-115122401D02*
X164170878Y-115027163D01*
X164170878Y-115027163D02*
X164266116Y-114931925D01*
X164266116Y-114931925D02*
X164408973Y-114884306D01*
X164408973Y-114884306D02*
X164504211Y-114884306D01*
X164504211Y-114884306D02*
X164647068Y-114931925D01*
X164647068Y-114931925D02*
X164694687Y-114979544D01*
X165028021Y-114884306D02*
X165647068Y-114884306D01*
X165647068Y-114884306D02*
X165313735Y-115265258D01*
X165313735Y-115265258D02*
X165456592Y-115265258D01*
X165456592Y-115265258D02*
X165551830Y-115312877D01*
X165551830Y-115312877D02*
X165599449Y-115360496D01*
X165599449Y-115360496D02*
X165647068Y-115455734D01*
X165647068Y-115455734D02*
X165647068Y-115693829D01*
X165647068Y-115693829D02*
X165599449Y-115789067D01*
X165599449Y-115789067D02*
X165551830Y-115836687D01*
X165551830Y-115836687D02*
X165456592Y-115884306D01*
X165456592Y-115884306D02*
X165170878Y-115884306D01*
X165170878Y-115884306D02*
X165075640Y-115836687D01*
X165075640Y-115836687D02*
X165028021Y-115789067D01*
X166551830Y-114884306D02*
X166075640Y-114884306D01*
X166075640Y-114884306D02*
X166028021Y-115360496D01*
X166028021Y-115360496D02*
X166075640Y-115312877D01*
X166075640Y-115312877D02*
X166170878Y-115265258D01*
X166170878Y-115265258D02*
X166408973Y-115265258D01*
X166408973Y-115265258D02*
X166504211Y-115312877D01*
X166504211Y-115312877D02*
X166551830Y-115360496D01*
X166551830Y-115360496D02*
X166599449Y-115455734D01*
X166599449Y-115455734D02*
X166599449Y-115693829D01*
X166599449Y-115693829D02*
X166551830Y-115789067D01*
X166551830Y-115789067D02*
X166504211Y-115836687D01*
X166504211Y-115836687D02*
X166408973Y-115884306D01*
X166408973Y-115884306D02*
X166170878Y-115884306D01*
X166170878Y-115884306D02*
X166075640Y-115836687D01*
X166075640Y-115836687D02*
X166028021Y-115789067D01*
X137785862Y-92724970D02*
X137785862Y-93201161D01*
X137569195Y-92201161D02*
X137785862Y-92724970D01*
X137785862Y-92724970D02*
X138002529Y-92201161D01*
X138559672Y-93201161D02*
X138188243Y-93201161D01*
X138373957Y-93201161D02*
X138373957Y-92201161D01*
X138373957Y-92201161D02*
X138312053Y-92344018D01*
X138312053Y-92344018D02*
X138250148Y-92439256D01*
X138250148Y-92439256D02*
X138188243Y-92486875D01*
X167789580Y-112005357D02*
X167837200Y-112052976D01*
X167837200Y-112052976D02*
X167884819Y-112195833D01*
X167884819Y-112195833D02*
X167884819Y-112291071D01*
X167884819Y-112291071D02*
X167837200Y-112433928D01*
X167837200Y-112433928D02*
X167741961Y-112529166D01*
X167741961Y-112529166D02*
X167646723Y-112576785D01*
X167646723Y-112576785D02*
X167456247Y-112624404D01*
X167456247Y-112624404D02*
X167313390Y-112624404D01*
X167313390Y-112624404D02*
X167122914Y-112576785D01*
X167122914Y-112576785D02*
X167027676Y-112529166D01*
X167027676Y-112529166D02*
X166932438Y-112433928D01*
X166932438Y-112433928D02*
X166884819Y-112291071D01*
X166884819Y-112291071D02*
X166884819Y-112195833D01*
X166884819Y-112195833D02*
X166932438Y-112052976D01*
X166932438Y-112052976D02*
X166980057Y-112005357D01*
X166884819Y-111672023D02*
X166884819Y-111052976D01*
X166884819Y-111052976D02*
X167265771Y-111386309D01*
X167265771Y-111386309D02*
X167265771Y-111243452D01*
X167265771Y-111243452D02*
X167313390Y-111148214D01*
X167313390Y-111148214D02*
X167361009Y-111100595D01*
X167361009Y-111100595D02*
X167456247Y-111052976D01*
X167456247Y-111052976D02*
X167694342Y-111052976D01*
X167694342Y-111052976D02*
X167789580Y-111100595D01*
X167789580Y-111100595D02*
X167837200Y-111148214D01*
X167837200Y-111148214D02*
X167884819Y-111243452D01*
X167884819Y-111243452D02*
X167884819Y-111529166D01*
X167884819Y-111529166D02*
X167837200Y-111624404D01*
X167837200Y-111624404D02*
X167789580Y-111672023D01*
X166884819Y-110433928D02*
X166884819Y-110338690D01*
X166884819Y-110338690D02*
X166932438Y-110243452D01*
X166932438Y-110243452D02*
X166980057Y-110195833D01*
X166980057Y-110195833D02*
X167075295Y-110148214D01*
X167075295Y-110148214D02*
X167265771Y-110100595D01*
X167265771Y-110100595D02*
X167503866Y-110100595D01*
X167503866Y-110100595D02*
X167694342Y-110148214D01*
X167694342Y-110148214D02*
X167789580Y-110195833D01*
X167789580Y-110195833D02*
X167837200Y-110243452D01*
X167837200Y-110243452D02*
X167884819Y-110338690D01*
X167884819Y-110338690D02*
X167884819Y-110433928D01*
X167884819Y-110433928D02*
X167837200Y-110529166D01*
X167837200Y-110529166D02*
X167789580Y-110576785D01*
X167789580Y-110576785D02*
X167694342Y-110624404D01*
X167694342Y-110624404D02*
X167503866Y-110672023D01*
X167503866Y-110672023D02*
X167265771Y-110672023D01*
X167265771Y-110672023D02*
X167075295Y-110624404D01*
X167075295Y-110624404D02*
X166980057Y-110576785D01*
X166980057Y-110576785D02*
X166932438Y-110529166D01*
X166932438Y-110529166D02*
X166884819Y-110433928D01*
X174931925Y-94668823D02*
X174884306Y-94716443D01*
X174884306Y-94716443D02*
X174741449Y-94764062D01*
X174741449Y-94764062D02*
X174646211Y-94764062D01*
X174646211Y-94764062D02*
X174503354Y-94716443D01*
X174503354Y-94716443D02*
X174408116Y-94621204D01*
X174408116Y-94621204D02*
X174360497Y-94525966D01*
X174360497Y-94525966D02*
X174312878Y-94335490D01*
X174312878Y-94335490D02*
X174312878Y-94192633D01*
X174312878Y-94192633D02*
X174360497Y-94002157D01*
X174360497Y-94002157D02*
X174408116Y-93906919D01*
X174408116Y-93906919D02*
X174503354Y-93811681D01*
X174503354Y-93811681D02*
X174646211Y-93764062D01*
X174646211Y-93764062D02*
X174741449Y-93764062D01*
X174741449Y-93764062D02*
X174884306Y-93811681D01*
X174884306Y-93811681D02*
X174931925Y-93859300D01*
X175884306Y-94764062D02*
X175312878Y-94764062D01*
X175598592Y-94764062D02*
X175598592Y-93764062D01*
X175598592Y-93764062D02*
X175503354Y-93906919D01*
X175503354Y-93906919D02*
X175408116Y-94002157D01*
X175408116Y-94002157D02*
X175312878Y-94049776D01*
X176360497Y-94764062D02*
X176550973Y-94764062D01*
X176550973Y-94764062D02*
X176646211Y-94716443D01*
X176646211Y-94716443D02*
X176693830Y-94668823D01*
X176693830Y-94668823D02*
X176789068Y-94525966D01*
X176789068Y-94525966D02*
X176836687Y-94335490D01*
X176836687Y-94335490D02*
X176836687Y-93954538D01*
X176836687Y-93954538D02*
X176789068Y-93859300D01*
X176789068Y-93859300D02*
X176741449Y-93811681D01*
X176741449Y-93811681D02*
X176646211Y-93764062D01*
X176646211Y-93764062D02*
X176455735Y-93764062D01*
X176455735Y-93764062D02*
X176360497Y-93811681D01*
X176360497Y-93811681D02*
X176312878Y-93859300D01*
X176312878Y-93859300D02*
X176265259Y-93954538D01*
X176265259Y-93954538D02*
X176265259Y-94192633D01*
X176265259Y-94192633D02*
X176312878Y-94287871D01*
X176312878Y-94287871D02*
X176360497Y-94335490D01*
X176360497Y-94335490D02*
X176455735Y-94383109D01*
X176455735Y-94383109D02*
X176646211Y-94383109D01*
X176646211Y-94383109D02*
X176741449Y-94335490D01*
X176741449Y-94335490D02*
X176789068Y-94287871D01*
X176789068Y-94287871D02*
X176836687Y-94192633D01*
X153657611Y-79976477D02*
X153657611Y-78976477D01*
X153657611Y-78976477D02*
X153895706Y-78976477D01*
X153895706Y-78976477D02*
X154038563Y-79024096D01*
X154038563Y-79024096D02*
X154133801Y-79119334D01*
X154133801Y-79119334D02*
X154181420Y-79214572D01*
X154181420Y-79214572D02*
X154229039Y-79405048D01*
X154229039Y-79405048D02*
X154229039Y-79547905D01*
X154229039Y-79547905D02*
X154181420Y-79738381D01*
X154181420Y-79738381D02*
X154133801Y-79833619D01*
X154133801Y-79833619D02*
X154038563Y-79928858D01*
X154038563Y-79928858D02*
X153895706Y-79976477D01*
X153895706Y-79976477D02*
X153657611Y-79976477D01*
X155133801Y-78976477D02*
X154657611Y-78976477D01*
X154657611Y-78976477D02*
X154609992Y-79452667D01*
X154609992Y-79452667D02*
X154657611Y-79405048D01*
X154657611Y-79405048D02*
X154752849Y-79357429D01*
X154752849Y-79357429D02*
X154990944Y-79357429D01*
X154990944Y-79357429D02*
X155086182Y-79405048D01*
X155086182Y-79405048D02*
X155133801Y-79452667D01*
X155133801Y-79452667D02*
X155181420Y-79547905D01*
X155181420Y-79547905D02*
X155181420Y-79786000D01*
X155181420Y-79786000D02*
X155133801Y-79881238D01*
X155133801Y-79881238D02*
X155086182Y-79928858D01*
X155086182Y-79928858D02*
X154990944Y-79976477D01*
X154990944Y-79976477D02*
X154752849Y-79976477D01*
X154752849Y-79976477D02*
X154657611Y-79928858D01*
X154657611Y-79928858D02*
X154609992Y-79881238D01*
X151944670Y-88004183D02*
X151611337Y-87527992D01*
X151373242Y-88004183D02*
X151373242Y-87004183D01*
X151373242Y-87004183D02*
X151754194Y-87004183D01*
X151754194Y-87004183D02*
X151849432Y-87051802D01*
X151849432Y-87051802D02*
X151897051Y-87099421D01*
X151897051Y-87099421D02*
X151944670Y-87194659D01*
X151944670Y-87194659D02*
X151944670Y-87337516D01*
X151944670Y-87337516D02*
X151897051Y-87432754D01*
X151897051Y-87432754D02*
X151849432Y-87480373D01*
X151849432Y-87480373D02*
X151754194Y-87527992D01*
X151754194Y-87527992D02*
X151373242Y-87527992D01*
X152897051Y-88004183D02*
X152325623Y-88004183D01*
X152611337Y-88004183D02*
X152611337Y-87004183D01*
X152611337Y-87004183D02*
X152516099Y-87147040D01*
X152516099Y-87147040D02*
X152420861Y-87242278D01*
X152420861Y-87242278D02*
X152325623Y-87289897D01*
X153516099Y-87004183D02*
X153611337Y-87004183D01*
X153611337Y-87004183D02*
X153706575Y-87051802D01*
X153706575Y-87051802D02*
X153754194Y-87099421D01*
X153754194Y-87099421D02*
X153801813Y-87194659D01*
X153801813Y-87194659D02*
X153849432Y-87385135D01*
X153849432Y-87385135D02*
X153849432Y-87623230D01*
X153849432Y-87623230D02*
X153801813Y-87813706D01*
X153801813Y-87813706D02*
X153754194Y-87908944D01*
X153754194Y-87908944D02*
X153706575Y-87956564D01*
X153706575Y-87956564D02*
X153611337Y-88004183D01*
X153611337Y-88004183D02*
X153516099Y-88004183D01*
X153516099Y-88004183D02*
X153420861Y-87956564D01*
X153420861Y-87956564D02*
X153373242Y-87908944D01*
X153373242Y-87908944D02*
X153325623Y-87813706D01*
X153325623Y-87813706D02*
X153278004Y-87623230D01*
X153278004Y-87623230D02*
X153278004Y-87385135D01*
X153278004Y-87385135D02*
X153325623Y-87194659D01*
X153325623Y-87194659D02*
X153373242Y-87099421D01*
X153373242Y-87099421D02*
X153420861Y-87051802D01*
X153420861Y-87051802D02*
X153516099Y-87004183D01*
X141430142Y-81411949D02*
X141382523Y-81459569D01*
X141382523Y-81459569D02*
X141239666Y-81507188D01*
X141239666Y-81507188D02*
X141144428Y-81507188D01*
X141144428Y-81507188D02*
X141001571Y-81459569D01*
X141001571Y-81459569D02*
X140906333Y-81364330D01*
X140906333Y-81364330D02*
X140858714Y-81269092D01*
X140858714Y-81269092D02*
X140811095Y-81078616D01*
X140811095Y-81078616D02*
X140811095Y-80935759D01*
X140811095Y-80935759D02*
X140858714Y-80745283D01*
X140858714Y-80745283D02*
X140906333Y-80650045D01*
X140906333Y-80650045D02*
X141001571Y-80554807D01*
X141001571Y-80554807D02*
X141144428Y-80507188D01*
X141144428Y-80507188D02*
X141239666Y-80507188D01*
X141239666Y-80507188D02*
X141382523Y-80554807D01*
X141382523Y-80554807D02*
X141430142Y-80602426D01*
X142382523Y-81507188D02*
X141811095Y-81507188D01*
X142096809Y-81507188D02*
X142096809Y-80507188D01*
X142096809Y-80507188D02*
X142001571Y-80650045D01*
X142001571Y-80650045D02*
X141906333Y-80745283D01*
X141906333Y-80745283D02*
X141811095Y-80792902D01*
X142715857Y-80507188D02*
X143334904Y-80507188D01*
X143334904Y-80507188D02*
X143001571Y-80888140D01*
X143001571Y-80888140D02*
X143144428Y-80888140D01*
X143144428Y-80888140D02*
X143239666Y-80935759D01*
X143239666Y-80935759D02*
X143287285Y-80983378D01*
X143287285Y-80983378D02*
X143334904Y-81078616D01*
X143334904Y-81078616D02*
X143334904Y-81316711D01*
X143334904Y-81316711D02*
X143287285Y-81411949D01*
X143287285Y-81411949D02*
X143239666Y-81459569D01*
X143239666Y-81459569D02*
X143144428Y-81507188D01*
X143144428Y-81507188D02*
X142858714Y-81507188D01*
X142858714Y-81507188D02*
X142763476Y-81459569D01*
X142763476Y-81459569D02*
X142715857Y-81411949D01*
D11*
%TO.C,C14*%
X142292298Y-76853543D02*
X142814802Y-76853543D01*
X142292298Y-78323543D02*
X142814802Y-78323543D01*
%TO.C,R22*%
X169029444Y-113357673D02*
X168575316Y-113357673D01*
X169029444Y-114827673D02*
X168575316Y-114827673D01*
%TO.C,R8*%
X137392507Y-75885017D02*
X137392507Y-76339145D01*
X138862507Y-75885017D02*
X138862507Y-76339145D01*
%TO.C,R20*%
X160477500Y-117332776D02*
X160477500Y-117842224D01*
X161522500Y-117332776D02*
X161522500Y-117842224D01*
%TO.C,C32*%
X171490000Y-112646267D02*
X171490000Y-112353733D01*
X172510000Y-112646267D02*
X172510000Y-112353733D01*
%TO.C,R9*%
X155201321Y-83548261D02*
X155655449Y-83548261D01*
X155201321Y-85018261D02*
X155655449Y-85018261D01*
D12*
%TO.C,J1*%
X145530000Y-71137500D02*
X145530000Y-71537500D01*
X145530000Y-75837500D02*
X145530000Y-74937500D01*
X154470000Y-71137500D02*
X145530000Y-71137500D01*
X154470000Y-71537500D02*
X154470000Y-71137500D01*
X154470000Y-75837500D02*
X154470000Y-74937500D01*
X153400000Y-78937500D02*
G75*
G02*
X153200000Y-78937500I-100000J0D01*
G01*
X153200000Y-78937500D02*
G75*
G02*
X153400000Y-78937500I100000J0D01*
G01*
D11*
%TO.C,J10*%
X155950000Y-77700000D02*
X156700000Y-77700000D01*
X156700000Y-74750000D02*
X159750000Y-74750000D01*
X156700000Y-77700000D02*
X156700000Y-74750000D01*
X162600000Y-80250000D02*
X163850000Y-80250000D01*
X162800000Y-74750000D02*
X159750000Y-74750000D01*
X162800000Y-77700000D02*
X162800000Y-74750000D01*
X163550000Y-77700000D02*
X162800000Y-77700000D01*
X163850000Y-80250000D02*
X163850000Y-79000000D01*
X157750000Y-79950000D02*
X155950000Y-79950000D01*
X155950000Y-79200000D01*
X157750000Y-79200000D01*
X157750000Y-79950000D01*
X160250000Y-79950000D02*
X159250000Y-79950000D01*
X159250000Y-79200000D01*
X160250000Y-79200000D01*
X160250000Y-79950000D01*
X163550000Y-79950000D02*
X161750000Y-79950000D01*
X161750000Y-79200000D01*
X163550000Y-79200000D01*
X163550000Y-79950000D01*
X163560000Y-79960000D02*
X155940000Y-79960000D01*
X155940000Y-73990000D01*
X163560000Y-73990000D01*
X163560000Y-79960000D01*
%TO.C,R5*%
X159727064Y-99765000D02*
X159272936Y-99765000D01*
X159727064Y-101235000D02*
X159272936Y-101235000D01*
%TO.C,L3*%
X170490000Y-108703733D02*
X170490000Y-109046267D01*
X171510000Y-108703733D02*
X171510000Y-109046267D01*
%TO.C,C24*%
X165776710Y-92188427D02*
X165776710Y-91665923D01*
X167246710Y-92188427D02*
X167246710Y-91665923D01*
%TO.C,C26*%
X165765000Y-105738748D02*
X165765000Y-106261252D01*
X167235000Y-105738748D02*
X167235000Y-106261252D01*
%TO.C,C29*%
X161640000Y-87615835D02*
X161640000Y-87384165D01*
X162360000Y-87615835D02*
X162360000Y-87384165D01*
%TO.C,C6*%
X145303608Y-82641136D02*
X145826112Y-82641136D01*
X145303608Y-84111136D02*
X145826112Y-84111136D01*
%TO.C,R1*%
X143087451Y-73396304D02*
X143087451Y-72942176D01*
X144557451Y-73396304D02*
X144557451Y-72942176D01*
%TO.C,C28*%
X166640000Y-85548335D02*
X166640000Y-85316665D01*
X167360000Y-85548335D02*
X167360000Y-85316665D01*
%TO.C,J12*%
X159690000Y-120765000D02*
X160740000Y-120765000D01*
X159690000Y-124115000D02*
X159690000Y-120765000D01*
X160740000Y-120765000D02*
X160740000Y-120575000D01*
X160760000Y-125285000D02*
X161110000Y-125285000D01*
X161050000Y-119721447D02*
X161300000Y-120075000D01*
X161110000Y-125285000D02*
X161510000Y-124785000D01*
X161300000Y-120075000D02*
X161550000Y-119721447D01*
X161510000Y-124785000D02*
X162290000Y-124785000D01*
X161550000Y-119721447D02*
X161050000Y-119721447D01*
X162290000Y-124785000D02*
X162690000Y-125285000D01*
X162690000Y-125285000D02*
X163040000Y-125285000D01*
X164110000Y-120765000D02*
X163060000Y-120765000D01*
X164110000Y-124115000D02*
X164110000Y-120765000D01*
%TO.C,L1*%
X151117320Y-85108033D02*
X151117320Y-84287549D01*
X152237320Y-85108033D02*
X152237320Y-84287549D01*
%TO.C,C5*%
X128884165Y-88140000D02*
X129115835Y-88140000D01*
X128884165Y-88860000D02*
X129115835Y-88860000D01*
D12*
%TO.C,U4*%
X146890191Y-79239496D02*
X146890191Y-82339494D01*
X147590189Y-79239496D02*
X146890191Y-79239496D01*
X147590189Y-79239496D02*
X147590189Y-82339494D01*
X147590189Y-82339494D02*
X146890191Y-82339494D01*
D11*
%TO.C,C36*%
X162146267Y-113990000D02*
X161853733Y-113990000D01*
X162146267Y-115010000D02*
X161853733Y-115010000D01*
%TO.C,C4*%
X132140000Y-94846665D02*
X132140000Y-95078335D01*
X132860000Y-94846665D02*
X132860000Y-95078335D01*
%TO.C,R11*%
X156078593Y-88625094D02*
X156078593Y-89134542D01*
X157123593Y-88625094D02*
X157123593Y-89134542D01*
%TO.C,C15*%
X161362443Y-82073736D02*
X161362443Y-82596240D01*
X162832443Y-82073736D02*
X162832443Y-82596240D01*
%TO.C,SW2*%
X131925000Y-79000000D02*
X131925000Y-80200000D01*
X131925000Y-81800000D02*
X131925000Y-83000000D01*
X131925000Y-83000000D02*
X138325000Y-83000000D01*
X138325000Y-79000000D02*
X131925000Y-79000000D01*
X138325000Y-80200000D02*
X138325000Y-79000000D01*
X138325000Y-83000000D02*
X138325000Y-81800000D01*
D13*
%TO.C,Y2*%
X131538236Y-90611527D02*
X131538236Y-90451527D01*
X134038236Y-90611527D02*
X134038236Y-90451527D01*
D12*
X135013236Y-91631527D02*
G75*
G02*
X134813236Y-91631527I-100000J0D01*
G01*
X134813236Y-91631527D02*
G75*
G02*
X135013236Y-91631527I100000J0D01*
G01*
D11*
%TO.C,D1*%
X139208265Y-75453843D02*
X139208265Y-77913843D01*
X139208265Y-77913843D02*
X140678265Y-77913843D01*
X140678265Y-77913843D02*
X140678265Y-75453843D01*
%TO.C,R19*%
X174727064Y-108765000D02*
X174272936Y-108765000D01*
X174727064Y-110235000D02*
X174272936Y-110235000D01*
%TO.C,L2*%
X168490000Y-110703733D02*
X168490000Y-111046267D01*
X169510000Y-110703733D02*
X169510000Y-111046267D01*
D14*
%TO.C,U5*%
X154376410Y-80238872D02*
X156129010Y-80238872D01*
X154376410Y-83286872D02*
X156129010Y-83286872D01*
X155557510Y-80238872D02*
G75*
G02*
X154947910Y-80238872I-304800J0D01*
G01*
D11*
%TO.C,C27*%
X170466104Y-103043569D02*
X170988608Y-103043569D01*
X170466104Y-104513569D02*
X170988608Y-104513569D01*
%TO.C,SW1*%
X153125919Y-96195588D02*
X153125919Y-102595588D01*
X153125919Y-102595588D02*
X154325919Y-102595588D01*
X154325919Y-96195588D02*
X153125919Y-96195588D01*
X155925919Y-102595588D02*
X157125919Y-102595588D01*
X157125919Y-96195588D02*
X155925919Y-96195588D01*
X157125919Y-102595588D02*
X157125919Y-96195588D01*
%TO.C,C11*%
X159201248Y-97765000D02*
X159723752Y-97765000D01*
X159201248Y-99235000D02*
X159723752Y-99235000D01*
%TO.C,C37*%
X166853733Y-118490000D02*
X167146267Y-118490000D01*
X166853733Y-119510000D02*
X167146267Y-119510000D01*
%TO.C,C33*%
X169490000Y-116853733D02*
X169490000Y-117146267D01*
X170510000Y-116853733D02*
X170510000Y-117146267D01*
%TO.C,C3*%
X135140000Y-97115835D02*
X135140000Y-96884165D01*
X135860000Y-97115835D02*
X135860000Y-96884165D01*
%TO.C,R2*%
X141139902Y-73933559D02*
X141139902Y-73479431D01*
X142609902Y-73933559D02*
X142609902Y-73479431D01*
D14*
%TO.C,U1*%
X162339576Y-96074937D02*
X162339576Y-96539630D01*
X162339576Y-101960244D02*
X162339576Y-102424937D01*
X162339576Y-102424937D02*
X162804269Y-102424937D01*
X162804269Y-96074937D02*
X162339576Y-96074937D01*
X168224883Y-102424937D02*
X168689576Y-102424937D01*
X168689576Y-96074937D02*
X168224883Y-96074937D01*
X168689576Y-96539630D02*
X168689576Y-96074937D01*
X168689576Y-102424937D02*
X168689576Y-101960244D01*
D15*
G36*
X161806176Y-101691004D02*
G01*
X161552176Y-101691004D01*
X161552176Y-101310004D01*
X161806176Y-101310004D01*
X161806176Y-101691004D01*
G37*
G36*
X163454509Y-95541537D02*
G01*
X163073509Y-95541537D01*
X163073509Y-95287537D01*
X163454509Y-95287537D01*
X163454509Y-95541537D01*
G37*
G36*
X167955643Y-103212337D02*
G01*
X167574643Y-103212337D01*
X167574643Y-102958337D01*
X167955643Y-102958337D01*
X167955643Y-103212337D01*
G37*
G36*
X169476976Y-97189870D02*
G01*
X169222976Y-97189870D01*
X169222976Y-96808870D01*
X169476976Y-96808870D01*
X169476976Y-97189870D01*
G37*
D11*
%TO.C,C25*%
X163765000Y-92186252D02*
X163765000Y-91663748D01*
X165235000Y-92186252D02*
X165235000Y-91663748D01*
%TO.C,C16*%
X149064796Y-84738748D02*
X149064796Y-85261252D01*
X150534796Y-84738748D02*
X150534796Y-85261252D01*
%TO.C,C31*%
X172490000Y-106716233D02*
X172490000Y-107008767D01*
X173510000Y-106716233D02*
X173510000Y-107008767D01*
%TO.C,C2*%
X138140000Y-99384165D02*
X138140000Y-99615835D01*
X138860000Y-99384165D02*
X138860000Y-99615835D01*
%TO.C,R14*%
X162801144Y-105497361D02*
X162801144Y-105043233D01*
X164271144Y-105497361D02*
X164271144Y-105043233D01*
%TO.C,R15*%
X160473986Y-105014400D02*
X160473986Y-104560272D01*
X161943986Y-105014400D02*
X161943986Y-104560272D01*
%TO.C,D2*%
X154128758Y-88199999D02*
X154128758Y-90659999D01*
X154128758Y-90659999D02*
X155598758Y-90659999D01*
X155598758Y-90659999D02*
X155598758Y-88199999D01*
%TO.C,C10*%
X145282932Y-84615658D02*
X145805436Y-84615658D01*
X145282932Y-86085658D02*
X145805436Y-86085658D01*
%TO.C,J11*%
X153231288Y-104635962D02*
X153231288Y-127615962D01*
X153231288Y-104635962D02*
X155831288Y-104635962D01*
X153231288Y-127615962D02*
X158431288Y-127615962D01*
X155831288Y-104635962D02*
X155831288Y-107235962D01*
X155831288Y-107235962D02*
X158431288Y-107235962D01*
X157101288Y-104635962D02*
X158431288Y-104635962D01*
X158431288Y-104635962D02*
X158431288Y-105965962D01*
X158431288Y-107235962D02*
X158431288Y-127615962D01*
%TO.C,C12*%
X131261252Y-83765000D02*
X130738748Y-83765000D01*
X131261252Y-85235000D02*
X130738748Y-85235000D01*
%TO.C,R21*%
X165977500Y-121745276D02*
X165977500Y-122254724D01*
X167022500Y-121745276D02*
X167022500Y-122254724D01*
D13*
%TO.C,Y1*%
X137750000Y-95880000D02*
X137750000Y-95120000D01*
X139250000Y-95880000D02*
X139250000Y-95120000D01*
D11*
%TO.C,C30*%
X165490000Y-111216233D02*
X165490000Y-111508767D01*
X166510000Y-111216233D02*
X166510000Y-111508767D01*
%TO.C,C19*%
X175313531Y-95254243D02*
X175836035Y-95254243D01*
X175313531Y-96724243D02*
X175836035Y-96724243D01*
%TO.C,D5*%
X150810523Y-81334518D02*
X150810523Y-79864518D01*
X151460523Y-81334518D02*
X150810523Y-81334518D01*
X151830523Y-79864518D02*
X152110523Y-79864518D01*
X153130523Y-79950266D02*
X153130523Y-81334518D01*
X153130523Y-81334518D02*
X152480523Y-81334518D01*
X153330523Y-79799518D02*
X153140523Y-79659518D01*
X153330523Y-79519518D01*
X153330523Y-79799518D01*
G36*
X153330523Y-79799518D02*
G01*
X153140523Y-79659518D01*
X153330523Y-79519518D01*
X153330523Y-79799518D01*
G37*
%TO.C,R10*%
X155578156Y-85456669D02*
X155124028Y-85456669D01*
X155578156Y-86926669D02*
X155124028Y-86926669D01*
%TO.C,C13*%
X142255182Y-78894904D02*
X142777686Y-78894904D01*
X142255182Y-80364904D02*
X142777686Y-80364904D01*
%TD*%
M02*
