%TF.GenerationSoftware,KiCad,Pcbnew,9.0.7*%
%TF.CreationDate,2026-04-09T16:38:02-07:00*%
%TF.ProjectId,PN7160_STM32,504e3731-3630-45f5-9354-4d33322e6b69,1.0*%
%TF.SameCoordinates,Original*%
%TF.FileFunction,Paste,Bot*%
%TF.FilePolarity,Positive*%
%FSLAX46Y46*%
G04 Gerber Fmt 4.6, Leading zero omitted, Abs format (unit mm)*
G04 Created by KiCad (PCBNEW 9.0.7) date 2026-04-09 16:38:02*
%MOMM*%
%LPD*%
G01*
G04 APERTURE LIST*
G04 Aperture macros list*
%AMRoundRect*
0 Rectangle with rounded corners*
0 $1 Rounding radius*
0 $2 $3 $4 $5 $6 $7 $8 $9 X,Y pos of 4 corners*
0 Add a 4 corners polygon primitive as box body*
4,1,4,$2,$3,$4,$5,$6,$7,$8,$9,$2,$3,0*
0 Add four circle primitives for the rounded corners*
1,1,$1+$1,$2,$3*
1,1,$1+$1,$4,$5*
1,1,$1+$1,$6,$7*
1,1,$1+$1,$8,$9*
0 Add four rect primitives between the rounded corners*
20,1,$1+$1,$2,$3,$4,$5,0*
20,1,$1+$1,$4,$5,$6,$7,0*
20,1,$1+$1,$6,$7,$8,$9,0*
20,1,$1+$1,$8,$9,$2,$3,0*%
G04 Aperture macros list end*
%ADD10C,0.010000*%
%ADD11RoundRect,0.250000X-0.337500X-0.475000X0.337500X-0.475000X0.337500X0.475000X-0.337500X0.475000X0*%
%ADD12RoundRect,0.033750X-0.401250X-0.101250X0.401250X-0.101250X0.401250X0.101250X-0.401250X0.101250X0*%
%ADD13RoundRect,0.033750X-0.101250X-0.401250X0.101250X-0.401250X0.101250X0.401250X-0.101250X0.401250X0*%
%ADD14RoundRect,0.250000X0.475000X-0.337500X0.475000X0.337500X-0.475000X0.337500X-0.475000X-0.337500X0*%
%ADD15RoundRect,0.237500X0.237500X-0.287500X0.237500X0.287500X-0.237500X0.287500X-0.237500X-0.287500X0*%
%ADD16RoundRect,0.250000X-0.450000X0.350000X-0.450000X-0.350000X0.450000X-0.350000X0.450000X0.350000X0*%
%ADD17RoundRect,0.250000X-0.475000X0.337500X-0.475000X-0.337500X0.475000X-0.337500X0.475000X0.337500X0*%
%ADD18RoundRect,0.100000X0.100000X-0.637500X0.100000X0.637500X-0.100000X0.637500X-0.100000X-0.637500X0*%
%ADD19RoundRect,0.237500X0.237500X-0.250000X0.237500X0.250000X-0.237500X0.250000X-0.237500X-0.250000X0*%
%ADD20RoundRect,0.250000X-0.350000X-0.450000X0.350000X-0.450000X0.350000X0.450000X-0.350000X0.450000X0*%
%ADD21RoundRect,0.250000X0.350000X0.450000X-0.350000X0.450000X-0.350000X-0.450000X0.350000X-0.450000X0*%
G04 APERTURE END LIST*
D10*
%TO.C,U3*%
X149490000Y-90990000D02*
X147710000Y-90990000D01*
X147710000Y-89210000D01*
X149490000Y-89210000D01*
X149490000Y-90990000D01*
G36*
X149490000Y-90990000D02*
G01*
X147710000Y-90990000D01*
X147710000Y-89210000D01*
X149490000Y-89210000D01*
X149490000Y-90990000D01*
G37*
X149490000Y-93790000D02*
X147710000Y-93790000D01*
X147710000Y-92010000D01*
X149490000Y-92010000D01*
X149490000Y-93790000D01*
G36*
X149490000Y-93790000D02*
G01*
X147710000Y-93790000D01*
X147710000Y-92010000D01*
X149490000Y-92010000D01*
X149490000Y-93790000D01*
G37*
X152290000Y-90990000D02*
X150510000Y-90990000D01*
X150510000Y-89210000D01*
X152290000Y-89210000D01*
X152290000Y-90990000D01*
G36*
X152290000Y-90990000D02*
G01*
X150510000Y-90990000D01*
X150510000Y-89210000D01*
X152290000Y-89210000D01*
X152290000Y-90990000D01*
G37*
X152290000Y-93790000D02*
X150510000Y-93790000D01*
X150510000Y-92010000D01*
X152290000Y-92010000D01*
X152290000Y-93790000D01*
G36*
X152290000Y-93790000D02*
G01*
X150510000Y-93790000D01*
X150510000Y-92010000D01*
X152290000Y-92010000D01*
X152290000Y-93790000D01*
G37*
%TD*%
D11*
%TO.C,C17*%
X142712500Y-99741359D03*
X144787500Y-99741359D03*
%TD*%
%TO.C,C18*%
X142687316Y-97587609D03*
X144762316Y-97587609D03*
%TD*%
D12*
%TO.C,U3*%
X146570000Y-94250000D03*
X146570000Y-93750000D03*
X146570000Y-93250000D03*
X146570000Y-92750000D03*
X146570000Y-92250000D03*
X146570000Y-91750000D03*
X146570000Y-91250000D03*
X146570000Y-90750000D03*
X146570000Y-90250000D03*
X146570000Y-89750000D03*
X146570000Y-89250000D03*
X146570000Y-88750000D03*
D13*
X147250000Y-88070000D03*
X147750000Y-88070000D03*
X148250000Y-88070000D03*
X148750000Y-88070000D03*
X149250000Y-88070000D03*
X149750000Y-88070000D03*
X150250000Y-88070000D03*
X150750000Y-88070000D03*
X151250000Y-88070000D03*
X151750000Y-88070000D03*
X152250000Y-88070000D03*
X152750000Y-88070000D03*
D12*
X153430000Y-88750000D03*
X153430000Y-89250000D03*
X153430000Y-89750000D03*
X153430000Y-90250000D03*
X153430000Y-90750000D03*
X153430000Y-91250000D03*
X153430000Y-91750000D03*
X153430000Y-92250000D03*
X153430000Y-92750000D03*
X153430000Y-93250000D03*
X153430000Y-93750000D03*
X153430000Y-94250000D03*
D13*
X152750000Y-94930000D03*
X152250000Y-94930000D03*
X151750000Y-94930000D03*
X151250000Y-94930000D03*
X150750000Y-94930000D03*
X150250000Y-94930000D03*
X149750000Y-94930000D03*
X149250000Y-94930000D03*
X148750000Y-94930000D03*
X148250000Y-94930000D03*
X147750000Y-94930000D03*
X147250000Y-94930000D03*
%TD*%
D14*
%TO.C,C1*%
X151759350Y-85823810D03*
X151759350Y-83748810D03*
%TD*%
%TO.C,C9*%
X141292511Y-79537500D03*
X141292511Y-77462500D03*
%TD*%
D11*
%TO.C,C7*%
X143535948Y-80882562D03*
X145610948Y-80882562D03*
%TD*%
D15*
%TO.C,D3*%
X156500000Y-98875000D03*
X156500000Y-97125000D03*
%TD*%
D16*
%TO.C,R7*%
X149573382Y-83321855D03*
X149573382Y-85321855D03*
%TD*%
D17*
%TO.C,C23*%
X166500000Y-90925000D03*
X166500000Y-93000000D03*
%TD*%
D18*
%TO.C,U6*%
X141075000Y-103362500D03*
X140425000Y-103362500D03*
X139775000Y-103362500D03*
X139125000Y-103362500D03*
X138475000Y-103362500D03*
X137825000Y-103362500D03*
X137175000Y-103362500D03*
X136525000Y-103362500D03*
X135875000Y-103362500D03*
X135225000Y-103362500D03*
X134575000Y-103362500D03*
X133925000Y-103362500D03*
X133925000Y-97637500D03*
X134575000Y-97637500D03*
X135225000Y-97637500D03*
X135875000Y-97637500D03*
X136525000Y-97637500D03*
X137175000Y-97637500D03*
X137825000Y-97637500D03*
X138475000Y-97637500D03*
X139125000Y-97637500D03*
X139775000Y-97637500D03*
X140425000Y-97637500D03*
X141075000Y-97637500D03*
%TD*%
D11*
%TO.C,C8*%
X143535948Y-78925471D03*
X145610948Y-78925471D03*
%TD*%
D19*
%TO.C,R12*%
X156500000Y-95325000D03*
X156500000Y-93500000D03*
%TD*%
D20*
%TO.C,R13*%
X129500000Y-103500000D03*
X131500000Y-103500000D03*
%TD*%
D17*
%TO.C,C21*%
X172500000Y-93500000D03*
X172500000Y-95575000D03*
%TD*%
%TO.C,C20*%
X170500000Y-92000000D03*
X170500000Y-94075000D03*
%TD*%
%TO.C,C22*%
X164500000Y-90925000D03*
X164500000Y-93000000D03*
%TD*%
D16*
%TO.C,R16*%
X162000000Y-90000000D03*
X162000000Y-92000000D03*
%TD*%
%TO.C,R4*%
X147000000Y-99767324D03*
X147000000Y-101767324D03*
%TD*%
D21*
%TO.C,R3*%
X144920238Y-103000000D03*
X142920238Y-103000000D03*
%TD*%
M02*
