%TF.GenerationSoftware,KiCad,Pcbnew,9.0.7*%
%TF.CreationDate,2026-04-09T16:38:03-07:00*%
%TF.ProjectId,PN7160_STM32,504e3731-3630-45f5-9354-4d33322e6b69,1.0*%
%TF.SameCoordinates,Original*%
%TF.FileFunction,Legend,Bot*%
%TF.FilePolarity,Positive*%
%FSLAX46Y46*%
G04 Gerber Fmt 4.6, Leading zero omitted, Abs format (unit mm)*
G04 Created by KiCad (PCBNEW 9.0.7) date 2026-04-09 16:38:03*
%MOMM*%
%LPD*%
G01*
G04 APERTURE LIST*
%ADD10C,0.150000*%
%ADD11C,0.120000*%
%ADD12C,0.127000*%
%ADD13C,0.200000*%
G04 APERTURE END LIST*
D10*
X157033332Y-86502438D02*
X157099999Y-86454819D01*
X157099999Y-86454819D02*
X157199999Y-86454819D01*
X157199999Y-86454819D02*
X157299999Y-86502438D01*
X157299999Y-86502438D02*
X157366666Y-86597676D01*
X157366666Y-86597676D02*
X157399999Y-86692914D01*
X157399999Y-86692914D02*
X157433332Y-86883390D01*
X157433332Y-86883390D02*
X157433332Y-87026247D01*
X157433332Y-87026247D02*
X157399999Y-87216723D01*
X157399999Y-87216723D02*
X157366666Y-87311961D01*
X157366666Y-87311961D02*
X157299999Y-87407200D01*
X157299999Y-87407200D02*
X157199999Y-87454819D01*
X157199999Y-87454819D02*
X157133332Y-87454819D01*
X157133332Y-87454819D02*
X157033332Y-87407200D01*
X157033332Y-87407200D02*
X156999999Y-87359580D01*
X156999999Y-87359580D02*
X156999999Y-87026247D01*
X156999999Y-87026247D02*
X157133332Y-87026247D01*
X156699999Y-87454819D02*
X156699999Y-86454819D01*
X156699999Y-86454819D02*
X156299999Y-87454819D01*
X156299999Y-87454819D02*
X156299999Y-86454819D01*
X155966666Y-87454819D02*
X155966666Y-86454819D01*
X155966666Y-86454819D02*
X155799999Y-86454819D01*
X155799999Y-86454819D02*
X155699999Y-86502438D01*
X155699999Y-86502438D02*
X155633333Y-86597676D01*
X155633333Y-86597676D02*
X155599999Y-86692914D01*
X155599999Y-86692914D02*
X155566666Y-86883390D01*
X155566666Y-86883390D02*
X155566666Y-87026247D01*
X155566666Y-87026247D02*
X155599999Y-87216723D01*
X155599999Y-87216723D02*
X155633333Y-87311961D01*
X155633333Y-87311961D02*
X155699999Y-87407200D01*
X155699999Y-87407200D02*
X155799999Y-87454819D01*
X155799999Y-87454819D02*
X155966666Y-87454819D01*
X158545180Y-127700000D02*
X159545180Y-127700000D01*
X159545180Y-127700000D02*
X159545180Y-127433333D01*
X159545180Y-127433333D02*
X159497561Y-127366667D01*
X159497561Y-127366667D02*
X159449942Y-127333333D01*
X159449942Y-127333333D02*
X159354704Y-127300000D01*
X159354704Y-127300000D02*
X159211847Y-127300000D01*
X159211847Y-127300000D02*
X159116609Y-127333333D01*
X159116609Y-127333333D02*
X159068990Y-127366667D01*
X159068990Y-127366667D02*
X159021371Y-127433333D01*
X159021371Y-127433333D02*
X159021371Y-127700000D01*
X159068990Y-126766667D02*
X159021371Y-126666667D01*
X159021371Y-126666667D02*
X158973752Y-126633333D01*
X158973752Y-126633333D02*
X158878514Y-126600000D01*
X158878514Y-126600000D02*
X158735657Y-126600000D01*
X158735657Y-126600000D02*
X158640419Y-126633333D01*
X158640419Y-126633333D02*
X158592800Y-126666667D01*
X158592800Y-126666667D02*
X158545180Y-126733333D01*
X158545180Y-126733333D02*
X158545180Y-127000000D01*
X158545180Y-127000000D02*
X159545180Y-127000000D01*
X159545180Y-127000000D02*
X159545180Y-126766667D01*
X159545180Y-126766667D02*
X159497561Y-126700000D01*
X159497561Y-126700000D02*
X159449942Y-126666667D01*
X159449942Y-126666667D02*
X159354704Y-126633333D01*
X159354704Y-126633333D02*
X159259466Y-126633333D01*
X159259466Y-126633333D02*
X159164228Y-126666667D01*
X159164228Y-126666667D02*
X159116609Y-126700000D01*
X159116609Y-126700000D02*
X159068990Y-126766667D01*
X159068990Y-126766667D02*
X159068990Y-127000000D01*
X158545180Y-125933333D02*
X158545180Y-126333333D01*
X158545180Y-126133333D02*
X159545180Y-126133333D01*
X159545180Y-126133333D02*
X159402323Y-126200000D01*
X159402323Y-126200000D02*
X159307085Y-126266667D01*
X159307085Y-126266667D02*
X159259466Y-126333333D01*
X159449942Y-125666666D02*
X159497561Y-125633333D01*
X159497561Y-125633333D02*
X159545180Y-125566666D01*
X159545180Y-125566666D02*
X159545180Y-125400000D01*
X159545180Y-125400000D02*
X159497561Y-125333333D01*
X159497561Y-125333333D02*
X159449942Y-125300000D01*
X159449942Y-125300000D02*
X159354704Y-125266666D01*
X159354704Y-125266666D02*
X159259466Y-125266666D01*
X159259466Y-125266666D02*
X159116609Y-125300000D01*
X159116609Y-125300000D02*
X158545180Y-125700000D01*
X158545180Y-125700000D02*
X158545180Y-125266666D01*
X152045180Y-119366666D02*
X153045180Y-119366666D01*
X153045180Y-119366666D02*
X153045180Y-119099999D01*
X153045180Y-119099999D02*
X152997561Y-119033333D01*
X152997561Y-119033333D02*
X152949942Y-118999999D01*
X152949942Y-118999999D02*
X152854704Y-118966666D01*
X152854704Y-118966666D02*
X152711847Y-118966666D01*
X152711847Y-118966666D02*
X152616609Y-118999999D01*
X152616609Y-118999999D02*
X152568990Y-119033333D01*
X152568990Y-119033333D02*
X152521371Y-119099999D01*
X152521371Y-119099999D02*
X152521371Y-119366666D01*
X152568990Y-118433333D02*
X152521371Y-118333333D01*
X152521371Y-118333333D02*
X152473752Y-118299999D01*
X152473752Y-118299999D02*
X152378514Y-118266666D01*
X152378514Y-118266666D02*
X152235657Y-118266666D01*
X152235657Y-118266666D02*
X152140419Y-118299999D01*
X152140419Y-118299999D02*
X152092800Y-118333333D01*
X152092800Y-118333333D02*
X152045180Y-118399999D01*
X152045180Y-118399999D02*
X152045180Y-118666666D01*
X152045180Y-118666666D02*
X153045180Y-118666666D01*
X153045180Y-118666666D02*
X153045180Y-118433333D01*
X153045180Y-118433333D02*
X152997561Y-118366666D01*
X152997561Y-118366666D02*
X152949942Y-118333333D01*
X152949942Y-118333333D02*
X152854704Y-118299999D01*
X152854704Y-118299999D02*
X152759466Y-118299999D01*
X152759466Y-118299999D02*
X152664228Y-118333333D01*
X152664228Y-118333333D02*
X152616609Y-118366666D01*
X152616609Y-118366666D02*
X152568990Y-118433333D01*
X152568990Y-118433333D02*
X152568990Y-118666666D01*
X152711847Y-117666666D02*
X152045180Y-117666666D01*
X153092800Y-117833333D02*
X152378514Y-117999999D01*
X152378514Y-117999999D02*
X152378514Y-117566666D01*
X152045180Y-121866666D02*
X153045180Y-121866666D01*
X153045180Y-121866666D02*
X153045180Y-121599999D01*
X153045180Y-121599999D02*
X152997561Y-121533333D01*
X152997561Y-121533333D02*
X152949942Y-121499999D01*
X152949942Y-121499999D02*
X152854704Y-121466666D01*
X152854704Y-121466666D02*
X152711847Y-121466666D01*
X152711847Y-121466666D02*
X152616609Y-121499999D01*
X152616609Y-121499999D02*
X152568990Y-121533333D01*
X152568990Y-121533333D02*
X152521371Y-121599999D01*
X152521371Y-121599999D02*
X152521371Y-121866666D01*
X152568990Y-120933333D02*
X152521371Y-120833333D01*
X152521371Y-120833333D02*
X152473752Y-120799999D01*
X152473752Y-120799999D02*
X152378514Y-120766666D01*
X152378514Y-120766666D02*
X152235657Y-120766666D01*
X152235657Y-120766666D02*
X152140419Y-120799999D01*
X152140419Y-120799999D02*
X152092800Y-120833333D01*
X152092800Y-120833333D02*
X152045180Y-120899999D01*
X152045180Y-120899999D02*
X152045180Y-121166666D01*
X152045180Y-121166666D02*
X153045180Y-121166666D01*
X153045180Y-121166666D02*
X153045180Y-120933333D01*
X153045180Y-120933333D02*
X152997561Y-120866666D01*
X152997561Y-120866666D02*
X152949942Y-120833333D01*
X152949942Y-120833333D02*
X152854704Y-120799999D01*
X152854704Y-120799999D02*
X152759466Y-120799999D01*
X152759466Y-120799999D02*
X152664228Y-120833333D01*
X152664228Y-120833333D02*
X152616609Y-120866666D01*
X152616609Y-120866666D02*
X152568990Y-120933333D01*
X152568990Y-120933333D02*
X152568990Y-121166666D01*
X153045180Y-120133333D02*
X153045180Y-120466666D01*
X153045180Y-120466666D02*
X152568990Y-120499999D01*
X152568990Y-120499999D02*
X152616609Y-120466666D01*
X152616609Y-120466666D02*
X152664228Y-120399999D01*
X152664228Y-120399999D02*
X152664228Y-120233333D01*
X152664228Y-120233333D02*
X152616609Y-120166666D01*
X152616609Y-120166666D02*
X152568990Y-120133333D01*
X152568990Y-120133333D02*
X152473752Y-120099999D01*
X152473752Y-120099999D02*
X152235657Y-120099999D01*
X152235657Y-120099999D02*
X152140419Y-120133333D01*
X152140419Y-120133333D02*
X152092800Y-120166666D01*
X152092800Y-120166666D02*
X152045180Y-120233333D01*
X152045180Y-120233333D02*
X152045180Y-120399999D01*
X152045180Y-120399999D02*
X152092800Y-120466666D01*
X152092800Y-120466666D02*
X152140419Y-120499999D01*
X145333333Y-90635522D02*
X145233333Y-90683141D01*
X145233333Y-90683141D02*
X145066667Y-90683141D01*
X145066667Y-90683141D02*
X145000000Y-90635522D01*
X145000000Y-90635522D02*
X144966667Y-90587902D01*
X144966667Y-90587902D02*
X144933333Y-90492664D01*
X144933333Y-90492664D02*
X144933333Y-90397426D01*
X144933333Y-90397426D02*
X144966667Y-90302188D01*
X144966667Y-90302188D02*
X145000000Y-90254569D01*
X145000000Y-90254569D02*
X145066667Y-90206950D01*
X145066667Y-90206950D02*
X145200000Y-90159331D01*
X145200000Y-90159331D02*
X145266667Y-90111712D01*
X145266667Y-90111712D02*
X145300000Y-90064093D01*
X145300000Y-90064093D02*
X145333333Y-89968855D01*
X145333333Y-89968855D02*
X145333333Y-89873617D01*
X145333333Y-89873617D02*
X145300000Y-89778379D01*
X145300000Y-89778379D02*
X145266667Y-89730760D01*
X145266667Y-89730760D02*
X145200000Y-89683141D01*
X145200000Y-89683141D02*
X145033333Y-89683141D01*
X145033333Y-89683141D02*
X144933333Y-89730760D01*
X144233333Y-90587902D02*
X144266666Y-90635522D01*
X144266666Y-90635522D02*
X144366666Y-90683141D01*
X144366666Y-90683141D02*
X144433333Y-90683141D01*
X144433333Y-90683141D02*
X144533333Y-90635522D01*
X144533333Y-90635522D02*
X144600000Y-90540283D01*
X144600000Y-90540283D02*
X144633333Y-90445045D01*
X144633333Y-90445045D02*
X144666666Y-90254569D01*
X144666666Y-90254569D02*
X144666666Y-90111712D01*
X144666666Y-90111712D02*
X144633333Y-89921236D01*
X144633333Y-89921236D02*
X144600000Y-89825998D01*
X144600000Y-89825998D02*
X144533333Y-89730760D01*
X144533333Y-89730760D02*
X144433333Y-89683141D01*
X144433333Y-89683141D02*
X144366666Y-89683141D01*
X144366666Y-89683141D02*
X144266666Y-89730760D01*
X144266666Y-89730760D02*
X144233333Y-89778379D01*
X143600000Y-90683141D02*
X143933333Y-90683141D01*
X143933333Y-90683141D02*
X143933333Y-89683141D01*
X168460096Y-116190475D02*
X169460096Y-116190475D01*
X169460096Y-116190475D02*
X169460096Y-115809523D01*
X169460096Y-115809523D02*
X169412477Y-115714285D01*
X169412477Y-115714285D02*
X169364858Y-115666666D01*
X169364858Y-115666666D02*
X169269620Y-115619047D01*
X169269620Y-115619047D02*
X169126763Y-115619047D01*
X169126763Y-115619047D02*
X169031525Y-115666666D01*
X169031525Y-115666666D02*
X168983906Y-115714285D01*
X168983906Y-115714285D02*
X168936287Y-115809523D01*
X168936287Y-115809523D02*
X168936287Y-116190475D01*
X168460096Y-115190475D02*
X169460096Y-115190475D01*
X169460096Y-115190475D02*
X168460096Y-114619047D01*
X168460096Y-114619047D02*
X169460096Y-114619047D01*
X169460096Y-114238094D02*
X169460096Y-113571428D01*
X169460096Y-113571428D02*
X168460096Y-113999999D01*
X168460096Y-112666666D02*
X168460096Y-113238094D01*
X168460096Y-112952380D02*
X169460096Y-112952380D01*
X169460096Y-112952380D02*
X169317239Y-113047618D01*
X169317239Y-113047618D02*
X169222001Y-113142856D01*
X169222001Y-113142856D02*
X169174382Y-113238094D01*
X169460096Y-111809523D02*
X169460096Y-111999999D01*
X169460096Y-111999999D02*
X169412477Y-112095237D01*
X169412477Y-112095237D02*
X169364858Y-112142856D01*
X169364858Y-112142856D02*
X169222001Y-112238094D01*
X169222001Y-112238094D02*
X169031525Y-112285713D01*
X169031525Y-112285713D02*
X168650573Y-112285713D01*
X168650573Y-112285713D02*
X168555335Y-112238094D01*
X168555335Y-112238094D02*
X168507716Y-112190475D01*
X168507716Y-112190475D02*
X168460096Y-112095237D01*
X168460096Y-112095237D02*
X168460096Y-111904761D01*
X168460096Y-111904761D02*
X168507716Y-111809523D01*
X168507716Y-111809523D02*
X168555335Y-111761904D01*
X168555335Y-111761904D02*
X168650573Y-111714285D01*
X168650573Y-111714285D02*
X168888668Y-111714285D01*
X168888668Y-111714285D02*
X168983906Y-111761904D01*
X168983906Y-111761904D02*
X169031525Y-111809523D01*
X169031525Y-111809523D02*
X169079144Y-111904761D01*
X169079144Y-111904761D02*
X169079144Y-112095237D01*
X169079144Y-112095237D02*
X169031525Y-112190475D01*
X169031525Y-112190475D02*
X168983906Y-112238094D01*
X168983906Y-112238094D02*
X168888668Y-112285713D01*
X169460096Y-111095237D02*
X169460096Y-110999999D01*
X169460096Y-110999999D02*
X169412477Y-110904761D01*
X169412477Y-110904761D02*
X169364858Y-110857142D01*
X169364858Y-110857142D02*
X169269620Y-110809523D01*
X169269620Y-110809523D02*
X169079144Y-110761904D01*
X169079144Y-110761904D02*
X168841049Y-110761904D01*
X168841049Y-110761904D02*
X168650573Y-110809523D01*
X168650573Y-110809523D02*
X168555335Y-110857142D01*
X168555335Y-110857142D02*
X168507716Y-110904761D01*
X168507716Y-110904761D02*
X168460096Y-110999999D01*
X168460096Y-110999999D02*
X168460096Y-111095237D01*
X168460096Y-111095237D02*
X168507716Y-111190475D01*
X168507716Y-111190475D02*
X168555335Y-111238094D01*
X168555335Y-111238094D02*
X168650573Y-111285713D01*
X168650573Y-111285713D02*
X168841049Y-111333332D01*
X168841049Y-111333332D02*
X169079144Y-111333332D01*
X169079144Y-111333332D02*
X169269620Y-111285713D01*
X169269620Y-111285713D02*
X169364858Y-111238094D01*
X169364858Y-111238094D02*
X169412477Y-111190475D01*
X169412477Y-111190475D02*
X169460096Y-111095237D01*
X168841049Y-110333332D02*
X168841049Y-109571428D01*
X168507716Y-109142856D02*
X168460096Y-108999999D01*
X168460096Y-108999999D02*
X168460096Y-108761904D01*
X168460096Y-108761904D02*
X168507716Y-108666666D01*
X168507716Y-108666666D02*
X168555335Y-108619047D01*
X168555335Y-108619047D02*
X168650573Y-108571428D01*
X168650573Y-108571428D02*
X168745811Y-108571428D01*
X168745811Y-108571428D02*
X168841049Y-108619047D01*
X168841049Y-108619047D02*
X168888668Y-108666666D01*
X168888668Y-108666666D02*
X168936287Y-108761904D01*
X168936287Y-108761904D02*
X168983906Y-108952380D01*
X168983906Y-108952380D02*
X169031525Y-109047618D01*
X169031525Y-109047618D02*
X169079144Y-109095237D01*
X169079144Y-109095237D02*
X169174382Y-109142856D01*
X169174382Y-109142856D02*
X169269620Y-109142856D01*
X169269620Y-109142856D02*
X169364858Y-109095237D01*
X169364858Y-109095237D02*
X169412477Y-109047618D01*
X169412477Y-109047618D02*
X169460096Y-108952380D01*
X169460096Y-108952380D02*
X169460096Y-108714285D01*
X169460096Y-108714285D02*
X169412477Y-108571428D01*
X169460096Y-108285713D02*
X169460096Y-107714285D01*
X168460096Y-107999999D02*
X169460096Y-107999999D01*
X168460096Y-107380951D02*
X169460096Y-107380951D01*
X169460096Y-107380951D02*
X168745811Y-107047618D01*
X168745811Y-107047618D02*
X169460096Y-106714285D01*
X169460096Y-106714285D02*
X168460096Y-106714285D01*
X169460096Y-106333332D02*
X169460096Y-105714285D01*
X169460096Y-105714285D02*
X169079144Y-106047618D01*
X169079144Y-106047618D02*
X169079144Y-105904761D01*
X169079144Y-105904761D02*
X169031525Y-105809523D01*
X169031525Y-105809523D02*
X168983906Y-105761904D01*
X168983906Y-105761904D02*
X168888668Y-105714285D01*
X168888668Y-105714285D02*
X168650573Y-105714285D01*
X168650573Y-105714285D02*
X168555335Y-105761904D01*
X168555335Y-105761904D02*
X168507716Y-105809523D01*
X168507716Y-105809523D02*
X168460096Y-105904761D01*
X168460096Y-105904761D02*
X168460096Y-106190475D01*
X168460096Y-106190475D02*
X168507716Y-106285713D01*
X168507716Y-106285713D02*
X168555335Y-106333332D01*
X169364858Y-105333332D02*
X169412477Y-105285713D01*
X169412477Y-105285713D02*
X169460096Y-105190475D01*
X169460096Y-105190475D02*
X169460096Y-104952380D01*
X169460096Y-104952380D02*
X169412477Y-104857142D01*
X169412477Y-104857142D02*
X169364858Y-104809523D01*
X169364858Y-104809523D02*
X169269620Y-104761904D01*
X169269620Y-104761904D02*
X169174382Y-104761904D01*
X169174382Y-104761904D02*
X169031525Y-104809523D01*
X169031525Y-104809523D02*
X168460096Y-105380951D01*
X168460096Y-105380951D02*
X168460096Y-104761904D01*
X167373962Y-122095238D02*
X167326343Y-121952381D01*
X167326343Y-121952381D02*
X167278724Y-121904762D01*
X167278724Y-121904762D02*
X167183486Y-121857143D01*
X167183486Y-121857143D02*
X167040629Y-121857143D01*
X167040629Y-121857143D02*
X166945391Y-121904762D01*
X166945391Y-121904762D02*
X166897772Y-121952381D01*
X166897772Y-121952381D02*
X166850152Y-122047619D01*
X166850152Y-122047619D02*
X166850152Y-122428571D01*
X166850152Y-122428571D02*
X167850152Y-122428571D01*
X167850152Y-122428571D02*
X167850152Y-122095238D01*
X167850152Y-122095238D02*
X167802533Y-122000000D01*
X167802533Y-122000000D02*
X167754914Y-121952381D01*
X167754914Y-121952381D02*
X167659676Y-121904762D01*
X167659676Y-121904762D02*
X167564438Y-121904762D01*
X167564438Y-121904762D02*
X167469200Y-121952381D01*
X167469200Y-121952381D02*
X167421581Y-122000000D01*
X167421581Y-122000000D02*
X167373962Y-122095238D01*
X167373962Y-122095238D02*
X167373962Y-122428571D01*
X166850152Y-121000000D02*
X167373962Y-121000000D01*
X167373962Y-121000000D02*
X167469200Y-121047619D01*
X167469200Y-121047619D02*
X167516819Y-121142857D01*
X167516819Y-121142857D02*
X167516819Y-121333333D01*
X167516819Y-121333333D02*
X167469200Y-121428571D01*
X166897772Y-121000000D02*
X166850152Y-121095238D01*
X166850152Y-121095238D02*
X166850152Y-121333333D01*
X166850152Y-121333333D02*
X166897772Y-121428571D01*
X166897772Y-121428571D02*
X166993010Y-121476190D01*
X166993010Y-121476190D02*
X167088248Y-121476190D01*
X167088248Y-121476190D02*
X167183486Y-121428571D01*
X167183486Y-121428571D02*
X167231105Y-121333333D01*
X167231105Y-121333333D02*
X167231105Y-121095238D01*
X167231105Y-121095238D02*
X167278724Y-121000000D01*
X166850152Y-120523809D02*
X167516819Y-120523809D01*
X167326343Y-120523809D02*
X167421581Y-120476190D01*
X167421581Y-120476190D02*
X167469200Y-120428571D01*
X167469200Y-120428571D02*
X167516819Y-120333333D01*
X167516819Y-120333333D02*
X167516819Y-120238095D01*
X166850152Y-119761904D02*
X166897772Y-119857142D01*
X166897772Y-119857142D02*
X166945391Y-119904761D01*
X166945391Y-119904761D02*
X167040629Y-119952380D01*
X167040629Y-119952380D02*
X167326343Y-119952380D01*
X167326343Y-119952380D02*
X167421581Y-119904761D01*
X167421581Y-119904761D02*
X167469200Y-119857142D01*
X167469200Y-119857142D02*
X167516819Y-119761904D01*
X167516819Y-119761904D02*
X167516819Y-119619047D01*
X167516819Y-119619047D02*
X167469200Y-119523809D01*
X167469200Y-119523809D02*
X167421581Y-119476190D01*
X167421581Y-119476190D02*
X167326343Y-119428571D01*
X167326343Y-119428571D02*
X167040629Y-119428571D01*
X167040629Y-119428571D02*
X166945391Y-119476190D01*
X166945391Y-119476190D02*
X166897772Y-119523809D01*
X166897772Y-119523809D02*
X166850152Y-119619047D01*
X166850152Y-119619047D02*
X166850152Y-119761904D01*
X166850152Y-118999999D02*
X167516819Y-118999999D01*
X167421581Y-118999999D02*
X167469200Y-118952380D01*
X167469200Y-118952380D02*
X167516819Y-118857142D01*
X167516819Y-118857142D02*
X167516819Y-118714285D01*
X167516819Y-118714285D02*
X167469200Y-118619047D01*
X167469200Y-118619047D02*
X167373962Y-118571428D01*
X167373962Y-118571428D02*
X166850152Y-118571428D01*
X167373962Y-118571428D02*
X167469200Y-118523809D01*
X167469200Y-118523809D02*
X167516819Y-118428571D01*
X167516819Y-118428571D02*
X167516819Y-118285714D01*
X167516819Y-118285714D02*
X167469200Y-118190475D01*
X167469200Y-118190475D02*
X167373962Y-118142856D01*
X167373962Y-118142856D02*
X166850152Y-118142856D01*
X166897772Y-117285714D02*
X166850152Y-117380952D01*
X166850152Y-117380952D02*
X166850152Y-117571428D01*
X166850152Y-117571428D02*
X166897772Y-117666666D01*
X166897772Y-117666666D02*
X166993010Y-117714285D01*
X166993010Y-117714285D02*
X167373962Y-117714285D01*
X167373962Y-117714285D02*
X167469200Y-117666666D01*
X167469200Y-117666666D02*
X167516819Y-117571428D01*
X167516819Y-117571428D02*
X167516819Y-117380952D01*
X167516819Y-117380952D02*
X167469200Y-117285714D01*
X167469200Y-117285714D02*
X167373962Y-117238095D01*
X167373962Y-117238095D02*
X167278724Y-117238095D01*
X167278724Y-117238095D02*
X167183486Y-117714285D01*
X167516819Y-116952380D02*
X167516819Y-116571428D01*
X167850152Y-116809523D02*
X166993010Y-116809523D01*
X166993010Y-116809523D02*
X166897772Y-116761904D01*
X166897772Y-116761904D02*
X166850152Y-116666666D01*
X166850152Y-116666666D02*
X166850152Y-116571428D01*
X166897772Y-115857142D02*
X166850152Y-115952380D01*
X166850152Y-115952380D02*
X166850152Y-116142856D01*
X166850152Y-116142856D02*
X166897772Y-116238094D01*
X166897772Y-116238094D02*
X166993010Y-116285713D01*
X166993010Y-116285713D02*
X167373962Y-116285713D01*
X167373962Y-116285713D02*
X167469200Y-116238094D01*
X167469200Y-116238094D02*
X167516819Y-116142856D01*
X167516819Y-116142856D02*
X167516819Y-115952380D01*
X167516819Y-115952380D02*
X167469200Y-115857142D01*
X167469200Y-115857142D02*
X167373962Y-115809523D01*
X167373962Y-115809523D02*
X167278724Y-115809523D01*
X167278724Y-115809523D02*
X167183486Y-116285713D01*
X166850152Y-115380951D02*
X167516819Y-115380951D01*
X167326343Y-115380951D02*
X167421581Y-115333332D01*
X167421581Y-115333332D02*
X167469200Y-115285713D01*
X167469200Y-115285713D02*
X167516819Y-115190475D01*
X167516819Y-115190475D02*
X167516819Y-115095237D01*
X167231105Y-114761903D02*
X167231105Y-113999999D01*
X166850152Y-113523808D02*
X167850152Y-113523808D01*
X166850152Y-113047618D02*
X167850152Y-113047618D01*
X167850152Y-113047618D02*
X167135867Y-112714285D01*
X167135867Y-112714285D02*
X167850152Y-112380952D01*
X167850152Y-112380952D02*
X166850152Y-112380952D01*
X167850152Y-111904761D02*
X167040629Y-111904761D01*
X167040629Y-111904761D02*
X166945391Y-111857142D01*
X166945391Y-111857142D02*
X166897772Y-111809523D01*
X166897772Y-111809523D02*
X166850152Y-111714285D01*
X166850152Y-111714285D02*
X166850152Y-111523809D01*
X166850152Y-111523809D02*
X166897772Y-111428571D01*
X166897772Y-111428571D02*
X166945391Y-111380952D01*
X166945391Y-111380952D02*
X167040629Y-111333333D01*
X167040629Y-111333333D02*
X167850152Y-111333333D01*
X166850152Y-110095237D02*
X167850152Y-110095237D01*
X167516819Y-109619047D02*
X166850152Y-109619047D01*
X167421581Y-109619047D02*
X167469200Y-109571428D01*
X167469200Y-109571428D02*
X167516819Y-109476190D01*
X167516819Y-109476190D02*
X167516819Y-109333333D01*
X167516819Y-109333333D02*
X167469200Y-109238095D01*
X167469200Y-109238095D02*
X167373962Y-109190476D01*
X167373962Y-109190476D02*
X166850152Y-109190476D01*
X167516819Y-108857142D02*
X167516819Y-108476190D01*
X167850152Y-108714285D02*
X166993010Y-108714285D01*
X166993010Y-108714285D02*
X166897772Y-108666666D01*
X166897772Y-108666666D02*
X166850152Y-108571428D01*
X166850152Y-108571428D02*
X166850152Y-108476190D01*
X166897772Y-107761904D02*
X166850152Y-107857142D01*
X166850152Y-107857142D02*
X166850152Y-108047618D01*
X166850152Y-108047618D02*
X166897772Y-108142856D01*
X166897772Y-108142856D02*
X166993010Y-108190475D01*
X166993010Y-108190475D02*
X167373962Y-108190475D01*
X167373962Y-108190475D02*
X167469200Y-108142856D01*
X167469200Y-108142856D02*
X167516819Y-108047618D01*
X167516819Y-108047618D02*
X167516819Y-107857142D01*
X167516819Y-107857142D02*
X167469200Y-107761904D01*
X167469200Y-107761904D02*
X167373962Y-107714285D01*
X167373962Y-107714285D02*
X167278724Y-107714285D01*
X167278724Y-107714285D02*
X167183486Y-108190475D01*
X167516819Y-106857142D02*
X166707295Y-106857142D01*
X166707295Y-106857142D02*
X166612057Y-106904761D01*
X166612057Y-106904761D02*
X166564438Y-106952380D01*
X166564438Y-106952380D02*
X166516819Y-107047618D01*
X166516819Y-107047618D02*
X166516819Y-107190475D01*
X166516819Y-107190475D02*
X166564438Y-107285713D01*
X166897772Y-106857142D02*
X166850152Y-106952380D01*
X166850152Y-106952380D02*
X166850152Y-107142856D01*
X166850152Y-107142856D02*
X166897772Y-107238094D01*
X166897772Y-107238094D02*
X166945391Y-107285713D01*
X166945391Y-107285713D02*
X167040629Y-107333332D01*
X167040629Y-107333332D02*
X167326343Y-107333332D01*
X167326343Y-107333332D02*
X167421581Y-107285713D01*
X167421581Y-107285713D02*
X167469200Y-107238094D01*
X167469200Y-107238094D02*
X167516819Y-107142856D01*
X167516819Y-107142856D02*
X167516819Y-106952380D01*
X167516819Y-106952380D02*
X167469200Y-106857142D01*
X166850152Y-106380951D02*
X167516819Y-106380951D01*
X167326343Y-106380951D02*
X167421581Y-106333332D01*
X167421581Y-106333332D02*
X167469200Y-106285713D01*
X167469200Y-106285713D02*
X167516819Y-106190475D01*
X167516819Y-106190475D02*
X167516819Y-106095237D01*
X166850152Y-105333332D02*
X167373962Y-105333332D01*
X167373962Y-105333332D02*
X167469200Y-105380951D01*
X167469200Y-105380951D02*
X167516819Y-105476189D01*
X167516819Y-105476189D02*
X167516819Y-105666665D01*
X167516819Y-105666665D02*
X167469200Y-105761903D01*
X166897772Y-105333332D02*
X166850152Y-105428570D01*
X166850152Y-105428570D02*
X166850152Y-105666665D01*
X166850152Y-105666665D02*
X166897772Y-105761903D01*
X166897772Y-105761903D02*
X166993010Y-105809522D01*
X166993010Y-105809522D02*
X167088248Y-105809522D01*
X167088248Y-105809522D02*
X167183486Y-105761903D01*
X167183486Y-105761903D02*
X167231105Y-105666665D01*
X167231105Y-105666665D02*
X167231105Y-105428570D01*
X167231105Y-105428570D02*
X167278724Y-105333332D01*
X167516819Y-104999998D02*
X167516819Y-104619046D01*
X167850152Y-104857141D02*
X166993010Y-104857141D01*
X166993010Y-104857141D02*
X166897772Y-104809522D01*
X166897772Y-104809522D02*
X166850152Y-104714284D01*
X166850152Y-104714284D02*
X166850152Y-104619046D01*
X166850152Y-104285712D02*
X167516819Y-104285712D01*
X167850152Y-104285712D02*
X167802533Y-104333331D01*
X167802533Y-104333331D02*
X167754914Y-104285712D01*
X167754914Y-104285712D02*
X167802533Y-104238093D01*
X167802533Y-104238093D02*
X167850152Y-104285712D01*
X167850152Y-104285712D02*
X167754914Y-104285712D01*
X166850152Y-103666665D02*
X166897772Y-103761903D01*
X166897772Y-103761903D02*
X166945391Y-103809522D01*
X166945391Y-103809522D02*
X167040629Y-103857141D01*
X167040629Y-103857141D02*
X167326343Y-103857141D01*
X167326343Y-103857141D02*
X167421581Y-103809522D01*
X167421581Y-103809522D02*
X167469200Y-103761903D01*
X167469200Y-103761903D02*
X167516819Y-103666665D01*
X167516819Y-103666665D02*
X167516819Y-103523808D01*
X167516819Y-103523808D02*
X167469200Y-103428570D01*
X167469200Y-103428570D02*
X167421581Y-103380951D01*
X167421581Y-103380951D02*
X167326343Y-103333332D01*
X167326343Y-103333332D02*
X167040629Y-103333332D01*
X167040629Y-103333332D02*
X166945391Y-103380951D01*
X166945391Y-103380951D02*
X166897772Y-103428570D01*
X166897772Y-103428570D02*
X166850152Y-103523808D01*
X166850152Y-103523808D02*
X166850152Y-103666665D01*
X167516819Y-102904760D02*
X166850152Y-102904760D01*
X167421581Y-102904760D02*
X167469200Y-102857141D01*
X167469200Y-102857141D02*
X167516819Y-102761903D01*
X167516819Y-102761903D02*
X167516819Y-102619046D01*
X167516819Y-102619046D02*
X167469200Y-102523808D01*
X167469200Y-102523808D02*
X167373962Y-102476189D01*
X167373962Y-102476189D02*
X166850152Y-102476189D01*
X167516819Y-101333331D02*
X166850152Y-101095236D01*
X166850152Y-101095236D02*
X167516819Y-100857141D01*
X166850152Y-99952379D02*
X166850152Y-100523807D01*
X166850152Y-100238093D02*
X167850152Y-100238093D01*
X167850152Y-100238093D02*
X167707295Y-100333331D01*
X167707295Y-100333331D02*
X167612057Y-100428569D01*
X167612057Y-100428569D02*
X167564438Y-100523807D01*
X166945391Y-99523807D02*
X166897772Y-99476188D01*
X166897772Y-99476188D02*
X166850152Y-99523807D01*
X166850152Y-99523807D02*
X166897772Y-99571426D01*
X166897772Y-99571426D02*
X166945391Y-99523807D01*
X166945391Y-99523807D02*
X166850152Y-99523807D01*
X167850152Y-98857141D02*
X167850152Y-98761903D01*
X167850152Y-98761903D02*
X167802533Y-98666665D01*
X167802533Y-98666665D02*
X167754914Y-98619046D01*
X167754914Y-98619046D02*
X167659676Y-98571427D01*
X167659676Y-98571427D02*
X167469200Y-98523808D01*
X167469200Y-98523808D02*
X167231105Y-98523808D01*
X167231105Y-98523808D02*
X167040629Y-98571427D01*
X167040629Y-98571427D02*
X166945391Y-98619046D01*
X166945391Y-98619046D02*
X166897772Y-98666665D01*
X166897772Y-98666665D02*
X166850152Y-98761903D01*
X166850152Y-98761903D02*
X166850152Y-98857141D01*
X166850152Y-98857141D02*
X166897772Y-98952379D01*
X166897772Y-98952379D02*
X166945391Y-98999998D01*
X166945391Y-98999998D02*
X167040629Y-99047617D01*
X167040629Y-99047617D02*
X167231105Y-99095236D01*
X167231105Y-99095236D02*
X167469200Y-99095236D01*
X167469200Y-99095236D02*
X167659676Y-99047617D01*
X167659676Y-99047617D02*
X167754914Y-98999998D01*
X167754914Y-98999998D02*
X167802533Y-98952379D01*
X167802533Y-98952379D02*
X167850152Y-98857141D01*
X166240208Y-121404762D02*
X165525923Y-121404762D01*
X165525923Y-121404762D02*
X165383066Y-121452381D01*
X165383066Y-121452381D02*
X165287828Y-121547619D01*
X165287828Y-121547619D02*
X165240208Y-121690476D01*
X165240208Y-121690476D02*
X165240208Y-121785714D01*
X165240208Y-120500000D02*
X165764018Y-120500000D01*
X165764018Y-120500000D02*
X165859256Y-120547619D01*
X165859256Y-120547619D02*
X165906875Y-120642857D01*
X165906875Y-120642857D02*
X165906875Y-120833333D01*
X165906875Y-120833333D02*
X165859256Y-120928571D01*
X165287828Y-120500000D02*
X165240208Y-120595238D01*
X165240208Y-120595238D02*
X165240208Y-120833333D01*
X165240208Y-120833333D02*
X165287828Y-120928571D01*
X165287828Y-120928571D02*
X165383066Y-120976190D01*
X165383066Y-120976190D02*
X165478304Y-120976190D01*
X165478304Y-120976190D02*
X165573542Y-120928571D01*
X165573542Y-120928571D02*
X165621161Y-120833333D01*
X165621161Y-120833333D02*
X165621161Y-120595238D01*
X165621161Y-120595238D02*
X165668780Y-120500000D01*
X165287828Y-119595238D02*
X165240208Y-119690476D01*
X165240208Y-119690476D02*
X165240208Y-119880952D01*
X165240208Y-119880952D02*
X165287828Y-119976190D01*
X165287828Y-119976190D02*
X165335447Y-120023809D01*
X165335447Y-120023809D02*
X165430685Y-120071428D01*
X165430685Y-120071428D02*
X165716399Y-120071428D01*
X165716399Y-120071428D02*
X165811637Y-120023809D01*
X165811637Y-120023809D02*
X165859256Y-119976190D01*
X165859256Y-119976190D02*
X165906875Y-119880952D01*
X165906875Y-119880952D02*
X165906875Y-119690476D01*
X165906875Y-119690476D02*
X165859256Y-119595238D01*
X165240208Y-119166666D02*
X166240208Y-119166666D01*
X165621161Y-119071428D02*
X165240208Y-118785714D01*
X165906875Y-118785714D02*
X165525923Y-119166666D01*
X165335447Y-117023809D02*
X165287828Y-117071428D01*
X165287828Y-117071428D02*
X165240208Y-117214285D01*
X165240208Y-117214285D02*
X165240208Y-117309523D01*
X165240208Y-117309523D02*
X165287828Y-117452380D01*
X165287828Y-117452380D02*
X165383066Y-117547618D01*
X165383066Y-117547618D02*
X165478304Y-117595237D01*
X165478304Y-117595237D02*
X165668780Y-117642856D01*
X165668780Y-117642856D02*
X165811637Y-117642856D01*
X165811637Y-117642856D02*
X166002113Y-117595237D01*
X166002113Y-117595237D02*
X166097351Y-117547618D01*
X166097351Y-117547618D02*
X166192589Y-117452380D01*
X166192589Y-117452380D02*
X166240208Y-117309523D01*
X166240208Y-117309523D02*
X166240208Y-117214285D01*
X166240208Y-117214285D02*
X166192589Y-117071428D01*
X166192589Y-117071428D02*
X166144970Y-117023809D01*
X165906875Y-116166666D02*
X165240208Y-116166666D01*
X165906875Y-116595237D02*
X165383066Y-116595237D01*
X165383066Y-116595237D02*
X165287828Y-116547618D01*
X165287828Y-116547618D02*
X165240208Y-116452380D01*
X165240208Y-116452380D02*
X165240208Y-116309523D01*
X165240208Y-116309523D02*
X165287828Y-116214285D01*
X165287828Y-116214285D02*
X165335447Y-116166666D01*
X165906875Y-115690475D02*
X165240208Y-115690475D01*
X165811637Y-115690475D02*
X165859256Y-115642856D01*
X165859256Y-115642856D02*
X165906875Y-115547618D01*
X165906875Y-115547618D02*
X165906875Y-115404761D01*
X165906875Y-115404761D02*
X165859256Y-115309523D01*
X165859256Y-115309523D02*
X165764018Y-115261904D01*
X165764018Y-115261904D02*
X165240208Y-115261904D01*
X165906875Y-114785713D02*
X165240208Y-114785713D01*
X165811637Y-114785713D02*
X165859256Y-114738094D01*
X165859256Y-114738094D02*
X165906875Y-114642856D01*
X165906875Y-114642856D02*
X165906875Y-114499999D01*
X165906875Y-114499999D02*
X165859256Y-114404761D01*
X165859256Y-114404761D02*
X165764018Y-114357142D01*
X165764018Y-114357142D02*
X165240208Y-114357142D01*
X165240208Y-113880951D02*
X165906875Y-113880951D01*
X166240208Y-113880951D02*
X166192589Y-113928570D01*
X166192589Y-113928570D02*
X166144970Y-113880951D01*
X166144970Y-113880951D02*
X166192589Y-113833332D01*
X166192589Y-113833332D02*
X166240208Y-113880951D01*
X166240208Y-113880951D02*
X166144970Y-113880951D01*
X165906875Y-113404761D02*
X165240208Y-113404761D01*
X165811637Y-113404761D02*
X165859256Y-113357142D01*
X165859256Y-113357142D02*
X165906875Y-113261904D01*
X165906875Y-113261904D02*
X165906875Y-113119047D01*
X165906875Y-113119047D02*
X165859256Y-113023809D01*
X165859256Y-113023809D02*
X165764018Y-112976190D01*
X165764018Y-112976190D02*
X165240208Y-112976190D01*
X165906875Y-112071428D02*
X165097351Y-112071428D01*
X165097351Y-112071428D02*
X165002113Y-112119047D01*
X165002113Y-112119047D02*
X164954494Y-112166666D01*
X164954494Y-112166666D02*
X164906875Y-112261904D01*
X164906875Y-112261904D02*
X164906875Y-112404761D01*
X164906875Y-112404761D02*
X164954494Y-112499999D01*
X165287828Y-112071428D02*
X165240208Y-112166666D01*
X165240208Y-112166666D02*
X165240208Y-112357142D01*
X165240208Y-112357142D02*
X165287828Y-112452380D01*
X165287828Y-112452380D02*
X165335447Y-112499999D01*
X165335447Y-112499999D02*
X165430685Y-112547618D01*
X165430685Y-112547618D02*
X165716399Y-112547618D01*
X165716399Y-112547618D02*
X165811637Y-112499999D01*
X165811637Y-112499999D02*
X165859256Y-112452380D01*
X165859256Y-112452380D02*
X165906875Y-112357142D01*
X165906875Y-112357142D02*
X165906875Y-112166666D01*
X165906875Y-112166666D02*
X165859256Y-112071428D01*
X165240208Y-111595237D02*
X166240208Y-111595237D01*
X165240208Y-111166666D02*
X165764018Y-111166666D01*
X165764018Y-111166666D02*
X165859256Y-111214285D01*
X165859256Y-111214285D02*
X165906875Y-111309523D01*
X165906875Y-111309523D02*
X165906875Y-111452380D01*
X165906875Y-111452380D02*
X165859256Y-111547618D01*
X165859256Y-111547618D02*
X165811637Y-111595237D01*
X165240208Y-110261904D02*
X165764018Y-110261904D01*
X165764018Y-110261904D02*
X165859256Y-110309523D01*
X165859256Y-110309523D02*
X165906875Y-110404761D01*
X165906875Y-110404761D02*
X165906875Y-110595237D01*
X165906875Y-110595237D02*
X165859256Y-110690475D01*
X165287828Y-110261904D02*
X165240208Y-110357142D01*
X165240208Y-110357142D02*
X165240208Y-110595237D01*
X165240208Y-110595237D02*
X165287828Y-110690475D01*
X165287828Y-110690475D02*
X165383066Y-110738094D01*
X165383066Y-110738094D02*
X165478304Y-110738094D01*
X165478304Y-110738094D02*
X165573542Y-110690475D01*
X165573542Y-110690475D02*
X165621161Y-110595237D01*
X165621161Y-110595237D02*
X165621161Y-110357142D01*
X165621161Y-110357142D02*
X165668780Y-110261904D01*
X165240208Y-109785713D02*
X165906875Y-109785713D01*
X165811637Y-109785713D02*
X165859256Y-109738094D01*
X165859256Y-109738094D02*
X165906875Y-109642856D01*
X165906875Y-109642856D02*
X165906875Y-109499999D01*
X165906875Y-109499999D02*
X165859256Y-109404761D01*
X165859256Y-109404761D02*
X165764018Y-109357142D01*
X165764018Y-109357142D02*
X165240208Y-109357142D01*
X165764018Y-109357142D02*
X165859256Y-109309523D01*
X165859256Y-109309523D02*
X165906875Y-109214285D01*
X165906875Y-109214285D02*
X165906875Y-109071428D01*
X165906875Y-109071428D02*
X165859256Y-108976189D01*
X165859256Y-108976189D02*
X165764018Y-108928570D01*
X165764018Y-108928570D02*
X165240208Y-108928570D01*
X165621161Y-107690475D02*
X165621161Y-106928571D01*
X166240208Y-105785713D02*
X166240208Y-105166666D01*
X166240208Y-105166666D02*
X165859256Y-105499999D01*
X165859256Y-105499999D02*
X165859256Y-105357142D01*
X165859256Y-105357142D02*
X165811637Y-105261904D01*
X165811637Y-105261904D02*
X165764018Y-105214285D01*
X165764018Y-105214285D02*
X165668780Y-105166666D01*
X165668780Y-105166666D02*
X165430685Y-105166666D01*
X165430685Y-105166666D02*
X165335447Y-105214285D01*
X165335447Y-105214285D02*
X165287828Y-105261904D01*
X165287828Y-105261904D02*
X165240208Y-105357142D01*
X165240208Y-105357142D02*
X165240208Y-105642856D01*
X165240208Y-105642856D02*
X165287828Y-105738094D01*
X165287828Y-105738094D02*
X165335447Y-105785713D01*
X166287828Y-104023809D02*
X165002113Y-104880951D01*
X166240208Y-103785713D02*
X166240208Y-103166666D01*
X166240208Y-103166666D02*
X165859256Y-103499999D01*
X165859256Y-103499999D02*
X165859256Y-103357142D01*
X165859256Y-103357142D02*
X165811637Y-103261904D01*
X165811637Y-103261904D02*
X165764018Y-103214285D01*
X165764018Y-103214285D02*
X165668780Y-103166666D01*
X165668780Y-103166666D02*
X165430685Y-103166666D01*
X165430685Y-103166666D02*
X165335447Y-103214285D01*
X165335447Y-103214285D02*
X165287828Y-103261904D01*
X165287828Y-103261904D02*
X165240208Y-103357142D01*
X165240208Y-103357142D02*
X165240208Y-103642856D01*
X165240208Y-103642856D02*
X165287828Y-103738094D01*
X165287828Y-103738094D02*
X165335447Y-103785713D01*
X165240208Y-102214285D02*
X165240208Y-102785713D01*
X165240208Y-102499999D02*
X166240208Y-102499999D01*
X166240208Y-102499999D02*
X166097351Y-102595237D01*
X166097351Y-102595237D02*
X166002113Y-102690475D01*
X166002113Y-102690475D02*
X165954494Y-102785713D01*
X166287828Y-101071428D02*
X165002113Y-101928570D01*
X166144970Y-100785713D02*
X166192589Y-100738094D01*
X166192589Y-100738094D02*
X166240208Y-100642856D01*
X166240208Y-100642856D02*
X166240208Y-100404761D01*
X166240208Y-100404761D02*
X166192589Y-100309523D01*
X166192589Y-100309523D02*
X166144970Y-100261904D01*
X166144970Y-100261904D02*
X166049732Y-100214285D01*
X166049732Y-100214285D02*
X165954494Y-100214285D01*
X165954494Y-100214285D02*
X165811637Y-100261904D01*
X165811637Y-100261904D02*
X165240208Y-100833332D01*
X165240208Y-100833332D02*
X165240208Y-100214285D01*
X166240208Y-99357142D02*
X166240208Y-99547618D01*
X166240208Y-99547618D02*
X166192589Y-99642856D01*
X166192589Y-99642856D02*
X166144970Y-99690475D01*
X166144970Y-99690475D02*
X166002113Y-99785713D01*
X166002113Y-99785713D02*
X165811637Y-99833332D01*
X165811637Y-99833332D02*
X165430685Y-99833332D01*
X165430685Y-99833332D02*
X165335447Y-99785713D01*
X165335447Y-99785713D02*
X165287828Y-99738094D01*
X165287828Y-99738094D02*
X165240208Y-99642856D01*
X165240208Y-99642856D02*
X165240208Y-99452380D01*
X165240208Y-99452380D02*
X165287828Y-99357142D01*
X165287828Y-99357142D02*
X165335447Y-99309523D01*
X165335447Y-99309523D02*
X165430685Y-99261904D01*
X165430685Y-99261904D02*
X165668780Y-99261904D01*
X165668780Y-99261904D02*
X165764018Y-99309523D01*
X165764018Y-99309523D02*
X165811637Y-99357142D01*
X165811637Y-99357142D02*
X165859256Y-99452380D01*
X165859256Y-99452380D02*
X165859256Y-99642856D01*
X165859256Y-99642856D02*
X165811637Y-99738094D01*
X165811637Y-99738094D02*
X165764018Y-99785713D01*
X165764018Y-99785713D02*
X165668780Y-99833332D01*
X164630264Y-114952380D02*
X164630264Y-114761904D01*
X164630264Y-114761904D02*
X164582645Y-114666666D01*
X164582645Y-114666666D02*
X164487407Y-114571428D01*
X164487407Y-114571428D02*
X164296931Y-114523809D01*
X164296931Y-114523809D02*
X163963598Y-114523809D01*
X163963598Y-114523809D02*
X163773122Y-114571428D01*
X163773122Y-114571428D02*
X163677884Y-114666666D01*
X163677884Y-114666666D02*
X163630264Y-114761904D01*
X163630264Y-114761904D02*
X163630264Y-114952380D01*
X163630264Y-114952380D02*
X163677884Y-115047618D01*
X163677884Y-115047618D02*
X163773122Y-115142856D01*
X163773122Y-115142856D02*
X163963598Y-115190475D01*
X163963598Y-115190475D02*
X164296931Y-115190475D01*
X164296931Y-115190475D02*
X164487407Y-115142856D01*
X164487407Y-115142856D02*
X164582645Y-115047618D01*
X164582645Y-115047618D02*
X164630264Y-114952380D01*
X163677884Y-114142856D02*
X163630264Y-113999999D01*
X163630264Y-113999999D02*
X163630264Y-113761904D01*
X163630264Y-113761904D02*
X163677884Y-113666666D01*
X163677884Y-113666666D02*
X163725503Y-113619047D01*
X163725503Y-113619047D02*
X163820741Y-113571428D01*
X163820741Y-113571428D02*
X163915979Y-113571428D01*
X163915979Y-113571428D02*
X164011217Y-113619047D01*
X164011217Y-113619047D02*
X164058836Y-113666666D01*
X164058836Y-113666666D02*
X164106455Y-113761904D01*
X164106455Y-113761904D02*
X164154074Y-113952380D01*
X164154074Y-113952380D02*
X164201693Y-114047618D01*
X164201693Y-114047618D02*
X164249312Y-114095237D01*
X164249312Y-114095237D02*
X164344550Y-114142856D01*
X164344550Y-114142856D02*
X164439788Y-114142856D01*
X164439788Y-114142856D02*
X164535026Y-114095237D01*
X164535026Y-114095237D02*
X164582645Y-114047618D01*
X164582645Y-114047618D02*
X164630264Y-113952380D01*
X164630264Y-113952380D02*
X164630264Y-113714285D01*
X164630264Y-113714285D02*
X164582645Y-113571428D01*
X164630264Y-113142856D02*
X163820741Y-113142856D01*
X163820741Y-113142856D02*
X163725503Y-113095237D01*
X163725503Y-113095237D02*
X163677884Y-113047618D01*
X163677884Y-113047618D02*
X163630264Y-112952380D01*
X163630264Y-112952380D02*
X163630264Y-112761904D01*
X163630264Y-112761904D02*
X163677884Y-112666666D01*
X163677884Y-112666666D02*
X163725503Y-112619047D01*
X163725503Y-112619047D02*
X163820741Y-112571428D01*
X163820741Y-112571428D02*
X164630264Y-112571428D01*
X163677884Y-111380951D02*
X163630264Y-111238094D01*
X163630264Y-111238094D02*
X163630264Y-110999999D01*
X163630264Y-110999999D02*
X163677884Y-110904761D01*
X163677884Y-110904761D02*
X163725503Y-110857142D01*
X163725503Y-110857142D02*
X163820741Y-110809523D01*
X163820741Y-110809523D02*
X163915979Y-110809523D01*
X163915979Y-110809523D02*
X164011217Y-110857142D01*
X164011217Y-110857142D02*
X164058836Y-110904761D01*
X164058836Y-110904761D02*
X164106455Y-110999999D01*
X164106455Y-110999999D02*
X164154074Y-111190475D01*
X164154074Y-111190475D02*
X164201693Y-111285713D01*
X164201693Y-111285713D02*
X164249312Y-111333332D01*
X164249312Y-111333332D02*
X164344550Y-111380951D01*
X164344550Y-111380951D02*
X164439788Y-111380951D01*
X164439788Y-111380951D02*
X164535026Y-111333332D01*
X164535026Y-111333332D02*
X164582645Y-111285713D01*
X164582645Y-111285713D02*
X164630264Y-111190475D01*
X164630264Y-111190475D02*
X164630264Y-110952380D01*
X164630264Y-110952380D02*
X164582645Y-110809523D01*
X163630264Y-110380951D02*
X164630264Y-110380951D01*
X163630264Y-109904761D02*
X164630264Y-109904761D01*
X164630264Y-109904761D02*
X163915979Y-109571428D01*
X163915979Y-109571428D02*
X164630264Y-109238095D01*
X164630264Y-109238095D02*
X163630264Y-109238095D01*
X163630264Y-107523809D02*
X163630264Y-107999999D01*
X163630264Y-107999999D02*
X164630264Y-107999999D01*
X163630264Y-106761904D02*
X164154074Y-106761904D01*
X164154074Y-106761904D02*
X164249312Y-106809523D01*
X164249312Y-106809523D02*
X164296931Y-106904761D01*
X164296931Y-106904761D02*
X164296931Y-107095237D01*
X164296931Y-107095237D02*
X164249312Y-107190475D01*
X163677884Y-106761904D02*
X163630264Y-106857142D01*
X163630264Y-106857142D02*
X163630264Y-107095237D01*
X163630264Y-107095237D02*
X163677884Y-107190475D01*
X163677884Y-107190475D02*
X163773122Y-107238094D01*
X163773122Y-107238094D02*
X163868360Y-107238094D01*
X163868360Y-107238094D02*
X163963598Y-107190475D01*
X163963598Y-107190475D02*
X164011217Y-107095237D01*
X164011217Y-107095237D02*
X164011217Y-106857142D01*
X164011217Y-106857142D02*
X164058836Y-106761904D01*
X163630264Y-106285713D02*
X164630264Y-106285713D01*
X164249312Y-106285713D02*
X164296931Y-106190475D01*
X164296931Y-106190475D02*
X164296931Y-105999999D01*
X164296931Y-105999999D02*
X164249312Y-105904761D01*
X164249312Y-105904761D02*
X164201693Y-105857142D01*
X164201693Y-105857142D02*
X164106455Y-105809523D01*
X164106455Y-105809523D02*
X163820741Y-105809523D01*
X163820741Y-105809523D02*
X163725503Y-105857142D01*
X163725503Y-105857142D02*
X163677884Y-105904761D01*
X163677884Y-105904761D02*
X163630264Y-105999999D01*
X163630264Y-105999999D02*
X163630264Y-106190475D01*
X163630264Y-106190475D02*
X163677884Y-106285713D01*
X153045180Y-127333333D02*
X153045180Y-126899999D01*
X153045180Y-126899999D02*
X152664228Y-127133333D01*
X152664228Y-127133333D02*
X152664228Y-127033333D01*
X152664228Y-127033333D02*
X152616609Y-126966666D01*
X152616609Y-126966666D02*
X152568990Y-126933333D01*
X152568990Y-126933333D02*
X152473752Y-126899999D01*
X152473752Y-126899999D02*
X152235657Y-126899999D01*
X152235657Y-126899999D02*
X152140419Y-126933333D01*
X152140419Y-126933333D02*
X152092800Y-126966666D01*
X152092800Y-126966666D02*
X152045180Y-127033333D01*
X152045180Y-127033333D02*
X152045180Y-127233333D01*
X152045180Y-127233333D02*
X152092800Y-127299999D01*
X152092800Y-127299999D02*
X152140419Y-127333333D01*
X152711847Y-126666666D02*
X152045180Y-126499999D01*
X152045180Y-126499999D02*
X152711847Y-126333332D01*
X153045180Y-126133333D02*
X153045180Y-125699999D01*
X153045180Y-125699999D02*
X152664228Y-125933333D01*
X152664228Y-125933333D02*
X152664228Y-125833333D01*
X152664228Y-125833333D02*
X152616609Y-125766666D01*
X152616609Y-125766666D02*
X152568990Y-125733333D01*
X152568990Y-125733333D02*
X152473752Y-125699999D01*
X152473752Y-125699999D02*
X152235657Y-125699999D01*
X152235657Y-125699999D02*
X152140419Y-125733333D01*
X152140419Y-125733333D02*
X152092800Y-125766666D01*
X152092800Y-125766666D02*
X152045180Y-125833333D01*
X152045180Y-125833333D02*
X152045180Y-126033333D01*
X152045180Y-126033333D02*
X152092800Y-126099999D01*
X152092800Y-126099999D02*
X152140419Y-126133333D01*
X139163220Y-80369819D02*
X139163220Y-79369819D01*
X138687030Y-80369819D02*
X138687030Y-79369819D01*
X138687030Y-79369819D02*
X138353697Y-80084104D01*
X138353697Y-80084104D02*
X138020364Y-79369819D01*
X138020364Y-79369819D02*
X138020364Y-80369819D01*
X137544173Y-79369819D02*
X137544173Y-80179342D01*
X137544173Y-80179342D02*
X137496554Y-80274580D01*
X137496554Y-80274580D02*
X137448935Y-80322200D01*
X137448935Y-80322200D02*
X137353697Y-80369819D01*
X137353697Y-80369819D02*
X137163221Y-80369819D01*
X137163221Y-80369819D02*
X137067983Y-80322200D01*
X137067983Y-80322200D02*
X137020364Y-80274580D01*
X137020364Y-80274580D02*
X136972745Y-80179342D01*
X136972745Y-80179342D02*
X136972745Y-79369819D01*
X135401316Y-79846009D02*
X135258459Y-79893628D01*
X135258459Y-79893628D02*
X135210840Y-79941247D01*
X135210840Y-79941247D02*
X135163221Y-80036485D01*
X135163221Y-80036485D02*
X135163221Y-80179342D01*
X135163221Y-80179342D02*
X135210840Y-80274580D01*
X135210840Y-80274580D02*
X135258459Y-80322200D01*
X135258459Y-80322200D02*
X135353697Y-80369819D01*
X135353697Y-80369819D02*
X135734649Y-80369819D01*
X135734649Y-80369819D02*
X135734649Y-79369819D01*
X135734649Y-79369819D02*
X135401316Y-79369819D01*
X135401316Y-79369819D02*
X135306078Y-79417438D01*
X135306078Y-79417438D02*
X135258459Y-79465057D01*
X135258459Y-79465057D02*
X135210840Y-79560295D01*
X135210840Y-79560295D02*
X135210840Y-79655533D01*
X135210840Y-79655533D02*
X135258459Y-79750771D01*
X135258459Y-79750771D02*
X135306078Y-79798390D01*
X135306078Y-79798390D02*
X135401316Y-79846009D01*
X135401316Y-79846009D02*
X135734649Y-79846009D01*
X134544173Y-79369819D02*
X134353697Y-79369819D01*
X134353697Y-79369819D02*
X134258459Y-79417438D01*
X134258459Y-79417438D02*
X134163221Y-79512676D01*
X134163221Y-79512676D02*
X134115602Y-79703152D01*
X134115602Y-79703152D02*
X134115602Y-80036485D01*
X134115602Y-80036485D02*
X134163221Y-80226961D01*
X134163221Y-80226961D02*
X134258459Y-80322200D01*
X134258459Y-80322200D02*
X134353697Y-80369819D01*
X134353697Y-80369819D02*
X134544173Y-80369819D01*
X134544173Y-80369819D02*
X134639411Y-80322200D01*
X134639411Y-80322200D02*
X134734649Y-80226961D01*
X134734649Y-80226961D02*
X134782268Y-80036485D01*
X134782268Y-80036485D02*
X134782268Y-79703152D01*
X134782268Y-79703152D02*
X134734649Y-79512676D01*
X134734649Y-79512676D02*
X134639411Y-79417438D01*
X134639411Y-79417438D02*
X134544173Y-79369819D01*
X133829887Y-79369819D02*
X133258459Y-79369819D01*
X133544173Y-80369819D02*
X133544173Y-79369819D01*
X152997561Y-124033332D02*
X153045180Y-124099999D01*
X153045180Y-124099999D02*
X153045180Y-124199999D01*
X153045180Y-124199999D02*
X152997561Y-124299999D01*
X152997561Y-124299999D02*
X152902323Y-124366666D01*
X152902323Y-124366666D02*
X152807085Y-124399999D01*
X152807085Y-124399999D02*
X152616609Y-124433332D01*
X152616609Y-124433332D02*
X152473752Y-124433332D01*
X152473752Y-124433332D02*
X152283276Y-124399999D01*
X152283276Y-124399999D02*
X152188038Y-124366666D01*
X152188038Y-124366666D02*
X152092800Y-124299999D01*
X152092800Y-124299999D02*
X152045180Y-124199999D01*
X152045180Y-124199999D02*
X152045180Y-124133332D01*
X152045180Y-124133332D02*
X152092800Y-124033332D01*
X152092800Y-124033332D02*
X152140419Y-123999999D01*
X152140419Y-123999999D02*
X152473752Y-123999999D01*
X152473752Y-123999999D02*
X152473752Y-124133332D01*
X152045180Y-123699999D02*
X153045180Y-123699999D01*
X153045180Y-123699999D02*
X152045180Y-123299999D01*
X152045180Y-123299999D02*
X153045180Y-123299999D01*
X152045180Y-122966666D02*
X153045180Y-122966666D01*
X153045180Y-122966666D02*
X153045180Y-122799999D01*
X153045180Y-122799999D02*
X152997561Y-122699999D01*
X152997561Y-122699999D02*
X152902323Y-122633333D01*
X152902323Y-122633333D02*
X152807085Y-122599999D01*
X152807085Y-122599999D02*
X152616609Y-122566666D01*
X152616609Y-122566666D02*
X152473752Y-122566666D01*
X152473752Y-122566666D02*
X152283276Y-122599999D01*
X152283276Y-122599999D02*
X152188038Y-122633333D01*
X152188038Y-122633333D02*
X152092800Y-122699999D01*
X152092800Y-122699999D02*
X152045180Y-122799999D01*
X152045180Y-122799999D02*
X152045180Y-122966666D01*
X158545180Y-106816666D02*
X159545180Y-106816666D01*
X159545180Y-106816666D02*
X159545180Y-106549999D01*
X159545180Y-106549999D02*
X159497561Y-106483333D01*
X159497561Y-106483333D02*
X159449942Y-106449999D01*
X159449942Y-106449999D02*
X159354704Y-106416666D01*
X159354704Y-106416666D02*
X159211847Y-106416666D01*
X159211847Y-106416666D02*
X159116609Y-106449999D01*
X159116609Y-106449999D02*
X159068990Y-106483333D01*
X159068990Y-106483333D02*
X159021371Y-106549999D01*
X159021371Y-106549999D02*
X159021371Y-106816666D01*
X158830895Y-106149999D02*
X158830895Y-105816666D01*
X158545180Y-106216666D02*
X159545180Y-105983333D01*
X159545180Y-105983333D02*
X158545180Y-105749999D01*
X159545180Y-105383333D02*
X159545180Y-105316666D01*
X159545180Y-105316666D02*
X159497561Y-105249999D01*
X159497561Y-105249999D02*
X159449942Y-105216666D01*
X159449942Y-105216666D02*
X159354704Y-105183333D01*
X159354704Y-105183333D02*
X159164228Y-105149999D01*
X159164228Y-105149999D02*
X158926133Y-105149999D01*
X158926133Y-105149999D02*
X158735657Y-105183333D01*
X158735657Y-105183333D02*
X158640419Y-105216666D01*
X158640419Y-105216666D02*
X158592800Y-105249999D01*
X158592800Y-105249999D02*
X158545180Y-105316666D01*
X158545180Y-105316666D02*
X158545180Y-105383333D01*
X158545180Y-105383333D02*
X158592800Y-105449999D01*
X158592800Y-105449999D02*
X158640419Y-105483333D01*
X158640419Y-105483333D02*
X158735657Y-105516666D01*
X158735657Y-105516666D02*
X158926133Y-105549999D01*
X158926133Y-105549999D02*
X159164228Y-105549999D01*
X159164228Y-105549999D02*
X159354704Y-105516666D01*
X159354704Y-105516666D02*
X159449942Y-105483333D01*
X159449942Y-105483333D02*
X159497561Y-105449999D01*
X159497561Y-105449999D02*
X159545180Y-105383333D01*
X158545180Y-119316666D02*
X159545180Y-119316666D01*
X159545180Y-119316666D02*
X159545180Y-119049999D01*
X159545180Y-119049999D02*
X159497561Y-118983333D01*
X159497561Y-118983333D02*
X159449942Y-118949999D01*
X159449942Y-118949999D02*
X159354704Y-118916666D01*
X159354704Y-118916666D02*
X159211847Y-118916666D01*
X159211847Y-118916666D02*
X159116609Y-118949999D01*
X159116609Y-118949999D02*
X159068990Y-118983333D01*
X159068990Y-118983333D02*
X159021371Y-119049999D01*
X159021371Y-119049999D02*
X159021371Y-119316666D01*
X158830895Y-118649999D02*
X158830895Y-118316666D01*
X158545180Y-118716666D02*
X159545180Y-118483333D01*
X159545180Y-118483333D02*
X158545180Y-118249999D01*
X159545180Y-118083333D02*
X159545180Y-117616666D01*
X159545180Y-117616666D02*
X158545180Y-117916666D01*
X152045180Y-111816666D02*
X153045180Y-111816666D01*
X153045180Y-111816666D02*
X153045180Y-111549999D01*
X153045180Y-111549999D02*
X152997561Y-111483333D01*
X152997561Y-111483333D02*
X152949942Y-111449999D01*
X152949942Y-111449999D02*
X152854704Y-111416666D01*
X152854704Y-111416666D02*
X152711847Y-111416666D01*
X152711847Y-111416666D02*
X152616609Y-111449999D01*
X152616609Y-111449999D02*
X152568990Y-111483333D01*
X152568990Y-111483333D02*
X152521371Y-111549999D01*
X152521371Y-111549999D02*
X152521371Y-111816666D01*
X152330895Y-111149999D02*
X152330895Y-110816666D01*
X152045180Y-111216666D02*
X153045180Y-110983333D01*
X153045180Y-110983333D02*
X152045180Y-110749999D01*
X152616609Y-110416666D02*
X152664228Y-110483333D01*
X152664228Y-110483333D02*
X152711847Y-110516666D01*
X152711847Y-110516666D02*
X152807085Y-110549999D01*
X152807085Y-110549999D02*
X152854704Y-110549999D01*
X152854704Y-110549999D02*
X152949942Y-110516666D01*
X152949942Y-110516666D02*
X152997561Y-110483333D01*
X152997561Y-110483333D02*
X153045180Y-110416666D01*
X153045180Y-110416666D02*
X153045180Y-110283333D01*
X153045180Y-110283333D02*
X152997561Y-110216666D01*
X152997561Y-110216666D02*
X152949942Y-110183333D01*
X152949942Y-110183333D02*
X152854704Y-110149999D01*
X152854704Y-110149999D02*
X152807085Y-110149999D01*
X152807085Y-110149999D02*
X152711847Y-110183333D01*
X152711847Y-110183333D02*
X152664228Y-110216666D01*
X152664228Y-110216666D02*
X152616609Y-110283333D01*
X152616609Y-110283333D02*
X152616609Y-110416666D01*
X152616609Y-110416666D02*
X152568990Y-110483333D01*
X152568990Y-110483333D02*
X152521371Y-110516666D01*
X152521371Y-110516666D02*
X152426133Y-110549999D01*
X152426133Y-110549999D02*
X152235657Y-110549999D01*
X152235657Y-110549999D02*
X152140419Y-110516666D01*
X152140419Y-110516666D02*
X152092800Y-110483333D01*
X152092800Y-110483333D02*
X152045180Y-110416666D01*
X152045180Y-110416666D02*
X152045180Y-110283333D01*
X152045180Y-110283333D02*
X152092800Y-110216666D01*
X152092800Y-110216666D02*
X152140419Y-110183333D01*
X152140419Y-110183333D02*
X152235657Y-110149999D01*
X152235657Y-110149999D02*
X152426133Y-110149999D01*
X152426133Y-110149999D02*
X152521371Y-110183333D01*
X152521371Y-110183333D02*
X152568990Y-110216666D01*
X152568990Y-110216666D02*
X152616609Y-110283333D01*
X145349999Y-92907200D02*
X145249999Y-92954819D01*
X145249999Y-92954819D02*
X145083333Y-92954819D01*
X145083333Y-92954819D02*
X145016666Y-92907200D01*
X145016666Y-92907200D02*
X144983333Y-92859580D01*
X144983333Y-92859580D02*
X144949999Y-92764342D01*
X144949999Y-92764342D02*
X144949999Y-92669104D01*
X144949999Y-92669104D02*
X144983333Y-92573866D01*
X144983333Y-92573866D02*
X145016666Y-92526247D01*
X145016666Y-92526247D02*
X145083333Y-92478628D01*
X145083333Y-92478628D02*
X145216666Y-92431009D01*
X145216666Y-92431009D02*
X145283333Y-92383390D01*
X145283333Y-92383390D02*
X145316666Y-92335771D01*
X145316666Y-92335771D02*
X145349999Y-92240533D01*
X145349999Y-92240533D02*
X145349999Y-92145295D01*
X145349999Y-92145295D02*
X145316666Y-92050057D01*
X145316666Y-92050057D02*
X145283333Y-92002438D01*
X145283333Y-92002438D02*
X145216666Y-91954819D01*
X145216666Y-91954819D02*
X145049999Y-91954819D01*
X145049999Y-91954819D02*
X144949999Y-92002438D01*
X144649999Y-92954819D02*
X144649999Y-91954819D01*
X144649999Y-91954819D02*
X144483332Y-91954819D01*
X144483332Y-91954819D02*
X144383332Y-92002438D01*
X144383332Y-92002438D02*
X144316666Y-92097676D01*
X144316666Y-92097676D02*
X144283332Y-92192914D01*
X144283332Y-92192914D02*
X144249999Y-92383390D01*
X144249999Y-92383390D02*
X144249999Y-92526247D01*
X144249999Y-92526247D02*
X144283332Y-92716723D01*
X144283332Y-92716723D02*
X144316666Y-92811961D01*
X144316666Y-92811961D02*
X144383332Y-92907200D01*
X144383332Y-92907200D02*
X144483332Y-92954819D01*
X144483332Y-92954819D02*
X144649999Y-92954819D01*
X143983332Y-92669104D02*
X143649999Y-92669104D01*
X144049999Y-92954819D02*
X143816666Y-91954819D01*
X143816666Y-91954819D02*
X143583332Y-92954819D01*
X152045180Y-114316666D02*
X153045180Y-114316666D01*
X153045180Y-114316666D02*
X153045180Y-114049999D01*
X153045180Y-114049999D02*
X152997561Y-113983333D01*
X152997561Y-113983333D02*
X152949942Y-113949999D01*
X152949942Y-113949999D02*
X152854704Y-113916666D01*
X152854704Y-113916666D02*
X152711847Y-113916666D01*
X152711847Y-113916666D02*
X152616609Y-113949999D01*
X152616609Y-113949999D02*
X152568990Y-113983333D01*
X152568990Y-113983333D02*
X152521371Y-114049999D01*
X152521371Y-114049999D02*
X152521371Y-114316666D01*
X152330895Y-113649999D02*
X152330895Y-113316666D01*
X152045180Y-113716666D02*
X153045180Y-113483333D01*
X153045180Y-113483333D02*
X152045180Y-113249999D01*
X152045180Y-112983333D02*
X152045180Y-112849999D01*
X152045180Y-112849999D02*
X152092800Y-112783333D01*
X152092800Y-112783333D02*
X152140419Y-112749999D01*
X152140419Y-112749999D02*
X152283276Y-112683333D01*
X152283276Y-112683333D02*
X152473752Y-112649999D01*
X152473752Y-112649999D02*
X152854704Y-112649999D01*
X152854704Y-112649999D02*
X152949942Y-112683333D01*
X152949942Y-112683333D02*
X152997561Y-112716666D01*
X152997561Y-112716666D02*
X153045180Y-112783333D01*
X153045180Y-112783333D02*
X153045180Y-112916666D01*
X153045180Y-112916666D02*
X152997561Y-112983333D01*
X152997561Y-112983333D02*
X152949942Y-113016666D01*
X152949942Y-113016666D02*
X152854704Y-113049999D01*
X152854704Y-113049999D02*
X152616609Y-113049999D01*
X152616609Y-113049999D02*
X152521371Y-113016666D01*
X152521371Y-113016666D02*
X152473752Y-112983333D01*
X152473752Y-112983333D02*
X152426133Y-112916666D01*
X152426133Y-112916666D02*
X152426133Y-112783333D01*
X152426133Y-112783333D02*
X152473752Y-112716666D01*
X152473752Y-112716666D02*
X152521371Y-112683333D01*
X152521371Y-112683333D02*
X152616609Y-112649999D01*
X158545180Y-111816666D02*
X159545180Y-111816666D01*
X159545180Y-111816666D02*
X159545180Y-111549999D01*
X159545180Y-111549999D02*
X159497561Y-111483333D01*
X159497561Y-111483333D02*
X159449942Y-111449999D01*
X159449942Y-111449999D02*
X159354704Y-111416666D01*
X159354704Y-111416666D02*
X159211847Y-111416666D01*
X159211847Y-111416666D02*
X159116609Y-111449999D01*
X159116609Y-111449999D02*
X159068990Y-111483333D01*
X159068990Y-111483333D02*
X159021371Y-111549999D01*
X159021371Y-111549999D02*
X159021371Y-111816666D01*
X158830895Y-111149999D02*
X158830895Y-110816666D01*
X158545180Y-111216666D02*
X159545180Y-110983333D01*
X159545180Y-110983333D02*
X158545180Y-110749999D01*
X159449942Y-110549999D02*
X159497561Y-110516666D01*
X159497561Y-110516666D02*
X159545180Y-110449999D01*
X159545180Y-110449999D02*
X159545180Y-110283333D01*
X159545180Y-110283333D02*
X159497561Y-110216666D01*
X159497561Y-110216666D02*
X159449942Y-110183333D01*
X159449942Y-110183333D02*
X159354704Y-110149999D01*
X159354704Y-110149999D02*
X159259466Y-110149999D01*
X159259466Y-110149999D02*
X159116609Y-110183333D01*
X159116609Y-110183333D02*
X158545180Y-110583333D01*
X158545180Y-110583333D02*
X158545180Y-110149999D01*
X158545180Y-121866666D02*
X159545180Y-121866666D01*
X159545180Y-121866666D02*
X159545180Y-121599999D01*
X159545180Y-121599999D02*
X159497561Y-121533333D01*
X159497561Y-121533333D02*
X159449942Y-121499999D01*
X159449942Y-121499999D02*
X159354704Y-121466666D01*
X159354704Y-121466666D02*
X159211847Y-121466666D01*
X159211847Y-121466666D02*
X159116609Y-121499999D01*
X159116609Y-121499999D02*
X159068990Y-121533333D01*
X159068990Y-121533333D02*
X159021371Y-121599999D01*
X159021371Y-121599999D02*
X159021371Y-121866666D01*
X159068990Y-120933333D02*
X159021371Y-120833333D01*
X159021371Y-120833333D02*
X158973752Y-120799999D01*
X158973752Y-120799999D02*
X158878514Y-120766666D01*
X158878514Y-120766666D02*
X158735657Y-120766666D01*
X158735657Y-120766666D02*
X158640419Y-120799999D01*
X158640419Y-120799999D02*
X158592800Y-120833333D01*
X158592800Y-120833333D02*
X158545180Y-120899999D01*
X158545180Y-120899999D02*
X158545180Y-121166666D01*
X158545180Y-121166666D02*
X159545180Y-121166666D01*
X159545180Y-121166666D02*
X159545180Y-120933333D01*
X159545180Y-120933333D02*
X159497561Y-120866666D01*
X159497561Y-120866666D02*
X159449942Y-120833333D01*
X159449942Y-120833333D02*
X159354704Y-120799999D01*
X159354704Y-120799999D02*
X159259466Y-120799999D01*
X159259466Y-120799999D02*
X159164228Y-120833333D01*
X159164228Y-120833333D02*
X159116609Y-120866666D01*
X159116609Y-120866666D02*
X159068990Y-120933333D01*
X159068990Y-120933333D02*
X159068990Y-121166666D01*
X158545180Y-120099999D02*
X158545180Y-120499999D01*
X158545180Y-120299999D02*
X159545180Y-120299999D01*
X159545180Y-120299999D02*
X159402323Y-120366666D01*
X159402323Y-120366666D02*
X159307085Y-120433333D01*
X159307085Y-120433333D02*
X159259466Y-120499999D01*
X145033332Y-87002438D02*
X145099999Y-86954819D01*
X145099999Y-86954819D02*
X145199999Y-86954819D01*
X145199999Y-86954819D02*
X145299999Y-87002438D01*
X145299999Y-87002438D02*
X145366666Y-87097676D01*
X145366666Y-87097676D02*
X145399999Y-87192914D01*
X145399999Y-87192914D02*
X145433332Y-87383390D01*
X145433332Y-87383390D02*
X145433332Y-87526247D01*
X145433332Y-87526247D02*
X145399999Y-87716723D01*
X145399999Y-87716723D02*
X145366666Y-87811961D01*
X145366666Y-87811961D02*
X145299999Y-87907200D01*
X145299999Y-87907200D02*
X145199999Y-87954819D01*
X145199999Y-87954819D02*
X145133332Y-87954819D01*
X145133332Y-87954819D02*
X145033332Y-87907200D01*
X145033332Y-87907200D02*
X144999999Y-87859580D01*
X144999999Y-87859580D02*
X144999999Y-87526247D01*
X144999999Y-87526247D02*
X145133332Y-87526247D01*
X144699999Y-87954819D02*
X144699999Y-86954819D01*
X144699999Y-86954819D02*
X144299999Y-87954819D01*
X144299999Y-87954819D02*
X144299999Y-86954819D01*
X143966666Y-87954819D02*
X143966666Y-86954819D01*
X143966666Y-86954819D02*
X143799999Y-86954819D01*
X143799999Y-86954819D02*
X143699999Y-87002438D01*
X143699999Y-87002438D02*
X143633333Y-87097676D01*
X143633333Y-87097676D02*
X143599999Y-87192914D01*
X143599999Y-87192914D02*
X143566666Y-87383390D01*
X143566666Y-87383390D02*
X143566666Y-87526247D01*
X143566666Y-87526247D02*
X143599999Y-87716723D01*
X143599999Y-87716723D02*
X143633333Y-87811961D01*
X143633333Y-87811961D02*
X143699999Y-87907200D01*
X143699999Y-87907200D02*
X143799999Y-87954819D01*
X143799999Y-87954819D02*
X143966666Y-87954819D01*
X158545180Y-116816666D02*
X159545180Y-116816666D01*
X159545180Y-116816666D02*
X159545180Y-116549999D01*
X159545180Y-116549999D02*
X159497561Y-116483333D01*
X159497561Y-116483333D02*
X159449942Y-116449999D01*
X159449942Y-116449999D02*
X159354704Y-116416666D01*
X159354704Y-116416666D02*
X159211847Y-116416666D01*
X159211847Y-116416666D02*
X159116609Y-116449999D01*
X159116609Y-116449999D02*
X159068990Y-116483333D01*
X159068990Y-116483333D02*
X159021371Y-116549999D01*
X159021371Y-116549999D02*
X159021371Y-116816666D01*
X158830895Y-116149999D02*
X158830895Y-115816666D01*
X158545180Y-116216666D02*
X159545180Y-115983333D01*
X159545180Y-115983333D02*
X158545180Y-115749999D01*
X159545180Y-115216666D02*
X159545180Y-115349999D01*
X159545180Y-115349999D02*
X159497561Y-115416666D01*
X159497561Y-115416666D02*
X159449942Y-115449999D01*
X159449942Y-115449999D02*
X159307085Y-115516666D01*
X159307085Y-115516666D02*
X159116609Y-115549999D01*
X159116609Y-115549999D02*
X158735657Y-115549999D01*
X158735657Y-115549999D02*
X158640419Y-115516666D01*
X158640419Y-115516666D02*
X158592800Y-115483333D01*
X158592800Y-115483333D02*
X158545180Y-115416666D01*
X158545180Y-115416666D02*
X158545180Y-115283333D01*
X158545180Y-115283333D02*
X158592800Y-115216666D01*
X158592800Y-115216666D02*
X158640419Y-115183333D01*
X158640419Y-115183333D02*
X158735657Y-115149999D01*
X158735657Y-115149999D02*
X158973752Y-115149999D01*
X158973752Y-115149999D02*
X159068990Y-115183333D01*
X159068990Y-115183333D02*
X159116609Y-115216666D01*
X159116609Y-115216666D02*
X159164228Y-115283333D01*
X159164228Y-115283333D02*
X159164228Y-115416666D01*
X159164228Y-115416666D02*
X159116609Y-115483333D01*
X159116609Y-115483333D02*
X159068990Y-115516666D01*
X159068990Y-115516666D02*
X158973752Y-115549999D01*
X157033332Y-84002438D02*
X157099999Y-83954819D01*
X157099999Y-83954819D02*
X157199999Y-83954819D01*
X157199999Y-83954819D02*
X157299999Y-84002438D01*
X157299999Y-84002438D02*
X157366666Y-84097676D01*
X157366666Y-84097676D02*
X157399999Y-84192914D01*
X157399999Y-84192914D02*
X157433332Y-84383390D01*
X157433332Y-84383390D02*
X157433332Y-84526247D01*
X157433332Y-84526247D02*
X157399999Y-84716723D01*
X157399999Y-84716723D02*
X157366666Y-84811961D01*
X157366666Y-84811961D02*
X157299999Y-84907200D01*
X157299999Y-84907200D02*
X157199999Y-84954819D01*
X157199999Y-84954819D02*
X157133332Y-84954819D01*
X157133332Y-84954819D02*
X157033332Y-84907200D01*
X157033332Y-84907200D02*
X156999999Y-84859580D01*
X156999999Y-84859580D02*
X156999999Y-84526247D01*
X156999999Y-84526247D02*
X157133332Y-84526247D01*
X156699999Y-84954819D02*
X156699999Y-83954819D01*
X156699999Y-83954819D02*
X156299999Y-84954819D01*
X156299999Y-84954819D02*
X156299999Y-83954819D01*
X155966666Y-84954819D02*
X155966666Y-83954819D01*
X155966666Y-83954819D02*
X155799999Y-83954819D01*
X155799999Y-83954819D02*
X155699999Y-84002438D01*
X155699999Y-84002438D02*
X155633333Y-84097676D01*
X155633333Y-84097676D02*
X155599999Y-84192914D01*
X155599999Y-84192914D02*
X155566666Y-84383390D01*
X155566666Y-84383390D02*
X155566666Y-84526247D01*
X155566666Y-84526247D02*
X155599999Y-84716723D01*
X155599999Y-84716723D02*
X155633333Y-84811961D01*
X155633333Y-84811961D02*
X155699999Y-84907200D01*
X155699999Y-84907200D02*
X155799999Y-84954819D01*
X155799999Y-84954819D02*
X155966666Y-84954819D01*
X145133332Y-95454819D02*
X145133332Y-94454819D01*
X144799999Y-95454819D02*
X144799999Y-94454819D01*
X144799999Y-94454819D02*
X144399999Y-95454819D01*
X144399999Y-95454819D02*
X144399999Y-94454819D01*
X144166666Y-94454819D02*
X143766666Y-94454819D01*
X143966666Y-95454819D02*
X143966666Y-94454819D01*
X158545180Y-109316666D02*
X159545180Y-109316666D01*
X159545180Y-109316666D02*
X159545180Y-109049999D01*
X159545180Y-109049999D02*
X159497561Y-108983333D01*
X159497561Y-108983333D02*
X159449942Y-108949999D01*
X159449942Y-108949999D02*
X159354704Y-108916666D01*
X159354704Y-108916666D02*
X159211847Y-108916666D01*
X159211847Y-108916666D02*
X159116609Y-108949999D01*
X159116609Y-108949999D02*
X159068990Y-108983333D01*
X159068990Y-108983333D02*
X159021371Y-109049999D01*
X159021371Y-109049999D02*
X159021371Y-109316666D01*
X158830895Y-108649999D02*
X158830895Y-108316666D01*
X158545180Y-108716666D02*
X159545180Y-108483333D01*
X159545180Y-108483333D02*
X158545180Y-108249999D01*
X158545180Y-107649999D02*
X158545180Y-108049999D01*
X158545180Y-107849999D02*
X159545180Y-107849999D01*
X159545180Y-107849999D02*
X159402323Y-107916666D01*
X159402323Y-107916666D02*
X159307085Y-107983333D01*
X159307085Y-107983333D02*
X159259466Y-108049999D01*
X152045180Y-116866666D02*
X153045180Y-116866666D01*
X153045180Y-116866666D02*
X153045180Y-116599999D01*
X153045180Y-116599999D02*
X152997561Y-116533333D01*
X152997561Y-116533333D02*
X152949942Y-116499999D01*
X152949942Y-116499999D02*
X152854704Y-116466666D01*
X152854704Y-116466666D02*
X152711847Y-116466666D01*
X152711847Y-116466666D02*
X152616609Y-116499999D01*
X152616609Y-116499999D02*
X152568990Y-116533333D01*
X152568990Y-116533333D02*
X152521371Y-116599999D01*
X152521371Y-116599999D02*
X152521371Y-116866666D01*
X152568990Y-115933333D02*
X152521371Y-115833333D01*
X152521371Y-115833333D02*
X152473752Y-115799999D01*
X152473752Y-115799999D02*
X152378514Y-115766666D01*
X152378514Y-115766666D02*
X152235657Y-115766666D01*
X152235657Y-115766666D02*
X152140419Y-115799999D01*
X152140419Y-115799999D02*
X152092800Y-115833333D01*
X152092800Y-115833333D02*
X152045180Y-115899999D01*
X152045180Y-115899999D02*
X152045180Y-116166666D01*
X152045180Y-116166666D02*
X153045180Y-116166666D01*
X153045180Y-116166666D02*
X153045180Y-115933333D01*
X153045180Y-115933333D02*
X152997561Y-115866666D01*
X152997561Y-115866666D02*
X152949942Y-115833333D01*
X152949942Y-115833333D02*
X152854704Y-115799999D01*
X152854704Y-115799999D02*
X152759466Y-115799999D01*
X152759466Y-115799999D02*
X152664228Y-115833333D01*
X152664228Y-115833333D02*
X152616609Y-115866666D01*
X152616609Y-115866666D02*
X152568990Y-115933333D01*
X152568990Y-115933333D02*
X152568990Y-116166666D01*
X153045180Y-115533333D02*
X153045180Y-115099999D01*
X153045180Y-115099999D02*
X152664228Y-115333333D01*
X152664228Y-115333333D02*
X152664228Y-115233333D01*
X152664228Y-115233333D02*
X152616609Y-115166666D01*
X152616609Y-115166666D02*
X152568990Y-115133333D01*
X152568990Y-115133333D02*
X152473752Y-115099999D01*
X152473752Y-115099999D02*
X152235657Y-115099999D01*
X152235657Y-115099999D02*
X152140419Y-115133333D01*
X152140419Y-115133333D02*
X152092800Y-115166666D01*
X152092800Y-115166666D02*
X152045180Y-115233333D01*
X152045180Y-115233333D02*
X152045180Y-115433333D01*
X152045180Y-115433333D02*
X152092800Y-115499999D01*
X152092800Y-115499999D02*
X152140419Y-115533333D01*
X158554500Y-124820506D02*
X159554500Y-124820506D01*
X159554500Y-124820506D02*
X159554500Y-124553839D01*
X159554500Y-124553839D02*
X159506881Y-124487173D01*
X159506881Y-124487173D02*
X159459262Y-124453839D01*
X159459262Y-124453839D02*
X159364024Y-124420506D01*
X159364024Y-124420506D02*
X159221167Y-124420506D01*
X159221167Y-124420506D02*
X159125929Y-124453839D01*
X159125929Y-124453839D02*
X159078310Y-124487173D01*
X159078310Y-124487173D02*
X159030691Y-124553839D01*
X159030691Y-124553839D02*
X159030691Y-124820506D01*
X159078310Y-123887173D02*
X159030691Y-123787173D01*
X159030691Y-123787173D02*
X158983072Y-123753839D01*
X158983072Y-123753839D02*
X158887834Y-123720506D01*
X158887834Y-123720506D02*
X158744977Y-123720506D01*
X158744977Y-123720506D02*
X158649739Y-123753839D01*
X158649739Y-123753839D02*
X158602120Y-123787173D01*
X158602120Y-123787173D02*
X158554500Y-123853839D01*
X158554500Y-123853839D02*
X158554500Y-124120506D01*
X158554500Y-124120506D02*
X159554500Y-124120506D01*
X159554500Y-124120506D02*
X159554500Y-123887173D01*
X159554500Y-123887173D02*
X159506881Y-123820506D01*
X159506881Y-123820506D02*
X159459262Y-123787173D01*
X159459262Y-123787173D02*
X159364024Y-123753839D01*
X159364024Y-123753839D02*
X159268786Y-123753839D01*
X159268786Y-123753839D02*
X159173548Y-123787173D01*
X159173548Y-123787173D02*
X159125929Y-123820506D01*
X159125929Y-123820506D02*
X159078310Y-123887173D01*
X159078310Y-123887173D02*
X159078310Y-124120506D01*
X158554500Y-123053839D02*
X158554500Y-123453839D01*
X158554500Y-123253839D02*
X159554500Y-123253839D01*
X159554500Y-123253839D02*
X159411643Y-123320506D01*
X159411643Y-123320506D02*
X159316405Y-123387173D01*
X159316405Y-123387173D02*
X159268786Y-123453839D01*
X159554500Y-122620506D02*
X159554500Y-122553839D01*
X159554500Y-122553839D02*
X159506881Y-122487172D01*
X159506881Y-122487172D02*
X159459262Y-122453839D01*
X159459262Y-122453839D02*
X159364024Y-122420506D01*
X159364024Y-122420506D02*
X159173548Y-122387172D01*
X159173548Y-122387172D02*
X158935453Y-122387172D01*
X158935453Y-122387172D02*
X158744977Y-122420506D01*
X158744977Y-122420506D02*
X158649739Y-122453839D01*
X158649739Y-122453839D02*
X158602120Y-122487172D01*
X158602120Y-122487172D02*
X158554500Y-122553839D01*
X158554500Y-122553839D02*
X158554500Y-122620506D01*
X158554500Y-122620506D02*
X158602120Y-122687172D01*
X158602120Y-122687172D02*
X158649739Y-122720506D01*
X158649739Y-122720506D02*
X158744977Y-122753839D01*
X158744977Y-122753839D02*
X158935453Y-122787172D01*
X158935453Y-122787172D02*
X159173548Y-122787172D01*
X159173548Y-122787172D02*
X159364024Y-122753839D01*
X159364024Y-122753839D02*
X159459262Y-122720506D01*
X159459262Y-122720506D02*
X159506881Y-122687172D01*
X159506881Y-122687172D02*
X159554500Y-122620506D01*
X156883333Y-89954819D02*
X157116666Y-89478628D01*
X157283333Y-89954819D02*
X157283333Y-88954819D01*
X157283333Y-88954819D02*
X157016666Y-88954819D01*
X157016666Y-88954819D02*
X156950000Y-89002438D01*
X156950000Y-89002438D02*
X156916666Y-89050057D01*
X156916666Y-89050057D02*
X156883333Y-89145295D01*
X156883333Y-89145295D02*
X156883333Y-89288152D01*
X156883333Y-89288152D02*
X156916666Y-89383390D01*
X156916666Y-89383390D02*
X156950000Y-89431009D01*
X156950000Y-89431009D02*
X157016666Y-89478628D01*
X157016666Y-89478628D02*
X157283333Y-89478628D01*
X156616666Y-89907200D02*
X156516666Y-89954819D01*
X156516666Y-89954819D02*
X156350000Y-89954819D01*
X156350000Y-89954819D02*
X156283333Y-89907200D01*
X156283333Y-89907200D02*
X156250000Y-89859580D01*
X156250000Y-89859580D02*
X156216666Y-89764342D01*
X156216666Y-89764342D02*
X156216666Y-89669104D01*
X156216666Y-89669104D02*
X156250000Y-89573866D01*
X156250000Y-89573866D02*
X156283333Y-89526247D01*
X156283333Y-89526247D02*
X156350000Y-89478628D01*
X156350000Y-89478628D02*
X156483333Y-89431009D01*
X156483333Y-89431009D02*
X156550000Y-89383390D01*
X156550000Y-89383390D02*
X156583333Y-89335771D01*
X156583333Y-89335771D02*
X156616666Y-89240533D01*
X156616666Y-89240533D02*
X156616666Y-89145295D01*
X156616666Y-89145295D02*
X156583333Y-89050057D01*
X156583333Y-89050057D02*
X156550000Y-89002438D01*
X156550000Y-89002438D02*
X156483333Y-88954819D01*
X156483333Y-88954819D02*
X156316666Y-88954819D01*
X156316666Y-88954819D02*
X156216666Y-89002438D01*
X156016666Y-88954819D02*
X155616666Y-88954819D01*
X155816666Y-89954819D02*
X155816666Y-88954819D01*
X145333333Y-81954819D02*
X144899999Y-81954819D01*
X144899999Y-81954819D02*
X145133333Y-82335771D01*
X145133333Y-82335771D02*
X145033333Y-82335771D01*
X145033333Y-82335771D02*
X144966666Y-82383390D01*
X144966666Y-82383390D02*
X144933333Y-82431009D01*
X144933333Y-82431009D02*
X144899999Y-82526247D01*
X144899999Y-82526247D02*
X144899999Y-82764342D01*
X144899999Y-82764342D02*
X144933333Y-82859580D01*
X144933333Y-82859580D02*
X144966666Y-82907200D01*
X144966666Y-82907200D02*
X145033333Y-82954819D01*
X145033333Y-82954819D02*
X145233333Y-82954819D01*
X145233333Y-82954819D02*
X145299999Y-82907200D01*
X145299999Y-82907200D02*
X145333333Y-82859580D01*
X144666666Y-82288152D02*
X144499999Y-82954819D01*
X144499999Y-82954819D02*
X144333332Y-82288152D01*
X144133333Y-81954819D02*
X143699999Y-81954819D01*
X143699999Y-81954819D02*
X143933333Y-82335771D01*
X143933333Y-82335771D02*
X143833333Y-82335771D01*
X143833333Y-82335771D02*
X143766666Y-82383390D01*
X143766666Y-82383390D02*
X143733333Y-82431009D01*
X143733333Y-82431009D02*
X143699999Y-82526247D01*
X143699999Y-82526247D02*
X143699999Y-82764342D01*
X143699999Y-82764342D02*
X143733333Y-82859580D01*
X143733333Y-82859580D02*
X143766666Y-82907200D01*
X143766666Y-82907200D02*
X143833333Y-82954819D01*
X143833333Y-82954819D02*
X144033333Y-82954819D01*
X144033333Y-82954819D02*
X144099999Y-82907200D01*
X144099999Y-82907200D02*
X144133333Y-82859580D01*
X152045180Y-106700000D02*
X153045180Y-106700000D01*
X153045180Y-106700000D02*
X153045180Y-106433333D01*
X153045180Y-106433333D02*
X152997561Y-106366667D01*
X152997561Y-106366667D02*
X152949942Y-106333333D01*
X152949942Y-106333333D02*
X152854704Y-106300000D01*
X152854704Y-106300000D02*
X152711847Y-106300000D01*
X152711847Y-106300000D02*
X152616609Y-106333333D01*
X152616609Y-106333333D02*
X152568990Y-106366667D01*
X152568990Y-106366667D02*
X152521371Y-106433333D01*
X152521371Y-106433333D02*
X152521371Y-106700000D01*
X152568990Y-105766667D02*
X152521371Y-105666667D01*
X152521371Y-105666667D02*
X152473752Y-105633333D01*
X152473752Y-105633333D02*
X152378514Y-105600000D01*
X152378514Y-105600000D02*
X152235657Y-105600000D01*
X152235657Y-105600000D02*
X152140419Y-105633333D01*
X152140419Y-105633333D02*
X152092800Y-105666667D01*
X152092800Y-105666667D02*
X152045180Y-105733333D01*
X152045180Y-105733333D02*
X152045180Y-106000000D01*
X152045180Y-106000000D02*
X153045180Y-106000000D01*
X153045180Y-106000000D02*
X153045180Y-105766667D01*
X153045180Y-105766667D02*
X152997561Y-105700000D01*
X152997561Y-105700000D02*
X152949942Y-105666667D01*
X152949942Y-105666667D02*
X152854704Y-105633333D01*
X152854704Y-105633333D02*
X152759466Y-105633333D01*
X152759466Y-105633333D02*
X152664228Y-105666667D01*
X152664228Y-105666667D02*
X152616609Y-105700000D01*
X152616609Y-105700000D02*
X152568990Y-105766667D01*
X152568990Y-105766667D02*
X152568990Y-106000000D01*
X152045180Y-104933333D02*
X152045180Y-105333333D01*
X152045180Y-105133333D02*
X153045180Y-105133333D01*
X153045180Y-105133333D02*
X152902323Y-105200000D01*
X152902323Y-105200000D02*
X152807085Y-105266667D01*
X152807085Y-105266667D02*
X152759466Y-105333333D01*
X153045180Y-104700000D02*
X153045180Y-104266666D01*
X153045180Y-104266666D02*
X152664228Y-104500000D01*
X152664228Y-104500000D02*
X152664228Y-104400000D01*
X152664228Y-104400000D02*
X152616609Y-104333333D01*
X152616609Y-104333333D02*
X152568990Y-104300000D01*
X152568990Y-104300000D02*
X152473752Y-104266666D01*
X152473752Y-104266666D02*
X152235657Y-104266666D01*
X152235657Y-104266666D02*
X152140419Y-104300000D01*
X152140419Y-104300000D02*
X152092800Y-104333333D01*
X152092800Y-104333333D02*
X152045180Y-104400000D01*
X152045180Y-104400000D02*
X152045180Y-104600000D01*
X152045180Y-104600000D02*
X152092800Y-104666666D01*
X152092800Y-104666666D02*
X152140419Y-104700000D01*
X158545180Y-114316666D02*
X159545180Y-114316666D01*
X159545180Y-114316666D02*
X159545180Y-114049999D01*
X159545180Y-114049999D02*
X159497561Y-113983333D01*
X159497561Y-113983333D02*
X159449942Y-113949999D01*
X159449942Y-113949999D02*
X159354704Y-113916666D01*
X159354704Y-113916666D02*
X159211847Y-113916666D01*
X159211847Y-113916666D02*
X159116609Y-113949999D01*
X159116609Y-113949999D02*
X159068990Y-113983333D01*
X159068990Y-113983333D02*
X159021371Y-114049999D01*
X159021371Y-114049999D02*
X159021371Y-114316666D01*
X158830895Y-113649999D02*
X158830895Y-113316666D01*
X158545180Y-113716666D02*
X159545180Y-113483333D01*
X159545180Y-113483333D02*
X158545180Y-113249999D01*
X159545180Y-113083333D02*
X159545180Y-112649999D01*
X159545180Y-112649999D02*
X159164228Y-112883333D01*
X159164228Y-112883333D02*
X159164228Y-112783333D01*
X159164228Y-112783333D02*
X159116609Y-112716666D01*
X159116609Y-112716666D02*
X159068990Y-112683333D01*
X159068990Y-112683333D02*
X158973752Y-112649999D01*
X158973752Y-112649999D02*
X158735657Y-112649999D01*
X158735657Y-112649999D02*
X158640419Y-112683333D01*
X158640419Y-112683333D02*
X158592800Y-112716666D01*
X158592800Y-112716666D02*
X158545180Y-112783333D01*
X158545180Y-112783333D02*
X158545180Y-112983333D01*
X158545180Y-112983333D02*
X158592800Y-113049999D01*
X158592800Y-113049999D02*
X158640419Y-113083333D01*
X166163220Y-80369819D02*
X166163220Y-79369819D01*
X165687030Y-80369819D02*
X165687030Y-79369819D01*
X165687030Y-79369819D02*
X165353697Y-80084104D01*
X165353697Y-80084104D02*
X165020364Y-79369819D01*
X165020364Y-79369819D02*
X165020364Y-80369819D01*
X164544173Y-79369819D02*
X164544173Y-80179342D01*
X164544173Y-80179342D02*
X164496554Y-80274580D01*
X164496554Y-80274580D02*
X164448935Y-80322200D01*
X164448935Y-80322200D02*
X164353697Y-80369819D01*
X164353697Y-80369819D02*
X164163221Y-80369819D01*
X164163221Y-80369819D02*
X164067983Y-80322200D01*
X164067983Y-80322200D02*
X164020364Y-80274580D01*
X164020364Y-80274580D02*
X163972745Y-80179342D01*
X163972745Y-80179342D02*
X163972745Y-79369819D01*
X162877506Y-79369819D02*
X162306078Y-79369819D01*
X162591792Y-80369819D02*
X162591792Y-79369819D01*
X161782268Y-79369819D02*
X161591792Y-79369819D01*
X161591792Y-79369819D02*
X161496554Y-79417438D01*
X161496554Y-79417438D02*
X161401316Y-79512676D01*
X161401316Y-79512676D02*
X161353697Y-79703152D01*
X161353697Y-79703152D02*
X161353697Y-80036485D01*
X161353697Y-80036485D02*
X161401316Y-80226961D01*
X161401316Y-80226961D02*
X161496554Y-80322200D01*
X161496554Y-80322200D02*
X161591792Y-80369819D01*
X161591792Y-80369819D02*
X161782268Y-80369819D01*
X161782268Y-80369819D02*
X161877506Y-80322200D01*
X161877506Y-80322200D02*
X161972744Y-80226961D01*
X161972744Y-80226961D02*
X162020363Y-80036485D01*
X162020363Y-80036485D02*
X162020363Y-79703152D01*
X162020363Y-79703152D02*
X161972744Y-79512676D01*
X161972744Y-79512676D02*
X161877506Y-79417438D01*
X161877506Y-79417438D02*
X161782268Y-79369819D01*
X160925125Y-80369819D02*
X160925125Y-79369819D01*
X160925125Y-79369819D02*
X160544173Y-79369819D01*
X160544173Y-79369819D02*
X160448935Y-79417438D01*
X160448935Y-79417438D02*
X160401316Y-79465057D01*
X160401316Y-79465057D02*
X160353697Y-79560295D01*
X160353697Y-79560295D02*
X160353697Y-79703152D01*
X160353697Y-79703152D02*
X160401316Y-79798390D01*
X160401316Y-79798390D02*
X160448935Y-79846009D01*
X160448935Y-79846009D02*
X160544173Y-79893628D01*
X160544173Y-79893628D02*
X160925125Y-79893628D01*
X152035192Y-109587735D02*
X153035192Y-109587735D01*
X153035192Y-109587735D02*
X153035192Y-109321068D01*
X153035192Y-109321068D02*
X152987573Y-109254402D01*
X152987573Y-109254402D02*
X152939954Y-109221068D01*
X152939954Y-109221068D02*
X152844716Y-109187735D01*
X152844716Y-109187735D02*
X152701859Y-109187735D01*
X152701859Y-109187735D02*
X152606621Y-109221068D01*
X152606621Y-109221068D02*
X152559002Y-109254402D01*
X152559002Y-109254402D02*
X152511383Y-109321068D01*
X152511383Y-109321068D02*
X152511383Y-109587735D01*
X152559002Y-108654402D02*
X152511383Y-108554402D01*
X152511383Y-108554402D02*
X152463764Y-108521068D01*
X152463764Y-108521068D02*
X152368526Y-108487735D01*
X152368526Y-108487735D02*
X152225669Y-108487735D01*
X152225669Y-108487735D02*
X152130431Y-108521068D01*
X152130431Y-108521068D02*
X152082812Y-108554402D01*
X152082812Y-108554402D02*
X152035192Y-108621068D01*
X152035192Y-108621068D02*
X152035192Y-108887735D01*
X152035192Y-108887735D02*
X153035192Y-108887735D01*
X153035192Y-108887735D02*
X153035192Y-108654402D01*
X153035192Y-108654402D02*
X152987573Y-108587735D01*
X152987573Y-108587735D02*
X152939954Y-108554402D01*
X152939954Y-108554402D02*
X152844716Y-108521068D01*
X152844716Y-108521068D02*
X152749478Y-108521068D01*
X152749478Y-108521068D02*
X152654240Y-108554402D01*
X152654240Y-108554402D02*
X152606621Y-108587735D01*
X152606621Y-108587735D02*
X152559002Y-108654402D01*
X152559002Y-108654402D02*
X152559002Y-108887735D01*
X152035192Y-107821068D02*
X152035192Y-108221068D01*
X152035192Y-108021068D02*
X153035192Y-108021068D01*
X153035192Y-108021068D02*
X152892335Y-108087735D01*
X152892335Y-108087735D02*
X152797097Y-108154402D01*
X152797097Y-108154402D02*
X152749478Y-108221068D01*
X152701859Y-107221068D02*
X152035192Y-107221068D01*
X153082812Y-107387735D02*
X152368526Y-107554401D01*
X152368526Y-107554401D02*
X152368526Y-107121068D01*
X133984706Y-122173731D02*
X133984706Y-122888016D01*
X133984706Y-122888016D02*
X134032325Y-123030873D01*
X134032325Y-123030873D02*
X134127563Y-123126112D01*
X134127563Y-123126112D02*
X134270420Y-123173731D01*
X134270420Y-123173731D02*
X134365658Y-123173731D01*
X133556134Y-122268969D02*
X133508515Y-122221350D01*
X133508515Y-122221350D02*
X133413277Y-122173731D01*
X133413277Y-122173731D02*
X133175182Y-122173731D01*
X133175182Y-122173731D02*
X133079944Y-122221350D01*
X133079944Y-122221350D02*
X133032325Y-122268969D01*
X133032325Y-122268969D02*
X132984706Y-122364207D01*
X132984706Y-122364207D02*
X132984706Y-122459445D01*
X132984706Y-122459445D02*
X133032325Y-122602302D01*
X133032325Y-122602302D02*
X133603753Y-123173731D01*
X133603753Y-123173731D02*
X132984706Y-123173731D01*
X147701465Y-98735731D02*
X147749084Y-98783351D01*
X147749084Y-98783351D02*
X147891941Y-98830970D01*
X147891941Y-98830970D02*
X147987179Y-98830970D01*
X147987179Y-98830970D02*
X148130036Y-98783351D01*
X148130036Y-98783351D02*
X148225274Y-98688112D01*
X148225274Y-98688112D02*
X148272893Y-98592874D01*
X148272893Y-98592874D02*
X148320512Y-98402398D01*
X148320512Y-98402398D02*
X148320512Y-98259541D01*
X148320512Y-98259541D02*
X148272893Y-98069065D01*
X148272893Y-98069065D02*
X148225274Y-97973827D01*
X148225274Y-97973827D02*
X148130036Y-97878589D01*
X148130036Y-97878589D02*
X147987179Y-97830970D01*
X147987179Y-97830970D02*
X147891941Y-97830970D01*
X147891941Y-97830970D02*
X147749084Y-97878589D01*
X147749084Y-97878589D02*
X147701465Y-97926208D01*
X146749084Y-98830970D02*
X147320512Y-98830970D01*
X147034798Y-98830970D02*
X147034798Y-97830970D01*
X147034798Y-97830970D02*
X147130036Y-97973827D01*
X147130036Y-97973827D02*
X147225274Y-98069065D01*
X147225274Y-98069065D02*
X147320512Y-98116684D01*
X146415750Y-97830970D02*
X145749084Y-97830970D01*
X145749084Y-97830970D02*
X146177655Y-98830970D01*
X136348860Y-81727720D02*
X136348860Y-82442005D01*
X136348860Y-82442005D02*
X136396479Y-82584862D01*
X136396479Y-82584862D02*
X136491717Y-82680101D01*
X136491717Y-82680101D02*
X136634574Y-82727720D01*
X136634574Y-82727720D02*
X136729812Y-82727720D01*
X135967907Y-81727720D02*
X135301241Y-81727720D01*
X135301241Y-81727720D02*
X135729812Y-82727720D01*
X147642857Y-97359580D02*
X147690476Y-97407200D01*
X147690476Y-97407200D02*
X147833333Y-97454819D01*
X147833333Y-97454819D02*
X147928571Y-97454819D01*
X147928571Y-97454819D02*
X148071428Y-97407200D01*
X148071428Y-97407200D02*
X148166666Y-97311961D01*
X148166666Y-97311961D02*
X148214285Y-97216723D01*
X148214285Y-97216723D02*
X148261904Y-97026247D01*
X148261904Y-97026247D02*
X148261904Y-96883390D01*
X148261904Y-96883390D02*
X148214285Y-96692914D01*
X148214285Y-96692914D02*
X148166666Y-96597676D01*
X148166666Y-96597676D02*
X148071428Y-96502438D01*
X148071428Y-96502438D02*
X147928571Y-96454819D01*
X147928571Y-96454819D02*
X147833333Y-96454819D01*
X147833333Y-96454819D02*
X147690476Y-96502438D01*
X147690476Y-96502438D02*
X147642857Y-96550057D01*
X146690476Y-97454819D02*
X147261904Y-97454819D01*
X146976190Y-97454819D02*
X146976190Y-96454819D01*
X146976190Y-96454819D02*
X147071428Y-96597676D01*
X147071428Y-96597676D02*
X147166666Y-96692914D01*
X147166666Y-96692914D02*
X147261904Y-96740533D01*
X146119047Y-96883390D02*
X146214285Y-96835771D01*
X146214285Y-96835771D02*
X146261904Y-96788152D01*
X146261904Y-96788152D02*
X146309523Y-96692914D01*
X146309523Y-96692914D02*
X146309523Y-96645295D01*
X146309523Y-96645295D02*
X146261904Y-96550057D01*
X146261904Y-96550057D02*
X146214285Y-96502438D01*
X146214285Y-96502438D02*
X146119047Y-96454819D01*
X146119047Y-96454819D02*
X145928571Y-96454819D01*
X145928571Y-96454819D02*
X145833333Y-96502438D01*
X145833333Y-96502438D02*
X145785714Y-96550057D01*
X145785714Y-96550057D02*
X145738095Y-96645295D01*
X145738095Y-96645295D02*
X145738095Y-96692914D01*
X145738095Y-96692914D02*
X145785714Y-96788152D01*
X145785714Y-96788152D02*
X145833333Y-96835771D01*
X145833333Y-96835771D02*
X145928571Y-96883390D01*
X145928571Y-96883390D02*
X146119047Y-96883390D01*
X146119047Y-96883390D02*
X146214285Y-96931009D01*
X146214285Y-96931009D02*
X146261904Y-96978628D01*
X146261904Y-96978628D02*
X146309523Y-97073866D01*
X146309523Y-97073866D02*
X146309523Y-97264342D01*
X146309523Y-97264342D02*
X146261904Y-97359580D01*
X146261904Y-97359580D02*
X146214285Y-97407200D01*
X146214285Y-97407200D02*
X146119047Y-97454819D01*
X146119047Y-97454819D02*
X145928571Y-97454819D01*
X145928571Y-97454819D02*
X145833333Y-97407200D01*
X145833333Y-97407200D02*
X145785714Y-97359580D01*
X145785714Y-97359580D02*
X145738095Y-97264342D01*
X145738095Y-97264342D02*
X145738095Y-97073866D01*
X145738095Y-97073866D02*
X145785714Y-96978628D01*
X145785714Y-96978628D02*
X145833333Y-96931009D01*
X145833333Y-96931009D02*
X145928571Y-96883390D01*
X152243344Y-95980645D02*
X152243344Y-96790168D01*
X152243344Y-96790168D02*
X152195725Y-96885406D01*
X152195725Y-96885406D02*
X152148106Y-96933026D01*
X152148106Y-96933026D02*
X152052868Y-96980645D01*
X152052868Y-96980645D02*
X151862392Y-96980645D01*
X151862392Y-96980645D02*
X151767154Y-96933026D01*
X151767154Y-96933026D02*
X151719535Y-96885406D01*
X151719535Y-96885406D02*
X151671916Y-96790168D01*
X151671916Y-96790168D02*
X151671916Y-95980645D01*
X151290963Y-95980645D02*
X150671916Y-95980645D01*
X150671916Y-95980645D02*
X151005249Y-96361597D01*
X151005249Y-96361597D02*
X150862392Y-96361597D01*
X150862392Y-96361597D02*
X150767154Y-96409216D01*
X150767154Y-96409216D02*
X150719535Y-96456835D01*
X150719535Y-96456835D02*
X150671916Y-96552073D01*
X150671916Y-96552073D02*
X150671916Y-96790168D01*
X150671916Y-96790168D02*
X150719535Y-96885406D01*
X150719535Y-96885406D02*
X150767154Y-96933026D01*
X150767154Y-96933026D02*
X150862392Y-96980645D01*
X150862392Y-96980645D02*
X151148106Y-96980645D01*
X151148106Y-96980645D02*
X151243344Y-96933026D01*
X151243344Y-96933026D02*
X151290963Y-96885406D01*
X153825369Y-84804913D02*
X153872988Y-84852533D01*
X153872988Y-84852533D02*
X154015845Y-84900152D01*
X154015845Y-84900152D02*
X154111083Y-84900152D01*
X154111083Y-84900152D02*
X154253940Y-84852533D01*
X154253940Y-84852533D02*
X154349178Y-84757294D01*
X154349178Y-84757294D02*
X154396797Y-84662056D01*
X154396797Y-84662056D02*
X154444416Y-84471580D01*
X154444416Y-84471580D02*
X154444416Y-84328723D01*
X154444416Y-84328723D02*
X154396797Y-84138247D01*
X154396797Y-84138247D02*
X154349178Y-84043009D01*
X154349178Y-84043009D02*
X154253940Y-83947771D01*
X154253940Y-83947771D02*
X154111083Y-83900152D01*
X154111083Y-83900152D02*
X154015845Y-83900152D01*
X154015845Y-83900152D02*
X153872988Y-83947771D01*
X153872988Y-83947771D02*
X153825369Y-83995390D01*
X152872988Y-84900152D02*
X153444416Y-84900152D01*
X153158702Y-84900152D02*
X153158702Y-83900152D01*
X153158702Y-83900152D02*
X153253940Y-84043009D01*
X153253940Y-84043009D02*
X153349178Y-84138247D01*
X153349178Y-84138247D02*
X153444416Y-84185866D01*
X141288189Y-76255307D02*
X141335808Y-76302927D01*
X141335808Y-76302927D02*
X141478665Y-76350546D01*
X141478665Y-76350546D02*
X141573903Y-76350546D01*
X141573903Y-76350546D02*
X141716760Y-76302927D01*
X141716760Y-76302927D02*
X141811998Y-76207688D01*
X141811998Y-76207688D02*
X141859617Y-76112450D01*
X141859617Y-76112450D02*
X141907236Y-75921974D01*
X141907236Y-75921974D02*
X141907236Y-75779117D01*
X141907236Y-75779117D02*
X141859617Y-75588641D01*
X141859617Y-75588641D02*
X141811998Y-75493403D01*
X141811998Y-75493403D02*
X141716760Y-75398165D01*
X141716760Y-75398165D02*
X141573903Y-75350546D01*
X141573903Y-75350546D02*
X141478665Y-75350546D01*
X141478665Y-75350546D02*
X141335808Y-75398165D01*
X141335808Y-75398165D02*
X141288189Y-75445784D01*
X140811998Y-76350546D02*
X140621522Y-76350546D01*
X140621522Y-76350546D02*
X140526284Y-76302927D01*
X140526284Y-76302927D02*
X140478665Y-76255307D01*
X140478665Y-76255307D02*
X140383427Y-76112450D01*
X140383427Y-76112450D02*
X140335808Y-75921974D01*
X140335808Y-75921974D02*
X140335808Y-75541022D01*
X140335808Y-75541022D02*
X140383427Y-75445784D01*
X140383427Y-75445784D02*
X140431046Y-75398165D01*
X140431046Y-75398165D02*
X140526284Y-75350546D01*
X140526284Y-75350546D02*
X140716760Y-75350546D01*
X140716760Y-75350546D02*
X140811998Y-75398165D01*
X140811998Y-75398165D02*
X140859617Y-75445784D01*
X140859617Y-75445784D02*
X140907236Y-75541022D01*
X140907236Y-75541022D02*
X140907236Y-75779117D01*
X140907236Y-75779117D02*
X140859617Y-75874355D01*
X140859617Y-75874355D02*
X140811998Y-75921974D01*
X140811998Y-75921974D02*
X140716760Y-75969593D01*
X140716760Y-75969593D02*
X140526284Y-75969593D01*
X140526284Y-75969593D02*
X140431046Y-75921974D01*
X140431046Y-75921974D02*
X140383427Y-75874355D01*
X140383427Y-75874355D02*
X140335808Y-75779117D01*
X147859580Y-80833333D02*
X147907200Y-80785714D01*
X147907200Y-80785714D02*
X147954819Y-80642857D01*
X147954819Y-80642857D02*
X147954819Y-80547619D01*
X147954819Y-80547619D02*
X147907200Y-80404762D01*
X147907200Y-80404762D02*
X147811961Y-80309524D01*
X147811961Y-80309524D02*
X147716723Y-80261905D01*
X147716723Y-80261905D02*
X147526247Y-80214286D01*
X147526247Y-80214286D02*
X147383390Y-80214286D01*
X147383390Y-80214286D02*
X147192914Y-80261905D01*
X147192914Y-80261905D02*
X147097676Y-80309524D01*
X147097676Y-80309524D02*
X147002438Y-80404762D01*
X147002438Y-80404762D02*
X146954819Y-80547619D01*
X146954819Y-80547619D02*
X146954819Y-80642857D01*
X146954819Y-80642857D02*
X147002438Y-80785714D01*
X147002438Y-80785714D02*
X147050057Y-80833333D01*
X146954819Y-81166667D02*
X146954819Y-81833333D01*
X146954819Y-81833333D02*
X147954819Y-81404762D01*
X159191573Y-100393158D02*
X159191573Y-99393158D01*
X159191573Y-99393158D02*
X158953478Y-99393158D01*
X158953478Y-99393158D02*
X158810621Y-99440777D01*
X158810621Y-99440777D02*
X158715383Y-99536015D01*
X158715383Y-99536015D02*
X158667764Y-99631253D01*
X158667764Y-99631253D02*
X158620145Y-99821729D01*
X158620145Y-99821729D02*
X158620145Y-99964586D01*
X158620145Y-99964586D02*
X158667764Y-100155062D01*
X158667764Y-100155062D02*
X158715383Y-100250300D01*
X158715383Y-100250300D02*
X158810621Y-100345539D01*
X158810621Y-100345539D02*
X158953478Y-100393158D01*
X158953478Y-100393158D02*
X159191573Y-100393158D01*
X158286811Y-99393158D02*
X157667764Y-99393158D01*
X157667764Y-99393158D02*
X158001097Y-99774110D01*
X158001097Y-99774110D02*
X157858240Y-99774110D01*
X157858240Y-99774110D02*
X157763002Y-99821729D01*
X157763002Y-99821729D02*
X157715383Y-99869348D01*
X157715383Y-99869348D02*
X157667764Y-99964586D01*
X157667764Y-99964586D02*
X157667764Y-100202681D01*
X157667764Y-100202681D02*
X157715383Y-100297919D01*
X157715383Y-100297919D02*
X157763002Y-100345539D01*
X157763002Y-100345539D02*
X157858240Y-100393158D01*
X157858240Y-100393158D02*
X158143954Y-100393158D01*
X158143954Y-100393158D02*
X158239192Y-100345539D01*
X158239192Y-100345539D02*
X158286811Y-100297919D01*
X133315533Y-118512775D02*
X134029818Y-118512775D01*
X134029818Y-118512775D02*
X134172675Y-118465156D01*
X134172675Y-118465156D02*
X134267914Y-118369918D01*
X134267914Y-118369918D02*
X134315533Y-118227061D01*
X134315533Y-118227061D02*
X134315533Y-118131823D01*
X133648866Y-119417537D02*
X134315533Y-119417537D01*
X133267914Y-119179442D02*
X133982199Y-118941347D01*
X133982199Y-118941347D02*
X133982199Y-119560394D01*
X149754856Y-82178723D02*
X150088189Y-81702532D01*
X150326284Y-82178723D02*
X150326284Y-81178723D01*
X150326284Y-81178723D02*
X149945332Y-81178723D01*
X149945332Y-81178723D02*
X149850094Y-81226342D01*
X149850094Y-81226342D02*
X149802475Y-81273961D01*
X149802475Y-81273961D02*
X149754856Y-81369199D01*
X149754856Y-81369199D02*
X149754856Y-81512056D01*
X149754856Y-81512056D02*
X149802475Y-81607294D01*
X149802475Y-81607294D02*
X149850094Y-81654913D01*
X149850094Y-81654913D02*
X149945332Y-81702532D01*
X149945332Y-81702532D02*
X150326284Y-81702532D01*
X149421522Y-81178723D02*
X148754856Y-81178723D01*
X148754856Y-81178723D02*
X149183427Y-82178723D01*
X167702204Y-89450280D02*
X167749823Y-89497900D01*
X167749823Y-89497900D02*
X167892680Y-89545519D01*
X167892680Y-89545519D02*
X167987918Y-89545519D01*
X167987918Y-89545519D02*
X168130775Y-89497900D01*
X168130775Y-89497900D02*
X168226013Y-89402661D01*
X168226013Y-89402661D02*
X168273632Y-89307423D01*
X168273632Y-89307423D02*
X168321251Y-89116947D01*
X168321251Y-89116947D02*
X168321251Y-88974090D01*
X168321251Y-88974090D02*
X168273632Y-88783614D01*
X168273632Y-88783614D02*
X168226013Y-88688376D01*
X168226013Y-88688376D02*
X168130775Y-88593138D01*
X168130775Y-88593138D02*
X167987918Y-88545519D01*
X167987918Y-88545519D02*
X167892680Y-88545519D01*
X167892680Y-88545519D02*
X167749823Y-88593138D01*
X167749823Y-88593138D02*
X167702204Y-88640757D01*
X167321251Y-88640757D02*
X167273632Y-88593138D01*
X167273632Y-88593138D02*
X167178394Y-88545519D01*
X167178394Y-88545519D02*
X166940299Y-88545519D01*
X166940299Y-88545519D02*
X166845061Y-88593138D01*
X166845061Y-88593138D02*
X166797442Y-88640757D01*
X166797442Y-88640757D02*
X166749823Y-88735995D01*
X166749823Y-88735995D02*
X166749823Y-88831233D01*
X166749823Y-88831233D02*
X166797442Y-88974090D01*
X166797442Y-88974090D02*
X167368870Y-89545519D01*
X167368870Y-89545519D02*
X166749823Y-89545519D01*
X166416489Y-88545519D02*
X165797442Y-88545519D01*
X165797442Y-88545519D02*
X166130775Y-88926471D01*
X166130775Y-88926471D02*
X165987918Y-88926471D01*
X165987918Y-88926471D02*
X165892680Y-88974090D01*
X165892680Y-88974090D02*
X165845061Y-89021709D01*
X165845061Y-89021709D02*
X165797442Y-89116947D01*
X165797442Y-89116947D02*
X165797442Y-89355042D01*
X165797442Y-89355042D02*
X165845061Y-89450280D01*
X165845061Y-89450280D02*
X165892680Y-89497900D01*
X165892680Y-89497900D02*
X165987918Y-89545519D01*
X165987918Y-89545519D02*
X166273632Y-89545519D01*
X166273632Y-89545519D02*
X166368870Y-89497900D01*
X166368870Y-89497900D02*
X166416489Y-89450280D01*
X136954819Y-99738095D02*
X137764342Y-99738095D01*
X137764342Y-99738095D02*
X137859580Y-99785714D01*
X137859580Y-99785714D02*
X137907200Y-99833333D01*
X137907200Y-99833333D02*
X137954819Y-99928571D01*
X137954819Y-99928571D02*
X137954819Y-100119047D01*
X137954819Y-100119047D02*
X137907200Y-100214285D01*
X137907200Y-100214285D02*
X137859580Y-100261904D01*
X137859580Y-100261904D02*
X137764342Y-100309523D01*
X137764342Y-100309523D02*
X136954819Y-100309523D01*
X136954819Y-101214285D02*
X136954819Y-101023809D01*
X136954819Y-101023809D02*
X137002438Y-100928571D01*
X137002438Y-100928571D02*
X137050057Y-100880952D01*
X137050057Y-100880952D02*
X137192914Y-100785714D01*
X137192914Y-100785714D02*
X137383390Y-100738095D01*
X137383390Y-100738095D02*
X137764342Y-100738095D01*
X137764342Y-100738095D02*
X137859580Y-100785714D01*
X137859580Y-100785714D02*
X137907200Y-100833333D01*
X137907200Y-100833333D02*
X137954819Y-100928571D01*
X137954819Y-100928571D02*
X137954819Y-101119047D01*
X137954819Y-101119047D02*
X137907200Y-101214285D01*
X137907200Y-101214285D02*
X137859580Y-101261904D01*
X137859580Y-101261904D02*
X137764342Y-101309523D01*
X137764342Y-101309523D02*
X137526247Y-101309523D01*
X137526247Y-101309523D02*
X137431009Y-101261904D01*
X137431009Y-101261904D02*
X137383390Y-101214285D01*
X137383390Y-101214285D02*
X137335771Y-101119047D01*
X137335771Y-101119047D02*
X137335771Y-100928571D01*
X137335771Y-100928571D02*
X137383390Y-100833333D01*
X137383390Y-100833333D02*
X137431009Y-100785714D01*
X137431009Y-100785714D02*
X137526247Y-100738095D01*
X147550698Y-110941622D02*
X148264983Y-110941622D01*
X148264983Y-110941622D02*
X148407840Y-110894003D01*
X148407840Y-110894003D02*
X148503079Y-110798765D01*
X148503079Y-110798765D02*
X148550698Y-110655908D01*
X148550698Y-110655908D02*
X148550698Y-110560670D01*
X147550698Y-111322575D02*
X147550698Y-111941622D01*
X147550698Y-111941622D02*
X147931650Y-111608289D01*
X147931650Y-111608289D02*
X147931650Y-111751146D01*
X147931650Y-111751146D02*
X147979269Y-111846384D01*
X147979269Y-111846384D02*
X148026888Y-111894003D01*
X148026888Y-111894003D02*
X148122126Y-111941622D01*
X148122126Y-111941622D02*
X148360221Y-111941622D01*
X148360221Y-111941622D02*
X148455459Y-111894003D01*
X148455459Y-111894003D02*
X148503079Y-111846384D01*
X148503079Y-111846384D02*
X148550698Y-111751146D01*
X148550698Y-111751146D02*
X148550698Y-111465432D01*
X148550698Y-111465432D02*
X148503079Y-111370194D01*
X148503079Y-111370194D02*
X148455459Y-111322575D01*
X143800277Y-77408210D02*
X143847896Y-77455830D01*
X143847896Y-77455830D02*
X143990753Y-77503449D01*
X143990753Y-77503449D02*
X144085991Y-77503449D01*
X144085991Y-77503449D02*
X144228848Y-77455830D01*
X144228848Y-77455830D02*
X144324086Y-77360591D01*
X144324086Y-77360591D02*
X144371705Y-77265353D01*
X144371705Y-77265353D02*
X144419324Y-77074877D01*
X144419324Y-77074877D02*
X144419324Y-76932020D01*
X144419324Y-76932020D02*
X144371705Y-76741544D01*
X144371705Y-76741544D02*
X144324086Y-76646306D01*
X144324086Y-76646306D02*
X144228848Y-76551068D01*
X144228848Y-76551068D02*
X144085991Y-76503449D01*
X144085991Y-76503449D02*
X143990753Y-76503449D01*
X143990753Y-76503449D02*
X143847896Y-76551068D01*
X143847896Y-76551068D02*
X143800277Y-76598687D01*
X143228848Y-76932020D02*
X143324086Y-76884401D01*
X143324086Y-76884401D02*
X143371705Y-76836782D01*
X143371705Y-76836782D02*
X143419324Y-76741544D01*
X143419324Y-76741544D02*
X143419324Y-76693925D01*
X143419324Y-76693925D02*
X143371705Y-76598687D01*
X143371705Y-76598687D02*
X143324086Y-76551068D01*
X143324086Y-76551068D02*
X143228848Y-76503449D01*
X143228848Y-76503449D02*
X143038372Y-76503449D01*
X143038372Y-76503449D02*
X142943134Y-76551068D01*
X142943134Y-76551068D02*
X142895515Y-76598687D01*
X142895515Y-76598687D02*
X142847896Y-76693925D01*
X142847896Y-76693925D02*
X142847896Y-76741544D01*
X142847896Y-76741544D02*
X142895515Y-76836782D01*
X142895515Y-76836782D02*
X142943134Y-76884401D01*
X142943134Y-76884401D02*
X143038372Y-76932020D01*
X143038372Y-76932020D02*
X143228848Y-76932020D01*
X143228848Y-76932020D02*
X143324086Y-76979639D01*
X143324086Y-76979639D02*
X143371705Y-77027258D01*
X143371705Y-77027258D02*
X143419324Y-77122496D01*
X143419324Y-77122496D02*
X143419324Y-77312972D01*
X143419324Y-77312972D02*
X143371705Y-77408210D01*
X143371705Y-77408210D02*
X143324086Y-77455830D01*
X143324086Y-77455830D02*
X143228848Y-77503449D01*
X143228848Y-77503449D02*
X143038372Y-77503449D01*
X143038372Y-77503449D02*
X142943134Y-77455830D01*
X142943134Y-77455830D02*
X142895515Y-77408210D01*
X142895515Y-77408210D02*
X142847896Y-77312972D01*
X142847896Y-77312972D02*
X142847896Y-77122496D01*
X142847896Y-77122496D02*
X142895515Y-77027258D01*
X142895515Y-77027258D02*
X142943134Y-76979639D01*
X142943134Y-76979639D02*
X143038372Y-76932020D01*
X156684703Y-92437910D02*
X157018036Y-91961719D01*
X157256131Y-92437910D02*
X157256131Y-91437910D01*
X157256131Y-91437910D02*
X156875179Y-91437910D01*
X156875179Y-91437910D02*
X156779941Y-91485529D01*
X156779941Y-91485529D02*
X156732322Y-91533148D01*
X156732322Y-91533148D02*
X156684703Y-91628386D01*
X156684703Y-91628386D02*
X156684703Y-91771243D01*
X156684703Y-91771243D02*
X156732322Y-91866481D01*
X156732322Y-91866481D02*
X156779941Y-91914100D01*
X156779941Y-91914100D02*
X156875179Y-91961719D01*
X156875179Y-91961719D02*
X157256131Y-91961719D01*
X155732322Y-92437910D02*
X156303750Y-92437910D01*
X156018036Y-92437910D02*
X156018036Y-91437910D01*
X156018036Y-91437910D02*
X156113274Y-91580767D01*
X156113274Y-91580767D02*
X156208512Y-91676005D01*
X156208512Y-91676005D02*
X156303750Y-91723624D01*
X155351369Y-91533148D02*
X155303750Y-91485529D01*
X155303750Y-91485529D02*
X155208512Y-91437910D01*
X155208512Y-91437910D02*
X154970417Y-91437910D01*
X154970417Y-91437910D02*
X154875179Y-91485529D01*
X154875179Y-91485529D02*
X154827560Y-91533148D01*
X154827560Y-91533148D02*
X154779941Y-91628386D01*
X154779941Y-91628386D02*
X154779941Y-91723624D01*
X154779941Y-91723624D02*
X154827560Y-91866481D01*
X154827560Y-91866481D02*
X155398988Y-92437910D01*
X155398988Y-92437910D02*
X154779941Y-92437910D01*
X128465808Y-118338325D02*
X129180093Y-118338325D01*
X129180093Y-118338325D02*
X129322950Y-118290706D01*
X129322950Y-118290706D02*
X129418189Y-118195468D01*
X129418189Y-118195468D02*
X129465808Y-118052611D01*
X129465808Y-118052611D02*
X129465808Y-117957373D01*
X128465808Y-119290706D02*
X128465808Y-118814516D01*
X128465808Y-118814516D02*
X128941998Y-118766897D01*
X128941998Y-118766897D02*
X128894379Y-118814516D01*
X128894379Y-118814516D02*
X128846760Y-118909754D01*
X128846760Y-118909754D02*
X128846760Y-119147849D01*
X128846760Y-119147849D02*
X128894379Y-119243087D01*
X128894379Y-119243087D02*
X128941998Y-119290706D01*
X128941998Y-119290706D02*
X129037236Y-119338325D01*
X129037236Y-119338325D02*
X129275331Y-119338325D01*
X129275331Y-119338325D02*
X129370569Y-119290706D01*
X129370569Y-119290706D02*
X129418189Y-119243087D01*
X129418189Y-119243087D02*
X129465808Y-119147849D01*
X129465808Y-119147849D02*
X129465808Y-118909754D01*
X129465808Y-118909754D02*
X129418189Y-118814516D01*
X129418189Y-118814516D02*
X129370569Y-118766897D01*
X127642857Y-103954819D02*
X127976190Y-103478628D01*
X128214285Y-103954819D02*
X128214285Y-102954819D01*
X128214285Y-102954819D02*
X127833333Y-102954819D01*
X127833333Y-102954819D02*
X127738095Y-103002438D01*
X127738095Y-103002438D02*
X127690476Y-103050057D01*
X127690476Y-103050057D02*
X127642857Y-103145295D01*
X127642857Y-103145295D02*
X127642857Y-103288152D01*
X127642857Y-103288152D02*
X127690476Y-103383390D01*
X127690476Y-103383390D02*
X127738095Y-103431009D01*
X127738095Y-103431009D02*
X127833333Y-103478628D01*
X127833333Y-103478628D02*
X128214285Y-103478628D01*
X126690476Y-103954819D02*
X127261904Y-103954819D01*
X126976190Y-103954819D02*
X126976190Y-102954819D01*
X126976190Y-102954819D02*
X127071428Y-103097676D01*
X127071428Y-103097676D02*
X127166666Y-103192914D01*
X127166666Y-103192914D02*
X127261904Y-103240533D01*
X126357142Y-102954819D02*
X125738095Y-102954819D01*
X125738095Y-102954819D02*
X126071428Y-103335771D01*
X126071428Y-103335771D02*
X125928571Y-103335771D01*
X125928571Y-103335771D02*
X125833333Y-103383390D01*
X125833333Y-103383390D02*
X125785714Y-103431009D01*
X125785714Y-103431009D02*
X125738095Y-103526247D01*
X125738095Y-103526247D02*
X125738095Y-103764342D01*
X125738095Y-103764342D02*
X125785714Y-103859580D01*
X125785714Y-103859580D02*
X125833333Y-103907200D01*
X125833333Y-103907200D02*
X125928571Y-103954819D01*
X125928571Y-103954819D02*
X126214285Y-103954819D01*
X126214285Y-103954819D02*
X126309523Y-103907200D01*
X126309523Y-103907200D02*
X126357142Y-103859580D01*
X173769051Y-92225982D02*
X173816670Y-92273602D01*
X173816670Y-92273602D02*
X173959527Y-92321221D01*
X173959527Y-92321221D02*
X174054765Y-92321221D01*
X174054765Y-92321221D02*
X174197622Y-92273602D01*
X174197622Y-92273602D02*
X174292860Y-92178363D01*
X174292860Y-92178363D02*
X174340479Y-92083125D01*
X174340479Y-92083125D02*
X174388098Y-91892649D01*
X174388098Y-91892649D02*
X174388098Y-91749792D01*
X174388098Y-91749792D02*
X174340479Y-91559316D01*
X174340479Y-91559316D02*
X174292860Y-91464078D01*
X174292860Y-91464078D02*
X174197622Y-91368840D01*
X174197622Y-91368840D02*
X174054765Y-91321221D01*
X174054765Y-91321221D02*
X173959527Y-91321221D01*
X173959527Y-91321221D02*
X173816670Y-91368840D01*
X173816670Y-91368840D02*
X173769051Y-91416459D01*
X173388098Y-91416459D02*
X173340479Y-91368840D01*
X173340479Y-91368840D02*
X173245241Y-91321221D01*
X173245241Y-91321221D02*
X173007146Y-91321221D01*
X173007146Y-91321221D02*
X172911908Y-91368840D01*
X172911908Y-91368840D02*
X172864289Y-91416459D01*
X172864289Y-91416459D02*
X172816670Y-91511697D01*
X172816670Y-91511697D02*
X172816670Y-91606935D01*
X172816670Y-91606935D02*
X172864289Y-91749792D01*
X172864289Y-91749792D02*
X173435717Y-92321221D01*
X173435717Y-92321221D02*
X172816670Y-92321221D01*
X171864289Y-92321221D02*
X172435717Y-92321221D01*
X172150003Y-92321221D02*
X172150003Y-91321221D01*
X172150003Y-91321221D02*
X172245241Y-91464078D01*
X172245241Y-91464078D02*
X172340479Y-91559316D01*
X172340479Y-91559316D02*
X172435717Y-91606935D01*
X129133333Y-87205467D02*
X129133333Y-87919752D01*
X129133333Y-87919752D02*
X129180952Y-88062609D01*
X129180952Y-88062609D02*
X129276190Y-88157848D01*
X129276190Y-88157848D02*
X129419047Y-88205467D01*
X129419047Y-88205467D02*
X129514285Y-88205467D01*
X128228571Y-87205467D02*
X128419047Y-87205467D01*
X128419047Y-87205467D02*
X128514285Y-87253086D01*
X128514285Y-87253086D02*
X128561904Y-87300705D01*
X128561904Y-87300705D02*
X128657142Y-87443562D01*
X128657142Y-87443562D02*
X128704761Y-87634038D01*
X128704761Y-87634038D02*
X128704761Y-88014990D01*
X128704761Y-88014990D02*
X128657142Y-88110228D01*
X128657142Y-88110228D02*
X128609523Y-88157848D01*
X128609523Y-88157848D02*
X128514285Y-88205467D01*
X128514285Y-88205467D02*
X128323809Y-88205467D01*
X128323809Y-88205467D02*
X128228571Y-88157848D01*
X128228571Y-88157848D02*
X128180952Y-88110228D01*
X128180952Y-88110228D02*
X128133333Y-88014990D01*
X128133333Y-88014990D02*
X128133333Y-87776895D01*
X128133333Y-87776895D02*
X128180952Y-87681657D01*
X128180952Y-87681657D02*
X128228571Y-87634038D01*
X128228571Y-87634038D02*
X128323809Y-87586419D01*
X128323809Y-87586419D02*
X128514285Y-87586419D01*
X128514285Y-87586419D02*
X128609523Y-87634038D01*
X128609523Y-87634038D02*
X128657142Y-87681657D01*
X128657142Y-87681657D02*
X128704761Y-87776895D01*
X169283889Y-95947594D02*
X169331508Y-95995214D01*
X169331508Y-95995214D02*
X169474365Y-96042833D01*
X169474365Y-96042833D02*
X169569603Y-96042833D01*
X169569603Y-96042833D02*
X169712460Y-95995214D01*
X169712460Y-95995214D02*
X169807698Y-95899975D01*
X169807698Y-95899975D02*
X169855317Y-95804737D01*
X169855317Y-95804737D02*
X169902936Y-95614261D01*
X169902936Y-95614261D02*
X169902936Y-95471404D01*
X169902936Y-95471404D02*
X169855317Y-95280928D01*
X169855317Y-95280928D02*
X169807698Y-95185690D01*
X169807698Y-95185690D02*
X169712460Y-95090452D01*
X169712460Y-95090452D02*
X169569603Y-95042833D01*
X169569603Y-95042833D02*
X169474365Y-95042833D01*
X169474365Y-95042833D02*
X169331508Y-95090452D01*
X169331508Y-95090452D02*
X169283889Y-95138071D01*
X168902936Y-95138071D02*
X168855317Y-95090452D01*
X168855317Y-95090452D02*
X168760079Y-95042833D01*
X168760079Y-95042833D02*
X168521984Y-95042833D01*
X168521984Y-95042833D02*
X168426746Y-95090452D01*
X168426746Y-95090452D02*
X168379127Y-95138071D01*
X168379127Y-95138071D02*
X168331508Y-95233309D01*
X168331508Y-95233309D02*
X168331508Y-95328547D01*
X168331508Y-95328547D02*
X168379127Y-95471404D01*
X168379127Y-95471404D02*
X168950555Y-96042833D01*
X168950555Y-96042833D02*
X168331508Y-96042833D01*
X167712460Y-95042833D02*
X167617222Y-95042833D01*
X167617222Y-95042833D02*
X167521984Y-95090452D01*
X167521984Y-95090452D02*
X167474365Y-95138071D01*
X167474365Y-95138071D02*
X167426746Y-95233309D01*
X167426746Y-95233309D02*
X167379127Y-95423785D01*
X167379127Y-95423785D02*
X167379127Y-95661880D01*
X167379127Y-95661880D02*
X167426746Y-95852356D01*
X167426746Y-95852356D02*
X167474365Y-95947594D01*
X167474365Y-95947594D02*
X167521984Y-95995214D01*
X167521984Y-95995214D02*
X167617222Y-96042833D01*
X167617222Y-96042833D02*
X167712460Y-96042833D01*
X167712460Y-96042833D02*
X167807698Y-95995214D01*
X167807698Y-95995214D02*
X167855317Y-95947594D01*
X167855317Y-95947594D02*
X167902936Y-95852356D01*
X167902936Y-95852356D02*
X167950555Y-95661880D01*
X167950555Y-95661880D02*
X167950555Y-95423785D01*
X167950555Y-95423785D02*
X167902936Y-95233309D01*
X167902936Y-95233309D02*
X167855317Y-95138071D01*
X167855317Y-95138071D02*
X167807698Y-95090452D01*
X167807698Y-95090452D02*
X167712460Y-95042833D01*
X163779005Y-94956405D02*
X163826624Y-95004025D01*
X163826624Y-95004025D02*
X163969481Y-95051644D01*
X163969481Y-95051644D02*
X164064719Y-95051644D01*
X164064719Y-95051644D02*
X164207576Y-95004025D01*
X164207576Y-95004025D02*
X164302814Y-94908786D01*
X164302814Y-94908786D02*
X164350433Y-94813548D01*
X164350433Y-94813548D02*
X164398052Y-94623072D01*
X164398052Y-94623072D02*
X164398052Y-94480215D01*
X164398052Y-94480215D02*
X164350433Y-94289739D01*
X164350433Y-94289739D02*
X164302814Y-94194501D01*
X164302814Y-94194501D02*
X164207576Y-94099263D01*
X164207576Y-94099263D02*
X164064719Y-94051644D01*
X164064719Y-94051644D02*
X163969481Y-94051644D01*
X163969481Y-94051644D02*
X163826624Y-94099263D01*
X163826624Y-94099263D02*
X163779005Y-94146882D01*
X163398052Y-94146882D02*
X163350433Y-94099263D01*
X163350433Y-94099263D02*
X163255195Y-94051644D01*
X163255195Y-94051644D02*
X163017100Y-94051644D01*
X163017100Y-94051644D02*
X162921862Y-94099263D01*
X162921862Y-94099263D02*
X162874243Y-94146882D01*
X162874243Y-94146882D02*
X162826624Y-94242120D01*
X162826624Y-94242120D02*
X162826624Y-94337358D01*
X162826624Y-94337358D02*
X162874243Y-94480215D01*
X162874243Y-94480215D02*
X163445671Y-95051644D01*
X163445671Y-95051644D02*
X162826624Y-95051644D01*
X162445671Y-94146882D02*
X162398052Y-94099263D01*
X162398052Y-94099263D02*
X162302814Y-94051644D01*
X162302814Y-94051644D02*
X162064719Y-94051644D01*
X162064719Y-94051644D02*
X161969481Y-94099263D01*
X161969481Y-94099263D02*
X161921862Y-94146882D01*
X161921862Y-94146882D02*
X161874243Y-94242120D01*
X161874243Y-94242120D02*
X161874243Y-94337358D01*
X161874243Y-94337358D02*
X161921862Y-94480215D01*
X161921862Y-94480215D02*
X162493290Y-95051644D01*
X162493290Y-95051644D02*
X161874243Y-95051644D01*
X163285856Y-88815258D02*
X163619189Y-88339067D01*
X163857284Y-88815258D02*
X163857284Y-87815258D01*
X163857284Y-87815258D02*
X163476332Y-87815258D01*
X163476332Y-87815258D02*
X163381094Y-87862877D01*
X163381094Y-87862877D02*
X163333475Y-87910496D01*
X163333475Y-87910496D02*
X163285856Y-88005734D01*
X163285856Y-88005734D02*
X163285856Y-88148591D01*
X163285856Y-88148591D02*
X163333475Y-88243829D01*
X163333475Y-88243829D02*
X163381094Y-88291448D01*
X163381094Y-88291448D02*
X163476332Y-88339067D01*
X163476332Y-88339067D02*
X163857284Y-88339067D01*
X162333475Y-88815258D02*
X162904903Y-88815258D01*
X162619189Y-88815258D02*
X162619189Y-87815258D01*
X162619189Y-87815258D02*
X162714427Y-87958115D01*
X162714427Y-87958115D02*
X162809665Y-88053353D01*
X162809665Y-88053353D02*
X162904903Y-88100972D01*
X161476332Y-87815258D02*
X161666808Y-87815258D01*
X161666808Y-87815258D02*
X161762046Y-87862877D01*
X161762046Y-87862877D02*
X161809665Y-87910496D01*
X161809665Y-87910496D02*
X161904903Y-88053353D01*
X161904903Y-88053353D02*
X161952522Y-88243829D01*
X161952522Y-88243829D02*
X161952522Y-88624781D01*
X161952522Y-88624781D02*
X161904903Y-88720019D01*
X161904903Y-88720019D02*
X161857284Y-88767639D01*
X161857284Y-88767639D02*
X161762046Y-88815258D01*
X161762046Y-88815258D02*
X161571570Y-88815258D01*
X161571570Y-88815258D02*
X161476332Y-88767639D01*
X161476332Y-88767639D02*
X161428713Y-88720019D01*
X161428713Y-88720019D02*
X161381094Y-88624781D01*
X161381094Y-88624781D02*
X161381094Y-88386686D01*
X161381094Y-88386686D02*
X161428713Y-88291448D01*
X161428713Y-88291448D02*
X161476332Y-88243829D01*
X161476332Y-88243829D02*
X161571570Y-88196210D01*
X161571570Y-88196210D02*
X161762046Y-88196210D01*
X161762046Y-88196210D02*
X161857284Y-88243829D01*
X161857284Y-88243829D02*
X161904903Y-88291448D01*
X161904903Y-88291448D02*
X161952522Y-88386686D01*
X145282910Y-101913021D02*
X145616243Y-101436830D01*
X145854338Y-101913021D02*
X145854338Y-100913021D01*
X145854338Y-100913021D02*
X145473386Y-100913021D01*
X145473386Y-100913021D02*
X145378148Y-100960640D01*
X145378148Y-100960640D02*
X145330529Y-101008259D01*
X145330529Y-101008259D02*
X145282910Y-101103497D01*
X145282910Y-101103497D02*
X145282910Y-101246354D01*
X145282910Y-101246354D02*
X145330529Y-101341592D01*
X145330529Y-101341592D02*
X145378148Y-101389211D01*
X145378148Y-101389211D02*
X145473386Y-101436830D01*
X145473386Y-101436830D02*
X145854338Y-101436830D01*
X144425767Y-101246354D02*
X144425767Y-101913021D01*
X144663862Y-100865402D02*
X144901957Y-101579687D01*
X144901957Y-101579687D02*
X144282910Y-101579687D01*
X146940847Y-104335797D02*
X147274180Y-103859606D01*
X147512275Y-104335797D02*
X147512275Y-103335797D01*
X147512275Y-103335797D02*
X147131323Y-103335797D01*
X147131323Y-103335797D02*
X147036085Y-103383416D01*
X147036085Y-103383416D02*
X146988466Y-103431035D01*
X146988466Y-103431035D02*
X146940847Y-103526273D01*
X146940847Y-103526273D02*
X146940847Y-103669130D01*
X146940847Y-103669130D02*
X146988466Y-103764368D01*
X146988466Y-103764368D02*
X147036085Y-103811987D01*
X147036085Y-103811987D02*
X147131323Y-103859606D01*
X147131323Y-103859606D02*
X147512275Y-103859606D01*
X146607513Y-103335797D02*
X145988466Y-103335797D01*
X145988466Y-103335797D02*
X146321799Y-103716749D01*
X146321799Y-103716749D02*
X146178942Y-103716749D01*
X146178942Y-103716749D02*
X146083704Y-103764368D01*
X146083704Y-103764368D02*
X146036085Y-103811987D01*
X146036085Y-103811987D02*
X145988466Y-103907225D01*
X145988466Y-103907225D02*
X145988466Y-104145320D01*
X145988466Y-104145320D02*
X146036085Y-104240558D01*
X146036085Y-104240558D02*
X146083704Y-104288178D01*
X146083704Y-104288178D02*
X146178942Y-104335797D01*
X146178942Y-104335797D02*
X146464656Y-104335797D01*
X146464656Y-104335797D02*
X146559894Y-104288178D01*
X146559894Y-104288178D02*
X146607513Y-104240558D01*
D11*
%TO.C,J2*%
X134950000Y-120800000D02*
X135700000Y-120800000D01*
X135700000Y-120800000D02*
X135700000Y-123750000D01*
X135700000Y-123750000D02*
X141250000Y-123750000D01*
X146600000Y-118250000D02*
X147850000Y-118250000D01*
X146800000Y-120800000D02*
X146800000Y-123750000D01*
X146800000Y-123750000D02*
X141250000Y-123750000D01*
X147550000Y-120800000D02*
X146800000Y-120800000D01*
X147850000Y-118250000D02*
X147850000Y-119500000D01*
X136750000Y-118550000D02*
X134950000Y-118550000D01*
X134950000Y-119300000D01*
X136750000Y-119300000D01*
X136750000Y-118550000D01*
X144250000Y-118550000D02*
X138250000Y-118550000D01*
X138250000Y-119300000D01*
X144250000Y-119300000D01*
X144250000Y-118550000D01*
X147550000Y-118550000D02*
X145750000Y-118550000D01*
X145750000Y-119300000D01*
X147550000Y-119300000D01*
X147550000Y-118550000D01*
X147560000Y-118540000D02*
X134940000Y-118540000D01*
X134940000Y-124510000D01*
X147560000Y-124510000D01*
X147560000Y-118540000D01*
%TO.C,C17*%
X143488748Y-99006359D02*
X144011252Y-99006359D01*
X143488748Y-100476359D02*
X144011252Y-100476359D01*
%TO.C,J7*%
X133250000Y-83150000D02*
X134500000Y-83150000D01*
X133250000Y-84400000D02*
X133250000Y-83150000D01*
X135800000Y-83450000D02*
X135800000Y-84200000D01*
X135800000Y-84200000D02*
X138750000Y-84200000D01*
X135800000Y-95300000D02*
X138750000Y-95300000D01*
X135800000Y-96050000D02*
X135800000Y-95300000D01*
X138750000Y-84200000D02*
X138750000Y-89750000D01*
X138750000Y-95300000D02*
X138750000Y-89750000D01*
X133540000Y-83440000D02*
X139510000Y-83440000D01*
X139510000Y-96060000D01*
X133540000Y-96060000D01*
X133540000Y-83440000D01*
X133550000Y-83450000D02*
X134300000Y-83450000D01*
X134300000Y-85250000D01*
X133550000Y-85250000D01*
X133550000Y-83450000D01*
X133550000Y-86750000D02*
X134300000Y-86750000D01*
X134300000Y-92750000D01*
X133550000Y-92750000D01*
X133550000Y-86750000D01*
X133550000Y-94250000D02*
X134300000Y-94250000D01*
X134300000Y-96050000D01*
X133550000Y-96050000D01*
X133550000Y-94250000D01*
%TO.C,C18*%
X143463564Y-96852609D02*
X143986068Y-96852609D01*
X143463564Y-98322609D02*
X143986068Y-98322609D01*
D12*
%TO.C,U3*%
X146500000Y-88000000D02*
X146500000Y-88295000D01*
X146500000Y-88000000D02*
X146795000Y-88000000D01*
X146500000Y-95000000D02*
X146500000Y-94705000D01*
X146500000Y-95000000D02*
X146795000Y-95000000D01*
X153500000Y-88000000D02*
X153205000Y-88000000D01*
X153500000Y-88000000D02*
X153500000Y-88295000D01*
X153500000Y-95000000D02*
X153205000Y-95000000D01*
X153500000Y-95000000D02*
X153500000Y-94705000D01*
D13*
X145600000Y-94250000D02*
G75*
G02*
X145400000Y-94250000I-100000J0D01*
G01*
X145400000Y-94250000D02*
G75*
G02*
X145600000Y-94250000I100000J0D01*
G01*
D11*
%TO.C,C1*%
X151024350Y-85047562D02*
X151024350Y-84525058D01*
X152494350Y-85047562D02*
X152494350Y-84525058D01*
%TO.C,C9*%
X140557511Y-78761252D02*
X140557511Y-78238748D01*
X142027511Y-78761252D02*
X142027511Y-78238748D01*
%TO.C,C7*%
X144312196Y-80147562D02*
X144834700Y-80147562D01*
X144312196Y-81617562D02*
X144834700Y-81617562D01*
%TO.C,D3*%
X155765000Y-99660000D02*
X155765000Y-97200000D01*
X157235000Y-97200000D02*
X157235000Y-99660000D01*
X157235000Y-99660000D02*
X155765000Y-99660000D01*
%TO.C,J4*%
X133750000Y-104650000D02*
X135000000Y-104650000D01*
X133750000Y-105900000D02*
X133750000Y-104650000D01*
X136300000Y-104950000D02*
X136300000Y-105700000D01*
X136300000Y-105700000D02*
X139250000Y-105700000D01*
X136300000Y-116800000D02*
X139250000Y-116800000D01*
X136300000Y-117550000D02*
X136300000Y-116800000D01*
X139250000Y-105700000D02*
X139250000Y-111250000D01*
X139250000Y-116800000D02*
X139250000Y-111250000D01*
X134040000Y-104940000D02*
X140010000Y-104940000D01*
X140010000Y-117560000D01*
X134040000Y-117560000D01*
X134040000Y-104940000D01*
X134050000Y-104950000D02*
X134800000Y-104950000D01*
X134800000Y-106750000D01*
X134050000Y-106750000D01*
X134050000Y-104950000D01*
X134050000Y-108250000D02*
X134800000Y-108250000D01*
X134800000Y-114250000D01*
X134050000Y-114250000D01*
X134050000Y-108250000D01*
X134050000Y-115750000D02*
X134800000Y-115750000D01*
X134800000Y-117550000D01*
X134050000Y-117550000D01*
X134050000Y-115750000D01*
%TO.C,R7*%
X148838382Y-84094791D02*
X148838382Y-84548919D01*
X150308382Y-84094791D02*
X150308382Y-84548919D01*
%TO.C,C23*%
X165765000Y-91701248D02*
X165765000Y-92223752D01*
X167235000Y-91701248D02*
X167235000Y-92223752D01*
%TO.C,U6*%
X133465000Y-98190000D02*
X133465000Y-102810000D01*
X141535000Y-102810000D02*
X141535000Y-98190000D01*
X141320000Y-104690000D02*
X140840000Y-104690000D01*
X141080000Y-104360000D01*
X141320000Y-104690000D01*
G36*
X141320000Y-104690000D02*
G01*
X140840000Y-104690000D01*
X141080000Y-104360000D01*
X141320000Y-104690000D01*
G37*
%TO.C,J3*%
X140750000Y-104650000D02*
X142000000Y-104650000D01*
X140750000Y-105900000D02*
X140750000Y-104650000D01*
X143300000Y-104950000D02*
X143300000Y-105700000D01*
X143300000Y-105700000D02*
X146250000Y-105700000D01*
X143300000Y-116800000D02*
X146250000Y-116800000D01*
X143300000Y-117550000D02*
X143300000Y-116800000D01*
X146250000Y-105700000D02*
X146250000Y-111250000D01*
X146250000Y-116800000D02*
X146250000Y-111250000D01*
X141040000Y-104940000D02*
X147010000Y-104940000D01*
X147010000Y-117560000D01*
X141040000Y-117560000D01*
X141040000Y-104940000D01*
X141050000Y-104950000D02*
X141800000Y-104950000D01*
X141800000Y-106750000D01*
X141050000Y-106750000D01*
X141050000Y-104950000D01*
X141050000Y-108250000D02*
X141800000Y-108250000D01*
X141800000Y-114250000D01*
X141050000Y-114250000D01*
X141050000Y-108250000D01*
X141050000Y-115750000D02*
X141800000Y-115750000D01*
X141800000Y-117550000D01*
X141050000Y-117550000D01*
X141050000Y-115750000D01*
%TO.C,C8*%
X144312196Y-78190471D02*
X144834700Y-78190471D01*
X144312196Y-79660471D02*
X144834700Y-79660471D01*
%TO.C,R12*%
X155977500Y-94667224D02*
X155977500Y-94157776D01*
X157022500Y-94667224D02*
X157022500Y-94157776D01*
%TO.C,J5*%
X127750000Y-105700000D02*
X127750000Y-111250000D01*
X127750000Y-116800000D02*
X127750000Y-111250000D01*
X130700000Y-104950000D02*
X130700000Y-105700000D01*
X130700000Y-105700000D02*
X127750000Y-105700000D01*
X130700000Y-116800000D02*
X127750000Y-116800000D01*
X130700000Y-117550000D02*
X130700000Y-116800000D01*
X133250000Y-116600000D02*
X133250000Y-117850000D01*
X133250000Y-117850000D02*
X132000000Y-117850000D01*
X132950000Y-106750000D02*
X132200000Y-106750000D01*
X132200000Y-104950000D01*
X132950000Y-104950000D01*
X132950000Y-106750000D01*
X132950000Y-114250000D02*
X132200000Y-114250000D01*
X132200000Y-108250000D01*
X132950000Y-108250000D01*
X132950000Y-114250000D01*
X132950000Y-117550000D02*
X132200000Y-117550000D01*
X132200000Y-115750000D01*
X132950000Y-115750000D01*
X132950000Y-117550000D01*
X132960000Y-117560000D02*
X126990000Y-117560000D01*
X126990000Y-104940000D01*
X132960000Y-104940000D01*
X132960000Y-117560000D01*
%TO.C,R13*%
X130272936Y-102765000D02*
X130727064Y-102765000D01*
X130272936Y-104235000D02*
X130727064Y-104235000D01*
%TO.C,C21*%
X171765000Y-94276248D02*
X171765000Y-94798752D01*
X173235000Y-94276248D02*
X173235000Y-94798752D01*
%TO.C,J6*%
X126250000Y-88650000D02*
X127500000Y-88650000D01*
X126250000Y-89900000D02*
X126250000Y-88650000D01*
X128800000Y-88950000D02*
X128800000Y-89700000D01*
X128800000Y-89700000D02*
X131750000Y-89700000D01*
X128800000Y-100800000D02*
X131750000Y-100800000D01*
X128800000Y-101550000D02*
X128800000Y-100800000D01*
X131750000Y-89700000D02*
X131750000Y-95250000D01*
X131750000Y-100800000D02*
X131750000Y-95250000D01*
X126540000Y-88940000D02*
X132510000Y-88940000D01*
X132510000Y-101560000D01*
X126540000Y-101560000D01*
X126540000Y-88940000D01*
X126550000Y-88950000D02*
X127300000Y-88950000D01*
X127300000Y-90750000D01*
X126550000Y-90750000D01*
X126550000Y-88950000D01*
X126550000Y-92250000D02*
X127300000Y-92250000D01*
X127300000Y-98250000D01*
X126550000Y-98250000D01*
X126550000Y-92250000D01*
X126550000Y-99750000D02*
X127300000Y-99750000D01*
X127300000Y-101550000D01*
X126550000Y-101550000D01*
X126550000Y-99750000D01*
%TO.C,C20*%
X169765000Y-92776248D02*
X169765000Y-93298752D01*
X171235000Y-92776248D02*
X171235000Y-93298752D01*
%TO.C,J9*%
X140578487Y-81142694D02*
X140578487Y-82472694D01*
X140578487Y-83742694D02*
X140578487Y-96502694D01*
X141908487Y-81142694D02*
X140578487Y-81142694D01*
X143238487Y-83742694D02*
X140578487Y-83742694D01*
X143238487Y-83742694D02*
X143238487Y-96502694D01*
X143238487Y-96502694D02*
X140578487Y-96502694D01*
%TO.C,C22*%
X163765000Y-91701248D02*
X163765000Y-92223752D01*
X165235000Y-91701248D02*
X165235000Y-92223752D01*
%TO.C,R16*%
X161265000Y-90772936D02*
X161265000Y-91227064D01*
X162735000Y-90772936D02*
X162735000Y-91227064D01*
%TO.C,R4*%
X146265000Y-100540260D02*
X146265000Y-100994388D01*
X147735000Y-100540260D02*
X147735000Y-100994388D01*
%TO.C,R3*%
X144147302Y-102265000D02*
X143693174Y-102265000D01*
X144147302Y-103735000D02*
X143693174Y-103735000D01*
%TO.C,J8*%
X157803644Y-80941803D02*
X157803644Y-82271803D01*
X157803644Y-83541803D02*
X157803644Y-96301803D01*
X159133644Y-80941803D02*
X157803644Y-80941803D01*
X160463644Y-83541803D02*
X157803644Y-83541803D01*
X160463644Y-83541803D02*
X160463644Y-96301803D01*
X160463644Y-96301803D02*
X157803644Y-96301803D01*
%TD*%
M02*
