%TF.GenerationSoftware,KiCad,Pcbnew,9.0.7*%
%TF.CreationDate,2026-04-09T16:38:02-07:00*%
%TF.ProjectId,PN7160_STM32,504e3731-3630-45f5-9354-4d33322e6b69,1.0*%
%TF.SameCoordinates,Original*%
%TF.FileFunction,Copper,L3,Inr*%
%TF.FilePolarity,Positive*%
%FSLAX46Y46*%
G04 Gerber Fmt 4.6, Leading zero omitted, Abs format (unit mm)*
G04 Created by KiCad (PCBNEW 9.0.7) date 2026-04-09 16:38:02*
%MOMM*%
%LPD*%
G01*
G04 APERTURE LIST*
G04 Aperture macros list*
%AMRoundRect*
0 Rectangle with rounded corners*
0 $1 Rounding radius*
0 $2 $3 $4 $5 $6 $7 $8 $9 X,Y pos of 4 corners*
0 Add a 4 corners polygon primitive as box body*
4,1,4,$2,$3,$4,$5,$6,$7,$8,$9,$2,$3,0*
0 Add four circle primitives for the rounded corners*
1,1,$1+$1,$2,$3*
1,1,$1+$1,$4,$5*
1,1,$1+$1,$6,$7*
1,1,$1+$1,$8,$9*
0 Add four rect primitives between the rounded corners*
20,1,$1+$1,$2,$3,$4,$5,0*
20,1,$1+$1,$4,$5,$6,$7,0*
20,1,$1+$1,$6,$7,$8,$9,0*
20,1,$1+$1,$8,$9,$2,$3,0*%
G04 Aperture macros list end*
%TA.AperFunction,ComponentPad*%
%ADD10O,1.000000X1.800000*%
%TD*%
%TA.AperFunction,ComponentPad*%
%ADD11O,1.000000X2.200000*%
%TD*%
%TA.AperFunction,ComponentPad*%
%ADD12RoundRect,0.250000X0.600000X0.750000X-0.600000X0.750000X-0.600000X-0.750000X0.600000X-0.750000X0*%
%TD*%
%TA.AperFunction,ComponentPad*%
%ADD13O,1.700000X2.000000*%
%TD*%
%TA.AperFunction,ComponentPad*%
%ADD14C,4.400000*%
%TD*%
%TA.AperFunction,ComponentPad*%
%ADD15R,1.700000X1.700000*%
%TD*%
%TA.AperFunction,ComponentPad*%
%ADD16C,1.700000*%
%TD*%
%TA.AperFunction,ComponentPad*%
%ADD17RoundRect,0.250000X0.600000X0.725000X-0.600000X0.725000X-0.600000X-0.725000X0.600000X-0.725000X0*%
%TD*%
%TA.AperFunction,ComponentPad*%
%ADD18O,1.700000X1.950000*%
%TD*%
%TA.AperFunction,ComponentPad*%
%ADD19RoundRect,0.250000X-0.725000X0.600000X-0.725000X-0.600000X0.725000X-0.600000X0.725000X0.600000X0*%
%TD*%
%TA.AperFunction,ComponentPad*%
%ADD20O,1.950000X1.700000*%
%TD*%
%TA.AperFunction,ComponentPad*%
%ADD21RoundRect,0.250000X0.725000X-0.600000X0.725000X0.600000X-0.725000X0.600000X-0.725000X-0.600000X0*%
%TD*%
%TA.AperFunction,ViaPad*%
%ADD22C,0.600000*%
%TD*%
G04 APERTURE END LIST*
D10*
%TO.N,GND*%
%TO.C,J1*%
X154320000Y-77237500D03*
X145680000Y-77237500D03*
D11*
X154320000Y-73237500D03*
X145680000Y-73237500D03*
%TD*%
D12*
%TO.N,/BAT_IN*%
%TO.C,J10*%
X161000000Y-77500000D03*
D13*
%TO.N,GND*%
X158500000Y-77500000D03*
%TD*%
D14*
%TO.N,GND*%
%TO.C,H2*%
X123966376Y-100000000D03*
%TD*%
%TO.N,GND*%
%TO.C,H1*%
X176000000Y-99817778D03*
%TD*%
D15*
%TO.N,/PA0*%
%TO.C,J11*%
X157101288Y-105965962D03*
D16*
%TO.N,/PB13*%
X154561288Y-105965962D03*
%TO.N,/PA1*%
X157101288Y-108505962D03*
%TO.N,/PB14*%
X154561288Y-108505962D03*
%TO.N,/PA2*%
X157101288Y-111045962D03*
%TO.N,/PA8*%
X154561288Y-111045962D03*
%TO.N,/PA3*%
X157101288Y-113585962D03*
%TO.N,/PA9*%
X154561288Y-113585962D03*
%TO.N,/PA6*%
X157101288Y-116125962D03*
%TO.N,/PB3*%
X154561288Y-116125962D03*
%TO.N,/PA7*%
X157101288Y-118665962D03*
%TO.N,/PB4*%
X154561288Y-118665962D03*
%TO.N,/PB1*%
X157101288Y-121205962D03*
%TO.N,/PB5*%
X154561288Y-121205962D03*
%TO.N,/PB10*%
X157101288Y-123745962D03*
%TO.N,GND*%
X154561288Y-123745962D03*
%TO.N,/PB12*%
X157101288Y-126285962D03*
%TO.N,+3.3V*%
X154561288Y-126285962D03*
%TD*%
D17*
%TO.N,GND*%
%TO.C,J2*%
X145000000Y-121000000D03*
D18*
%TO.N,+3.3V*%
X142500000Y-121000000D03*
%TO.N,/SD0*%
X140000000Y-121000000D03*
%TO.N,/SC0*%
X137500000Y-121000000D03*
%TD*%
D19*
%TO.N,GND*%
%TO.C,J7*%
X136000000Y-86000000D03*
D20*
%TO.N,+3.3V*%
X136000000Y-88500000D03*
%TO.N,/SD5*%
X136000000Y-91000000D03*
%TO.N,/SC5*%
X136000000Y-93500000D03*
%TD*%
D19*
%TO.N,GND*%
%TO.C,J4*%
X136500000Y-107500000D03*
D20*
%TO.N,+3.3V*%
X136500000Y-110000000D03*
%TO.N,/SD2*%
X136500000Y-112500000D03*
%TO.N,/SC2*%
X136500000Y-115000000D03*
%TD*%
D19*
%TO.N,GND*%
%TO.C,J3*%
X143500000Y-107500000D03*
D20*
%TO.N,+3.3V*%
X143500000Y-110000000D03*
%TO.N,/SD1*%
X143500000Y-112500000D03*
%TO.N,/SC1*%
X143500000Y-115000000D03*
%TD*%
D21*
%TO.N,GND*%
%TO.C,J5*%
X130500000Y-115000000D03*
D20*
%TO.N,+3.3V*%
X130500000Y-112500000D03*
%TO.N,/SD3*%
X130500000Y-110000000D03*
%TO.N,/SC3*%
X130500000Y-107500000D03*
%TD*%
D19*
%TO.N,GND*%
%TO.C,J6*%
X129000000Y-91500000D03*
D20*
%TO.N,+3.3V*%
X129000000Y-94000000D03*
%TO.N,/SD4*%
X129000000Y-96500000D03*
%TO.N,/SC4*%
X129000000Y-99000000D03*
%TD*%
D15*
%TO.N,+3.3V*%
%TO.C,J9*%
X141908487Y-82472694D03*
D16*
%TO.N,unconnected-(J9-Pin_2-Pad2)*%
X141908487Y-85012694D03*
%TO.N,GND*%
X141908487Y-87552694D03*
%TO.N,/SCL*%
X141908487Y-90092694D03*
%TO.N,/SDA*%
X141908487Y-92632694D03*
%TO.N,/IMU_INT*%
X141908487Y-95172694D03*
%TD*%
D15*
%TO.N,/BT*%
%TO.C,J8*%
X159133644Y-82271803D03*
D16*
%TO.N,GND*%
X159133644Y-84811803D03*
X159133644Y-87351803D03*
%TO.N,/IMU_RST*%
X159133644Y-89891803D03*
%TO.N,unconnected-(J8-Pin_5-Pad5)*%
X159133644Y-92431803D03*
%TO.N,unconnected-(J8-Pin_6-Pad6)*%
X159133644Y-94971803D03*
%TD*%
D22*
%TO.N,GND*%
X151000000Y-82522791D03*
X170500000Y-91000000D03*
X178000000Y-96000000D03*
X133000000Y-103362500D03*
X172000000Y-114500000D03*
X146000000Y-97500000D03*
X163636631Y-81303224D03*
X141710322Y-75933016D03*
X152287045Y-86981076D03*
X146339906Y-85108881D03*
X149799796Y-83662703D03*
X145936889Y-83000000D03*
X160501132Y-106498868D03*
X163500000Y-115500000D03*
X168862500Y-119000000D03*
X165500000Y-90000000D03*
X162000000Y-86932500D03*
X159000000Y-97000000D03*
X164500000Y-84260803D03*
X156000000Y-73000000D03*
X172000000Y-105500000D03*
X166500000Y-108000000D03*
X155325735Y-100674265D03*
X148534798Y-80614498D03*
%TO.N,Net-(U3-PC14-OSC32_IN)*%
X143659487Y-94500000D03*
%TO.N,Net-(U3-PC15-OSC32_OUT)*%
X143563930Y-93458829D03*
%TO.N,Net-(U3-PH0-OSC_IN)*%
X143500000Y-91500000D03*
%TO.N,Net-(U3-PH1-OSC_OUT)*%
X138500000Y-89000000D03*
%TO.N,+3.3V*%
X166018750Y-104481250D03*
X164500000Y-94500000D03*
X155000000Y-94100000D03*
X142000000Y-104000000D03*
X153456517Y-87361545D03*
X139375185Y-79124815D03*
X170000000Y-105500000D03*
X142712500Y-101212500D03*
X156393459Y-103393459D03*
X144209831Y-85350658D03*
X146500000Y-95000000D03*
%TO.N,VCC*%
X149500000Y-81500000D03*
X151350000Y-81605282D03*
%TO.N,+BAT_OUT*%
X154000000Y-79500000D03*
X156471910Y-81762872D03*
%TO.N,/TVDD*%
X170500000Y-94075000D03*
X170000000Y-100000000D03*
X170500000Y-97500000D03*
%TO.N,/VDD_INT*%
X165500000Y-94500000D03*
X162664009Y-95250000D03*
%TO.N,/RXN*%
X171000000Y-100000000D03*
X167816666Y-108845669D03*
%TO.N,+5V*%
X152385979Y-76429166D03*
X147650000Y-76428000D03*
%TO.N,/PA12*%
X155500000Y-92500000D03*
%TO.N,/PA11*%
X155296143Y-91703857D03*
%TO.N,/IMU_RST*%
X148246287Y-96297030D03*
%TO.N,/SCL*%
X148500000Y-98500000D03*
%TO.N,/SDA*%
X148995025Y-97860711D03*
%TO.N,/IMU_INT*%
X145523502Y-95500000D03*
%TO.N,/PB1*%
X159100000Y-122500000D03*
%TO.N,/PA2*%
X165500000Y-78500000D03*
X168500000Y-88000000D03*
X163500000Y-112000000D03*
%TO.N,/PA0*%
X165500000Y-76000000D03*
X170000000Y-90000000D03*
X164500000Y-110000000D03*
%TO.N,/PA3*%
X163000000Y-113000000D03*
X164500000Y-79500000D03*
X167500000Y-87000000D03*
%TO.N,/PA1*%
X165000000Y-77500000D03*
X169500000Y-89000000D03*
X164000000Y-111000000D03*
%TO.N,/PB10*%
X159806251Y-121017374D03*
%TO.N,/PA7*%
X161000000Y-123500000D03*
%TO.N,/TX2*%
X169000000Y-108500000D03*
X171849943Y-97674971D03*
%TO.N,/TX1*%
X171000000Y-106000000D03*
X173000000Y-97500000D03*
%TO.N,/PB15*%
X156825735Y-90825735D03*
%TO.N,/PA15*%
X161023108Y-102568644D03*
X153400000Y-96448578D03*
%TO.N,/IRQ*%
X147648954Y-87225735D03*
%TO.N,/VEN*%
X147365956Y-86477459D03*
%TO.N,/PA14*%
X154000000Y-97000000D03*
%TO.N,Net-(SW1-A)*%
X149808306Y-97281902D03*
%TO.N,Net-(SW2-B)*%
X139000000Y-82500000D03*
%TD*%
%TA.AperFunction,Conductor*%
%TO.N,+3.3V*%
G36*
X155902732Y-124399961D02*
G01*
X155941774Y-124445018D01*
X155946239Y-124453782D01*
X156071178Y-124625748D01*
X156221501Y-124776071D01*
X156393470Y-124901012D01*
X156402234Y-124905478D01*
X156453030Y-124953453D01*
X156469824Y-125021274D01*
X156447286Y-125087409D01*
X156402234Y-125126446D01*
X156393470Y-125130911D01*
X156221501Y-125255852D01*
X156071178Y-125406175D01*
X155946237Y-125578144D01*
X155941490Y-125587461D01*
X155893515Y-125638255D01*
X155825693Y-125655049D01*
X155759559Y-125632510D01*
X155720522Y-125587457D01*
X155715914Y-125578414D01*
X155676558Y-125524244D01*
X155676557Y-125524244D01*
X155044250Y-126156552D01*
X155027213Y-126092969D01*
X154961387Y-125978955D01*
X154868295Y-125885863D01*
X154754281Y-125820037D01*
X154690697Y-125802999D01*
X155323004Y-125170690D01*
X155268835Y-125131335D01*
X155268835Y-125131334D01*
X155259788Y-125126725D01*
X155208994Y-125078750D01*
X155192200Y-125010928D01*
X155214739Y-124944794D01*
X155259796Y-124905755D01*
X155269104Y-124901013D01*
X155348295Y-124843477D01*
X155441074Y-124776071D01*
X155441076Y-124776068D01*
X155441080Y-124776066D01*
X155591392Y-124625754D01*
X155591394Y-124625750D01*
X155591397Y-124625748D01*
X155716336Y-124453782D01*
X155716335Y-124453782D01*
X155716339Y-124453778D01*
X155720802Y-124445016D01*
X155768776Y-124394221D01*
X155836596Y-124377425D01*
X155902732Y-124399961D01*
G37*
%TD.AperFunction*%
%TA.AperFunction,Conductor*%
G36*
X150538900Y-70805850D02*
G01*
X151606842Y-70845123D01*
X151611389Y-70845373D01*
X152677185Y-70923867D01*
X152681708Y-70924284D01*
X153743956Y-71041899D01*
X153748384Y-71042472D01*
X154805595Y-71199043D01*
X154810006Y-71199779D01*
X155860776Y-71395102D01*
X155865207Y-71396011D01*
X156907976Y-71629793D01*
X156912403Y-71630870D01*
X157945948Y-71902833D01*
X157950288Y-71904061D01*
X158973138Y-72213822D01*
X158977396Y-72215198D01*
X159988148Y-72562331D01*
X159992428Y-72563889D01*
X160140256Y-72620814D01*
X160989741Y-72947932D01*
X160993963Y-72949648D01*
X161295881Y-73078842D01*
X161976477Y-73370076D01*
X161980588Y-73371925D01*
X162947018Y-73828192D01*
X162951051Y-73830187D01*
X163900083Y-74321672D01*
X163904023Y-74323805D01*
X164418388Y-74614639D01*
X164834333Y-74849824D01*
X164838258Y-74852140D01*
X165171112Y-75056840D01*
X165217906Y-75108726D01*
X165229219Y-75177673D01*
X165201460Y-75241792D01*
X165153608Y-75277025D01*
X165120823Y-75290604D01*
X165120814Y-75290609D01*
X164989711Y-75378210D01*
X164989707Y-75378213D01*
X164878213Y-75489707D01*
X164878210Y-75489711D01*
X164790609Y-75620814D01*
X164790602Y-75620827D01*
X164730264Y-75766498D01*
X164730261Y-75766510D01*
X164699500Y-75921153D01*
X164699500Y-76078846D01*
X164730261Y-76233489D01*
X164730264Y-76233501D01*
X164790602Y-76379172D01*
X164790609Y-76379185D01*
X164878210Y-76510288D01*
X164878213Y-76510292D01*
X164879114Y-76511193D01*
X164879435Y-76511780D01*
X164882076Y-76514999D01*
X164881465Y-76515499D01*
X164912599Y-76572516D01*
X164907615Y-76642208D01*
X164865743Y-76698141D01*
X164815626Y-76720491D01*
X164766507Y-76730261D01*
X164766498Y-76730264D01*
X164620827Y-76790602D01*
X164620814Y-76790609D01*
X164489711Y-76878210D01*
X164489707Y-76878213D01*
X164378213Y-76989707D01*
X164378210Y-76989711D01*
X164290609Y-77120814D01*
X164290602Y-77120827D01*
X164230264Y-77266498D01*
X164230261Y-77266510D01*
X164199500Y-77421153D01*
X164199500Y-77578846D01*
X164230261Y-77733489D01*
X164230264Y-77733501D01*
X164290602Y-77879172D01*
X164290609Y-77879185D01*
X164378210Y-78010288D01*
X164378213Y-78010292D01*
X164489707Y-78121786D01*
X164489711Y-78121789D01*
X164620817Y-78209392D01*
X164620819Y-78209393D01*
X164620821Y-78209394D01*
X164638409Y-78216679D01*
X164656936Y-78231609D01*
X164677915Y-78242842D01*
X164683643Y-78253131D01*
X164692812Y-78260520D01*
X164700325Y-78283095D01*
X164711902Y-78303888D01*
X164712091Y-78318445D01*
X164714877Y-78326814D01*
X164714708Y-78339071D01*
X164714185Y-78347330D01*
X164699500Y-78421158D01*
X164699500Y-78578842D01*
X164699527Y-78578979D01*
X164699252Y-78583331D01*
X164688596Y-78612631D01*
X164679815Y-78642539D01*
X164676757Y-78645188D01*
X164675374Y-78648993D01*
X164650563Y-78667885D01*
X164627011Y-78688294D01*
X164622463Y-78689283D01*
X164619786Y-78691322D01*
X164609216Y-78692165D01*
X164575500Y-78699500D01*
X164421155Y-78699500D01*
X164266510Y-78730261D01*
X164266498Y-78730264D01*
X164120827Y-78790602D01*
X164120814Y-78790609D01*
X163989711Y-78878210D01*
X163989707Y-78878213D01*
X163878213Y-78989707D01*
X163878210Y-78989711D01*
X163790609Y-79120814D01*
X163790602Y-79120827D01*
X163730264Y-79266498D01*
X163730261Y-79266510D01*
X163699500Y-79421153D01*
X163699500Y-79578846D01*
X163730261Y-79733489D01*
X163730264Y-79733501D01*
X163790602Y-79879172D01*
X163790609Y-79879185D01*
X163878210Y-80010288D01*
X163878213Y-80010292D01*
X163989707Y-80121786D01*
X163989711Y-80121789D01*
X164120814Y-80209390D01*
X164120827Y-80209397D01*
X164183424Y-80235325D01*
X164266503Y-80269737D01*
X164421153Y-80300499D01*
X164421156Y-80300500D01*
X164421158Y-80300500D01*
X164578844Y-80300500D01*
X164578845Y-80300499D01*
X164733497Y-80269737D01*
X164879179Y-80209394D01*
X165010289Y-80121789D01*
X165121789Y-80010289D01*
X165209394Y-79879179D01*
X165269737Y-79733497D01*
X165300500Y-79578842D01*
X165300500Y-79424500D01*
X165320185Y-79357461D01*
X165372989Y-79311706D01*
X165424500Y-79300500D01*
X165578844Y-79300500D01*
X165578845Y-79300499D01*
X165733497Y-79269737D01*
X165879179Y-79209394D01*
X166010289Y-79121789D01*
X166121789Y-79010289D01*
X166209394Y-78879179D01*
X166269737Y-78733497D01*
X166300500Y-78578842D01*
X166300500Y-78421158D01*
X166300500Y-78421155D01*
X166300499Y-78421153D01*
X166284172Y-78339071D01*
X166269737Y-78266503D01*
X166264198Y-78253131D01*
X166209397Y-78120827D01*
X166209390Y-78120814D01*
X166121789Y-77989711D01*
X166121786Y-77989707D01*
X166010292Y-77878213D01*
X166010288Y-77878210D01*
X165879185Y-77790609D01*
X165879179Y-77790606D01*
X165861589Y-77783320D01*
X165807186Y-77739478D01*
X165785122Y-77673184D01*
X165787425Y-77644571D01*
X165800500Y-77578842D01*
X165800500Y-77421158D01*
X165800500Y-77421155D01*
X165800499Y-77421153D01*
X165775861Y-77297290D01*
X165769737Y-77266503D01*
X165754479Y-77229666D01*
X165709397Y-77120827D01*
X165709390Y-77120814D01*
X165621789Y-76989711D01*
X165621786Y-76989707D01*
X165620885Y-76988806D01*
X165620563Y-76988217D01*
X165617924Y-76985001D01*
X165618533Y-76984500D01*
X165587400Y-76927483D01*
X165592384Y-76857791D01*
X165634256Y-76801858D01*
X165684372Y-76779508D01*
X165733497Y-76769737D01*
X165879179Y-76709394D01*
X166010289Y-76621789D01*
X166121789Y-76510289D01*
X166209394Y-76379179D01*
X166269737Y-76233497D01*
X166300500Y-76078842D01*
X166300500Y-76011644D01*
X166303346Y-76001948D01*
X166302078Y-75991922D01*
X166313026Y-75968984D01*
X166320185Y-75944605D01*
X166327821Y-75937987D01*
X166332175Y-75928867D01*
X166353784Y-75915490D01*
X166372989Y-75898850D01*
X166382991Y-75897411D01*
X166391584Y-75892093D01*
X166416992Y-75892522D01*
X166442147Y-75888906D01*
X166453200Y-75893135D01*
X166461444Y-75893275D01*
X166493288Y-75908474D01*
X166641537Y-76007333D01*
X166645257Y-76009914D01*
X167511988Y-76635089D01*
X167515635Y-76637823D01*
X167902972Y-76939454D01*
X168322948Y-77266503D01*
X168358803Y-77294424D01*
X168362346Y-77297289D01*
X169115185Y-77929335D01*
X169180816Y-77984435D01*
X169184244Y-77987422D01*
X169478092Y-78253131D01*
X169976910Y-78704182D01*
X169980234Y-78707300D01*
X170213970Y-78934814D01*
X170713607Y-79421153D01*
X170746039Y-79452721D01*
X170749238Y-79455952D01*
X171368006Y-80104209D01*
X171487127Y-80229006D01*
X171490202Y-80232349D01*
X172078508Y-80895891D01*
X172199164Y-81031977D01*
X172202124Y-81035441D01*
X172865693Y-81841716D01*
X172881246Y-81860613D01*
X172884073Y-81864180D01*
X172976196Y-81984896D01*
X173532393Y-82713727D01*
X173535091Y-82717400D01*
X174151762Y-83590210D01*
X174154323Y-83593980D01*
X174738497Y-84488857D01*
X174740918Y-84492719D01*
X175291814Y-85408464D01*
X175294091Y-85412412D01*
X175810952Y-86347764D01*
X175813083Y-86351793D01*
X176295230Y-87305527D01*
X176297211Y-87309631D01*
X176743985Y-88280441D01*
X176745814Y-88284616D01*
X176969862Y-88822694D01*
X177120299Y-89183987D01*
X177156608Y-89271186D01*
X177158279Y-89275418D01*
X177246096Y-89510292D01*
X177532534Y-90276402D01*
X177534052Y-90280700D01*
X177871278Y-91294792D01*
X177872636Y-91299142D01*
X177934332Y-91510289D01*
X178156237Y-92269737D01*
X178172359Y-92324911D01*
X178173557Y-92329309D01*
X178435385Y-93365421D01*
X178436420Y-93369859D01*
X178659996Y-94414895D01*
X178660867Y-94419369D01*
X178829453Y-95378417D01*
X178821673Y-95447852D01*
X178777588Y-95502058D01*
X178711195Y-95523825D01*
X178643574Y-95506241D01*
X178619645Y-95487566D01*
X178510292Y-95378213D01*
X178510288Y-95378210D01*
X178379185Y-95290609D01*
X178379172Y-95290602D01*
X178233501Y-95230264D01*
X178233489Y-95230261D01*
X178078845Y-95199500D01*
X178078842Y-95199500D01*
X177921158Y-95199500D01*
X177921155Y-95199500D01*
X177766510Y-95230261D01*
X177766498Y-95230264D01*
X177620827Y-95290602D01*
X177620814Y-95290609D01*
X177489711Y-95378210D01*
X177489707Y-95378213D01*
X177378213Y-95489707D01*
X177378210Y-95489711D01*
X177290609Y-95620814D01*
X177290602Y-95620827D01*
X177230264Y-95766498D01*
X177230261Y-95766510D01*
X177199500Y-95921153D01*
X177199500Y-96078846D01*
X177230261Y-96233489D01*
X177230264Y-96233501D01*
X177290602Y-96379172D01*
X177290609Y-96379185D01*
X177378210Y-96510288D01*
X177378213Y-96510292D01*
X177489707Y-96621786D01*
X177489711Y-96621789D01*
X177620814Y-96709390D01*
X177620827Y-96709397D01*
X177726675Y-96753240D01*
X177766503Y-96769737D01*
X177921153Y-96800499D01*
X177921156Y-96800500D01*
X177921158Y-96800500D01*
X178078844Y-96800500D01*
X178078845Y-96800499D01*
X178233497Y-96769737D01*
X178379179Y-96709394D01*
X178510289Y-96621789D01*
X178621789Y-96510289D01*
X178709394Y-96379179D01*
X178730919Y-96327212D01*
X178732580Y-96325151D01*
X178732972Y-96322529D01*
X178754375Y-96298103D01*
X178774757Y-96272811D01*
X178777273Y-96271973D01*
X178779020Y-96269980D01*
X178810230Y-96261003D01*
X178841051Y-96250745D01*
X178843619Y-96251400D01*
X178846167Y-96250668D01*
X178877275Y-96259990D01*
X178908751Y-96268023D01*
X178910557Y-96269963D01*
X178913096Y-96270724D01*
X178934226Y-96295384D01*
X178956362Y-96319159D01*
X178957362Y-96322385D01*
X178958558Y-96323781D01*
X178968313Y-96357701D01*
X178992805Y-96535029D01*
X178993345Y-96539554D01*
X179100554Y-97602819D01*
X179100928Y-97607361D01*
X179168993Y-98673861D01*
X179169200Y-98678415D01*
X179198024Y-99746714D01*
X179198063Y-99751271D01*
X179187610Y-100819879D01*
X179187482Y-100824435D01*
X179137763Y-101891970D01*
X179137467Y-101896518D01*
X179048552Y-102961487D01*
X179048089Y-102966021D01*
X178920101Y-104026967D01*
X178919473Y-104031481D01*
X178752572Y-105087083D01*
X178751777Y-105091571D01*
X178546205Y-106140274D01*
X178545246Y-106144730D01*
X178301270Y-107185183D01*
X178300148Y-107189600D01*
X178018109Y-108220360D01*
X178016826Y-108224734D01*
X177697086Y-109244465D01*
X177695643Y-109248788D01*
X177338648Y-110256074D01*
X177337047Y-110260341D01*
X176943274Y-111253834D01*
X176941517Y-111258039D01*
X176511499Y-112236390D01*
X176509588Y-112240528D01*
X176043919Y-113202388D01*
X176041858Y-113206453D01*
X175541150Y-114150562D01*
X175538941Y-114154549D01*
X175003873Y-115079625D01*
X175001519Y-115083528D01*
X174432807Y-115988329D01*
X174430311Y-115992142D01*
X173828751Y-116875408D01*
X173826117Y-116879127D01*
X173192484Y-117739715D01*
X173189714Y-117743335D01*
X172524911Y-118580019D01*
X172522011Y-118583535D01*
X171826882Y-119395256D01*
X171823854Y-119398663D01*
X171099384Y-120184269D01*
X171096234Y-120187562D01*
X170343358Y-120946039D01*
X170340088Y-120949214D01*
X169559874Y-121679485D01*
X169556490Y-121682538D01*
X168749944Y-122383663D01*
X168746450Y-122386589D01*
X167914689Y-123057595D01*
X167911089Y-123060391D01*
X167055256Y-123700358D01*
X167051557Y-123703020D01*
X166172749Y-124311128D01*
X166168954Y-124313652D01*
X165268412Y-124889041D01*
X165264527Y-124891424D01*
X164343449Y-125433329D01*
X164339479Y-125435568D01*
X163399085Y-125943270D01*
X163395035Y-125945361D01*
X162436642Y-126418151D01*
X162432518Y-126420092D01*
X161457393Y-126857343D01*
X161453201Y-126859131D01*
X160462669Y-127260251D01*
X160458414Y-127261884D01*
X159453784Y-127626341D01*
X159449471Y-127627816D01*
X158432170Y-127955094D01*
X158427807Y-127956410D01*
X157399119Y-128246094D01*
X157394710Y-128247248D01*
X156356113Y-128498923D01*
X156351664Y-128499915D01*
X155304508Y-128713254D01*
X155300026Y-128714082D01*
X154245713Y-128888798D01*
X154241204Y-128889460D01*
X153181203Y-129025312D01*
X153176672Y-129025808D01*
X152112417Y-129122610D01*
X152107872Y-129122940D01*
X151631163Y-129148684D01*
X151563159Y-129132643D01*
X151514624Y-129082383D01*
X151500476Y-129024864D01*
X151500997Y-105859675D01*
X153210788Y-105859675D01*
X153210788Y-106072248D01*
X153241407Y-106265573D01*
X153244042Y-106282205D01*
X153292500Y-106431344D01*
X153309732Y-106484376D01*
X153406239Y-106673782D01*
X153531178Y-106845748D01*
X153681501Y-106996071D01*
X153853470Y-107121012D01*
X153862234Y-107125478D01*
X153913030Y-107173453D01*
X153929824Y-107241274D01*
X153907286Y-107307409D01*
X153862234Y-107346446D01*
X153853470Y-107350911D01*
X153681501Y-107475852D01*
X153531178Y-107626175D01*
X153406239Y-107798141D01*
X153309732Y-107987547D01*
X153244041Y-108189722D01*
X153210788Y-108399675D01*
X153210788Y-108612248D01*
X153239688Y-108794720D01*
X153244042Y-108822205D01*
X153305155Y-109010292D01*
X153309732Y-109024376D01*
X153406239Y-109213782D01*
X153531178Y-109385748D01*
X153681501Y-109536071D01*
X153853470Y-109661012D01*
X153862234Y-109665478D01*
X153913030Y-109713453D01*
X153929824Y-109781274D01*
X153907286Y-109847409D01*
X153862234Y-109886446D01*
X153853470Y-109890911D01*
X153681501Y-110015852D01*
X153531178Y-110166175D01*
X153406239Y-110338141D01*
X153309732Y-110527547D01*
X153244041Y-110729722D01*
X153210788Y-110939675D01*
X153210788Y-111152248D01*
X153231547Y-111283319D01*
X153244042Y-111362205D01*
X153292157Y-111510288D01*
X153309732Y-111564376D01*
X153406239Y-111753782D01*
X153531178Y-111925748D01*
X153681501Y-112076071D01*
X153853470Y-112201012D01*
X153862234Y-112205478D01*
X153913030Y-112253453D01*
X153929824Y-112321274D01*
X153907286Y-112387409D01*
X153862234Y-112426446D01*
X153853470Y-112430911D01*
X153681501Y-112555852D01*
X153531178Y-112706175D01*
X153406239Y-112878141D01*
X153309732Y-113067547D01*
X153244041Y-113269722D01*
X153226706Y-113379172D01*
X153210788Y-113479675D01*
X153210788Y-113692249D01*
X153212809Y-113705011D01*
X153240241Y-113878211D01*
X153244042Y-113902205D01*
X153302028Y-114080668D01*
X153309732Y-114104376D01*
X153406239Y-114293782D01*
X153531178Y-114465748D01*
X153681501Y-114616071D01*
X153853470Y-114741012D01*
X153862234Y-114745478D01*
X153913030Y-114793453D01*
X153929824Y-114861274D01*
X153907286Y-114927409D01*
X153862234Y-114966446D01*
X153853470Y-114970911D01*
X153681501Y-115095852D01*
X153531178Y-115246175D01*
X153406239Y-115418141D01*
X153309732Y-115607547D01*
X153309731Y-115607549D01*
X153309731Y-115607550D01*
X153295935Y-115650009D01*
X153244041Y-115809722D01*
X153210788Y-116019675D01*
X153210788Y-116232248D01*
X153244041Y-116442201D01*
X153309732Y-116644376D01*
X153406239Y-116833782D01*
X153531178Y-117005748D01*
X153681501Y-117156071D01*
X153853470Y-117281012D01*
X153862234Y-117285478D01*
X153913030Y-117333453D01*
X153929824Y-117401274D01*
X153907286Y-117467409D01*
X153862234Y-117506446D01*
X153853470Y-117510911D01*
X153681501Y-117635852D01*
X153531178Y-117786175D01*
X153406239Y-117958141D01*
X153309732Y-118147547D01*
X153244041Y-118349722D01*
X153210788Y-118559675D01*
X153210788Y-118772248D01*
X153244041Y-118982201D01*
X153244041Y-118982203D01*
X153244042Y-118982205D01*
X153296834Y-119144682D01*
X153309732Y-119184376D01*
X153406239Y-119373782D01*
X153531178Y-119545748D01*
X153681501Y-119696071D01*
X153853470Y-119821012D01*
X153862234Y-119825478D01*
X153913030Y-119873453D01*
X153929824Y-119941274D01*
X153907286Y-120007409D01*
X153862234Y-120046446D01*
X153853470Y-120050911D01*
X153681501Y-120175852D01*
X153531178Y-120326175D01*
X153406239Y-120498141D01*
X153309732Y-120687547D01*
X153244041Y-120889722D01*
X153210788Y-121099675D01*
X153210788Y-121312248D01*
X153241571Y-121506609D01*
X153244042Y-121522205D01*
X153297703Y-121687357D01*
X153309732Y-121724376D01*
X153406239Y-121913782D01*
X153531178Y-122085748D01*
X153681501Y-122236071D01*
X153853470Y-122361012D01*
X153862234Y-122365478D01*
X153913030Y-122413453D01*
X153929824Y-122481274D01*
X153907286Y-122547409D01*
X153862234Y-122586446D01*
X153853470Y-122590911D01*
X153681501Y-122715852D01*
X153531178Y-122866175D01*
X153406239Y-123038141D01*
X153309732Y-123227547D01*
X153244041Y-123429722D01*
X153210788Y-123639675D01*
X153210788Y-123852248D01*
X153244041Y-124062201D01*
X153309732Y-124264376D01*
X153406239Y-124453782D01*
X153531178Y-124625748D01*
X153681501Y-124776071D01*
X153853467Y-124901010D01*
X153853469Y-124901011D01*
X153853472Y-124901013D01*
X153862781Y-124905756D01*
X153913578Y-124953728D01*
X153930375Y-125021549D01*
X153907840Y-125087684D01*
X153862793Y-125126722D01*
X153853734Y-125131338D01*
X153853728Y-125131342D01*
X153799570Y-125170689D01*
X153799570Y-125170690D01*
X154431879Y-125802999D01*
X154368295Y-125820037D01*
X154254281Y-125885863D01*
X154161189Y-125978955D01*
X154095363Y-126092969D01*
X154078325Y-126156553D01*
X153446016Y-125524244D01*
X153446015Y-125524244D01*
X153406668Y-125578401D01*
X153310192Y-125767744D01*
X153244530Y-125969831D01*
X153244530Y-125969834D01*
X153211288Y-126179715D01*
X153211288Y-126392208D01*
X153244530Y-126602089D01*
X153244530Y-126602092D01*
X153310192Y-126804179D01*
X153406663Y-126993512D01*
X153446016Y-127047678D01*
X154078325Y-126415370D01*
X154095363Y-126478955D01*
X154161189Y-126592969D01*
X154254281Y-126686061D01*
X154368295Y-126751887D01*
X154431878Y-126768924D01*
X153799570Y-127401231D01*
X153799570Y-127401232D01*
X153853737Y-127440586D01*
X154043070Y-127537057D01*
X154245158Y-127602719D01*
X154455042Y-127635962D01*
X154667534Y-127635962D01*
X154877415Y-127602719D01*
X154877418Y-127602719D01*
X155079505Y-127537057D01*
X155268842Y-127440584D01*
X155323004Y-127401232D01*
X155323005Y-127401232D01*
X154690696Y-126768924D01*
X154754281Y-126751887D01*
X154868295Y-126686061D01*
X154961387Y-126592969D01*
X155027213Y-126478955D01*
X155044250Y-126415370D01*
X155676558Y-127047679D01*
X155676558Y-127047678D01*
X155715910Y-126993517D01*
X155720520Y-126984469D01*
X155768493Y-126933671D01*
X155836313Y-126916874D01*
X155902449Y-126939409D01*
X155941492Y-126984466D01*
X155946237Y-126993779D01*
X156071178Y-127165748D01*
X156221501Y-127316071D01*
X156393467Y-127441010D01*
X156393469Y-127441011D01*
X156393472Y-127441013D01*
X156582876Y-127537519D01*
X156785045Y-127603208D01*
X156995001Y-127636462D01*
X156995002Y-127636462D01*
X157207574Y-127636462D01*
X157207575Y-127636462D01*
X157417531Y-127603208D01*
X157619700Y-127537519D01*
X157809104Y-127441013D01*
X157863860Y-127401231D01*
X157981074Y-127316071D01*
X157981076Y-127316068D01*
X157981080Y-127316066D01*
X158131392Y-127165754D01*
X158131394Y-127165750D01*
X158131397Y-127165748D01*
X158256336Y-126993782D01*
X158256338Y-126993779D01*
X158256339Y-126993778D01*
X158352845Y-126804374D01*
X158418534Y-126602205D01*
X158451788Y-126392249D01*
X158451788Y-126179675D01*
X158418534Y-125969719D01*
X158352845Y-125767550D01*
X158256339Y-125578146D01*
X158256337Y-125578143D01*
X158256336Y-125578141D01*
X158131397Y-125406175D01*
X157981074Y-125255852D01*
X157809108Y-125130913D01*
X157800888Y-125126725D01*
X157800342Y-125126447D01*
X157749547Y-125078474D01*
X157732751Y-125010654D01*
X157755287Y-124944518D01*
X157800342Y-124905477D01*
X157809104Y-124901013D01*
X157831077Y-124885048D01*
X157981074Y-124776071D01*
X157981076Y-124776068D01*
X157981080Y-124776066D01*
X158131392Y-124625754D01*
X158131394Y-124625750D01*
X158131397Y-124625748D01*
X158256336Y-124453782D01*
X158256335Y-124453782D01*
X158256339Y-124453778D01*
X158352845Y-124264374D01*
X158418534Y-124062205D01*
X158451788Y-123852249D01*
X158451788Y-123639675D01*
X158418534Y-123429719D01*
X158415751Y-123421153D01*
X160199500Y-123421153D01*
X160199500Y-123578846D01*
X160230261Y-123733489D01*
X160230264Y-123733501D01*
X160290602Y-123879172D01*
X160290609Y-123879185D01*
X160378210Y-124010288D01*
X160378213Y-124010292D01*
X160489707Y-124121786D01*
X160489711Y-124121789D01*
X160620814Y-124209390D01*
X160620827Y-124209397D01*
X160753555Y-124264374D01*
X160766503Y-124269737D01*
X160921153Y-124300499D01*
X160921156Y-124300500D01*
X160921158Y-124300500D01*
X161078844Y-124300500D01*
X161078845Y-124300499D01*
X161233497Y-124269737D01*
X161379179Y-124209394D01*
X161510289Y-124121789D01*
X161621789Y-124010289D01*
X161709394Y-123879179D01*
X161769737Y-123733497D01*
X161800500Y-123578842D01*
X161800500Y-123421158D01*
X161800500Y-123421155D01*
X161800499Y-123421153D01*
X161769738Y-123266510D01*
X161769737Y-123266503D01*
X161753602Y-123227550D01*
X161709397Y-123120827D01*
X161709390Y-123120814D01*
X161621789Y-122989711D01*
X161621786Y-122989707D01*
X161510292Y-122878213D01*
X161510288Y-122878210D01*
X161379185Y-122790609D01*
X161379172Y-122790602D01*
X161233501Y-122730264D01*
X161233489Y-122730261D01*
X161078845Y-122699500D01*
X161078842Y-122699500D01*
X160921158Y-122699500D01*
X160921155Y-122699500D01*
X160766510Y-122730261D01*
X160766498Y-122730264D01*
X160620827Y-122790602D01*
X160620814Y-122790609D01*
X160489711Y-122878210D01*
X160489707Y-122878213D01*
X160378213Y-122989707D01*
X160378210Y-122989711D01*
X160290609Y-123120814D01*
X160290602Y-123120827D01*
X160230264Y-123266498D01*
X160230261Y-123266510D01*
X160199500Y-123421153D01*
X158415751Y-123421153D01*
X158352845Y-123227550D01*
X158352343Y-123226566D01*
X158352265Y-123226150D01*
X158350978Y-123223041D01*
X158351630Y-123222770D01*
X158339446Y-123157898D01*
X158365720Y-123093157D01*
X158422824Y-123052898D01*
X158492630Y-123049903D01*
X158550508Y-123082587D01*
X158589707Y-123121786D01*
X158589711Y-123121789D01*
X158720814Y-123209390D01*
X158720827Y-123209397D01*
X158858683Y-123266498D01*
X158866503Y-123269737D01*
X159021153Y-123300499D01*
X159021156Y-123300500D01*
X159021158Y-123300500D01*
X159178844Y-123300500D01*
X159178845Y-123300499D01*
X159189179Y-123298443D01*
X159214287Y-123293450D01*
X159214292Y-123293449D01*
X159299800Y-123276439D01*
X159333497Y-123269737D01*
X159479179Y-123209394D01*
X159610289Y-123121789D01*
X159721789Y-123010289D01*
X159809394Y-122879179D01*
X159814783Y-122866170D01*
X159839891Y-122805552D01*
X159869737Y-122733497D01*
X159900500Y-122578842D01*
X159900500Y-122421158D01*
X159900500Y-122421155D01*
X159900499Y-122421153D01*
X159898967Y-122413453D01*
X159869737Y-122266503D01*
X159857130Y-122236066D01*
X159809397Y-122120827D01*
X159809390Y-122120814D01*
X159735857Y-122010765D01*
X159714979Y-121944088D01*
X159733463Y-121876708D01*
X159785442Y-121830017D01*
X159838959Y-121817874D01*
X159885095Y-121817874D01*
X159885096Y-121817873D01*
X160039748Y-121787111D01*
X160185430Y-121726768D01*
X160316540Y-121639163D01*
X160428040Y-121527663D01*
X160515645Y-121396553D01*
X160575988Y-121250871D01*
X160606751Y-121096216D01*
X160606751Y-120938532D01*
X160606751Y-120938529D01*
X160606750Y-120938527D01*
X160597041Y-120889719D01*
X160575988Y-120783877D01*
X160569707Y-120768713D01*
X160515648Y-120638201D01*
X160515641Y-120638188D01*
X160428040Y-120507085D01*
X160428037Y-120507081D01*
X160316543Y-120395587D01*
X160316539Y-120395584D01*
X160185436Y-120307983D01*
X160185423Y-120307976D01*
X160039752Y-120247638D01*
X160039740Y-120247635D01*
X159885096Y-120216874D01*
X159885093Y-120216874D01*
X159727409Y-120216874D01*
X159727406Y-120216874D01*
X159572761Y-120247635D01*
X159572749Y-120247638D01*
X159427078Y-120307976D01*
X159427065Y-120307983D01*
X159295962Y-120395584D01*
X159295958Y-120395587D01*
X159184464Y-120507081D01*
X159184461Y-120507085D01*
X159096860Y-120638188D01*
X159096853Y-120638201D01*
X159036515Y-120783872D01*
X159036512Y-120783884D01*
X159005751Y-120938527D01*
X159005751Y-121096220D01*
X159036512Y-121250863D01*
X159036515Y-121250875D01*
X159096853Y-121396546D01*
X159096860Y-121396559D01*
X159170394Y-121506609D01*
X159191272Y-121573286D01*
X159172788Y-121640666D01*
X159120809Y-121687357D01*
X159067292Y-121699500D01*
X159021155Y-121699500D01*
X158866510Y-121730261D01*
X158866498Y-121730264D01*
X158720827Y-121790602D01*
X158720814Y-121790609D01*
X158589711Y-121878210D01*
X158500564Y-121967357D01*
X158439240Y-122000841D01*
X158369549Y-121995857D01*
X158313615Y-121953985D01*
X158289199Y-121888520D01*
X158302398Y-121823380D01*
X158352845Y-121724374D01*
X158418534Y-121522205D01*
X158451788Y-121312249D01*
X158451788Y-121099675D01*
X158418534Y-120889719D01*
X158352845Y-120687550D01*
X158256339Y-120498146D01*
X158256337Y-120498143D01*
X158256336Y-120498141D01*
X158131397Y-120326175D01*
X157981074Y-120175852D01*
X157809108Y-120050913D01*
X157808403Y-120050553D01*
X157800342Y-120046447D01*
X157749547Y-119998474D01*
X157732751Y-119930654D01*
X157755287Y-119864518D01*
X157800342Y-119825477D01*
X157809104Y-119821013D01*
X157837339Y-119800499D01*
X157981074Y-119696071D01*
X157981076Y-119696068D01*
X157981080Y-119696066D01*
X158131392Y-119545754D01*
X158131394Y-119545750D01*
X158131397Y-119545748D01*
X158256336Y-119373782D01*
X158256335Y-119373782D01*
X158256339Y-119373778D01*
X158352845Y-119184374D01*
X158418534Y-118982205D01*
X158428204Y-118921153D01*
X168062000Y-118921153D01*
X168062000Y-119078846D01*
X168092761Y-119233489D01*
X168092764Y-119233501D01*
X168153102Y-119379172D01*
X168153109Y-119379185D01*
X168240710Y-119510288D01*
X168240713Y-119510292D01*
X168352207Y-119621786D01*
X168352211Y-119621789D01*
X168483314Y-119709390D01*
X168483327Y-119709397D01*
X168628998Y-119769735D01*
X168629003Y-119769737D01*
X168783653Y-119800499D01*
X168783656Y-119800500D01*
X168783658Y-119800500D01*
X168941344Y-119800500D01*
X168941345Y-119800499D01*
X169095997Y-119769737D01*
X169241679Y-119709394D01*
X169372789Y-119621789D01*
X169484289Y-119510289D01*
X169571894Y-119379179D01*
X169574130Y-119373782D01*
X169632235Y-119233501D01*
X169632237Y-119233497D01*
X169663000Y-119078842D01*
X169663000Y-118921158D01*
X169663000Y-118921155D01*
X169662999Y-118921153D01*
X169633380Y-118772249D01*
X169632237Y-118766503D01*
X169632235Y-118766498D01*
X169571897Y-118620827D01*
X169571890Y-118620814D01*
X169484289Y-118489711D01*
X169484286Y-118489707D01*
X169372792Y-118378213D01*
X169372788Y-118378210D01*
X169241685Y-118290609D01*
X169241672Y-118290602D01*
X169096001Y-118230264D01*
X169095989Y-118230261D01*
X168941345Y-118199500D01*
X168941342Y-118199500D01*
X168783658Y-118199500D01*
X168783655Y-118199500D01*
X168629010Y-118230261D01*
X168628998Y-118230264D01*
X168483327Y-118290602D01*
X168483314Y-118290609D01*
X168352211Y-118378210D01*
X168352207Y-118378213D01*
X168240713Y-118489707D01*
X168240710Y-118489711D01*
X168153109Y-118620814D01*
X168153102Y-118620827D01*
X168092764Y-118766498D01*
X168092761Y-118766510D01*
X168062000Y-118921153D01*
X158428204Y-118921153D01*
X158451788Y-118772249D01*
X158451788Y-118559675D01*
X158418534Y-118349719D01*
X158352845Y-118147550D01*
X158256339Y-117958146D01*
X158256337Y-117958143D01*
X158256336Y-117958141D01*
X158131397Y-117786175D01*
X157981074Y-117635852D01*
X157809108Y-117510913D01*
X157808403Y-117510553D01*
X157800342Y-117506447D01*
X157749547Y-117458474D01*
X157732751Y-117390654D01*
X157755287Y-117324518D01*
X157800342Y-117285477D01*
X157809104Y-117281013D01*
X157831077Y-117265048D01*
X157981074Y-117156071D01*
X157981076Y-117156068D01*
X157981080Y-117156066D01*
X158131392Y-117005754D01*
X158131394Y-117005750D01*
X158131397Y-117005748D01*
X158256336Y-116833782D01*
X158256335Y-116833782D01*
X158256339Y-116833778D01*
X158352845Y-116644374D01*
X158418534Y-116442205D01*
X158451788Y-116232249D01*
X158451788Y-116019675D01*
X158418534Y-115809719D01*
X158352845Y-115607550D01*
X158257871Y-115421153D01*
X162699500Y-115421153D01*
X162699500Y-115578846D01*
X162730261Y-115733489D01*
X162730264Y-115733501D01*
X162790602Y-115879172D01*
X162790609Y-115879185D01*
X162878210Y-116010288D01*
X162878213Y-116010292D01*
X162989707Y-116121786D01*
X162989711Y-116121789D01*
X163120814Y-116209390D01*
X163120827Y-116209397D01*
X163222607Y-116251555D01*
X163266503Y-116269737D01*
X163421153Y-116300499D01*
X163421156Y-116300500D01*
X163421158Y-116300500D01*
X163578844Y-116300500D01*
X163578845Y-116300499D01*
X163733497Y-116269737D01*
X163879179Y-116209394D01*
X164010289Y-116121789D01*
X164121789Y-116010289D01*
X164209394Y-115879179D01*
X164269737Y-115733497D01*
X164300500Y-115578842D01*
X164300500Y-115421158D01*
X164300500Y-115421155D01*
X164300499Y-115421153D01*
X164269738Y-115266510D01*
X164269737Y-115266503D01*
X164209794Y-115121786D01*
X164209397Y-115120827D01*
X164209390Y-115120814D01*
X164121789Y-114989711D01*
X164121786Y-114989707D01*
X164010292Y-114878213D01*
X164010288Y-114878210D01*
X163879185Y-114790609D01*
X163879172Y-114790602D01*
X163733501Y-114730264D01*
X163733489Y-114730261D01*
X163578845Y-114699500D01*
X163578842Y-114699500D01*
X163421158Y-114699500D01*
X163421155Y-114699500D01*
X163266510Y-114730261D01*
X163266498Y-114730264D01*
X163120827Y-114790602D01*
X163120814Y-114790609D01*
X162989711Y-114878210D01*
X162989707Y-114878213D01*
X162878213Y-114989707D01*
X162878210Y-114989711D01*
X162790609Y-115120814D01*
X162790602Y-115120827D01*
X162730264Y-115266498D01*
X162730261Y-115266510D01*
X162699500Y-115421153D01*
X158257871Y-115421153D01*
X158256339Y-115418146D01*
X158256338Y-115418144D01*
X158131397Y-115246175D01*
X157981074Y-115095852D01*
X157809108Y-114970913D01*
X157808403Y-114970553D01*
X157800342Y-114966447D01*
X157749547Y-114918474D01*
X157732751Y-114850654D01*
X157755287Y-114784518D01*
X157800342Y-114745477D01*
X157809104Y-114741013D01*
X157887911Y-114683757D01*
X157981074Y-114616071D01*
X157981076Y-114616068D01*
X157981080Y-114616066D01*
X158131392Y-114465754D01*
X158163796Y-114421153D01*
X171199500Y-114421153D01*
X171199500Y-114578846D01*
X171230261Y-114733489D01*
X171230264Y-114733501D01*
X171290602Y-114879172D01*
X171290609Y-114879185D01*
X171378210Y-115010288D01*
X171378213Y-115010292D01*
X171489707Y-115121786D01*
X171489711Y-115121789D01*
X171620814Y-115209390D01*
X171620827Y-115209397D01*
X171758683Y-115266498D01*
X171766503Y-115269737D01*
X171921153Y-115300499D01*
X171921156Y-115300500D01*
X171921158Y-115300500D01*
X172078844Y-115300500D01*
X172078845Y-115300499D01*
X172233497Y-115269737D01*
X172379179Y-115209394D01*
X172510289Y-115121789D01*
X172621789Y-115010289D01*
X172709394Y-114879179D01*
X172711372Y-114874405D01*
X172726650Y-114837519D01*
X172769737Y-114733497D01*
X172800500Y-114578842D01*
X172800500Y-114421158D01*
X172800500Y-114421155D01*
X172800499Y-114421153D01*
X172769738Y-114266510D01*
X172769737Y-114266503D01*
X172761743Y-114247203D01*
X172709397Y-114120827D01*
X172709390Y-114120814D01*
X172621789Y-113989711D01*
X172621786Y-113989707D01*
X172510292Y-113878213D01*
X172510288Y-113878210D01*
X172379185Y-113790609D01*
X172379172Y-113790602D01*
X172233501Y-113730264D01*
X172233489Y-113730261D01*
X172078845Y-113699500D01*
X172078842Y-113699500D01*
X171921158Y-113699500D01*
X171921155Y-113699500D01*
X171766510Y-113730261D01*
X171766498Y-113730264D01*
X171620827Y-113790602D01*
X171620814Y-113790609D01*
X171489711Y-113878210D01*
X171489707Y-113878213D01*
X171378213Y-113989707D01*
X171378210Y-113989711D01*
X171290609Y-114120814D01*
X171290602Y-114120827D01*
X171230264Y-114266498D01*
X171230261Y-114266510D01*
X171199500Y-114421153D01*
X158163796Y-114421153D01*
X158256339Y-114293778D01*
X158352845Y-114104374D01*
X158418534Y-113902205D01*
X158451788Y-113692249D01*
X158451788Y-113479675D01*
X158418534Y-113269719D01*
X158352845Y-113067550D01*
X158278252Y-112921153D01*
X162199500Y-112921153D01*
X162199500Y-113078846D01*
X162230261Y-113233489D01*
X162230264Y-113233501D01*
X162290602Y-113379172D01*
X162290609Y-113379185D01*
X162378210Y-113510288D01*
X162378213Y-113510292D01*
X162489707Y-113621786D01*
X162489711Y-113621789D01*
X162620814Y-113709390D01*
X162620827Y-113709397D01*
X162718853Y-113750000D01*
X162766503Y-113769737D01*
X162893453Y-113794989D01*
X162921153Y-113800499D01*
X162921156Y-113800500D01*
X162921158Y-113800500D01*
X163078844Y-113800500D01*
X163078845Y-113800499D01*
X163233497Y-113769737D01*
X163379179Y-113709394D01*
X163510289Y-113621789D01*
X163621789Y-113510289D01*
X163709394Y-113379179D01*
X163769737Y-113233497D01*
X163800500Y-113078842D01*
X163800500Y-112921158D01*
X163800500Y-112921155D01*
X163787426Y-112855431D01*
X163793653Y-112785840D01*
X163836515Y-112730662D01*
X163861589Y-112716679D01*
X163879179Y-112709394D01*
X164010289Y-112621789D01*
X164121789Y-112510289D01*
X164209394Y-112379179D01*
X164269737Y-112233497D01*
X164300500Y-112078842D01*
X164300500Y-111921158D01*
X164300500Y-111921155D01*
X164287426Y-111855431D01*
X164293653Y-111785840D01*
X164336515Y-111730662D01*
X164361589Y-111716679D01*
X164379179Y-111709394D01*
X164510289Y-111621789D01*
X164621789Y-111510289D01*
X164709394Y-111379179D01*
X164716427Y-111362201D01*
X164744395Y-111294678D01*
X164769737Y-111233497D01*
X164800500Y-111078842D01*
X164800500Y-110921158D01*
X164800500Y-110921155D01*
X164787426Y-110855431D01*
X164793653Y-110785840D01*
X164836515Y-110730662D01*
X164861589Y-110716679D01*
X164879179Y-110709394D01*
X165010289Y-110621789D01*
X165121789Y-110510289D01*
X165209394Y-110379179D01*
X165269737Y-110233497D01*
X165300500Y-110078842D01*
X165300500Y-109921158D01*
X165300500Y-109921155D01*
X165300499Y-109921153D01*
X165272675Y-109781274D01*
X165269737Y-109766503D01*
X165235463Y-109683757D01*
X165209397Y-109620827D01*
X165209390Y-109620814D01*
X165121789Y-109489711D01*
X165121786Y-109489707D01*
X165010292Y-109378213D01*
X165010288Y-109378210D01*
X164879185Y-109290609D01*
X164879172Y-109290602D01*
X164733501Y-109230264D01*
X164733489Y-109230261D01*
X164578845Y-109199500D01*
X164578842Y-109199500D01*
X164421158Y-109199500D01*
X164421155Y-109199500D01*
X164266510Y-109230261D01*
X164266498Y-109230264D01*
X164120827Y-109290602D01*
X164120814Y-109290609D01*
X163989711Y-109378210D01*
X163989707Y-109378213D01*
X163878213Y-109489707D01*
X163878210Y-109489711D01*
X163790609Y-109620814D01*
X163790602Y-109620827D01*
X163730264Y-109766498D01*
X163730261Y-109766510D01*
X163699500Y-109921153D01*
X163699500Y-110078846D01*
X163712573Y-110144568D01*
X163706346Y-110214159D01*
X163663483Y-110269337D01*
X163638411Y-110283319D01*
X163620826Y-110290603D01*
X163620814Y-110290609D01*
X163489711Y-110378210D01*
X163489707Y-110378213D01*
X163378213Y-110489707D01*
X163378210Y-110489711D01*
X163290609Y-110620814D01*
X163290602Y-110620827D01*
X163230264Y-110766498D01*
X163230261Y-110766510D01*
X163199500Y-110921153D01*
X163199500Y-111078846D01*
X163212573Y-111144568D01*
X163206346Y-111214159D01*
X163163483Y-111269337D01*
X163138411Y-111283319D01*
X163120826Y-111290603D01*
X163120814Y-111290609D01*
X162989711Y-111378210D01*
X162989707Y-111378213D01*
X162878213Y-111489707D01*
X162878210Y-111489711D01*
X162790609Y-111620814D01*
X162790602Y-111620827D01*
X162730264Y-111766498D01*
X162730261Y-111766510D01*
X162699500Y-111921153D01*
X162699500Y-112078846D01*
X162712573Y-112144568D01*
X162706346Y-112214159D01*
X162663483Y-112269337D01*
X162638411Y-112283319D01*
X162620826Y-112290603D01*
X162620814Y-112290609D01*
X162489711Y-112378210D01*
X162489707Y-112378213D01*
X162378213Y-112489707D01*
X162378210Y-112489711D01*
X162290609Y-112620814D01*
X162290602Y-112620827D01*
X162230264Y-112766498D01*
X162230261Y-112766510D01*
X162199500Y-112921153D01*
X158278252Y-112921153D01*
X158256339Y-112878146D01*
X158256337Y-112878143D01*
X158256336Y-112878141D01*
X158131397Y-112706175D01*
X157981074Y-112555852D01*
X157809108Y-112430913D01*
X157808403Y-112430553D01*
X157800342Y-112426447D01*
X157749547Y-112378474D01*
X157732751Y-112310654D01*
X157755287Y-112244518D01*
X157800342Y-112205477D01*
X157809104Y-112201013D01*
X157832855Y-112183757D01*
X157981074Y-112076071D01*
X157981076Y-112076068D01*
X157981080Y-112076066D01*
X158131392Y-111925754D01*
X158131394Y-111925750D01*
X158131397Y-111925748D01*
X158256336Y-111753782D01*
X158256335Y-111753782D01*
X158256339Y-111753778D01*
X158352845Y-111564374D01*
X158418534Y-111362205D01*
X158451788Y-111152249D01*
X158451788Y-110939675D01*
X158418534Y-110729719D01*
X158352845Y-110527550D01*
X158256339Y-110338146D01*
X158256337Y-110338143D01*
X158256336Y-110338141D01*
X158131397Y-110166175D01*
X157981074Y-110015852D01*
X157809108Y-109890913D01*
X157808403Y-109890553D01*
X157800342Y-109886447D01*
X157749547Y-109838474D01*
X157732751Y-109770654D01*
X157755287Y-109704518D01*
X157800342Y-109665477D01*
X157809104Y-109661013D01*
X157871880Y-109615404D01*
X157981074Y-109536071D01*
X157981076Y-109536068D01*
X157981080Y-109536066D01*
X158131392Y-109385754D01*
X158131394Y-109385750D01*
X158131397Y-109385748D01*
X158256336Y-109213782D01*
X158256335Y-109213782D01*
X158256339Y-109213778D01*
X158352845Y-109024374D01*
X158418534Y-108822205D01*
X158451788Y-108612249D01*
X158451788Y-108399675D01*
X158418534Y-108189719D01*
X158352845Y-107987550D01*
X158319014Y-107921153D01*
X165699500Y-107921153D01*
X165699500Y-108078846D01*
X165730261Y-108233489D01*
X165730264Y-108233501D01*
X165790602Y-108379172D01*
X165790609Y-108379185D01*
X165878210Y-108510288D01*
X165878213Y-108510292D01*
X165989707Y-108621786D01*
X165989711Y-108621789D01*
X166120814Y-108709390D01*
X166120827Y-108709397D01*
X166266498Y-108769735D01*
X166266503Y-108769737D01*
X166393453Y-108794989D01*
X166421153Y-108800499D01*
X166421156Y-108800500D01*
X166421158Y-108800500D01*
X166578844Y-108800500D01*
X166578845Y-108800499D01*
X166733497Y-108769737D01*
X166840595Y-108725376D01*
X166844714Y-108723670D01*
X166914183Y-108716201D01*
X166976662Y-108747476D01*
X167012314Y-108807565D01*
X167016166Y-108838231D01*
X167016166Y-108924515D01*
X167046927Y-109079158D01*
X167046930Y-109079170D01*
X167107268Y-109224841D01*
X167107275Y-109224854D01*
X167194876Y-109355957D01*
X167194879Y-109355961D01*
X167306373Y-109467455D01*
X167306377Y-109467458D01*
X167437480Y-109555059D01*
X167437493Y-109555066D01*
X167583164Y-109615404D01*
X167583169Y-109615406D01*
X167737819Y-109646168D01*
X167737822Y-109646169D01*
X167737824Y-109646169D01*
X167895510Y-109646169D01*
X167895511Y-109646168D01*
X168050163Y-109615406D01*
X168162832Y-109568736D01*
X168195838Y-109555066D01*
X168195838Y-109555065D01*
X168195845Y-109555063D01*
X168326955Y-109467458D01*
X168438455Y-109355958D01*
X168480895Y-109292442D01*
X168498152Y-109266616D01*
X168551764Y-109221810D01*
X168621089Y-109213103D01*
X168648706Y-109220945D01*
X168758968Y-109266616D01*
X168766503Y-109269737D01*
X168921153Y-109300499D01*
X168921156Y-109300500D01*
X168921158Y-109300500D01*
X169078844Y-109300500D01*
X169078845Y-109300499D01*
X169233497Y-109269737D01*
X169351292Y-109220945D01*
X169379172Y-109209397D01*
X169379172Y-109209396D01*
X169379179Y-109209394D01*
X169510289Y-109121789D01*
X169621789Y-109010289D01*
X169709394Y-108879179D01*
X169769737Y-108733497D01*
X169800500Y-108578842D01*
X169800500Y-108421158D01*
X169800500Y-108421155D01*
X169800499Y-108421153D01*
X169792272Y-108379792D01*
X169769737Y-108266503D01*
X169764060Y-108252797D01*
X169709397Y-108120827D01*
X169709390Y-108120814D01*
X169621789Y-107989711D01*
X169621786Y-107989707D01*
X169510292Y-107878213D01*
X169510288Y-107878210D01*
X169379185Y-107790609D01*
X169379172Y-107790602D01*
X169233501Y-107730264D01*
X169233489Y-107730261D01*
X169078845Y-107699500D01*
X169078842Y-107699500D01*
X168921158Y-107699500D01*
X168921155Y-107699500D01*
X168766510Y-107730261D01*
X168766498Y-107730264D01*
X168620827Y-107790602D01*
X168620814Y-107790609D01*
X168489711Y-107878210D01*
X168489707Y-107878213D01*
X168378213Y-107989707D01*
X168378210Y-107989711D01*
X168318513Y-108079054D01*
X168264900Y-108123859D01*
X168195575Y-108132566D01*
X168167959Y-108124724D01*
X168050167Y-108075933D01*
X168050155Y-108075930D01*
X167895511Y-108045169D01*
X167895508Y-108045169D01*
X167737824Y-108045169D01*
X167737821Y-108045169D01*
X167583176Y-108075930D01*
X167583173Y-108075931D01*
X167583172Y-108075931D01*
X167583169Y-108075932D01*
X167529431Y-108098191D01*
X167471952Y-108121999D01*
X167402482Y-108129467D01*
X167340003Y-108098191D01*
X167304351Y-108038102D01*
X167300500Y-108007437D01*
X167300500Y-107921155D01*
X167300499Y-107921153D01*
X167287878Y-107857704D01*
X167269737Y-107766503D01*
X167269735Y-107766498D01*
X167209397Y-107620827D01*
X167209390Y-107620814D01*
X167121789Y-107489711D01*
X167121786Y-107489707D01*
X167010292Y-107378213D01*
X167010288Y-107378210D01*
X166879185Y-107290609D01*
X166879172Y-107290602D01*
X166733501Y-107230264D01*
X166733489Y-107230261D01*
X166578845Y-107199500D01*
X166578842Y-107199500D01*
X166421158Y-107199500D01*
X166421155Y-107199500D01*
X166266510Y-107230261D01*
X166266498Y-107230264D01*
X166120827Y-107290602D01*
X166120814Y-107290609D01*
X165989711Y-107378210D01*
X165989707Y-107378213D01*
X165878213Y-107489707D01*
X165878210Y-107489711D01*
X165790609Y-107620814D01*
X165790602Y-107620827D01*
X165730264Y-107766498D01*
X165730261Y-107766510D01*
X165699500Y-107921153D01*
X158319014Y-107921153D01*
X158256339Y-107798146D01*
X158256337Y-107798143D01*
X158256336Y-107798141D01*
X158131397Y-107626175D01*
X158017857Y-107512635D01*
X157984372Y-107451312D01*
X157989356Y-107381620D01*
X158031228Y-107325687D01*
X158062203Y-107308772D01*
X158193619Y-107259758D01*
X158308834Y-107173508D01*
X158395084Y-107058293D01*
X158445379Y-106923445D01*
X158451788Y-106863835D01*
X158451788Y-106420021D01*
X159700632Y-106420021D01*
X159700632Y-106577714D01*
X159731393Y-106732357D01*
X159731396Y-106732369D01*
X159791734Y-106878040D01*
X159791741Y-106878053D01*
X159879342Y-107009156D01*
X159879345Y-107009160D01*
X159990839Y-107120654D01*
X159990843Y-107120657D01*
X160121946Y-107208258D01*
X160121959Y-107208265D01*
X160267630Y-107268603D01*
X160267635Y-107268605D01*
X160378221Y-107290602D01*
X160422285Y-107299367D01*
X160422288Y-107299368D01*
X160422290Y-107299368D01*
X160579976Y-107299368D01*
X160579977Y-107299367D01*
X160734629Y-107268605D01*
X160847298Y-107221935D01*
X160880304Y-107208265D01*
X160880304Y-107208264D01*
X160880311Y-107208262D01*
X161011421Y-107120657D01*
X161122921Y-107009157D01*
X161210526Y-106878047D01*
X161216417Y-106863826D01*
X161246093Y-106792179D01*
X161270869Y-106732365D01*
X161301632Y-106577710D01*
X161301632Y-106420026D01*
X161301632Y-106420023D01*
X161301631Y-106420021D01*
X161293506Y-106379173D01*
X161270869Y-106265371D01*
X161257668Y-106233501D01*
X161210529Y-106119695D01*
X161210522Y-106119682D01*
X161122921Y-105988579D01*
X161122918Y-105988575D01*
X161055496Y-105921153D01*
X170199500Y-105921153D01*
X170199500Y-106078846D01*
X170230261Y-106233489D01*
X170230264Y-106233501D01*
X170290602Y-106379172D01*
X170290609Y-106379185D01*
X170378210Y-106510288D01*
X170378213Y-106510292D01*
X170489707Y-106621786D01*
X170489711Y-106621789D01*
X170620814Y-106709390D01*
X170620827Y-106709397D01*
X170712103Y-106747204D01*
X170766503Y-106769737D01*
X170879326Y-106792179D01*
X170921153Y-106800499D01*
X170921156Y-106800500D01*
X170921158Y-106800500D01*
X171078844Y-106800500D01*
X171078845Y-106800499D01*
X171233497Y-106769737D01*
X171379179Y-106709394D01*
X171510289Y-106621789D01*
X171621789Y-106510289D01*
X171709394Y-106379179D01*
X171716677Y-106361593D01*
X171760514Y-106307190D01*
X171826807Y-106285122D01*
X171855431Y-106287426D01*
X171921155Y-106300500D01*
X171921158Y-106300500D01*
X172078844Y-106300500D01*
X172078845Y-106300499D01*
X172233497Y-106269737D01*
X172379179Y-106209394D01*
X172510289Y-106121789D01*
X172621789Y-106010289D01*
X172709394Y-105879179D01*
X172769737Y-105733497D01*
X172800500Y-105578842D01*
X172800500Y-105421158D01*
X172800500Y-105421155D01*
X172800499Y-105421153D01*
X172774531Y-105290606D01*
X172769737Y-105266503D01*
X172769735Y-105266498D01*
X172709397Y-105120827D01*
X172709390Y-105120814D01*
X172621789Y-104989711D01*
X172621786Y-104989707D01*
X172510292Y-104878213D01*
X172510288Y-104878210D01*
X172379185Y-104790609D01*
X172379172Y-104790602D01*
X172233501Y-104730264D01*
X172233489Y-104730261D01*
X172078845Y-104699500D01*
X172078842Y-104699500D01*
X171921158Y-104699500D01*
X171921155Y-104699500D01*
X171766510Y-104730261D01*
X171766498Y-104730264D01*
X171620827Y-104790602D01*
X171620814Y-104790609D01*
X171489711Y-104878210D01*
X171489707Y-104878213D01*
X171378213Y-104989707D01*
X171378210Y-104989711D01*
X171290609Y-105120814D01*
X171290603Y-105120826D01*
X171283319Y-105138411D01*
X171239477Y-105192814D01*
X171173182Y-105214877D01*
X171144568Y-105212573D01*
X171078846Y-105199500D01*
X171078842Y-105199500D01*
X170921158Y-105199500D01*
X170921155Y-105199500D01*
X170766510Y-105230261D01*
X170766498Y-105230264D01*
X170620827Y-105290602D01*
X170620814Y-105290609D01*
X170489711Y-105378210D01*
X170489707Y-105378213D01*
X170378213Y-105489707D01*
X170378210Y-105489711D01*
X170290609Y-105620814D01*
X170290602Y-105620827D01*
X170230264Y-105766498D01*
X170230261Y-105766510D01*
X170199500Y-105921153D01*
X161055496Y-105921153D01*
X161011424Y-105877081D01*
X161011420Y-105877078D01*
X160880317Y-105789477D01*
X160880304Y-105789470D01*
X160734633Y-105729132D01*
X160734621Y-105729129D01*
X160579977Y-105698368D01*
X160579974Y-105698368D01*
X160422290Y-105698368D01*
X160422287Y-105698368D01*
X160267642Y-105729129D01*
X160267630Y-105729132D01*
X160121959Y-105789470D01*
X160121946Y-105789477D01*
X159990843Y-105877078D01*
X159990839Y-105877081D01*
X159879345Y-105988575D01*
X159879342Y-105988579D01*
X159791741Y-106119682D01*
X159791734Y-106119695D01*
X159731396Y-106265366D01*
X159731393Y-106265378D01*
X159700632Y-106420021D01*
X158451788Y-106420021D01*
X158451787Y-105921158D01*
X158451787Y-105068091D01*
X158451786Y-105068085D01*
X158445379Y-105008478D01*
X158395085Y-104873633D01*
X158395081Y-104873626D01*
X158308835Y-104758417D01*
X158308832Y-104758414D01*
X158193623Y-104672168D01*
X158193616Y-104672164D01*
X158058770Y-104621870D01*
X158058771Y-104621870D01*
X157999171Y-104615463D01*
X157999169Y-104615462D01*
X157999161Y-104615462D01*
X157999152Y-104615462D01*
X156203417Y-104615462D01*
X156203411Y-104615463D01*
X156143804Y-104621870D01*
X156008959Y-104672164D01*
X156008952Y-104672168D01*
X155893743Y-104758414D01*
X155893740Y-104758417D01*
X155807494Y-104873626D01*
X155807491Y-104873631D01*
X155758477Y-105005045D01*
X155716605Y-105060978D01*
X155651141Y-105085395D01*
X155582868Y-105070543D01*
X155554614Y-105049392D01*
X155441074Y-104935852D01*
X155269108Y-104810913D01*
X155079702Y-104714406D01*
X155079701Y-104714405D01*
X155079700Y-104714405D01*
X154877531Y-104648716D01*
X154877529Y-104648715D01*
X154877528Y-104648715D01*
X154716245Y-104623170D01*
X154667575Y-104615462D01*
X154455001Y-104615462D01*
X154406330Y-104623170D01*
X154245048Y-104648715D01*
X154042873Y-104714406D01*
X153853467Y-104810913D01*
X153681501Y-104935852D01*
X153531178Y-105086175D01*
X153406239Y-105258141D01*
X153309732Y-105447547D01*
X153244041Y-105649722D01*
X153210788Y-105859675D01*
X151500997Y-105859675D01*
X151501006Y-105447547D01*
X151501073Y-102489797D01*
X160222608Y-102489797D01*
X160222608Y-102647490D01*
X160253369Y-102802133D01*
X160253372Y-102802145D01*
X160313710Y-102947816D01*
X160313717Y-102947829D01*
X160401318Y-103078932D01*
X160401321Y-103078936D01*
X160512815Y-103190430D01*
X160512819Y-103190433D01*
X160643922Y-103278034D01*
X160643935Y-103278041D01*
X160789606Y-103338379D01*
X160789611Y-103338381D01*
X160944261Y-103369143D01*
X160944264Y-103369144D01*
X160944266Y-103369144D01*
X161101952Y-103369144D01*
X161101953Y-103369143D01*
X161256605Y-103338381D01*
X161402287Y-103278038D01*
X161533397Y-103190433D01*
X161644897Y-103078933D01*
X161732502Y-102947823D01*
X161792845Y-102802141D01*
X161823608Y-102647486D01*
X161823608Y-102489802D01*
X161823608Y-102489799D01*
X161823607Y-102489797D01*
X161822396Y-102483707D01*
X161792845Y-102335147D01*
X161785181Y-102316644D01*
X161732505Y-102189471D01*
X161732498Y-102189458D01*
X161644897Y-102058355D01*
X161644894Y-102058351D01*
X161533400Y-101946857D01*
X161533396Y-101946854D01*
X161402293Y-101859253D01*
X161402280Y-101859246D01*
X161256609Y-101798908D01*
X161256597Y-101798905D01*
X161101953Y-101768144D01*
X161101950Y-101768144D01*
X160944266Y-101768144D01*
X160944263Y-101768144D01*
X160789618Y-101798905D01*
X160789606Y-101798908D01*
X160643935Y-101859246D01*
X160643922Y-101859253D01*
X160512819Y-101946854D01*
X160512815Y-101946857D01*
X160401321Y-102058351D01*
X160401318Y-102058355D01*
X160313717Y-102189458D01*
X160313710Y-102189471D01*
X160253372Y-102335142D01*
X160253369Y-102335154D01*
X160222608Y-102489797D01*
X151501073Y-102489797D01*
X151501073Y-102483707D01*
X151501111Y-100769735D01*
X151501115Y-100595418D01*
X154525235Y-100595418D01*
X154525235Y-100753111D01*
X154555996Y-100907754D01*
X154555999Y-100907766D01*
X154616337Y-101053437D01*
X154616344Y-101053450D01*
X154703945Y-101184553D01*
X154703948Y-101184557D01*
X154815442Y-101296051D01*
X154815446Y-101296054D01*
X154946549Y-101383655D01*
X154946562Y-101383662D01*
X155092233Y-101444000D01*
X155092238Y-101444002D01*
X155246888Y-101474764D01*
X155246891Y-101474765D01*
X155246893Y-101474765D01*
X155404579Y-101474765D01*
X155404580Y-101474764D01*
X155559232Y-101444002D01*
X155704914Y-101383659D01*
X155836024Y-101296054D01*
X155947524Y-101184554D01*
X156035129Y-101053444D01*
X156095472Y-100907762D01*
X156126235Y-100753107D01*
X156126235Y-100595423D01*
X156126235Y-100595420D01*
X156126234Y-100595418D01*
X156120492Y-100566550D01*
X156095472Y-100440768D01*
X156069961Y-100379179D01*
X156035132Y-100295092D01*
X156035125Y-100295079D01*
X155947524Y-100163976D01*
X155947521Y-100163972D01*
X155836027Y-100052478D01*
X155836023Y-100052475D01*
X155784679Y-100018168D01*
X155704920Y-99964874D01*
X155704907Y-99964867D01*
X155599370Y-99921153D01*
X169199500Y-99921153D01*
X169199500Y-100078846D01*
X169230261Y-100233489D01*
X169230264Y-100233501D01*
X169290602Y-100379172D01*
X169290609Y-100379185D01*
X169378210Y-100510288D01*
X169378213Y-100510292D01*
X169489707Y-100621786D01*
X169489711Y-100621789D01*
X169620814Y-100709390D01*
X169620827Y-100709397D01*
X169715915Y-100748783D01*
X169766503Y-100769737D01*
X169921153Y-100800499D01*
X169921156Y-100800500D01*
X169921158Y-100800500D01*
X170078844Y-100800500D01*
X170078845Y-100800499D01*
X170233497Y-100769737D01*
X170379179Y-100709394D01*
X170431110Y-100674694D01*
X170497785Y-100653816D01*
X170565165Y-100672300D01*
X170568863Y-100674676D01*
X170620821Y-100709394D01*
X170620823Y-100709395D01*
X170620825Y-100709396D01*
X170715915Y-100748783D01*
X170766503Y-100769737D01*
X170921153Y-100800499D01*
X170921156Y-100800500D01*
X170921158Y-100800500D01*
X171078844Y-100800500D01*
X171078845Y-100800499D01*
X171233497Y-100769737D01*
X171379179Y-100709394D01*
X171510289Y-100621789D01*
X171621789Y-100510289D01*
X171709394Y-100379179D01*
X171769737Y-100233497D01*
X171800500Y-100078842D01*
X171800500Y-99921158D01*
X171800500Y-99921155D01*
X171800499Y-99921153D01*
X171794264Y-99889810D01*
X171769737Y-99766503D01*
X171728158Y-99666121D01*
X171728155Y-99666114D01*
X173299500Y-99666114D01*
X173299500Y-99969441D01*
X173333457Y-100270826D01*
X173333460Y-100270840D01*
X173400953Y-100566549D01*
X173400957Y-100566561D01*
X173501133Y-100852846D01*
X173632733Y-101126116D01*
X173632735Y-101126119D01*
X173794108Y-101382942D01*
X173983221Y-101620082D01*
X174197696Y-101834557D01*
X174434836Y-102023670D01*
X174691659Y-102185043D01*
X174691661Y-102185044D01*
X174700827Y-102189458D01*
X174964935Y-102316646D01*
X175179951Y-102391883D01*
X175251216Y-102416820D01*
X175251228Y-102416824D01*
X175546937Y-102484318D01*
X175546946Y-102484319D01*
X175546951Y-102484320D01*
X175747874Y-102506958D01*
X175848337Y-102518277D01*
X175848340Y-102518278D01*
X175848343Y-102518278D01*
X176151660Y-102518278D01*
X176151661Y-102518277D01*
X176323945Y-102498866D01*
X176453048Y-102484320D01*
X176453051Y-102484319D01*
X176453063Y-102484318D01*
X176748772Y-102416824D01*
X177035065Y-102316646D01*
X177308341Y-102185043D01*
X177565164Y-102023670D01*
X177802304Y-101834557D01*
X178016779Y-101620082D01*
X178205892Y-101382942D01*
X178367265Y-101126119D01*
X178498868Y-100852843D01*
X178599046Y-100566550D01*
X178666540Y-100270841D01*
X178679969Y-100151659D01*
X178691143Y-100052478D01*
X178700500Y-99969435D01*
X178700500Y-99666121D01*
X178682657Y-99507760D01*
X178666542Y-99364729D01*
X178666541Y-99364724D01*
X178666540Y-99364715D01*
X178599046Y-99069006D01*
X178498868Y-98782713D01*
X178367265Y-98509437D01*
X178205892Y-98252614D01*
X178016779Y-98015474D01*
X177802304Y-97800999D01*
X177801678Y-97800500D01*
X177626860Y-97661087D01*
X177565164Y-97611886D01*
X177308341Y-97450513D01*
X177308338Y-97450511D01*
X177035068Y-97318911D01*
X176748783Y-97218735D01*
X176748771Y-97218731D01*
X176511965Y-97164682D01*
X176453063Y-97151238D01*
X176453060Y-97151237D01*
X176453048Y-97151235D01*
X176151663Y-97117278D01*
X176151657Y-97117278D01*
X175848343Y-97117278D01*
X175848336Y-97117278D01*
X175546951Y-97151235D01*
X175546937Y-97151238D01*
X175251228Y-97218731D01*
X175251216Y-97218735D01*
X174964931Y-97318911D01*
X174691661Y-97450511D01*
X174434837Y-97611885D01*
X174197696Y-97800998D01*
X173983220Y-98015474D01*
X173794107Y-98252615D01*
X173632733Y-98509439D01*
X173501133Y-98782709D01*
X173400957Y-99068994D01*
X173400953Y-99069006D01*
X173333460Y-99364715D01*
X173333457Y-99364729D01*
X173299500Y-99666114D01*
X171728155Y-99666114D01*
X171709397Y-99620827D01*
X171709390Y-99620814D01*
X171621789Y-99489711D01*
X171621786Y-99489707D01*
X171510292Y-99378213D01*
X171510288Y-99378210D01*
X171379185Y-99290609D01*
X171379172Y-99290602D01*
X171233501Y-99230264D01*
X171233489Y-99230261D01*
X171078845Y-99199500D01*
X171078842Y-99199500D01*
X170921158Y-99199500D01*
X170921155Y-99199500D01*
X170766510Y-99230261D01*
X170766498Y-99230264D01*
X170620827Y-99290602D01*
X170620814Y-99290609D01*
X170568891Y-99325304D01*
X170502214Y-99346182D01*
X170434833Y-99327698D01*
X170431109Y-99325304D01*
X170379185Y-99290609D01*
X170379172Y-99290602D01*
X170233501Y-99230264D01*
X170233489Y-99230261D01*
X170078845Y-99199500D01*
X170078842Y-99199500D01*
X169921158Y-99199500D01*
X169921155Y-99199500D01*
X169766510Y-99230261D01*
X169766498Y-99230264D01*
X169620827Y-99290602D01*
X169620814Y-99290609D01*
X169489711Y-99378210D01*
X169489707Y-99378213D01*
X169378213Y-99489707D01*
X169378210Y-99489711D01*
X169290609Y-99620814D01*
X169290602Y-99620827D01*
X169230264Y-99766498D01*
X169230261Y-99766510D01*
X169199500Y-99921153D01*
X155599370Y-99921153D01*
X155559236Y-99904529D01*
X155559224Y-99904526D01*
X155404580Y-99873765D01*
X155404577Y-99873765D01*
X155246893Y-99873765D01*
X155246890Y-99873765D01*
X155092245Y-99904526D01*
X155092233Y-99904529D01*
X154946562Y-99964867D01*
X154946549Y-99964874D01*
X154815446Y-100052475D01*
X154815442Y-100052478D01*
X154703948Y-100163972D01*
X154703945Y-100163976D01*
X154616344Y-100295079D01*
X154616337Y-100295092D01*
X154555999Y-100440763D01*
X154555996Y-100440775D01*
X154525235Y-100595418D01*
X151501115Y-100595418D01*
X151501134Y-99751897D01*
X151467029Y-99624602D01*
X151401140Y-99510473D01*
X151307956Y-99417285D01*
X151193829Y-99351390D01*
X151066536Y-99317279D01*
X151065895Y-99317278D01*
X151065892Y-99317278D01*
X151065795Y-99317278D01*
X151000644Y-99317278D01*
X150934752Y-99317277D01*
X150934748Y-99317278D01*
X149114163Y-99317278D01*
X149047124Y-99297593D01*
X149001369Y-99244789D01*
X148991425Y-99175631D01*
X149020450Y-99112075D01*
X149026482Y-99105597D01*
X149121786Y-99010292D01*
X149121789Y-99010289D01*
X149209394Y-98879179D01*
X149269737Y-98733497D01*
X149282846Y-98667592D01*
X149315229Y-98605686D01*
X149357009Y-98577226D01*
X149374204Y-98570105D01*
X149505314Y-98482500D01*
X149616814Y-98371000D01*
X149704419Y-98239890D01*
X149727046Y-98185263D01*
X149737946Y-98158949D01*
X149781787Y-98104546D01*
X149848081Y-98082481D01*
X149852507Y-98082402D01*
X149887150Y-98082402D01*
X149887151Y-98082401D01*
X150041803Y-98051639D01*
X150187485Y-97991296D01*
X150318595Y-97903691D01*
X150430095Y-97792191D01*
X150517700Y-97661081D01*
X150578043Y-97515399D01*
X150608806Y-97360744D01*
X150608806Y-97203060D01*
X150608806Y-97203057D01*
X150608805Y-97203055D01*
X150599837Y-97157972D01*
X150578043Y-97048405D01*
X150571549Y-97032727D01*
X150517703Y-96902729D01*
X150517696Y-96902716D01*
X150430095Y-96771613D01*
X150430092Y-96771609D01*
X150318598Y-96660115D01*
X150318594Y-96660112D01*
X150187491Y-96572511D01*
X150187478Y-96572504D01*
X150041807Y-96512166D01*
X150041797Y-96512163D01*
X149906551Y-96485261D01*
X149906550Y-96485260D01*
X149887152Y-96481402D01*
X149887148Y-96481402D01*
X149729464Y-96481402D01*
X149729461Y-96481402D01*
X149574816Y-96512163D01*
X149574804Y-96512166D01*
X149429133Y-96572504D01*
X149429120Y-96572511D01*
X149298017Y-96660112D01*
X149298013Y-96660115D01*
X149186519Y-96771609D01*
X149186514Y-96771616D01*
X149174679Y-96789328D01*
X149121066Y-96834133D01*
X149051741Y-96842839D01*
X148988714Y-96812683D01*
X148951996Y-96753240D01*
X148953244Y-96683381D01*
X148957017Y-96672984D01*
X148998635Y-96572508D01*
X149016024Y-96530527D01*
X149046787Y-96375872D01*
X149046787Y-96369731D01*
X152599500Y-96369731D01*
X152599500Y-96527424D01*
X152630261Y-96682067D01*
X152630264Y-96682079D01*
X152690602Y-96827750D01*
X152690609Y-96827763D01*
X152778210Y-96958866D01*
X152778213Y-96958870D01*
X152889709Y-97070366D01*
X153020814Y-97157968D01*
X153020827Y-97157975D01*
X153108230Y-97194177D01*
X153166503Y-97218315D01*
X153166510Y-97218316D01*
X153172336Y-97220084D01*
X153171797Y-97221860D01*
X153226018Y-97250206D01*
X153254498Y-97292007D01*
X153290602Y-97379172D01*
X153290609Y-97379185D01*
X153378210Y-97510288D01*
X153378213Y-97510292D01*
X153489707Y-97621786D01*
X153489711Y-97621789D01*
X153620814Y-97709390D01*
X153620827Y-97709397D01*
X153766498Y-97769735D01*
X153766503Y-97769737D01*
X153893453Y-97794989D01*
X153921153Y-97800499D01*
X153921156Y-97800500D01*
X153921158Y-97800500D01*
X154078844Y-97800500D01*
X154078845Y-97800499D01*
X154233497Y-97769737D01*
X154379179Y-97709394D01*
X154510289Y-97621789D01*
X154621789Y-97510289D01*
X154709394Y-97379179D01*
X154769737Y-97233497D01*
X154800500Y-97078842D01*
X154800500Y-96921158D01*
X154800500Y-96921155D01*
X154800499Y-96921153D01*
X154784921Y-96842839D01*
X154769737Y-96766503D01*
X154759532Y-96741865D01*
X154709397Y-96620827D01*
X154709390Y-96620814D01*
X154621789Y-96489711D01*
X154621786Y-96489707D01*
X154510292Y-96378213D01*
X154510288Y-96378210D01*
X154379185Y-96290609D01*
X154379172Y-96290602D01*
X154233501Y-96230264D01*
X154227665Y-96228494D01*
X154228200Y-96226727D01*
X154173943Y-96198333D01*
X154145501Y-96156569D01*
X154109397Y-96069405D01*
X154109390Y-96069392D01*
X154021789Y-95938289D01*
X154021786Y-95938285D01*
X153910292Y-95826791D01*
X153910288Y-95826788D01*
X153779185Y-95739187D01*
X153779172Y-95739180D01*
X153633501Y-95678842D01*
X153633489Y-95678839D01*
X153478845Y-95648078D01*
X153478842Y-95648078D01*
X153321158Y-95648078D01*
X153321155Y-95648078D01*
X153166510Y-95678839D01*
X153166498Y-95678842D01*
X153020827Y-95739180D01*
X153020814Y-95739187D01*
X152889711Y-95826788D01*
X152889707Y-95826791D01*
X152778213Y-95938285D01*
X152778210Y-95938289D01*
X152690609Y-96069392D01*
X152690602Y-96069405D01*
X152630264Y-96215076D01*
X152630261Y-96215088D01*
X152599500Y-96369731D01*
X149046787Y-96369731D01*
X149046787Y-96218188D01*
X149046787Y-96218185D01*
X149046786Y-96218183D01*
X149017192Y-96069405D01*
X149016024Y-96063533D01*
X148997883Y-96019737D01*
X148955684Y-95917857D01*
X148955677Y-95917844D01*
X148868076Y-95786741D01*
X148868073Y-95786737D01*
X148756579Y-95675243D01*
X148756575Y-95675240D01*
X148625472Y-95587639D01*
X148625459Y-95587632D01*
X148479788Y-95527294D01*
X148479776Y-95527291D01*
X148325132Y-95496530D01*
X148325129Y-95496530D01*
X148167445Y-95496530D01*
X148167442Y-95496530D01*
X148012797Y-95527291D01*
X148012785Y-95527294D01*
X147867114Y-95587632D01*
X147867101Y-95587639D01*
X147735998Y-95675240D01*
X147735994Y-95675243D01*
X147624500Y-95786737D01*
X147624497Y-95786741D01*
X147536896Y-95917844D01*
X147536889Y-95917857D01*
X147476551Y-96063528D01*
X147476548Y-96063540D01*
X147445787Y-96218183D01*
X147445787Y-96375876D01*
X147476548Y-96530519D01*
X147476551Y-96530531D01*
X147536889Y-96676202D01*
X147536896Y-96676215D01*
X147624497Y-96807318D01*
X147624500Y-96807322D01*
X147735994Y-96918816D01*
X147735998Y-96918819D01*
X147867101Y-97006420D01*
X147867114Y-97006427D01*
X147996962Y-97060211D01*
X148012790Y-97066767D01*
X148134486Y-97090974D01*
X148167440Y-97097529D01*
X148167443Y-97097530D01*
X148326765Y-97097530D01*
X148393804Y-97117215D01*
X148439559Y-97170019D01*
X148449503Y-97239177D01*
X148420478Y-97302733D01*
X148414446Y-97309211D01*
X148373238Y-97350418D01*
X148373235Y-97350422D01*
X148285634Y-97481525D01*
X148285627Y-97481538D01*
X148225288Y-97627211D01*
X148225286Y-97627217D01*
X148212178Y-97693115D01*
X148179792Y-97755026D01*
X148138019Y-97783481D01*
X148120825Y-97790603D01*
X148120814Y-97790609D01*
X147989711Y-97878210D01*
X147989707Y-97878213D01*
X147878213Y-97989707D01*
X147878210Y-97989711D01*
X147790609Y-98120814D01*
X147790602Y-98120827D01*
X147730264Y-98266498D01*
X147730261Y-98266510D01*
X147699500Y-98421153D01*
X147699500Y-98578846D01*
X147730261Y-98733489D01*
X147730264Y-98733501D01*
X147790602Y-98879172D01*
X147790609Y-98879185D01*
X147878210Y-99010288D01*
X147878213Y-99010292D01*
X147989707Y-99121786D01*
X147989711Y-99121789D01*
X148120814Y-99209390D01*
X148120827Y-99209397D01*
X148266498Y-99269735D01*
X148266503Y-99269737D01*
X148406544Y-99297593D01*
X148421153Y-99300499D01*
X148421156Y-99300500D01*
X148509468Y-99300500D01*
X148527862Y-99305901D01*
X148547031Y-99306326D01*
X148560696Y-99315542D01*
X148576507Y-99320185D01*
X148589059Y-99334671D01*
X148604958Y-99345394D01*
X148611471Y-99360535D01*
X148622262Y-99372989D01*
X148624990Y-99391964D01*
X148632567Y-99409578D01*
X148629860Y-99425834D01*
X148632206Y-99442147D01*
X148624241Y-99459586D01*
X148621093Y-99478499D01*
X148605744Y-99500089D01*
X148603181Y-99505703D01*
X148601358Y-99507760D01*
X148599289Y-99510041D01*
X148598867Y-99510464D01*
X148598861Y-99510473D01*
X148598853Y-99510482D01*
X148598787Y-99510594D01*
X148598785Y-99510598D01*
X148577807Y-99546937D01*
X148563544Y-99571644D01*
X148532975Y-99624592D01*
X148532972Y-99624602D01*
X148532966Y-99624613D01*
X148532813Y-99625181D01*
X148532811Y-99625186D01*
X148514948Y-99691868D01*
X148514947Y-99691873D01*
X148498867Y-99751886D01*
X148498867Y-99751896D01*
X148498864Y-99751908D01*
X148498864Y-99752365D01*
X148498864Y-99752366D01*
X148498867Y-99810256D01*
X148498867Y-99889765D01*
X148498869Y-99889810D01*
X148500176Y-129024893D01*
X148480494Y-129091934D01*
X148427693Y-129137691D01*
X148369489Y-129148719D01*
X147892127Y-129122940D01*
X147887582Y-129122610D01*
X146823327Y-129025808D01*
X146818796Y-129025312D01*
X145758795Y-128889460D01*
X145754286Y-128888798D01*
X144699973Y-128714082D01*
X144695491Y-128713254D01*
X143648335Y-128499915D01*
X143643886Y-128498923D01*
X142605289Y-128247248D01*
X142600880Y-128246094D01*
X141572192Y-127956410D01*
X141567829Y-127955094D01*
X140550528Y-127627816D01*
X140546215Y-127626341D01*
X139541585Y-127261884D01*
X139537330Y-127260251D01*
X138546798Y-126859131D01*
X138542606Y-126857343D01*
X137567481Y-126420092D01*
X137563357Y-126418151D01*
X136604964Y-125945361D01*
X136600914Y-125943270D01*
X135660520Y-125435568D01*
X135656550Y-125433329D01*
X135354892Y-125255852D01*
X134735461Y-124891417D01*
X134731587Y-124889041D01*
X134554770Y-124776066D01*
X133831032Y-124313643D01*
X133827263Y-124311137D01*
X133164099Y-123852248D01*
X132948442Y-123703020D01*
X132944743Y-123700358D01*
X132088910Y-123060391D01*
X132085310Y-123057595D01*
X131253549Y-122386589D01*
X131250055Y-122383663D01*
X130443509Y-121682538D01*
X130440125Y-121679485D01*
X129659911Y-120949214D01*
X129656642Y-120946039D01*
X129562504Y-120851201D01*
X129562499Y-120851197D01*
X129492692Y-120780871D01*
X129480624Y-120768713D01*
X136149500Y-120768713D01*
X136149500Y-121231287D01*
X136159062Y-121291657D01*
X136175676Y-121396559D01*
X136182754Y-121441243D01*
X136247062Y-121639163D01*
X136248444Y-121643414D01*
X136344951Y-121832820D01*
X136469890Y-122004786D01*
X136620213Y-122155109D01*
X136792179Y-122280048D01*
X136792181Y-122280049D01*
X136792184Y-122280051D01*
X136981588Y-122376557D01*
X137183757Y-122442246D01*
X137393713Y-122475500D01*
X137393714Y-122475500D01*
X137606286Y-122475500D01*
X137606287Y-122475500D01*
X137816243Y-122442246D01*
X138018412Y-122376557D01*
X138207816Y-122280051D01*
X138268357Y-122236066D01*
X138379786Y-122155109D01*
X138379788Y-122155106D01*
X138379792Y-122155104D01*
X138530104Y-122004792D01*
X138649683Y-121840204D01*
X138705011Y-121797540D01*
X138774624Y-121791561D01*
X138836420Y-121824166D01*
X138850313Y-121840199D01*
X138932983Y-121953985D01*
X138969896Y-122004792D01*
X139120213Y-122155109D01*
X139292179Y-122280048D01*
X139292181Y-122280049D01*
X139292184Y-122280051D01*
X139481588Y-122376557D01*
X139683757Y-122442246D01*
X139893713Y-122475500D01*
X139893714Y-122475500D01*
X140106286Y-122475500D01*
X140106287Y-122475500D01*
X140316243Y-122442246D01*
X140518412Y-122376557D01*
X140707816Y-122280051D01*
X140768357Y-122236066D01*
X140879786Y-122155109D01*
X140879788Y-122155106D01*
X140879792Y-122155104D01*
X141030104Y-122004792D01*
X141149991Y-121839779D01*
X141205320Y-121797115D01*
X141274933Y-121791136D01*
X141336729Y-121823741D01*
X141350627Y-121839781D01*
X141470272Y-122004459D01*
X141470276Y-122004464D01*
X141620535Y-122154723D01*
X141620540Y-122154727D01*
X141792442Y-122279620D01*
X141981782Y-122376095D01*
X142183871Y-122441757D01*
X142250000Y-122452231D01*
X142250000Y-121404145D01*
X142316657Y-121442630D01*
X142437465Y-121475000D01*
X142562535Y-121475000D01*
X142683343Y-121442630D01*
X142750000Y-121404145D01*
X142750000Y-122452230D01*
X142816126Y-122441757D01*
X142816129Y-122441757D01*
X143018217Y-122376095D01*
X143207557Y-122279620D01*
X143379458Y-122154728D01*
X143518330Y-122015856D01*
X143579653Y-121982371D01*
X143649345Y-121987355D01*
X143705279Y-122029226D01*
X143711551Y-122038440D01*
X143715185Y-122044331D01*
X143715186Y-122044334D01*
X143807288Y-122193656D01*
X143931344Y-122317712D01*
X144080666Y-122409814D01*
X144247203Y-122464999D01*
X144349991Y-122475500D01*
X145650008Y-122475499D01*
X145752797Y-122464999D01*
X145919334Y-122409814D01*
X146068656Y-122317712D01*
X146192712Y-122193656D01*
X146284814Y-122044334D01*
X146339999Y-121877797D01*
X146350500Y-121775009D01*
X146350499Y-120224992D01*
X146348851Y-120208863D01*
X146339999Y-120122203D01*
X146339998Y-120122200D01*
X146314896Y-120046448D01*
X146284814Y-119955666D01*
X146192712Y-119806344D01*
X146068656Y-119682288D01*
X145919334Y-119590186D01*
X145752797Y-119535001D01*
X145752795Y-119535000D01*
X145650010Y-119524500D01*
X144349998Y-119524500D01*
X144349981Y-119524501D01*
X144247203Y-119535000D01*
X144247200Y-119535001D01*
X144080668Y-119590185D01*
X144080663Y-119590187D01*
X143931342Y-119682289D01*
X143807289Y-119806342D01*
X143711551Y-119961559D01*
X143659603Y-120008283D01*
X143590640Y-120019506D01*
X143526558Y-119991662D01*
X143518331Y-119984143D01*
X143379464Y-119845276D01*
X143379459Y-119845272D01*
X143207557Y-119720379D01*
X143018215Y-119623903D01*
X142816124Y-119558241D01*
X142750000Y-119547768D01*
X142750000Y-120595854D01*
X142683343Y-120557370D01*
X142562535Y-120525000D01*
X142437465Y-120525000D01*
X142316657Y-120557370D01*
X142250000Y-120595854D01*
X142250000Y-119547768D01*
X142249999Y-119547768D01*
X142183875Y-119558241D01*
X141981784Y-119623903D01*
X141792442Y-119720379D01*
X141620540Y-119845272D01*
X141620535Y-119845276D01*
X141470276Y-119995535D01*
X141470272Y-119995540D01*
X141350627Y-120160218D01*
X141295297Y-120202884D01*
X141225684Y-120208863D01*
X141163889Y-120176257D01*
X141149991Y-120160218D01*
X141030109Y-119995214D01*
X141030105Y-119995209D01*
X140879786Y-119844890D01*
X140707820Y-119719951D01*
X140518414Y-119623444D01*
X140518413Y-119623443D01*
X140518412Y-119623443D01*
X140316243Y-119557754D01*
X140316241Y-119557753D01*
X140316240Y-119557753D01*
X140154957Y-119532208D01*
X140106287Y-119524500D01*
X139893713Y-119524500D01*
X139845042Y-119532208D01*
X139683760Y-119557753D01*
X139683757Y-119557754D01*
X139486679Y-119621789D01*
X139481585Y-119623444D01*
X139292179Y-119719951D01*
X139120213Y-119844890D01*
X138969894Y-119995209D01*
X138969890Y-119995214D01*
X138850318Y-120159793D01*
X138794989Y-120202459D01*
X138725375Y-120208438D01*
X138663580Y-120175833D01*
X138649682Y-120159793D01*
X138530109Y-119995214D01*
X138530105Y-119995209D01*
X138379786Y-119844890D01*
X138207820Y-119719951D01*
X138018414Y-119623444D01*
X138018413Y-119623443D01*
X138018412Y-119623443D01*
X137816243Y-119557754D01*
X137816241Y-119557753D01*
X137816240Y-119557753D01*
X137654957Y-119532208D01*
X137606287Y-119524500D01*
X137393713Y-119524500D01*
X137345042Y-119532208D01*
X137183760Y-119557753D01*
X137183757Y-119557754D01*
X136986679Y-119621789D01*
X136981585Y-119623444D01*
X136792179Y-119719951D01*
X136620213Y-119844890D01*
X136469890Y-119995213D01*
X136344951Y-120167179D01*
X136248444Y-120356585D01*
X136182753Y-120558760D01*
X136162355Y-120687550D01*
X136149500Y-120768713D01*
X129480624Y-120768713D01*
X128903761Y-120187558D01*
X128900615Y-120184269D01*
X128893226Y-120176257D01*
X128666736Y-119930654D01*
X128176145Y-119398663D01*
X128173117Y-119395256D01*
X127477988Y-118583535D01*
X127475088Y-118580019D01*
X127245132Y-118290609D01*
X126810278Y-117743326D01*
X126807515Y-117739715D01*
X126731047Y-117635858D01*
X126173878Y-116879122D01*
X126171248Y-116875408D01*
X125569688Y-115992142D01*
X125567192Y-115988329D01*
X125144753Y-115316243D01*
X124998472Y-115083515D01*
X124996126Y-115079625D01*
X124944119Y-114989711D01*
X124461054Y-114154543D01*
X124458849Y-114150562D01*
X124442753Y-114120213D01*
X123958139Y-113206450D01*
X123956080Y-113202388D01*
X123896267Y-113078842D01*
X123490386Y-112240476D01*
X123488515Y-112236422D01*
X123058472Y-111258015D01*
X123056734Y-111253857D01*
X122662946Y-110260327D01*
X122661351Y-110256074D01*
X122659198Y-110250000D01*
X122342338Y-109355957D01*
X122304356Y-109248788D01*
X122302913Y-109244465D01*
X122179327Y-108850318D01*
X121983163Y-108224702D01*
X121981899Y-108220393D01*
X121755701Y-107393713D01*
X129024500Y-107393713D01*
X129024500Y-107606286D01*
X129054887Y-107798146D01*
X129057754Y-107816243D01*
X129114117Y-107989711D01*
X129123444Y-108018414D01*
X129219951Y-108207820D01*
X129344890Y-108379786D01*
X129495209Y-108530105D01*
X129495214Y-108530109D01*
X129659793Y-108649682D01*
X129702459Y-108705011D01*
X129708438Y-108774625D01*
X129675833Y-108836420D01*
X129659793Y-108850318D01*
X129495214Y-108969890D01*
X129495209Y-108969894D01*
X129344890Y-109120213D01*
X129219951Y-109292179D01*
X129123444Y-109481585D01*
X129057753Y-109683760D01*
X129033249Y-109838474D01*
X129024500Y-109893713D01*
X129024500Y-110106287D01*
X129057754Y-110316243D01*
X129120803Y-110510288D01*
X129123444Y-110518414D01*
X129219951Y-110707820D01*
X129344890Y-110879786D01*
X129495209Y-111030105D01*
X129495214Y-111030109D01*
X129660218Y-111149991D01*
X129702884Y-111205320D01*
X129708863Y-111274934D01*
X129676258Y-111336729D01*
X129660218Y-111350627D01*
X129495540Y-111470272D01*
X129495535Y-111470276D01*
X129345276Y-111620535D01*
X129345272Y-111620540D01*
X129220379Y-111792442D01*
X129123904Y-111981782D01*
X129058242Y-112183870D01*
X129058242Y-112183873D01*
X129047769Y-112250000D01*
X130095854Y-112250000D01*
X130057370Y-112316657D01*
X130025000Y-112437465D01*
X130025000Y-112562535D01*
X130057370Y-112683343D01*
X130095854Y-112750000D01*
X129047769Y-112750000D01*
X129058242Y-112816126D01*
X129058242Y-112816129D01*
X129123904Y-113018217D01*
X129220379Y-113207557D01*
X129345272Y-113379459D01*
X129345276Y-113379464D01*
X129484143Y-113518331D01*
X129517628Y-113579654D01*
X129512644Y-113649346D01*
X129470772Y-113705279D01*
X129461559Y-113711551D01*
X129306342Y-113807289D01*
X129182289Y-113931342D01*
X129090187Y-114080663D01*
X129090186Y-114080666D01*
X129035001Y-114247203D01*
X129035001Y-114247204D01*
X129035000Y-114247204D01*
X129024500Y-114349983D01*
X129024500Y-115650001D01*
X129024501Y-115650018D01*
X129035000Y-115752796D01*
X129035001Y-115752799D01*
X129076880Y-115879179D01*
X129090186Y-115919334D01*
X129182288Y-116068656D01*
X129306344Y-116192712D01*
X129455666Y-116284814D01*
X129622203Y-116339999D01*
X129724991Y-116350500D01*
X131275008Y-116350499D01*
X131377797Y-116339999D01*
X131544334Y-116284814D01*
X131693656Y-116192712D01*
X131817712Y-116068656D01*
X131909814Y-115919334D01*
X131964999Y-115752797D01*
X131975500Y-115650009D01*
X131975499Y-114349992D01*
X131964999Y-114247203D01*
X131909814Y-114080666D01*
X131817712Y-113931344D01*
X131693656Y-113807288D01*
X131544334Y-113715186D01*
X131544332Y-113715185D01*
X131538440Y-113711551D01*
X131491716Y-113659603D01*
X131480493Y-113590641D01*
X131508337Y-113526558D01*
X131515856Y-113518330D01*
X131654728Y-113379458D01*
X131779620Y-113207557D01*
X131876095Y-113018217D01*
X131941757Y-112816129D01*
X131941757Y-112816126D01*
X131952231Y-112750000D01*
X130904146Y-112750000D01*
X130942630Y-112683343D01*
X130975000Y-112562535D01*
X130975000Y-112437465D01*
X130942630Y-112316657D01*
X130904146Y-112250000D01*
X131952231Y-112250000D01*
X131941757Y-112183873D01*
X131941757Y-112183870D01*
X131876095Y-111981782D01*
X131779620Y-111792442D01*
X131654727Y-111620540D01*
X131654723Y-111620535D01*
X131504464Y-111470276D01*
X131504459Y-111470272D01*
X131339781Y-111350627D01*
X131297115Y-111295297D01*
X131291136Y-111225684D01*
X131323741Y-111163889D01*
X131339776Y-111149994D01*
X131504792Y-111030104D01*
X131655104Y-110879792D01*
X131655106Y-110879788D01*
X131655109Y-110879786D01*
X131778903Y-110709396D01*
X131780051Y-110707816D01*
X131876557Y-110518412D01*
X131942246Y-110316243D01*
X131975500Y-110106287D01*
X131975500Y-109893713D01*
X131942246Y-109683757D01*
X131876557Y-109481588D01*
X131780051Y-109292184D01*
X131780049Y-109292181D01*
X131780048Y-109292179D01*
X131655109Y-109120213D01*
X131504792Y-108969896D01*
X131436590Y-108920345D01*
X131340204Y-108850316D01*
X131297540Y-108794989D01*
X131291561Y-108725376D01*
X131324166Y-108663580D01*
X131340199Y-108649686D01*
X131504792Y-108530104D01*
X131655104Y-108379792D01*
X131655106Y-108379788D01*
X131655109Y-108379786D01*
X131780048Y-108207820D01*
X131780047Y-108207820D01*
X131780051Y-108207816D01*
X131876557Y-108018412D01*
X131942246Y-107816243D01*
X131975500Y-107606287D01*
X131975500Y-107393713D01*
X131942246Y-107183757D01*
X131876557Y-106981588D01*
X131809501Y-106849983D01*
X135024500Y-106849983D01*
X135024500Y-108150001D01*
X135024501Y-108150018D01*
X135035000Y-108252796D01*
X135035001Y-108252799D01*
X135076880Y-108379179D01*
X135090186Y-108419334D01*
X135182288Y-108568656D01*
X135306344Y-108692712D01*
X135372467Y-108733497D01*
X135461558Y-108788448D01*
X135508283Y-108840396D01*
X135519506Y-108909358D01*
X135491663Y-108973441D01*
X135484144Y-108981668D01*
X135345271Y-109120541D01*
X135220379Y-109292442D01*
X135123904Y-109481782D01*
X135058242Y-109683870D01*
X135058242Y-109683873D01*
X135047769Y-109750000D01*
X136095854Y-109750000D01*
X136057370Y-109816657D01*
X136025000Y-109937465D01*
X136025000Y-110062535D01*
X136057370Y-110183343D01*
X136095854Y-110250000D01*
X135047769Y-110250000D01*
X135058242Y-110316126D01*
X135058242Y-110316129D01*
X135123904Y-110518217D01*
X135220379Y-110707557D01*
X135345272Y-110879459D01*
X135345276Y-110879464D01*
X135495535Y-111029723D01*
X135495540Y-111029727D01*
X135660218Y-111149372D01*
X135702884Y-111204701D01*
X135708863Y-111274315D01*
X135676258Y-111336110D01*
X135660218Y-111350008D01*
X135495214Y-111469890D01*
X135495209Y-111469894D01*
X135344890Y-111620213D01*
X135219951Y-111792179D01*
X135123444Y-111981585D01*
X135057753Y-112183760D01*
X135024500Y-112393713D01*
X135024500Y-112606286D01*
X135052938Y-112785840D01*
X135057754Y-112816243D01*
X135097219Y-112937704D01*
X135123444Y-113018414D01*
X135219951Y-113207820D01*
X135344890Y-113379786D01*
X135495209Y-113530105D01*
X135495214Y-113530109D01*
X135659793Y-113649682D01*
X135702459Y-113705011D01*
X135708438Y-113774625D01*
X135675833Y-113836420D01*
X135659793Y-113850318D01*
X135495214Y-113969890D01*
X135495209Y-113969894D01*
X135344890Y-114120213D01*
X135219951Y-114292179D01*
X135123444Y-114481585D01*
X135057753Y-114683760D01*
X135024500Y-114893713D01*
X135024500Y-115106286D01*
X135055260Y-115300500D01*
X135057754Y-115316243D01*
X135108154Y-115471359D01*
X135123444Y-115518414D01*
X135219951Y-115707820D01*
X135344890Y-115879786D01*
X135495213Y-116030109D01*
X135667179Y-116155048D01*
X135667181Y-116155049D01*
X135667184Y-116155051D01*
X135856588Y-116251557D01*
X136058757Y-116317246D01*
X136268713Y-116350500D01*
X136268714Y-116350500D01*
X136731286Y-116350500D01*
X136731287Y-116350500D01*
X136941243Y-116317246D01*
X137143412Y-116251557D01*
X137332816Y-116155051D01*
X137378602Y-116121786D01*
X137504786Y-116030109D01*
X137504788Y-116030106D01*
X137504792Y-116030104D01*
X137655104Y-115879792D01*
X137655106Y-115879788D01*
X137655109Y-115879786D01*
X137780048Y-115707820D01*
X137780047Y-115707820D01*
X137780051Y-115707816D01*
X137876557Y-115518412D01*
X137942246Y-115316243D01*
X137975500Y-115106287D01*
X137975500Y-114893713D01*
X137942246Y-114683757D01*
X137876557Y-114481588D01*
X137780051Y-114292184D01*
X137780049Y-114292181D01*
X137780048Y-114292179D01*
X137655109Y-114120213D01*
X137504792Y-113969896D01*
X137451729Y-113931344D01*
X137340204Y-113850316D01*
X137297540Y-113794989D01*
X137291561Y-113725376D01*
X137324166Y-113663580D01*
X137340199Y-113649686D01*
X137504792Y-113530104D01*
X137655104Y-113379792D01*
X137655106Y-113379788D01*
X137655109Y-113379786D01*
X137780048Y-113207820D01*
X137780047Y-113207820D01*
X137780051Y-113207816D01*
X137876557Y-113018412D01*
X137942246Y-112816243D01*
X137975500Y-112606287D01*
X137975500Y-112393713D01*
X137942246Y-112183757D01*
X137876557Y-111981588D01*
X137780051Y-111792184D01*
X137780049Y-111792181D01*
X137780048Y-111792179D01*
X137655109Y-111620213D01*
X137504790Y-111469894D01*
X137504785Y-111469890D01*
X137339781Y-111350008D01*
X137297115Y-111294678D01*
X137291136Y-111225065D01*
X137323741Y-111163270D01*
X137339781Y-111149371D01*
X137504466Y-111029721D01*
X137654723Y-110879464D01*
X137654727Y-110879459D01*
X137779620Y-110707557D01*
X137876095Y-110518217D01*
X137941757Y-110316129D01*
X137941757Y-110316126D01*
X137952231Y-110250000D01*
X136904146Y-110250000D01*
X136942630Y-110183343D01*
X136975000Y-110062535D01*
X136975000Y-109937465D01*
X136942630Y-109816657D01*
X136904146Y-109750000D01*
X137952231Y-109750000D01*
X137941757Y-109683873D01*
X137941757Y-109683870D01*
X137876095Y-109481782D01*
X137779620Y-109292442D01*
X137654727Y-109120540D01*
X137654723Y-109120535D01*
X137515856Y-108981668D01*
X137482371Y-108920345D01*
X137487355Y-108850653D01*
X137529227Y-108794720D01*
X137538441Y-108788448D01*
X137544331Y-108784814D01*
X137544334Y-108784814D01*
X137693656Y-108692712D01*
X137817712Y-108568656D01*
X137909814Y-108419334D01*
X137964999Y-108252797D01*
X137975500Y-108150009D01*
X137975499Y-106849992D01*
X137975498Y-106849983D01*
X142024500Y-106849983D01*
X142024500Y-108150001D01*
X142024501Y-108150018D01*
X142035000Y-108252796D01*
X142035001Y-108252799D01*
X142076880Y-108379179D01*
X142090186Y-108419334D01*
X142182288Y-108568656D01*
X142306344Y-108692712D01*
X142372467Y-108733497D01*
X142461558Y-108788448D01*
X142508283Y-108840396D01*
X142519506Y-108909358D01*
X142491663Y-108973441D01*
X142484144Y-108981668D01*
X142345271Y-109120541D01*
X142220379Y-109292442D01*
X142123904Y-109481782D01*
X142058242Y-109683870D01*
X142058242Y-109683873D01*
X142047769Y-109750000D01*
X143095854Y-109750000D01*
X143057370Y-109816657D01*
X143025000Y-109937465D01*
X143025000Y-110062535D01*
X143057370Y-110183343D01*
X143095854Y-110250000D01*
X142047769Y-110250000D01*
X142058242Y-110316126D01*
X142058242Y-110316129D01*
X142123904Y-110518217D01*
X142220379Y-110707557D01*
X142345272Y-110879459D01*
X142345276Y-110879464D01*
X142495535Y-111029723D01*
X142495540Y-111029727D01*
X142660218Y-111149372D01*
X142702884Y-111204701D01*
X142708863Y-111274315D01*
X142676258Y-111336110D01*
X142660218Y-111350008D01*
X142495214Y-111469890D01*
X142495209Y-111469894D01*
X142344890Y-111620213D01*
X142219951Y-111792179D01*
X142123444Y-111981585D01*
X142057753Y-112183760D01*
X142024500Y-112393713D01*
X142024500Y-112606286D01*
X142052938Y-112785840D01*
X142057754Y-112816243D01*
X142097219Y-112937704D01*
X142123444Y-113018414D01*
X142219951Y-113207820D01*
X142344890Y-113379786D01*
X142495209Y-113530105D01*
X142495214Y-113530109D01*
X142659793Y-113649682D01*
X142702459Y-113705011D01*
X142708438Y-113774625D01*
X142675833Y-113836420D01*
X142659793Y-113850318D01*
X142495214Y-113969890D01*
X142495209Y-113969894D01*
X142344890Y-114120213D01*
X142219951Y-114292179D01*
X142123444Y-114481585D01*
X142057753Y-114683760D01*
X142024500Y-114893713D01*
X142024500Y-115106286D01*
X142055260Y-115300500D01*
X142057754Y-115316243D01*
X142108154Y-115471359D01*
X142123444Y-115518414D01*
X142219951Y-115707820D01*
X142344890Y-115879786D01*
X142495213Y-116030109D01*
X142667179Y-116155048D01*
X142667181Y-116155049D01*
X142667184Y-116155051D01*
X142856588Y-116251557D01*
X143058757Y-116317246D01*
X143268713Y-116350500D01*
X143268714Y-116350500D01*
X143731286Y-116350500D01*
X143731287Y-116350500D01*
X143941243Y-116317246D01*
X144143412Y-116251557D01*
X144332816Y-116155051D01*
X144378602Y-116121786D01*
X144504786Y-116030109D01*
X144504788Y-116030106D01*
X144504792Y-116030104D01*
X144655104Y-115879792D01*
X144655106Y-115879788D01*
X144655109Y-115879786D01*
X144780048Y-115707820D01*
X144780047Y-115707820D01*
X144780051Y-115707816D01*
X144876557Y-115518412D01*
X144942246Y-115316243D01*
X144975500Y-115106287D01*
X144975500Y-114893713D01*
X144942246Y-114683757D01*
X144876557Y-114481588D01*
X144780051Y-114292184D01*
X144780049Y-114292181D01*
X144780048Y-114292179D01*
X144655109Y-114120213D01*
X144504792Y-113969896D01*
X144451729Y-113931344D01*
X144340204Y-113850316D01*
X144297540Y-113794989D01*
X144291561Y-113725376D01*
X144324166Y-113663580D01*
X144340199Y-113649686D01*
X144504792Y-113530104D01*
X144655104Y-113379792D01*
X144655106Y-113379788D01*
X144655109Y-113379786D01*
X144780048Y-113207820D01*
X144780047Y-113207820D01*
X144780051Y-113207816D01*
X144876557Y-113018412D01*
X144942246Y-112816243D01*
X144975500Y-112606287D01*
X144975500Y-112393713D01*
X144942246Y-112183757D01*
X144876557Y-111981588D01*
X144780051Y-111792184D01*
X144780049Y-111792181D01*
X144780048Y-111792179D01*
X144655109Y-111620213D01*
X144504790Y-111469894D01*
X144504785Y-111469890D01*
X144339781Y-111350008D01*
X144297115Y-111294678D01*
X144291136Y-111225065D01*
X144323741Y-111163270D01*
X144339781Y-111149371D01*
X144504466Y-111029721D01*
X144654723Y-110879464D01*
X144654727Y-110879459D01*
X144779620Y-110707557D01*
X144876095Y-110518217D01*
X144941757Y-110316129D01*
X144941757Y-110316126D01*
X144952231Y-110250000D01*
X143904146Y-110250000D01*
X143942630Y-110183343D01*
X143975000Y-110062535D01*
X143975000Y-109937465D01*
X143942630Y-109816657D01*
X143904146Y-109750000D01*
X144952231Y-109750000D01*
X144941757Y-109683873D01*
X144941757Y-109683870D01*
X144876095Y-109481782D01*
X144779620Y-109292442D01*
X144654727Y-109120540D01*
X144654723Y-109120535D01*
X144515856Y-108981668D01*
X144482371Y-108920345D01*
X144487355Y-108850653D01*
X144529227Y-108794720D01*
X144538441Y-108788448D01*
X144544331Y-108784814D01*
X144544334Y-108784814D01*
X144693656Y-108692712D01*
X144817712Y-108568656D01*
X144909814Y-108419334D01*
X144964999Y-108252797D01*
X144975500Y-108150009D01*
X144975499Y-106849992D01*
X144975065Y-106845748D01*
X144964999Y-106747203D01*
X144964998Y-106747200D01*
X144960082Y-106732365D01*
X144909814Y-106580666D01*
X144817712Y-106431344D01*
X144693656Y-106307288D01*
X144544334Y-106215186D01*
X144377797Y-106160001D01*
X144377795Y-106160000D01*
X144275010Y-106149500D01*
X142724998Y-106149500D01*
X142724981Y-106149501D01*
X142622203Y-106160000D01*
X142622200Y-106160001D01*
X142455668Y-106215185D01*
X142455663Y-106215187D01*
X142306342Y-106307289D01*
X142182289Y-106431342D01*
X142090187Y-106580663D01*
X142090186Y-106580666D01*
X142035001Y-106747203D01*
X142035001Y-106747204D01*
X142035000Y-106747204D01*
X142024500Y-106849983D01*
X137975498Y-106849983D01*
X137975402Y-106849046D01*
X137964999Y-106747203D01*
X137964998Y-106747200D01*
X137960082Y-106732365D01*
X137909814Y-106580666D01*
X137817712Y-106431344D01*
X137693656Y-106307288D01*
X137544334Y-106215186D01*
X137377797Y-106160001D01*
X137377795Y-106160000D01*
X137275010Y-106149500D01*
X135724998Y-106149500D01*
X135724981Y-106149501D01*
X135622203Y-106160000D01*
X135622200Y-106160001D01*
X135455668Y-106215185D01*
X135455663Y-106215187D01*
X135306342Y-106307289D01*
X135182289Y-106431342D01*
X135090187Y-106580663D01*
X135090186Y-106580666D01*
X135035001Y-106747203D01*
X135035001Y-106747204D01*
X135035000Y-106747204D01*
X135024500Y-106849983D01*
X131809501Y-106849983D01*
X131780051Y-106792184D01*
X131780049Y-106792181D01*
X131780048Y-106792179D01*
X131655109Y-106620213D01*
X131504786Y-106469890D01*
X131332820Y-106344951D01*
X131143414Y-106248444D01*
X131143413Y-106248443D01*
X131143412Y-106248443D01*
X130941243Y-106182754D01*
X130941241Y-106182753D01*
X130941240Y-106182753D01*
X130779957Y-106157208D01*
X130731287Y-106149500D01*
X130268713Y-106149500D01*
X130220042Y-106157208D01*
X130058760Y-106182753D01*
X130058757Y-106182754D01*
X129902612Y-106233489D01*
X129856585Y-106248444D01*
X129667179Y-106344951D01*
X129495213Y-106469890D01*
X129344890Y-106620213D01*
X129219951Y-106792179D01*
X129123444Y-106981585D01*
X129057753Y-107183760D01*
X129024500Y-107393713D01*
X121755701Y-107393713D01*
X121699836Y-107189546D01*
X121698729Y-107185183D01*
X121695991Y-107173506D01*
X121454749Y-106144715D01*
X121453794Y-106140274D01*
X121248217Y-105091547D01*
X121247427Y-105087083D01*
X121247283Y-105086175D01*
X121080526Y-104031481D01*
X121079898Y-104026967D01*
X121061299Y-103872789D01*
X120990228Y-103283653D01*
X132199500Y-103283653D01*
X132199500Y-103441346D01*
X132230261Y-103595989D01*
X132230264Y-103596001D01*
X132290602Y-103741672D01*
X132290609Y-103741685D01*
X132378210Y-103872788D01*
X132378213Y-103872792D01*
X132489707Y-103984286D01*
X132489711Y-103984289D01*
X132620814Y-104071890D01*
X132620827Y-104071897D01*
X132766498Y-104132235D01*
X132766503Y-104132237D01*
X132921153Y-104162999D01*
X132921156Y-104163000D01*
X132921158Y-104163000D01*
X133078844Y-104163000D01*
X133078845Y-104162999D01*
X133233497Y-104132237D01*
X133379179Y-104071894D01*
X133510289Y-103984289D01*
X133621789Y-103872789D01*
X133709394Y-103741679D01*
X133769737Y-103595997D01*
X133800500Y-103441342D01*
X133800500Y-103283658D01*
X133800500Y-103283655D01*
X133800499Y-103283653D01*
X133781956Y-103190433D01*
X133769737Y-103129003D01*
X133748999Y-103078936D01*
X133709397Y-102983327D01*
X133709390Y-102983314D01*
X133621789Y-102852211D01*
X133621786Y-102852207D01*
X133510292Y-102740713D01*
X133510288Y-102740710D01*
X133379185Y-102653109D01*
X133379172Y-102653102D01*
X133233501Y-102592764D01*
X133233489Y-102592761D01*
X133078845Y-102562000D01*
X133078842Y-102562000D01*
X132921158Y-102562000D01*
X132921155Y-102562000D01*
X132766510Y-102592761D01*
X132766498Y-102592764D01*
X132620827Y-102653102D01*
X132620814Y-102653109D01*
X132489711Y-102740710D01*
X132489707Y-102740713D01*
X132378213Y-102852207D01*
X132378210Y-102852211D01*
X132290609Y-102983314D01*
X132290602Y-102983327D01*
X132230264Y-103128998D01*
X132230261Y-103129010D01*
X132199500Y-103283653D01*
X120990228Y-103283653D01*
X120951908Y-102966009D01*
X120951447Y-102961487D01*
X120950306Y-102947816D01*
X120862530Y-101896498D01*
X120862236Y-101891970D01*
X120812516Y-100824403D01*
X120812389Y-100819912D01*
X120802886Y-99848336D01*
X121265876Y-99848336D01*
X121265876Y-100151663D01*
X121299833Y-100453048D01*
X121299836Y-100453062D01*
X121367329Y-100748771D01*
X121367333Y-100748783D01*
X121467509Y-101035068D01*
X121599109Y-101308338D01*
X121599111Y-101308341D01*
X121760484Y-101565164D01*
X121949597Y-101802304D01*
X122164072Y-102016779D01*
X122401212Y-102205892D01*
X122658035Y-102367265D01*
X122931311Y-102498868D01*
X123146327Y-102574105D01*
X123217592Y-102599042D01*
X123217604Y-102599046D01*
X123513313Y-102666540D01*
X123513322Y-102666541D01*
X123513327Y-102666542D01*
X123714250Y-102689180D01*
X123814713Y-102700499D01*
X123814716Y-102700500D01*
X123814719Y-102700500D01*
X124118036Y-102700500D01*
X124118037Y-102700499D01*
X124272070Y-102683144D01*
X124419424Y-102666542D01*
X124419427Y-102666541D01*
X124419439Y-102666540D01*
X124715148Y-102599046D01*
X125001441Y-102498868D01*
X125274717Y-102367265D01*
X125531540Y-102205892D01*
X125768680Y-102016779D01*
X125983155Y-101802304D01*
X126172268Y-101565164D01*
X126333641Y-101308341D01*
X126465244Y-101035065D01*
X126565422Y-100748772D01*
X126632916Y-100453063D01*
X126634302Y-100440768D01*
X126665488Y-100163972D01*
X126666876Y-100151657D01*
X126666876Y-99848343D01*
X126646345Y-99666121D01*
X126632918Y-99546951D01*
X126632917Y-99546946D01*
X126632916Y-99546937D01*
X126565422Y-99251228D01*
X126558086Y-99230264D01*
X126514705Y-99106286D01*
X126465244Y-98964935D01*
X126333641Y-98691659D01*
X126172268Y-98434836D01*
X125983155Y-98197696D01*
X125768680Y-97983221D01*
X125751968Y-97969894D01*
X125708454Y-97935193D01*
X125531540Y-97794108D01*
X125274717Y-97632735D01*
X125274714Y-97632733D01*
X125001444Y-97501133D01*
X124715159Y-97400957D01*
X124715147Y-97400953D01*
X124457648Y-97342181D01*
X124419439Y-97333460D01*
X124419436Y-97333459D01*
X124419424Y-97333457D01*
X124118039Y-97299500D01*
X124118033Y-97299500D01*
X123814719Y-97299500D01*
X123814712Y-97299500D01*
X123513327Y-97333457D01*
X123513313Y-97333460D01*
X123217604Y-97400953D01*
X123217592Y-97400957D01*
X122931307Y-97501133D01*
X122658037Y-97632733D01*
X122401213Y-97794107D01*
X122164072Y-97983220D01*
X121949596Y-98197696D01*
X121760483Y-98434837D01*
X121599109Y-98691661D01*
X121467509Y-98964931D01*
X121367333Y-99251216D01*
X121367329Y-99251228D01*
X121299836Y-99546937D01*
X121299833Y-99546951D01*
X121265876Y-99848336D01*
X120802886Y-99848336D01*
X120801936Y-99751251D01*
X120801975Y-99746714D01*
X120802963Y-99710093D01*
X120830800Y-98678372D01*
X120831003Y-98673906D01*
X120899072Y-97607347D01*
X120899445Y-97602819D01*
X120901863Y-97578844D01*
X121006655Y-96539542D01*
X121007194Y-96535029D01*
X121007817Y-96530519D01*
X121153418Y-95476323D01*
X121154107Y-95471935D01*
X121339132Y-94419364D01*
X121340003Y-94414895D01*
X121371751Y-94266498D01*
X121563587Y-93369822D01*
X121564605Y-93365457D01*
X121826456Y-92329256D01*
X121827625Y-92324965D01*
X122127377Y-91299095D01*
X122128706Y-91294838D01*
X122276638Y-90849983D01*
X127524500Y-90849983D01*
X127524500Y-92150001D01*
X127524501Y-92150018D01*
X127535000Y-92252796D01*
X127535001Y-92252799D01*
X127590185Y-92419331D01*
X127590187Y-92419336D01*
X127610784Y-92452729D01*
X127682288Y-92568656D01*
X127806344Y-92692712D01*
X127881358Y-92738981D01*
X127961558Y-92788448D01*
X128008283Y-92840396D01*
X128019506Y-92909358D01*
X127991663Y-92973441D01*
X127984144Y-92981668D01*
X127845271Y-93120541D01*
X127720379Y-93292442D01*
X127623904Y-93481782D01*
X127558242Y-93683870D01*
X127558242Y-93683873D01*
X127547769Y-93750000D01*
X128595854Y-93750000D01*
X128557370Y-93816657D01*
X128525000Y-93937465D01*
X128525000Y-94062535D01*
X128557370Y-94183343D01*
X128595854Y-94250000D01*
X127547769Y-94250000D01*
X127558242Y-94316126D01*
X127558242Y-94316129D01*
X127623904Y-94518217D01*
X127720379Y-94707557D01*
X127845272Y-94879459D01*
X127845276Y-94879464D01*
X127995535Y-95029723D01*
X127995540Y-95029727D01*
X128160218Y-95149372D01*
X128202884Y-95204701D01*
X128208863Y-95274315D01*
X128176258Y-95336110D01*
X128160218Y-95350008D01*
X127995214Y-95469890D01*
X127995209Y-95469894D01*
X127844890Y-95620213D01*
X127719951Y-95792179D01*
X127623444Y-95981585D01*
X127557753Y-96183760D01*
X127524500Y-96393713D01*
X127524500Y-96606286D01*
X127556340Y-96807319D01*
X127557754Y-96816243D01*
X127614699Y-96991502D01*
X127623444Y-97018414D01*
X127719951Y-97207820D01*
X127844890Y-97379786D01*
X127995209Y-97530105D01*
X127995214Y-97530109D01*
X128159793Y-97649682D01*
X128202459Y-97705011D01*
X128208438Y-97774625D01*
X128175833Y-97836420D01*
X128159793Y-97850318D01*
X127995214Y-97969890D01*
X127995209Y-97969894D01*
X127844890Y-98120213D01*
X127719951Y-98292179D01*
X127623444Y-98481585D01*
X127557753Y-98683760D01*
X127524500Y-98893713D01*
X127524500Y-99106286D01*
X127555260Y-99300500D01*
X127557754Y-99316243D01*
X127620866Y-99510482D01*
X127623444Y-99518414D01*
X127719951Y-99707820D01*
X127844890Y-99879786D01*
X127995213Y-100030109D01*
X128167179Y-100155048D01*
X128167181Y-100155049D01*
X128167184Y-100155051D01*
X128356588Y-100251557D01*
X128558757Y-100317246D01*
X128768713Y-100350500D01*
X128768714Y-100350500D01*
X129231286Y-100350500D01*
X129231287Y-100350500D01*
X129441243Y-100317246D01*
X129643412Y-100251557D01*
X129832816Y-100155051D01*
X129937707Y-100078844D01*
X130004786Y-100030109D01*
X130004788Y-100030106D01*
X130004792Y-100030104D01*
X130155104Y-99879792D01*
X130155106Y-99879788D01*
X130155109Y-99879786D01*
X130280048Y-99707820D01*
X130280047Y-99707820D01*
X130280051Y-99707816D01*
X130376557Y-99518412D01*
X130442246Y-99316243D01*
X130475500Y-99106287D01*
X130475500Y-98893713D01*
X130442246Y-98683757D01*
X130376557Y-98481588D01*
X130280051Y-98292184D01*
X130280049Y-98292181D01*
X130280048Y-98292179D01*
X130155109Y-98120213D01*
X130004792Y-97969896D01*
X130004784Y-97969890D01*
X129840204Y-97850316D01*
X129797540Y-97794989D01*
X129791561Y-97725376D01*
X129824166Y-97663580D01*
X129840199Y-97649686D01*
X130004792Y-97530104D01*
X130113743Y-97421153D01*
X145199500Y-97421153D01*
X145199500Y-97578846D01*
X145230261Y-97733489D01*
X145230264Y-97733501D01*
X145290602Y-97879172D01*
X145290609Y-97879185D01*
X145378210Y-98010288D01*
X145378213Y-98010292D01*
X145489707Y-98121786D01*
X145489711Y-98121789D01*
X145620814Y-98209390D01*
X145620827Y-98209397D01*
X145758683Y-98266498D01*
X145766503Y-98269737D01*
X145879326Y-98292179D01*
X145921153Y-98300499D01*
X145921156Y-98300500D01*
X145921158Y-98300500D01*
X146078844Y-98300500D01*
X146078845Y-98300499D01*
X146233497Y-98269737D01*
X146379179Y-98209394D01*
X146510289Y-98121789D01*
X146621789Y-98010289D01*
X146709394Y-97879179D01*
X146769737Y-97733497D01*
X146800500Y-97578842D01*
X146800500Y-97421158D01*
X146800500Y-97421155D01*
X146800499Y-97421153D01*
X146792271Y-97379790D01*
X146769737Y-97266503D01*
X146756062Y-97233489D01*
X146709397Y-97120827D01*
X146709390Y-97120814D01*
X146621789Y-96989711D01*
X146621786Y-96989707D01*
X146510292Y-96878213D01*
X146510288Y-96878210D01*
X146379185Y-96790609D01*
X146379172Y-96790602D01*
X146233501Y-96730264D01*
X146233489Y-96730261D01*
X146078845Y-96699500D01*
X146078842Y-96699500D01*
X145921158Y-96699500D01*
X145921155Y-96699500D01*
X145766510Y-96730261D01*
X145766498Y-96730264D01*
X145620827Y-96790602D01*
X145620814Y-96790609D01*
X145489711Y-96878210D01*
X145489707Y-96878213D01*
X145378213Y-96989707D01*
X145378210Y-96989711D01*
X145290609Y-97120814D01*
X145290602Y-97120827D01*
X145230264Y-97266498D01*
X145230261Y-97266510D01*
X145199500Y-97421153D01*
X130113743Y-97421153D01*
X130155104Y-97379792D01*
X130160133Y-97372869D01*
X130182428Y-97342184D01*
X130182430Y-97342181D01*
X130218883Y-97292007D01*
X130280051Y-97207816D01*
X130376557Y-97018412D01*
X130442246Y-96816243D01*
X130475500Y-96606287D01*
X130475500Y-96393713D01*
X130442246Y-96183757D01*
X130376557Y-95981588D01*
X130280051Y-95792184D01*
X130280049Y-95792181D01*
X130280048Y-95792179D01*
X130155109Y-95620213D01*
X130004790Y-95469894D01*
X130004785Y-95469890D01*
X129839781Y-95350008D01*
X129797115Y-95294678D01*
X129791136Y-95225065D01*
X129823741Y-95163270D01*
X129839781Y-95149371D01*
X130004466Y-95029721D01*
X130154723Y-94879464D01*
X130154727Y-94879459D01*
X130279620Y-94707557D01*
X130376095Y-94518217D01*
X130441757Y-94316129D01*
X130441757Y-94316126D01*
X130452231Y-94250000D01*
X129404146Y-94250000D01*
X129442630Y-94183343D01*
X129475000Y-94062535D01*
X129475000Y-93937465D01*
X129442630Y-93816657D01*
X129404146Y-93750000D01*
X130452231Y-93750000D01*
X130441757Y-93683873D01*
X130441757Y-93683870D01*
X130376095Y-93481782D01*
X130279620Y-93292442D01*
X130154727Y-93120540D01*
X130154723Y-93120535D01*
X130015856Y-92981668D01*
X129982371Y-92920345D01*
X129987355Y-92850653D01*
X130029227Y-92794720D01*
X130038441Y-92788448D01*
X130044331Y-92784814D01*
X130044334Y-92784814D01*
X130193656Y-92692712D01*
X130317712Y-92568656D01*
X130409814Y-92419334D01*
X130464999Y-92252797D01*
X130475500Y-92150009D01*
X130475499Y-90849992D01*
X130471179Y-90807706D01*
X130464999Y-90747203D01*
X130464998Y-90747200D01*
X130452470Y-90709394D01*
X130409814Y-90580666D01*
X130317712Y-90431344D01*
X130193656Y-90307288D01*
X130044334Y-90215186D01*
X129877797Y-90160001D01*
X129877795Y-90160000D01*
X129775010Y-90149500D01*
X128224998Y-90149500D01*
X128224981Y-90149501D01*
X128122203Y-90160000D01*
X128122200Y-90160001D01*
X127955668Y-90215185D01*
X127955663Y-90215187D01*
X127806342Y-90307289D01*
X127682289Y-90431342D01*
X127590187Y-90580663D01*
X127590185Y-90580668D01*
X127576882Y-90620814D01*
X127535001Y-90747203D01*
X127535001Y-90747204D01*
X127535000Y-90747204D01*
X127524500Y-90849983D01*
X122276638Y-90849983D01*
X122465959Y-90280665D01*
X122467452Y-90276437D01*
X122841738Y-89275371D01*
X122843369Y-89271240D01*
X123254198Y-88284584D01*
X123255999Y-88280473D01*
X123702804Y-87309597D01*
X123704752Y-87305561D01*
X124186933Y-86351759D01*
X124189028Y-86347798D01*
X124705914Y-85412400D01*
X124708185Y-85408464D01*
X124743366Y-85349983D01*
X134524500Y-85349983D01*
X134524500Y-86650001D01*
X134524501Y-86650018D01*
X134535000Y-86752796D01*
X134535001Y-86752799D01*
X134579102Y-86885884D01*
X134590186Y-86919334D01*
X134682288Y-87068656D01*
X134806344Y-87192712D01*
X134891953Y-87245516D01*
X134961558Y-87288448D01*
X135008283Y-87340396D01*
X135019506Y-87409358D01*
X134991663Y-87473441D01*
X134984144Y-87481668D01*
X134845271Y-87620541D01*
X134720379Y-87792442D01*
X134623904Y-87981782D01*
X134558242Y-88183870D01*
X134558242Y-88183873D01*
X134547769Y-88250000D01*
X135595854Y-88250000D01*
X135557370Y-88316657D01*
X135525000Y-88437465D01*
X135525000Y-88562535D01*
X135557370Y-88683343D01*
X135595854Y-88750000D01*
X134547769Y-88750000D01*
X134558242Y-88816126D01*
X134558242Y-88816129D01*
X134623904Y-89018217D01*
X134720379Y-89207557D01*
X134845272Y-89379459D01*
X134845276Y-89379464D01*
X134995535Y-89529723D01*
X134995540Y-89529727D01*
X135160218Y-89649372D01*
X135202884Y-89704701D01*
X135208863Y-89774315D01*
X135176258Y-89836110D01*
X135160218Y-89850008D01*
X134995214Y-89969890D01*
X134995209Y-89969894D01*
X134844890Y-90120213D01*
X134719951Y-90292179D01*
X134623444Y-90481585D01*
X134557753Y-90683760D01*
X134524500Y-90893713D01*
X134524500Y-91106286D01*
X134555210Y-91300185D01*
X134557754Y-91316243D01*
X134620803Y-91510288D01*
X134623444Y-91518414D01*
X134719951Y-91707820D01*
X134844890Y-91879786D01*
X134995209Y-92030105D01*
X134995214Y-92030109D01*
X135159793Y-92149682D01*
X135202459Y-92205011D01*
X135208438Y-92274625D01*
X135175833Y-92336420D01*
X135159793Y-92350318D01*
X134995214Y-92469890D01*
X134995209Y-92469894D01*
X134844890Y-92620213D01*
X134719951Y-92792179D01*
X134623444Y-92981585D01*
X134557753Y-93183760D01*
X134524500Y-93393713D01*
X134524500Y-93606286D01*
X134557127Y-93812289D01*
X134557754Y-93816243D01*
X134621742Y-94013178D01*
X134623444Y-94018414D01*
X134719951Y-94207820D01*
X134844890Y-94379786D01*
X134995213Y-94530109D01*
X135167179Y-94655048D01*
X135167181Y-94655049D01*
X135167184Y-94655051D01*
X135356588Y-94751557D01*
X135558757Y-94817246D01*
X135768713Y-94850500D01*
X135768714Y-94850500D01*
X136231286Y-94850500D01*
X136231287Y-94850500D01*
X136441243Y-94817246D01*
X136643412Y-94751557D01*
X136832816Y-94655051D01*
X136928836Y-94585289D01*
X137004786Y-94530109D01*
X137004788Y-94530106D01*
X137004792Y-94530104D01*
X137155104Y-94379792D01*
X137155106Y-94379788D01*
X137155109Y-94379786D01*
X137280048Y-94207820D01*
X137280047Y-94207820D01*
X137280051Y-94207816D01*
X137376557Y-94018412D01*
X137442246Y-93816243D01*
X137475500Y-93606287D01*
X137475500Y-93393713D01*
X137442246Y-93183757D01*
X137376557Y-92981588D01*
X137280051Y-92792184D01*
X137280049Y-92792181D01*
X137280048Y-92792179D01*
X137155109Y-92620213D01*
X137004792Y-92469896D01*
X136981163Y-92452729D01*
X136840204Y-92350316D01*
X136797540Y-92294989D01*
X136791561Y-92225376D01*
X136824166Y-92163580D01*
X136840199Y-92149686D01*
X137004792Y-92030104D01*
X137155104Y-91879792D01*
X137155106Y-91879788D01*
X137155109Y-91879786D01*
X137278902Y-91709397D01*
X137280051Y-91707816D01*
X137376557Y-91518412D01*
X137442246Y-91316243D01*
X137475500Y-91106287D01*
X137475500Y-90893713D01*
X137442246Y-90683757D01*
X137376557Y-90481588D01*
X137280051Y-90292184D01*
X137280049Y-90292181D01*
X137280048Y-90292179D01*
X137155109Y-90120213D01*
X137004790Y-89969894D01*
X137004785Y-89969890D01*
X136839781Y-89850008D01*
X136797115Y-89794678D01*
X136791136Y-89725065D01*
X136823741Y-89663270D01*
X136839781Y-89649371D01*
X137004466Y-89529721D01*
X137154723Y-89379464D01*
X137154727Y-89379459D01*
X137279620Y-89207557D01*
X137376095Y-89018217D01*
X137407633Y-88921153D01*
X137699500Y-88921153D01*
X137699500Y-89078846D01*
X137730261Y-89233489D01*
X137730264Y-89233501D01*
X137790602Y-89379172D01*
X137790609Y-89379185D01*
X137878210Y-89510288D01*
X137878213Y-89510292D01*
X137989707Y-89621786D01*
X137989711Y-89621789D01*
X138120814Y-89709390D01*
X138120827Y-89709397D01*
X138215094Y-89748443D01*
X138266503Y-89769737D01*
X138391889Y-89794678D01*
X138421153Y-89800499D01*
X138421156Y-89800500D01*
X138421158Y-89800500D01*
X138578844Y-89800500D01*
X138578845Y-89800499D01*
X138733497Y-89769737D01*
X138879179Y-89709394D01*
X139010289Y-89621789D01*
X139121789Y-89510289D01*
X139209394Y-89379179D01*
X139211792Y-89373391D01*
X139227989Y-89334286D01*
X139269737Y-89233497D01*
X139300500Y-89078842D01*
X139300500Y-88921158D01*
X139300500Y-88921155D01*
X139300499Y-88921153D01*
X139291666Y-88876748D01*
X139269737Y-88766503D01*
X139255565Y-88732289D01*
X139209397Y-88620827D01*
X139209390Y-88620814D01*
X139121789Y-88489711D01*
X139121786Y-88489707D01*
X139010292Y-88378213D01*
X139010288Y-88378210D01*
X138879185Y-88290609D01*
X138879172Y-88290602D01*
X138733501Y-88230264D01*
X138733489Y-88230261D01*
X138578845Y-88199500D01*
X138578842Y-88199500D01*
X138421158Y-88199500D01*
X138421155Y-88199500D01*
X138266510Y-88230261D01*
X138266498Y-88230264D01*
X138120827Y-88290602D01*
X138120814Y-88290609D01*
X137989711Y-88378210D01*
X137989707Y-88378213D01*
X137878213Y-88489707D01*
X137878210Y-88489711D01*
X137790609Y-88620814D01*
X137790602Y-88620827D01*
X137730264Y-88766498D01*
X137730261Y-88766510D01*
X137699500Y-88921153D01*
X137407633Y-88921153D01*
X137422061Y-88876748D01*
X137441757Y-88816129D01*
X137441757Y-88816126D01*
X137452231Y-88750000D01*
X136404146Y-88750000D01*
X136442630Y-88683343D01*
X136475000Y-88562535D01*
X136475000Y-88437465D01*
X136442630Y-88316657D01*
X136404146Y-88250000D01*
X137452231Y-88250000D01*
X137441757Y-88183873D01*
X137441757Y-88183870D01*
X137376095Y-87981782D01*
X137279620Y-87792442D01*
X137154727Y-87620540D01*
X137154723Y-87620535D01*
X137015856Y-87481668D01*
X136982371Y-87420345D01*
X136987355Y-87350653D01*
X137029227Y-87294720D01*
X137038441Y-87288448D01*
X137044331Y-87284814D01*
X137044334Y-87284814D01*
X137193656Y-87192712D01*
X137317712Y-87068656D01*
X137409814Y-86919334D01*
X137464999Y-86752797D01*
X137475500Y-86650009D01*
X137475499Y-85349992D01*
X137474720Y-85342370D01*
X137464999Y-85247203D01*
X137464998Y-85247200D01*
X137409814Y-85080666D01*
X137317712Y-84931344D01*
X137292775Y-84906407D01*
X140557987Y-84906407D01*
X140557987Y-85118980D01*
X140578295Y-85247203D01*
X140591241Y-85328937D01*
X140642945Y-85488066D01*
X140656931Y-85531108D01*
X140753438Y-85720514D01*
X140878377Y-85892480D01*
X141028700Y-86042803D01*
X141200669Y-86167744D01*
X141209433Y-86172210D01*
X141260229Y-86220185D01*
X141277023Y-86288006D01*
X141254485Y-86354141D01*
X141209433Y-86393178D01*
X141200669Y-86397643D01*
X141028700Y-86522584D01*
X140878377Y-86672907D01*
X140753438Y-86844873D01*
X140656931Y-87034279D01*
X140591240Y-87236454D01*
X140557987Y-87446407D01*
X140557987Y-87658980D01*
X140580401Y-87800500D01*
X140591241Y-87868937D01*
X140642350Y-88026235D01*
X140656931Y-88071108D01*
X140753438Y-88260514D01*
X140878377Y-88432480D01*
X141028700Y-88582803D01*
X141200669Y-88707744D01*
X141209433Y-88712210D01*
X141260229Y-88760185D01*
X141277023Y-88828006D01*
X141254485Y-88894141D01*
X141209433Y-88933178D01*
X141200669Y-88937643D01*
X141028700Y-89062584D01*
X140878377Y-89212907D01*
X140753438Y-89384873D01*
X140656931Y-89574279D01*
X140656930Y-89574281D01*
X140656930Y-89574282D01*
X140641807Y-89620827D01*
X140591240Y-89776454D01*
X140568322Y-89921153D01*
X140557987Y-89986407D01*
X140557987Y-90198981D01*
X140564401Y-90239478D01*
X140586528Y-90379185D01*
X140591241Y-90408937D01*
X140650799Y-90592238D01*
X140656931Y-90611108D01*
X140753438Y-90800514D01*
X140878377Y-90972480D01*
X141028700Y-91122803D01*
X141200669Y-91247744D01*
X141209433Y-91252210D01*
X141260229Y-91300185D01*
X141277023Y-91368006D01*
X141254485Y-91434141D01*
X141209433Y-91473178D01*
X141200669Y-91477643D01*
X141028700Y-91602584D01*
X140878377Y-91752907D01*
X140753438Y-91924873D01*
X140656931Y-92114279D01*
X140591240Y-92316454D01*
X140557987Y-92526407D01*
X140557987Y-92738981D01*
X140591241Y-92948937D01*
X140647404Y-93121789D01*
X140656931Y-93151108D01*
X140753438Y-93340514D01*
X140878377Y-93512480D01*
X141028700Y-93662803D01*
X141200669Y-93787744D01*
X141209433Y-93792210D01*
X141260229Y-93840185D01*
X141277023Y-93908006D01*
X141254485Y-93974141D01*
X141209433Y-94013178D01*
X141200669Y-94017643D01*
X141028700Y-94142584D01*
X140878377Y-94292907D01*
X140753438Y-94464873D01*
X140656931Y-94654279D01*
X140591240Y-94856454D01*
X140557987Y-95066407D01*
X140557987Y-95278980D01*
X140591023Y-95487566D01*
X140591241Y-95488937D01*
X140652945Y-95678842D01*
X140656931Y-95691108D01*
X140753438Y-95880514D01*
X140878377Y-96052480D01*
X141028700Y-96202803D01*
X141200666Y-96327742D01*
X141200668Y-96327743D01*
X141200671Y-96327745D01*
X141390075Y-96424251D01*
X141592244Y-96489940D01*
X141802200Y-96523194D01*
X141802201Y-96523194D01*
X142014773Y-96523194D01*
X142014774Y-96523194D01*
X142224730Y-96489940D01*
X142426899Y-96424251D01*
X142616303Y-96327745D01*
X142657102Y-96298103D01*
X142788273Y-96202803D01*
X142788275Y-96202800D01*
X142788279Y-96202798D01*
X142938591Y-96052486D01*
X142938593Y-96052482D01*
X142938596Y-96052480D01*
X143063535Y-95880514D01*
X143063534Y-95880514D01*
X143063538Y-95880510D01*
X143160044Y-95691106D01*
X143225733Y-95488937D01*
X143236469Y-95421153D01*
X144723002Y-95421153D01*
X144723002Y-95578846D01*
X144753763Y-95733489D01*
X144753766Y-95733501D01*
X144814104Y-95879172D01*
X144814111Y-95879185D01*
X144901712Y-96010288D01*
X144901715Y-96010292D01*
X145013209Y-96121786D01*
X145013213Y-96121789D01*
X145144316Y-96209390D01*
X145144329Y-96209397D01*
X145266473Y-96259990D01*
X145290005Y-96269737D01*
X145432610Y-96298103D01*
X145444655Y-96300499D01*
X145444658Y-96300500D01*
X145444660Y-96300500D01*
X145602346Y-96300500D01*
X145602347Y-96300499D01*
X145756999Y-96269737D01*
X145881450Y-96218188D01*
X145902674Y-96209397D01*
X145902674Y-96209396D01*
X145902681Y-96209394D01*
X146033791Y-96121789D01*
X146145291Y-96010289D01*
X146232896Y-95879179D01*
X146293239Y-95733497D01*
X146324002Y-95578842D01*
X146324002Y-95421158D01*
X146324002Y-95421155D01*
X146324001Y-95421153D01*
X146298033Y-95290606D01*
X146293239Y-95266503D01*
X146292858Y-95265583D01*
X146232899Y-95120827D01*
X146232892Y-95120814D01*
X146145291Y-94989711D01*
X146145288Y-94989707D01*
X146033794Y-94878213D01*
X146033790Y-94878210D01*
X145902687Y-94790609D01*
X145902674Y-94790602D01*
X145757003Y-94730264D01*
X145756991Y-94730261D01*
X145602347Y-94699500D01*
X145602344Y-94699500D01*
X145444660Y-94699500D01*
X145444657Y-94699500D01*
X145290012Y-94730261D01*
X145290000Y-94730264D01*
X145144329Y-94790602D01*
X145144316Y-94790609D01*
X145013213Y-94878210D01*
X145013209Y-94878213D01*
X144901715Y-94989707D01*
X144901712Y-94989711D01*
X144814111Y-95120814D01*
X144814104Y-95120827D01*
X144753766Y-95266498D01*
X144753763Y-95266510D01*
X144723002Y-95421153D01*
X143236469Y-95421153D01*
X143246036Y-95360745D01*
X143275965Y-95297612D01*
X143335276Y-95260680D01*
X143405139Y-95261678D01*
X143415956Y-95265580D01*
X143425990Y-95269737D01*
X143551376Y-95294678D01*
X143580640Y-95300499D01*
X143580643Y-95300500D01*
X143580645Y-95300500D01*
X143738331Y-95300500D01*
X143738332Y-95300499D01*
X143752848Y-95297612D01*
X143773774Y-95293450D01*
X143773779Y-95293449D01*
X143869969Y-95274315D01*
X143892984Y-95269737D01*
X144038666Y-95209394D01*
X144169776Y-95121789D01*
X144281276Y-95010289D01*
X144368881Y-94879179D01*
X144372341Y-94870827D01*
X144394534Y-94817246D01*
X144429224Y-94733497D01*
X144459987Y-94578842D01*
X144459987Y-94421158D01*
X144459987Y-94421155D01*
X144459986Y-94421153D01*
X144451759Y-94379792D01*
X144429224Y-94266503D01*
X144404915Y-94207816D01*
X144368884Y-94120827D01*
X144368877Y-94120814D01*
X144281276Y-93989711D01*
X144279360Y-93987376D01*
X144278738Y-93985913D01*
X144277892Y-93984646D01*
X144278132Y-93984485D01*
X144252048Y-93923066D01*
X144263839Y-93854199D01*
X144272114Y-93839819D01*
X144272210Y-93839674D01*
X144273324Y-93838008D01*
X144333667Y-93692326D01*
X144364430Y-93537671D01*
X144364430Y-93379987D01*
X144364430Y-93379984D01*
X144364429Y-93379982D01*
X144350825Y-93311589D01*
X144333667Y-93225332D01*
X144327064Y-93209390D01*
X144273327Y-93079656D01*
X144273320Y-93079643D01*
X144185719Y-92948540D01*
X144185716Y-92948536D01*
X144074222Y-92837042D01*
X144074218Y-92837039D01*
X143943115Y-92749438D01*
X143943102Y-92749431D01*
X143797431Y-92689093D01*
X143797419Y-92689090D01*
X143642775Y-92658329D01*
X143642772Y-92658329D01*
X143485088Y-92658329D01*
X143407177Y-92673826D01*
X143393241Y-92672578D01*
X143379721Y-92676165D01*
X143359134Y-92669526D01*
X143337586Y-92667598D01*
X143326537Y-92659015D01*
X143313224Y-92654722D01*
X143299492Y-92638005D01*
X143282409Y-92624734D01*
X143276859Y-92610451D01*
X143268875Y-92600731D01*
X143264235Y-92577961D01*
X143259827Y-92566617D01*
X143258987Y-92559436D01*
X143258987Y-92526407D01*
X143244202Y-92433058D01*
X143243912Y-92430580D01*
X143249385Y-92398524D01*
X143253553Y-92366276D01*
X143255233Y-92364279D01*
X143255673Y-92361707D01*
X143277607Y-92337700D01*
X143298549Y-92312824D01*
X143301042Y-92312053D01*
X143302803Y-92310126D01*
X143334241Y-92301787D01*
X143365301Y-92292184D01*
X143369132Y-92292533D01*
X143370338Y-92292214D01*
X143372197Y-92292813D01*
X143391264Y-92294554D01*
X143421155Y-92300500D01*
X143421158Y-92300500D01*
X143578844Y-92300500D01*
X143578845Y-92300499D01*
X143733497Y-92269737D01*
X143879179Y-92209394D01*
X144010289Y-92121789D01*
X144121789Y-92010289D01*
X144209394Y-91879179D01*
X144269737Y-91733497D01*
X144291316Y-91625015D01*
X144291317Y-91625010D01*
X154495643Y-91625010D01*
X154495643Y-91782703D01*
X154526404Y-91937346D01*
X154526407Y-91937358D01*
X154586745Y-92083029D01*
X154586752Y-92083042D01*
X154674353Y-92214145D01*
X154674356Y-92214149D01*
X154682806Y-92222599D01*
X154716291Y-92283922D01*
X154716742Y-92334469D01*
X154699863Y-92419336D01*
X154699500Y-92421159D01*
X154699500Y-92578846D01*
X154730261Y-92733489D01*
X154730264Y-92733501D01*
X154790602Y-92879172D01*
X154790609Y-92879185D01*
X154878210Y-93010288D01*
X154878213Y-93010292D01*
X154989707Y-93121786D01*
X154989711Y-93121789D01*
X155120814Y-93209390D01*
X155120827Y-93209397D01*
X155266498Y-93269735D01*
X155266503Y-93269737D01*
X155421153Y-93300499D01*
X155421156Y-93300500D01*
X155421158Y-93300500D01*
X155578844Y-93300500D01*
X155578845Y-93300499D01*
X155733497Y-93269737D01*
X155879179Y-93209394D01*
X156010289Y-93121789D01*
X156121789Y-93010289D01*
X156209394Y-92879179D01*
X156269737Y-92733497D01*
X156300500Y-92578842D01*
X156300500Y-92421158D01*
X156300500Y-92421155D01*
X156300499Y-92421153D01*
X156283644Y-92336420D01*
X156269737Y-92266503D01*
X156264060Y-92252797D01*
X156209397Y-92120827D01*
X156209390Y-92120814D01*
X156121789Y-91989711D01*
X156121786Y-91989707D01*
X156113336Y-91981257D01*
X156079851Y-91919934D01*
X156079400Y-91869384D01*
X156096643Y-91782701D01*
X156096643Y-91625012D01*
X156077990Y-91531240D01*
X156084217Y-91461648D01*
X156127080Y-91406471D01*
X156192969Y-91383226D01*
X156260966Y-91399294D01*
X156287288Y-91419367D01*
X156315442Y-91447521D01*
X156315446Y-91447524D01*
X156446549Y-91535125D01*
X156446562Y-91535132D01*
X156590449Y-91594731D01*
X156592238Y-91595472D01*
X156724527Y-91621786D01*
X156746888Y-91626234D01*
X156746891Y-91626235D01*
X156746893Y-91626235D01*
X156904579Y-91626235D01*
X156904580Y-91626234D01*
X157059232Y-91595472D01*
X157204914Y-91535129D01*
X157336024Y-91447524D01*
X157447524Y-91336024D01*
X157535129Y-91204914D01*
X157595472Y-91059232D01*
X157626235Y-90904577D01*
X157626235Y-90746893D01*
X157626235Y-90746890D01*
X157626234Y-90746888D01*
X157619619Y-90713633D01*
X157595472Y-90592238D01*
X157561528Y-90510289D01*
X157535132Y-90446562D01*
X157535125Y-90446549D01*
X157447524Y-90315446D01*
X157447521Y-90315442D01*
X157336027Y-90203948D01*
X157336023Y-90203945D01*
X157204920Y-90116344D01*
X157204907Y-90116337D01*
X157059236Y-90055999D01*
X157059224Y-90055996D01*
X156904580Y-90025235D01*
X156904577Y-90025235D01*
X156746893Y-90025235D01*
X156746890Y-90025235D01*
X156592245Y-90055996D01*
X156592233Y-90055999D01*
X156446562Y-90116337D01*
X156446549Y-90116344D01*
X156315446Y-90203945D01*
X156315442Y-90203948D01*
X156203948Y-90315442D01*
X156203945Y-90315446D01*
X156116344Y-90446549D01*
X156116337Y-90446562D01*
X156055999Y-90592233D01*
X156055996Y-90592245D01*
X156025235Y-90746888D01*
X156025235Y-90904581D01*
X156043887Y-90998352D01*
X156037660Y-91067944D01*
X155994796Y-91123121D01*
X155928907Y-91146365D01*
X155860910Y-91130297D01*
X155834589Y-91110224D01*
X155806435Y-91082070D01*
X155806431Y-91082067D01*
X155675328Y-90994466D01*
X155675315Y-90994459D01*
X155529644Y-90934121D01*
X155529632Y-90934118D01*
X155374988Y-90903357D01*
X155374985Y-90903357D01*
X155217301Y-90903357D01*
X155217298Y-90903357D01*
X155062653Y-90934118D01*
X155062641Y-90934121D01*
X154916970Y-90994459D01*
X154916957Y-90994466D01*
X154785854Y-91082067D01*
X154785850Y-91082070D01*
X154674356Y-91193564D01*
X154674353Y-91193568D01*
X154586752Y-91324671D01*
X154586745Y-91324684D01*
X154526407Y-91470355D01*
X154526404Y-91470367D01*
X154495643Y-91625010D01*
X144291317Y-91625010D01*
X144297340Y-91594731D01*
X144297340Y-91594730D01*
X144300499Y-91578846D01*
X144300500Y-91578844D01*
X144300500Y-91421155D01*
X144300499Y-91421153D01*
X144283566Y-91336027D01*
X144269737Y-91266503D01*
X144244226Y-91204914D01*
X144209397Y-91120827D01*
X144209390Y-91120814D01*
X144121789Y-90989711D01*
X144121786Y-90989707D01*
X144010292Y-90878213D01*
X144010288Y-90878210D01*
X143879185Y-90790609D01*
X143879172Y-90790602D01*
X143733501Y-90730264D01*
X143733489Y-90730261D01*
X143578845Y-90699500D01*
X143578842Y-90699500D01*
X143421158Y-90699500D01*
X143421153Y-90699500D01*
X143318795Y-90719860D01*
X143249203Y-90713633D01*
X143194026Y-90670769D01*
X143170782Y-90604879D01*
X143176672Y-90559929D01*
X143225733Y-90408937D01*
X143258987Y-90198981D01*
X143258987Y-89986407D01*
X143225733Y-89776451D01*
X143160044Y-89574282D01*
X143063538Y-89384878D01*
X143063536Y-89384875D01*
X143063535Y-89384873D01*
X142938596Y-89212907D01*
X142788273Y-89062584D01*
X142616307Y-88937645D01*
X142615602Y-88937285D01*
X142607541Y-88933179D01*
X142556746Y-88885206D01*
X142539950Y-88817386D01*
X142562486Y-88751250D01*
X142607541Y-88712209D01*
X142616303Y-88707745D01*
X142709208Y-88640246D01*
X142788273Y-88582803D01*
X142788275Y-88582800D01*
X142788279Y-88582798D01*
X142938591Y-88432486D01*
X142938593Y-88432482D01*
X142938596Y-88432480D01*
X143063535Y-88260514D01*
X143063534Y-88260514D01*
X143063538Y-88260510D01*
X143160044Y-88071106D01*
X143225733Y-87868937D01*
X143258987Y-87658981D01*
X143258987Y-87446407D01*
X143225733Y-87236451D01*
X143160044Y-87034282D01*
X143063538Y-86844878D01*
X143063536Y-86844875D01*
X143063535Y-86844873D01*
X142938596Y-86672907D01*
X142788273Y-86522584D01*
X142616307Y-86397645D01*
X142615602Y-86397285D01*
X142607541Y-86393179D01*
X142556746Y-86345206D01*
X142539950Y-86277386D01*
X142562486Y-86211250D01*
X142607541Y-86172209D01*
X142616303Y-86167745D01*
X142711925Y-86098272D01*
X142788273Y-86042803D01*
X142788275Y-86042800D01*
X142788279Y-86042798D01*
X142938591Y-85892486D01*
X142938593Y-85892482D01*
X142938596Y-85892480D01*
X143063535Y-85720514D01*
X143063534Y-85720514D01*
X143063538Y-85720510D01*
X143160044Y-85531106D01*
X143225733Y-85328937D01*
X143258987Y-85118981D01*
X143258987Y-85030034D01*
X145539406Y-85030034D01*
X145539406Y-85187727D01*
X145570167Y-85342370D01*
X145570170Y-85342382D01*
X145630508Y-85488053D01*
X145630515Y-85488066D01*
X145718116Y-85619169D01*
X145718119Y-85619173D01*
X145829613Y-85730667D01*
X145829617Y-85730670D01*
X145960720Y-85818271D01*
X145960733Y-85818278D01*
X146106404Y-85878616D01*
X146106409Y-85878618D01*
X146261059Y-85909380D01*
X146261062Y-85909381D01*
X146261064Y-85909381D01*
X146418750Y-85909381D01*
X146503714Y-85892480D01*
X146544968Y-85884274D01*
X146614559Y-85890501D01*
X146669736Y-85933364D01*
X146692981Y-85999253D01*
X146676914Y-86067250D01*
X146672263Y-86074779D01*
X146656566Y-86098272D01*
X146656558Y-86098286D01*
X146596220Y-86243957D01*
X146596217Y-86243969D01*
X146565456Y-86398612D01*
X146565456Y-86556305D01*
X146596217Y-86710948D01*
X146596220Y-86710960D01*
X146656558Y-86856631D01*
X146656565Y-86856644D01*
X146744166Y-86987747D01*
X146744169Y-86987751D01*
X146812135Y-87055717D01*
X146845620Y-87117040D01*
X146848454Y-87143398D01*
X146848454Y-87304581D01*
X146879215Y-87459224D01*
X146879218Y-87459236D01*
X146939556Y-87604907D01*
X146939563Y-87604920D01*
X147027164Y-87736023D01*
X147027167Y-87736027D01*
X147138661Y-87847521D01*
X147138665Y-87847524D01*
X147269768Y-87935125D01*
X147269781Y-87935132D01*
X147382406Y-87981782D01*
X147415457Y-87995472D01*
X147563903Y-88025000D01*
X147570107Y-88026234D01*
X147570110Y-88026235D01*
X147570112Y-88026235D01*
X147727798Y-88026235D01*
X147727799Y-88026234D01*
X147882451Y-87995472D01*
X148028133Y-87935129D01*
X148159243Y-87847524D01*
X148270743Y-87736024D01*
X148358348Y-87604914D01*
X148418691Y-87459232D01*
X148449454Y-87304577D01*
X148449454Y-87146893D01*
X148449454Y-87146890D01*
X148449453Y-87146888D01*
X148439977Y-87099248D01*
X148418691Y-86992238D01*
X148381409Y-86902229D01*
X151486545Y-86902229D01*
X151486545Y-87059922D01*
X151517306Y-87214565D01*
X151517309Y-87214577D01*
X151577647Y-87360248D01*
X151577654Y-87360261D01*
X151665255Y-87491364D01*
X151665258Y-87491368D01*
X151776752Y-87602862D01*
X151776756Y-87602865D01*
X151907859Y-87690466D01*
X151907872Y-87690473D01*
X152017851Y-87736027D01*
X152053548Y-87750813D01*
X152152722Y-87770540D01*
X152208198Y-87781575D01*
X152208201Y-87781576D01*
X152208203Y-87781576D01*
X152365889Y-87781576D01*
X152365890Y-87781575D01*
X152520542Y-87750813D01*
X152666224Y-87690470D01*
X152797334Y-87602865D01*
X152908834Y-87491365D01*
X152996439Y-87360255D01*
X153056782Y-87214573D01*
X153087545Y-87059918D01*
X153087545Y-86902234D01*
X153087545Y-86902231D01*
X153087544Y-86902229D01*
X153084293Y-86885884D01*
X153056782Y-86747579D01*
X153041614Y-86710960D01*
X152996442Y-86601903D01*
X152996435Y-86601890D01*
X152908834Y-86470787D01*
X152908831Y-86470783D01*
X152797337Y-86359289D01*
X152797333Y-86359286D01*
X152666230Y-86271685D01*
X152666217Y-86271678D01*
X152520546Y-86211340D01*
X152520534Y-86211337D01*
X152365890Y-86180576D01*
X152365887Y-86180576D01*
X152208203Y-86180576D01*
X152208200Y-86180576D01*
X152053555Y-86211337D01*
X152053543Y-86211340D01*
X151907872Y-86271678D01*
X151907859Y-86271685D01*
X151776756Y-86359286D01*
X151776752Y-86359289D01*
X151665258Y-86470783D01*
X151665255Y-86470787D01*
X151577654Y-86601890D01*
X151577647Y-86601903D01*
X151517309Y-86747574D01*
X151517306Y-86747586D01*
X151486545Y-86902229D01*
X148381409Y-86902229D01*
X148361290Y-86853658D01*
X148358349Y-86846558D01*
X148358344Y-86846549D01*
X148270743Y-86715446D01*
X148270740Y-86715442D01*
X148202775Y-86647477D01*
X148169290Y-86586154D01*
X148166456Y-86559796D01*
X148166456Y-86398614D01*
X148166455Y-86398612D01*
X148166262Y-86397643D01*
X148135693Y-86243962D01*
X148130018Y-86230261D01*
X148075353Y-86098286D01*
X148075346Y-86098273D01*
X147987745Y-85967170D01*
X147987742Y-85967166D01*
X147876248Y-85855672D01*
X147876244Y-85855669D01*
X147745141Y-85768068D01*
X147745128Y-85768061D01*
X147599457Y-85707723D01*
X147599445Y-85707720D01*
X147444801Y-85676959D01*
X147444798Y-85676959D01*
X147287114Y-85676959D01*
X147287109Y-85676959D01*
X147160893Y-85702065D01*
X147091301Y-85695838D01*
X147036124Y-85652975D01*
X147012880Y-85587085D01*
X147028948Y-85519088D01*
X147033601Y-85511556D01*
X147049295Y-85488068D01*
X147049296Y-85488065D01*
X147049300Y-85488060D01*
X147109643Y-85342378D01*
X147140406Y-85187723D01*
X147140406Y-85030039D01*
X147140406Y-85030036D01*
X147140405Y-85030034D01*
X147128503Y-84970200D01*
X147109643Y-84875384D01*
X147109641Y-84875379D01*
X147049303Y-84729708D01*
X147049296Y-84729695D01*
X146961695Y-84598592D01*
X146961692Y-84598588D01*
X146850198Y-84487094D01*
X146850194Y-84487091D01*
X146719091Y-84399490D01*
X146719078Y-84399483D01*
X146573407Y-84339145D01*
X146573395Y-84339142D01*
X146418751Y-84308381D01*
X146418748Y-84308381D01*
X146261064Y-84308381D01*
X146261061Y-84308381D01*
X146106416Y-84339142D01*
X146106404Y-84339145D01*
X145960733Y-84399483D01*
X145960720Y-84399490D01*
X145829617Y-84487091D01*
X145829613Y-84487094D01*
X145718119Y-84598588D01*
X145718116Y-84598592D01*
X145630515Y-84729695D01*
X145630508Y-84729708D01*
X145570170Y-84875379D01*
X145570167Y-84875391D01*
X145539406Y-85030034D01*
X143258987Y-85030034D01*
X143258987Y-84906407D01*
X143225733Y-84696451D01*
X143160044Y-84494282D01*
X143063538Y-84304878D01*
X143063536Y-84304875D01*
X143063535Y-84304873D01*
X142938596Y-84132907D01*
X142824668Y-84018979D01*
X142791183Y-83957656D01*
X142796167Y-83887964D01*
X142838039Y-83832031D01*
X142869016Y-83815116D01*
X143000573Y-83766048D01*
X143000580Y-83766044D01*
X143115674Y-83679884D01*
X143115677Y-83679881D01*
X143201837Y-83564787D01*
X143201841Y-83564780D01*
X143252083Y-83430073D01*
X143252085Y-83430066D01*
X143258486Y-83370538D01*
X143258487Y-83370521D01*
X143258487Y-82921153D01*
X145136389Y-82921153D01*
X145136389Y-83078846D01*
X145167150Y-83233489D01*
X145167153Y-83233501D01*
X145227491Y-83379172D01*
X145227498Y-83379185D01*
X145315099Y-83510288D01*
X145315102Y-83510292D01*
X145426596Y-83621786D01*
X145426600Y-83621789D01*
X145557703Y-83709390D01*
X145557716Y-83709397D01*
X145694476Y-83766044D01*
X145703392Y-83769737D01*
X145858042Y-83800499D01*
X145858045Y-83800500D01*
X145858047Y-83800500D01*
X146015733Y-83800500D01*
X146015734Y-83800499D01*
X146170386Y-83769737D01*
X146316068Y-83709394D01*
X146447178Y-83621789D01*
X146558678Y-83510289D01*
X146646283Y-83379179D01*
X146706626Y-83233497D01*
X146737389Y-83078842D01*
X146737389Y-82921158D01*
X146737389Y-82921155D01*
X146737388Y-82921153D01*
X146729037Y-82879172D01*
X146706626Y-82766503D01*
X146704870Y-82762263D01*
X146646286Y-82620827D01*
X146646279Y-82620814D01*
X146558678Y-82489711D01*
X146558675Y-82489707D01*
X146447181Y-82378213D01*
X146447177Y-82378210D01*
X146316074Y-82290609D01*
X146316061Y-82290602D01*
X146170390Y-82230264D01*
X146170378Y-82230261D01*
X146015734Y-82199500D01*
X146015731Y-82199500D01*
X145858047Y-82199500D01*
X145858044Y-82199500D01*
X145703399Y-82230261D01*
X145703387Y-82230264D01*
X145557716Y-82290602D01*
X145557703Y-82290609D01*
X145426600Y-82378210D01*
X145426596Y-82378213D01*
X145315102Y-82489707D01*
X145315099Y-82489711D01*
X145227498Y-82620814D01*
X145227491Y-82620827D01*
X145167153Y-82766498D01*
X145167150Y-82766510D01*
X145136389Y-82921153D01*
X143258487Y-82921153D01*
X143258487Y-82722694D01*
X142341499Y-82722694D01*
X142374412Y-82665687D01*
X142408487Y-82538520D01*
X142408487Y-82406868D01*
X142374412Y-82279701D01*
X142341499Y-82222694D01*
X143258487Y-82222694D01*
X143258487Y-81574866D01*
X143258486Y-81574849D01*
X143252085Y-81515321D01*
X143252083Y-81515314D01*
X143201841Y-81380607D01*
X143201837Y-81380600D01*
X143115677Y-81265506D01*
X143115674Y-81265503D01*
X143000580Y-81179343D01*
X143000573Y-81179339D01*
X142865866Y-81129097D01*
X142865859Y-81129095D01*
X142806331Y-81122694D01*
X142158487Y-81122694D01*
X142158487Y-82039682D01*
X142101480Y-82006769D01*
X141974313Y-81972694D01*
X141842661Y-81972694D01*
X141715494Y-82006769D01*
X141658487Y-82039682D01*
X141658487Y-81122694D01*
X141010642Y-81122694D01*
X140951114Y-81129095D01*
X140951107Y-81129097D01*
X140816400Y-81179339D01*
X140816393Y-81179343D01*
X140701299Y-81265503D01*
X140701296Y-81265506D01*
X140615136Y-81380600D01*
X140615132Y-81380607D01*
X140564890Y-81515314D01*
X140564888Y-81515321D01*
X140558487Y-81574849D01*
X140558487Y-82222694D01*
X141475475Y-82222694D01*
X141442562Y-82279701D01*
X141408487Y-82406868D01*
X141408487Y-82538520D01*
X141442562Y-82665687D01*
X141475475Y-82722694D01*
X140558487Y-82722694D01*
X140558487Y-83370538D01*
X140564888Y-83430066D01*
X140564890Y-83430073D01*
X140615132Y-83564780D01*
X140615136Y-83564787D01*
X140701296Y-83679881D01*
X140701299Y-83679884D01*
X140816393Y-83766044D01*
X140816400Y-83766048D01*
X140947957Y-83815116D01*
X141003891Y-83856987D01*
X141028308Y-83922452D01*
X141013456Y-83990725D01*
X140992306Y-84018979D01*
X140878376Y-84132909D01*
X140753438Y-84304873D01*
X140656931Y-84494279D01*
X140591240Y-84696454D01*
X140557987Y-84906407D01*
X137292775Y-84906407D01*
X137193656Y-84807288D01*
X137067878Y-84729708D01*
X137044336Y-84715187D01*
X137044331Y-84715185D01*
X137015152Y-84705516D01*
X136877797Y-84660001D01*
X136877795Y-84660000D01*
X136775010Y-84649500D01*
X135224998Y-84649500D01*
X135224981Y-84649501D01*
X135122203Y-84660000D01*
X135122200Y-84660001D01*
X134955668Y-84715185D01*
X134955663Y-84715187D01*
X134806342Y-84807289D01*
X134682289Y-84931342D01*
X134590187Y-85080663D01*
X134590185Y-85080668D01*
X134574487Y-85128042D01*
X134535001Y-85247203D01*
X134535001Y-85247204D01*
X134535000Y-85247204D01*
X134524500Y-85349983D01*
X124743366Y-85349983D01*
X125259093Y-84492698D01*
X125261488Y-84488877D01*
X125845696Y-83593949D01*
X125848215Y-83590241D01*
X126464917Y-82717386D01*
X126467606Y-82713727D01*
X126538502Y-82620827D01*
X126690880Y-82421153D01*
X138199500Y-82421153D01*
X138199500Y-82578846D01*
X138230261Y-82733489D01*
X138230264Y-82733501D01*
X138290602Y-82879172D01*
X138290609Y-82879185D01*
X138378210Y-83010288D01*
X138378213Y-83010292D01*
X138489707Y-83121786D01*
X138489711Y-83121789D01*
X138620814Y-83209390D01*
X138620827Y-83209397D01*
X138766498Y-83269735D01*
X138766503Y-83269737D01*
X138921153Y-83300499D01*
X138921156Y-83300500D01*
X138921158Y-83300500D01*
X139078844Y-83300500D01*
X139078845Y-83300499D01*
X139233497Y-83269737D01*
X139379179Y-83209394D01*
X139510289Y-83121789D01*
X139621789Y-83010289D01*
X139709394Y-82879179D01*
X139769737Y-82733497D01*
X139800500Y-82578842D01*
X139800500Y-82421158D01*
X139800500Y-82421155D01*
X139800499Y-82421153D01*
X139769737Y-82266503D01*
X139759481Y-82241742D01*
X139709397Y-82120827D01*
X139709390Y-82120814D01*
X139621789Y-81989711D01*
X139621786Y-81989707D01*
X139510292Y-81878213D01*
X139510288Y-81878210D01*
X139379185Y-81790609D01*
X139379172Y-81790602D01*
X139233501Y-81730264D01*
X139233489Y-81730261D01*
X139078845Y-81699500D01*
X139078842Y-81699500D01*
X138921158Y-81699500D01*
X138921155Y-81699500D01*
X138766510Y-81730261D01*
X138766498Y-81730264D01*
X138620827Y-81790602D01*
X138620814Y-81790609D01*
X138489711Y-81878210D01*
X138489707Y-81878213D01*
X138378213Y-81989707D01*
X138378210Y-81989711D01*
X138290609Y-82120814D01*
X138290602Y-82120827D01*
X138230264Y-82266498D01*
X138230261Y-82266510D01*
X138199500Y-82421153D01*
X126690880Y-82421153D01*
X127115952Y-81864146D01*
X127118721Y-81860652D01*
X127797901Y-81035409D01*
X127800805Y-81032011D01*
X128240885Y-80535651D01*
X147734298Y-80535651D01*
X147734298Y-80693344D01*
X147765059Y-80847987D01*
X147765062Y-80847999D01*
X147825400Y-80993670D01*
X147825407Y-80993683D01*
X147913008Y-81124786D01*
X147913011Y-81124790D01*
X148024505Y-81236284D01*
X148024509Y-81236287D01*
X148155612Y-81323888D01*
X148155625Y-81323895D01*
X148299992Y-81383693D01*
X148301301Y-81384235D01*
X148455951Y-81414997D01*
X148455954Y-81414998D01*
X148575500Y-81414998D01*
X148642539Y-81434683D01*
X148688294Y-81487487D01*
X148699500Y-81538998D01*
X148699500Y-81578846D01*
X148730261Y-81733489D01*
X148730264Y-81733501D01*
X148790602Y-81879172D01*
X148790609Y-81879185D01*
X148878209Y-82010287D01*
X148878213Y-82010292D01*
X148989707Y-82121786D01*
X148989711Y-82121789D01*
X149120814Y-82209390D01*
X149120827Y-82209397D01*
X149258683Y-82266498D01*
X149266503Y-82269737D01*
X149415869Y-82299448D01*
X149421153Y-82300499D01*
X149421156Y-82300500D01*
X149421158Y-82300500D01*
X149578844Y-82300500D01*
X149578845Y-82300499D01*
X149733497Y-82269737D01*
X149879179Y-82209394D01*
X150010289Y-82121789D01*
X150063446Y-82068632D01*
X150124769Y-82035146D01*
X150194461Y-82040130D01*
X150250394Y-82082001D01*
X150274812Y-82147465D01*
X150265690Y-82203763D01*
X150230263Y-82289294D01*
X150230261Y-82289301D01*
X150199500Y-82443944D01*
X150199500Y-82601637D01*
X150231451Y-82762263D01*
X150229951Y-82762561D01*
X150230502Y-82824912D01*
X150193247Y-82884021D01*
X150129950Y-82913605D01*
X150063769Y-82905589D01*
X150033297Y-82892967D01*
X150033285Y-82892964D01*
X149878641Y-82862203D01*
X149878638Y-82862203D01*
X149720954Y-82862203D01*
X149720951Y-82862203D01*
X149566306Y-82892964D01*
X149566294Y-82892967D01*
X149420623Y-82953305D01*
X149420610Y-82953312D01*
X149289507Y-83040913D01*
X149289503Y-83040916D01*
X149178009Y-83152410D01*
X149178006Y-83152414D01*
X149090405Y-83283517D01*
X149090398Y-83283530D01*
X149030060Y-83429201D01*
X149030057Y-83429213D01*
X148999296Y-83583856D01*
X148999296Y-83741549D01*
X149030057Y-83896192D01*
X149030060Y-83896204D01*
X149090398Y-84041875D01*
X149090405Y-84041888D01*
X149178006Y-84172991D01*
X149178009Y-84172995D01*
X149289503Y-84284489D01*
X149289507Y-84284492D01*
X149420610Y-84372093D01*
X149420623Y-84372100D01*
X149565879Y-84432266D01*
X149566299Y-84432440D01*
X149720949Y-84463202D01*
X149720952Y-84463203D01*
X149720954Y-84463203D01*
X149878640Y-84463203D01*
X149878641Y-84463202D01*
X150033293Y-84432440D01*
X150178975Y-84372097D01*
X150310085Y-84284492D01*
X150421585Y-84172992D01*
X150509190Y-84041882D01*
X150569533Y-83896200D01*
X150600296Y-83741545D01*
X150600296Y-83583861D01*
X150600296Y-83583858D01*
X150600295Y-83583856D01*
X150568345Y-83423231D01*
X150569847Y-83422932D01*
X150569289Y-83360598D01*
X150606535Y-83301484D01*
X150669828Y-83271890D01*
X150736025Y-83279903D01*
X150766503Y-83292528D01*
X150921153Y-83323290D01*
X150921156Y-83323291D01*
X150921158Y-83323291D01*
X151078844Y-83323291D01*
X151078845Y-83323290D01*
X151233497Y-83292528D01*
X151379179Y-83232185D01*
X151510289Y-83144580D01*
X151621789Y-83033080D01*
X151709394Y-82901970D01*
X151769737Y-82756288D01*
X151800500Y-82601633D01*
X151800500Y-82443949D01*
X151785599Y-82369038D01*
X151791826Y-82299448D01*
X151834688Y-82244270D01*
X151838251Y-82241795D01*
X151860289Y-82227071D01*
X151971789Y-82115571D01*
X152059394Y-81984461D01*
X152060141Y-81982659D01*
X152092428Y-81904710D01*
X152119737Y-81838779D01*
X152150500Y-81684124D01*
X152150500Y-81684025D01*
X155671410Y-81684025D01*
X155671410Y-81841718D01*
X155702171Y-81996361D01*
X155702174Y-81996373D01*
X155762512Y-82142044D01*
X155762519Y-82142057D01*
X155850120Y-82273160D01*
X155850123Y-82273164D01*
X155961617Y-82384658D01*
X155961621Y-82384661D01*
X156092724Y-82472262D01*
X156092737Y-82472269D01*
X156238408Y-82532607D01*
X156238413Y-82532609D01*
X156393063Y-82563371D01*
X156393066Y-82563372D01*
X156393068Y-82563372D01*
X156550754Y-82563372D01*
X156550755Y-82563371D01*
X156705407Y-82532609D01*
X156851089Y-82472266D01*
X156982199Y-82384661D01*
X157093699Y-82273161D01*
X157181304Y-82142051D01*
X157241647Y-81996369D01*
X157272410Y-81841714D01*
X157272410Y-81684030D01*
X157272410Y-81684027D01*
X157272409Y-81684025D01*
X157251487Y-81578844D01*
X157241647Y-81529375D01*
X157202425Y-81434683D01*
X157195540Y-81418061D01*
X157181307Y-81383699D01*
X157181300Y-81383686D01*
X157174787Y-81373938D01*
X157783144Y-81373938D01*
X157783144Y-83169673D01*
X157783145Y-83169679D01*
X157789552Y-83229286D01*
X157839846Y-83364131D01*
X157839850Y-83364138D01*
X157926096Y-83479347D01*
X157926099Y-83479350D01*
X158041308Y-83565596D01*
X158041315Y-83565600D01*
X158172726Y-83614613D01*
X158228660Y-83656484D01*
X158253077Y-83721948D01*
X158238226Y-83790221D01*
X158217075Y-83818476D01*
X158103533Y-83932018D01*
X157978595Y-84103982D01*
X157882088Y-84293388D01*
X157816397Y-84495563D01*
X157783144Y-84705516D01*
X157783144Y-84918089D01*
X157808893Y-85080666D01*
X157816398Y-85128046D01*
X157881670Y-85328933D01*
X157882088Y-85330217D01*
X157978595Y-85519623D01*
X158103534Y-85691589D01*
X158253857Y-85841912D01*
X158425826Y-85966853D01*
X158434590Y-85971319D01*
X158485386Y-86019294D01*
X158502180Y-86087115D01*
X158479642Y-86153250D01*
X158434590Y-86192287D01*
X158425826Y-86196752D01*
X158253857Y-86321693D01*
X158103534Y-86472016D01*
X157978595Y-86643982D01*
X157882088Y-86833388D01*
X157816397Y-87035563D01*
X157795738Y-87166001D01*
X157783144Y-87245516D01*
X157783144Y-87458090D01*
X157788152Y-87489707D01*
X157809071Y-87621789D01*
X157816398Y-87668046D01*
X157881670Y-87868933D01*
X157882088Y-87870217D01*
X157978595Y-88059623D01*
X158103534Y-88231589D01*
X158253857Y-88381912D01*
X158425826Y-88506853D01*
X158434590Y-88511319D01*
X158485386Y-88559294D01*
X158502180Y-88627115D01*
X158479642Y-88693250D01*
X158434590Y-88732287D01*
X158425826Y-88736752D01*
X158253857Y-88861693D01*
X158103534Y-89012016D01*
X157978595Y-89183982D01*
X157882088Y-89373388D01*
X157816397Y-89575563D01*
X157783144Y-89785516D01*
X157783144Y-89998089D01*
X157815748Y-90203946D01*
X157816398Y-90208046D01*
X157881670Y-90408933D01*
X157882088Y-90410217D01*
X157978595Y-90599623D01*
X158103534Y-90771589D01*
X158253857Y-90921912D01*
X158425826Y-91046853D01*
X158434590Y-91051319D01*
X158485386Y-91099294D01*
X158502180Y-91167115D01*
X158479642Y-91233250D01*
X158434590Y-91272287D01*
X158425826Y-91276752D01*
X158253857Y-91401693D01*
X158103534Y-91552016D01*
X157978595Y-91723982D01*
X157882088Y-91913388D01*
X157816397Y-92115563D01*
X157783144Y-92325516D01*
X157783144Y-92538089D01*
X157814093Y-92733497D01*
X157816398Y-92748046D01*
X157881670Y-92948933D01*
X157882088Y-92950217D01*
X157978595Y-93139623D01*
X158103534Y-93311589D01*
X158253857Y-93461912D01*
X158425826Y-93586853D01*
X158434590Y-93591319D01*
X158485386Y-93639294D01*
X158502180Y-93707115D01*
X158479642Y-93773250D01*
X158434590Y-93812287D01*
X158425826Y-93816752D01*
X158253857Y-93941693D01*
X158103534Y-94092016D01*
X157978595Y-94263982D01*
X157882088Y-94453388D01*
X157816397Y-94655563D01*
X157783144Y-94865516D01*
X157783144Y-95078089D01*
X157813497Y-95269735D01*
X157816398Y-95288046D01*
X157881923Y-95489711D01*
X157882088Y-95490217D01*
X157978595Y-95679623D01*
X158103534Y-95851589D01*
X158253857Y-96001912D01*
X158425826Y-96126853D01*
X158486995Y-96158020D01*
X158537791Y-96205994D01*
X158554587Y-96273815D01*
X158532050Y-96339950D01*
X158499598Y-96371603D01*
X158489714Y-96378208D01*
X158489707Y-96378213D01*
X158378213Y-96489707D01*
X158378210Y-96489711D01*
X158290609Y-96620814D01*
X158290602Y-96620827D01*
X158230264Y-96766498D01*
X158230261Y-96766510D01*
X158199500Y-96921153D01*
X158199500Y-97078846D01*
X158230261Y-97233489D01*
X158230264Y-97233501D01*
X158290602Y-97379172D01*
X158290609Y-97379185D01*
X158378210Y-97510288D01*
X158378213Y-97510292D01*
X158489707Y-97621786D01*
X158489711Y-97621789D01*
X158620814Y-97709390D01*
X158620827Y-97709397D01*
X158766498Y-97769735D01*
X158766503Y-97769737D01*
X158893453Y-97794989D01*
X158921153Y-97800499D01*
X158921156Y-97800500D01*
X158921158Y-97800500D01*
X159078844Y-97800500D01*
X159078845Y-97800499D01*
X159233497Y-97769737D01*
X159379179Y-97709394D01*
X159510289Y-97621789D01*
X159621789Y-97510289D01*
X159681348Y-97421153D01*
X169699500Y-97421153D01*
X169699500Y-97578846D01*
X169730261Y-97733489D01*
X169730264Y-97733501D01*
X169790602Y-97879172D01*
X169790609Y-97879185D01*
X169878210Y-98010288D01*
X169878213Y-98010292D01*
X169989707Y-98121786D01*
X169989711Y-98121789D01*
X170120814Y-98209390D01*
X170120827Y-98209397D01*
X170258683Y-98266498D01*
X170266503Y-98269737D01*
X170379326Y-98292179D01*
X170421153Y-98300499D01*
X170421156Y-98300500D01*
X170421158Y-98300500D01*
X170578844Y-98300500D01*
X170578845Y-98300499D01*
X170733497Y-98269737D01*
X170879179Y-98209394D01*
X171010289Y-98121789D01*
X171010293Y-98121784D01*
X171014999Y-98117924D01*
X171016162Y-98119341D01*
X171069926Y-98089972D01*
X171139619Y-98094943D01*
X171195560Y-98136804D01*
X171199408Y-98142241D01*
X171228151Y-98185257D01*
X171228156Y-98185263D01*
X171339650Y-98296757D01*
X171339654Y-98296760D01*
X171470757Y-98384361D01*
X171470770Y-98384368D01*
X171592615Y-98434837D01*
X171616446Y-98444708D01*
X171771096Y-98475470D01*
X171771099Y-98475471D01*
X171771101Y-98475471D01*
X171928787Y-98475471D01*
X171928788Y-98475470D01*
X172083440Y-98444708D01*
X172229122Y-98384365D01*
X172360232Y-98296760D01*
X172445025Y-98211966D01*
X172506346Y-98178483D01*
X172576038Y-98183467D01*
X172601594Y-98196547D01*
X172620821Y-98209394D01*
X172620823Y-98209394D01*
X172620825Y-98209396D01*
X172758683Y-98266498D01*
X172766503Y-98269737D01*
X172879326Y-98292179D01*
X172921153Y-98300499D01*
X172921156Y-98300500D01*
X172921158Y-98300500D01*
X173078844Y-98300500D01*
X173078845Y-98300499D01*
X173233497Y-98269737D01*
X173379179Y-98209394D01*
X173510289Y-98121789D01*
X173621789Y-98010289D01*
X173709394Y-97879179D01*
X173769737Y-97733497D01*
X173800500Y-97578842D01*
X173800500Y-97421158D01*
X173800500Y-97421155D01*
X173800499Y-97421153D01*
X173792271Y-97379790D01*
X173769737Y-97266503D01*
X173756062Y-97233489D01*
X173709397Y-97120827D01*
X173709390Y-97120814D01*
X173621789Y-96989711D01*
X173621786Y-96989707D01*
X173510292Y-96878213D01*
X173510288Y-96878210D01*
X173379185Y-96790609D01*
X173379172Y-96790602D01*
X173233501Y-96730264D01*
X173233489Y-96730261D01*
X173078845Y-96699500D01*
X173078842Y-96699500D01*
X172921158Y-96699500D01*
X172921155Y-96699500D01*
X172766510Y-96730261D01*
X172766498Y-96730264D01*
X172620827Y-96790602D01*
X172620814Y-96790609D01*
X172489711Y-96878210D01*
X172404919Y-96963002D01*
X172343595Y-96996486D01*
X172273904Y-96991502D01*
X172248347Y-96978422D01*
X172229128Y-96965580D01*
X172229115Y-96965573D01*
X172083444Y-96905235D01*
X172083432Y-96905232D01*
X171928788Y-96874471D01*
X171928785Y-96874471D01*
X171771101Y-96874471D01*
X171771098Y-96874471D01*
X171616453Y-96905232D01*
X171616441Y-96905235D01*
X171470770Y-96965573D01*
X171470757Y-96965580D01*
X171339654Y-97053181D01*
X171334944Y-97057047D01*
X171333786Y-97055636D01*
X171279969Y-97085009D01*
X171210278Y-97080012D01*
X171154353Y-97038130D01*
X171150531Y-97032727D01*
X171121790Y-96989712D01*
X171121786Y-96989707D01*
X171010292Y-96878213D01*
X171010288Y-96878210D01*
X170879185Y-96790609D01*
X170879172Y-96790602D01*
X170733501Y-96730264D01*
X170733489Y-96730261D01*
X170578845Y-96699500D01*
X170578842Y-96699500D01*
X170421158Y-96699500D01*
X170421155Y-96699500D01*
X170266510Y-96730261D01*
X170266498Y-96730264D01*
X170120827Y-96790602D01*
X170120814Y-96790609D01*
X169989711Y-96878210D01*
X169989707Y-96878213D01*
X169878213Y-96989707D01*
X169878210Y-96989711D01*
X169790609Y-97120814D01*
X169790602Y-97120827D01*
X169730264Y-97266498D01*
X169730261Y-97266510D01*
X169699500Y-97421153D01*
X159681348Y-97421153D01*
X159709394Y-97379179D01*
X159769737Y-97233497D01*
X159800500Y-97078842D01*
X159800500Y-96921158D01*
X159800500Y-96921155D01*
X159800499Y-96921153D01*
X159784921Y-96842839D01*
X159769737Y-96766503D01*
X159759532Y-96741865D01*
X159709397Y-96620827D01*
X159709390Y-96620814D01*
X159621789Y-96489711D01*
X159621786Y-96489707D01*
X159571263Y-96439184D01*
X159537778Y-96377861D01*
X159542762Y-96308169D01*
X159584634Y-96252236D01*
X159620624Y-96233572D01*
X159652056Y-96223360D01*
X159841460Y-96126854D01*
X159907538Y-96078846D01*
X160013430Y-96001912D01*
X160013432Y-96001909D01*
X160013436Y-96001907D01*
X160163748Y-95851595D01*
X160163750Y-95851591D01*
X160163753Y-95851589D01*
X160288692Y-95679623D01*
X160288691Y-95679623D01*
X160288695Y-95679619D01*
X160385201Y-95490215D01*
X160450890Y-95288046D01*
X160467567Y-95182754D01*
X160469404Y-95171153D01*
X161863509Y-95171153D01*
X161863509Y-95328846D01*
X161894270Y-95483489D01*
X161894273Y-95483501D01*
X161954611Y-95629172D01*
X161954618Y-95629185D01*
X162042219Y-95760288D01*
X162042222Y-95760292D01*
X162153716Y-95871786D01*
X162153720Y-95871789D01*
X162284823Y-95959390D01*
X162284836Y-95959397D01*
X162430507Y-96019735D01*
X162430512Y-96019737D01*
X162585162Y-96050499D01*
X162585165Y-96050500D01*
X162585167Y-96050500D01*
X162742853Y-96050500D01*
X162742854Y-96050499D01*
X162897506Y-96019737D01*
X163043188Y-95959394D01*
X163174298Y-95871789D01*
X163285798Y-95760289D01*
X163373403Y-95629179D01*
X163376863Y-95620827D01*
X163426058Y-95502058D01*
X163433746Y-95483497D01*
X163464509Y-95328842D01*
X163464509Y-95171158D01*
X163464509Y-95171155D01*
X163464508Y-95171153D01*
X163445996Y-95078089D01*
X163433746Y-95016503D01*
X163431172Y-95010288D01*
X163373406Y-94870827D01*
X163373399Y-94870814D01*
X163285798Y-94739711D01*
X163285795Y-94739707D01*
X163174301Y-94628213D01*
X163174297Y-94628210D01*
X163043194Y-94540609D01*
X163043182Y-94540602D01*
X163016683Y-94529627D01*
X162897510Y-94480264D01*
X162897498Y-94480261D01*
X162742854Y-94449500D01*
X162742851Y-94449500D01*
X162585167Y-94449500D01*
X162585164Y-94449500D01*
X162430519Y-94480261D01*
X162430507Y-94480264D01*
X162284836Y-94540602D01*
X162284823Y-94540609D01*
X162153720Y-94628210D01*
X162153716Y-94628213D01*
X162042222Y-94739707D01*
X162042219Y-94739711D01*
X161954618Y-94870814D01*
X161954611Y-94870827D01*
X161894273Y-95016498D01*
X161894270Y-95016510D01*
X161863509Y-95171153D01*
X160469404Y-95171153D01*
X160473441Y-95145668D01*
X160473441Y-95145667D01*
X160484144Y-95078090D01*
X160484144Y-94865516D01*
X160471295Y-94784390D01*
X160450890Y-94655560D01*
X160385201Y-94453391D01*
X160368775Y-94421153D01*
X164699500Y-94421153D01*
X164699500Y-94578846D01*
X164730261Y-94733489D01*
X164730264Y-94733501D01*
X164790602Y-94879172D01*
X164790609Y-94879185D01*
X164878210Y-95010288D01*
X164878213Y-95010292D01*
X164989707Y-95121786D01*
X164989711Y-95121789D01*
X165120814Y-95209390D01*
X165120827Y-95209397D01*
X165256474Y-95265583D01*
X165266503Y-95269737D01*
X165391889Y-95294678D01*
X165421153Y-95300499D01*
X165421156Y-95300500D01*
X165421158Y-95300500D01*
X165578844Y-95300500D01*
X165578845Y-95300499D01*
X165733497Y-95269737D01*
X165879179Y-95209394D01*
X166010289Y-95121789D01*
X166121789Y-95010289D01*
X166209394Y-94879179D01*
X166212854Y-94870827D01*
X166235047Y-94817246D01*
X166269737Y-94733497D01*
X166300500Y-94578842D01*
X166300500Y-94421158D01*
X166300500Y-94421155D01*
X166300499Y-94421153D01*
X166292272Y-94379792D01*
X166269737Y-94266503D01*
X166245428Y-94207816D01*
X166209397Y-94120827D01*
X166209390Y-94120814D01*
X166168058Y-94058957D01*
X166126093Y-93996153D01*
X169699500Y-93996153D01*
X169699500Y-94153846D01*
X169730261Y-94308489D01*
X169730264Y-94308501D01*
X169790602Y-94454172D01*
X169790609Y-94454185D01*
X169878210Y-94585288D01*
X169878213Y-94585292D01*
X169989707Y-94696786D01*
X169989711Y-94696789D01*
X170120814Y-94784390D01*
X170120827Y-94784397D01*
X170200133Y-94817246D01*
X170266503Y-94844737D01*
X170421153Y-94875499D01*
X170421156Y-94875500D01*
X170421158Y-94875500D01*
X170578844Y-94875500D01*
X170578845Y-94875499D01*
X170733497Y-94844737D01*
X170864182Y-94790606D01*
X170879172Y-94784397D01*
X170879172Y-94784396D01*
X170879179Y-94784394D01*
X171010289Y-94696789D01*
X171121789Y-94585289D01*
X171209394Y-94454179D01*
X171269737Y-94308497D01*
X171300500Y-94153842D01*
X171300500Y-93996158D01*
X171300500Y-93996155D01*
X171300499Y-93996153D01*
X171298178Y-93984485D01*
X171269737Y-93841503D01*
X171269191Y-93840185D01*
X171209397Y-93695827D01*
X171209390Y-93695814D01*
X171121789Y-93564711D01*
X171121786Y-93564707D01*
X171010292Y-93453213D01*
X171010288Y-93453210D01*
X170879185Y-93365609D01*
X170879172Y-93365602D01*
X170733501Y-93305264D01*
X170733489Y-93305261D01*
X170578845Y-93274500D01*
X170578842Y-93274500D01*
X170421158Y-93274500D01*
X170421155Y-93274500D01*
X170266510Y-93305261D01*
X170266498Y-93305264D01*
X170120827Y-93365602D01*
X170120814Y-93365609D01*
X169989711Y-93453210D01*
X169989707Y-93453213D01*
X169878213Y-93564707D01*
X169878210Y-93564711D01*
X169790609Y-93695814D01*
X169790602Y-93695827D01*
X169730264Y-93841498D01*
X169730261Y-93841510D01*
X169699500Y-93996153D01*
X166126093Y-93996153D01*
X166121789Y-93989711D01*
X166121786Y-93989707D01*
X166010292Y-93878213D01*
X166010287Y-93878209D01*
X165879185Y-93790609D01*
X165879172Y-93790602D01*
X165733501Y-93730264D01*
X165733489Y-93730261D01*
X165578845Y-93699500D01*
X165578842Y-93699500D01*
X165421158Y-93699500D01*
X165421155Y-93699500D01*
X165266510Y-93730261D01*
X165266498Y-93730264D01*
X165120827Y-93790602D01*
X165120814Y-93790609D01*
X164989713Y-93878209D01*
X164989707Y-93878213D01*
X164878213Y-93989707D01*
X164878210Y-93989711D01*
X164790609Y-94120814D01*
X164790602Y-94120827D01*
X164730264Y-94266498D01*
X164730261Y-94266510D01*
X164699500Y-94421153D01*
X160368775Y-94421153D01*
X160288695Y-94263987D01*
X160288693Y-94263984D01*
X160288692Y-94263982D01*
X160163753Y-94092016D01*
X160013430Y-93941693D01*
X159841464Y-93816754D01*
X159840453Y-93816239D01*
X159832698Y-93812288D01*
X159781903Y-93764315D01*
X159765107Y-93696495D01*
X159787643Y-93630359D01*
X159832698Y-93591318D01*
X159841460Y-93586854D01*
X159909150Y-93537675D01*
X160013430Y-93461912D01*
X160013432Y-93461909D01*
X160013436Y-93461907D01*
X160163748Y-93311595D01*
X160163750Y-93311591D01*
X160163753Y-93311589D01*
X160288692Y-93139623D01*
X160288691Y-93139623D01*
X160288695Y-93139619D01*
X160385201Y-92950215D01*
X160450890Y-92748046D01*
X160484144Y-92538090D01*
X160484144Y-92325516D01*
X160450890Y-92115560D01*
X160385201Y-91913391D01*
X160288695Y-91723987D01*
X160288693Y-91723984D01*
X160288692Y-91723982D01*
X160163753Y-91552016D01*
X160013430Y-91401693D01*
X159841464Y-91276754D01*
X159840759Y-91276394D01*
X159832698Y-91272288D01*
X159781903Y-91224315D01*
X159765107Y-91156495D01*
X159787643Y-91090359D01*
X159832698Y-91051318D01*
X159841460Y-91046854D01*
X159908218Y-90998352D01*
X160013430Y-90921912D01*
X160013432Y-90921909D01*
X160013436Y-90921907D01*
X160163748Y-90771595D01*
X160163750Y-90771591D01*
X160163753Y-90771589D01*
X160288692Y-90599623D01*
X160288691Y-90599623D01*
X160288695Y-90599619D01*
X160385201Y-90410215D01*
X160450890Y-90208046D01*
X160484144Y-89998090D01*
X160484144Y-89921153D01*
X164699500Y-89921153D01*
X164699500Y-90078846D01*
X164730261Y-90233489D01*
X164730264Y-90233501D01*
X164790602Y-90379172D01*
X164790609Y-90379185D01*
X164878210Y-90510288D01*
X164878213Y-90510292D01*
X164989707Y-90621786D01*
X164989711Y-90621789D01*
X165120814Y-90709390D01*
X165120827Y-90709397D01*
X165212103Y-90747204D01*
X165266503Y-90769737D01*
X165421153Y-90800499D01*
X165421156Y-90800500D01*
X165421158Y-90800500D01*
X165578844Y-90800500D01*
X165578845Y-90800499D01*
X165733497Y-90769737D01*
X165879179Y-90709394D01*
X166010289Y-90621789D01*
X166121789Y-90510289D01*
X166209394Y-90379179D01*
X166269737Y-90233497D01*
X166300500Y-90078842D01*
X166300500Y-89921158D01*
X166300500Y-89921155D01*
X166300499Y-89921153D01*
X166283583Y-89836110D01*
X166269737Y-89766503D01*
X166252573Y-89725065D01*
X166209397Y-89620827D01*
X166209390Y-89620814D01*
X166121789Y-89489711D01*
X166121786Y-89489707D01*
X166010292Y-89378213D01*
X166010288Y-89378210D01*
X165879185Y-89290609D01*
X165879172Y-89290602D01*
X165733501Y-89230264D01*
X165733489Y-89230261D01*
X165578845Y-89199500D01*
X165578842Y-89199500D01*
X165421158Y-89199500D01*
X165421155Y-89199500D01*
X165266510Y-89230261D01*
X165266498Y-89230264D01*
X165120827Y-89290602D01*
X165120814Y-89290609D01*
X164989711Y-89378210D01*
X164989707Y-89378213D01*
X164878213Y-89489707D01*
X164878210Y-89489711D01*
X164790609Y-89620814D01*
X164790602Y-89620827D01*
X164730264Y-89766498D01*
X164730261Y-89766510D01*
X164699500Y-89921153D01*
X160484144Y-89921153D01*
X160484144Y-89785516D01*
X160450890Y-89575560D01*
X160385201Y-89373391D01*
X160288695Y-89183987D01*
X160288693Y-89183984D01*
X160288692Y-89183982D01*
X160163753Y-89012016D01*
X160013430Y-88861693D01*
X159841464Y-88736754D01*
X159840759Y-88736394D01*
X159832698Y-88732288D01*
X159781903Y-88684315D01*
X159765107Y-88616495D01*
X159787643Y-88550359D01*
X159832698Y-88511318D01*
X159841460Y-88506854D01*
X159865061Y-88489707D01*
X160013430Y-88381912D01*
X160013432Y-88381909D01*
X160013436Y-88381907D01*
X160163748Y-88231595D01*
X160163750Y-88231591D01*
X160163753Y-88231589D01*
X160288692Y-88059623D01*
X160288691Y-88059623D01*
X160288695Y-88059619D01*
X160385201Y-87870215D01*
X160450890Y-87668046D01*
X160484144Y-87458090D01*
X160484144Y-87245516D01*
X160450890Y-87035560D01*
X160391785Y-86853653D01*
X161199500Y-86853653D01*
X161199500Y-87011346D01*
X161230261Y-87165989D01*
X161230264Y-87166001D01*
X161290602Y-87311672D01*
X161290609Y-87311685D01*
X161378210Y-87442788D01*
X161378213Y-87442792D01*
X161489707Y-87554286D01*
X161489711Y-87554289D01*
X161620814Y-87641890D01*
X161620827Y-87641897D01*
X161738102Y-87690473D01*
X161766503Y-87702237D01*
X161921153Y-87732999D01*
X161921156Y-87733000D01*
X161921158Y-87733000D01*
X162078844Y-87733000D01*
X162078845Y-87732999D01*
X162233497Y-87702237D01*
X162379179Y-87641894D01*
X162510289Y-87554289D01*
X162621789Y-87442789D01*
X162709394Y-87311679D01*
X162711099Y-87307564D01*
X162743450Y-87229459D01*
X162769737Y-87165997D01*
X162800500Y-87011342D01*
X162800500Y-86921153D01*
X166699500Y-86921153D01*
X166699500Y-87078846D01*
X166730261Y-87233489D01*
X166730264Y-87233501D01*
X166790602Y-87379172D01*
X166790609Y-87379185D01*
X166878210Y-87510288D01*
X166878213Y-87510292D01*
X166989707Y-87621786D01*
X166989711Y-87621789D01*
X167120814Y-87709390D01*
X167120827Y-87709397D01*
X167220811Y-87750811D01*
X167266503Y-87769737D01*
X167421153Y-87800499D01*
X167421156Y-87800500D01*
X167575500Y-87800500D01*
X167642539Y-87820185D01*
X167688294Y-87872989D01*
X167699500Y-87924500D01*
X167699500Y-88078846D01*
X167730261Y-88233489D01*
X167730264Y-88233501D01*
X167790602Y-88379172D01*
X167790609Y-88379185D01*
X167878210Y-88510288D01*
X167878213Y-88510292D01*
X167989707Y-88621786D01*
X167989711Y-88621789D01*
X168120814Y-88709390D01*
X168120827Y-88709397D01*
X168186874Y-88736754D01*
X168266503Y-88769737D01*
X168376702Y-88791657D01*
X168421153Y-88800499D01*
X168421156Y-88800500D01*
X168575500Y-88800500D01*
X168642539Y-88820185D01*
X168688294Y-88872989D01*
X168699500Y-88924500D01*
X168699500Y-89078846D01*
X168730261Y-89233489D01*
X168730264Y-89233501D01*
X168790602Y-89379172D01*
X168790609Y-89379185D01*
X168878210Y-89510288D01*
X168878213Y-89510292D01*
X168989707Y-89621786D01*
X168989711Y-89621789D01*
X169120817Y-89709392D01*
X169120819Y-89709393D01*
X169120821Y-89709394D01*
X169138409Y-89716679D01*
X169192812Y-89760520D01*
X169214877Y-89826814D01*
X169212573Y-89855431D01*
X169199500Y-89921153D01*
X169199500Y-90078846D01*
X169230261Y-90233489D01*
X169230264Y-90233501D01*
X169290602Y-90379172D01*
X169290609Y-90379185D01*
X169378210Y-90510288D01*
X169378213Y-90510292D01*
X169489707Y-90621786D01*
X169489711Y-90621789D01*
X169620817Y-90709392D01*
X169620819Y-90709393D01*
X169620821Y-90709394D01*
X169631055Y-90713633D01*
X169638409Y-90716679D01*
X169692812Y-90760520D01*
X169714877Y-90826814D01*
X169712573Y-90855431D01*
X169699500Y-90921153D01*
X169699500Y-91078846D01*
X169730261Y-91233489D01*
X169730264Y-91233501D01*
X169790602Y-91379172D01*
X169790609Y-91379185D01*
X169878210Y-91510288D01*
X169878213Y-91510292D01*
X169989707Y-91621786D01*
X169989711Y-91621789D01*
X170120814Y-91709390D01*
X170120827Y-91709397D01*
X170225859Y-91752902D01*
X170266503Y-91769737D01*
X170421153Y-91800499D01*
X170421156Y-91800500D01*
X170421158Y-91800500D01*
X170578844Y-91800500D01*
X170578845Y-91800499D01*
X170733497Y-91769737D01*
X170879179Y-91709394D01*
X171010289Y-91621789D01*
X171121789Y-91510289D01*
X171209394Y-91379179D01*
X171269737Y-91233497D01*
X171300500Y-91078842D01*
X171300500Y-90921158D01*
X171300500Y-90921155D01*
X171300499Y-90921153D01*
X171286342Y-90849981D01*
X171269737Y-90766503D01*
X171261743Y-90747203D01*
X171209397Y-90620827D01*
X171209390Y-90620814D01*
X171121789Y-90489711D01*
X171121786Y-90489707D01*
X171010292Y-90378213D01*
X171010288Y-90378210D01*
X170879185Y-90290609D01*
X170879179Y-90290606D01*
X170861589Y-90283320D01*
X170807186Y-90239478D01*
X170785122Y-90173184D01*
X170787425Y-90144571D01*
X170800500Y-90078842D01*
X170800500Y-89921158D01*
X170800500Y-89921155D01*
X170800499Y-89921153D01*
X170783583Y-89836110D01*
X170769737Y-89766503D01*
X170752573Y-89725065D01*
X170709397Y-89620827D01*
X170709390Y-89620814D01*
X170621789Y-89489711D01*
X170621786Y-89489707D01*
X170510292Y-89378213D01*
X170510288Y-89378210D01*
X170379185Y-89290609D01*
X170379179Y-89290606D01*
X170361589Y-89283320D01*
X170307186Y-89239478D01*
X170285122Y-89173184D01*
X170287425Y-89144571D01*
X170300500Y-89078842D01*
X170300500Y-88921158D01*
X170300500Y-88921155D01*
X170300499Y-88921153D01*
X170291666Y-88876748D01*
X170269737Y-88766503D01*
X170255565Y-88732289D01*
X170209397Y-88620827D01*
X170209390Y-88620814D01*
X170121789Y-88489711D01*
X170121786Y-88489707D01*
X170010292Y-88378213D01*
X170010288Y-88378210D01*
X169879185Y-88290609D01*
X169879172Y-88290602D01*
X169733501Y-88230264D01*
X169733489Y-88230261D01*
X169578845Y-88199500D01*
X169578842Y-88199500D01*
X169424500Y-88199500D01*
X169357461Y-88179815D01*
X169311706Y-88127011D01*
X169300500Y-88075500D01*
X169300500Y-87921155D01*
X169300499Y-87921153D01*
X169269737Y-87766503D01*
X169269735Y-87766498D01*
X169209397Y-87620827D01*
X169209390Y-87620814D01*
X169121789Y-87489711D01*
X169121786Y-87489707D01*
X169010292Y-87378213D01*
X169010288Y-87378210D01*
X168879185Y-87290609D01*
X168879172Y-87290602D01*
X168733501Y-87230264D01*
X168733489Y-87230261D01*
X168578845Y-87199500D01*
X168578842Y-87199500D01*
X168424500Y-87199500D01*
X168357461Y-87179815D01*
X168311706Y-87127011D01*
X168300500Y-87075500D01*
X168300500Y-86921155D01*
X168300499Y-86921153D01*
X168296735Y-86902229D01*
X168269737Y-86766503D01*
X168264060Y-86752797D01*
X168209397Y-86620827D01*
X168209390Y-86620814D01*
X168121789Y-86489711D01*
X168121786Y-86489707D01*
X168010292Y-86378213D01*
X168010288Y-86378210D01*
X167879185Y-86290609D01*
X167879172Y-86290602D01*
X167733501Y-86230264D01*
X167733489Y-86230261D01*
X167578845Y-86199500D01*
X167578842Y-86199500D01*
X167421158Y-86199500D01*
X167421155Y-86199500D01*
X167266510Y-86230261D01*
X167266498Y-86230264D01*
X167120827Y-86290602D01*
X167120814Y-86290609D01*
X166989711Y-86378210D01*
X166989707Y-86378213D01*
X166878213Y-86489707D01*
X166878210Y-86489711D01*
X166790609Y-86620814D01*
X166790602Y-86620827D01*
X166730264Y-86766498D01*
X166730261Y-86766510D01*
X166699500Y-86921153D01*
X162800500Y-86921153D01*
X162800500Y-86853658D01*
X162800500Y-86853655D01*
X162800499Y-86853653D01*
X162783165Y-86766510D01*
X162769737Y-86699003D01*
X162749440Y-86650001D01*
X162709397Y-86553327D01*
X162709390Y-86553314D01*
X162621789Y-86422211D01*
X162621786Y-86422207D01*
X162510292Y-86310713D01*
X162510288Y-86310710D01*
X162379185Y-86223109D01*
X162379172Y-86223102D01*
X162233501Y-86162764D01*
X162233489Y-86162761D01*
X162078845Y-86132000D01*
X162078842Y-86132000D01*
X161921158Y-86132000D01*
X161921155Y-86132000D01*
X161766510Y-86162761D01*
X161766498Y-86162764D01*
X161620827Y-86223102D01*
X161620814Y-86223109D01*
X161489711Y-86310710D01*
X161489707Y-86310713D01*
X161378213Y-86422207D01*
X161378210Y-86422211D01*
X161290609Y-86553314D01*
X161290602Y-86553327D01*
X161230264Y-86698998D01*
X161230261Y-86699010D01*
X161199500Y-86853653D01*
X160391785Y-86853653D01*
X160385201Y-86833391D01*
X160385199Y-86833388D01*
X160385199Y-86833386D01*
X160322813Y-86710948D01*
X160288695Y-86643987D01*
X160288693Y-86643984D01*
X160288692Y-86643982D01*
X160163753Y-86472016D01*
X160013430Y-86321693D01*
X159841464Y-86196754D01*
X159840759Y-86196394D01*
X159832698Y-86192288D01*
X159781903Y-86144315D01*
X159765107Y-86076495D01*
X159787643Y-86010359D01*
X159832698Y-85971318D01*
X159841460Y-85966854D01*
X159887555Y-85933364D01*
X160013430Y-85841912D01*
X160013432Y-85841909D01*
X160013436Y-85841907D01*
X160163748Y-85691595D01*
X160163750Y-85691591D01*
X160163753Y-85691589D01*
X160288692Y-85519623D01*
X160288691Y-85519623D01*
X160288695Y-85519619D01*
X160385201Y-85330215D01*
X160450890Y-85128046D01*
X160484144Y-84918090D01*
X160484144Y-84705516D01*
X160450890Y-84495560D01*
X160385201Y-84293391D01*
X160328422Y-84181956D01*
X163699500Y-84181956D01*
X163699500Y-84339649D01*
X163730261Y-84494292D01*
X163730264Y-84494304D01*
X163790602Y-84639975D01*
X163790609Y-84639988D01*
X163878210Y-84771091D01*
X163878213Y-84771095D01*
X163989707Y-84882589D01*
X163989711Y-84882592D01*
X164120814Y-84970193D01*
X164120827Y-84970200D01*
X164265281Y-85030034D01*
X164266503Y-85030540D01*
X164421153Y-85061302D01*
X164421156Y-85061303D01*
X164421158Y-85061303D01*
X164578844Y-85061303D01*
X164578845Y-85061302D01*
X164733497Y-85030540D01*
X164879179Y-84970197D01*
X165010289Y-84882592D01*
X165121789Y-84771092D01*
X165209394Y-84639982D01*
X165269737Y-84494300D01*
X165300500Y-84339645D01*
X165300500Y-84181961D01*
X165300500Y-84181958D01*
X165300499Y-84181956D01*
X165284989Y-84103982D01*
X165269737Y-84027306D01*
X165251215Y-83982590D01*
X165209397Y-83881630D01*
X165209390Y-83881617D01*
X165121789Y-83750514D01*
X165121786Y-83750510D01*
X165010292Y-83639016D01*
X165010288Y-83639013D01*
X164879185Y-83551412D01*
X164879172Y-83551405D01*
X164733501Y-83491067D01*
X164733489Y-83491064D01*
X164578845Y-83460303D01*
X164578842Y-83460303D01*
X164421158Y-83460303D01*
X164421155Y-83460303D01*
X164266510Y-83491064D01*
X164266498Y-83491067D01*
X164120827Y-83551405D01*
X164120814Y-83551412D01*
X163989711Y-83639013D01*
X163989707Y-83639016D01*
X163878213Y-83750510D01*
X163878210Y-83750514D01*
X163790609Y-83881617D01*
X163790602Y-83881630D01*
X163730264Y-84027301D01*
X163730261Y-84027313D01*
X163699500Y-84181956D01*
X160328422Y-84181956D01*
X160288695Y-84103987D01*
X160288693Y-84103984D01*
X160288692Y-84103982D01*
X160163753Y-83932016D01*
X160050213Y-83818476D01*
X160016728Y-83757153D01*
X160021712Y-83687461D01*
X160063584Y-83631528D01*
X160094559Y-83614613D01*
X160225975Y-83565599D01*
X160341190Y-83479349D01*
X160427440Y-83364134D01*
X160477735Y-83229286D01*
X160484144Y-83169676D01*
X160484143Y-81373931D01*
X160477735Y-81314320D01*
X160473942Y-81304151D01*
X160458081Y-81261622D01*
X160444189Y-81224377D01*
X162836131Y-81224377D01*
X162836131Y-81382070D01*
X162866892Y-81536713D01*
X162866895Y-81536725D01*
X162927233Y-81682396D01*
X162927240Y-81682409D01*
X163014841Y-81813512D01*
X163014844Y-81813516D01*
X163126338Y-81925010D01*
X163126342Y-81925013D01*
X163257445Y-82012614D01*
X163257458Y-82012621D01*
X163323872Y-82040130D01*
X163403134Y-82072961D01*
X163557784Y-82103723D01*
X163557787Y-82103724D01*
X163557789Y-82103724D01*
X163715475Y-82103724D01*
X163715476Y-82103723D01*
X163870128Y-82072961D01*
X164015810Y-82012618D01*
X164146920Y-81925013D01*
X164258420Y-81813513D01*
X164346025Y-81682403D01*
X164406368Y-81536721D01*
X164437131Y-81382066D01*
X164437131Y-81224382D01*
X164437131Y-81224379D01*
X164437130Y-81224377D01*
X164420562Y-81141085D01*
X164406368Y-81069727D01*
X164404102Y-81064257D01*
X164346028Y-80924051D01*
X164346021Y-80924038D01*
X164258420Y-80792935D01*
X164258417Y-80792931D01*
X164146923Y-80681437D01*
X164146919Y-80681434D01*
X164015816Y-80593833D01*
X164015803Y-80593826D01*
X163870132Y-80533488D01*
X163870120Y-80533485D01*
X163715476Y-80502724D01*
X163715473Y-80502724D01*
X163557789Y-80502724D01*
X163557786Y-80502724D01*
X163403141Y-80533485D01*
X163403129Y-80533488D01*
X163257458Y-80593826D01*
X163257445Y-80593833D01*
X163126342Y-80681434D01*
X163126338Y-80681437D01*
X163014844Y-80792931D01*
X163014841Y-80792935D01*
X162927240Y-80924038D01*
X162927233Y-80924051D01*
X162866895Y-81069722D01*
X162866892Y-81069734D01*
X162836131Y-81224377D01*
X160444189Y-81224377D01*
X160427441Y-81179474D01*
X160427437Y-81179467D01*
X160341191Y-81064258D01*
X160341188Y-81064255D01*
X160225979Y-80978009D01*
X160225972Y-80978005D01*
X160091126Y-80927711D01*
X160091127Y-80927711D01*
X160031527Y-80921304D01*
X160031525Y-80921303D01*
X160031517Y-80921303D01*
X160031508Y-80921303D01*
X158235773Y-80921303D01*
X158235767Y-80921304D01*
X158176160Y-80927711D01*
X158041315Y-80978005D01*
X158041308Y-80978009D01*
X157926099Y-81064255D01*
X157926096Y-81064258D01*
X157839850Y-81179467D01*
X157839846Y-81179474D01*
X157789552Y-81314320D01*
X157783374Y-81371792D01*
X157783145Y-81373926D01*
X157783144Y-81373938D01*
X157174787Y-81373938D01*
X157093699Y-81252583D01*
X157093696Y-81252579D01*
X156982202Y-81141085D01*
X156982198Y-81141082D01*
X156851095Y-81053481D01*
X156851082Y-81053474D01*
X156705411Y-80993136D01*
X156705399Y-80993133D01*
X156550755Y-80962372D01*
X156550752Y-80962372D01*
X156393068Y-80962372D01*
X156393065Y-80962372D01*
X156238420Y-80993133D01*
X156238408Y-80993136D01*
X156092737Y-81053474D01*
X156092724Y-81053481D01*
X155961621Y-81141082D01*
X155961617Y-81141085D01*
X155850123Y-81252579D01*
X155850120Y-81252583D01*
X155762519Y-81383686D01*
X155762512Y-81383699D01*
X155702174Y-81529370D01*
X155702171Y-81529382D01*
X155671410Y-81684025D01*
X152150500Y-81684025D01*
X152150500Y-81526440D01*
X152150500Y-81526437D01*
X152150499Y-81526435D01*
X152128942Y-81418061D01*
X152119737Y-81371785D01*
X152119735Y-81371780D01*
X152059397Y-81226109D01*
X152059390Y-81226096D01*
X151971789Y-81094993D01*
X151971786Y-81094989D01*
X151860292Y-80983495D01*
X151860288Y-80983492D01*
X151729185Y-80895891D01*
X151729172Y-80895884D01*
X151583501Y-80835546D01*
X151583489Y-80835543D01*
X151428845Y-80804782D01*
X151428842Y-80804782D01*
X151271158Y-80804782D01*
X151271155Y-80804782D01*
X151116510Y-80835543D01*
X151116498Y-80835546D01*
X150970827Y-80895884D01*
X150970814Y-80895891D01*
X150839711Y-80983492D01*
X150839707Y-80983495D01*
X150728213Y-81094989D01*
X150728210Y-81094993D01*
X150640609Y-81226096D01*
X150640602Y-81226109D01*
X150580264Y-81371780D01*
X150580261Y-81371792D01*
X150549500Y-81526435D01*
X150549500Y-81684126D01*
X150564400Y-81759032D01*
X150563359Y-81770658D01*
X150566775Y-81781821D01*
X150560302Y-81804823D01*
X150558173Y-81828624D01*
X150550529Y-81839556D01*
X150547850Y-81849079D01*
X150533646Y-81863704D01*
X150525041Y-81876012D01*
X150518706Y-81881627D01*
X150489711Y-81901002D01*
X150433931Y-81956781D01*
X150431129Y-81959266D01*
X150402748Y-81972616D01*
X150375228Y-81987644D01*
X150371389Y-81987369D01*
X150367906Y-81989008D01*
X150336813Y-81984896D01*
X150305536Y-81982659D01*
X150302455Y-81980352D01*
X150298639Y-81979848D01*
X150274713Y-81959585D01*
X150249603Y-81940788D01*
X150248257Y-81937179D01*
X150245321Y-81934693D01*
X150236147Y-81904710D01*
X150225187Y-81875323D01*
X150225868Y-81871115D01*
X150224879Y-81867881D01*
X150228448Y-81855193D01*
X150234310Y-81819025D01*
X150236592Y-81813516D01*
X150269737Y-81733497D01*
X150300500Y-81578842D01*
X150300500Y-81421158D01*
X150300500Y-81421155D01*
X150300499Y-81421153D01*
X150293156Y-81384236D01*
X150269737Y-81266503D01*
X150257220Y-81236284D01*
X150209397Y-81120827D01*
X150209390Y-81120814D01*
X150121789Y-80989711D01*
X150121786Y-80989707D01*
X150010292Y-80878213D01*
X150010288Y-80878210D01*
X149879185Y-80790609D01*
X149879172Y-80790602D01*
X149733501Y-80730264D01*
X149733489Y-80730261D01*
X149578845Y-80699500D01*
X149578842Y-80699500D01*
X149459298Y-80699500D01*
X149392259Y-80679815D01*
X149346504Y-80627011D01*
X149335298Y-80575500D01*
X149335298Y-80535653D01*
X149335297Y-80535651D01*
X149304536Y-80381008D01*
X149304535Y-80381001D01*
X149271191Y-80300500D01*
X149244195Y-80235325D01*
X149244188Y-80235312D01*
X149156587Y-80104209D01*
X149156584Y-80104205D01*
X149045090Y-79992711D01*
X149045086Y-79992708D01*
X148913983Y-79905107D01*
X148913970Y-79905100D01*
X148768299Y-79844762D01*
X148768287Y-79844759D01*
X148613643Y-79813998D01*
X148613640Y-79813998D01*
X148455956Y-79813998D01*
X148455953Y-79813998D01*
X148301308Y-79844759D01*
X148301296Y-79844762D01*
X148155625Y-79905100D01*
X148155612Y-79905107D01*
X148024509Y-79992708D01*
X148024505Y-79992711D01*
X147913011Y-80104205D01*
X147913008Y-80104209D01*
X147825407Y-80235312D01*
X147825400Y-80235325D01*
X147765062Y-80380996D01*
X147765059Y-80381008D01*
X147734298Y-80535651D01*
X128240885Y-80535651D01*
X128509824Y-80232319D01*
X128512834Y-80229046D01*
X129250788Y-79455923D01*
X129253925Y-79452756D01*
X130019786Y-78707280D01*
X130023068Y-78704201D01*
X130815782Y-77987398D01*
X130819146Y-77984466D01*
X131115046Y-77736043D01*
X144679499Y-77736043D01*
X144717947Y-77929329D01*
X144717950Y-77929339D01*
X144793364Y-78111407D01*
X144793371Y-78111420D01*
X144902860Y-78275281D01*
X144902863Y-78275285D01*
X145042214Y-78414636D01*
X145042218Y-78414639D01*
X145206079Y-78524128D01*
X145206092Y-78524135D01*
X145338173Y-78578844D01*
X145388165Y-78599551D01*
X145388169Y-78599551D01*
X145388170Y-78599552D01*
X145581456Y-78638000D01*
X145581459Y-78638000D01*
X145778543Y-78638000D01*
X145908582Y-78612132D01*
X145971835Y-78599551D01*
X146112655Y-78541221D01*
X146153907Y-78524135D01*
X146153907Y-78524134D01*
X146153914Y-78524132D01*
X146317782Y-78414639D01*
X146457139Y-78275282D01*
X146566632Y-78111414D01*
X146642051Y-77929335D01*
X146679007Y-77743549D01*
X146680500Y-77736043D01*
X146680500Y-76802617D01*
X146700185Y-76735578D01*
X146752989Y-76689823D01*
X146822147Y-76679879D01*
X146885703Y-76708904D01*
X146919061Y-76755165D01*
X146940602Y-76807172D01*
X146940609Y-76807185D01*
X147028210Y-76938288D01*
X147028213Y-76938292D01*
X147139707Y-77049786D01*
X147139711Y-77049789D01*
X147270814Y-77137390D01*
X147270827Y-77137397D01*
X147416498Y-77197735D01*
X147416503Y-77197737D01*
X147571153Y-77228499D01*
X147571156Y-77228500D01*
X147571158Y-77228500D01*
X147728844Y-77228500D01*
X147728845Y-77228499D01*
X147883497Y-77197737D01*
X148029179Y-77137394D01*
X148160289Y-77049789D01*
X148271789Y-76938289D01*
X148359394Y-76807179D01*
X148366258Y-76790609D01*
X148399896Y-76709397D01*
X148419737Y-76661497D01*
X148450500Y-76506842D01*
X148450500Y-76350319D01*
X151585479Y-76350319D01*
X151585479Y-76508012D01*
X151616240Y-76662655D01*
X151616243Y-76662667D01*
X151676581Y-76808338D01*
X151676588Y-76808351D01*
X151764189Y-76939454D01*
X151764192Y-76939458D01*
X151875686Y-77050952D01*
X151875690Y-77050955D01*
X152006793Y-77138556D01*
X152006806Y-77138563D01*
X152149662Y-77197735D01*
X152152482Y-77198903D01*
X152301270Y-77228499D01*
X152307132Y-77229665D01*
X152307135Y-77229666D01*
X152307137Y-77229666D01*
X152464823Y-77229666D01*
X152464824Y-77229665D01*
X152619476Y-77198903D01*
X152765158Y-77138560D01*
X152896268Y-77050955D01*
X153007768Y-76939455D01*
X153092398Y-76812798D01*
X153146010Y-76767993D01*
X153215335Y-76759286D01*
X153278363Y-76789440D01*
X153315082Y-76848883D01*
X153319500Y-76881689D01*
X153319500Y-77736041D01*
X153319500Y-77736043D01*
X153319499Y-77736043D01*
X153357947Y-77929329D01*
X153357950Y-77929339D01*
X153433364Y-78111407D01*
X153433371Y-78111420D01*
X153542860Y-78275281D01*
X153542863Y-78275285D01*
X153682214Y-78414636D01*
X153682222Y-78414642D01*
X153816644Y-78504460D01*
X153861450Y-78558072D01*
X153870157Y-78627397D01*
X153840003Y-78690424D01*
X153780560Y-78727144D01*
X153771956Y-78729177D01*
X153766513Y-78730260D01*
X153766498Y-78730264D01*
X153620827Y-78790602D01*
X153620814Y-78790609D01*
X153489711Y-78878210D01*
X153489707Y-78878213D01*
X153378213Y-78989707D01*
X153378210Y-78989711D01*
X153290609Y-79120814D01*
X153290602Y-79120827D01*
X153230264Y-79266498D01*
X153230261Y-79266510D01*
X153199500Y-79421153D01*
X153199500Y-79578846D01*
X153230261Y-79733489D01*
X153230264Y-79733501D01*
X153290602Y-79879172D01*
X153290609Y-79879185D01*
X153378210Y-80010288D01*
X153378213Y-80010292D01*
X153489707Y-80121786D01*
X153489711Y-80121789D01*
X153620814Y-80209390D01*
X153620827Y-80209397D01*
X153683424Y-80235325D01*
X153766503Y-80269737D01*
X153921153Y-80300499D01*
X153921156Y-80300500D01*
X153921158Y-80300500D01*
X154078844Y-80300500D01*
X154078845Y-80300499D01*
X154233497Y-80269737D01*
X154379179Y-80209394D01*
X154510289Y-80121789D01*
X154621789Y-80010289D01*
X154709394Y-79879179D01*
X154769737Y-79733497D01*
X154800500Y-79578842D01*
X154800500Y-79421158D01*
X154800500Y-79421155D01*
X154800499Y-79421153D01*
X154769738Y-79266510D01*
X154769737Y-79266503D01*
X154709794Y-79121786D01*
X154709397Y-79120827D01*
X154709390Y-79120814D01*
X154621789Y-78989711D01*
X154621786Y-78989707D01*
X154510291Y-78878212D01*
X154487078Y-78862702D01*
X154461121Y-78845358D01*
X154416316Y-78791746D01*
X154407609Y-78722422D01*
X154437763Y-78659394D01*
X154497206Y-78622674D01*
X154505821Y-78620639D01*
X154546078Y-78612631D01*
X154611835Y-78599551D01*
X154752655Y-78541221D01*
X154793907Y-78524135D01*
X154793907Y-78524134D01*
X154793914Y-78524132D01*
X154957782Y-78414639D01*
X155097139Y-78275282D01*
X155206632Y-78111414D01*
X155282051Y-77929335D01*
X155319007Y-77743549D01*
X155320500Y-77736043D01*
X155320500Y-77243713D01*
X157149500Y-77243713D01*
X157149500Y-77756287D01*
X157182754Y-77966243D01*
X157233294Y-78121789D01*
X157248444Y-78168414D01*
X157344951Y-78357820D01*
X157469890Y-78529786D01*
X157620213Y-78680109D01*
X157792179Y-78805048D01*
X157792181Y-78805049D01*
X157792184Y-78805051D01*
X157981588Y-78901557D01*
X158183757Y-78967246D01*
X158393713Y-79000500D01*
X158393714Y-79000500D01*
X158606286Y-79000500D01*
X158606287Y-79000500D01*
X158816243Y-78967246D01*
X159018412Y-78901557D01*
X159207816Y-78805051D01*
X159353096Y-78699500D01*
X159379784Y-78680110D01*
X159379784Y-78680109D01*
X159379792Y-78680104D01*
X159518604Y-78541291D01*
X159579923Y-78507809D01*
X159649615Y-78512793D01*
X159705549Y-78554664D01*
X159711821Y-78563878D01*
X159715185Y-78569333D01*
X159715186Y-78569334D01*
X159807288Y-78718656D01*
X159931344Y-78842712D01*
X160080666Y-78934814D01*
X160247203Y-78989999D01*
X160349991Y-79000500D01*
X161650008Y-79000499D01*
X161752797Y-78989999D01*
X161919334Y-78934814D01*
X162068656Y-78842712D01*
X162192712Y-78718656D01*
X162284814Y-78569334D01*
X162339999Y-78402797D01*
X162350500Y-78300009D01*
X162350499Y-76699992D01*
X162348444Y-76679879D01*
X162339999Y-76597203D01*
X162339998Y-76597200D01*
X162284814Y-76430666D01*
X162192712Y-76281344D01*
X162068656Y-76157288D01*
X161941481Y-76078846D01*
X161919336Y-76065187D01*
X161919331Y-76065185D01*
X161904770Y-76060360D01*
X161752797Y-76010001D01*
X161752795Y-76010000D01*
X161650010Y-75999500D01*
X160349998Y-75999500D01*
X160349981Y-75999501D01*
X160247203Y-76010000D01*
X160247200Y-76010001D01*
X160080668Y-76065185D01*
X160080663Y-76065187D01*
X159931342Y-76157289D01*
X159807289Y-76281342D01*
X159711821Y-76436121D01*
X159659873Y-76482845D01*
X159590910Y-76494068D01*
X159526828Y-76466224D01*
X159518601Y-76458705D01*
X159379786Y-76319890D01*
X159207820Y-76194951D01*
X159018414Y-76098444D01*
X159018413Y-76098443D01*
X159018412Y-76098443D01*
X158816243Y-76032754D01*
X158816241Y-76032753D01*
X158816240Y-76032753D01*
X158654957Y-76007208D01*
X158606287Y-75999500D01*
X158393713Y-75999500D01*
X158345042Y-76007208D01*
X158183760Y-76032753D01*
X157981585Y-76098444D01*
X157792179Y-76194951D01*
X157620213Y-76319890D01*
X157469890Y-76470213D01*
X157344951Y-76642179D01*
X157248444Y-76831585D01*
X157248443Y-76831587D01*
X157248443Y-76831588D01*
X157239929Y-76857791D01*
X157182753Y-77033760D01*
X157151725Y-77229665D01*
X157149500Y-77243713D01*
X155320500Y-77243713D01*
X155320500Y-76738956D01*
X155282052Y-76545670D01*
X155282051Y-76545669D01*
X155282051Y-76545665D01*
X155269349Y-76514999D01*
X155206635Y-76363592D01*
X155206628Y-76363579D01*
X155097139Y-76199718D01*
X155097136Y-76199714D01*
X154957785Y-76060363D01*
X154957781Y-76060360D01*
X154793920Y-75950871D01*
X154793907Y-75950864D01*
X154611839Y-75875450D01*
X154611829Y-75875447D01*
X154418543Y-75837000D01*
X154418541Y-75837000D01*
X154221459Y-75837000D01*
X154221457Y-75837000D01*
X154028170Y-75875447D01*
X154028160Y-75875450D01*
X153846092Y-75950864D01*
X153846079Y-75950871D01*
X153682218Y-76060360D01*
X153682214Y-76060363D01*
X153542863Y-76199714D01*
X153542860Y-76199718D01*
X153433371Y-76363579D01*
X153433368Y-76363585D01*
X153424404Y-76385227D01*
X153380562Y-76439630D01*
X153314268Y-76461694D01*
X153246569Y-76444414D01*
X153198959Y-76393277D01*
X153188246Y-76356182D01*
X153187668Y-76356298D01*
X153163241Y-76233501D01*
X153155716Y-76195669D01*
X153139818Y-76157288D01*
X153095376Y-76049993D01*
X153095369Y-76049980D01*
X153007768Y-75918877D01*
X153007765Y-75918873D01*
X152896271Y-75807379D01*
X152896267Y-75807376D01*
X152765164Y-75719775D01*
X152765151Y-75719768D01*
X152619480Y-75659430D01*
X152619468Y-75659427D01*
X152464824Y-75628666D01*
X152464821Y-75628666D01*
X152307137Y-75628666D01*
X152307134Y-75628666D01*
X152152489Y-75659427D01*
X152152477Y-75659430D01*
X152006806Y-75719768D01*
X152006793Y-75719775D01*
X151875690Y-75807376D01*
X151875686Y-75807379D01*
X151764192Y-75918873D01*
X151764189Y-75918877D01*
X151676588Y-76049980D01*
X151676581Y-76049993D01*
X151616243Y-76195664D01*
X151616240Y-76195676D01*
X151585479Y-76350319D01*
X148450500Y-76350319D01*
X148450500Y-76349158D01*
X148450500Y-76349155D01*
X148450499Y-76349153D01*
X148443149Y-76312201D01*
X148419737Y-76194503D01*
X148404322Y-76157288D01*
X148359397Y-76048827D01*
X148359390Y-76048814D01*
X148271789Y-75917711D01*
X148271786Y-75917707D01*
X148160292Y-75806213D01*
X148160288Y-75806210D01*
X148029185Y-75718609D01*
X148029172Y-75718602D01*
X147883501Y-75658264D01*
X147883489Y-75658261D01*
X147728845Y-75627500D01*
X147728842Y-75627500D01*
X147571158Y-75627500D01*
X147571155Y-75627500D01*
X147416510Y-75658261D01*
X147416498Y-75658264D01*
X147270827Y-75718602D01*
X147270814Y-75718609D01*
X147139711Y-75806210D01*
X147139707Y-75806213D01*
X147028213Y-75917707D01*
X147028210Y-75917711D01*
X146940609Y-76048814D01*
X146940602Y-76048827D01*
X146880264Y-76194498D01*
X146880261Y-76194510D01*
X146849500Y-76349153D01*
X146849500Y-76423100D01*
X146829815Y-76490139D01*
X146777011Y-76535894D01*
X146707853Y-76545838D01*
X146644297Y-76516813D01*
X146610939Y-76470552D01*
X146566635Y-76363592D01*
X146566628Y-76363579D01*
X146457139Y-76199718D01*
X146457136Y-76199714D01*
X146317785Y-76060363D01*
X146317781Y-76060360D01*
X146153920Y-75950871D01*
X146153907Y-75950864D01*
X145971839Y-75875450D01*
X145971829Y-75875447D01*
X145778543Y-75837000D01*
X145778541Y-75837000D01*
X145581459Y-75837000D01*
X145581457Y-75837000D01*
X145388170Y-75875447D01*
X145388160Y-75875450D01*
X145206092Y-75950864D01*
X145206079Y-75950871D01*
X145042218Y-76060360D01*
X145042214Y-76060363D01*
X144902863Y-76199714D01*
X144902860Y-76199718D01*
X144793371Y-76363579D01*
X144793364Y-76363592D01*
X144717950Y-76545660D01*
X144717947Y-76545670D01*
X144679500Y-76738956D01*
X144679500Y-76738959D01*
X144679500Y-77736041D01*
X144679500Y-77736043D01*
X144679499Y-77736043D01*
X131115046Y-77736043D01*
X131637679Y-77297267D01*
X131641167Y-77294446D01*
X132484381Y-76637810D01*
X132487994Y-76635101D01*
X133354766Y-76009896D01*
X133358461Y-76007333D01*
X133588147Y-75854169D01*
X140909822Y-75854169D01*
X140909822Y-76011862D01*
X140940583Y-76166505D01*
X140940586Y-76166517D01*
X141000924Y-76312188D01*
X141000931Y-76312201D01*
X141088532Y-76443304D01*
X141088535Y-76443308D01*
X141200029Y-76554802D01*
X141200033Y-76554805D01*
X141331136Y-76642406D01*
X141331149Y-76642413D01*
X141470133Y-76699981D01*
X141476825Y-76702753D01*
X141615116Y-76730261D01*
X141631475Y-76733515D01*
X141631478Y-76733516D01*
X141631480Y-76733516D01*
X141789166Y-76733516D01*
X141789167Y-76733515D01*
X141943819Y-76702753D01*
X142089501Y-76642410D01*
X142089506Y-76642406D01*
X142089509Y-76642405D01*
X142108425Y-76629766D01*
X142108426Y-76629765D01*
X142157162Y-76597200D01*
X142220611Y-76554805D01*
X142332111Y-76443305D01*
X142419716Y-76312195D01*
X142480059Y-76166513D01*
X142510822Y-76011858D01*
X142510822Y-75854174D01*
X142510822Y-75854171D01*
X142510821Y-75854169D01*
X142501282Y-75806213D01*
X142480059Y-75699519D01*
X142463453Y-75659429D01*
X142419719Y-75553843D01*
X142419712Y-75553830D01*
X142332111Y-75422727D01*
X142332108Y-75422723D01*
X142220614Y-75311229D01*
X142220610Y-75311226D01*
X142089507Y-75223625D01*
X142089494Y-75223618D01*
X141943823Y-75163280D01*
X141943811Y-75163277D01*
X141789167Y-75132516D01*
X141789164Y-75132516D01*
X141631480Y-75132516D01*
X141631477Y-75132516D01*
X141476832Y-75163277D01*
X141476820Y-75163280D01*
X141331149Y-75223618D01*
X141331136Y-75223625D01*
X141200033Y-75311226D01*
X141200029Y-75311229D01*
X141088535Y-75422723D01*
X141088532Y-75422727D01*
X141000931Y-75553830D01*
X141000924Y-75553843D01*
X140940586Y-75699514D01*
X140940583Y-75699526D01*
X140909822Y-75854169D01*
X133588147Y-75854169D01*
X134247624Y-75414404D01*
X134251437Y-75411963D01*
X134919148Y-75001331D01*
X135161766Y-74852124D01*
X135165640Y-74849838D01*
X136095998Y-74323793D01*
X136099893Y-74321684D01*
X136844546Y-73936043D01*
X144679499Y-73936043D01*
X144717947Y-74129329D01*
X144717950Y-74129339D01*
X144793364Y-74311407D01*
X144793371Y-74311420D01*
X144902860Y-74475281D01*
X144902863Y-74475285D01*
X145042214Y-74614636D01*
X145042218Y-74614639D01*
X145206079Y-74724128D01*
X145206092Y-74724135D01*
X145388160Y-74799549D01*
X145388165Y-74799551D01*
X145388169Y-74799551D01*
X145388170Y-74799552D01*
X145581456Y-74838000D01*
X145581459Y-74838000D01*
X145778543Y-74838000D01*
X145908582Y-74812132D01*
X145971835Y-74799551D01*
X146153914Y-74724132D01*
X146317782Y-74614639D01*
X146457139Y-74475282D01*
X146566632Y-74311414D01*
X146642051Y-74129335D01*
X146680500Y-73936043D01*
X153319499Y-73936043D01*
X153357947Y-74129329D01*
X153357950Y-74129339D01*
X153433364Y-74311407D01*
X153433371Y-74311420D01*
X153542860Y-74475281D01*
X153542863Y-74475285D01*
X153682214Y-74614636D01*
X153682218Y-74614639D01*
X153846079Y-74724128D01*
X153846092Y-74724135D01*
X154028160Y-74799549D01*
X154028165Y-74799551D01*
X154028169Y-74799551D01*
X154028170Y-74799552D01*
X154221456Y-74838000D01*
X154221459Y-74838000D01*
X154418543Y-74838000D01*
X154548582Y-74812132D01*
X154611835Y-74799551D01*
X154793914Y-74724132D01*
X154957782Y-74614639D01*
X155097139Y-74475282D01*
X155206632Y-74311414D01*
X155282051Y-74129335D01*
X155320500Y-73936041D01*
X155320500Y-73740713D01*
X155340185Y-73673674D01*
X155392989Y-73627919D01*
X155462147Y-73617975D01*
X155513389Y-73637610D01*
X155620821Y-73709394D01*
X155620823Y-73709395D01*
X155620827Y-73709397D01*
X155696432Y-73740713D01*
X155766503Y-73769737D01*
X155921153Y-73800499D01*
X155921156Y-73800500D01*
X155921158Y-73800500D01*
X156078844Y-73800500D01*
X156078845Y-73800499D01*
X156233497Y-73769737D01*
X156379179Y-73709394D01*
X156510289Y-73621789D01*
X156621789Y-73510289D01*
X156709394Y-73379179D01*
X156769737Y-73233497D01*
X156800500Y-73078842D01*
X156800500Y-72921158D01*
X156800500Y-72921155D01*
X156800499Y-72921153D01*
X156769738Y-72766510D01*
X156769737Y-72766503D01*
X156769735Y-72766498D01*
X156709397Y-72620827D01*
X156709390Y-72620814D01*
X156621789Y-72489711D01*
X156621786Y-72489707D01*
X156510292Y-72378213D01*
X156510288Y-72378210D01*
X156379185Y-72290609D01*
X156379172Y-72290602D01*
X156233501Y-72230264D01*
X156233489Y-72230261D01*
X156078845Y-72199500D01*
X156078842Y-72199500D01*
X155921158Y-72199500D01*
X155921155Y-72199500D01*
X155766510Y-72230261D01*
X155766498Y-72230264D01*
X155620827Y-72290602D01*
X155620814Y-72290609D01*
X155489711Y-72378210D01*
X155489704Y-72378215D01*
X155483625Y-72384295D01*
X155422300Y-72417777D01*
X155352609Y-72412790D01*
X155296677Y-72370916D01*
X155281387Y-72344062D01*
X155206635Y-72163592D01*
X155206628Y-72163579D01*
X155097139Y-71999718D01*
X155097136Y-71999714D01*
X154957785Y-71860363D01*
X154957781Y-71860360D01*
X154793920Y-71750871D01*
X154793907Y-71750864D01*
X154611839Y-71675450D01*
X154611829Y-71675447D01*
X154418543Y-71637000D01*
X154418541Y-71637000D01*
X154221459Y-71637000D01*
X154221457Y-71637000D01*
X154028170Y-71675447D01*
X154028160Y-71675450D01*
X153846092Y-71750864D01*
X153846079Y-71750871D01*
X153682218Y-71860360D01*
X153682214Y-71860363D01*
X153542863Y-71999714D01*
X153542860Y-71999718D01*
X153433371Y-72163579D01*
X153433364Y-72163592D01*
X153357950Y-72345660D01*
X153357947Y-72345670D01*
X153319500Y-72538956D01*
X153319500Y-72538959D01*
X153319500Y-73936041D01*
X153319500Y-73936043D01*
X153319499Y-73936043D01*
X146680500Y-73936043D01*
X146680500Y-73936041D01*
X146680500Y-72538959D01*
X146680500Y-72538956D01*
X146642052Y-72345670D01*
X146642051Y-72345669D01*
X146642051Y-72345665D01*
X146619245Y-72290606D01*
X146566635Y-72163592D01*
X146566628Y-72163579D01*
X146457139Y-71999718D01*
X146457136Y-71999714D01*
X146317785Y-71860363D01*
X146317781Y-71860360D01*
X146153920Y-71750871D01*
X146153907Y-71750864D01*
X145971839Y-71675450D01*
X145971829Y-71675447D01*
X145778543Y-71637000D01*
X145778541Y-71637000D01*
X145581459Y-71637000D01*
X145581457Y-71637000D01*
X145388170Y-71675447D01*
X145388160Y-71675450D01*
X145206092Y-71750864D01*
X145206079Y-71750871D01*
X145042218Y-71860360D01*
X145042214Y-71860363D01*
X144902863Y-71999714D01*
X144902860Y-71999718D01*
X144793371Y-72163579D01*
X144793364Y-72163592D01*
X144717950Y-72345660D01*
X144717947Y-72345670D01*
X144679500Y-72538956D01*
X144679500Y-72538959D01*
X144679500Y-73936041D01*
X144679500Y-73936043D01*
X144679499Y-73936043D01*
X136844546Y-73936043D01*
X137048970Y-73830176D01*
X137052959Y-73828202D01*
X138019431Y-73371916D01*
X138023501Y-73370085D01*
X139006044Y-72949644D01*
X139010258Y-72947932D01*
X139079800Y-72921153D01*
X140007588Y-72563882D01*
X140011830Y-72562338D01*
X141022619Y-72215192D01*
X141026845Y-72213827D01*
X142049726Y-71904057D01*
X142054037Y-71902837D01*
X143087608Y-71630867D01*
X143092009Y-71629796D01*
X144134803Y-71396009D01*
X144139213Y-71395104D01*
X145190001Y-71199777D01*
X145194395Y-71199044D01*
X146251622Y-71042471D01*
X146256036Y-71041899D01*
X147318296Y-70924283D01*
X147322809Y-70923868D01*
X148388613Y-70845373D01*
X148393154Y-70845123D01*
X149461100Y-70805850D01*
X149465657Y-70805766D01*
X150534343Y-70805766D01*
X150538900Y-70805850D01*
G37*
%TD.AperFunction*%
%TD*%
M02*
